<?xml version="1.0"?><svg xmlns="http://www.w3.org/2000/svg" xmlns:xlink= "http://www.w3.org/1999/xlink" style="background: white;" width="1500" height="185"> <g style="color: black; font-size: 13px; font-family: sans-serif; transform: translate(18px, 25px);"><g><circle r="3" cx="-6" cy="-5" style="fill: #B6509E" /><text>Borrow APR, variable</text></g><g style="transform: translateX(150px);"><circle r="3" cx="-6" cy="-5" style="fill: rgb(231, 198, 223)" /><text>Borrow APR, stable</text></g><g style="transform: translateX(290px);"><circle r="3" cx="-6" cy="-5" style="fill: rgb(0, 98, 210)" /><text>Utilization Rate</text></g></g><g class="visx-group" transform="translate(40, 50)"><g class="visx-group visx-rows" transform="translate(0, 0)"><line class="visx-line" x1="0" y1="115" x2="1450" y2="115" fill="transparent" shape-rendering="crispEdges" stroke="#000" stroke-width="1" stroke-dasharray="3,3" pointer-events="none"></line><line class="visx-line" x1="0" y1="57.5" x2="1450" y2="57.5" fill="transparent" shape-rendering="crispEdges" stroke="#000" stroke-width="1" stroke-dasharray="3,3" pointer-events="none"></line><line class="visx-line" x1="0" y1="0" x2="1450" y2="0" fill="transparent" shape-rendering="crispEdges" stroke="#000" stroke-width="1" stroke-dasharray="3,3" pointer-events="none"></line></g><path class="visx-linepath" d="M0,113.84999999995145C2.4166666666666665,113.84190740737908,4.833333333333334,113.83381481480673,7.25,113.82572222222223C9.666666666666666,113.81762962963772,12.083333333333334,113.80953703703703,14.5,113.80144444444444C16.916666666666668,113.79335185185185,19.333333333333332,113.78525925925925,21.75,113.77716666666666C24.166666666666668,113.76907407407407,26.583333333333332,113.76098148148148,29,113.75288888888889C31.416666666666668,113.7447962962963,33.833333333333336,113.7367037037037,36.25,113.7286111111111C38.666666666666664,113.72051851851852,41.083333333333336,113.71242592592593,43.5,113.70433333333334C45.91666666666667,113.69624074074075,48.333333333333336,113.68814814814814,50.75000000000001,113.68005555555555C53.16666666666667,113.67196296296297,55.583333333333336,113.66387037037038,58,113.65577777777779C60.416666666666664,113.6476851851852,62.833333333333336,113.63959259259259,65.25,113.6315C67.66666666666667,113.62340740740741,70.08333333333333,113.61531481481482,72.5,113.60722222222223C74.91666666666667,113.59912962962964,77.33333333333333,113.59103703703703,79.75,113.58294444444444C82.16666666666667,113.57485185185185,84.58333333333333,113.56675925925926,87,113.55866666666667C89.41666666666667,113.55057407407408,91.83333333333333,113.54248148148147,94.25,113.53438888888888C96.66666666666667,113.5262962962963,99.08333333333334,113.51820370370369,101.50000000000001,113.5101111111111C103.91666666666667,113.50201851851851,106.33333333333334,113.49392592592592,108.75,113.48583333333333C111.16666666666667,113.47774074074074,113.58333333333333,113.46964814814814,116,113.46155555555555C118.41666666666667,113.45346296296296,120.83333333333334,113.44537037037037,123.25000000000001,113.43727777777778C125.66666666666667,113.42918518518519,128.08333333333334,113.42109259259259,130.5,113.413C132.91666666666666,113.4049074074074,135.33333333333334,113.39681481481482,137.75,113.38872222222223C140.16666666666666,113.38062962962964,142.58333333333334,113.37253703703703,145,113.36444444444444C147.41666666666666,113.35635185185185,149.83333333333334,113.34825925925927,152.25,113.34016666666668C154.66666666666666,113.33207407407409,157.08333333333334,113.32398148148148,159.5,113.31588888888889C161.91666666666666,113.3077962962963,164.33333333333334,113.2997037037037,166.75,113.29161111111111C169.16666666666666,113.28351851851852,171.58333333333334,113.27542592592592,174,113.26733333333333C176.41666666666666,113.25924074074074,178.83333333333334,113.25114814814815,181.25,113.24305555555556C183.66666666666666,113.23496296296297,186.08333333333334,113.22687037037036,188.5,113.21877777777777C190.91666666666666,113.21068518518518,193.33333333333334,113.20259259259258,195.75,113.19449999999999C198.16666666666669,113.1864074074074,200.58333333333334,113.17831481481481,203.00000000000003,113.17022222222222C205.41666666666669,113.16212962962963,207.83333333333331,113.15403703703703,210.24999999999997,113.14594444444444C212.66666666666666,113.13785185185185,215.08333333333331,113.12975925925926,217.5,113.12166666666667C219.91666666666666,113.11357407407408,222.33333333333334,113.10548148148148,224.75,113.09738888888889C227.16666666666666,113.0892962962963,229.58333333333334,113.08120370370371,232,113.07311111111112C234.41666666666666,113.06501851851853,236.83333333333334,113.05692592592592,239.25,113.04883333333333C241.66666666666669,113.04074074074074,244.08333333333334,113.03264814814816,246.50000000000003,113.02455555555557C248.91666666666669,113.01646296296298,251.33333333333331,113.00837037037037,253.74999999999997,113.00027777777778C256.16666666666663,112.99218518518519,258.5833333333333,112.98409259259259,261,112.976C263.4166666666667,112.96790740740741,265.8333333333333,112.9598148148148,268.25,112.95172222222222C270.6666666666667,112.94362962962963,273.0833333333333,112.93553703703702,275.5,112.92744444444443C277.9166666666667,112.91935185185184,280.3333333333333,112.91125925925925,282.75,112.90316666666666C285.1666666666667,112.89507407407407,287.5833333333333,112.88698148148147,290,112.87888888888888C292.4166666666667,112.87079629629629,294.8333333333333,112.8627037037037,297.25,112.85461111111111C299.6666666666667,112.84651851851852,302.0833333333333,112.83842592592592,304.5,112.83033333333333C306.9166666666667,112.82224074074074,309.3333333333333,112.81414814814815,311.75,112.80605555555556C314.1666666666667,112.79796296296297,316.5833333333333,112.78987037037037,319,112.78177777777778C321.4166666666667,112.77368518518519,323.8333333333333,112.7655925925926,326.25,112.75750000000001C328.6666666666667,112.74940740740742,331.0833333333333,112.74131481481481,333.5,112.73322222222222C335.9166666666667,112.72512962962963,338.3333333333333,112.71703703703704,340.75,112.70894444444446C343.1666666666667,112.70085185185187,345.5833333333333,112.69275925925926,348,112.68466666666667C350.4166666666667,112.67657407407408,352.8333333333333,112.66848148148148,355.25,112.66038888888889C357.6666666666667,112.6522962962963,360.0833333333333,112.6442037037037,362.5,112.6361111111111C364.9166666666667,112.62801851851852,367.3333333333333,112.61992592592591,369.75,112.61183333333332C372.1666666666667,112.60374074074073,374.5833333333333,112.59564814814814,377,112.58755555555555C379.4166666666667,112.57946296296296,381.8333333333333,112.57137037037036,384.25,112.56327777777777C386.6666666666667,112.55518518518518,389.0833333333333,112.54709259259259,391.5,112.539C393.9166666666667,112.53090740740741,396.33333333333337,112.52281481481481,398.75000000000006,112.51472222222222C401.16666666666674,112.50662962962963,403.58333333333337,112.49853703703704,406.00000000000006,112.49044444444445C408.4166666666667,112.48235185185186,410.8333333333333,112.47425925925926,413.24999999999994,112.46616666666667C415.66666666666663,112.45807407407408,418.08333333333326,112.44998148148149,420.49999999999994,112.4418888888889C422.91666666666663,112.43379629629631,425.3333333333333,112.4257037037037,427.75,112.41761111111111C430.1666666666667,112.40951851851852,432.5833333333333,112.40142592592593,435,112.39333333333335C437.4166666666667,112.38524074074076,439.8333333333333,112.37714814814815,442.25,112.36905555555556C444.6666666666667,112.36096296296297,447.0833333333333,112.35287037037037,449.5,112.34477777777778C451.9166666666667,112.33668518518519,454.3333333333333,112.32859259259259,456.75,112.3205C459.1666666666667,112.3124074074074,461.5833333333333,112.3043148148148,464,112.29622222222221C466.4166666666667,112.28812962962962,468.8333333333333,112.28003703703703,471.25,112.27194444444444C473.6666666666667,112.26385185185185,476.0833333333333,112.25575925925925,478.5,112.24766666666666C480.9166666666667,112.23957407407407,483.33333333333337,112.23148148148148,485.75000000000006,112.22338888888889C488.16666666666674,112.2152962962963,490.58333333333337,112.2072037037037,493.00000000000006,112.19911111111111C495.4166666666667,112.19101851851852,497.8333333333333,112.18292592592593,500.24999999999994,112.17483333333334C502.66666666666663,112.16674074074075,505.08333333333326,112.15864814814815,507.49999999999994,112.15055555555556C509.91666666666663,112.14246296296297,512.3333333333333,112.13437037037038,514.75,112.12627777777779C517.1666666666666,112.1181851851852,519.5833333333334,112.1100925925926,522,112.102C524.4166666666666,112.09390740740741,526.8333333333334,112.08581481481481,529.25,112.07772222222222C531.6666666666666,112.06962962962963,534.0833333333334,112.06153703703704,536.5,112.05344444444445C538.9166666666666,112.04535185185186,541.3333333333334,112.03725925925926,543.75,112.02916666666667C546.1666666666666,112.02107407407408,548.5833333333334,112.01298148148148,551,112.00488888888889C553.4166666666666,111.9967962962963,555.8333333333334,111.98870370370369,558.25,111.9806111111111C560.6666666666666,111.97251851851851,563.0833333333334,111.96442592592592,565.5,111.95633333333333C567.9166666666666,111.94824074074074,570.3333333333334,111.94014814814814,572.75,111.93205555555555C575.1666666666666,111.92396296296296,577.5833333333334,111.91587037037037,580,111.90777777777778C582.4166666666666,111.89968518518519,584.8333333333334,111.89159259259259,587.25,111.8835C589.6666666666666,111.87540740740741,592.0833333333334,111.86731481481482,594.5,111.85922222222223C596.9166666666666,111.85112962962964,599.3333333333334,111.84303703703704,601.75,111.83494444444445C604.1666666666666,111.82685185185186,606.5833333333334,111.81875925925925,609,111.81066666666666C611.4166666666666,111.80257407407407,613.8333333333334,111.79448148148148,616.25,111.7863888888889C618.6666666666666,111.7782962962963,621.0833333333334,111.7702037037037,623.5,111.76211111111111C625.9166666666666,111.75401851851852,628.3333333333334,111.74592592592593,630.75,111.73783333333334C633.1666666666666,111.72974074074075,635.5833333333334,111.72164814814815,638,111.71355555555556C640.4166666666666,111.70546296296297,642.8333333333334,111.69737037037036,645.25,111.68927777777778C647.6666666666666,111.68118518518519,650.0833333333334,111.67309259259258,652.5,111.66499999999999C654.9166666666666,111.6569074074074,657.3333333333334,111.64881481481481,659.75,111.64072222222222C662.1666666666666,111.63262962962963,664.5833333333334,111.62453703703703,667,111.61644444444444C669.4166666666666,111.60835185185185,671.8333333333334,111.60025925925926,674.25,111.59216666666667C676.6666666666666,111.58407407407408,679.0833333333334,111.57598148148148,681.5,111.56788888888889C683.9166666666666,111.5597962962963,686.3333333333334,111.55170370370371,688.75,111.54361111111112C691.1666666666666,111.53551851851853,693.5833333333334,111.52742592592593,696,111.51933333333334C698.4166666666666,111.51124074074075,700.8333333333334,111.50314814814814,703.25,111.49505555555555C705.6666666666666,111.48696296296296,708.0833333333334,111.47887037037037,710.5,111.47077777777778C712.9166666666666,111.4626851851852,715.3333333333334,111.45459259259259,717.75,111.4465C720.1666666666666,111.43840740740741,722.5833333333334,111.43031481481482,725,111.42222222222223C727.4166666666666,111.41412962962964,729.8333333333334,111.40603703703704,732.25,111.39794444444445C734.6666666666666,111.38985185185186,737.0833333333334,111.38175925925925,739.5,111.37366666666667C741.9166666666666,111.36557407407408,744.3333333333334,111.35748148148147,746.75,111.34938888888888C749.1666666666666,111.34129629629629,751.5833333333334,111.3332037037037,754,111.32511111111111C756.4166666666666,111.31701851851852,758.8333333333334,111.30892592592592,761.25,111.30083333333333C763.6666666666666,111.29274074074074,766.0833333333334,111.28464814814815,768.5,111.27655555555556C770.9166666666666,111.26846296296297,773.3333333333334,111.26037037037037,775.75,111.25227777777778C778.1666666666666,111.24418518518519,780.5833333333334,111.23609259259258,783,111.228C785.4166666666667,111.2199074074074,787.8333333333334,111.21181481481482,790.2500000000001,111.20372222222223C792.6666666666667,111.19562962962964,795.0833333333335,111.18753703703703,797.5000000000001,111.17944444444444C799.9166666666667,111.17135185185185,802.3333333333335,111.16325925925926,804.7500000000001,111.15516666666667C807.1666666666667,111.14707407407408,809.5833333333335,111.13898148148148,812.0000000000001,111.13088888888889C814.4166666666667,111.1227962962963,816.8333333333333,111.11470370370371,819.2499999999999,111.10661111111112C821.6666666666665,111.09851851851853,824.0833333333333,111.09042592592591,826.4999999999999,111.08233333333332C828.9166666666665,111.07424074074073,831.3333333333333,111.06614814814814,833.7499999999999,111.05805555555555C836.1666666666665,111.04996296296297,838.5833333333333,111.04187037037036,840.9999999999999,111.03377777777777C843.4166666666666,111.02568518518518,845.8333333333333,111.01759259259259,848.25,111.0095C850.6666666666666,111.00140740740741,853.0833333333334,110.99331481481481,855.5,110.98522222222222C857.9166666666666,110.97712962962963,860.3333333333334,110.96903703703703,862.75,110.96094444444444C865.1666666666666,110.95285185185185,867.5833333333334,110.94475925925926,870,110.93666666666667C872.4166666666666,110.92857407407408,874.8333333333334,110.92048148148147,877.25,110.91238888888888C879.6666666666666,110.9042962962963,882.0833333333334,110.8962037037037,884.5,110.88811111111112C886.9166666666666,110.88001851851853,889.3333333333334,110.87192592592592,891.75,110.86383333333333C894.1666666666666,110.85574074074074,896.5833333333334,110.84764814814815,899,110.83955555555556C901.4166666666666,110.83146296296297,903.8333333333334,110.82337037037037,906.25,110.81527777777778C908.6666666666666,110.80718518518519,911.0833333333334,110.79909259259259,913.5,110.791C915.9166666666666,110.78290740740741,918.3333333333334,110.7748148148148,920.75,110.76672222222221C923.1666666666666,110.75862962962962,925.5833333333334,110.75053703703703,928,110.74244444444444C930.4166666666666,110.73435185185186,932.8333333333334,110.72625925925925,935.25,110.71816666666666C937.6666666666666,110.71007407407407,940.0833333333334,110.70198148148148,942.5,110.69388888888889C944.9166666666666,110.6857962962963,947.3333333333334,110.6777037037037,949.75,110.66961111111111C952.1666666666666,110.66151851851852,954.5833333333334,110.65342592592592,957,110.64533333333333C959.4166666666666,110.63724074074074,961.8333333333334,110.62914814814815,964.25,110.62105555555556C966.6666666666667,110.61296296296297,969.0833333333334,110.60487037037036,971.5000000000001,110.59677777777777C973.9166666666667,110.58868518518518,976.3333333333335,110.5805925925926,978.7500000000001,110.5725C981.1666666666667,110.56440740740742,983.5833333333335,110.55631481481481,986.0000000000001,110.54822222222222C988.4166666666667,110.54012962962963,990.8333333333335,110.53203703703704,993.2500000000001,110.52394444444445C995.6666666666667,110.51585185185186,998.0833333333333,110.50775925925926,1000.4999999999999,110.49966666666667C1002.9166666666665,110.49157407407408,1005.3333333333333,110.48348148148148,1007.7499999999999,110.47538888888889C1010.1666666666665,110.4672962962963,1012.5833333333333,110.4592037037037,1014.9999999999999,110.4511111111111C1017.4166666666665,110.44301851851851,1019.8333333333333,110.43492592592592,1022.2499999999999,110.42683333333333C1024.6666666666665,110.41874074074074,1027.0833333333333,110.41064814814814,1029.5,110.40255555555555C1031.9166666666667,110.39446296296296,1034.3333333333333,110.38637037037036,1036.75,110.37827777777777C1039.1666666666667,110.37018518518518,1041.5833333333333,110.36209259259259,1044,110.354C1046.4166666666667,110.34590740740741,1048.8333333333333,110.3378148148148,1051.25,110.32972222222222C1053.6666666666667,110.32162962962963,1056.0833333333333,110.31353703703704,1058.5,110.30544444444445C1060.9166666666667,110.29735185185186,1063.3333333333333,110.28925925925925,1065.75,110.28116666666666C1068.1666666666667,110.27307407407407,1070.5833333333333,110.26498148148148,1073,110.2568888888889C1075.4166666666667,110.2487962962963,1077.8333333333333,110.2407037037037,1080.25,110.23261111111111C1082.6666666666667,110.22451851851852,1085.0833333333333,110.21642592592593,1087.5,110.20833333333334C1089.9166666666667,110.20024074074075,1092.3333333333333,110.19214814814815,1094.75,110.18405555555556C1097.1666666666667,110.17596296296297,1099.5833333333333,110.16787037037037,1102,110.15977777777778C1104.4166666666667,110.15168518518519,1106.8333333333333,110.14359259259258,1109.25,110.1355C1111.6666666666667,110.1274074074074,1114.0833333333333,110.1193148148148,1116.5,110.11122222222221C1118.9166666666667,110.10312962962962,1121.3333333333333,110.09503703703703,1123.75,110.08694444444444C1126.1666666666667,110.07885185185185,1128.5833333333333,110.07075925925925,1131,110.06266666666666C1133.4166666666667,110.05457407407407,1135.8333333333333,110.04648148148148,1138.25,110.03838888888889C1140.6666666666667,110.0302962962963,1143.0833333333333,110.0222037037037,1145.5,110.0141111111111C1147.9166666666667,110.00601851851852,1150.3333333333333,109.99792592592593,1152.75,109.98983333333334C1155.1666666666667,109.98174074074075,1157.5833333333333,109.97364814814814,1160,109.96555555555555C1162.4166666666667,109.95746296296296,1164.8333333333333,109.94937037037037,1167.25,109.94127777777778C1169.6666666666667,109.9331851851852,1172.0833333333333,109.92509259259259,1174.5,109.917C1176.9166666666667,109.90890740740741,1179.3333333333333,109.90081481481482,1181.75,109.89272222222223C1184.1666666666667,109.88462962962964,1186.5833333333333,109.87653703703704,1189,109.86844444444445C1191.4166666666667,109.86035185185186,1193.8333333333333,109.85225925925926,1196.25,109.84416666666667C1198.6666666666667,109.83607407407408,1201.0833333333333,109.82798148148147,1203.5,109.81988888888888C1205.9166666666667,109.8117962962963,1208.3333333333333,109.80370370370369,1210.75,109.7956111111111C1213.1666666666667,109.78751851851851,1215.5833333333333,109.77942592592592,1218,109.77133333333333C1220.4166666666667,109.76324074074074,1222.8333333333333,109.75514814814814,1225.25,109.74705555555555C1227.6666666666667,109.73896296296296,1230.0833333333333,109.73087037037037,1232.5,109.72277777777778C1234.9166666666667,109.71468518518519,1237.3333333333333,109.70659259259259,1239.75,109.6985C1242.1666666666667,109.6904074074074,1244.5833333333333,109.68231481481482,1247,109.67422222222223C1249.4166666666667,109.66612962962964,1251.8333333333333,109.65803703703703,1254.25,109.64994444444444C1256.6666666666667,109.64185185185185,1259.0833333333333,109.63375925925926,1261.5,109.62566666666667C1263.9166666666667,109.61757407407408,1266.3333333333333,109.60948148148148,1268.75,109.60138888888889C1271.1666666666667,109.5932962962963,1273.5833333333333,109.58520370370371,1276,109.57711111111112C1278.4166666666667,109.56901851851853,1280.8333333333333,109.56092592592593,1283.25,109.55283333333334C1285.6666666666667,109.54474074074075,1288.0833333333333,109.53664814814815,1290.5,109.52855555555556C1292.9166666666667,109.52046296296297,1295.3333333333333,109.51237037037036,1297.75,109.50427777777777C1300.1666666666667,109.49618518518518,1302.5833333333333,109.49618518518518,1305,109.47999999999999C1307.4166666666667,109.4638148148148,1309.8333333333333,106.41333333333334,1312.25,104.88000000000001C1314.6666666666667,103.34666666666668,1317.0833333333333,101.81333333333333,1319.5,100.28C1321.9166666666667,98.74666666666667,1324.3333333333333,97.21333333333332,1326.75,95.67999999999999C1329.1666666666667,94.14666666666666,1331.5833333333333,92.61333333333333,1334,91.08C1336.4166666666667,89.54666666666667,1338.8333333333333,88.01333333333334,1341.25,86.48C1343.6666666666667,84.94666666666667,1346.0833333333333,83.41333333333333,1348.5,81.88C1350.9166666666667,80.34666666666666,1353.3333333333333,78.81333333333332,1355.75,77.27999999999999C1358.1666666666667,75.74666666666666,1360.5833333333333,74.21333333333334,1363,72.68C1365.4166666666667,71.14666666666668,1367.8333333333333,69.61333333333334,1370.25,68.08000000000001C1372.6666666666667,66.54666666666668,1375.0833333333333,65.01333333333332,1377.5,63.47999999999999C1379.9166666666667,61.94666666666666,1382.3333333333333,60.413333333333334,1384.75,58.88C1387.1666666666667,57.34666666666667,1389.5833333333333,55.813333333333325,1392,54.279999999999994C1394.4166666666667,52.74666666666666,1396.8333333333333,51.21333333333334,1399.25,49.68000000000001C1401.6666666666667,48.146666666666675,1404.0833333333333,46.61333333333333,1406.5,45.08C1408.9166666666667,43.54666666666667,1411.3333333333333,42.01333333333333,1413.75,40.48C1416.1666666666667,38.946666666666665,1418.5833333333333,37.41333333333334,1421,35.88000000000001C1423.4166666666667,34.34666666666668,1425.8333333333333,32.81333333333333,1428.25,31.28C1430.6666666666667,29.746666666666666,1433.0833333333333,28.213333333333335,1435.5,26.68C1437.9166666666667,25.146666666666665,1440.3333333333333,23.613333333333312,1442.75,22.07999999999998C1445.1666666666667,20.54666666666665,1447.5833333333333,19.013333333333325,1450,17.480000000000004" fill="transparent" stroke-linecap="round" stroke="#B6509E" stroke-width="2"></path><path class="visx-linepath" d="M0,107.17999999994889C2.4166666666666665,107.17148148145166,4.833333333333334,107.16296296295445,7.25,107.15444444444445C9.666666666666666,107.14592592593445,12.083333333333334,107.13740740740741,14.5,107.1288888888889C16.916666666666668,107.12037037037038,19.333333333333332,107.11185185185185,21.75,107.10333333333334C24.166666666666668,107.09481481481482,26.583333333333332,107.0862962962963,29,107.07777777777778C31.416666666666668,107.06925925925927,33.833333333333336,107.06074074074074,36.25,107.05222222222223C38.666666666666664,107.04370370370371,41.083333333333336,107.03518518518518,43.5,107.02666666666667C45.91666666666667,107.01814814814814,48.333333333333336,107.00962962962961,50.75000000000001,107.0011111111111C53.16666666666667,106.99259259259259,55.583333333333336,106.98407407407407,58,106.97555555555556C60.416666666666664,106.96703703703704,62.833333333333336,106.9585185185185,65.25,106.94999999999999C67.66666666666667,106.94148148148147,70.08333333333333,106.93296296296296,72.5,106.92444444444445C74.91666666666667,106.91592592592593,77.33333333333333,106.9074074074074,79.75,106.89888888888889C82.16666666666667,106.89037037037038,84.58333333333333,106.88185185185185,87,106.87333333333333C89.41666666666667,106.86481481481482,91.83333333333333,106.85629629629629,94.25,106.84777777777778C96.66666666666667,106.83925925925926,99.08333333333334,106.83074074074074,101.50000000000001,106.82222222222222C103.91666666666667,106.81370370370371,106.33333333333334,106.80518518518518,108.75,106.79666666666667C111.16666666666667,106.78814814814815,113.58333333333333,106.77962962962962,116,106.77111111111111C118.41666666666667,106.7625925925926,120.83333333333334,106.75407407407408,123.25000000000001,106.74555555555557C125.66666666666667,106.73703703703706,128.08333333333334,106.72851851851851,130.5,106.72C132.91666666666666,106.71148148148147,135.33333333333334,106.70296296296296,137.75,106.69444444444444C140.16666666666666,106.68592592592593,142.58333333333334,106.6774074074074,145,106.66888888888889C147.41666666666666,106.66037037037037,149.83333333333334,106.65185185185184,152.25,106.64333333333333C154.66666666666666,106.63481481481482,157.08333333333334,106.62629629629629,159.5,106.61777777777777C161.91666666666666,106.60925925925926,164.33333333333334,106.60074074074073,166.75,106.59222222222222C169.16666666666666,106.5837037037037,171.58333333333334,106.57518518518518,174,106.56666666666666C176.41666666666666,106.55814814814815,178.83333333333334,106.54962962962962,181.25,106.5411111111111C183.66666666666666,106.5325925925926,186.08333333333334,106.52407407407408,188.5,106.51555555555557C190.91666666666666,106.50703703703705,193.33333333333334,106.49851851851852,195.75,106.49000000000001C198.16666666666669,106.4814814814815,200.58333333333334,106.47296296296297,203.00000000000003,106.46444444444445C205.41666666666669,106.45592592592594,207.83333333333331,106.44740740740741,210.24999999999997,106.4388888888889C212.66666666666666,106.43037037037038,215.08333333333331,106.42185185185187,217.5,106.41333333333334C219.91666666666666,106.40481481481483,222.33333333333334,106.3962962962963,224.75,106.38777777777777C227.16666666666666,106.37925925925924,229.58333333333334,106.37074074074073,232,106.36222222222221C234.41666666666666,106.3537037037037,236.83333333333334,106.34518518518517,239.25,106.33666666666666C241.66666666666669,106.32814814814814,244.08333333333334,106.31962962962962,246.50000000000003,106.3111111111111C248.91666666666669,106.30259259259259,251.33333333333331,106.29407407407408,253.74999999999997,106.28555555555556C256.16666666666663,106.27703703703705,258.5833333333333,106.26851851851852,261,106.26C263.4166666666667,106.25148148148149,265.8333333333333,106.24296296296296,268.25,106.23444444444445C270.6666666666667,106.22592592592594,273.0833333333333,106.2174074074074,275.5,106.2088888888889C277.9166666666667,106.20037037037038,280.3333333333333,106.19185185185185,282.75,106.18333333333334C285.1666666666667,106.17481481481482,287.5833333333333,106.1662962962963,290,106.15777777777778C292.4166666666667,106.14925925925927,294.8333333333333,106.14074074074074,297.25,106.13222222222223C299.6666666666667,106.12370370370371,302.0833333333333,106.11518518518518,304.5,106.10666666666667C306.9166666666667,106.09814814814816,309.3333333333333,106.08962962962963,311.75,106.08111111111111C314.1666666666667,106.0725925925926,316.5833333333333,106.06407407407407,319,106.05555555555556C321.4166666666667,106.04703703703704,323.8333333333333,106.03851851851852,326.25,106.03C328.6666666666667,106.02148148148149,331.0833333333333,106.01296296296296,333.5,106.00444444444445C335.9166666666667,105.99592592592593,338.3333333333333,105.9874074074074,340.75,105.97888888888889C343.1666666666667,105.97037037037038,345.5833333333333,105.96185185185185,348,105.95333333333333C350.4166666666667,105.94481481481482,352.8333333333333,105.93629629629629,355.25,105.92777777777778C357.6666666666667,105.91925925925926,360.0833333333333,105.91074074074074,362.5,105.90222222222222C364.9166666666667,105.89370370370371,367.3333333333333,105.88518518518518,369.75,105.87666666666667C372.1666666666667,105.86814814814815,374.5833333333333,105.85962962962962,377,105.85111111111111C379.4166666666667,105.8425925925926,381.8333333333333,105.83407407407408,384.25,105.82555555555557C386.6666666666667,105.81703703703705,389.0833333333333,105.80851851851853,391.5,105.80000000000001C393.9166666666667,105.79148148148148,396.33333333333337,105.78296296296297,398.75000000000006,105.77444444444444C401.16666666666674,105.76592592592593,403.58333333333337,105.7574074074074,406.00000000000006,105.74888888888889C408.4166666666667,105.74037037037037,410.8333333333333,105.73185185185184,413.24999999999994,105.72333333333333C415.66666666666663,105.71481481481482,418.08333333333326,105.70629629629629,420.49999999999994,105.69777777777777C422.91666666666663,105.68925925925926,425.3333333333333,105.68074074074073,427.75,105.67222222222222C430.1666666666667,105.6637037037037,432.5833333333333,105.65518518518518,435,105.64666666666666C437.4166666666667,105.63814814814815,439.8333333333333,105.62962962962962,442.25,105.6211111111111C444.6666666666667,105.61259259259259,447.0833333333333,105.60407407407408,449.5,105.59555555555556C451.9166666666667,105.58703703703705,454.3333333333333,105.57851851851851,456.75,105.57C459.1666666666667,105.56148148148148,461.5833333333333,105.55296296296297,464,105.54444444444445C466.4166666666667,105.53592592592594,468.8333333333333,105.52740740740741,471.25,105.5188888888889C473.6666666666667,105.51037037037038,476.0833333333333,105.50185185185185,478.5,105.49333333333334C480.9166666666667,105.48481481481483,483.33333333333337,105.47629629629631,485.75000000000006,105.46777777777778C488.16666666666674,105.45925925925927,490.58333333333337,105.45074074074073,493.00000000000006,105.44222222222221C495.4166666666667,105.4337037037037,497.8333333333333,105.42518518518519,500.24999999999994,105.41666666666667C502.66666666666663,105.40814814814816,505.08333333333326,105.39962962962962,507.49999999999994,105.3911111111111C509.91666666666663,105.38259259259259,512.3333333333333,105.37407407407407,514.75,105.36555555555556C517.1666666666666,105.35703703703705,519.5833333333334,105.34851851851852,522,105.34C524.4166666666666,105.33148148148149,526.8333333333334,105.32296296296296,529.25,105.31444444444445C531.6666666666666,105.30592592592593,534.0833333333334,105.2974074074074,536.5,105.28888888888889C538.9166666666666,105.28037037037038,541.3333333333334,105.27185185185185,543.75,105.26333333333334C546.1666666666666,105.25481481481482,548.5833333333334,105.2462962962963,551,105.23777777777778C553.4166666666666,105.22925925925927,555.8333333333334,105.22074074074074,558.25,105.21222222222222C560.6666666666666,105.20370370370371,563.0833333333334,105.19518518518518,565.5,105.18666666666667C567.9166666666666,105.17814814814815,570.3333333333334,105.16962962962963,572.75,105.16111111111111C575.1666666666666,105.1525925925926,577.5833333333334,105.14407407407407,580,105.13555555555556C582.4166666666666,105.12703703703704,584.8333333333334,105.11851851851851,587.25,105.11C589.6666666666666,105.10148148148149,592.0833333333334,105.09296296296296,594.5,105.08444444444444C596.9166666666666,105.07592592592593,599.3333333333334,105.0674074074074,601.75,105.05888888888889C604.1666666666666,105.05037037037037,606.5833333333334,105.04185185185185,609,105.03333333333333C611.4166666666666,105.02481481481482,613.8333333333334,105.01629629629629,616.25,105.00777777777778C618.6666666666666,104.99925925925926,621.0833333333334,104.99074074074073,623.5,104.98222222222222C625.9166666666666,104.9737037037037,628.3333333333334,104.96518518518519,630.75,104.95666666666668C633.1666666666666,104.94814814814816,635.5833333333334,104.93962962962962,638,104.93111111111111C640.4166666666666,104.9225925925926,642.8333333333334,104.91407407407408,645.25,104.90555555555557C647.6666666666666,104.89703703703705,650.0833333333334,104.88851851851852,652.5,104.88000000000001C654.9166666666666,104.8714814814815,657.3333333333334,104.86296296296297,659.75,104.85444444444445C662.1666666666666,104.84592592592594,664.5833333333334,104.8374074074074,667,104.82888888888888C669.4166666666666,104.82037037037037,671.8333333333334,104.81185185185184,674.25,104.80333333333333C676.6666666666666,104.79481481481481,679.0833333333334,104.78629629629629,681.5,104.77777777777777C683.9166666666666,104.76925925925926,686.3333333333334,104.76074074074073,688.75,104.75222222222222C691.1666666666666,104.7437037037037,693.5833333333334,104.73518518518517,696,104.72666666666666C698.4166666666666,104.71814814814815,700.8333333333334,104.70962962962962,703.25,104.7011111111111C705.6666666666666,104.69259259259259,708.0833333333334,104.68407407407408,710.5,104.67555555555556C712.9166666666666,104.66703703703705,715.3333333333334,104.65851851851852,717.75,104.65C720.1666666666666,104.64148148148149,722.5833333333334,104.63296296296296,725,104.62444444444445C727.4166666666666,104.61592592592594,729.8333333333334,104.60740740740741,732.25,104.5988888888889C734.6666666666666,104.59037037037038,737.0833333333334,104.58185185185185,739.5,104.57333333333334C741.9166666666666,104.56481481481482,744.3333333333334,104.5562962962963,746.75,104.54777777777778C749.1666666666666,104.53925925925927,751.5833333333334,104.53074074074073,754,104.52222222222221C756.4166666666666,104.5137037037037,758.8333333333334,104.50518518518518,761.25,104.49666666666667C763.6666666666666,104.48814814814816,766.0833333333334,104.47962962962961,768.5,104.4711111111111C770.9166666666666,104.46259259259259,773.3333333333334,104.45407407407407,775.75,104.44555555555556C778.1666666666666,104.43703703703704,780.5833333333334,104.42851851851852,783,104.42C785.4166666666667,104.41148148148149,787.8333333333334,104.40296296296296,790.2500000000001,104.39444444444445C792.6666666666667,104.38592592592593,795.0833333333335,104.3774074074074,797.5000000000001,104.36888888888889C799.9166666666667,104.36037037037038,802.3333333333335,104.35185185185185,804.7500000000001,104.34333333333333C807.1666666666667,104.33481481481482,809.5833333333335,104.32629629629629,812.0000000000001,104.31777777777778C814.4166666666667,104.30925925925926,816.8333333333333,104.30074074074074,819.2499999999999,104.29222222222222C821.6666666666665,104.28370370370371,824.0833333333333,104.27518518518518,826.4999999999999,104.26666666666667C828.9166666666665,104.25814814814815,831.3333333333333,104.24962962962962,833.7499999999999,104.24111111111111C836.1666666666665,104.2325925925926,838.5833333333333,104.22407407407407,840.9999999999999,104.21555555555555C843.4166666666666,104.20703703703704,845.8333333333333,104.19851851851851,848.25,104.19C850.6666666666666,104.18148148148148,853.0833333333334,104.17296296296296,855.5,104.16444444444444C857.9166666666666,104.15592592592593,860.3333333333334,104.1474074074074,862.75,104.13888888888889C865.1666666666666,104.13037037037037,867.5833333333334,104.12185185185184,870,104.11333333333333C872.4166666666666,104.10481481481482,874.8333333333334,104.09629629629629,877.25,104.08777777777777C879.6666666666666,104.07925925925926,882.0833333333334,104.07074074074073,884.5,104.06222222222222C886.9166666666666,104.0537037037037,889.3333333333334,104.04518518518519,891.75,104.03666666666668C894.1666666666666,104.02814814814816,896.5833333333334,104.01962962962962,899,104.0111111111111C901.4166666666666,104.00259259259259,903.8333333333334,103.99407407407408,906.25,103.98555555555556C908.6666666666666,103.97703703703705,911.0833333333334,103.96851851851852,913.5,103.96000000000001C915.9166666666666,103.9514814814815,918.3333333333334,103.94296296296297,920.75,103.93444444444445C923.1666666666666,103.92592592592594,925.5833333333334,103.91740740740741,928,103.9088888888889C930.4166666666666,103.90037037037038,932.8333333333334,103.89185185185184,935.25,103.88333333333333C937.6666666666666,103.87481481481481,940.0833333333334,103.86629629629628,942.5,103.85777777777777C944.9166666666666,103.84925925925926,947.3333333333334,103.84074074074073,949.75,103.83222222222221C952.1666666666666,103.8237037037037,954.5833333333334,103.81518518518519,957,103.80666666666667C959.4166666666666,103.79814814814816,961.8333333333334,103.78962962962962,964.25,103.7811111111111C966.6666666666667,103.77259259259259,969.0833333333334,103.76407407407407,971.5000000000001,103.75555555555556C973.9166666666667,103.74703703703705,976.3333333333335,103.73851851851852,978.7500000000001,103.73C981.1666666666667,103.72148148148149,983.5833333333335,103.71296296296296,986.0000000000001,103.70444444444445C988.4166666666667,103.69592592592593,990.8333333333335,103.6874074074074,993.2500000000001,103.67888888888889C995.6666666666667,103.67037037037038,998.0833333333333,103.66185185185185,1000.4999999999999,103.65333333333334C1002.9166666666665,103.64481481481482,1005.3333333333333,103.6362962962963,1007.7499999999999,103.62777777777778C1010.1666666666665,103.61925925925927,1012.5833333333333,103.61074074074074,1014.9999999999999,103.60222222222222C1017.4166666666665,103.59370370370371,1019.8333333333333,103.58518518518518,1022.2499999999999,103.57666666666667C1024.6666666666665,103.56814814814814,1027.0833333333333,103.55962962962961,1029.5,103.5511111111111C1031.9166666666667,103.54259259259258,1034.3333333333333,103.53407407407407,1036.75,103.52555555555556C1039.1666666666667,103.51703703703704,1041.5833333333333,103.50851851851851,1044,103.5C1046.4166666666667,103.49148148148149,1048.8333333333333,103.48296296296296,1051.25,103.47444444444444C1053.6666666666667,103.46592592592593,1056.0833333333333,103.4574074074074,1058.5,103.44888888888889C1060.9166666666667,103.44037037037037,1063.3333333333333,103.43185185185185,1065.75,103.42333333333333C1068.1666666666667,103.41481481481482,1070.5833333333333,103.40629629629629,1073,103.39777777777778C1075.4166666666667,103.38925925925926,1077.8333333333333,103.38074074074073,1080.25,103.37222222222222C1082.6666666666667,103.3637037037037,1085.0833333333333,103.35518518518519,1087.5,103.34666666666668C1089.9166666666667,103.33814814814816,1092.3333333333333,103.32962962962964,1094.75,103.32111111111112C1097.1666666666667,103.31259259259261,1099.5833333333333,103.3040740740741,1102,103.29555555555557C1104.4166666666667,103.28703703703704,1106.8333333333333,103.27851851851852,1109.25,103.27C1111.6666666666667,103.26148148148147,1114.0833333333333,103.25296296296295,1116.5,103.24444444444444C1118.9166666666667,103.23592592592593,1121.3333333333333,103.2274074074074,1123.75,103.21888888888888C1126.1666666666667,103.21037037037037,1128.5833333333333,103.20185185185184,1131,103.19333333333333C1133.4166666666667,103.18481481481481,1135.8333333333333,103.17629629629629,1138.25,103.16777777777777C1140.6666666666667,103.15925925925926,1143.0833333333333,103.15074074074073,1145.5,103.14222222222222C1147.9166666666667,103.1337037037037,1150.3333333333333,103.12518518518519,1152.75,103.11666666666667C1155.1666666666667,103.10814814814816,1157.5833333333333,103.09962962962962,1160,103.0911111111111C1162.4166666666667,103.08259259259259,1164.8333333333333,103.07407407407408,1167.25,103.06555555555556C1169.6666666666667,103.05703703703705,1172.0833333333333,103.04851851851852,1174.5,103.04C1176.9166666666667,103.03148148148149,1179.3333333333333,103.02296296296296,1181.75,103.01444444444445C1184.1666666666667,103.00592592592594,1186.5833333333333,102.99740740740741,1189,102.9888888888889C1191.4166666666667,102.98037037037038,1193.8333333333333,102.97185185185185,1196.25,102.96333333333334C1198.6666666666667,102.95481481481482,1201.0833333333333,102.94629629629628,1203.5,102.93777777777777C1205.9166666666667,102.92925925925925,1208.3333333333333,102.92074074074073,1210.75,102.91222222222221C1213.1666666666667,102.9037037037037,1215.5833333333333,102.89518518518518,1218,102.88666666666667C1220.4166666666667,102.87814814814816,1222.8333333333333,102.86962962962963,1225.25,102.86111111111111C1227.6666666666667,102.8525925925926,1230.0833333333333,102.84407407407407,1232.5,102.83555555555556C1234.9166666666667,102.82703703703704,1237.3333333333333,102.81851851851852,1239.75,102.81C1242.1666666666667,102.80148148148149,1244.5833333333333,102.79296296296296,1247,102.78444444444445C1249.4166666666667,102.77592592592593,1251.8333333333333,102.7674074074074,1254.25,102.75888888888889C1256.6666666666667,102.75037037037038,1259.0833333333333,102.74185185185185,1261.5,102.73333333333333C1263.9166666666667,102.72481481481482,1266.3333333333333,102.71629629629629,1268.75,102.70777777777778C1271.1666666666667,102.69925925925926,1273.5833333333333,102.69074074074074,1276,102.68222222222222C1278.4166666666667,102.67370370370371,1280.8333333333333,102.66518518518518,1283.25,102.65666666666667C1285.6666666666667,102.64814814814815,1288.0833333333333,102.63962962962961,1290.5,102.6311111111111C1292.9166666666667,102.62259259259258,1295.3333333333333,102.61407407407407,1297.75,102.60555555555555C1300.1666666666667,102.59703703703704,1302.5833333333333,102.59703703703704,1305,102.58C1307.4166666666667,102.56296296296296,1309.8333333333333,99.51333333333334,1312.25,97.98C1314.6666666666667,96.44666666666667,1317.0833333333333,94.91333333333334,1319.5,93.38000000000001C1321.9166666666667,91.84666666666668,1324.3333333333333,90.31333333333333,1326.75,88.78C1329.1666666666667,87.24666666666667,1331.5833333333333,85.71333333333332,1334,84.17999999999999C1336.4166666666667,82.64666666666666,1338.8333333333333,81.11333333333333,1341.25,79.58C1343.6666666666667,78.04666666666667,1346.0833333333333,76.51333333333334,1348.5,74.98C1350.9166666666667,73.44666666666667,1353.3333333333333,71.91333333333331,1355.75,70.37999999999998C1358.1666666666667,68.84666666666665,1360.5833333333333,67.31333333333333,1363,65.78C1365.4166666666667,64.24666666666667,1367.8333333333333,62.71333333333334,1370.25,61.18000000000001C1372.6666666666667,59.646666666666675,1375.0833333333333,58.11333333333333,1377.5,56.58C1379.9166666666667,55.04666666666667,1382.3333333333333,53.51333333333333,1384.75,51.98C1387.1666666666667,50.446666666666665,1389.5833333333333,48.913333333333334,1392,47.38C1394.4166666666667,45.84666666666667,1396.8333333333333,44.31333333333333,1399.25,42.78C1401.6666666666667,41.24666666666667,1404.0833333333333,39.71333333333334,1406.5,38.18000000000001C1408.9166666666667,36.646666666666675,1411.3333333333333,35.11333333333334,1413.75,33.580000000000005C1416.1666666666667,32.046666666666674,1418.5833333333333,30.513333333333332,1421,28.98C1423.4166666666667,27.44666666666667,1425.8333333333333,25.91333333333334,1428.25,24.38000000000001C1430.6666666666667,22.84666666666668,1433.0833333333333,21.31333333333334,1435.5,19.780000000000005C1437.9166666666667,18.24666666666667,1440.3333333333333,16.713333333333335,1442.75,15.180000000000001C1445.1666666666667,13.646666666666668,1447.5833333333333,12.113333333333339,1450,10.580000000000009" fill="transparent" stroke-linecap="round" stroke="#E7C6DF" stroke-width="2"></path><g class="visx-group visx-axis visx-axis-bottom" transform="translate(0, 115)"><g class="visx-group visx-axis-tick" transform="translate(0, 0)"><line class="visx-line" x1="0" y1="0" x2="0" y2="8" fill="transparent" shape-rendering="crispEdges" stroke="#000" stroke-width="0" stroke-linecap="square"></line><svg x="0" y="0" font-size="10" style="overflow:visible"><text transform="" x="0" y="18" fill="#000" font-size="10" text-anchor="middle"><tspan x="0" dy="0em">0%</tspan></text></svg></g><g class="visx-group visx-axis-tick" transform="translate(0, 0)"><line class="visx-line" x1="362.5" y1="0" x2="362.5" y2="8" fill="transparent" shape-rendering="crispEdges" stroke="#000" stroke-width="0" stroke-linecap="square"></line><svg x="0" y="0" font-size="10" style="overflow:visible"><text transform="" x="362.5" y="18" fill="#000" font-size="10" text-anchor="middle"><tspan x="362.5" dy="0em">25%</tspan></text></svg></g><g class="visx-group visx-axis-tick" transform="translate(0, 0)"><line class="visx-line" x1="725" y1="0" x2="725" y2="8" fill="transparent" shape-rendering="crispEdges" stroke="#000" stroke-width="0" stroke-linecap="square"></line><svg x="0" y="0" font-size="10" style="overflow:visible"><text transform="" x="725" y="18" fill="#000" font-size="10" text-anchor="middle"><tspan x="725" dy="0em">50%</tspan></text></svg></g><g class="visx-group visx-axis-tick" transform="translate(0, 0)"><line class="visx-line" x1="1087.5" y1="0" x2="1087.5" y2="8" fill="transparent" shape-rendering="crispEdges" stroke="#000" stroke-width="0" stroke-linecap="square"></line><svg x="0" y="0" font-size="10" style="overflow:visible"><text transform="" x="1087.5" y="18" fill="#000" font-size="10" text-anchor="middle"><tspan x="1087.5" dy="0em">75%</tspan></text></svg></g><g class="visx-group visx-axis-tick" transform="translate(0, 0)"><line class="visx-line" x1="1450" y1="0" x2="1450" y2="8" fill="transparent" shape-rendering="crispEdges" stroke="#000" stroke-width="0" stroke-linecap="square"></line><svg x="0" y="0" font-size="10" style="overflow:visible"><text transform="" x="1450" y="18" fill="#000" font-size="10" text-anchor="middle"><tspan x="1450" dy="0em">100%</tspan></text></svg></g><line class="visx-line visx-axis-line" x1="0.5" y1="0" x2="1450.5" y2="0" fill="transparent" shape-rendering="crispEdges" stroke="#222" stroke-width="0"></line></g><g class="visx-group visx-axis visx-axis-left" transform="translate(0, 0)"><g class="visx-group visx-axis-tick" transform="translate(0, 0)"><line class="visx-line" x1="0" y1="115" x2="-8" y2="115" fill="transparent" shape-rendering="crispEdges" stroke="#222" stroke-width="0" stroke-linecap="square"></line><svg x="-30" y="0" font-size="8" style="overflow:visible"><text transform="" x="-8" y="115" fill="#000" font-size="8" text-anchor="start"><tspan x="-8" dy="0em">0%</tspan></text></svg></g><g class="visx-group visx-axis-tick" transform="translate(0, 0)"><line class="visx-line" x1="0" y1="57.5" x2="-8" y2="57.5" fill="transparent" shape-rendering="crispEdges" stroke="#222" stroke-width="0" stroke-linecap="square"></line><svg x="-30" y="0" font-size="8" style="overflow:visible"><text transform="" x="-8" y="57.5" fill="#000" font-size="8" text-anchor="start"><tspan x="-8" dy="0em">50%</tspan></text></svg></g><g class="visx-group visx-axis-tick" transform="translate(0, 0)"><line class="visx-line" x1="0" y1="0" x2="-8" y2="0" fill="transparent" shape-rendering="crispEdges" stroke="#222" stroke-width="0" stroke-linecap="square"></line><svg x="-30" y="0" font-size="8" style="overflow:visible"><text transform="" x="-8" y="0" fill="#000" font-size="8" text-anchor="start"><tspan x="-8" dy="0em">100%</tspan></text></svg></g><line class="visx-line visx-axis-line" x1="0" y1="115.5" x2="0" y2="0.5" fill="transparent" shape-rendering="crispEdges" stroke="#222" stroke-width="0"></line></g><rect class="visx-bar" width="1450" height="115" fill="transparent"></rect><line class="visx-line" x1="1305" y1="28" x2="1305" y2="115" fill="transparent" shape-rendering="crispEdges" stroke="#0062D2" stroke-width="1" pointer-events="none" stroke-dasharray="5,2"></line><svg x="0" y="0" font-size="10px" style="overflow:visible"><text transform="" x="1305" y="20" font-size="10px" fill="#fff" stroke="#fff" stroke-width="0.8em" text-anchor="middle"><tspan x="1305" dy="0.355em">Optimal 90%</tspan></text></svg><svg x="0" y="0" font-size="10px" style="overflow:visible"><text transform="" x="1305" y="20" font-size="10px" fill="#62677B" text-anchor="middle"><tspan x="1305" dy="0.355em">Optimal 90%</tspan></text></svg></g></svg>