<?xml version="1.0"?><svg xmlns="http://www.w3.org/2000/svg" xmlns:xlink= "http://www.w3.org/1999/xlink" style="background: white;" width="1500" height="185"> <g style="color: black; font-size: 13px; font-family: sans-serif; transform: translate(18px, 25px);"><g><circle r="3" cx="-6" cy="-5" style="fill: #B6509E" /><text>Borrow APR, variable</text></g><g style="transform: translateX(150px);"><circle r="3" cx="-6" cy="-5" style="fill: rgb(231, 198, 223)" /><text>Borrow APR, stable</text></g><g style="transform: translateX(290px);"><circle r="3" cx="-6" cy="-5" style="fill: rgb(0, 98, 210)" /><text>Utilization Rate</text></g></g><g class="visx-group" transform="translate(40, 50)"><g class="visx-group visx-rows" transform="translate(0, 0)"><line class="visx-line" x1="0" y1="115" x2="1450" y2="115" fill="transparent" shape-rendering="crispEdges" stroke="#000" stroke-width="1" stroke-dasharray="3,3" pointer-events="none"></line><line class="visx-line" x1="0" y1="86.25" x2="1450" y2="86.25" fill="transparent" shape-rendering="crispEdges" stroke="#000" stroke-width="1" stroke-dasharray="3,3" pointer-events="none"></line><line class="visx-line" x1="0" y1="57.5" x2="1450" y2="57.5" fill="transparent" shape-rendering="crispEdges" stroke="#000" stroke-width="1" stroke-dasharray="3,3" pointer-events="none"></line><line class="visx-line" x1="0" y1="28.75" x2="1450" y2="28.75" fill="transparent" shape-rendering="crispEdges" stroke="#000" stroke-width="1" stroke-dasharray="3,3" pointer-events="none"></line><line class="visx-line" x1="0" y1="0" x2="1450" y2="0" fill="transparent" shape-rendering="crispEdges" stroke="#000" stroke-width="1" stroke-dasharray="3,3" pointer-events="none"></line></g><path class="visx-linepath" d="M0,14.374999999998558C2.4166666666666665,64.68749999999804,4.833333333333334,114.99999999999754,7.25,114.99999999999754C9.666666666666666,114.99999999999754,12.083333333333334,114.99999999999751,14.5,114.99999999999751C16.916666666666668,114.99999999999751,19.333333333333332,114.9999999999975,21.75,114.9999999999975C24.166666666666668,114.9999999999975,26.583333333333332,114.99999999999748,29,114.99999999999747C31.416666666666668,114.99999999999746,33.833333333333336,114.99999999999744,36.25,114.99999999999744C38.666666666666664,114.99999999999744,41.083333333333336,114.99999999999743,43.5,114.99999999999743C45.91666666666667,114.99999999999743,48.333333333333336,114.99999999999743,50.75000000000001,114.99999999999741C53.16666666666667,114.99999999999741,55.583333333333336,114.9999999999974,58,114.99999999999739C60.416666666666664,114.99999999999737,62.833333333333336,114.99999999999736,65.25,114.99999999999736C67.66666666666667,114.99999999999736,70.08333333333333,114.99999999999734,72.5,114.99999999999734C74.91666666666667,114.99999999999734,77.33333333333333,114.99999999999731,79.75,114.99999999999731C82.16666666666667,114.99999999999731,84.58333333333333,114.9999999999973,87,114.9999999999973C89.41666666666667,114.9999999999973,91.83333333333333,114.99999999999729,94.25,114.99999999999729C96.66666666666667,114.99999999999727,99.08333333333334,114.99999999999727,101.50000000000001,114.99999999999726C103.91666666666667,114.99999999999724,106.33333333333334,114.99999999999723,108.75,114.99999999999723C111.16666666666667,114.99999999999721,113.58333333333333,114.99999999999721,116,114.99999999999721C118.41666666666667,114.9999999999972,120.83333333333334,114.9999999999972,123.25000000000001,114.99999999999719C125.66666666666667,114.99999999999719,128.08333333333334,114.99999999999717,130.5,114.99999999999717C132.91666666666666,114.99999999999717,135.33333333333334,114.99999999999716,137.75,114.99999999999716C140.16666666666666,114.99999999999716,142.58333333333334,114.99999999999714,145,114.99999999999713C147.41666666666666,114.99999999999712,149.83333333333334,114.99999999999712,152.25,114.9999999999971C154.66666666666666,114.99999999999709,157.08333333333334,114.99999999999707,159.5,114.99999999999707C161.91666666666666,114.99999999999707,164.33333333333334,114.99999999999706,166.75,114.99999999999706C169.16666666666666,114.99999999999706,171.58333333333334,114.99999999999704,174,114.99999999999704C176.41666666666666,114.99999999999704,178.83333333333334,114.99999999999702,181.25,114.99999999999702C183.66666666666666,114.99999999999702,186.08333333333334,114.999999999997,188.5,114.999999999997C190.91666666666666,114.999999999997,193.33333333333334,114.99999999999699,195.75,114.99999999999697C198.16666666666669,114.99999999999696,200.58333333333334,114.99999999999696,203.00000000000003,114.99999999999694C205.41666666666669,114.99999999999694,207.83333333333331,114.99999999999693,210.24999999999997,114.99999999999693C212.66666666666666,114.99999999999693,215.08333333333331,114.99999999999693,217.5,114.99999999999692C219.91666666666666,114.99999999999692,222.33333333333334,114.99999999999689,224.75,114.99999999999689C227.16666666666666,114.99999999999689,229.58333333333334,114.99999999999687,232,114.99999999999687C234.41666666666666,114.99999999999687,236.83333333333334,114.99999999999686,239.25,114.99999999999685C241.66666666666669,114.99999999999683,244.08333333333334,114.99999999999683,246.50000000000003,114.99999999999682C248.91666666666669,114.9999999999968,251.33333333333331,114.99999999999679,253.74999999999997,114.99999999999679C256.16666666666663,114.99999999999679,258.5833333333333,114.99999999999679,261,114.99999999999679C263.4166666666667,114.99999999999679,265.8333333333333,114.99999999999677,268.25,114.99999999999676C270.6666666666667,114.99999999999675,273.0833333333333,114.99999999999673,275.5,114.99999999999673C277.9166666666667,114.99999999999673,280.3333333333333,114.99999999999672,282.75,114.99999999999672C285.1666666666667,114.99999999999672,287.5833333333333,114.99999999999669,290,114.99999999999669C292.4166666666667,114.99999999999669,294.8333333333333,114.99999999999667,297.25,114.99999999999667C299.6666666666667,114.99999999999667,302.0833333333333,114.99999999999666,304.5,114.99999999999666C306.9166666666667,114.99999999999666,309.3333333333333,114.99999999999665,311.75,114.99999999999663C314.1666666666667,114.99999999999662,316.5833333333333,114.9999999999966,319,114.9999999999966C321.4166666666667,114.9999999999966,323.8333333333333,114.99999999999659,326.25,114.99999999999659C328.6666666666667,114.99999999999659,331.0833333333333,114.99999999999656,333.5,114.99999999999656C335.9166666666667,114.99999999999656,338.3333333333333,114.99999999999655,340.75,114.99999999999655C343.1666666666667,114.99999999999655,345.5833333333333,114.99999999999653,348,114.99999999999653C350.4166666666667,114.99999999999653,352.8333333333333,114.99999999999652,355.25,114.9999999999965C357.6666666666667,114.99999999999649,360.0833333333333,114.99999999999649,362.5,114.99999999999648C364.9166666666667,114.99999999999646,367.3333333333333,114.99999999999645,369.75,114.99999999999645C372.1666666666667,114.99999999999645,374.5833333333333,114.99999999999643,377,114.99999999999643C379.4166666666667,114.99999999999643,381.8333333333333,114.99999999999642,384.25,114.99999999999642C386.6666666666667,114.99999999999642,389.0833333333333,114.99999999999639,391.5,114.99999999999639C393.9166666666667,114.99999999999638,396.33333333333337,114.99999999999639,398.75000000000006,114.99999999999638C401.16666666666674,114.99999999999638,403.58333333333337,114.99999999999636,406.00000000000006,114.99999999999635C408.4166666666667,114.99999999999633,410.8333333333333,114.99999999999632,413.24999999999994,114.99999999999632C415.66666666666663,114.9999999999963,418.08333333333326,114.9999999999963,420.49999999999994,114.9999999999963C422.91666666666663,114.9999999999963,425.3333333333333,114.9999999999963,427.75,114.99999999999629C430.1666666666667,114.99999999999629,432.5833333333333,114.99999999999626,435,114.99999999999626C437.4166666666667,114.99999999999626,439.8333333333333,114.99999999999625,442.25,114.99999999999625C444.6666666666667,114.99999999999625,447.0833333333333,114.99999999999623,449.5,114.99999999999622C451.9166666666667,114.9999999999962,454.3333333333333,114.99999999999619,456.75,114.99999999999619C459.1666666666667,114.99999999999619,461.5833333333333,114.99999999999618,464,114.99999999999618C466.4166666666667,114.99999999999618,468.8333333333333,114.99999999999616,471.25,114.99999999999616C473.6666666666667,114.99999999999616,476.0833333333333,114.99999999999615,478.5,114.99999999999613C480.9166666666667,114.99999999999612,483.33333333333337,114.99999999999612,485.75000000000006,114.9999999999961C488.16666666666674,114.9999999999961,490.58333333333337,114.9999999999961,493.00000000000006,114.99999999999609C495.4166666666667,114.99999999999609,497.8333333333333,114.99999999999608,500.24999999999994,114.99999999999606C502.66666666666663,114.99999999999605,505.08333333333326,114.99999999999604,507.49999999999994,114.99999999999604C509.91666666666663,114.99999999999604,512.3333333333333,114.99999999999604,514.75,114.99999999999604C517.1666666666666,114.99999999999604,519.5833333333334,114.99999999999602,522,114.999999999996C524.4166666666666,114.99999999999599,526.8333333333334,114.99999999999598,529.25,114.99999999999598C531.6666666666666,114.99999999999598,534.0833333333334,114.99999999999596,536.5,114.99999999999596C538.9166666666666,114.99999999999596,541.3333333333334,114.99999999999595,543.75,114.99999999999594C546.1666666666666,114.99999999999592,548.5833333333334,114.99999999999591,551,114.99999999999591C553.4166666666666,114.99999999999591,555.8333333333334,114.99999999999591,558.25,114.99999999999591C560.6666666666666,114.99999999999591,563.0833333333334,114.9999999999959,565.5,114.99999999999588C567.9166666666666,114.99999999999586,570.3333333333334,114.99999999999586,572.75,114.99999999999585C575.1666666666666,114.99999999999584,577.5833333333334,114.99999999999582,580,114.99999999999582C582.4166666666666,114.99999999999582,584.8333333333334,114.99999999999581,587.25,114.99999999999581C589.6666666666666,114.99999999999581,592.0833333333334,114.9999999999958,594.5,114.9999999999958C596.9166666666666,114.9999999999958,599.3333333333334,114.99999999999577,601.75,114.99999999999577C604.1666666666666,114.99999999999577,606.5833333333334,114.99999999999575,609,114.99999999999575C611.4166666666666,114.99999999999575,613.8333333333334,114.99999999999574,616.25,114.99999999999572C618.6666666666666,114.99999999999571,621.0833333333334,114.9999999999957,623.5,114.9999999999957C625.9166666666666,114.9999999999957,628.3333333333334,114.99999999999568,630.75,114.99999999999568C633.1666666666666,114.99999999999568,635.5833333333334,114.99999999999567,638,114.99999999999567C640.4166666666666,114.99999999999567,642.8333333333334,114.99999999999564,645.25,114.99999999999564C647.6666666666666,114.99999999999564,650.0833333333334,114.99999999999562,652.5,114.99999999999562C654.9166666666666,114.99999999999562,657.3333333333334,114.99999999999561,659.75,114.9999999999956C662.1666666666666,114.99999999999558,664.5833333333334,114.99999999999557,667,114.99999999999557C669.4166666666666,114.99999999999557,671.8333333333334,114.99999999999555,674.25,114.99999999999555C676.6666666666666,114.99999999999555,679.0833333333334,114.99999999999554,681.5,114.99999999999554C683.9166666666666,114.99999999999554,686.3333333333334,114.99999999999552,688.75,114.99999999999551C691.1666666666666,114.9999999999955,693.5833333333334,114.99999999999548,696,114.99999999999548C698.4166666666666,114.99999999999548,700.8333333333334,114.99999999999547,703.25,114.99999999999547C705.6666666666666,114.99999999999547,708.0833333333334,114.99999999999545,710.5,114.99999999999544C712.9166666666666,114.99999999999542,715.3333333333334,114.99999999999541,717.75,114.99999999999541C720.1666666666666,114.99999999999541,722.5833333333334,114.99999999999541,725,114.99999999999541C727.4166666666666,114.99999999999541,729.8333333333334,114.9999999999954,732.25,114.99999999999538C734.6666666666666,114.99999999999537,737.0833333333334,114.99999999999535,739.5,114.99999999999535C741.9166666666666,114.99999999999535,744.3333333333334,114.99999999999534,746.75,114.99999999999534C749.1666666666666,114.99999999999534,751.5833333333334,114.99999999999532,754,114.99999999999531C756.4166666666666,114.9999999999953,758.8333333333334,114.99999999999528,761.25,114.99999999999528C763.6666666666666,114.99999999999528,766.0833333333334,114.99999999999528,768.5,114.99999999999528C770.9166666666666,114.99999999999528,773.3333333333334,114.99999999999527,775.75,114.99999999999525C778.1666666666666,114.99999999999524,780.5833333333334,114.99999999999523,783,114.99999999999523C785.4166666666667,114.99999999999521,787.8333333333334,114.99999999999523,790.2500000000001,114.99999999999521C792.6666666666667,114.99999999999521,795.0833333333335,114.9999999999952,797.5000000000001,114.99999999999518C799.9166666666667,114.99999999999517,802.3333333333335,114.99999999999515,804.7500000000001,114.99999999999515C807.1666666666667,114.99999999999515,809.5833333333335,114.99999999999514,812.0000000000001,114.99999999999514C814.4166666666667,114.99999999999514,816.8333333333333,114.99999999999513,819.2499999999999,114.99999999999513C821.6666666666665,114.99999999999511,824.0833333333333,114.99999999999511,826.4999999999999,114.9999999999951C828.9166666666665,114.99999999999508,831.3333333333333,114.99999999999507,833.7499999999999,114.99999999999507C836.1666666666665,114.99999999999507,838.5833333333333,114.99999999999505,840.9999999999999,114.99999999999505C843.4166666666666,114.99999999999505,845.8333333333333,114.99999999999505,848.25,114.99999999999504C850.6666666666666,114.99999999999504,853.0833333333334,114.99999999999501,855.5,114.99999999999501C857.9166666666666,114.99999999999501,860.3333333333334,114.999999999995,862.75,114.999999999995C865.1666666666666,114.999999999995,867.5833333333334,114.99999999999498,870,114.99999999999497C872.4166666666666,114.99999999999496,874.8333333333334,114.99999999999494,877.25,114.99999999999494C879.6666666666666,114.99999999999494,882.0833333333334,114.99999999999493,884.5,114.99999999999493C886.9166666666666,114.99999999999493,889.3333333333334,114.99999999999491,891.75,114.99999999999491C894.1666666666666,114.99999999999491,896.5833333333334,114.9999999999949,899,114.99999999999488C901.4166666666666,114.99999999999487,903.8333333333334,114.99999999999486,906.25,114.99999999999486C908.6666666666666,114.99999999999486,911.0833333333334,114.99999999999484,913.5,114.99999999999484C915.9166666666666,114.99999999999484,918.3333333333334,114.99999999999483,920.75,114.99999999999481C923.1666666666666,114.9999999999948,925.5833333333334,114.99999999999478,928,114.99999999999478C930.4166666666666,114.99999999999478,932.8333333333334,114.99999999999478,935.25,114.99999999999478C937.6666666666666,114.99999999999478,940.0833333333334,114.99999999999477,942.5,114.99999999999476C944.9166666666666,114.99999999999474,947.3333333333334,114.99999999999473,949.75,114.99999999999473C952.1666666666666,114.99999999999473,954.5833333333334,114.99999999999471,957,114.99999999999471C959.4166666666666,114.99999999999471,961.8333333333334,114.9999999999947,964.25,114.99999999999469C966.6666666666667,114.99999999999467,969.0833333333334,114.99999999999466,971.5000000000001,114.99999999999466C973.9166666666667,114.99999999999466,976.3333333333335,114.99999999999466,978.7500000000001,114.99999999999466C981.1666666666667,114.99999999999466,983.5833333333335,114.99999999999464,986.0000000000001,114.99999999999463C988.4166666666667,114.99999999999461,990.8333333333335,114.99999999999461,993.2500000000001,114.9999999999946C995.6666666666667,114.9999999999946,998.0833333333333,114.99999999999459,1000.4999999999999,114.99999999999459C1002.9166666666665,114.99999999999457,1005.3333333333333,114.99999999999457,1007.7499999999999,114.99999999999456C1010.1666666666665,114.99999999999454,1012.5833333333333,114.99999999999453,1014.9999999999999,114.99999999999453C1017.4166666666665,114.99999999999453,1019.8333333333333,114.99999999999451,1022.2499999999999,114.99999999999451C1024.6666666666665,114.99999999999451,1027.0833333333333,114.99999999999451,1029.5,114.9999999999945C1031.9166666666667,114.9999999999945,1034.3333333333333,114.99999999999449,1036.75,114.99999999999447C1039.1666666666667,114.99999999999446,1041.5833333333333,114.99999999999444,1044,114.99999999999444C1046.4166666666667,114.99999999999444,1048.8333333333333,114.99999999999443,1051.25,114.99999999999443C1053.6666666666667,114.99999999999443,1056.0833333333333,114.9999999999944,1058.5,114.9999999999944C1060.9166666666667,114.9999999999944,1063.3333333333333,114.99999999999439,1065.75,114.99999999999439C1068.1666666666667,114.99999999999439,1070.5833333333333,114.99999999999437,1073,114.99999999999437C1075.4166666666667,114.99999999999437,1077.8333333333333,114.99999999999436,1080.25,114.99999999999434C1082.6666666666667,114.99999999999433,1085.0833333333333,114.99999999999432,1087.5,114.99999999999432C1089.9166666666667,114.99999999999432,1092.3333333333333,114.9999999999943,1094.75,114.9999999999943C1097.1666666666667,114.9999999999943,1099.5833333333333,114.99999999999429,1102,114.99999999999429C1104.4166666666667,114.99999999999429,1106.8333333333333,114.99999999999426,1109.25,114.99999999999426C1111.6666666666667,114.99999999999426,1114.0833333333333,114.99999999999424,1116.5,114.99999999999424C1118.9166666666667,114.99999999999424,1121.3333333333333,114.99999999999423,1123.75,114.99999999999422C1126.1666666666667,114.9999999999942,1128.5833333333333,114.9999999999942,1131,114.99999999999419C1133.4166666666667,114.99999999999417,1135.8333333333333,114.99999999999416,1138.25,114.99999999999416C1140.6666666666667,114.99999999999416,1143.0833333333333,114.99999999999416,1145.5,114.99999999999416C1147.9166666666667,114.99999999999416,1150.3333333333333,114.99999999999415,1152.75,114.99999999999413C1155.1666666666667,114.99999999999412,1157.5833333333333,114.9999999999941,1160,114.9999999999941C1162.4166666666667,114.9999999999941,1164.8333333333333,114.99999999999409,1167.25,114.99999999999409C1169.6666666666667,114.99999999999409,1172.0833333333333,114.99999999999407,1174.5,114.99999999999406C1176.9166666666667,114.99999999999405,1179.3333333333333,114.99999999999403,1181.75,114.99999999999403C1184.1666666666667,114.99999999999403,1186.5833333333333,114.99999999999403,1189,114.99999999999403C1191.4166666666667,114.99999999999403,1193.8333333333333,114.99999999999402,1196.25,114.999999999994C1198.6666666666667,114.99999999999399,1201.0833333333333,114.99999999999397,1203.5,114.99999999999397C1205.9166666666667,114.99999999999397,1208.3333333333333,114.99999999999396,1210.75,114.99999999999396C1213.1666666666667,114.99999999999396,1215.5833333333333,114.99999999999395,1218,114.99999999999393C1220.4166666666667,114.99999999999392,1222.8333333333333,114.9999999999939,1225.25,114.9999999999939C1227.6666666666667,114.9999999999939,1230.0833333333333,114.99999999999389,1232.5,114.99999999999389C1234.9166666666667,114.99999999999389,1237.3333333333333,114.99999999999388,1239.75,114.99999999999388C1242.1666666666667,114.99999999999388,1244.5833333333333,114.99999999999386,1247,114.99999999999385C1249.4166666666667,114.99999999999383,1251.8333333333333,114.99999999999382,1254.25,114.99999999999382C1256.6666666666667,114.99999999999382,1259.0833333333333,114.9999999999938,1261.5,114.9999999999938C1263.9166666666667,114.9999999999938,1266.3333333333333,114.99999999999378,1268.75,114.99999999999378C1271.1666666666667,114.99999999999378,1273.5833333333333,114.99999999999376,1276,114.99999999999376C1278.4166666666667,114.99999999999376,1280.8333333333333,114.99999999999375,1283.25,114.99999999999375C1285.6666666666667,114.99999999999375,1288.0833333333333,114.99999999999373,1290.5,114.99999999999372C1292.9166666666667,114.9999999999937,1295.3333333333333,114.99999999999369,1297.75,114.99999999999369C1300.1666666666667,114.99999999999369,1302.5833333333333,114.99999999999368,1305,114.99999999999368C1307.4166666666667,114.99999999999368,1309.8333333333333,114.99999999999365,1312.25,114.99999999999365C1314.6666666666667,114.99999999999365,1317.0833333333333,114.99999999999363,1319.5,114.99999999999363C1321.9166666666667,114.99999999999363,1324.3333333333333,114.99999999999362,1326.75,114.99999999999362C1329.1666666666667,114.99999999999362,1331.5833333333333,114.9999999999936,1334,114.99999999999359C1336.4166666666667,114.99999999999358,1338.8333333333333,114.99999999999358,1341.25,114.99999999999356C1343.6666666666667,114.99999999999355,1346.0833333333333,114.99999999999353,1348.5,114.99999999999353C1350.9166666666667,114.99999999999353,1353.3333333333333,114.99999999999352,1355.75,114.99999999999352C1358.1666666666667,114.99999999999352,1360.5833333333333,114.9999999999935,1363,114.9999999999935C1365.4166666666667,114.9999999999935,1367.8333333333333,114.99999999999348,1370.25,114.99999999999348C1372.6666666666667,114.99999999999348,1375.0833333333333,114.99999999999346,1377.5,114.99999999999346C1379.9166666666667,114.99999999999346,1382.3333333333333,114.99999999999345,1384.75,114.99999999999343C1387.1666666666667,114.99999999999342,1389.5833333333333,114.9999999999934,1392,114.9999999999934C1394.4166666666667,114.9999999999934,1396.8333333333333,114.9999999999934,1399.25,114.9999999999934C1401.6666666666667,114.9999999999934,1404.0833333333333,114.99999999999339,1406.5,114.99999999999338C1408.9166666666667,114.99999999999336,1411.3333333333333,114.99999999999335,1413.75,114.99999999999335C1416.1666666666667,114.99999999999335,1418.5833333333333,114.99999999999334,1421,114.99999999999334C1423.4166666666667,114.99999999999334,1425.8333333333333,114.99999999999332,1428.25,114.9999999999933C1430.6666666666667,114.99999999999329,1433.0833333333333,114.99999999999328,1435.5,114.99999999999328C1437.9166666666667,114.99999999999328,1440.3333333333333,114.99999999999328,1442.75,114.99999999999328C1445.1666666666667,114.99999999999328,1447.5833333333333,114.99999999999326,1450,114.99999999999325" fill="transparent" stroke-linecap="round" stroke="#B6509E" stroke-width="2"></path><path class="visx-linepath" d="M0,14.37499999999986C2.4166666666666665,64.68749999999933,4.833333333333334,114.99999999999882,7.25,114.99999999999882C9.666666666666666,114.99999999999882,12.083333333333334,114.9999999999988,14.5,114.9999999999988C16.916666666666668,114.9999999999988,19.333333333333332,114.99999999999879,21.75,114.99999999999879C24.166666666666668,114.99999999999879,26.583333333333332,114.99999999999878,29,114.99999999999876C31.416666666666668,114.99999999999875,33.833333333333336,114.99999999999874,36.25,114.99999999999874C38.666666666666664,114.99999999999874,41.083333333333336,114.99999999999872,43.5,114.99999999999872C45.91666666666667,114.9999999999987,48.333333333333336,114.9999999999987,50.75000000000001,114.99999999999869C53.16666666666667,114.99999999999869,55.583333333333336,114.99999999999868,58,114.99999999999868C60.416666666666664,114.99999999999868,62.833333333333336,114.99999999999866,65.25,114.99999999999866C67.66666666666667,114.99999999999866,70.08333333333333,114.99999999999865,72.5,114.99999999999864C74.91666666666667,114.99999999999862,77.33333333333333,114.99999999999861,79.75,114.99999999999861C82.16666666666667,114.99999999999861,84.58333333333333,114.9999999999986,87,114.9999999999986C89.41666666666667,114.9999999999986,91.83333333333333,114.99999999999856,94.25,114.99999999999856C96.66666666666667,114.99999999999855,99.08333333333334,114.99999999999855,101.50000000000001,114.99999999999855C103.91666666666667,114.99999999999855,106.33333333333334,114.99999999999854,108.75,114.99999999999854C111.16666666666667,114.99999999999852,113.58333333333333,114.99999999999852,116,114.99999999999851C118.41666666666667,114.9999999999985,120.83333333333334,114.9999999999985,123.25000000000001,114.99999999999848C125.66666666666667,114.99999999999848,128.08333333333334,114.99999999999847,130.5,114.99999999999847C132.91666666666666,114.99999999999845,135.33333333333334,114.99999999999844,137.75,114.99999999999844C140.16666666666666,114.99999999999844,142.58333333333334,114.99999999999842,145,114.99999999999842C147.41666666666666,114.99999999999842,149.83333333333334,114.9999999999984,152.25,114.9999999999984C154.66666666666666,114.9999999999984,157.08333333333334,114.99999999999838,159.5,114.99999999999838C161.91666666666666,114.99999999999838,164.33333333333334,114.99999999999837,166.75,114.99999999999835C169.16666666666666,114.99999999999834,171.58333333333334,114.99999999999832,174,114.99999999999832C176.41666666666666,114.99999999999832,178.83333333333334,114.99999999999831,181.25,114.99999999999831C183.66666666666666,114.99999999999831,186.08333333333334,114.9999999999983,188.5,114.9999999999983C190.91666666666666,114.9999999999983,193.33333333333334,114.99999999999827,195.75,114.99999999999827C198.16666666666669,114.99999999999825,200.58333333333334,114.99999999999827,203.00000000000003,114.99999999999825C205.41666666666669,114.99999999999825,207.83333333333331,114.99999999999824,210.24999999999997,114.99999999999822C212.66666666666666,114.99999999999821,215.08333333333331,114.99999999999821,217.5,114.9999999999982C219.91666666666666,114.9999999999982,222.33333333333334,114.99999999999818,224.75,114.99999999999818C227.16666666666666,114.99999999999818,229.58333333333334,114.99999999999817,232,114.99999999999817C234.41666666666666,114.99999999999817,236.83333333333334,114.99999999999814,239.25,114.99999999999814C241.66666666666669,114.99999999999812,244.08333333333334,114.99999999999814,246.50000000000003,114.99999999999812C248.91666666666669,114.99999999999812,251.33333333333331,114.99999999999811,253.74999999999997,114.9999999999981C256.16666666666663,114.99999999999808,258.5833333333333,114.99999999999808,261,114.99999999999807C263.4166666666667,114.99999999999807,265.8333333333333,114.99999999999805,268.25,114.99999999999805C270.6666666666667,114.99999999999805,273.0833333333333,114.99999999999804,275.5,114.99999999999804C277.9166666666667,114.99999999999804,280.3333333333333,114.99999999999802,282.75,114.99999999999801C285.1666666666667,114.999999999998,287.5833333333333,114.99999999999798,290,114.99999999999798C292.4166666666667,114.99999999999798,294.8333333333333,114.99999999999797,297.25,114.99999999999797C299.6666666666667,114.99999999999797,302.0833333333333,114.99999999999794,304.5,114.99999999999794C306.9166666666667,114.99999999999794,309.3333333333333,114.99999999999793,311.75,114.99999999999793C314.1666666666667,114.99999999999793,316.5833333333333,114.99999999999791,319,114.99999999999791C321.4166666666667,114.99999999999791,323.8333333333333,114.9999999999979,326.25,114.99999999999788C328.6666666666667,114.99999999999787,331.0833333333333,114.99999999999785,333.5,114.99999999999785C335.9166666666667,114.99999999999785,338.3333333333333,114.99999999999784,340.75,114.99999999999784C343.1666666666667,114.99999999999784,345.5833333333333,114.99999999999781,348,114.99999999999781C350.4166666666667,114.99999999999781,352.8333333333333,114.9999999999978,355.25,114.9999999999978C357.6666666666667,114.9999999999978,360.0833333333333,114.99999999999777,362.5,114.99999999999777C364.9166666666667,114.99999999999777,367.3333333333333,114.99999999999775,369.75,114.99999999999775C372.1666666666667,114.99999999999775,374.5833333333333,114.99999999999774,377,114.99999999999773C379.4166666666667,114.99999999999771,381.8333333333333,114.9999999999977,384.25,114.9999999999977C386.6666666666667,114.9999999999977,389.0833333333333,114.99999999999768,391.5,114.99999999999768C393.9166666666667,114.99999999999768,396.33333333333337,114.99999999999768,398.75000000000006,114.99999999999767C401.16666666666674,114.99999999999767,403.58333333333337,114.99999999999766,406.00000000000006,114.99999999999764C408.4166666666667,114.99999999999764,410.8333333333333,114.99999999999763,413.24999999999994,114.99999999999763C415.66666666666663,114.99999999999761,418.08333333333326,114.99999999999761,420.49999999999994,114.9999999999976C422.91666666666663,114.99999999999758,425.3333333333333,114.99999999999758,427.75,114.99999999999757C430.1666666666667,114.99999999999757,432.5833333333333,114.99999999999756,435,114.99999999999756C437.4166666666667,114.99999999999756,439.8333333333333,114.99999999999754,442.25,114.99999999999754C444.6666666666667,114.99999999999754,447.0833333333333,114.99999999999751,449.5,114.99999999999751C451.9166666666667,114.99999999999751,454.3333333333333,114.9999999999975,456.75,114.9999999999975C459.1666666666667,114.9999999999975,461.5833333333333,114.99999999999748,464,114.99999999999747C466.4166666666667,114.99999999999746,468.8333333333333,114.99999999999744,471.25,114.99999999999744C473.6666666666667,114.99999999999744,476.0833333333333,114.99999999999743,478.5,114.99999999999743C480.9166666666667,114.99999999999743,483.33333333333337,114.99999999999743,485.75000000000006,114.99999999999741C488.16666666666674,114.99999999999741,490.58333333333337,114.9999999999974,493.00000000000006,114.99999999999739C495.4166666666667,114.99999999999737,497.8333333333333,114.99999999999736,500.24999999999994,114.99999999999736C502.66666666666663,114.99999999999734,505.08333333333326,114.99999999999734,507.49999999999994,114.99999999999734C509.91666666666663,114.99999999999733,512.3333333333333,114.99999999999733,514.75,114.99999999999731C517.1666666666666,114.99999999999731,519.5833333333334,114.9999999999973,522,114.9999999999973C524.4166666666666,114.9999999999973,526.8333333333334,114.99999999999729,529.25,114.99999999999729C531.6666666666666,114.99999999999729,534.0833333333334,114.99999999999727,536.5,114.99999999999726C538.9166666666666,114.99999999999724,541.3333333333334,114.99999999999723,543.75,114.99999999999723C546.1666666666666,114.99999999999723,548.5833333333334,114.99999999999721,551,114.99999999999721C553.4166666666666,114.99999999999721,555.8333333333334,114.99999999999719,558.25,114.99999999999719C560.6666666666666,114.99999999999719,563.0833333333334,114.99999999999717,565.5,114.99999999999717C567.9166666666666,114.99999999999717,570.3333333333334,114.99999999999716,572.75,114.99999999999716C575.1666666666666,114.99999999999716,577.5833333333334,114.99999999999714,580,114.99999999999713C582.4166666666666,114.99999999999712,584.8333333333334,114.99999999999712,587.25,114.9999999999971C589.6666666666666,114.99999999999709,592.0833333333334,114.99999999999707,594.5,114.99999999999707C596.9166666666666,114.99999999999707,599.3333333333334,114.99999999999706,601.75,114.99999999999706C604.1666666666666,114.99999999999706,606.5833333333334,114.99999999999704,609,114.99999999999704C611.4166666666666,114.99999999999704,613.8333333333334,114.99999999999702,616.25,114.99999999999702C618.6666666666666,114.99999999999702,621.0833333333334,114.999999999997,623.5,114.999999999997C625.9166666666666,114.999999999997,628.3333333333334,114.99999999999699,630.75,114.99999999999697C633.1666666666666,114.99999999999696,635.5833333333334,114.99999999999694,638,114.99999999999694C640.4166666666666,114.99999999999694,642.8333333333334,114.99999999999693,645.25,114.99999999999693C647.6666666666666,114.99999999999693,650.0833333333334,114.99999999999692,652.5,114.99999999999692C654.9166666666666,114.99999999999692,657.3333333333334,114.99999999999689,659.75,114.99999999999689C662.1666666666666,114.99999999999689,664.5833333333334,114.99999999999687,667,114.99999999999687C669.4166666666666,114.99999999999687,671.8333333333334,114.99999999999686,674.25,114.99999999999685C676.6666666666666,114.99999999999683,679.0833333333334,114.99999999999683,681.5,114.99999999999682C683.9166666666666,114.9999999999968,686.3333333333334,114.99999999999679,688.75,114.99999999999679C691.1666666666666,114.99999999999679,693.5833333333334,114.99999999999679,696,114.99999999999679C698.4166666666666,114.99999999999679,700.8333333333334,114.99999999999677,703.25,114.99999999999676C705.6666666666666,114.99999999999675,708.0833333333334,114.99999999999673,710.5,114.99999999999673C712.9166666666666,114.99999999999673,715.3333333333334,114.99999999999672,717.75,114.99999999999672C720.1666666666666,114.99999999999672,722.5833333333334,114.99999999999669,725,114.99999999999669C727.4166666666666,114.99999999999669,729.8333333333334,114.99999999999667,732.25,114.99999999999667C734.6666666666666,114.99999999999667,737.0833333333334,114.99999999999666,739.5,114.99999999999666C741.9166666666666,114.99999999999666,744.3333333333334,114.99999999999665,746.75,114.99999999999663C749.1666666666666,114.99999999999662,751.5833333333334,114.9999999999966,754,114.9999999999966C756.4166666666666,114.9999999999966,758.8333333333334,114.99999999999659,761.25,114.99999999999659C763.6666666666666,114.99999999999659,766.0833333333334,114.99999999999656,768.5,114.99999999999656C770.9166666666666,114.99999999999656,773.3333333333334,114.99999999999655,775.75,114.99999999999655C778.1666666666666,114.99999999999655,780.5833333333334,114.99999999999653,783,114.99999999999653C785.4166666666667,114.99999999999652,787.8333333333334,114.99999999999652,790.2500000000001,114.9999999999965C792.6666666666667,114.99999999999649,795.0833333333335,114.99999999999649,797.5000000000001,114.99999999999648C799.9166666666667,114.99999999999646,802.3333333333335,114.99999999999645,804.7500000000001,114.99999999999645C807.1666666666667,114.99999999999645,809.5833333333335,114.99999999999643,812.0000000000001,114.99999999999643C814.4166666666667,114.99999999999643,816.8333333333333,114.99999999999642,819.2499999999999,114.99999999999642C821.6666666666665,114.9999999999964,824.0833333333333,114.99999999999639,826.4999999999999,114.99999999999639C828.9166666666665,114.99999999999639,831.3333333333333,114.99999999999638,833.7499999999999,114.99999999999638C836.1666666666665,114.99999999999638,838.5833333333333,114.99999999999636,840.9999999999999,114.99999999999635C843.4166666666666,114.99999999999633,845.8333333333333,114.99999999999633,848.25,114.99999999999632C850.6666666666666,114.99999999999632,853.0833333333334,114.9999999999963,855.5,114.9999999999963C857.9166666666666,114.9999999999963,860.3333333333334,114.99999999999629,862.75,114.99999999999629C865.1666666666666,114.99999999999629,867.5833333333334,114.99999999999626,870,114.99999999999626C872.4166666666666,114.99999999999626,874.8333333333334,114.99999999999625,877.25,114.99999999999625C879.6666666666666,114.99999999999625,882.0833333333334,114.99999999999623,884.5,114.99999999999622C886.9166666666666,114.9999999999962,889.3333333333334,114.99999999999619,891.75,114.99999999999619C894.1666666666666,114.99999999999619,896.5833333333334,114.99999999999618,899,114.99999999999618C901.4166666666666,114.99999999999618,903.8333333333334,114.99999999999616,906.25,114.99999999999616C908.6666666666666,114.99999999999616,911.0833333333334,114.99999999999615,913.5,114.99999999999613C915.9166666666666,114.99999999999612,918.3333333333334,114.9999999999961,920.75,114.9999999999961C923.1666666666666,114.9999999999961,925.5833333333334,114.99999999999609,928,114.99999999999609C930.4166666666666,114.99999999999609,932.8333333333334,114.99999999999608,935.25,114.99999999999606C937.6666666666666,114.99999999999605,940.0833333333334,114.99999999999604,942.5,114.99999999999604C944.9166666666666,114.99999999999604,947.3333333333334,114.99999999999604,949.75,114.99999999999604C952.1666666666666,114.99999999999604,954.5833333333334,114.99999999999602,957,114.999999999996C959.4166666666666,114.99999999999599,961.8333333333334,114.99999999999598,964.25,114.99999999999598C966.6666666666667,114.99999999999596,969.0833333333334,114.99999999999598,971.5000000000001,114.99999999999596C973.9166666666667,114.99999999999596,976.3333333333335,114.99999999999595,978.7500000000001,114.99999999999594C981.1666666666667,114.99999999999592,983.5833333333335,114.99999999999591,986.0000000000001,114.99999999999591C988.4166666666667,114.99999999999591,990.8333333333335,114.99999999999591,993.2500000000001,114.99999999999591C995.6666666666667,114.99999999999591,998.0833333333333,114.9999999999959,1000.4999999999999,114.99999999999588C1002.9166666666665,114.99999999999586,1005.3333333333333,114.99999999999586,1007.7499999999999,114.99999999999585C1010.1666666666665,114.99999999999584,1012.5833333333333,114.99999999999582,1014.9999999999999,114.99999999999582C1017.4166666666665,114.99999999999582,1019.8333333333333,114.99999999999581,1022.2499999999999,114.99999999999581C1024.6666666666665,114.99999999999581,1027.0833333333333,114.99999999999581,1029.5,114.9999999999958C1031.9166666666667,114.9999999999958,1034.3333333333333,114.99999999999577,1036.75,114.99999999999577C1039.1666666666667,114.99999999999577,1041.5833333333333,114.99999999999575,1044,114.99999999999575C1046.4166666666667,114.99999999999575,1048.8333333333333,114.99999999999574,1051.25,114.99999999999572C1053.6666666666667,114.99999999999571,1056.0833333333333,114.9999999999957,1058.5,114.9999999999957C1060.9166666666667,114.9999999999957,1063.3333333333333,114.99999999999568,1065.75,114.99999999999568C1068.1666666666667,114.99999999999568,1070.5833333333333,114.99999999999567,1073,114.99999999999567C1075.4166666666667,114.99999999999567,1077.8333333333333,114.99999999999564,1080.25,114.99999999999564C1082.6666666666667,114.99999999999564,1085.0833333333333,114.99999999999562,1087.5,114.99999999999562C1089.9166666666667,114.99999999999562,1092.3333333333333,114.99999999999561,1094.75,114.9999999999956C1097.1666666666667,114.99999999999558,1099.5833333333333,114.99999999999557,1102,114.99999999999557C1104.4166666666667,114.99999999999557,1106.8333333333333,114.99999999999555,1109.25,114.99999999999555C1111.6666666666667,114.99999999999555,1114.0833333333333,114.99999999999554,1116.5,114.99999999999554C1118.9166666666667,114.99999999999554,1121.3333333333333,114.99999999999552,1123.75,114.99999999999551C1126.1666666666667,114.9999999999955,1128.5833333333333,114.99999999999548,1131,114.99999999999548C1133.4166666666667,114.99999999999548,1135.8333333333333,114.99999999999547,1138.25,114.99999999999547C1140.6666666666667,114.99999999999547,1143.0833333333333,114.99999999999545,1145.5,114.99999999999544C1147.9166666666667,114.99999999999542,1150.3333333333333,114.99999999999541,1152.75,114.99999999999541C1155.1666666666667,114.99999999999541,1157.5833333333333,114.99999999999541,1160,114.99999999999541C1162.4166666666667,114.99999999999541,1164.8333333333333,114.9999999999954,1167.25,114.99999999999538C1169.6666666666667,114.99999999999537,1172.0833333333333,114.99999999999535,1174.5,114.99999999999535C1176.9166666666667,114.99999999999535,1179.3333333333333,114.99999999999534,1181.75,114.99999999999534C1184.1666666666667,114.99999999999534,1186.5833333333333,114.99999999999532,1189,114.99999999999531C1191.4166666666667,114.9999999999953,1193.8333333333333,114.99999999999528,1196.25,114.99999999999528C1198.6666666666667,114.99999999999528,1201.0833333333333,114.99999999999528,1203.5,114.99999999999528C1205.9166666666667,114.99999999999528,1208.3333333333333,114.99999999999527,1210.75,114.99999999999525C1213.1666666666667,114.99999999999524,1215.5833333333333,114.99999999999523,1218,114.99999999999523C1220.4166666666667,114.99999999999523,1222.8333333333333,114.99999999999521,1225.25,114.99999999999521C1227.6666666666667,114.99999999999521,1230.0833333333333,114.9999999999952,1232.5,114.99999999999518C1234.9166666666667,114.99999999999517,1237.3333333333333,114.99999999999515,1239.75,114.99999999999515C1242.1666666666667,114.99999999999515,1244.5833333333333,114.99999999999514,1247,114.99999999999514C1249.4166666666667,114.99999999999514,1251.8333333333333,114.99999999999513,1254.25,114.99999999999513C1256.6666666666667,114.99999999999513,1259.0833333333333,114.99999999999511,1261.5,114.9999999999951C1263.9166666666667,114.99999999999508,1266.3333333333333,114.99999999999507,1268.75,114.99999999999507C1271.1666666666667,114.99999999999507,1273.5833333333333,114.99999999999505,1276,114.99999999999505C1278.4166666666667,114.99999999999505,1280.8333333333333,114.99999999999504,1283.25,114.99999999999504C1285.6666666666667,114.99999999999504,1288.0833333333333,114.99999999999501,1290.5,114.99999999999501C1292.9166666666667,114.99999999999501,1295.3333333333333,114.999999999995,1297.75,114.999999999995C1300.1666666666667,114.999999999995,1302.5833333333333,114.99999999999498,1305,114.99999999999497C1307.4166666666667,114.99999999999496,1309.8333333333333,114.99999999999494,1312.25,114.99999999999494C1314.6666666666667,114.99999999999494,1317.0833333333333,114.99999999999493,1319.5,114.99999999999493C1321.9166666666667,114.99999999999493,1324.3333333333333,114.99999999999491,1326.75,114.99999999999491C1329.1666666666667,114.99999999999491,1331.5833333333333,114.9999999999949,1334,114.99999999999488C1336.4166666666667,114.99999999999487,1338.8333333333333,114.99999999999486,1341.25,114.99999999999486C1343.6666666666667,114.99999999999486,1346.0833333333333,114.99999999999484,1348.5,114.99999999999484C1350.9166666666667,114.99999999999484,1353.3333333333333,114.99999999999483,1355.75,114.99999999999481C1358.1666666666667,114.9999999999948,1360.5833333333333,114.99999999999478,1363,114.99999999999478C1365.4166666666667,114.99999999999478,1367.8333333333333,114.99999999999478,1370.25,114.99999999999478C1372.6666666666667,114.99999999999478,1375.0833333333333,114.99999999999477,1377.5,114.99999999999476C1379.9166666666667,114.99999999999474,1382.3333333333333,114.99999999999473,1384.75,114.99999999999473C1387.1666666666667,114.99999999999473,1389.5833333333333,114.99999999999471,1392,114.99999999999471C1394.4166666666667,114.99999999999471,1396.8333333333333,114.9999999999947,1399.25,114.99999999999469C1401.6666666666667,114.99999999999467,1404.0833333333333,114.99999999999466,1406.5,114.99999999999466C1408.9166666666667,114.99999999999466,1411.3333333333333,114.99999999999466,1413.75,114.99999999999466C1416.1666666666667,114.99999999999466,1418.5833333333333,114.99999999999464,1421,114.99999999999463C1423.4166666666667,114.99999999999461,1425.8333333333333,114.9999999999946,1428.25,114.9999999999946C1430.6666666666667,114.9999999999946,1433.0833333333333,114.99999999999459,1435.5,114.99999999999459C1437.9166666666667,114.99999999999459,1440.3333333333333,114.99999999999457,1442.75,114.99999999999456C1445.1666666666667,114.99999999999454,1447.5833333333333,114.99999999999454,1450,114.99999999999453" fill="transparent" stroke-linecap="round" stroke="#E7C6DF" stroke-width="2"></path><g class="visx-group visx-axis visx-axis-bottom" transform="translate(0, 115)"><g class="visx-group visx-axis-tick" transform="translate(0, 0)"><line class="visx-line" x1="0" y1="0" x2="0" y2="8" fill="transparent" shape-rendering="crispEdges" stroke="#000" stroke-width="0" stroke-linecap="square"></line><svg x="0" y="0" font-size="10" style="overflow:visible"><text transform="" x="0" y="18" fill="#000" font-size="10" text-anchor="middle"><tspan x="0" dy="0em">0%</tspan></text></svg></g><g class="visx-group visx-axis-tick" transform="translate(0, 0)"><line class="visx-line" x1="362.5" y1="0" x2="362.5" y2="8" fill="transparent" shape-rendering="crispEdges" stroke="#000" stroke-width="0" stroke-linecap="square"></line><svg x="0" y="0" font-size="10" style="overflow:visible"><text transform="" x="362.5" y="18" fill="#000" font-size="10" text-anchor="middle"><tspan x="362.5" dy="0em">25%</tspan></text></svg></g><g class="visx-group visx-axis-tick" transform="translate(0, 0)"><line class="visx-line" x1="725" y1="0" x2="725" y2="8" fill="transparent" shape-rendering="crispEdges" stroke="#000" stroke-width="0" stroke-linecap="square"></line><svg x="0" y="0" font-size="10" style="overflow:visible"><text transform="" x="725" y="18" fill="#000" font-size="10" text-anchor="middle"><tspan x="725" dy="0em">50%</tspan></text></svg></g><g class="visx-group visx-axis-tick" transform="translate(0, 0)"><line class="visx-line" x1="1087.5" y1="0" x2="1087.5" y2="8" fill="transparent" shape-rendering="crispEdges" stroke="#000" stroke-width="0" stroke-linecap="square"></line><svg x="0" y="0" font-size="10" style="overflow:visible"><text transform="" x="1087.5" y="18" fill="#000" font-size="10" text-anchor="middle"><tspan x="1087.5" dy="0em">75%</tspan></text></svg></g><g class="visx-group visx-axis-tick" transform="translate(0, 0)"><line class="visx-line" x1="1450" y1="0" x2="1450" y2="8" fill="transparent" shape-rendering="crispEdges" stroke="#000" stroke-width="0" stroke-linecap="square"></line><svg x="0" y="0" font-size="10" style="overflow:visible"><text transform="" x="1450" y="18" fill="#000" font-size="10" text-anchor="middle"><tspan x="1450" dy="0em">100%</tspan></text></svg></g><line class="visx-line visx-axis-line" x1="0.5" y1="0" x2="1450.5" y2="0" fill="transparent" shape-rendering="crispEdges" stroke="#222" stroke-width="0"></line></g><g class="visx-group visx-axis visx-axis-left" transform="translate(0, 0)"><g class="visx-group visx-axis-tick" transform="translate(0, 0)"><line class="visx-line" x1="0" y1="115" x2="-8" y2="115" fill="transparent" shape-rendering="crispEdges" stroke="#222" stroke-width="0" stroke-linecap="square"></line><svg x="-30" y="0" font-size="8" style="overflow:visible"><text transform="" x="-8" y="115" fill="#000" font-size="8" text-anchor="start"><tspan x="-8" dy="0em">0%</tspan></text></svg></g><g class="visx-group visx-axis-tick" transform="translate(0, 0)"><line class="visx-line" x1="0" y1="43.125" x2="-8" y2="43.125" fill="transparent" shape-rendering="crispEdges" stroke="#222" stroke-width="0" stroke-linecap="square"></line><svg x="-30" y="0" font-size="8" style="overflow:visible"><text transform="" x="-8" y="43.125" fill="#000" font-size="8" text-anchor="start"><tspan x="-8" dy="0em">5000000000000000%</tspan></text></svg></g><line class="visx-line visx-axis-line" x1="0" y1="115.5" x2="0" y2="0.5" fill="transparent" shape-rendering="crispEdges" stroke="#222" stroke-width="0"></line></g><rect class="visx-bar" width="1450" height="115" fill="transparent"></rect><line class="visx-line" x1="1.4499999999999998e-22" y1="28" x2="1.4499999999999998e-22" y2="115" fill="transparent" shape-rendering="crispEdges" stroke="#0062D2" stroke-width="1" pointer-events="none" stroke-dasharray="5,2"></line><svg x="0" y="0" font-size="10px" style="overflow:visible"><text transform="" x="1.4499999999999998e-22" y="20" font-size="10px" fill="#fff" stroke="#fff" stroke-width="0.8em" text-anchor="middle"><tspan x="1.4499999999999998e-22" dy="0.355em">Optimal 1e-23%</tspan></text></svg><svg x="0" y="0" font-size="10px" style="overflow:visible"><text transform="" x="1.4499999999999998e-22" y="20" font-size="10px" fill="#62677B" text-anchor="middle"><tspan x="1.4499999999999998e-22" dy="0.355em">Optimal 1e-23%</tspan></text></svg></g></svg>