<?xml version="1.0"?><svg xmlns="http://www.w3.org/2000/svg" xmlns:xlink= "http://www.w3.org/1999/xlink" style="background: white;" width="1500" height="185"> <g style="color: black; font-size: 13px; font-family: sans-serif; transform: translate(18px, 25px);"><g><circle r="3" cx="-6" cy="-5" style="fill: #B6509E" /><text>Borrow APR, variable</text></g><g style="transform: translateX(150px);"><circle r="3" cx="-6" cy="-5" style="fill: rgb(231, 198, 223)" /><text>Borrow APR, stable</text></g><g style="transform: translateX(290px);"><circle r="3" cx="-6" cy="-5" style="fill: rgb(0, 98, 210)" /><text>Utilization Rate</text></g></g><g class="visx-group" transform="translate(40, 50)"><g class="visx-group visx-rows" transform="translate(0, 0)"><line class="visx-line" x1="0" y1="115" x2="1450" y2="115" fill="transparent" shape-rendering="crispEdges" stroke="#000" stroke-width="1" stroke-dasharray="3,3" pointer-events="none"></line><line class="visx-line" x1="0" y1="86.25" x2="1450" y2="86.25" fill="transparent" shape-rendering="crispEdges" stroke="#000" stroke-width="1" stroke-dasharray="3,3" pointer-events="none"></line><line class="visx-line" x1="0" y1="57.5" x2="1450" y2="57.5" fill="transparent" shape-rendering="crispEdges" stroke="#000" stroke-width="1" stroke-dasharray="3,3" pointer-events="none"></line><line class="visx-line" x1="0" y1="28.75" x2="1450" y2="28.75" fill="transparent" shape-rendering="crispEdges" stroke="#000" stroke-width="1" stroke-dasharray="3,3" pointer-events="none"></line><line class="visx-line" x1="0" y1="0" x2="1450" y2="0" fill="transparent" shape-rendering="crispEdges" stroke="#000" stroke-width="1" stroke-dasharray="3,3" pointer-events="none"></line></g><path class="visx-linepath" d="M0,114.99999999994249C2.4166666666666665,114.99041666663311,4.833333333333334,114.98083333332374,7.25,114.97125C9.666666666666666,114.96166666667625,12.083333333333334,114.95208333333335,14.5,114.94250000000001C16.916666666666668,114.93291666666667,19.333333333333332,114.92333333333333,21.75,114.91375C24.166666666666668,114.90416666666665,26.583333333333332,114.89458333333333,29,114.885C31.416666666666668,114.87541666666668,33.833333333333336,114.86583333333334,36.25,114.85625C38.666666666666664,114.84666666666666,41.083333333333336,114.83708333333334,43.5,114.8275C45.91666666666667,114.81791666666666,48.333333333333336,114.80833333333334,50.75000000000001,114.79875C53.16666666666667,114.78916666666666,55.583333333333336,114.77958333333332,58,114.77C60.416666666666664,114.76041666666666,62.833333333333336,114.75083333333333,65.25,114.74125000000001C67.66666666666667,114.73166666666668,70.08333333333333,114.72208333333334,72.5,114.7125C74.91666666666667,114.70291666666667,77.33333333333333,114.69333333333334,79.75,114.68375C82.16666666666667,114.67416666666666,84.58333333333333,114.66458333333334,87,114.655C89.41666666666667,114.64541666666666,91.83333333333333,114.63583333333332,94.25,114.62625C96.66666666666667,114.61666666666666,99.08333333333334,114.60708333333335,101.50000000000001,114.59750000000001C103.91666666666667,114.58791666666667,106.33333333333334,114.57833333333333,108.75,114.56875C111.16666666666667,114.55916666666666,113.58333333333333,114.54958333333333,116,114.54C118.41666666666667,114.53041666666667,120.83333333333334,114.52083333333334,123.25000000000001,114.51125C125.66666666666667,114.50166666666667,128.08333333333334,114.49208333333334,130.5,114.4825C132.91666666666666,114.47291666666666,135.33333333333334,114.46333333333334,137.75,114.45375C140.16666666666666,114.44416666666666,142.58333333333334,114.43458333333332,145,114.425C147.41666666666666,114.41541666666667,149.83333333333334,114.40583333333333,152.25,114.39625000000001C154.66666666666666,114.38666666666668,157.08333333333334,114.37708333333335,159.5,114.3675C161.91666666666666,114.35791666666667,164.33333333333334,114.34833333333333,166.75,114.33874999999999C169.16666666666666,114.32916666666665,171.58333333333334,114.31958333333333,174,114.31C176.41666666666666,114.30041666666668,178.83333333333334,114.29083333333332,181.25,114.28125C183.66666666666666,114.27166666666668,186.08333333333334,114.26208333333335,188.5,114.25250000000001C190.91666666666666,114.24291666666667,193.33333333333334,114.23333333333333,195.75,114.22375C198.16666666666669,114.21416666666666,200.58333333333334,114.20458333333333,203.00000000000003,114.195C205.41666666666669,114.18541666666667,207.83333333333331,114.17583333333333,210.24999999999997,114.16625C212.66666666666666,114.15666666666667,215.08333333333331,114.14708333333334,217.5,114.1375C219.91666666666666,114.12791666666666,222.33333333333334,114.11833333333334,224.75,114.10875C227.16666666666666,114.09916666666666,229.58333333333334,114.08958333333334,232,114.08C234.41666666666666,114.07041666666666,236.83333333333334,114.06083333333332,239.25,114.05125C241.66666666666669,114.04166666666666,244.08333333333334,114.03208333333335,246.50000000000003,114.02250000000001C248.91666666666669,114.01291666666667,251.33333333333331,114.00333333333333,253.74999999999997,113.99374999999999C256.16666666666663,113.98416666666665,258.5833333333333,113.97458333333334,261,113.965C263.4166666666667,113.95541666666668,265.8333333333333,113.94583333333334,268.25,113.93625C270.6666666666667,113.92666666666666,273.0833333333333,113.91708333333334,275.5,113.9075C277.9166666666667,113.89791666666666,280.3333333333333,113.88833333333334,282.75,113.87875C285.1666666666667,113.86916666666666,287.5833333333333,113.85958333333332,290,113.85C292.4166666666667,113.84041666666667,294.8333333333333,113.83083333333333,297.25,113.82125C299.6666666666667,113.81166666666668,302.0833333333333,113.80208333333334,304.5,113.7925C306.9166666666667,113.78291666666667,309.3333333333333,113.77333333333334,311.75,113.76375C314.1666666666667,113.75416666666666,316.5833333333333,113.74458333333334,319,113.735C321.4166666666667,113.72541666666666,323.8333333333333,113.71583333333332,326.25,113.70625C328.6666666666667,113.69666666666667,331.0833333333333,113.68708333333335,333.5,113.67750000000001C335.9166666666667,113.66791666666667,338.3333333333333,113.65833333333333,340.75,113.64874999999999C343.1666666666667,113.63916666666665,345.5833333333333,113.62958333333333,348,113.62C350.4166666666667,113.61041666666668,352.8333333333333,113.60083333333334,355.25,113.59125C357.6666666666667,113.58166666666666,360.0833333333333,113.57208333333334,362.5,113.5625C364.9166666666667,113.55291666666666,367.3333333333333,113.54333333333334,369.75,113.53375C372.1666666666667,113.52416666666666,374.5833333333333,113.51458333333332,377,113.505C379.4166666666667,113.49541666666667,381.8333333333333,113.48583333333333,384.25,113.47625000000001C386.6666666666667,113.46666666666668,389.0833333333333,113.45708333333334,391.5,113.4475C393.9166666666667,113.43791666666667,396.33333333333337,113.42833333333333,398.75000000000006,113.41874999999999C401.16666666666674,113.40916666666665,403.58333333333337,113.39958333333334,406.00000000000006,113.39C408.4166666666667,113.38041666666668,410.8333333333333,113.37083333333332,413.24999999999994,113.36125C415.66666666666663,113.35166666666666,418.08333333333326,113.34208333333335,420.49999999999994,113.33250000000001C422.91666666666663,113.32291666666667,425.3333333333333,113.31333333333333,427.75,113.30375C430.1666666666667,113.29416666666665,432.5833333333333,113.28458333333332,435,113.27499999999999C437.4166666666667,113.26541666666667,439.8333333333333,113.25583333333333,442.25,113.24625C444.6666666666667,113.23666666666668,447.0833333333333,113.22708333333334,449.5,113.2175C451.9166666666667,113.20791666666666,454.3333333333333,113.19833333333334,456.75,113.18875C459.1666666666667,113.17916666666666,461.5833333333333,113.16958333333332,464,113.16C466.4166666666667,113.15041666666667,468.8333333333333,113.14083333333333,471.25,113.13125000000001C473.6666666666667,113.12166666666668,476.0833333333333,113.11208333333335,478.5,113.1025C480.9166666666667,113.09291666666667,483.33333333333337,113.08333333333333,485.75000000000006,113.07374999999999C488.16666666666674,113.06416666666665,490.58333333333337,113.05458333333334,493.00000000000006,113.045C495.4166666666667,113.03541666666668,497.8333333333333,113.02583333333332,500.24999999999994,113.01625C502.66666666666663,113.00666666666666,505.08333333333326,112.99708333333335,507.49999999999994,112.98750000000001C509.91666666666663,112.97791666666667,512.3333333333333,112.96833333333333,514.75,112.95875C517.1666666666666,112.94916666666666,519.5833333333334,112.93958333333332,522,112.92999999999999C524.4166666666666,112.92041666666667,526.8333333333334,112.91083333333333,529.25,112.90125C531.6666666666666,112.89166666666668,534.0833333333334,112.88208333333334,536.5,112.8725C538.9166666666666,112.86291666666666,541.3333333333334,112.85333333333334,543.75,112.84375C546.1666666666666,112.83416666666666,548.5833333333334,112.82458333333334,551,112.815C553.4166666666666,112.80541666666666,555.8333333333334,112.79583333333332,558.25,112.78625C560.6666666666666,112.77666666666667,563.0833333333334,112.76708333333335,565.5,112.75750000000001C567.9166666666666,112.74791666666667,570.3333333333334,112.73833333333333,572.75,112.72874999999999C575.1666666666666,112.71916666666665,577.5833333333334,112.70958333333333,580,112.7C582.4166666666666,112.69041666666668,584.8333333333334,112.68083333333334,587.25,112.67125C589.6666666666666,112.66166666666666,592.0833333333334,112.65208333333334,594.5,112.6425C596.9166666666666,112.63291666666666,599.3333333333334,112.62333333333333,601.75,112.61375C604.1666666666666,112.60416666666666,606.5833333333334,112.59458333333332,609,112.585C611.4166666666666,112.57541666666667,613.8333333333334,112.56583333333333,616.25,112.55625C618.6666666666666,112.54666666666668,621.0833333333334,112.53708333333334,623.5,112.5275C625.9166666666666,112.51791666666666,628.3333333333334,112.50833333333334,630.75,112.49875C633.1666666666666,112.48916666666666,635.5833333333334,112.47958333333334,638,112.47C640.4166666666666,112.46041666666666,642.8333333333334,112.45083333333332,645.25,112.44125C647.6666666666666,112.43166666666667,650.0833333333334,112.43166666666667,652.5,112.41250000000001C654.9166666666666,112.39333333333335,657.3333333333334,111.88977272727273,659.75,111.62840909090909C662.1666666666666,111.36704545454545,664.5833333333334,111.10568181818182,667,110.84431818181818C669.4166666666666,110.58295454545454,671.8333333333334,110.32159090909092,674.25,110.06022727272727C676.6666666666666,109.79886363636363,679.0833333333334,109.5375,681.5,109.27613636363635C683.9166666666666,109.01477272727271,686.3333333333334,108.75340909090909,688.75,108.49204545454545C691.1666666666666,108.23068181818181,693.5833333333334,107.96931818181818,696,107.70795454545454C698.4166666666666,107.4465909090909,700.8333333333334,107.18522727272727,703.25,106.92386363636363C705.6666666666666,106.6625,708.0833333333334,106.40113636363637,710.5,106.13977272727273C712.9166666666666,105.87840909090909,715.3333333333334,105.61704545454546,717.75,105.35568181818182C720.1666666666666,105.09431818181818,722.5833333333334,104.83295454545454,725,104.5715909090909C727.4166666666666,104.31022727272726,729.8333333333334,104.04886363636362,732.25,103.7875C734.6666666666666,103.52613636363637,737.0833333333334,103.26477272727274,739.5,103.0034090909091C741.9166666666666,102.74204545454546,744.3333333333334,102.48068181818182,746.75,102.21931818181818C749.1666666666666,101.95795454545454,751.5833333333334,101.69659090909092,754,101.43522727272727C756.4166666666666,101.17386363636363,758.8333333333334,100.91250000000001,761.25,100.65113636363637C763.6666666666666,100.38977272727273,766.0833333333334,100.12840909090909,768.5,99.86704545454545C770.9166666666666,99.60568181818181,773.3333333333334,99.34431818181818,775.75,99.08295454545454C778.1666666666666,98.8215909090909,780.5833333333334,98.56022727272727,783,98.29886363636363C785.4166666666667,98.0375,787.8333333333334,97.77613636363637,790.2500000000001,97.51477272727273C792.6666666666667,97.25340909090909,795.0833333333335,96.99204545454545,797.5000000000001,96.73068181818181C799.9166666666667,96.46931818181817,802.3333333333335,96.20795454545456,804.7500000000001,95.94659090909092C807.1666666666667,95.68522727272727,809.5833333333335,95.42386363636365,812.0000000000001,95.16250000000001C814.4166666666667,94.90113636363637,816.8333333333333,94.63977272727273,819.2499999999999,94.37840909090909C821.6666666666665,94.11704545454545,824.0833333333333,93.85568181818182,826.4999999999999,93.59431818181818C828.9166666666665,93.33295454545454,831.3333333333333,93.07159090909092,833.7499999999999,92.81022727272727C836.1666666666665,92.54886363636363,838.5833333333333,92.28750000000001,840.9999999999999,92.02613636363637C843.4166666666666,91.76477272727273,845.8333333333333,91.5034090909091,848.25,91.24204545454546C850.6666666666666,90.98068181818182,853.0833333333334,90.7193181818182,855.5,90.45795454545456C857.9166666666666,90.19659090909092,860.3333333333334,89.93522727272727,862.75,89.67386363636363C865.1666666666666,89.4125,867.5833333333334,89.15113636363637,870,88.88977272727273C872.4166666666666,88.62840909090909,874.8333333333334,88.36704545454546,877.25,88.10568181818182C879.6666666666666,87.84431818181818,882.0833333333334,87.58295454545454,884.5,87.3215909090909C886.9166666666666,87.06022727272726,889.3333333333334,86.79886363636363,891.75,86.5375C894.1666666666666,86.27613636363635,896.5833333333334,86.01477272727273,899,85.75340909090909C901.4166666666666,85.49204545454545,903.8333333333334,85.23068181818182,906.25,84.96931818181818C908.6666666666666,84.70795454545454,911.0833333333334,84.44659090909092,913.5,84.18522727272727C915.9166666666666,83.92386363636363,918.3333333333334,83.66250000000001,920.75,83.40113636363637C923.1666666666666,83.13977272727273,925.5833333333334,82.87840909090909,928,82.61704545454545C930.4166666666666,82.35568181818181,932.8333333333334,82.09431818181818,935.25,81.83295454545456C937.6666666666666,81.57159090909093,940.0833333333334,81.31022727272729,942.5,81.04886363636365C944.9166666666666,80.78750000000001,947.3333333333334,80.52613636363637,949.75,80.26477272727273C952.1666666666666,80.00340909090909,954.5833333333334,79.74204545454546,957,79.48068181818182C959.4166666666666,79.21931818181818,961.8333333333334,78.95795454545456,964.25,78.69659090909092C966.6666666666667,78.43522727272727,969.0833333333334,78.17386363636363,971.5000000000001,77.9125C973.9166666666667,77.65113636363635,976.3333333333335,77.38977272727273,978.7500000000001,77.12840909090909C981.1666666666667,76.86704545454545,983.5833333333335,76.60568181818182,986.0000000000001,76.34431818181818C988.4166666666667,76.08295454545454,990.8333333333335,75.8215909090909,993.2500000000001,75.56022727272726C995.6666666666667,75.29886363636362,998.0833333333333,75.03749999999998,1000.4999999999999,74.77613636363635C1002.9166666666665,74.51477272727271,1005.3333333333333,74.2534090909091,1007.7499999999999,73.99204545454546C1010.1666666666665,73.73068181818182,1012.5833333333333,73.46931818181817,1014.9999999999999,73.20795454545453C1017.4166666666665,72.94659090909089,1019.8333333333333,72.68522727272727,1022.2499999999999,72.42386363636363C1024.6666666666665,72.1625,1027.0833333333333,71.90113636363635,1029.5,71.63977272727271C1031.9166666666667,71.37840909090907,1034.3333333333333,71.11704545454546,1036.75,70.85568181818182C1039.1666666666667,70.59431818181818,1041.5833333333333,70.33295454545456,1044,70.07159090909092C1046.4166666666667,69.81022727272727,1048.8333333333333,69.54886363636365,1051.25,69.28750000000001C1053.6666666666667,69.02613636363637,1056.0833333333333,68.76477272727273,1058.5,68.50340909090909C1060.9166666666667,68.24204545454545,1063.3333333333333,67.98068181818182,1065.75,67.71931818181818C1068.1666666666667,67.45795454545454,1070.5833333333333,67.19659090909092,1073,66.93522727272727C1075.4166666666667,66.67386363636363,1077.8333333333333,66.4125,1080.25,66.15113636363635C1082.6666666666667,65.88977272727271,1085.0833333333333,65.62840909090909,1087.5,65.36704545454545C1089.9166666666667,65.10568181818181,1092.3333333333333,64.84431818181818,1094.75,64.58295454545454C1097.1666666666667,64.3215909090909,1099.5833333333333,64.06022727272726,1102,63.79886363636363C1104.4166666666667,63.537499999999994,1106.8333333333333,63.27613636363636,1109.25,63.01477272727273C1111.6666666666667,62.753409090909095,1114.0833333333333,62.49204545454546,1116.5,62.23068181818183C1118.9166666666667,61.969318181818196,1121.3333333333333,61.70795454545454,1123.75,61.44659090909091C1126.1666666666667,61.185227272727275,1128.5833333333333,60.92386363636364,1131,60.66250000000001C1133.4166666666667,60.401136363636375,1135.8333333333333,60.13977272727273,1138.25,59.878409090909095C1140.6666666666667,59.61704545454546,1143.0833333333333,59.35568181818182,1145.5,59.09431818181819C1147.9166666666667,58.832954545454555,1150.3333333333333,58.571590909090915,1152.75,58.310227272727275C1155.1666666666667,58.048863636363635,1157.5833333333333,57.78750000000001,1160,57.52613636363637C1162.4166666666667,57.26477272727273,1164.8333333333333,57.003409090909095,1167.25,56.742045454545455C1169.6666666666667,56.480681818181814,1172.0833333333333,56.21931818181818,1174.5,55.95795454545454C1176.9166666666667,55.6965909090909,1179.3333333333333,55.435227272727275,1181.75,55.173863636363635C1184.1666666666667,54.912499999999994,1186.5833333333333,54.651136363636354,1189,54.38977272727272C1191.4166666666667,54.12840909090909,1193.8333333333333,53.867045454545455,1196.25,53.60568181818182C1198.6666666666667,53.34431818181819,1201.0833333333333,53.082954545454555,1203.5,52.821590909090915C1205.9166666666667,52.560227272727275,1208.3333333333333,52.29886363636364,1210.75,52.0375C1213.1666666666667,51.77613636363636,1215.5833333333333,51.51477272727273,1218,51.25340909090909C1220.4166666666667,50.99204545454545,1222.8333333333333,50.73068181818182,1225.25,50.46931818181818C1227.6666666666667,50.20795454545454,1230.0833333333333,49.9465909090909,1232.5,49.68522727272727C1234.9166666666667,49.423863636363635,1237.3333333333333,49.162499999999994,1239.75,48.90113636363636C1242.1666666666667,48.63977272727273,1244.5833333333333,48.378409090909095,1247,48.11704545454546C1249.4166666666667,47.85568181818183,1251.8333333333333,47.59431818181819,1254.25,47.33295454545455C1256.6666666666667,47.07159090909091,1259.0833333333333,46.810227272727275,1261.5,46.548863636363635C1263.9166666666667,46.287499999999994,1266.3333333333333,46.02613636363637,1268.75,45.76477272727273C1271.1666666666667,45.50340909090909,1273.5833333333333,45.24204545454545,1276,44.980681818181814C1278.4166666666667,44.71931818181818,1280.8333333333333,44.45795454545454,1283.25,44.19659090909091C1285.6666666666667,43.935227272727275,1288.0833333333333,43.67386363636363,1290.5,43.412499999999994C1292.9166666666667,43.15113636363636,1295.3333333333333,42.88977272727273,1297.75,42.628409090909095C1300.1666666666667,42.36704545454546,1302.5833333333333,42.10568181818182,1305,41.84431818181818C1307.4166666666667,41.58295454545454,1309.8333333333333,41.321590909090915,1312.25,41.060227272727275C1314.6666666666667,40.798863636363635,1317.0833333333333,40.53749999999998,1319.5,40.27613636363635C1321.9166666666667,40.014772727272714,1324.3333333333333,39.75340909090909,1326.75,39.492045454545455C1329.1666666666667,39.23068181818182,1331.5833333333333,38.96931818181818,1334,38.70795454545454C1336.4166666666667,38.4465909090909,1338.8333333333333,38.18522727272726,1341.25,37.92386363636363C1343.6666666666667,37.662499999999994,1346.0833333333333,37.40113636363637,1348.5,37.139772727272735C1350.9166666666667,36.8784090909091,1353.3333333333333,36.61704545454545,1355.75,36.35568181818181C1358.1666666666667,36.09431818181817,1360.5833333333333,35.83295454545454,1363,35.57159090909091C1365.4166666666667,35.310227272727275,1367.8333333333333,35.048863636363635,1370.25,34.7875C1372.6666666666667,34.52613636363637,1375.0833333333333,34.26477272727273,1377.5,34.00340909090909C1379.9166666666667,33.74204545454545,1382.3333333333333,33.48068181818181,1384.75,33.21931818181817C1387.1666666666667,32.95795454545453,1389.5833333333333,32.6965909090909,1392,32.43522727272727C1394.4166666666667,32.173863636363635,1396.8333333333333,31.9125,1399.25,31.65113636363637C1401.6666666666667,31.389772727272735,1404.0833333333333,31.128409090909095,1406.5,30.86704545454546C1408.9166666666667,30.60568181818182,1411.3333333333333,30.344318181818185,1413.75,30.082954545454545C1416.1666666666667,29.821590909090904,1418.5833333333333,29.56022727272726,1421,29.298863636363624C1423.4166666666667,29.037499999999987,1425.8333333333333,28.77613636363636,1428.25,28.514772727272724C1430.6666666666667,28.253409090909088,1433.0833333333333,27.992045454545448,1435.5,27.730681818181814C1437.9166666666667,27.46931818181818,1440.3333333333333,27.207954545454548,1442.75,26.946590909090915C1445.1666666666667,26.685227272727282,1447.5833333333333,26.42386363636364,1450,26.162500000000005" fill="transparent" stroke-linecap="round" stroke="#B6509E" stroke-width="2"></path><path class="visx-linepath" d="M0,112.41249999991693C2.4166666666666665,112.39865740735895,4.833333333333334,112.38481481480098,7.25,112.37097222222222C9.666666666666666,112.35712962964347,12.083333333333334,112.34328703703703,14.5,112.32944444444443C16.916666666666668,112.31560185185184,19.333333333333332,112.30175925925927,21.75,112.28791666666667C24.166666666666668,112.27407407407408,26.583333333333332,112.26023148148148,29,112.24638888888889C31.416666666666668,112.23254629629629,33.833333333333336,112.21870370370371,36.25,112.20486111111111C38.666666666666664,112.19101851851852,41.083333333333336,112.17717592592594,43.5,112.16333333333334C45.91666666666667,112.14949074074075,48.333333333333336,112.13564814814815,50.75000000000001,112.12180555555555C53.16666666666667,112.10796296296296,55.583333333333336,112.09412037037038,58,112.08027777777778C60.416666666666664,112.06643518518518,62.833333333333336,112.05259259259259,65.25,112.03875C67.66666666666667,112.0249074074074,70.08333333333333,112.01106481481482,72.5,111.99722222222222C74.91666666666667,111.98337962962962,77.33333333333333,111.96953703703704,79.75,111.95569444444445C82.16666666666667,111.94185185185185,84.58333333333333,111.92800925925926,87,111.91416666666666C89.41666666666667,111.90032407407406,91.83333333333333,111.88648148148148,94.25,111.87263888888889C96.66666666666667,111.85879629629629,99.08333333333334,111.84495370370371,101.50000000000001,111.83111111111111C103.91666666666667,111.81726851851852,106.33333333333334,111.80342592592592,108.75,111.78958333333333C111.16666666666667,111.77574074074073,113.58333333333333,111.76189814814816,116,111.74805555555557C118.41666666666667,111.73421296296297,120.83333333333334,111.72037037037038,123.25000000000001,111.70652777777778C125.66666666666667,111.69268518518518,128.08333333333334,111.67884259259259,130.5,111.66499999999999C132.91666666666666,111.6511574074074,135.33333333333334,111.63731481481483,137.75,111.62347222222223C140.16666666666666,111.60962962962964,142.58333333333334,111.59578703703704,145,111.58194444444445C147.41666666666666,111.56810185185185,149.83333333333334,111.55425925925925,152.25,111.54041666666666C154.66666666666666,111.52657407407406,157.08333333333334,111.51273148148148,159.5,111.49888888888889C161.91666666666666,111.48504629629629,164.33333333333334,111.47120370370371,166.75,111.45736111111111C169.16666666666666,111.44351851851852,171.58333333333334,111.42967592592593,174,111.41583333333334C176.41666666666666,111.40199074074074,178.83333333333334,111.38814814814815,181.25,111.37430555555555C183.66666666666666,111.36046296296296,186.08333333333334,111.34662037037037,188.5,111.33277777777778C190.91666666666666,111.31893518518518,193.33333333333334,111.3050925925926,195.75,111.29125C198.16666666666669,111.27740740740741,200.58333333333334,111.26356481481481,203.00000000000003,111.24972222222222C205.41666666666669,111.23587962962962,207.83333333333331,111.22203703703704,210.24999999999997,111.20819444444444C212.66666666666666,111.19435185185185,215.08333333333331,111.18050925925927,217.5,111.16666666666667C219.91666666666666,111.15282407407408,222.33333333333334,111.13898148148148,224.75,111.12513888888888C227.16666666666666,111.11129629629629,229.58333333333334,111.0974537037037,232,111.08361111111111C234.41666666666666,111.06976851851852,236.83333333333334,111.05592592592593,239.25,111.04208333333334C241.66666666666669,111.02824074074074,244.08333333333334,111.01439814814815,246.50000000000003,111.00055555555555C248.91666666666669,110.98671296296295,251.33333333333331,110.97287037037039,253.74999999999997,110.95902777777779C256.16666666666663,110.9451851851852,258.5833333333333,110.9313425925926,261,110.9175C263.4166666666667,110.90365740740741,265.8333333333333,110.88981481481481,268.25,110.87597222222222C270.6666666666667,110.86212962962962,273.0833333333333,110.84828703703704,275.5,110.83444444444444C277.9166666666667,110.82060185185185,280.3333333333333,110.80675925925927,282.75,110.79291666666667C285.1666666666667,110.77907407407407,287.5833333333333,110.76523148148148,290,110.75138888888888C292.4166666666667,110.73754629629629,294.8333333333333,110.7237037037037,297.25,110.70986111111111C299.6666666666667,110.69601851851851,302.0833333333333,110.68217592592593,304.5,110.66833333333334C306.9166666666667,110.65449074074074,309.3333333333333,110.64064814814816,311.75,110.62680555555556C314.1666666666667,110.61296296296297,316.5833333333333,110.59912037037037,319,110.58527777777778C321.4166666666667,110.57143518518518,323.8333333333333,110.5575925925926,326.25,110.54375C328.6666666666667,110.5299074074074,331.0833333333333,110.51606481481483,333.5,110.50222222222223C335.9166666666667,110.48837962962963,338.3333333333333,110.47453703703704,340.75,110.46069444444444C343.1666666666667,110.44685185185185,345.5833333333333,110.43300925925925,348,110.41916666666665C350.4166666666667,110.40532407407406,352.8333333333333,110.39148148148149,355.25,110.3776388888889C357.6666666666667,110.3637962962963,360.0833333333333,110.3499537037037,362.5,110.33611111111111C364.9166666666667,110.32226851851851,367.3333333333333,110.30842592592592,369.75,110.29458333333332C372.1666666666667,110.28074074074073,374.5833333333333,110.26689814814816,377,110.25305555555556C379.4166666666667,110.23921296296297,381.8333333333333,110.22537037037037,384.25,110.21152777777777C386.6666666666667,110.19768518518518,389.0833333333333,110.1838425925926,391.5,110.17C393.9166666666667,110.1561574074074,396.33333333333337,110.14231481481482,398.75000000000006,110.12847222222223C401.16666666666674,110.11462962962963,403.58333333333337,110.10078703703704,406.00000000000006,110.08694444444444C408.4166666666667,110.07310185185185,410.8333333333333,110.05925925925926,413.24999999999994,110.04541666666667C415.66666666666663,110.03157407407407,418.08333333333326,110.01773148148149,420.49999999999994,110.0038888888889C422.91666666666663,109.9900462962963,425.3333333333333,109.9762037037037,427.75,109.96236111111111C430.1666666666667,109.94851851851851,432.5833333333333,109.93467592592593,435,109.92083333333333C437.4166666666667,109.90699074074074,439.8333333333333,109.89314814814816,442.25,109.87930555555556C444.6666666666667,109.86546296296297,447.0833333333333,109.85162037037037,449.5,109.83777777777777C451.9166666666667,109.82393518518518,454.3333333333333,109.8100925925926,456.75,109.79625C459.1666666666667,109.7824074074074,461.5833333333333,109.76856481481481,464,109.75472222222221C466.4166666666667,109.74087962962962,468.8333333333333,109.72703703703705,471.25,109.71319444444445C473.6666666666667,109.69935185185186,476.0833333333333,109.68550925925926,478.5,109.67166666666667C480.9166666666667,109.65782407407407,483.33333333333337,109.64398148148148,485.75000000000006,109.63013888888888C488.16666666666674,109.61629629629628,490.58333333333337,109.60245370370372,493.00000000000006,109.58861111111112C495.4166666666667,109.57476851851852,497.8333333333333,109.56092592592593,500.24999999999994,109.54708333333333C502.66666666666663,109.53324074074074,505.08333333333326,109.51939814814814,507.49999999999994,109.50555555555555C509.91666666666663,109.49171296296295,512.3333333333333,109.47787037037038,514.75,109.46402777777779C517.1666666666666,109.45018518518519,519.5833333333334,109.4363425925926,522,109.4225C524.4166666666666,109.4086574074074,526.8333333333334,109.39481481481482,529.25,109.38097222222223C531.6666666666666,109.36712962962963,534.0833333333334,109.35328703703703,536.5,109.33944444444444C538.9166666666666,109.32560185185184,541.3333333333334,109.31175925925926,543.75,109.29791666666667C546.1666666666666,109.28407407407407,548.5833333333334,109.27023148148149,551,109.25638888888889C553.4166666666666,109.2425462962963,555.8333333333334,109.2287037037037,558.25,109.2148611111111C560.6666666666666,109.20101851851851,563.0833333333334,109.18717592592593,565.5,109.17333333333333C567.9166666666666,109.15949074074074,570.3333333333334,109.14564814814815,572.75,109.13180555555556C575.1666666666666,109.11796296296296,577.5833333333334,109.10412037037037,580,109.09027777777777C582.4166666666666,109.07643518518518,584.8333333333334,109.0625925925926,587.25,109.04875C589.6666666666666,109.0349074074074,592.0833333333334,109.02106481481482,594.5,109.00722222222223C596.9166666666666,108.99337962962963,599.3333333333334,108.97953703703703,601.75,108.96569444444444C604.1666666666666,108.95185185185184,606.5833333333334,108.93800925925927,609,108.92416666666668C611.4166666666666,108.91032407407408,613.8333333333334,108.89648148148149,616.25,108.88263888888889C618.6666666666666,108.8687962962963,621.0833333333334,108.8549537037037,623.5,108.8411111111111C625.9166666666666,108.82726851851851,628.3333333333334,108.81342592592594,630.75,108.79958333333335C633.1666666666666,108.78574074074075,635.5833333333334,108.77189814814815,638,108.75805555555556C640.4166666666666,108.74421296296296,642.8333333333334,108.73037037037037,645.25,108.71652777777777C647.6666666666666,108.70268518518517,650.0833333333334,108.70268518518517,652.5,108.675C654.9166666666666,108.64731481481482,657.3333333333334,108.15227272727273,659.75,107.89090909090909C662.1666666666666,107.62954545454545,664.5833333333334,107.36818181818182,667,107.10681818181818C669.4166666666666,106.84545454545454,671.8333333333334,106.58409090909092,674.25,106.32272727272728C676.6666666666666,106.06136363636364,679.0833333333334,105.8,681.5,105.53863636363636C683.9166666666666,105.27727272727272,686.3333333333334,105.01590909090909,688.75,104.75454545454545C691.1666666666666,104.49318181818181,693.5833333333334,104.23181818181818,696,103.97045454545454C698.4166666666666,103.7090909090909,700.8333333333334,103.44772727272728,703.25,103.18636363636364C705.6666666666666,102.925,708.0833333333334,102.66363636363636,710.5,102.40227272727272C712.9166666666666,102.14090909090908,715.3333333333334,101.87954545454546,717.75,101.61818181818182C720.1666666666666,101.35681818181818,722.5833333333334,101.09545454545454,725,100.8340909090909C727.4166666666666,100.57272727272726,729.8333333333334,100.31136363636364,732.25,100.05C734.6666666666666,99.78863636363636,737.0833333333334,99.52727272727273,739.5,99.26590909090909C741.9166666666666,99.00454545454545,744.3333333333334,98.74318181818182,746.75,98.48181818181818C749.1666666666666,98.22045454545454,751.5833333333334,97.95909090909092,754,97.69772727272728C756.4166666666666,97.43636363636364,758.8333333333334,97.17500000000001,761.25,96.91363636363637C763.6666666666666,96.65227272727273,766.0833333333334,96.39090909090909,768.5,96.12954545454545C770.9166666666666,95.86818181818181,773.3333333333334,95.60681818181818,775.75,95.34545454545454C778.1666666666666,95.0840909090909,780.5833333333334,94.82272727272728,783,94.56136363636364C785.4166666666667,94.3,787.8333333333334,94.03863636363637,790.2500000000001,93.77727272727273C792.6666666666667,93.51590909090909,795.0833333333335,93.25454545454545,797.5000000000001,92.99318181818181C799.9166666666667,92.73181818181817,802.3333333333335,92.47045454545454,804.7500000000001,92.20909090909092C807.1666666666667,91.94772727272729,809.5833333333335,91.68636363636365,812.0000000000001,91.42500000000001C814.4166666666667,91.16363636363637,816.8333333333333,90.90227272727273,819.2499999999999,90.64090909090909C821.6666666666665,90.37954545454545,824.0833333333333,90.11818181818182,826.4999999999999,89.85681818181818C828.9166666666665,89.59545454545454,831.3333333333333,89.33409090909092,833.7499999999999,89.07272727272728C836.1666666666665,88.81136363636364,838.5833333333333,88.55,840.9999999999999,88.28863636363636C843.4166666666666,88.02727272727272,845.8333333333333,87.76590909090909,848.25,87.50454545454545C850.6666666666666,87.24318181818182,853.0833333333334,86.9818181818182,855.5,86.72045454545456C857.9166666666666,86.45909090909092,860.3333333333334,86.19772727272728,862.75,85.93636363636364C865.1666666666666,85.675,867.5833333333334,85.41363636363637,870,85.15227272727273C872.4166666666666,84.89090909090909,874.8333333333334,84.62954545454546,877.25,84.36818181818182C879.6666666666666,84.10681818181818,882.0833333333334,83.84545454545454,884.5,83.5840909090909C886.9166666666666,83.32272727272726,889.3333333333334,83.06136363636364,891.75,82.8C894.1666666666666,82.53863636363636,896.5833333333334,82.27727272727273,899,82.01590909090909C901.4166666666666,81.75454545454545,903.8333333333334,81.49318181818181,906.25,81.23181818181817C908.6666666666666,80.97045454545453,911.0833333333334,80.70909090909089,913.5,80.44772727272726C915.9166666666666,80.18636363636364,918.3333333333334,79.92500000000001,920.75,79.66363636363637C923.1666666666666,79.40227272727273,925.5833333333334,79.14090909090909,928,78.87954545454545C930.4166666666666,78.61818181818181,932.8333333333334,78.35681818181818,935.25,78.09545454545454C937.6666666666666,77.8340909090909,940.0833333333334,77.57272727272728,942.5,77.31136363636364C944.9166666666666,77.05,947.3333333333334,76.78863636363637,949.75,76.52727272727273C952.1666666666666,76.26590909090909,954.5833333333334,76.00454545454545,957,75.74318181818181C959.4166666666666,75.48181818181817,961.8333333333334,75.22045454545456,964.25,74.95909090909092C966.6666666666667,74.69772727272728,969.0833333333334,74.43636363636364,971.5000000000001,74.175C973.9166666666667,73.91363636363636,976.3333333333335,73.65227272727273,978.7500000000001,73.39090909090909C981.1666666666667,73.12954545454545,983.5833333333335,72.86818181818182,986.0000000000001,72.60681818181818C988.4166666666667,72.34545454545454,990.8333333333335,72.08409090909092,993.2500000000001,71.82272727272728C995.6666666666667,71.56136363636364,998.0833333333333,71.29999999999998,1000.4999999999999,71.03863636363636C1002.9166666666665,70.77727272727272,1005.3333333333333,70.5159090909091,1007.7499999999999,70.25454545454546C1010.1666666666665,69.99318181818182,1012.5833333333333,69.73181818181817,1014.9999999999999,69.47045454545453C1017.4166666666665,69.20909090909089,1019.8333333333333,68.94772727272726,1022.2499999999999,68.68636363636364C1024.6666666666665,68.425,1027.0833333333333,68.16363636363637,1029.5,67.90227272727273C1031.9166666666667,67.64090909090909,1034.3333333333333,67.37954545454545,1036.75,67.11818181818181C1039.1666666666667,66.85681818181817,1041.5833333333333,66.59545454545454,1044,66.33409090909092C1046.4166666666667,66.07272727272729,1048.8333333333333,65.81136363636365,1051.25,65.55000000000001C1053.6666666666667,65.28863636363637,1056.0833333333333,65.02727272727273,1058.5,64.76590909090909C1060.9166666666667,64.50454545454545,1063.3333333333333,64.24318181818182,1065.75,63.981818181818184C1068.1666666666667,63.72045454545455,1070.5833333333333,63.45909090909092,1073,63.19772727272728C1075.4166666666667,62.93636363636364,1077.8333333333333,62.675000000000004,1080.25,62.413636363636364C1082.6666666666667,62.152272727272724,1085.0833333333333,61.89090909090909,1087.5,61.62954545454545C1089.9166666666667,61.36818181818181,1092.3333333333333,61.106818181818184,1094.75,60.845454545454544C1097.1666666666667,60.584090909090904,1099.5833333333333,60.32272727272727,1102,60.06136363636363C1104.4166666666667,59.79999999999999,1106.8333333333333,59.53863636363636,1109.25,59.27727272727272C1111.6666666666667,59.015909090909076,1114.0833333333333,58.75454545454545,1116.5,58.49318181818181C1118.9166666666667,58.23181818181817,1121.3333333333333,57.97045454545453,1123.75,57.7090909090909C1126.1666666666667,57.44772727272726,1128.5833333333333,57.18636363636363,1131,56.925C1133.4166666666667,56.663636363636364,1135.8333333333333,56.40227272727273,1138.25,56.14090909090909C1140.6666666666667,55.87954545454545,1143.0833333333333,55.61818181818182,1145.5,55.35681818181818C1147.9166666666667,55.09545454545454,1150.3333333333333,54.8340909090909,1152.75,54.57272727272726C1155.1666666666667,54.31136363636363,1157.5833333333333,54.050000000000004,1160,53.78863636363637C1162.4166666666667,53.52727272727274,1164.8333333333333,53.2659090909091,1167.25,53.00454545454546C1169.6666666666667,52.74318181818182,1172.0833333333333,52.481818181818184,1174.5,52.220454545454544C1176.9166666666667,51.959090909090904,1179.3333333333333,51.69772727272728,1181.75,51.43636363636364C1184.1666666666667,51.175,1186.5833333333333,50.913636363636364,1189,50.652272727272724C1191.4166666666667,50.39090909090908,1193.8333333333333,50.12954545454545,1196.25,49.86818181818181C1198.6666666666667,49.60681818181817,1201.0833333333333,49.34545454545454,1203.5,49.084090909090904C1205.9166666666667,48.82272727272727,1208.3333333333333,48.56136363636364,1210.75,48.300000000000004C1213.1666666666667,48.03863636363637,1215.5833333333333,47.77727272727273,1218,47.51590909090909C1220.4166666666667,47.25454545454545,1222.8333333333333,46.993181818181824,1225.25,46.731818181818184C1227.6666666666667,46.470454545454544,1230.0833333333333,46.209090909090904,1232.5,45.94772727272727C1234.9166666666667,45.68636363636364,1237.3333333333333,45.425,1239.75,45.163636363636364C1242.1666666666667,44.90227272727273,1244.5833333333333,44.64090909090908,1247,44.37954545454545C1249.4166666666667,44.11818181818182,1251.8333333333333,43.856818181818184,1254.25,43.59545454545455C1256.6666666666667,43.33409090909092,1259.0833333333333,43.07272727272728,1261.5,42.81136363636364C1263.9166666666667,42.55,1266.3333333333333,42.28863636363637,1268.75,42.02727272727273C1271.1666666666667,41.76590909090909,1273.5833333333333,41.50454545454545,1276,41.24318181818182C1278.4166666666667,40.981818181818184,1280.8333333333333,40.72045454545456,1283.25,40.45909090909092C1285.6666666666667,40.19772727272728,1288.0833333333333,39.93636363636364,1290.5,39.675C1292.9166666666667,39.41363636363636,1295.3333333333333,39.15227272727272,1297.75,38.89090909090908C1300.1666666666667,38.62954545454545,1302.5833333333333,38.368181818181824,1305,38.10681818181819C1307.4166666666667,37.84545454545456,1309.8333333333333,37.58409090909091,1312.25,37.32272727272728C1314.6666666666667,37.061363636363645,1317.0833333333333,36.80000000000001,1319.5,36.53863636363638C1321.9166666666667,36.277272727272745,1324.3333333333333,36.0159090909091,1326.75,35.75454545454546C1329.1666666666667,35.49318181818182,1331.5833333333333,35.231818181818184,1334,34.970454545454544C1336.4166666666667,34.709090909090904,1338.8333333333333,34.44772727272726,1341.25,34.18636363636363C1343.6666666666667,33.925,1346.0833333333333,33.66363636363637,1348.5,33.40227272727274C1350.9166666666667,33.140909090909105,1353.3333333333333,32.879545454545465,1355.75,32.618181818181824C1358.1666666666667,32.356818181818184,1360.5833333333333,32.09545454545455,1363,31.834090909090914C1365.4166666666667,31.572727272727278,1367.8333333333333,31.311363636363637,1370.25,31.05C1372.6666666666667,30.788636363636364,1375.0833333333333,30.527272727272727,1377.5,30.26590909090909C1379.9166666666667,30.004545454545454,1382.3333333333333,29.743181818181817,1384.75,29.48181818181818C1387.1666666666667,29.220454545454544,1389.5833333333333,28.959090909090907,1392,28.69772727272727C1394.4166666666667,28.436363636363634,1396.8333333333333,28.17499999999999,1399.25,27.913636363636357C1401.6666666666667,27.652272727272724,1404.0833333333333,27.390909090909098,1406.5,27.12954545454546C1408.9166666666667,26.868181818181824,1411.3333333333333,26.606818181818173,1413.75,26.345454545454537C1416.1666666666667,26.0840909090909,1418.5833333333333,25.82272727272727,1421,25.561363636363637C1423.4166666666667,25.300000000000004,1425.8333333333333,25.038636363636364,1428.25,24.777272727272727C1430.6666666666667,24.51590909090909,1433.0833333333333,24.254545454545458,1435.5,23.993181818181817C1437.9166666666667,23.731818181818177,1440.3333333333333,23.47045454545453,1442.75,23.209090909090893C1445.1666666666667,22.947727272727256,1447.5833333333333,22.686363636363623,1450,22.424999999999994" fill="transparent" stroke-linecap="round" stroke="#E7C6DF" stroke-width="2"></path><g class="visx-group visx-axis visx-axis-bottom" transform="translate(0, 115)"><g class="visx-group visx-axis-tick" transform="translate(0, 0)"><line class="visx-line" x1="0" y1="0" x2="0" y2="8" fill="transparent" shape-rendering="crispEdges" stroke="#000" stroke-width="0" stroke-linecap="square"></line><svg x="0" y="0" font-size="10" style="overflow:visible"><text transform="" x="0" y="18" fill="#000" font-size="10" text-anchor="middle"><tspan x="0" dy="0em">0%</tspan></text></svg></g><g class="visx-group visx-axis-tick" transform="translate(0, 0)"><line class="visx-line" x1="362.5" y1="0" x2="362.5" y2="8" fill="transparent" shape-rendering="crispEdges" stroke="#000" stroke-width="0" stroke-linecap="square"></line><svg x="0" y="0" font-size="10" style="overflow:visible"><text transform="" x="362.5" y="18" fill="#000" font-size="10" text-anchor="middle"><tspan x="362.5" dy="0em">25%</tspan></text></svg></g><g class="visx-group visx-axis-tick" transform="translate(0, 0)"><line class="visx-line" x1="725" y1="0" x2="725" y2="8" fill="transparent" shape-rendering="crispEdges" stroke="#000" stroke-width="0" stroke-linecap="square"></line><svg x="0" y="0" font-size="10" style="overflow:visible"><text transform="" x="725" y="18" fill="#000" font-size="10" text-anchor="middle"><tspan x="725" dy="0em">50%</tspan></text></svg></g><g class="visx-group visx-axis-tick" transform="translate(0, 0)"><line class="visx-line" x1="1087.5" y1="0" x2="1087.5" y2="8" fill="transparent" shape-rendering="crispEdges" stroke="#000" stroke-width="0" stroke-linecap="square"></line><svg x="0" y="0" font-size="10" style="overflow:visible"><text transform="" x="1087.5" y="18" fill="#000" font-size="10" text-anchor="middle"><tspan x="1087.5" dy="0em">75%</tspan></text></svg></g><g class="visx-group visx-axis-tick" transform="translate(0, 0)"><line class="visx-line" x1="1450" y1="0" x2="1450" y2="8" fill="transparent" shape-rendering="crispEdges" stroke="#000" stroke-width="0" stroke-linecap="square"></line><svg x="0" y="0" font-size="10" style="overflow:visible"><text transform="" x="1450" y="18" fill="#000" font-size="10" text-anchor="middle"><tspan x="1450" dy="0em">100%</tspan></text></svg></g><line class="visx-line visx-axis-line" x1="0.5" y1="0" x2="1450.5" y2="0" fill="transparent" shape-rendering="crispEdges" stroke="#222" stroke-width="0"></line></g><g class="visx-group visx-axis visx-axis-left" transform="translate(0, 0)"><g class="visx-group visx-axis-tick" transform="translate(0, 0)"><line class="visx-line" x1="0" y1="115" x2="-8" y2="115" fill="transparent" shape-rendering="crispEdges" stroke="#222" stroke-width="0" stroke-linecap="square"></line><svg x="-30" y="0" font-size="8" style="overflow:visible"><text transform="" x="-8" y="115" fill="#000" font-size="8" text-anchor="start"><tspan x="-8" dy="0em">0%</tspan></text></svg></g><g class="visx-group visx-axis-tick" transform="translate(0, 0)"><line class="visx-line" x1="0" y1="57.5" x2="-8" y2="57.5" fill="transparent" shape-rendering="crispEdges" stroke="#222" stroke-width="0" stroke-linecap="square"></line><svg x="-30" y="0" font-size="8" style="overflow:visible"><text transform="" x="-8" y="57.5" fill="#000" font-size="8" text-anchor="start"><tspan x="-8" dy="0em">200%</tspan></text></svg></g><g class="visx-group visx-axis-tick" transform="translate(0, 0)"><line class="visx-line" x1="0" y1="0" x2="-8" y2="0" fill="transparent" shape-rendering="crispEdges" stroke="#222" stroke-width="0" stroke-linecap="square"></line><svg x="-30" y="0" font-size="8" style="overflow:visible"><text transform="" x="-8" y="0" fill="#000" font-size="8" text-anchor="start"><tspan x="-8" dy="0em">400%</tspan></text></svg></g><line class="visx-line visx-axis-line" x1="0" y1="115.5" x2="0" y2="0.5" fill="transparent" shape-rendering="crispEdges" stroke="#222" stroke-width="0"></line></g><rect class="visx-bar" width="1450" height="115" fill="transparent"></rect><line class="visx-line" x1="652.5" y1="28" x2="652.5" y2="115" fill="transparent" shape-rendering="crispEdges" stroke="#0062D2" stroke-width="1" pointer-events="none" stroke-dasharray="5,2"></line><svg x="0" y="0" font-size="10px" style="overflow:visible"><text transform="" x="652.5" y="20" font-size="10px" fill="#fff" stroke="#fff" stroke-width="0.8em" text-anchor="middle"><tspan x="652.5" dy="0.355em">Optimal 45%</tspan></text></svg><svg x="0" y="0" font-size="10px" style="overflow:visible"><text transform="" x="652.5" y="20" font-size="10px" fill="#62677B" text-anchor="middle"><tspan x="652.5" dy="0.355em">Optimal 45%</tspan></text></svg></g></svg>