<?xml version="1.0"?><svg xmlns="http://www.w3.org/2000/svg" xmlns:xlink= "http://www.w3.org/1999/xlink" style="background: white;" width="1500" height="185"> <g style="color: black; font-size: 13px; font-family: sans-serif; transform: translate(18px, 25px);"><g><circle r="3" cx="-6" cy="-5" style="fill: #B6509E" /><text>Borrow APR, variable</text></g><g style="transform: translateX(150px);"><circle r="3" cx="-6" cy="-5" style="fill: rgb(231, 198, 223)" /><text>Borrow APR, stable</text></g><g style="transform: translateX(290px);"><circle r="3" cx="-6" cy="-5" style="fill: rgb(0, 98, 210)" /><text>Utilization Rate</text></g></g><g class="visx-group" transform="translate(40, 50)"><g class="visx-group visx-rows" transform="translate(0, 0)"><line class="visx-line" x1="0" y1="115" x2="1450" y2="115" fill="transparent" shape-rendering="crispEdges" stroke="#000" stroke-width="1" stroke-dasharray="3,3" pointer-events="none"></line><line class="visx-line" x1="0" y1="73.92857142857142" x2="1450" y2="73.92857142857142" fill="transparent" shape-rendering="crispEdges" stroke="#000" stroke-width="1" stroke-dasharray="3,3" pointer-events="none"></line><line class="visx-line" x1="0" y1="32.857142857142854" x2="1450" y2="32.857142857142854" fill="transparent" shape-rendering="crispEdges" stroke="#000" stroke-width="1" stroke-dasharray="3,3" pointer-events="none"></line></g><path class="visx-linepath" d="M0,114.99999999994945C2.4166666666666665,114.9915750915456,4.833333333333334,114.98315018314176,7.25,114.97472527472527C9.666666666666666,114.96630036630879,12.083333333333334,114.95787545787547,14.5,114.94945054945056C16.916666666666668,114.94102564102565,19.333333333333332,114.93260073260073,21.75,114.92417582417582C24.166666666666668,114.9157509157509,26.583333333333332,114.90732600732599,29,114.89890109890109C31.416666666666668,114.89047619047619,33.833333333333336,114.8820512820513,36.25,114.87362637362638C38.666666666666664,114.86520146520147,41.083333333333336,114.85677655677657,43.5,114.84835164835165C45.91666666666667,114.83992673992674,48.333333333333336,114.83150183150184,50.75000000000001,114.82307692307693C53.16666666666667,114.81465201465201,55.583333333333336,114.80622710622711,58,114.7978021978022C60.416666666666664,114.78937728937728,62.833333333333336,114.78095238095239,65.25,114.77252747252747C67.66666666666667,114.76410256410256,70.08333333333333,114.75567765567766,72.5,114.74725274725274C74.91666666666667,114.73882783882783,77.33333333333333,114.73040293040293,79.75,114.72197802197803C82.16666666666667,114.71355311355313,84.58333333333333,114.70512820512822,87,114.6967032967033C89.41666666666667,114.68827838827839,91.83333333333333,114.67985347985348,94.25,114.67142857142856C96.66666666666667,114.66300366300365,99.08333333333334,114.65457875457876,101.50000000000001,114.64615384615385C103.91666666666667,114.63772893772895,106.33333333333334,114.62930402930404,108.75,114.62087912087912C111.16666666666667,114.61245421245421,113.58333333333333,114.60402930402931,116,114.5956043956044C118.41666666666667,114.58717948717948,120.83333333333334,114.57875457875458,123.25000000000001,114.57032967032967C125.66666666666667,114.56190476190476,128.08333333333334,114.55347985347986,130.5,114.54505494505494C132.91666666666666,114.53663003663003,135.33333333333334,114.52820512820513,137.75,114.51978021978022C140.16666666666666,114.5113553113553,142.58333333333334,114.50293040293039,145,114.49450549450549C147.41666666666666,114.48608058608059,149.83333333333334,114.47765567765569,152.25,114.46923076923078C154.66666666666666,114.46080586080586,157.08333333333334,114.45238095238095,159.5,114.44395604395604C161.91666666666666,114.43553113553112,164.33333333333334,114.42710622710624,166.75,114.41868131868132C169.16666666666666,114.41025641025641,171.58333333333334,114.40183150183151,174,114.3934065934066C176.41666666666666,114.38498168498168,178.83333333333334,114.37655677655678,181.25,114.36813186813187C183.66666666666666,114.35970695970695,186.08333333333334,114.35128205128206,188.5,114.34285714285714C190.91666666666666,114.33443223443223,193.33333333333334,114.32600732600733,195.75,114.31758241758241C198.16666666666669,114.3091575091575,200.58333333333334,114.3007326007326,203.00000000000003,114.29230769230769C205.41666666666669,114.28388278388277,207.83333333333331,114.27545787545786,210.24999999999997,114.26703296703296C212.66666666666666,114.25860805860805,215.08333333333331,114.25018315018316,217.5,114.24175824175825C219.91666666666666,114.23333333333335,222.33333333333334,114.22490842490843,224.75,114.21648351648352C227.16666666666666,114.20805860805861,229.58333333333334,114.1996336996337,232,114.19120879120878C234.41666666666666,114.18278388278387,236.83333333333334,114.17435897435897,239.25,114.16593406593407C241.66666666666669,114.15750915750915,244.08333333333334,114.14908424908425,246.50000000000003,114.14065934065934C248.91666666666669,114.13223443223443,251.33333333333331,114.12380952380951,253.74999999999997,114.11538461538461C256.16666666666663,114.1069597069597,258.5833333333333,114.09853479853481,261,114.0901098901099C263.4166666666667,114.08168498168499,265.8333333333333,114.07326007326007,268.25,114.06483516483516C270.6666666666667,114.05641025641025,273.0833333333333,114.04798534798533,275.5,114.03956043956043C277.9166666666667,114.03113553113553,280.3333333333333,114.02271062271063,282.75,114.01428571428572C285.1666666666667,114.0058608058608,287.5833333333333,113.9974358974359,290,113.98901098901099C292.4166666666667,113.98058608058608,294.8333333333333,113.97216117216118,297.25,113.96373626373627C299.6666666666667,113.95531135531135,302.0833333333333,113.94688644688645,304.5,113.93846153846154C306.9166666666667,113.93003663003662,309.3333333333333,113.92161172161173,311.75,113.91318681318681C314.1666666666667,113.9047619047619,316.5833333333333,113.896336996337,319,113.88791208791208C321.4166666666667,113.87948717948717,323.8333333333333,113.87106227106229,326.25,113.86263736263737C328.6666666666667,113.85421245421246,331.0833333333333,113.84578754578754,333.5,113.83736263736263C335.9166666666667,113.82893772893772,338.3333333333333,113.82051282051282,340.75,113.8120879120879C343.1666666666667,113.80366300366299,345.5833333333333,113.79523809523809,348,113.78681318681319C350.4166666666667,113.77838827838829,352.8333333333333,113.76996336996338,355.25,113.76153846153846C357.6666666666667,113.75311355311355,360.0833333333333,113.74468864468865,362.5,113.73626373626374C364.9166666666667,113.72783882783882,367.3333333333333,113.71941391941392,369.75,113.71098901098901C372.1666666666667,113.7025641025641,374.5833333333333,113.6941391941392,377,113.68571428571428C379.4166666666667,113.67728937728937,381.8333333333333,113.66886446886446,384.25,113.66043956043956C386.6666666666667,113.65201465201466,389.0833333333333,113.64358974358974,391.5,113.63516483516484C393.9166666666667,113.62673992673993,396.33333333333337,113.61831501831503,398.75000000000006,113.60989010989012C401.16666666666674,113.6014652014652,403.58333333333337,113.59304029304029,406.00000000000006,113.58461538461538C408.4166666666667,113.57619047619046,410.8333333333333,113.56776556776556,413.24999999999994,113.55934065934066C415.66666666666663,113.55091575091575,418.08333333333326,113.54249084249085,420.49999999999994,113.53406593406594C422.91666666666663,113.52564102564102,425.3333333333333,113.51721611721612,427.75,113.50879120879121C430.1666666666667,113.50036630036631,432.5833333333333,113.49194139194141,435,113.4835164835165C437.4166666666667,113.47509157509158,439.8333333333333,113.46666666666667,442.25,113.45824175824175C444.6666666666667,113.44981684981684,447.0833333333333,113.44139194139194,449.5,113.43296703296703C451.9166666666667,113.42454212454211,454.3333333333333,113.41611721611721,456.75,113.40769230769232C459.1666666666667,113.39926739926742,461.5833333333333,113.3908424908425,464,113.38241758241759C466.4166666666667,113.37399267399267,468.8333333333333,113.36556776556777,471.25,113.35714285714286C473.6666666666667,113.34871794871795,476.0833333333333,113.34029304029305,478.5,113.33186813186813C480.9166666666667,113.32344322344322,483.33333333333337,113.31501831501832,485.75000000000006,113.30659340659341C488.16666666666674,113.2981684981685,490.58333333333337,113.2897435897436,493.00000000000006,113.28131868131868C495.4166666666667,113.27289377289377,497.8333333333333,113.26446886446885,500.24999999999994,113.25604395604395C502.66666666666663,113.24761904761904,505.08333333333326,113.23919413919415,507.49999999999994,113.23076923076924C509.91666666666663,113.22234432234433,512.3333333333333,113.21391941391941,514.75,113.2054945054945C517.1666666666666,113.19706959706959,519.5833333333334,113.18864468864467,522,113.18021978021977C524.4166666666666,113.17179487179487,526.8333333333334,113.16336996336997,529.25,113.15494505494506C531.6666666666666,113.14652014652015,534.0833333333334,113.13809523809525,536.5,113.12967032967033C538.9166666666666,113.12124542124542,541.3333333333334,113.1128205128205,543.75,113.10439560439559C546.1666666666666,113.09597069597068,548.5833333333334,113.08754578754579,551,113.07912087912088C553.4166666666666,113.07069597069597,555.8333333333334,113.06227106227107,558.25,113.05384615384615C560.6666666666666,113.04542124542124,563.0833333333334,113.03699633699634,565.5,113.02857142857142C567.9166666666666,113.02014652014651,570.3333333333334,113.01172161172163,572.75,113.00329670329671C575.1666666666666,112.9948717948718,577.5833333333334,112.98644688644688,580,112.97802197802197C582.4166666666666,112.96959706959706,584.8333333333334,112.96117216117216,587.25,112.95274725274724C589.6666666666666,112.94432234432233,592.0833333333334,112.93589743589743,594.5,112.92747252747253C596.9166666666666,112.91904761904763,599.3333333333334,112.91062271062272,601.75,112.9021978021978C604.1666666666666,112.89377289377289,606.5833333333334,112.88534798534799,609,112.87692307692308C611.4166666666666,112.86849816849816,613.8333333333334,112.86007326007326,616.25,112.85164835164835C618.6666666666666,112.84322344322344,621.0833333333334,112.83479853479854,623.5,112.82637362637362C625.9166666666666,112.81794871794871,628.3333333333334,112.8095238095238,630.75,112.8010989010989C633.1666666666666,112.792673992674,635.5833333333334,112.7842490842491,638,112.77582417582418C640.4166666666666,112.76739926739927,642.8333333333334,112.75897435897437,645.25,112.75054945054946C647.6666666666666,112.74212454212454,650.0833333333334,112.73369963369963,652.5,112.72527472527472C654.9166666666666,112.7168498168498,657.3333333333334,112.70842490842492,659.75,112.7C662.1666666666666,112.69157509157509,664.5833333333334,112.68315018315019,667,112.67472527472528C669.4166666666666,112.66630036630036,671.8333333333334,112.65787545787546,674.25,112.64945054945055C676.6666666666666,112.64102564102564,679.0833333333334,112.63260073260075,681.5,112.62417582417584C683.9166666666666,112.61575091575092,686.3333333333334,112.60732600732601,688.75,112.5989010989011C691.1666666666666,112.59047619047618,693.5833333333334,112.58205128205128,696,112.57362637362637C698.4166666666666,112.56520146520145,700.8333333333334,112.55677655677655,703.25,112.54835164835166C705.6666666666666,112.53992673992676,708.0833333333334,112.53150183150184,710.5,112.52307692307693C712.9166666666666,112.51465201465201,715.3333333333334,112.5062271062271,717.75,112.49780219780219C720.1666666666666,112.48937728937727,722.5833333333334,112.48095238095237,725,112.47252747252747C727.4166666666666,112.46410256410257,729.8333333333334,112.45567765567766,732.25,112.44725274725275C734.6666666666666,112.43882783882783,737.0833333333334,112.43040293040292,739.5,112.42197802197802C741.9166666666666,112.41355311355312,744.3333333333334,112.40512820512822,746.75,112.39670329670331C749.1666666666666,112.3882783882784,751.5833333333334,112.37985347985348,754,112.37142857142857C756.4166666666666,112.36300366300365,758.8333333333334,112.35457875457874,761.25,112.34615384615384C763.6666666666666,112.33772893772894,766.0833333333334,112.32930402930404,768.5,112.32087912087913C770.9166666666666,112.31245421245421,773.3333333333334,112.30402930402931,775.75,112.2956043956044C778.1666666666666,112.28717948717949,780.5833333333334,112.27875457875459,783,112.27032967032967C785.4166666666667,112.26190476190476,787.8333333333334,112.25347985347986,790.2500000000001,112.24505494505495C792.6666666666667,112.23663003663003,795.0833333333335,112.22820512820513,797.5000000000001,112.21978021978022C799.9166666666667,112.2113553113553,802.3333333333335,112.2029304029304,804.7500000000001,112.19450549450549C807.1666666666667,112.18608058608058,809.5833333333335,112.17765567765568,812.0000000000001,112.16923076923077C814.4166666666667,112.16080586080587,816.8333333333333,112.15238095238097,819.2499999999999,112.14395604395605C821.6666666666665,112.13553113553114,824.0833333333333,112.12710622710622,826.4999999999999,112.11868131868131C828.9166666666665,112.1102564102564,831.3333333333333,112.1018315018315,833.7499999999999,112.09340659340658C836.1666666666665,112.08498168498167,838.5833333333333,112.07655677655677,840.9999999999999,112.06813186813187C843.4166666666666,112.05970695970696,845.8333333333333,112.05128205128206,848.25,112.04285714285714C850.6666666666666,112.03443223443223,853.0833333333334,112.02600732600733,855.5,112.01758241758242C857.9166666666666,112.0091575091575,860.3333333333334,112.0007326007326,862.75,111.99230769230769C865.1666666666666,111.98388278388278,867.5833333333334,111.97545787545788,870,111.96703296703296C872.4166666666666,111.95860805860805,874.8333333333334,111.95018315018314,877.25,111.94175824175824C879.6666666666666,111.93333333333334,882.0833333333334,111.92490842490844,884.5,111.91648351648352C886.9166666666666,111.90805860805861,889.3333333333334,111.89963369963371,891.75,111.8912087912088C894.1666666666666,111.88278388278388,896.5833333333334,111.87435897435897,899,111.86593406593406C901.4166666666666,111.85750915750914,903.8333333333334,111.84908424908426,906.25,111.84065934065934C908.6666666666666,111.83223443223443,911.0833333333334,111.82380952380953,913.5,111.81538461538462C915.9166666666666,111.8069597069597,918.3333333333334,111.7985347985348,920.75,111.79010989010989C923.1666666666666,111.78168498168498,925.5833333333334,111.77326007326009,928,111.76483516483518C930.4166666666666,111.75641025641026,932.8333333333334,111.74798534798535,935.25,111.73956043956044C937.6666666666666,111.73113553113552,940.0833333333334,111.73113553113552,942.5,111.71428571428571C944.9166666666666,111.6974358974359,947.3333333333334,110.93197278911563,949.75,110.5408163265306C952.1666666666666,110.14965986394557,954.5833333333334,109.75850340136054,957,109.36734693877551C959.4166666666666,108.97619047619048,961.8333333333334,108.58503401360544,964.25,108.1938775510204C966.6666666666667,107.80272108843538,969.0833333333334,107.41156462585035,971.5000000000001,107.02040816326532C973.9166666666667,106.62925170068029,976.3333333333335,106.23809523809524,978.7500000000001,105.84693877551021C981.1666666666667,105.45578231292518,983.5833333333335,105.06462585034014,986.0000000000001,104.6734693877551C988.4166666666667,104.28231292517007,990.8333333333335,103.89115646258504,993.2500000000001,103.5C995.6666666666667,103.10884353741497,998.0833333333333,102.71768707482993,1000.4999999999999,102.3265306122449C1002.9166666666665,101.93537414965985,1005.3333333333333,101.54421768707482,1007.7499999999999,101.15306122448979C1010.1666666666665,100.76190476190476,1012.5833333333333,100.37074829931973,1014.9999999999999,99.9795918367347C1017.4166666666665,99.58843537414967,1019.8333333333333,99.19727891156462,1022.2499999999999,98.8061224489796C1024.6666666666665,98.41496598639455,1027.0833333333333,98.02380952380952,1029.5,97.63265306122449C1031.9166666666667,97.24149659863946,1034.3333333333333,96.85034013605443,1036.75,96.4591836734694C1039.1666666666667,96.06802721088437,1041.5833333333333,95.67687074829931,1044,95.28571428571428C1046.4166666666667,94.89455782312925,1048.8333333333333,94.50340136054422,1051.25,94.11224489795919C1053.6666666666667,93.72108843537416,1056.0833333333333,93.32993197278911,1058.5,92.93877551020408C1060.9166666666667,92.54761904761905,1063.3333333333333,92.156462585034,1065.75,91.76530612244898C1068.1666666666667,91.37414965986395,1070.5833333333333,90.98299319727892,1073,90.59183673469389C1075.4166666666667,90.20068027210885,1077.8333333333333,89.80952380952381,1080.25,89.41836734693878C1082.6666666666667,89.02721088435375,1085.0833333333333,88.6360544217687,1087.5,88.24489795918367C1089.9166666666667,87.85374149659864,1092.3333333333333,87.4625850340136,1094.75,87.07142857142857C1097.1666666666667,86.68027210884354,1099.5833333333333,86.28911564625851,1102,85.89795918367348C1104.4166666666667,85.50680272108845,1106.8333333333333,85.11564625850339,1109.25,84.72448979591836C1111.6666666666667,84.33333333333333,1114.0833333333333,83.9421768707483,1116.5,83.55102040816327C1118.9166666666667,83.15986394557824,1121.3333333333333,82.76870748299318,1123.75,82.37755102040815C1126.1666666666667,81.98639455782312,1128.5833333333333,81.5952380952381,1131,81.20408163265307C1133.4166666666667,80.81292517006804,1135.8333333333333,80.421768707483,1138.25,80.03061224489797C1140.6666666666667,79.63945578231294,1143.0833333333333,79.24829931972789,1145.5,78.85714285714286C1147.9166666666667,78.46598639455783,1150.3333333333333,78.07482993197279,1152.75,77.68367346938776C1155.1666666666667,77.29251700680273,1157.5833333333333,76.90136054421768,1160,76.51020408163265C1162.4166666666667,76.11904761904762,1164.8333333333333,75.72789115646259,1167.25,75.33673469387756C1169.6666666666667,74.94557823129253,1172.0833333333333,74.55442176870747,1174.5,74.16326530612244C1176.9166666666667,73.77210884353741,1179.3333333333333,73.38095238095238,1181.75,72.98979591836735C1184.1666666666667,72.59863945578232,1186.5833333333333,72.20748299319727,1189,71.81632653061224C1191.4166666666667,71.42517006802721,1193.8333333333333,71.03401360544218,1196.25,70.64285714285715C1198.6666666666667,70.25170068027212,1201.0833333333333,69.86054421768706,1203.5,69.46938775510203C1205.9166666666667,69.078231292517,1208.3333333333333,68.68707482993197,1210.75,68.29591836734694C1213.1666666666667,67.90476190476191,1215.5833333333333,67.51360544217687,1218,67.12244897959184C1220.4166666666667,66.7312925170068,1222.8333333333333,66.34013605442176,1225.25,65.94897959183673C1227.6666666666667,65.5578231292517,1230.0833333333333,65.16666666666666,1232.5,64.77551020408163C1234.9166666666667,64.3843537414966,1237.3333333333333,63.99319727891156,1239.75,63.60204081632653C1242.1666666666667,63.2108843537415,1244.5833333333333,62.819727891156475,1247,62.42857142857144C1249.4166666666667,62.0374149659864,1251.8333333333333,61.646258503401356,1254.25,61.25510204081632C1256.6666666666667,60.86394557823128,1259.0833333333333,60.47278911564626,1261.5,60.08163265306123C1263.9166666666667,59.6904761904762,1266.3333333333333,59.29931972789116,1268.75,58.90816326530613C1271.1666666666667,58.5170068027211,1273.5833333333333,58.12585034013606,1276,57.734693877551024C1278.4166666666667,57.343537414965986,1280.8333333333333,56.952380952380956,1283.25,56.56122448979592C1285.6666666666667,56.17006802721088,1288.0833333333333,55.778911564625844,1290.5,55.38775510204081C1292.9166666666667,54.99659863945578,1295.3333333333333,54.60544217687075,1297.75,54.214285714285715C1300.1666666666667,53.82312925170068,1302.5833333333333,53.43197278911565,1305,53.04081632653061C1307.4166666666667,52.64965986394557,1309.8333333333333,52.258503401360535,1312.25,51.867346938775505C1314.6666666666667,51.476190476190474,1317.0833333333333,51.08503401360545,1319.5,50.693877551020414C1321.9166666666667,50.302721088435376,1324.3333333333333,49.91156462585033,1326.75,49.5204081632653C1329.1666666666667,49.12925170068027,1331.5833333333333,48.73809523809524,1334,48.34693877551021C1336.4166666666667,47.95578231292518,1338.8333333333333,47.56462585034014,1341.25,47.173469387755105C1343.6666666666667,46.78231292517007,1346.0833333333333,46.39115646258503,1348.5,46C1350.9166666666667,45.60884353741497,1353.3333333333333,45.21768707482994,1355.75,44.8265306122449C1358.1666666666667,44.435374149659864,1360.5833333333333,44.044217687074834,1363,43.6530612244898C1365.4166666666667,43.26190476190476,1367.8333333333333,42.87074829931972,1370.25,42.47959183673469C1372.6666666666667,42.08843537414966,1375.0833333333333,41.69727891156464,1377.5,41.3061224489796C1379.9166666666667,40.91496598639456,1382.3333333333333,40.52380952380952,1384.75,40.13265306122449C1387.1666666666667,39.74149659863946,1389.5833333333333,39.35034013605443,1392,38.9591836734694C1394.4166666666667,38.56802721088437,1396.8333333333333,38.17687074829933,1399.25,37.78571428571429C1401.6666666666667,37.394557823129254,1404.0833333333333,37.0034013605442,1406.5,36.61224489795917C1408.9166666666667,36.22108843537414,1411.3333333333333,35.829931972789126,1413.75,35.43877551020409C1416.1666666666667,35.04761904761905,1418.5833333333333,34.65646258503401,1421,34.26530612244897C1423.4166666666667,33.87414965986393,1425.8333333333333,33.48299319727891,1428.25,33.09183673469388C1430.6666666666667,32.70068027210885,1433.0833333333333,32.30952380952381,1435.5,31.918367346938776C1437.9166666666667,31.52721088435374,1440.3333333333333,31.136054421768694,1442.75,30.74489795918366C1445.1666666666667,30.353741496598627,1447.5833333333333,29.962585034013596,1450,29.57142857142857" fill="transparent" stroke-linecap="round" stroke="#B6509E" stroke-width="2"></path><path class="visx-linepath" d="M0,106.78571428558791C2.4166666666666665,106.7646520145783,4.833333333333334,106.74358974356868,7.25,106.72252747252747C9.666666666666666,106.70146520148627,12.083333333333334,106.68040293040292,14.5,106.65934065934066C16.916666666666668,106.6382783882784,19.333333333333332,106.61721611721612,21.75,106.59615384615385C24.166666666666668,106.57509157509159,26.583333333333332,106.55402930402931,29,106.53296703296704C31.416666666666668,106.51190476190476,33.833333333333336,106.49084249084248,36.25,106.46978021978022C38.666666666666664,106.44871794871796,41.083333333333336,106.42765567765568,43.5,106.40659340659342C45.91666666666667,106.38553113553114,48.333333333333336,106.36446886446888,50.75000000000001,106.3434065934066C53.16666666666667,106.32234432234432,55.583333333333336,106.30128205128204,58,106.28021978021978C60.416666666666664,106.2591575091575,62.833333333333336,106.23809523809524,65.25,106.21703296703298C67.66666666666667,106.19597069597071,70.08333333333333,106.17490842490844,72.5,106.15384615384616C74.91666666666667,106.13278388278388,77.33333333333333,106.1117216117216,79.75,106.09065934065934C82.16666666666667,106.06959706959708,84.58333333333333,106.0485347985348,87,106.02747252747254C89.41666666666667,106.00641025641028,91.83333333333333,105.985347985348,94.25,105.96428571428572C96.66666666666667,105.94322344322345,99.08333333333334,105.92216117216118,101.50000000000001,105.9010989010989C103.91666666666667,105.88003663003663,106.33333333333334,105.85897435897435,108.75,105.83791208791209C111.16666666666667,105.81684981684981,113.58333333333333,105.79578754578755,116,105.77472527472528C118.41666666666667,105.75366300366301,120.83333333333334,105.73260073260074,123.25000000000001,105.71153846153847C125.66666666666667,105.69047619047619,128.08333333333334,105.66941391941393,130.5,105.64835164835165C132.91666666666666,105.62728937728937,135.33333333333334,105.60622710622711,137.75,105.58516483516483C140.16666666666666,105.56410256410255,142.58333333333334,105.54304029304029,145,105.52197802197801C147.41666666666666,105.50091575091574,149.83333333333334,105.47985347985346,152.25,105.4587912087912C154.66666666666666,105.43772893772893,157.08333333333334,105.41666666666666,159.5,105.3956043956044C161.91666666666666,105.37454212454213,164.33333333333334,105.35347985347985,166.75,105.33241758241758C169.16666666666666,105.3113553113553,171.58333333333334,105.29029304029302,174,105.26923076923076C176.41666666666666,105.2481684981685,178.83333333333334,105.22710622710622,181.25,105.20604395604396C183.66666666666666,105.1849816849817,186.08333333333334,105.16391941391942,188.5,105.14285714285714C190.91666666666666,105.12179487179486,193.33333333333334,105.10073260073258,195.75,105.07967032967032C198.16666666666669,105.05860805860804,200.58333333333334,105.0375457875458,203.00000000000003,105.01648351648352C205.41666666666669,104.99542124542126,207.83333333333331,104.97435897435898,210.24999999999997,104.9532967032967C212.66666666666666,104.93223443223442,215.08333333333331,104.91117216117216,217.5,104.89010989010988C219.91666666666666,104.86904761904762,222.33333333333334,104.84798534798534,224.75,104.82692307692308C227.16666666666666,104.80586080586082,229.58333333333334,104.78479853479854,232,104.76373626373626C234.41666666666666,104.74267399267399,236.83333333333334,104.72161172161171,239.25,104.70054945054945C241.66666666666669,104.67948717948717,244.08333333333334,104.65842490842492,246.50000000000003,104.63736263736264C248.91666666666669,104.61630036630038,251.33333333333331,104.5952380952381,253.74999999999997,104.57417582417582C256.16666666666663,104.55311355311355,258.5833333333333,104.53205128205128,261,104.51098901098901C263.4166666666667,104.48992673992673,265.8333333333333,104.46886446886447,268.25,104.44780219780219C270.6666666666667,104.42673992673991,273.0833333333333,104.40567765567766,275.5,104.38461538461539C277.9166666666667,104.36355311355311,280.3333333333333,104.34249084249085,282.75,104.32142857142857C285.1666666666667,104.30036630036629,287.5833333333333,104.27930402930403,290,104.25824175824175C292.4166666666667,104.23717948717947,294.8333333333333,104.21611721611723,297.25,104.19505494505495C299.6666666666667,104.17399267399267,302.0833333333333,104.15293040293041,304.5,104.13186813186813C306.9166666666667,104.11080586080585,309.3333333333333,104.08974358974359,311.75,104.06868131868131C314.1666666666667,104.04761904761904,316.5833333333333,104.02655677655679,319,104.00549450549451C321.4166666666667,103.98443223443223,323.8333333333333,103.96336996336997,326.25,103.9423076923077C328.6666666666667,103.92124542124542,331.0833333333333,103.90018315018315,333.5,103.87912087912088C335.9166666666667,103.8580586080586,338.3333333333333,103.83699633699635,340.75,103.81593406593407C343.1666666666667,103.7948717948718,345.5833333333333,103.77380952380953,348,103.75274725274726C350.4166666666667,103.73168498168498,352.8333333333333,103.71062271062272,355.25,103.68956043956044C357.6666666666667,103.66849816849816,360.0833333333333,103.64743589743591,362.5,103.62637362637363C364.9166666666667,103.60531135531136,367.3333333333333,103.5842490842491,369.75,103.56318681318682C372.1666666666667,103.54212454212454,374.5833333333333,103.52106227106228,377,103.5C379.4166666666667,103.47893772893772,381.8333333333333,103.45787545787545,384.25,103.43681318681318C386.6666666666667,103.41575091575092,389.0833333333333,103.39468864468864,391.5,103.37362637362638C393.9166666666667,103.3525641025641,396.33333333333337,103.33150183150184,398.75000000000006,103.31043956043956C401.16666666666674,103.28937728937728,403.58333333333337,103.26831501831502,406.00000000000006,103.24725274725274C408.4166666666667,103.22619047619048,410.8333333333333,103.2051282051282,413.24999999999994,103.18406593406594C415.66666666666663,103.16300366300366,418.08333333333326,103.1419413919414,420.49999999999994,103.12087912087912C422.91666666666663,103.09981684981685,425.3333333333333,103.07875457875458,427.75,103.0576923076923C430.1666666666667,103.03663003663004,432.5833333333333,103.01556776556777,435,102.9945054945055C437.4166666666667,102.97344322344324,439.8333333333333,102.95238095238096,442.25,102.93131868131869C444.6666666666667,102.91025641025641,447.0833333333333,102.88919413919413,449.5,102.86813186813187C451.9166666666667,102.8470695970696,454.3333333333333,102.82600732600733,456.75,102.80494505494507C459.1666666666667,102.7838827838828,461.5833333333333,102.76282051282053,464,102.74175824175825C466.4166666666667,102.72069597069597,468.8333333333333,102.6996336996337,471.25,102.67857142857143C473.6666666666667,102.65750915750917,476.0833333333333,102.63644688644689,478.5,102.61538461538463C480.9166666666667,102.59432234432235,483.33333333333337,102.57326007326009,485.75000000000006,102.55219780219781C488.16666666666674,102.53113553113553,490.58333333333337,102.51007326007326,493.00000000000006,102.48901098901098C495.4166666666667,102.4679487179487,497.8333333333333,102.44688644688644,500.24999999999994,102.42582417582418C502.66666666666663,102.4047619047619,505.08333333333326,102.38369963369964,507.49999999999994,102.36263736263736C509.91666666666663,102.34157509157508,512.3333333333333,102.32051282051282,514.75,102.29945054945054C517.1666666666666,102.27838827838828,519.5833333333334,102.25732600732601,522,102.23626373626374C524.4166666666666,102.21520146520146,526.8333333333334,102.1941391941392,529.25,102.17307692307692C531.6666666666666,102.15201465201464,534.0833333333334,102.13095238095238,536.5,102.1098901098901C538.9166666666666,102.08882783882783,541.3333333333334,102.06776556776555,543.75,102.04670329670328C546.1666666666666,102.02564102564102,548.5833333333334,102.00457875457874,551,101.98351648351648C553.4166666666666,101.96245421245422,555.8333333333334,101.94139194139194,558.25,101.92032967032966C560.6666666666666,101.89926739926739,563.0833333333334,101.87820512820511,565.5,101.85714285714285C567.9166666666666,101.83608058608058,570.3333333333334,101.8150183150183,572.75,101.79395604395604C575.1666666666666,101.77289377289378,577.5833333333334,101.7518315018315,580,101.73076923076923C582.4166666666666,101.70970695970695,584.8333333333334,101.68864468864467,587.25,101.66758241758241C589.6666666666666,101.64652014652015,592.0833333333334,101.62545787545787,594.5,101.6043956043956C596.9166666666666,101.58333333333334,599.3333333333334,101.56227106227107,601.75,101.54120879120879C604.1666666666666,101.52014652014651,606.5833333333334,101.49908424908423,609,101.47802197802197C611.4166666666666,101.45695970695971,613.8333333333334,101.43589743589743,616.25,101.41483516483517C618.6666666666666,101.3937728937729,621.0833333333334,101.37271062271063,623.5,101.35164835164835C625.9166666666666,101.33058608058607,628.3333333333334,101.3095238095238,630.75,101.28846153846153C633.1666666666666,101.26739926739927,635.5833333333334,101.24633699633699,638,101.22527472527473C640.4166666666666,101.20421245421247,642.8333333333334,101.18315018315019,645.25,101.16208791208791C647.6666666666666,101.14102564102564,650.0833333333334,101.11996336996337,652.5,101.0989010989011C654.9166666666666,101.07783882783882,657.3333333333334,101.05677655677655,659.75,101.03571428571428C662.1666666666666,101.014652014652,664.5833333333334,100.99358974358975,667,100.97252747252747C669.4166666666666,100.9514652014652,671.8333333333334,100.93040293040293,674.25,100.90934065934066C676.6666666666666,100.88827838827838,679.0833333333334,100.86721611721612,681.5,100.84615384615384C683.9166666666666,100.82509157509156,686.3333333333334,100.80402930402931,688.75,100.78296703296704C691.1666666666666,100.76190476190476,693.5833333333334,100.7408424908425,696,100.71978021978022C698.4166666666666,100.69871794871794,700.8333333333334,100.67765567765568,703.25,100.6565934065934C705.6666666666666,100.63553113553112,708.0833333333334,100.61446886446888,710.5,100.5934065934066C712.9166666666666,100.57234432234432,715.3333333333334,100.55128205128206,717.75,100.53021978021978C720.1666666666666,100.5091575091575,722.5833333333334,100.48809523809524,725,100.46703296703296C727.4166666666666,100.44597069597069,729.8333333333334,100.42490842490844,732.25,100.40384615384616C734.6666666666666,100.38278388278388,737.0833333333334,100.36172161172162,739.5,100.34065934065934C741.9166666666666,100.31959706959707,744.3333333333334,100.2985347985348,746.75,100.27747252747253C749.1666666666666,100.25641025641025,751.5833333333334,100.235347985348,754,100.21428571428572C756.4166666666666,100.19322344322345,758.8333333333334,100.17216117216118,761.25,100.1510989010989C763.6666666666666,100.13003663003663,766.0833333333334,100.10897435897436,768.5,100.08791208791209C770.9166666666666,100.06684981684981,773.3333333333334,100.04578754578753,775.75,100.02472527472527C778.1666666666666,100.00366300366301,780.5833333333334,99.98260073260073,783,99.96153846153847C785.4166666666667,99.94047619047619,787.8333333333334,99.91941391941393,790.2500000000001,99.89835164835165C792.6666666666667,99.87728937728937,795.0833333333335,99.8562271062271,797.5000000000001,99.83516483516483C799.9166666666667,99.81410256410257,802.3333333333335,99.79304029304029,804.7500000000001,99.77197802197803C807.1666666666667,99.75091575091577,809.5833333333335,99.72985347985349,812.0000000000001,99.70879120879121C814.4166666666667,99.68772893772893,816.8333333333333,99.66666666666666,819.2499999999999,99.6456043956044C821.6666666666665,99.62454212454212,824.0833333333333,99.60347985347985,826.4999999999999,99.58241758241759C828.9166666666665,99.56135531135533,831.3333333333333,99.54029304029305,833.7499999999999,99.51923076923077C836.1666666666665,99.4981684981685,838.5833333333333,99.47710622710622,840.9999999999999,99.45604395604396C843.4166666666666,99.43498168498168,845.8333333333333,99.41391941391943,848.25,99.39285714285715C850.6666666666666,99.37179487179489,853.0833333333334,99.35073260073261,855.5,99.32967032967034C857.9166666666666,99.30860805860806,860.3333333333334,99.28754578754578,862.75,99.26648351648352C865.1666666666666,99.24542124542126,867.5833333333334,99.22435897435898,870,99.20329670329672C872.4166666666666,99.18223443223445,874.8333333333334,99.16117216117217,877.25,99.1401098901099C879.6666666666666,99.11904761904762,882.0833333333334,99.09798534798536,884.5,99.07692307692308C886.9166666666666,99.0558608058608,889.3333333333334,99.03479853479854,891.75,99.01373626373626C894.1666666666666,98.99267399267399,896.5833333333334,98.97161172161174,899,98.95054945054946C901.4166666666666,98.92948717948718,903.8333333333334,98.90842490842492,906.25,98.88736263736264C908.6666666666666,98.86630036630036,911.0833333333334,98.8452380952381,913.5,98.82417582417582C915.9166666666666,98.80311355311355,918.3333333333334,98.7820512820513,920.75,98.76098901098902C923.1666666666666,98.73992673992674,925.5833333333334,98.71886446886448,928,98.6978021978022C930.4166666666666,98.67673992673993,932.8333333333334,98.65567765567766,935.25,98.63461538461539C937.6666666666666,98.61355311355311,940.0833333333334,98.61355311355312,942.5,98.57142857142858C944.9166666666666,98.52930402930404,947.3333333333334,97.78911564625851,949.75,97.39795918367348C952.1666666666666,97.00680272108845,954.5833333333334,96.6156462585034,957,96.22448979591837C959.4166666666666,95.83333333333334,961.8333333333334,95.4421768707483,964.25,95.05102040816327C966.6666666666667,94.65986394557822,969.0833333333334,94.26870748299321,971.5000000000001,93.87755102040816C973.9166666666667,93.48639455782313,976.3333333333335,93.09523809523809,978.7500000000001,92.70408163265306C981.1666666666667,92.31292517006803,983.5833333333335,91.92176870748298,986.0000000000001,91.53061224489795C988.4166666666667,91.13945578231292,990.8333333333335,90.7482993197279,993.2500000000001,90.35714285714286C995.6666666666667,89.96598639455783,998.0833333333333,89.57482993197279,1000.4999999999999,89.18367346938776C1002.9166666666665,88.79251700680271,1005.3333333333333,88.4013605442177,1007.7499999999999,88.01020408163266C1010.1666666666665,87.61904761904763,1012.5833333333333,87.22789115646258,1014.9999999999999,86.83673469387755C1017.4166666666665,86.44557823129252,1019.8333333333333,86.05442176870748,1022.2499999999999,85.66326530612245C1024.6666666666665,85.27210884353741,1027.0833333333333,84.88095238095238,1029.5,84.48979591836734C1031.9166666666667,84.0986394557823,1034.3333333333333,83.70748299319727,1036.75,83.31632653061224C1039.1666666666667,82.92517006802721,1041.5833333333333,82.53401360544217,1044,82.14285714285714C1046.4166666666667,81.75170068027211,1048.8333333333333,81.36054421768708,1051.25,80.96938775510205C1053.6666666666667,80.57823129251702,1056.0833333333333,80.18707482993199,1058.5,79.79591836734696C1060.9166666666667,79.40476190476193,1063.3333333333333,79.01360544217687,1065.75,78.62244897959184C1068.1666666666667,78.2312925170068,1070.5833333333333,77.84013605442176,1073,77.44897959183673C1075.4166666666667,77.0578231292517,1077.8333333333333,76.66666666666666,1080.25,76.27551020408163C1082.6666666666667,75.8843537414966,1085.0833333333333,75.49319727891157,1087.5,75.10204081632654C1089.9166666666667,74.7108843537415,1092.3333333333333,74.31972789115645,1094.75,73.92857142857142C1097.1666666666667,73.53741496598639,1099.5833333333333,73.14625850340136,1102,72.75510204081633C1104.4166666666667,72.3639455782313,1106.8333333333333,71.97278911564625,1109.25,71.58163265306122C1111.6666666666667,71.19047619047619,1114.0833333333333,70.79931972789116,1116.5,70.40816326530613C1118.9166666666667,70.0170068027211,1121.3333333333333,69.62585034013605,1123.75,69.23469387755102C1126.1666666666667,68.843537414966,1128.5833333333333,68.45238095238095,1131,68.06122448979592C1133.4166666666667,67.67006802721089,1135.8333333333333,67.27891156462584,1138.25,66.88775510204081C1140.6666666666667,66.49659863945578,1143.0833333333333,66.10544217687074,1145.5,65.71428571428571C1147.9166666666667,65.32312925170068,1150.3333333333333,64.93197278911565,1152.75,64.54081632653062C1155.1666666666667,64.14965986394559,1157.5833333333333,63.75850340136054,1160,63.367346938775505C1162.4166666666667,62.97619047619047,1164.8333333333333,62.58503401360543,1167.25,62.1938775510204C1169.6666666666667,61.80272108843537,1172.0833333333333,61.41156462585034,1174.5,61.02040816326531C1176.9166666666667,60.62925170068028,1179.3333333333333,60.23809523809524,1181.75,59.8469387755102C1184.1666666666667,59.455782312925166,1186.5833333333333,59.064625850340136,1189,58.673469387755105C1191.4166666666667,58.282312925170075,1193.8333333333333,57.89115646258504,1196.25,57.5C1198.6666666666667,57.10884353741496,1201.0833333333333,56.717687074829925,1203.5,56.326530612244895C1205.9166666666667,55.935374149659864,1208.3333333333333,55.544217687074834,1210.75,55.153061224489804C1213.1666666666667,54.76190476190477,1215.5833333333333,54.37074829931973,1218,53.97959183673469C1220.4166666666667,53.588435374149654,1222.8333333333333,53.19727891156464,1225.25,52.8061224489796C1227.6666666666667,52.41496598639456,1230.0833333333333,52.02380952380952,1232.5,51.63265306122448C1234.9166666666667,51.24149659863944,1237.3333333333333,50.85034013605442,1239.75,50.45918367346939C1242.1666666666667,50.06802721088436,1244.5833333333333,49.67687074829932,1247,49.28571428571429C1249.4166666666667,48.89455782312926,1251.8333333333333,48.503401360544224,1254.25,48.11224489795919C1256.6666666666667,47.72108843537415,1259.0833333333333,47.32993197278912,1261.5,46.93877551020408C1263.9166666666667,46.547619047619044,1266.3333333333333,46.15646258503401,1268.75,45.765306122448976C1271.1666666666667,45.374149659863946,1273.5833333333333,44.98299319727893,1276,44.59183673469389C1278.4166666666667,44.200680272108855,1280.8333333333333,43.80952380952381,1283.25,43.41836734693877C1285.6666666666667,43.027210884353735,1288.0833333333333,42.636054421768705,1290.5,42.24489795918367C1292.9166666666667,41.85374149659863,1295.3333333333333,41.4625850340136,1297.75,41.07142857142857C1300.1666666666667,40.68027210884354,1302.5833333333333,40.2891156462585,1305,39.897959183673464C1307.4166666666667,39.50680272108843,1309.8333333333333,39.11564625850339,1312.25,38.72448979591836C1314.6666666666667,38.33333333333333,1317.0833333333333,37.9421768707483,1319.5,37.55102040816327C1321.9166666666667,37.15986394557824,1324.3333333333333,36.76870748299319,1326.75,36.377551020408156C1329.1666666666667,35.98639455782312,1331.5833333333333,35.5952380952381,1334,35.204081632653065C1336.4166666666667,34.81292517006803,1338.8333333333333,34.42176870748298,1341.25,34.030612244897945C1343.6666666666667,33.63945578231291,1346.0833333333333,33.248299319727884,1348.5,32.857142857142854C1350.9166666666667,32.465986394557824,1353.3333333333333,32.07482993197279,1355.75,31.683673469387763C1358.1666666666667,31.292517006802733,1360.5833333333333,30.9013605442177,1363,30.51020408163266C1365.4166666666667,30.119047619047624,1367.8333333333333,29.727891156462583,1370.25,29.336734693877546C1372.6666666666667,28.945578231292508,1375.0833333333333,28.55442176870747,1377.5,28.16326530612244C1379.9166666666667,27.77210884353741,1382.3333333333333,27.380952380952387,1384.75,26.989795918367353C1387.1666666666667,26.59863945578232,1389.5833333333333,26.207482993197285,1392,25.816326530612248C1394.4166666666667,25.42517006802721,1396.8333333333333,25.034013605442166,1399.25,24.64285714285713C1401.6666666666667,24.251700680272098,1404.0833333333333,23.86054421768707,1406.5,23.46938775510204C1408.9166666666667,23.07823129251701,1411.3333333333333,22.687074829931973,1413.75,22.29591836734694C1416.1666666666667,21.904761904761905,1418.5833333333333,21.513605442176882,1421,21.122448979591848C1423.4166666666667,20.731292517006814,1425.8333333333333,20.34013605442177,1428.25,19.948979591836732C1430.6666666666667,19.557823129251695,1433.0833333333333,19.16666666666666,1435.5,18.775510204081627C1437.9166666666667,18.384353741496593,1440.3333333333333,17.993197278911566,1442.75,17.602040816326536C1445.1666666666667,17.210884353741505,1447.5833333333333,16.819727891156468,1450,16.428571428571434" fill="transparent" stroke-linecap="round" stroke="#E7C6DF" stroke-width="2"></path><g class="visx-group visx-axis visx-axis-bottom" transform="translate(0, 115)"><g class="visx-group visx-axis-tick" transform="translate(0, 0)"><line class="visx-line" x1="0" y1="0" x2="0" y2="8" fill="transparent" shape-rendering="crispEdges" stroke="#000" stroke-width="0" stroke-linecap="square"></line><svg x="0" y="0" font-size="10" style="overflow:visible"><text transform="" x="0" y="18" fill="#000" font-size="10" text-anchor="middle"><tspan x="0" dy="0em">0%</tspan></text></svg></g><g class="visx-group visx-axis-tick" transform="translate(0, 0)"><line class="visx-line" x1="362.5" y1="0" x2="362.5" y2="8" fill="transparent" shape-rendering="crispEdges" stroke="#000" stroke-width="0" stroke-linecap="square"></line><svg x="0" y="0" font-size="10" style="overflow:visible"><text transform="" x="362.5" y="18" fill="#000" font-size="10" text-anchor="middle"><tspan x="362.5" dy="0em">25%</tspan></text></svg></g><g class="visx-group visx-axis-tick" transform="translate(0, 0)"><line class="visx-line" x1="725" y1="0" x2="725" y2="8" fill="transparent" shape-rendering="crispEdges" stroke="#000" stroke-width="0" stroke-linecap="square"></line><svg x="0" y="0" font-size="10" style="overflow:visible"><text transform="" x="725" y="18" fill="#000" font-size="10" text-anchor="middle"><tspan x="725" dy="0em">50%</tspan></text></svg></g><g class="visx-group visx-axis-tick" transform="translate(0, 0)"><line class="visx-line" x1="1087.5" y1="0" x2="1087.5" y2="8" fill="transparent" shape-rendering="crispEdges" stroke="#000" stroke-width="0" stroke-linecap="square"></line><svg x="0" y="0" font-size="10" style="overflow:visible"><text transform="" x="1087.5" y="18" fill="#000" font-size="10" text-anchor="middle"><tspan x="1087.5" dy="0em">75%</tspan></text></svg></g><g class="visx-group visx-axis-tick" transform="translate(0, 0)"><line class="visx-line" x1="1450" y1="0" x2="1450" y2="8" fill="transparent" shape-rendering="crispEdges" stroke="#000" stroke-width="0" stroke-linecap="square"></line><svg x="0" y="0" font-size="10" style="overflow:visible"><text transform="" x="1450" y="18" fill="#000" font-size="10" text-anchor="middle"><tspan x="1450" dy="0em">100%</tspan></text></svg></g><line class="visx-line visx-axis-line" x1="0.5" y1="0" x2="1450.5" y2="0" fill="transparent" shape-rendering="crispEdges" stroke="#222" stroke-width="0"></line></g><g class="visx-group visx-axis visx-axis-left" transform="translate(0, 0)"><g class="visx-group visx-axis-tick" transform="translate(0, 0)"><line class="visx-line" x1="0" y1="115" x2="-8" y2="115" fill="transparent" shape-rendering="crispEdges" stroke="#222" stroke-width="0" stroke-linecap="square"></line><svg x="-30" y="0" font-size="8" style="overflow:visible"><text transform="" x="-8" y="115" fill="#000" font-size="8" text-anchor="start"><tspan x="-8" dy="0em">0%</tspan></text></svg></g><g class="visx-group visx-axis-tick" transform="translate(0, 0)"><line class="visx-line" x1="0" y1="73.92857142857142" x2="-8" y2="73.92857142857142" fill="transparent" shape-rendering="crispEdges" stroke="#222" stroke-width="0" stroke-linecap="square"></line><svg x="-30" y="0" font-size="8" style="overflow:visible"><text transform="" x="-8" y="73.92857142857142" fill="#000" font-size="8" text-anchor="start"><tspan x="-8" dy="0em">50%</tspan></text></svg></g><g class="visx-group visx-axis-tick" transform="translate(0, 0)"><line class="visx-line" x1="0" y1="32.857142857142854" x2="-8" y2="32.857142857142854" fill="transparent" shape-rendering="crispEdges" stroke="#222" stroke-width="0" stroke-linecap="square"></line><svg x="-30" y="0" font-size="8" style="overflow:visible"><text transform="" x="-8" y="32.857142857142854" fill="#000" font-size="8" text-anchor="start"><tspan x="-8" dy="0em">100%</tspan></text></svg></g><line class="visx-line visx-axis-line" x1="0" y1="115.5" x2="0" y2="0.5" fill="transparent" shape-rendering="crispEdges" stroke="#222" stroke-width="0"></line></g><rect class="visx-bar" width="1450" height="115" fill="transparent"></rect><line class="visx-line" x1="942.5" y1="28" x2="942.5" y2="115" fill="transparent" shape-rendering="crispEdges" stroke="#0062D2" stroke-width="1" pointer-events="none" stroke-dasharray="5,2"></line><svg x="0" y="0" font-size="10px" style="overflow:visible"><text transform="" x="942.5" y="20" font-size="10px" fill="#fff" stroke="#fff" stroke-width="0.8em" text-anchor="middle"><tspan x="942.5" dy="0.355em">Optimal 65%</tspan></text></svg><svg x="0" y="0" font-size="10px" style="overflow:visible"><text transform="" x="942.5" y="20" font-size="10px" fill="#62677B" text-anchor="middle"><tspan x="942.5" dy="0.355em">Optimal 65%</tspan></text></svg></g></svg>