<?xml version="1.0"?><svg xmlns="http://www.w3.org/2000/svg" xmlns:xlink= "http://www.w3.org/1999/xlink" style="background: white;" width="1500" height="185"> <g style="color: black; font-size: 13px; font-family: sans-serif; transform: translate(18px, 25px);"><g><circle r="3" cx="-6" cy="-5" style="fill: #B6509E" /><text>Borrow APR, variable</text></g><g style="transform: translateX(150px);"><circle r="3" cx="-6" cy="-5" style="fill: rgb(231, 198, 223)" /><text>Borrow APR, stable</text></g><g style="transform: translateX(290px);"><circle r="3" cx="-6" cy="-5" style="fill: rgb(0, 98, 210)" /><text>Utilization Rate</text></g></g><g class="visx-group" transform="translate(40, 50)"><g class="visx-group visx-rows" transform="translate(0, 0)"><line class="visx-line" x1="0" y1="115" x2="1450" y2="115" fill="transparent" shape-rendering="crispEdges" stroke="#000" stroke-width="1" stroke-dasharray="3,3" pointer-events="none"></line><line class="visx-line" x1="0" y1="57.5" x2="1450" y2="57.5" fill="transparent" shape-rendering="crispEdges" stroke="#000" stroke-width="1" stroke-dasharray="3,3" pointer-events="none"></line><line class="visx-line" x1="0" y1="0" x2="1450" y2="0" fill="transparent" shape-rendering="crispEdges" stroke="#000" stroke-width="1" stroke-dasharray="3,3" pointer-events="none"></line></g><path class="visx-linepath" d="M0,114.99999999994537C2.4166666666666665,114.99089583330147,4.833333333333334,114.98179166665757,7.25,114.9726875C9.666666666666666,114.96358333334244,12.083333333333334,114.95447916666666,14.5,114.945375C16.916666666666668,114.93627083333334,19.333333333333332,114.92716666666666,21.75,114.9180625C24.166666666666668,114.90895833333335,26.583333333333332,114.89985416666667,29,114.89075C31.416666666666668,114.88164583333332,33.833333333333336,114.87254166666668,36.25,114.8634375C38.666666666666664,114.85433333333333,41.083333333333336,114.84522916666666,43.5,114.836125C45.91666666666667,114.82702083333332,48.333333333333336,114.81791666666668,50.75000000000001,114.8088125C53.16666666666667,114.79970833333334,55.583333333333336,114.79060416666665,58,114.7815C60.416666666666664,114.77239583333332,62.833333333333336,114.76329166666667,65.25,114.7541875C67.66666666666667,114.74508333333333,70.08333333333333,114.73597916666665,72.5,114.72687499999999C74.91666666666667,114.71777083333333,77.33333333333333,114.70866666666666,79.75,114.6995625C82.16666666666667,114.69045833333334,84.58333333333333,114.68135416666667,87,114.67224999999999C89.41666666666667,114.66314583333332,91.83333333333333,114.65404166666666,94.25,114.6449375C96.66666666666667,114.63583333333334,99.08333333333334,114.62672916666668,101.50000000000001,114.617625C103.91666666666667,114.60852083333334,106.33333333333334,114.59941666666666,108.75,114.5903125C111.16666666666667,114.58120833333332,113.58333333333333,114.57210416666666,116,114.563C118.41666666666667,114.55389583333333,120.83333333333334,114.54479166666667,123.25000000000001,114.5356875C125.66666666666667,114.52658333333333,128.08333333333334,114.51747916666666,130.5,114.508375C132.91666666666666,114.49927083333333,135.33333333333334,114.49016666666665,137.75,114.4810625C140.16666666666666,114.47195833333333,142.58333333333334,114.46285416666666,145,114.45375C147.41666666666666,114.44464583333334,149.83333333333334,114.43554166666667,152.25,114.42643749999999C154.66666666666666,114.41733333333332,157.08333333333334,114.40822916666667,159.5,114.399125C161.91666666666666,114.39002083333332,164.33333333333334,114.38091666666665,166.75,114.37181249999999C169.16666666666666,114.36270833333333,171.58333333333334,114.35360416666666,174,114.3445C176.41666666666666,114.33539583333334,178.83333333333334,114.32629166666666,181.25,114.31718749999999C183.66666666666666,114.30808333333331,186.08333333333334,114.29897916666665,188.5,114.289875C190.91666666666666,114.28077083333334,193.33333333333334,114.27166666666666,195.75,114.2625625C198.16666666666669,114.25345833333333,200.58333333333334,114.24435416666667,203.00000000000003,114.23525C205.41666666666669,114.22614583333333,207.83333333333331,114.21704166666666,210.24999999999997,114.2079375C212.66666666666666,114.19883333333333,215.08333333333331,114.18972916666667,217.5,114.18062499999999C219.91666666666666,114.17152083333333,222.33333333333334,114.16241666666667,224.75,114.1533125C227.16666666666666,114.14420833333332,229.58333333333334,114.13510416666665,232,114.12599999999999C234.41666666666666,114.11689583333333,236.83333333333334,114.10779166666666,239.25,114.0986875C241.66666666666669,114.08958333333332,244.08333333333334,114.08047916666665,246.50000000000003,114.07137499999999C248.91666666666669,114.06227083333333,251.33333333333331,114.05316666666667,253.74999999999997,114.04406250000001C256.16666666666663,114.03495833333335,258.5833333333333,114.02585416666668,261,114.01675C263.4166666666667,114.00764583333334,265.8333333333333,113.99854166666668,268.25,113.98943750000001C270.6666666666667,113.98033333333333,273.0833333333333,113.97122916666666,275.5,113.962125C277.9166666666667,113.95302083333334,280.3333333333333,113.94391666666667,282.75,113.9348125C285.1666666666667,113.92570833333335,287.5833333333333,113.91660416666667,290,113.9075C292.4166666666667,113.89839583333332,294.8333333333333,113.88929166666667,297.25,113.8801875C299.6666666666667,113.87108333333335,302.0833333333333,113.86197916666669,304.5,113.85287500000001C306.9166666666667,113.84377083333334,309.3333333333333,113.83466666666666,311.75,113.8255625C314.1666666666667,113.81645833333334,316.5833333333333,113.80735416666667,319,113.79825000000001C321.4166666666667,113.78914583333335,323.8333333333333,113.78004166666668,326.25,113.7709375C328.6666666666667,113.76183333333333,331.0833333333333,113.75272916666668,333.5,113.74362500000001C335.9166666666667,113.73452083333333,338.3333333333333,113.72541666666666,340.75,113.7163125C343.1666666666667,113.70720833333334,345.5833333333333,113.69810416666667,348,113.68900000000001C350.4166666666667,113.67989583333335,352.8333333333333,113.67079166666667,355.25,113.6616875C357.6666666666667,113.65258333333333,360.0833333333333,113.64347916666668,362.5,113.634375C364.9166666666667,113.62527083333333,367.3333333333333,113.61616666666666,369.75,113.6070625C372.1666666666667,113.59795833333334,374.5833333333333,113.58885416666666,377,113.57975C379.4166666666667,113.57064583333334,381.8333333333333,113.56154166666667,384.25,113.5524375C386.6666666666667,113.54333333333332,389.0833333333333,113.53422916666666,391.5,113.525125C393.9166666666667,113.51602083333334,396.33333333333337,113.50691666666668,398.75000000000006,113.49781250000001C401.16666666666674,113.48870833333335,403.58333333333337,113.47960416666668,406.00000000000006,113.4705C408.4166666666667,113.46139583333334,410.8333333333333,113.45229166666667,413.24999999999994,113.44318750000001C415.66666666666663,113.43408333333333,418.08333333333326,113.42497916666666,420.49999999999994,113.415875C422.91666666666663,113.40677083333333,425.3333333333333,113.39766666666668,427.75,113.3885625C430.1666666666667,113.37945833333335,432.5833333333333,113.37035416666666,435,113.36125C437.4166666666667,113.35214583333334,439.8333333333333,113.34304166666666,442.25,113.3339375C444.6666666666667,113.32483333333334,447.0833333333333,113.31572916666667,449.5,113.306625C451.9166666666667,113.29752083333332,454.3333333333333,113.28841666666668,456.75,113.2793125C459.1666666666667,113.27020833333333,461.5833333333333,113.26110416666666,464,113.252C466.4166666666667,113.24289583333334,468.8333333333333,113.23379166666666,471.25,113.2246875C473.6666666666667,113.21558333333334,476.0833333333333,113.20647916666665,478.5,113.197375C480.9166666666667,113.18827083333332,483.33333333333337,113.17916666666666,485.75000000000006,113.1700625C488.16666666666674,113.16095833333334,490.58333333333337,113.15185416666668,493.00000000000006,113.14275C495.4166666666667,113.13364583333335,497.8333333333333,113.12454166666666,500.24999999999994,113.1154375C502.66666666666663,113.10633333333332,505.08333333333326,113.09722916666666,507.49999999999994,113.088125C509.91666666666663,113.07902083333333,512.3333333333333,113.06991666666667,514.75,113.0608125C517.1666666666666,113.05170833333334,519.5833333333334,113.04260416666668,522,113.0335C524.4166666666666,113.02439583333333,526.8333333333334,113.01529166666666,529.25,113.0061875C531.6666666666666,112.99708333333334,534.0833333333334,112.98797916666666,536.5,112.978875C538.9166666666666,112.96977083333334,541.3333333333334,112.96066666666667,543.75,112.9515625C546.1666666666666,112.94245833333332,548.5833333333334,112.93335416666667,551,112.92425C553.4166666666666,112.91514583333333,555.8333333333334,112.90604166666665,558.25,112.89693749999999C560.6666666666666,112.88783333333333,563.0833333333334,112.87872916666666,565.5,112.869625C567.9166666666666,112.86052083333334,570.3333333333334,112.85141666666667,572.75,112.84231249999999C575.1666666666666,112.83320833333332,577.5833333333334,112.82410416666666,580,112.815C582.4166666666666,112.80589583333334,584.8333333333334,112.79679166666668,587.25,112.7876875C589.6666666666666,112.77858333333333,592.0833333333334,112.76947916666666,594.5,112.760375C596.9166666666666,112.75127083333334,599.3333333333334,112.74216666666666,601.75,112.7330625C604.1666666666666,112.72395833333334,606.5833333333334,112.71485416666667,609,112.70575C611.4166666666666,112.69664583333332,613.8333333333334,112.68754166666668,616.25,112.6784375C618.6666666666666,112.66933333333333,621.0833333333334,112.66022916666665,623.5,112.651125C625.9166666666666,112.64202083333333,628.3333333333334,112.63291666666666,630.75,112.6238125C633.1666666666666,112.61470833333334,635.5833333333334,112.60560416666667,638,112.59649999999999C640.4166666666666,112.58739583333332,642.8333333333334,112.57829166666667,645.25,112.5691875C647.6666666666666,112.56008333333332,650.0833333333334,112.55097916666665,652.5,112.54187499999999C654.9166666666666,112.53277083333333,657.3333333333334,112.52366666666666,659.75,112.5145625C662.1666666666666,112.50545833333334,664.5833333333334,112.49635416666666,667,112.48724999999999C669.4166666666666,112.47814583333331,671.8333333333334,112.46904166666666,674.25,112.4599375C676.6666666666666,112.45083333333334,679.0833333333334,112.44172916666668,681.5,112.432625C683.9166666666666,112.42352083333333,686.3333333333334,112.41441666666665,688.75,112.4053125C691.1666666666666,112.39620833333333,693.5833333333334,112.38710416666666,696,112.378C698.4166666666666,112.36889583333334,700.8333333333334,112.35979166666667,703.25,112.35068749999999C705.6666666666666,112.34158333333332,708.0833333333334,112.33247916666667,710.5,112.323375C712.9166666666666,112.31427083333332,715.3333333333334,112.30516666666665,717.75,112.29606249999999C720.1666666666666,112.28695833333333,722.5833333333334,112.27785416666666,725,112.26875C727.4166666666666,112.25964583333334,729.8333333333334,112.25054166666666,732.25,112.24143749999999C734.6666666666666,112.23233333333332,737.0833333333334,112.22322916666667,739.5,112.214125C741.9166666666666,112.20502083333332,744.3333333333334,112.19591666666665,746.75,112.18681249999999C749.1666666666666,112.17770833333333,751.5833333333334,112.16860416666668,754,112.15950000000001C756.4166666666666,112.15039583333333,758.8333333333334,112.14129166666666,761.25,112.13218749999999C763.6666666666666,112.12308333333331,766.0833333333334,112.11397916666667,768.5,112.104875C770.9166666666666,112.09577083333335,773.3333333333334,112.08666666666667,775.75,112.0775625C778.1666666666666,112.06845833333333,780.5833333333334,112.05935416666667,783,112.05025C785.4166666666667,112.04114583333335,787.8333333333334,112.03204166666669,790.2500000000001,112.02293750000001C792.6666666666667,112.01383333333335,795.0833333333335,112.00472916666666,797.5000000000001,111.995625C799.9166666666667,111.98652083333334,802.3333333333335,111.97741666666667,804.7500000000001,111.96831250000001C807.1666666666667,111.95920833333335,809.5833333333335,111.95010416666668,812.0000000000001,111.941C814.4166666666667,111.93189583333334,816.8333333333333,111.92279166666667,819.2499999999999,111.91368750000001C821.6666666666665,111.90458333333333,824.0833333333333,111.89547916666666,826.4999999999999,111.886375C828.9166666666665,111.87727083333334,831.3333333333333,111.86816666666667,833.7499999999999,111.85906250000001C836.1666666666665,111.84995833333335,838.5833333333333,111.84085416666666,840.9999999999999,111.83175C843.4166666666666,111.82264583333333,845.8333333333333,111.81354166666668,848.25,111.8044375C850.6666666666666,111.79533333333335,853.0833333333334,111.78622916666666,855.5,111.777125C857.9166666666666,111.76802083333334,860.3333333333334,111.75891666666666,862.75,111.7498125C865.1666666666666,111.74070833333334,867.5833333333334,111.73160416666667,870,111.7225C872.4166666666666,111.71339583333332,874.8333333333334,111.70429166666666,877.25,111.6951875C879.6666666666666,111.68608333333334,882.0833333333334,111.67697916666668,884.5,111.66787500000001C886.9166666666666,111.65877083333334,889.3333333333334,111.64966666666666,891.75,111.6405625C894.1666666666666,111.63145833333334,896.5833333333334,111.62235416666667,899,111.61325000000001C901.4166666666666,111.60414583333335,903.8333333333334,111.59504166666667,906.25,111.5859375C908.6666666666666,111.57683333333333,911.0833333333334,111.56772916666668,913.5,111.558625C915.9166666666666,111.54952083333333,918.3333333333334,111.54041666666666,920.75,111.5313125C923.1666666666666,111.52220833333334,925.5833333333334,111.51310416666666,928,111.504C930.4166666666666,111.49489583333335,932.8333333333334,111.48579166666667,935.25,111.4766875C937.6666666666666,111.46758333333332,940.0833333333334,111.45847916666668,942.5,111.449375C944.9166666666666,111.44027083333333,947.3333333333334,111.43116666666666,949.75,111.4220625C952.1666666666666,111.41295833333334,954.5833333333334,111.40385416666666,957,111.39475C959.4166666666666,111.38564583333334,961.8333333333334,111.37654166666665,964.25,111.3674375C966.6666666666667,111.35833333333332,969.0833333333334,111.34922916666666,971.5000000000001,111.340125C973.9166666666667,111.33102083333334,976.3333333333335,111.32191666666668,978.7500000000001,111.3128125C981.1666666666667,111.30370833333333,983.5833333333335,111.29460416666666,986.0000000000001,111.2855C988.4166666666667,111.27639583333334,990.8333333333335,111.26729166666668,993.2500000000001,111.2581875C995.6666666666667,111.24908333333335,998.0833333333333,111.23997916666666,1000.4999999999999,111.230875C1002.9166666666665,111.22177083333332,1005.3333333333333,111.21266666666668,1007.7499999999999,111.2035625C1010.1666666666665,111.19445833333333,1012.5833333333333,111.18535416666666,1014.9999999999999,111.17625C1017.4166666666665,111.16714583333334,1019.8333333333333,111.15804166666666,1022.2499999999999,111.1489375C1024.6666666666665,111.13983333333333,1027.0833333333333,111.13072916666667,1029.5,111.121625C1031.9166666666667,111.11252083333333,1034.3333333333333,111.10341666666667,1036.75,111.0943125C1039.1666666666667,111.08520833333333,1041.5833333333333,111.07610416666665,1044,111.067C1046.4166666666667,111.05789583333333,1048.8333333333333,111.04879166666666,1051.25,111.0396875C1053.6666666666667,111.03058333333334,1056.0833333333333,111.02147916666667,1058.5,111.01237499999999C1060.9166666666667,111.00327083333332,1063.3333333333333,110.99416666666666,1065.75,110.9850625C1068.1666666666667,110.97595833333334,1070.5833333333333,110.96685416666668,1073,110.95775C1075.4166666666667,110.94864583333333,1077.8333333333333,110.93954166666666,1080.25,110.9304375C1082.6666666666667,110.92133333333334,1085.0833333333333,110.91222916666666,1087.5,110.903125C1089.9166666666667,110.89402083333334,1092.3333333333333,110.88491666666667,1094.75,110.8758125C1097.1666666666667,110.86670833333332,1099.5833333333333,110.85760416666668,1102,110.8485C1104.4166666666667,110.83939583333333,1106.8333333333333,110.83029166666665,1109.25,110.8211875C1111.6666666666667,110.81208333333333,1114.0833333333333,110.80297916666666,1116.5,110.793875C1118.9166666666667,110.78477083333334,1121.3333333333333,110.77566666666667,1123.75,110.76656249999999C1126.1666666666667,110.75745833333332,1128.5833333333333,110.74835416666667,1131,110.73925C1133.4166666666667,110.73014583333332,1135.8333333333333,110.72104166666665,1138.25,110.71193749999999C1140.6666666666667,110.70283333333333,1143.0833333333333,110.69372916666666,1145.5,110.684625C1147.9166666666667,110.67552083333334,1150.3333333333333,110.66641666666666,1152.75,110.6573125C1155.1666666666667,110.64820833333334,1157.5833333333333,110.64820833333333,1160,110.63C1162.4166666666667,110.61179166666666,1164.8333333333333,109.09666666666666,1167.25,108.33C1169.6666666666667,107.56333333333333,1172.0833333333333,106.79666666666667,1174.5,106.03C1176.9166666666667,105.26333333333334,1179.3333333333333,104.49666666666667,1181.75,103.73C1184.1666666666667,102.96333333333334,1186.5833333333333,102.19666666666667,1189,101.43C1191.4166666666667,100.66333333333334,1193.8333333333333,99.89666666666666,1196.25,99.13C1198.6666666666667,98.36333333333333,1201.0833333333333,97.59666666666666,1203.5,96.83C1205.9166666666667,96.06333333333333,1208.3333333333333,95.29666666666667,1210.75,94.53C1213.1666666666667,93.76333333333334,1215.5833333333333,92.99666666666667,1218,92.23C1220.4166666666667,91.46333333333334,1222.8333333333333,90.69666666666667,1225.25,89.93C1227.6666666666667,89.16333333333334,1230.0833333333333,88.39666666666666,1232.5,87.63C1234.9166666666667,86.86333333333333,1237.3333333333333,86.09666666666666,1239.75,85.33C1242.1666666666667,84.56333333333333,1244.5833333333333,83.79666666666667,1247,83.03C1249.4166666666667,82.26333333333334,1251.8333333333333,81.49666666666666,1254.25,80.72999999999999C1256.6666666666667,79.96333333333332,1259.0833333333333,79.19666666666666,1261.5,78.42999999999999C1263.9166666666667,77.66333333333333,1266.3333333333333,76.89666666666666,1268.75,76.13C1271.1666666666667,75.36333333333333,1273.5833333333333,74.59666666666666,1276,73.83C1278.4166666666667,73.06333333333333,1280.8333333333333,72.29666666666668,1283.25,71.53000000000002C1285.6666666666667,70.76333333333335,1288.0833333333333,69.99666666666667,1290.5,69.23C1292.9166666666667,68.46333333333334,1295.3333333333333,67.69666666666667,1297.75,66.93C1300.1666666666667,66.16333333333334,1302.5833333333333,65.39666666666668,1305,64.63000000000001C1307.4166666666667,63.863333333333344,1309.8333333333333,63.09666666666667,1312.25,62.330000000000005C1314.6666666666667,61.56333333333334,1317.0833333333333,60.79666666666667,1319.5,60.03C1321.9166666666667,59.263333333333335,1324.3333333333333,58.49666666666666,1326.75,57.73C1329.1666666666667,56.96333333333333,1331.5833333333333,56.196666666666665,1334,55.43C1336.4166666666667,54.663333333333334,1338.8333333333333,53.89666666666666,1341.25,53.129999999999995C1343.6666666666667,52.36333333333333,1346.0833333333333,51.59666666666666,1348.5,50.82999999999999C1350.9166666666667,50.063333333333325,1353.3333333333333,49.296666666666674,1355.75,48.53000000000001C1358.1666666666667,47.76333333333334,1360.5833333333333,46.99666666666667,1363,46.230000000000004C1365.4166666666667,45.46333333333334,1367.8333333333333,44.696666666666665,1370.25,43.93C1372.6666666666667,43.163333333333334,1375.0833333333333,42.39666666666666,1377.5,41.629999999999995C1379.9166666666667,40.86333333333333,1382.3333333333333,40.09666666666668,1384.75,39.33000000000001C1387.1666666666667,38.56333333333335,1389.5833333333333,37.796666666666646,1392,37.02999999999998C1394.4166666666667,36.263333333333314,1396.8333333333333,35.49666666666667,1399.25,34.730000000000004C1401.6666666666667,33.96333333333334,1404.0833333333333,33.19666666666667,1406.5,32.43000000000001C1408.9166666666667,31.66333333333334,1411.3333333333333,30.896666666666672,1413.75,30.130000000000003C1416.1666666666667,29.363333333333333,1418.5833333333333,28.596666666666664,1421,27.83C1423.4166666666667,27.063333333333333,1425.8333333333333,26.296666666666667,1428.25,25.529999999999998C1430.6666666666667,24.76333333333333,1433.0833333333333,23.99666666666665,1435.5,23.229999999999983C1437.9166666666667,22.463333333333317,1440.3333333333333,21.69666666666667,1442.75,20.930000000000007C1445.1666666666667,20.163333333333345,1447.5833333333333,19.396666666666672,1450,18.630000000000003" fill="transparent" stroke-linecap="round" stroke="#B6509E" stroke-width="2"></path><path class="visx-linepath" d="M0,107.1799999999425C2.4166666666666665,107.17041666663312,4.833333333333334,107.16083333332374,7.25,107.15124999999999C9.666666666666666,107.14166666667624,12.083333333333334,107.13208333333333,14.5,107.1225C16.916666666666668,107.11291666666668,19.333333333333332,107.10333333333332,21.75,107.09375C24.166666666666668,107.08416666666668,26.583333333333332,107.07458333333335,29,107.06500000000001C31.416666666666668,107.05541666666667,33.833333333333336,107.04583333333333,36.25,107.03625C38.666666666666664,107.02666666666666,41.083333333333336,107.01708333333332,43.5,107.0075C45.91666666666667,106.99791666666665,48.333333333333336,106.98833333333334,50.75000000000001,106.97875C53.16666666666667,106.96916666666667,55.583333333333336,106.95958333333333,58,106.94999999999999C60.416666666666664,106.94041666666665,62.833333333333336,106.93083333333333,65.25,106.92125C67.66666666666667,106.91166666666668,70.08333333333333,106.90208333333334,72.5,106.8925C74.91666666666667,106.88291666666666,77.33333333333333,106.87333333333332,79.75,106.86375C82.16666666666667,106.85416666666667,84.58333333333333,106.84458333333335,87,106.83500000000001C89.41666666666667,106.82541666666667,91.83333333333333,106.81583333333333,94.25,106.80624999999999C96.66666666666667,106.79666666666665,99.08333333333334,106.78708333333334,101.50000000000001,106.7775C103.91666666666667,106.76791666666668,106.33333333333334,106.75833333333334,108.75,106.74875C111.16666666666667,106.73916666666666,113.58333333333333,106.72958333333334,116,106.72C118.41666666666667,106.71041666666666,120.83333333333334,106.70083333333334,123.25000000000001,106.69125C125.66666666666667,106.68166666666666,128.08333333333334,106.67208333333332,130.5,106.6625C132.91666666666666,106.65291666666666,135.33333333333334,106.64333333333333,137.75,106.63375C140.16666666666666,106.62416666666668,142.58333333333334,106.61458333333334,145,106.605C147.41666666666666,106.59541666666667,149.83333333333334,106.58583333333334,152.25,106.57625C154.66666666666666,106.56666666666666,157.08333333333334,106.55708333333334,159.5,106.5475C161.91666666666666,106.53791666666666,164.33333333333334,106.52833333333332,166.75,106.51875C169.16666666666666,106.50916666666667,171.58333333333334,106.49958333333335,174,106.49000000000001C176.41666666666666,106.48041666666667,178.83333333333334,106.47083333333333,181.25,106.46124999999999C183.66666666666666,106.45166666666665,186.08333333333334,106.44208333333333,188.5,106.4325C190.91666666666666,106.42291666666668,193.33333333333334,106.41333333333334,195.75,106.40375C198.16666666666669,106.39416666666666,200.58333333333334,106.38458333333334,203.00000000000003,106.375C205.41666666666669,106.36541666666666,207.83333333333331,106.35583333333334,210.24999999999997,106.34625C212.66666666666666,106.33666666666666,215.08333333333331,106.32708333333333,217.5,106.3175C219.91666666666666,106.30791666666667,222.33333333333334,106.29833333333333,224.75,106.28875000000001C227.16666666666666,106.27916666666668,229.58333333333334,106.26958333333334,232,106.26C234.41666666666666,106.25041666666667,236.83333333333334,106.24083333333333,239.25,106.23124999999999C241.66666666666669,106.22166666666665,244.08333333333334,106.21208333333334,246.50000000000003,106.2025C248.91666666666669,106.19291666666668,251.33333333333331,106.18333333333332,253.74999999999997,106.17375C256.16666666666663,106.16416666666666,258.5833333333333,106.15458333333335,261,106.14500000000001C263.4166666666667,106.13541666666667,265.8333333333333,106.12583333333333,268.25,106.11625C270.6666666666667,106.10666666666665,273.0833333333333,106.09708333333332,275.5,106.08749999999999C277.9166666666667,106.07791666666667,280.3333333333333,106.06833333333333,282.75,106.05875C285.1666666666667,106.04916666666668,287.5833333333333,106.03958333333334,290,106.03C292.4166666666667,106.02041666666666,294.8333333333333,106.01083333333334,297.25,106.00125C299.6666666666667,105.99166666666666,302.0833333333333,105.98208333333332,304.5,105.9725C306.9166666666667,105.96291666666667,309.3333333333333,105.95333333333333,311.75,105.94375000000001C314.1666666666667,105.93416666666668,316.5833333333333,105.92458333333335,319,105.915C321.4166666666667,105.90541666666667,323.8333333333333,105.89583333333333,326.25,105.88624999999999C328.6666666666667,105.87666666666665,331.0833333333333,105.86708333333333,333.5,105.8575C335.9166666666667,105.84791666666668,338.3333333333333,105.83833333333332,340.75,105.82875C343.1666666666667,105.81916666666667,345.5833333333333,105.80958333333335,348,105.80000000000001C350.4166666666667,105.79041666666667,352.8333333333333,105.78083333333333,355.25,105.77125C357.6666666666667,105.76166666666666,360.0833333333333,105.75208333333332,362.5,105.74249999999999C364.9166666666667,105.73291666666667,367.3333333333333,105.72333333333333,369.75,105.71375C372.1666666666667,105.70416666666668,374.5833333333333,105.69458333333334,377,105.685C379.4166666666667,105.67541666666666,381.8333333333333,105.66583333333334,384.25,105.65625C386.6666666666667,105.64666666666666,389.0833333333333,105.63708333333334,391.5,105.6275C393.9166666666667,105.61791666666666,396.33333333333337,105.60833333333333,398.75000000000006,105.59875C401.16666666666674,105.58916666666666,403.58333333333337,105.57958333333333,406.00000000000006,105.57C408.4166666666667,105.56041666666667,410.8333333333333,105.55083333333333,413.24999999999994,105.54125C415.66666666666663,105.53166666666667,418.08333333333326,105.52208333333334,420.49999999999994,105.5125C422.91666666666663,105.50291666666666,425.3333333333333,105.49333333333334,427.75,105.48375C430.1666666666667,105.47416666666666,432.5833333333333,105.46458333333334,435,105.455C437.4166666666667,105.44541666666666,439.8333333333333,105.43583333333333,442.25,105.42625C444.6666666666667,105.41666666666666,447.0833333333333,105.40708333333332,449.5,105.3975C451.9166666666667,105.38791666666667,454.3333333333333,105.37833333333333,456.75,105.36875C459.1666666666667,105.35916666666668,461.5833333333333,105.34958333333334,464,105.34C466.4166666666667,105.33041666666666,468.8333333333333,105.32083333333334,471.25,105.31125C473.6666666666667,105.30166666666666,476.0833333333333,105.29208333333334,478.5,105.2825C480.9166666666667,105.27291666666666,483.33333333333337,105.26333333333334,485.75000000000006,105.25375C488.16666666666674,105.24416666666667,490.58333333333337,105.23458333333335,493.00000000000006,105.22500000000001C495.4166666666667,105.21541666666667,497.8333333333333,105.20583333333333,500.24999999999994,105.19624999999999C502.66666666666663,105.18666666666665,505.08333333333326,105.17708333333333,507.49999999999994,105.1675C509.91666666666663,105.15791666666667,512.3333333333333,105.14833333333334,514.75,105.13875C517.1666666666666,105.12916666666666,519.5833333333334,105.11958333333332,522,105.11C524.4166666666666,105.10041666666667,526.8333333333334,105.09083333333335,529.25,105.08125000000001C531.6666666666666,105.07166666666667,534.0833333333334,105.06208333333333,536.5,105.0525C538.9166666666666,105.04291666666666,541.3333333333334,105.03333333333333,543.75,105.02375C546.1666666666666,105.01416666666668,548.5833333333334,105.00458333333334,551,104.995C553.4166666666666,104.98541666666667,555.8333333333334,104.97583333333333,558.25,104.96624999999999C560.6666666666666,104.95666666666665,563.0833333333334,104.94708333333332,565.5,104.9375C567.9166666666666,104.92791666666668,570.3333333333334,104.91833333333332,572.75,104.90875C575.1666666666666,104.89916666666667,577.5833333333334,104.88958333333333,580,104.88000000000001C582.4166666666666,104.87041666666669,584.8333333333334,104.86083333333335,587.25,104.85125000000001C589.6666666666666,104.84166666666667,592.0833333333334,104.83208333333333,594.5,104.82249999999999C596.9166666666666,104.81291666666665,599.3333333333334,104.80333333333333,601.75,104.79375C604.1666666666666,104.78416666666668,606.5833333333334,104.77458333333334,609,104.765C611.4166666666666,104.75541666666666,613.8333333333334,104.74583333333334,616.25,104.73625C618.6666666666666,104.72666666666666,621.0833333333334,104.71708333333333,623.5,104.7075C625.9166666666666,104.69791666666666,628.3333333333334,104.68833333333332,630.75,104.67875C633.1666666666666,104.66916666666667,635.5833333333334,104.65958333333333,638,104.65C640.4166666666666,104.64041666666668,642.8333333333334,104.63083333333334,645.25,104.62125C647.6666666666666,104.61166666666666,650.0833333333334,104.60208333333334,652.5,104.5925C654.9166666666666,104.58291666666666,657.3333333333334,104.57333333333334,659.75,104.56375C662.1666666666666,104.55416666666666,664.5833333333334,104.54458333333334,667,104.535C669.4166666666666,104.52541666666666,671.8333333333334,104.51583333333333,674.25,104.50625C676.6666666666666,104.49666666666666,679.0833333333334,104.48708333333332,681.5,104.47749999999999C683.9166666666666,104.46791666666667,686.3333333333334,104.45833333333333,688.75,104.44875C691.1666666666666,104.43916666666668,693.5833333333334,104.42958333333333,696,104.42C698.4166666666666,104.41041666666668,700.8333333333334,104.40083333333335,703.25,104.39125000000001C705.6666666666666,104.38166666666667,708.0833333333334,104.37208333333334,710.5,104.3625C712.9166666666666,104.35291666666666,715.3333333333334,104.34333333333332,717.75,104.33375C720.1666666666666,104.32416666666667,722.5833333333334,104.31458333333335,725,104.305C727.4166666666666,104.29541666666667,729.8333333333334,104.28583333333333,732.25,104.27624999999999C734.6666666666666,104.26666666666665,737.0833333333334,104.25708333333333,739.5,104.2475C741.9166666666666,104.23791666666668,744.3333333333334,104.22833333333334,746.75,104.21875C749.1666666666666,104.20916666666666,751.5833333333334,104.19958333333332,754,104.19C756.4166666666666,104.18041666666667,758.8333333333334,104.17083333333335,761.25,104.16125000000001C763.6666666666666,104.15166666666667,766.0833333333334,104.14208333333333,768.5,104.1325C770.9166666666666,104.12291666666665,773.3333333333334,104.11333333333333,775.75,104.10375C778.1666666666666,104.09416666666668,780.5833333333334,104.08458333333334,783,104.075C785.4166666666667,104.06541666666666,787.8333333333334,104.05583333333333,790.2500000000001,104.04624999999999C792.6666666666667,104.03666666666665,795.0833333333335,104.02708333333332,797.5000000000001,104.0175C799.9166666666667,104.00791666666667,802.3333333333335,103.99833333333332,804.7500000000001,103.98875C807.1666666666667,103.97916666666667,809.5833333333335,103.96958333333335,812.0000000000001,103.96000000000001C814.4166666666667,103.95041666666668,816.8333333333333,103.94083333333334,819.2499999999999,103.93125C821.6666666666665,103.92166666666667,824.0833333333333,103.91208333333334,826.4999999999999,103.9025C828.9166666666665,103.89291666666666,831.3333333333333,103.88333333333334,833.7499999999999,103.87375C836.1666666666665,103.86416666666666,838.5833333333333,103.85458333333334,840.9999999999999,103.845C843.4166666666666,103.83541666666666,845.8333333333333,103.82583333333334,848.25,103.81625C850.6666666666666,103.80666666666666,853.0833333333334,103.79708333333332,855.5,103.7875C857.9166666666666,103.77791666666667,860.3333333333334,103.76833333333333,862.75,103.75875C865.1666666666666,103.74916666666668,867.5833333333334,103.73958333333334,870,103.73C872.4166666666666,103.72041666666667,874.8333333333334,103.71083333333334,877.25,103.70125C879.6666666666666,103.69166666666666,882.0833333333334,103.68208333333334,884.5,103.6725C886.9166666666666,103.66291666666666,889.3333333333334,103.65333333333332,891.75,103.64375C894.1666666666666,103.63416666666667,896.5833333333334,103.62458333333335,899,103.61500000000001C901.4166666666666,103.60541666666667,903.8333333333334,103.59583333333333,906.25,103.58624999999999C908.6666666666666,103.57666666666665,911.0833333333334,103.56708333333331,913.5,103.55749999999999C915.9166666666666,103.54791666666667,918.3333333333334,103.53833333333333,920.75,103.52875C923.1666666666666,103.51916666666668,925.5833333333334,103.50958333333332,928,103.5C930.4166666666666,103.49041666666668,932.8333333333334,103.48083333333335,935.25,103.47125000000001C937.6666666666666,103.46166666666667,940.0833333333334,103.45208333333333,942.5,103.4425C944.9166666666666,103.43291666666666,947.3333333333334,103.42333333333332,949.75,103.41375C952.1666666666666,103.40416666666667,954.5833333333334,103.39458333333334,957,103.385C959.4166666666666,103.37541666666667,961.8333333333334,103.36583333333333,964.25,103.35624999999999C966.6666666666667,103.34666666666665,969.0833333333334,103.33708333333334,971.5000000000001,103.3275C973.9166666666667,103.31791666666668,976.3333333333335,103.30833333333334,978.7500000000001,103.29875C981.1666666666667,103.28916666666666,983.5833333333335,103.27958333333332,986.0000000000001,103.27C988.4166666666667,103.26041666666667,990.8333333333335,103.25083333333335,993.2500000000001,103.24125000000001C995.6666666666667,103.23166666666667,998.0833333333333,103.22208333333333,1000.4999999999999,103.21249999999999C1002.9166666666665,103.20291666666665,1005.3333333333333,103.19333333333333,1007.7499999999999,103.18375C1010.1666666666665,103.17416666666668,1012.5833333333333,103.16458333333334,1014.9999999999999,103.155C1017.4166666666665,103.14541666666666,1019.8333333333333,103.13583333333334,1022.2499999999999,103.12625C1024.6666666666665,103.11666666666666,1027.0833333333333,103.10708333333334,1029.5,103.0975C1031.9166666666667,103.08791666666666,1034.3333333333333,103.07833333333332,1036.75,103.06875C1039.1666666666667,103.05916666666667,1041.5833333333333,103.04958333333333,1044,103.04C1046.4166666666667,103.03041666666668,1048.8333333333333,103.02083333333334,1051.25,103.01125C1053.6666666666667,103.00166666666667,1056.0833333333333,102.99208333333334,1058.5,102.9825C1060.9166666666667,102.97291666666666,1063.3333333333333,102.96333333333334,1065.75,102.95375C1068.1666666666667,102.94416666666666,1070.5833333333333,102.93458333333334,1073,102.925C1075.4166666666667,102.91541666666666,1077.8333333333333,102.90583333333332,1080.25,102.89625C1082.6666666666667,102.88666666666667,1085.0833333333333,102.87708333333333,1087.5,102.8675C1089.9166666666667,102.85791666666668,1092.3333333333333,102.84833333333334,1094.75,102.83875C1097.1666666666667,102.82916666666667,1099.5833333333333,102.81958333333334,1102,102.81C1104.4166666666667,102.80041666666666,1106.8333333333333,102.79083333333334,1109.25,102.78125C1111.6666666666667,102.77166666666666,1114.0833333333333,102.76208333333334,1116.5,102.7525C1118.9166666666667,102.74291666666666,1121.3333333333333,102.73333333333332,1123.75,102.72375C1126.1666666666667,102.71416666666667,1128.5833333333333,102.70458333333333,1131,102.69500000000001C1133.4166666666667,102.68541666666668,1135.8333333333333,102.67583333333334,1138.25,102.66625C1140.6666666666667,102.65666666666667,1143.0833333333333,102.64708333333333,1145.5,102.63749999999999C1147.9166666666667,102.62791666666665,1150.3333333333333,102.61833333333333,1152.75,102.60875C1155.1666666666667,102.59916666666668,1157.5833333333333,102.59916666666666,1160,102.58C1162.4166666666667,102.56083333333333,1164.8333333333333,101.04666666666667,1167.25,100.28C1169.6666666666667,99.51333333333334,1172.0833333333333,98.74666666666667,1174.5,97.98C1176.9166666666667,97.21333333333334,1179.3333333333333,96.44666666666666,1181.75,95.67999999999999C1184.1666666666667,94.91333333333333,1186.5833333333333,94.14666666666668,1189,93.38000000000001C1191.4166666666667,92.61333333333334,1193.8333333333333,91.84666666666666,1196.25,91.08C1198.6666666666667,90.31333333333333,1201.0833333333333,89.54666666666667,1203.5,88.78C1205.9166666666667,88.01333333333334,1208.3333333333333,87.24666666666667,1210.75,86.48C1213.1666666666667,85.71333333333334,1215.5833333333333,84.94666666666666,1218,84.17999999999999C1220.4166666666667,83.41333333333333,1222.8333333333333,82.64666666666666,1225.25,81.88C1227.6666666666667,81.11333333333333,1230.0833333333333,80.34666666666666,1232.5,79.58C1234.9166666666667,78.81333333333333,1237.3333333333333,78.04666666666665,1239.75,77.27999999999999C1242.1666666666667,76.51333333333332,1244.5833333333333,75.74666666666667,1247,74.98C1249.4166666666667,74.21333333333334,1251.8333333333333,73.44666666666667,1254.25,72.68C1256.6666666666667,71.91333333333334,1259.0833333333333,71.14666666666665,1261.5,70.37999999999998C1263.9166666666667,69.61333333333332,1266.3333333333333,68.84666666666668,1268.75,68.08000000000001C1271.1666666666667,67.31333333333335,1273.5833333333333,66.54666666666667,1276,65.78C1278.4166666666667,65.01333333333334,1280.8333333333333,64.24666666666666,1283.25,63.47999999999999C1285.6666666666667,62.713333333333324,1288.0833333333333,61.94666666666667,1290.5,61.18000000000001C1292.9166666666667,60.41333333333334,1295.3333333333333,59.64666666666667,1297.75,58.88C1300.1666666666667,58.11333333333334,1302.5833333333333,57.346666666666664,1305,56.58C1307.4166666666667,55.81333333333333,1309.8333333333333,55.04666666666666,1312.25,54.279999999999994C1314.6666666666667,53.51333333333333,1317.0833333333333,52.74666666666666,1319.5,51.98C1321.9166666666667,51.21333333333333,1324.3333333333333,50.44666666666667,1326.75,49.68000000000001C1329.1666666666667,48.91333333333334,1331.5833333333333,48.14666666666667,1334,47.38C1336.4166666666667,46.61333333333334,1338.8333333333333,45.846666666666664,1341.25,45.08C1343.6666666666667,44.31333333333333,1346.0833333333333,43.54666666666667,1348.5,42.78C1350.9166666666667,42.013333333333335,1353.3333333333333,41.24666666666666,1355.75,40.48C1358.1666666666667,39.71333333333333,1360.5833333333333,38.94666666666667,1363,38.18000000000001C1365.4166666666667,37.41333333333334,1367.8333333333333,36.646666666666675,1370.25,35.88000000000001C1372.6666666666667,35.113333333333344,1375.0833333333333,34.34666666666667,1377.5,33.580000000000005C1379.9166666666667,32.81333333333334,1382.3333333333333,32.04666666666667,1384.75,31.28C1387.1666666666667,30.513333333333335,1389.5833333333333,29.746666666666666,1392,28.98C1394.4166666666667,28.213333333333335,1396.8333333333333,27.446666666666665,1399.25,26.68C1401.6666666666667,25.913333333333334,1404.0833333333333,25.14666666666668,1406.5,24.38000000000001C1408.9166666666667,23.61333333333334,1411.3333333333333,22.84666666666665,1413.75,22.07999999999998C1416.1666666666667,21.31333333333331,1418.5833333333333,20.546666666666667,1421,19.780000000000005C1423.4166666666667,19.013333333333343,1425.8333333333333,18.24666666666667,1428.25,17.480000000000004C1430.6666666666667,16.71333333333334,1433.0833333333333,15.946666666666669,1435.5,15.180000000000001C1437.9166666666667,14.413333333333334,1440.3333333333333,13.646666666666665,1442.75,12.879999999999999C1445.1666666666667,12.113333333333333,1447.5833333333333,11.346666666666671,1450,10.580000000000009" fill="transparent" stroke-linecap="round" stroke="#E7C6DF" stroke-width="2"></path><g class="visx-group visx-axis visx-axis-bottom" transform="translate(0, 115)"><g class="visx-group visx-axis-tick" transform="translate(0, 0)"><line class="visx-line" x1="0" y1="0" x2="0" y2="8" fill="transparent" shape-rendering="crispEdges" stroke="#000" stroke-width="0" stroke-linecap="square"></line><svg x="0" y="0" font-size="10" style="overflow:visible"><text transform="" x="0" y="18" fill="#000" font-size="10" text-anchor="middle"><tspan x="0" dy="0em">0%</tspan></text></svg></g><g class="visx-group visx-axis-tick" transform="translate(0, 0)"><line class="visx-line" x1="362.5" y1="0" x2="362.5" y2="8" fill="transparent" shape-rendering="crispEdges" stroke="#000" stroke-width="0" stroke-linecap="square"></line><svg x="0" y="0" font-size="10" style="overflow:visible"><text transform="" x="362.5" y="18" fill="#000" font-size="10" text-anchor="middle"><tspan x="362.5" dy="0em">25%</tspan></text></svg></g><g class="visx-group visx-axis-tick" transform="translate(0, 0)"><line class="visx-line" x1="725" y1="0" x2="725" y2="8" fill="transparent" shape-rendering="crispEdges" stroke="#000" stroke-width="0" stroke-linecap="square"></line><svg x="0" y="0" font-size="10" style="overflow:visible"><text transform="" x="725" y="18" fill="#000" font-size="10" text-anchor="middle"><tspan x="725" dy="0em">50%</tspan></text></svg></g><g class="visx-group visx-axis-tick" transform="translate(0, 0)"><line class="visx-line" x1="1087.5" y1="0" x2="1087.5" y2="8" fill="transparent" shape-rendering="crispEdges" stroke="#000" stroke-width="0" stroke-linecap="square"></line><svg x="0" y="0" font-size="10" style="overflow:visible"><text transform="" x="1087.5" y="18" fill="#000" font-size="10" text-anchor="middle"><tspan x="1087.5" dy="0em">75%</tspan></text></svg></g><g class="visx-group visx-axis-tick" transform="translate(0, 0)"><line class="visx-line" x1="1450" y1="0" x2="1450" y2="8" fill="transparent" shape-rendering="crispEdges" stroke="#000" stroke-width="0" stroke-linecap="square"></line><svg x="0" y="0" font-size="10" style="overflow:visible"><text transform="" x="1450" y="18" fill="#000" font-size="10" text-anchor="middle"><tspan x="1450" dy="0em">100%</tspan></text></svg></g><line class="visx-line visx-axis-line" x1="0.5" y1="0" x2="1450.5" y2="0" fill="transparent" shape-rendering="crispEdges" stroke="#222" stroke-width="0"></line></g><g class="visx-group visx-axis visx-axis-left" transform="translate(0, 0)"><g class="visx-group visx-axis-tick" transform="translate(0, 0)"><line class="visx-line" x1="0" y1="115" x2="-8" y2="115" fill="transparent" shape-rendering="crispEdges" stroke="#222" stroke-width="0" stroke-linecap="square"></line><svg x="-30" y="0" font-size="8" style="overflow:visible"><text transform="" x="-8" y="115" fill="#000" font-size="8" text-anchor="start"><tspan x="-8" dy="0em">0%</tspan></text></svg></g><g class="visx-group visx-axis-tick" transform="translate(0, 0)"><line class="visx-line" x1="0" y1="57.5" x2="-8" y2="57.5" fill="transparent" shape-rendering="crispEdges" stroke="#222" stroke-width="0" stroke-linecap="square"></line><svg x="-30" y="0" font-size="8" style="overflow:visible"><text transform="" x="-8" y="57.5" fill="#000" font-size="8" text-anchor="start"><tspan x="-8" dy="0em">50%</tspan></text></svg></g><g class="visx-group visx-axis-tick" transform="translate(0, 0)"><line class="visx-line" x1="0" y1="0" x2="-8" y2="0" fill="transparent" shape-rendering="crispEdges" stroke="#222" stroke-width="0" stroke-linecap="square"></line><svg x="-30" y="0" font-size="8" style="overflow:visible"><text transform="" x="-8" y="0" fill="#000" font-size="8" text-anchor="start"><tspan x="-8" dy="0em">100%</tspan></text></svg></g><line class="visx-line visx-axis-line" x1="0" y1="115.5" x2="0" y2="0.5" fill="transparent" shape-rendering="crispEdges" stroke="#222" stroke-width="0"></line></g><rect class="visx-bar" width="1450" height="115" fill="transparent"></rect><line class="visx-line" x1="1160" y1="28" x2="1160" y2="115" fill="transparent" shape-rendering="crispEdges" stroke="#0062D2" stroke-width="1" pointer-events="none" stroke-dasharray="5,2"></line><svg x="0" y="0" font-size="10px" style="overflow:visible"><text transform="" x="1160" y="20" font-size="10px" fill="#fff" stroke="#fff" stroke-width="0.8em" text-anchor="middle"><tspan x="1160" dy="0.355em">Optimal 80%</tspan></text></svg><svg x="0" y="0" font-size="10px" style="overflow:visible"><text transform="" x="1160" y="20" font-size="10px" fill="#62677B" text-anchor="middle"><tspan x="1160" dy="0.355em">Optimal 80%</tspan></text></svg></g></svg>