<?xml version="1.0"?><svg xmlns="http://www.w3.org/2000/svg" xmlns:xlink= "http://www.w3.org/1999/xlink" style="background: white;" width="1500" height="185"> <g style="color: black; font-size: 13px; font-family: sans-serif; transform: translate(18px, 25px);"><g><circle r="3" cx="-6" cy="-5" style="fill: #B6509E" /><text>Borrow APR, variable</text></g><g style="transform: translateX(150px);"><circle r="3" cx="-6" cy="-5" style="fill: rgb(231, 198, 223)" /><text>Borrow APR, stable</text></g><g style="transform: translateX(290px);"><circle r="3" cx="-6" cy="-5" style="fill: rgb(0, 98, 210)" /><text>Utilization Rate</text></g></g><g class="visx-group" transform="translate(40, 50)"><g class="visx-group visx-rows" transform="translate(0, 0)"><line class="visx-line" x1="0" y1="115" x2="1450" y2="115" fill="transparent" shape-rendering="crispEdges" stroke="#000" stroke-width="1" stroke-dasharray="3,3" pointer-events="none"></line><line class="visx-line" x1="0" y1="69" x2="1450" y2="69" fill="transparent" shape-rendering="crispEdges" stroke="#000" stroke-width="1" stroke-dasharray="3,3" pointer-events="none"></line><line class="visx-line" x1="0" y1="22.999999999999996" x2="1450" y2="22.999999999999996" fill="transparent" shape-rendering="crispEdges" stroke="#000" stroke-width="1" stroke-dasharray="3,3" pointer-events="none"></line></g><path class="visx-linepath" d="M0,114.30999999987615C2.4166666666666665,114.28935897428673,4.833333333333334,114.26871794869732,7.25,114.24807692307692C9.666666666666666,114.22743589745653,12.083333333333334,114.20679487179487,14.5,114.18615384615384C16.916666666666668,114.16551282051282,19.333333333333332,114.1448717948718,21.75,114.12423076923078C24.166666666666668,114.10358974358975,26.583333333333332,114.08294871794871,29,114.06230769230768C31.416666666666668,114.04166666666666,33.833333333333336,114.02102564102564,36.25,114.00038461538462C38.666666666666664,113.97974358974359,41.083333333333336,113.95910256410257,43.5,113.93846153846154C45.91666666666667,113.91782051282051,48.333333333333336,113.89717948717949,50.75000000000001,113.87653846153846C53.16666666666667,113.85589743589743,55.583333333333336,113.8352564102564,58,113.81461538461538C60.416666666666664,113.79397435897435,62.833333333333336,113.77333333333334,65.25,113.75269230769231C67.66666666666667,113.73205128205129,70.08333333333333,113.71141025641025,72.5,113.69076923076922C74.91666666666667,113.6701282051282,77.33333333333333,113.64948717948718,79.75,113.62884615384615C82.16666666666667,113.60820512820513,84.58333333333333,113.58756410256412,87,113.56692307692309C89.41666666666667,113.54628205128206,91.83333333333333,113.52564102564102,94.25,113.505C96.66666666666667,113.48435897435897,99.08333333333334,113.46371794871796,101.50000000000001,113.44307692307693C103.91666666666667,113.4224358974359,106.33333333333334,113.40179487179488,108.75,113.38115384615385C111.16666666666667,113.36051282051282,113.58333333333333,113.3398717948718,116,113.31923076923077C118.41666666666667,113.29858974358974,120.83333333333334,113.27794871794872,123.25000000000001,113.25730769230769C125.66666666666667,113.23666666666666,128.08333333333334,113.21602564102564,130.5,113.19538461538461C132.91666666666666,113.17474358974358,135.33333333333334,113.15410256410256,137.75,113.13346153846153C140.16666666666666,113.1128205128205,142.58333333333334,113.0921794871795,145,113.07153846153847C147.41666666666666,113.05089743589744,149.83333333333334,113.0302564102564,152.25,113.00961538461537C154.66666666666666,112.98897435897435,157.08333333333334,112.96833333333333,159.5,112.94769230769231C161.91666666666666,112.92705128205128,164.33333333333334,112.90641025641025,166.75,112.88576923076923C169.16666666666666,112.8651282051282,171.58333333333334,112.84448717948717,174,112.82384615384615C176.41666666666666,112.80320512820512,178.83333333333334,112.78256410256411,181.25,112.76192307692308C183.66666666666666,112.74128205128206,186.08333333333334,112.72064102564103,188.5,112.7C190.91666666666666,112.67935897435898,193.33333333333334,112.65871794871795,195.75,112.63807692307692C198.16666666666669,112.6174358974359,200.58333333333334,112.59679487179487,203.00000000000003,112.57615384615384C205.41666666666669,112.55551282051282,207.83333333333331,112.5348717948718,210.24999999999997,112.51423076923078C212.66666666666666,112.49358974358975,215.08333333333331,112.47294871794871,217.5,112.45230769230768C219.91666666666666,112.43166666666666,222.33333333333334,112.41102564102565,224.75,112.39038461538462C227.16666666666666,112.36974358974359,229.58333333333334,112.34910256410257,232,112.32846153846154C234.41666666666666,112.30782051282051,236.83333333333334,112.28717948717949,239.25,112.26653846153846C241.66666666666669,112.24589743589743,244.08333333333334,112.2252564102564,246.50000000000003,112.20461538461538C248.91666666666669,112.18397435897435,251.33333333333331,112.16333333333333,253.74999999999997,112.1426923076923C256.16666666666663,112.12205128205127,258.5833333333333,112.10141025641026,261,112.08076923076923C263.4166666666667,112.06012820512821,265.8333333333333,112.03948717948718,268.25,112.01884615384616C270.6666666666667,111.99820512820513,273.0833333333333,111.9775641025641,275.5,111.95692307692308C277.9166666666667,111.93628205128205,280.3333333333333,111.91564102564102,282.75,111.895C285.1666666666667,111.87435897435897,287.5833333333333,111.85371794871796,290,111.83307692307693C292.4166666666667,111.8124358974359,294.8333333333333,111.79179487179486,297.25,111.77115384615384C299.6666666666667,111.75051282051281,302.0833333333333,111.7298717948718,304.5,111.70923076923077C306.9166666666667,111.68858974358974,309.3333333333333,111.66794871794872,311.75,111.64730769230769C314.1666666666667,111.62666666666667,316.5833333333333,111.60602564102564,319,111.58538461538461C321.4166666666667,111.56474358974359,323.8333333333333,111.54410256410256,326.25,111.52346153846153C328.6666666666667,111.5028205128205,331.0833333333333,111.4821794871795,333.5,111.46153846153847C335.9166666666667,111.44089743589744,338.3333333333333,111.42025641025641,340.75,111.39961538461539C343.1666666666667,111.37897435897436,345.5833333333333,111.35833333333333,348,111.33769230769231C350.4166666666667,111.31705128205128,352.8333333333333,111.29641025641027,355.25,111.27576923076924C357.6666666666667,111.25512820512822,360.0833333333333,111.23448717948718,362.5,111.21384615384615C364.9166666666667,111.19320512820512,367.3333333333333,111.17256410256411,369.75,111.15192307692308C372.1666666666667,111.13128205128206,374.5833333333333,111.13128205128206,377,111.09C379.4166666666667,111.04871794871795,381.8333333333333,110.68387387387389,384.25,110.48081081081082C386.6666666666667,110.27774774774775,389.0833333333333,110.0746846846847,391.5,109.87162162162163C393.9166666666667,109.66855855855856,396.33333333333337,109.4654954954955,398.75000000000006,109.26243243243243C401.16666666666674,109.05936936936938,403.58333333333337,108.85630630630632,406.00000000000006,108.65324324324325C408.4166666666667,108.4501801801802,410.8333333333333,108.24711711711713,413.24999999999994,108.04405405405406C415.66666666666663,107.84099099099099,418.08333333333326,107.63792792792793,420.49999999999994,107.43486486486486C422.91666666666663,107.2318018018018,425.3333333333333,107.02873873873874,427.75,106.82567567567567C430.1666666666667,106.62261261261261,432.5833333333333,106.41954954954954,435,106.21648648648649C437.4166666666667,106.01342342342343,439.8333333333333,105.81036036036036,442.25,105.6072972972973C444.6666666666667,105.40423423423422,447.0833333333333,105.20117117117118,449.5,104.99810810810811C451.9166666666667,104.79504504504504,454.3333333333333,104.59198198198199,456.75,104.38891891891892C459.1666666666667,104.18585585585585,461.5833333333333,103.9827927927928,464,103.77972972972972C466.4166666666667,103.57666666666665,468.8333333333333,103.3736036036036,471.25,103.17054054054054C473.6666666666667,102.96747747747749,476.0833333333333,102.76441441441442,478.5,102.56135135135136C480.9166666666667,102.35828828828829,483.33333333333337,102.15522522522524,485.75000000000006,101.95216216216217C488.16666666666674,101.7490990990991,490.58333333333337,101.54603603603604,493.00000000000006,101.34297297297297C495.4166666666667,101.13990990990992,497.8333333333333,100.93684684684685,500.24999999999994,100.73378378378379C502.66666666666663,100.53072072072072,505.08333333333326,100.32765765765767,507.49999999999994,100.1245945945946C509.91666666666663,99.92153153153153,512.3333333333333,99.71846846846847,514.75,99.5154054054054C517.1666666666666,99.31234234234233,519.5833333333334,99.10927927927926,522,98.90621621621621C524.4166666666666,98.70315315315315,526.8333333333334,98.50009009009008,529.25,98.29702702702703C531.6666666666666,98.09396396396397,534.0833333333334,97.8909009009009,536.5,97.68783783783783C538.9166666666666,97.48477477477476,541.3333333333334,97.28171171171172,543.75,97.07864864864865C546.1666666666666,96.87558558558558,548.5833333333334,96.67252252252253,551,96.46945945945946C553.4166666666666,96.26639639639639,555.8333333333334,96.06333333333333,558.25,95.86027027027026C560.6666666666666,95.6572072072072,563.0833333333334,95.45414414414414,565.5,95.25108108108108C567.9166666666666,95.04801801801803,570.3333333333334,94.84495495495497,572.75,94.6418918918919C575.1666666666666,94.43882882882883,577.5833333333334,94.23576576576576,580,94.03270270270271C582.4166666666666,93.82963963963965,584.8333333333334,93.62657657657658,587.25,93.42351351351353C589.6666666666666,93.22045045045047,592.0833333333334,93.0173873873874,594.5,92.81432432432433C596.9166666666666,92.61126126126126,599.3333333333334,92.4081981981982,601.75,92.20513513513514C604.1666666666666,92.00207207207207,606.5833333333334,91.79900900900901,609,91.59594594594594C611.4166666666666,91.39288288288287,613.8333333333334,91.1898198198198,616.25,90.98675675675675C618.6666666666666,90.78369369369369,621.0833333333334,90.58063063063062,623.5,90.37756756756757C625.9166666666666,90.17450450450451,628.3333333333334,89.97144144144144,630.75,89.76837837837837C633.1666666666666,89.5653153153153,635.5833333333334,89.36225225225226,638,89.15918918918919C640.4166666666666,88.95612612612612,642.8333333333334,88.75306306306307,645.25,88.55C647.6666666666666,88.34693693693693,650.0833333333334,88.14387387387387,652.5,87.9408108108108C654.9166666666666,87.73774774774773,657.3333333333334,87.53468468468468,659.75,87.33162162162162C662.1666666666666,87.12855855855857,664.5833333333334,86.9254954954955,667,86.72243243243244C669.4166666666666,86.51936936936939,671.8333333333334,86.31630630630633,674.25,86.11324324324326C676.6666666666666,85.91018018018019,679.0833333333334,85.70711711711714,681.5,85.50405405405407C683.9166666666666,85.300990990991,686.3333333333334,85.09792792792794,688.75,84.89486486486487C691.1666666666666,84.6918018018018,693.5833333333334,84.48873873873875,696,84.28567567567568C698.4166666666666,84.0826126126126,700.8333333333334,83.87954954954955,703.25,83.67648648648648C705.6666666666666,83.47342342342341,708.0833333333334,83.27036036036034,710.5,83.06729729729729C712.9166666666666,82.86423423423423,715.3333333333334,82.66117117117116,717.75,82.4581081081081C720.1666666666666,82.25504504504505,722.5833333333334,82.05198198198198,725,81.84891891891893C727.4166666666666,81.64585585585587,729.8333333333334,81.4427927927928,732.25,81.23972972972973C734.6666666666666,81.03666666666666,737.0833333333334,80.8336036036036,739.5,80.63054054054054C741.9166666666666,80.42747747747747,744.3333333333334,80.22441441441441,746.75,80.02135135135134C749.1666666666666,79.81828828828827,751.5833333333334,79.61522522522523,754,79.41216216216216C756.4166666666666,79.20909909909909,758.8333333333334,79.00603603603602,761.25,78.80297297297297C763.6666666666666,78.59990990990991,766.0833333333334,78.39684684684684,768.5,78.19378378378379C770.9166666666666,77.99072072072073,773.3333333333334,77.78765765765766,775.75,77.5845945945946C778.1666666666666,77.38153153153155,780.5833333333334,77.17846846846848,783,76.97540540540541C785.4166666666667,76.77234234234234,787.8333333333334,76.56927927927929,790.2500000000001,76.36621621621622C792.6666666666667,76.16315315315315,795.0833333333335,75.96009009009009,797.5000000000001,75.75702702702702C799.9166666666667,75.55396396396395,802.3333333333335,75.3509009009009,804.7500000000001,75.14783783783784C807.1666666666667,74.94477477477479,809.5833333333335,74.74171171171173,812.0000000000001,74.53864864864866C814.4166666666667,74.3355855855856,816.8333333333333,74.1325225225225,819.2499999999999,73.92945945945945C821.6666666666665,73.72639639639638,824.0833333333333,73.52333333333334,826.4999999999999,73.32027027027027C828.9166666666665,73.1172072072072,831.3333333333333,72.91414414414415,833.7499999999999,72.71108108108108C836.1666666666665,72.508018018018,838.5833333333333,72.30495495495494,840.9999999999999,72.10189189189188C843.4166666666666,71.89882882882881,845.8333333333333,71.69576576576576,848.25,71.4927027027027C850.6666666666666,71.28963963963965,853.0833333333334,71.08657657657658,855.5,70.88351351351352C857.9166666666666,70.68045045045046,860.3333333333334,70.47738738738741,862.75,70.27432432432434C865.1666666666666,70.07126126126127,867.5833333333334,69.86819819819821,870,69.66513513513515C872.4166666666666,69.46207207207208,874.8333333333334,69.25900900900902,877.25,69.05594594594595C879.6666666666666,68.85288288288288,882.0833333333334,68.64981981981983,884.5,68.44675675675676C886.9166666666666,68.24369369369369,889.3333333333334,68.04063063063063,891.75,67.83756756756756C894.1666666666666,67.63450450450449,896.5833333333334,67.43144144144142,899,67.22837837837837C901.4166666666666,67.02531531531531,903.8333333333334,66.82225225225224,906.25,66.61918918918919C908.6666666666666,66.41612612612613,911.0833333333334,66.21306306306306,913.5,66.01C915.9166666666666,65.80693693693695,918.3333333333334,65.60387387387388,920.75,65.40081081081081C923.1666666666666,65.19774774774774,925.5833333333334,64.99468468468469,928,64.79162162162162C930.4166666666666,64.58855855855855,932.8333333333334,64.38549549549549,935.25,64.18243243243242C937.6666666666666,63.97936936936936,940.0833333333334,63.776306306306296,942.5,63.57324324324323C944.9166666666666,63.37018018018017,947.3333333333334,63.1671171171171,949.75,62.96405405405404C952.1666666666666,62.760990990990976,954.5833333333334,62.55792792792792,957,62.35486486486486C959.4166666666666,62.151801801801795,961.8333333333334,61.94873873873874,964.25,61.74567567567568C966.6666666666667,61.542612612612615,969.0833333333334,61.33954954954955,971.5000000000001,61.13648648648649C973.9166666666667,60.93342342342343,976.3333333333335,60.73036036036036,978.7500000000001,60.527297297297295C981.1666666666667,60.32423423423423,983.5833333333335,60.12117117117116,986.0000000000001,59.9181081081081C988.4166666666667,59.71504504504504,990.8333333333335,59.511981981982,993.2500000000001,59.308918918918934C995.6666666666667,59.10585585585587,998.0833333333333,58.90279279279279,1000.4999999999999,58.699729729729725C1002.9166666666665,58.496666666666655,1005.3333333333333,58.2936036036036,1007.7499999999999,58.09054054054054C1010.1666666666665,57.887477477477475,1012.5833333333333,57.68441441441442,1014.9999999999999,57.48135135135136C1017.4166666666665,57.278288288288294,1019.8333333333333,57.075225225225225,1022.2499999999999,56.87216216216216C1024.6666666666665,56.66909909909909,1027.0833333333333,56.46603603603603,1029.5,56.26297297297297C1031.9166666666667,56.059909909909905,1034.3333333333333,55.85684684684685,1036.75,55.65378378378379C1039.1666666666667,55.450720720720724,1041.5833333333333,55.247657657657655,1044,55.04459459459459C1046.4166666666667,54.84153153153153,1048.8333333333333,54.63846846846846,1051.25,54.4354054054054C1053.6666666666667,54.232342342342335,1056.0833333333333,54.02927927927929,1058.5,53.826216216216224C1060.9166666666667,53.62315315315316,1063.3333333333333,53.42009009009008,1065.75,53.217027027027015C1068.1666666666667,53.01396396396395,1070.5833333333333,52.8109009009009,1073,52.607837837837835C1075.4166666666667,52.40477477477477,1077.8333333333333,52.20171171171172,1080.25,51.998648648648654C1082.6666666666667,51.79558558558559,1085.0833333333333,51.59252252252252,1087.5,51.38945945945946C1089.9166666666667,51.1863963963964,1092.3333333333333,50.98333333333334,1094.75,50.78027027027028C1097.1666666666667,50.577207207207216,1099.5833333333333,50.37414414414415,1102,50.171081081081084C1104.4166666666667,49.96801801801802,1106.8333333333333,49.76495495495496,1109.25,49.5618918918919C1111.6666666666667,49.358828828828834,1114.0833333333333,49.15576576576578,1116.5,48.952702702702716C1118.9166666666667,48.74963963963965,1121.3333333333333,48.54657657657659,1123.75,48.34351351351352C1126.1666666666667,48.14045045045045,1128.5833333333333,47.937387387387375,1131,47.73432432432431C1133.4166666666667,47.53126126126125,1135.8333333333333,47.328198198198194,1138.25,47.12513513513513C1140.6666666666667,46.92207207207207,1143.0833333333333,46.71900900900901,1145.5,46.515945945945944C1147.9166666666667,46.31288288288288,1150.3333333333333,46.109819819819826,1152.75,45.906756756756764C1155.1666666666667,45.7036936936937,1157.5833333333333,45.50063063063063,1160,45.29756756756757C1162.4166666666667,45.094504504504506,1164.8333333333333,44.89144144144144,1167.25,44.688378378378374C1169.6666666666667,44.48531531531531,1172.0833333333333,44.282252252252256,1174.5,44.079189189189194C1176.9166666666667,43.87612612612613,1179.3333333333333,43.67306306306306,1181.75,43.47C1184.1666666666667,43.266936936936936,1186.5833333333333,43.06387387387387,1189,42.860810810810804C1191.4166666666667,42.65774774774774,1193.8333333333333,42.454684684684686,1196.25,42.251621621621624C1198.6666666666667,42.04855855855856,1201.0833333333333,41.8454954954955,1203.5,41.642432432432436C1205.9166666666667,41.43936936936937,1208.3333333333333,41.236306306306304,1210.75,41.03324324324324C1213.1666666666667,40.83018018018018,1215.5833333333333,40.62711711711712,1218,40.42405405405406C1220.4166666666667,40.220990990991,1222.8333333333333,40.01792792792793,1225.25,39.814864864864866C1227.6666666666667,39.6118018018018,1230.0833333333333,39.40873873873875,1232.5,39.205675675675685C1234.9166666666667,39.00261261261262,1237.3333333333333,38.79954954954955,1239.75,38.59648648648649C1242.1666666666667,38.39342342342343,1244.5833333333333,38.190360360360366,1247,37.9872972972973C1249.4166666666667,37.78423423423424,1251.8333333333333,37.581171171171185,1254.25,37.37810810810812C1256.6666666666667,37.17504504504506,1259.0833333333333,36.971981981982,1261.5,36.76891891891893C1263.9166666666667,36.56585585585586,1266.3333333333333,36.36279279279278,1268.75,36.15972972972972C1271.1666666666667,35.956666666666656,1273.5833333333333,35.7536036036036,1276,35.55054054054054C1278.4166666666667,35.347477477477476,1280.8333333333333,35.144414414414406,1283.25,34.941351351351344C1285.6666666666667,34.73828828828828,1288.0833333333333,34.53522522522522,1290.5,34.332162162162156C1292.9166666666667,34.12909909909909,1295.3333333333333,33.92603603603604,1297.75,33.722972972972975C1300.1666666666667,33.51990990990991,1302.5833333333333,33.31684684684684,1305,33.11378378378378C1307.4166666666667,32.91072072072072,1309.8333333333333,32.70765765765766,1312.25,32.5045945945946C1314.6666666666667,32.30153153153154,1317.0833333333333,32.09846846846847,1319.5,31.895405405405405C1321.9166666666667,31.692342342342343,1324.3333333333333,31.489279279279277,1326.75,31.286216216216214C1329.1666666666667,31.08315315315315,1331.5833333333333,30.880090090090096,1334,30.677027027027034C1336.4166666666667,30.47396396396397,1338.8333333333333,30.270900900900905,1341.25,30.06783783783784C1343.6666666666667,29.864774774774773,1346.0833333333333,29.66171171171171,1348.5,29.458648648648648C1350.9166666666667,29.255585585585585,1353.3333333333333,29.05252252252253,1355.75,28.849459459459467C1358.1666666666667,28.646396396396405,1360.5833333333333,28.443333333333335,1363,28.240270270270273C1365.4166666666667,28.03720720720721,1367.8333333333333,27.834144144144155,1370.25,27.631081081081092C1372.6666666666667,27.42801801801803,1375.0833333333333,27.224954954954967,1377.5,27.0218918918919C1379.9166666666667,26.818828828828835,1382.3333333333333,26.61576576576577,1384.75,26.412702702702706C1387.1666666666667,26.209639639639644,1389.5833333333333,26.00657657657659,1392,25.803513513513526C1394.4166666666667,25.60045045045046,1396.8333333333333,25.397387387387386,1399.25,25.19432432432432C1401.6666666666667,24.991261261261254,1404.0833333333333,24.788198198198188,1406.5,24.585135135135125C1408.9166666666667,24.382072072072063,1411.3333333333333,24.179009009009008,1413.75,23.975945945945945C1416.1666666666667,23.772882882882882,1418.5833333333333,23.569819819819816,1421,23.366756756756754C1423.4166666666667,23.16369369369369,1425.8333333333333,22.960630630630636,1428.25,22.757567567567573C1430.6666666666667,22.55450450450451,1433.0833333333333,22.351441441441445,1435.5,22.14837837837838C1437.9166666666667,21.945315315315312,1440.3333333333333,21.742252252252236,1442.75,21.539189189189173C1445.1666666666667,21.33612612612611,1447.5833333333333,21.13306306306306,1450,20.930000000000007" fill="transparent" stroke-linecap="round" stroke="#B6509E" stroke-width="2"></path><path class="visx-linepath" d="M0,112.69999999984962C2.4166666666666665,112.67493589734818,4.833333333333334,112.64987179484673,7.25,112.6248076923077C9.666666666666666,112.59974358976866,12.083333333333334,112.5746794871795,14.5,112.5496153846154C16.916666666666668,112.52455128205129,19.333333333333332,112.49948717948718,21.75,112.47442307692307C24.166666666666668,112.44935897435897,26.583333333333332,112.42429487179487,29,112.39923076923077C31.416666666666668,112.37416666666667,33.833333333333336,112.34910256410255,36.25,112.32403846153845C38.666666666666664,112.29897435897435,41.083333333333336,112.27391025641026,43.5,112.24884615384616C45.91666666666667,112.22378205128206,48.333333333333336,112.19871794871796,50.75000000000001,112.17365384615385C53.16666666666667,112.14858974358975,55.583333333333336,112.12352564102564,58,112.09846153846154C60.416666666666664,112.07339743589743,62.833333333333336,112.04833333333333,65.25,112.02326923076923C67.66666666666667,111.99820512820513,70.08333333333333,111.97314102564103,72.5,111.94807692307693C74.91666666666667,111.92301282051282,77.33333333333333,111.89794871794871,79.75,111.8728846153846C82.16666666666667,111.8478205128205,84.58333333333333,111.8227564102564,87,111.7976923076923C89.41666666666667,111.7726282051282,91.83333333333333,111.7475641025641,94.25,111.7225C96.66666666666667,111.6974358974359,99.08333333333334,111.6723717948718,101.50000000000001,111.64730769230769C103.91666666666667,111.62224358974359,106.33333333333334,111.59717948717949,108.75,111.57211538461539C111.16666666666667,111.54705128205129,113.58333333333333,111.52198717948718,116,111.49692307692308C118.41666666666667,111.47185897435898,120.83333333333334,111.44679487179486,123.25000000000001,111.42173076923076C125.66666666666667,111.39666666666666,128.08333333333334,111.37160256410256,130.5,111.34653846153846C132.91666666666666,111.32147435897436,135.33333333333334,111.29641025641025,137.75,111.27134615384615C140.16666666666666,111.24628205128205,142.58333333333334,111.22121794871795,145,111.19615384615385C147.41666666666666,111.17108974358975,149.83333333333334,111.14602564102564,152.25,111.12096153846154C154.66666666666666,111.09589743589744,157.08333333333334,111.07083333333334,159.5,111.04576923076924C161.91666666666666,111.02070512820514,164.33333333333334,110.99564102564102,166.75,110.97057692307692C169.16666666666666,110.94551282051282,171.58333333333334,110.92044871794872,174,110.89538461538461C176.41666666666666,110.87032051282051,178.83333333333334,110.84525641025641,181.25,110.82019230769231C183.66666666666666,110.79512820512821,186.08333333333334,110.77006410256409,188.5,110.74499999999999C190.91666666666666,110.71993589743589,193.33333333333334,110.6948717948718,195.75,110.6698076923077C198.16666666666669,110.6447435897436,200.58333333333334,110.6196794871795,203.00000000000003,110.5946153846154C205.41666666666669,110.5695512820513,207.83333333333331,110.54448717948718,210.24999999999997,110.51942307692308C212.66666666666666,110.49435897435897,215.08333333333331,110.46929487179487,217.5,110.44423076923077C219.91666666666666,110.41916666666667,222.33333333333334,110.39410256410257,224.75,110.36903846153847C227.16666666666666,110.34397435897436,229.58333333333334,110.31891025641025,232,110.29384615384615C234.41666666666666,110.26878205128205,236.83333333333334,110.24371794871794,239.25,110.21865384615384C241.66666666666669,110.19358974358974,244.08333333333334,110.16852564102564,246.50000000000003,110.14346153846154C248.91666666666669,110.11839743589744,251.33333333333331,110.09333333333333,253.74999999999997,110.06826923076923C256.16666666666663,110.04320512820513,258.5833333333333,110.01814102564103,261,109.99307692307693C263.4166666666667,109.96801282051283,265.8333333333333,109.94294871794872,268.25,109.91788461538462C270.6666666666667,109.89282051282052,273.0833333333333,109.8677564102564,275.5,109.8426923076923C277.9166666666667,109.8176282051282,280.3333333333333,109.7925641025641,282.75,109.7675C285.1666666666667,109.7424358974359,287.5833333333333,109.71737179487178,290,109.69230769230768C292.4166666666667,109.66724358974358,294.8333333333333,109.64217948717949,297.25,109.61711538461539C299.6666666666667,109.59205128205129,302.0833333333333,109.56698717948719,304.5,109.54192307692308C306.9166666666667,109.51685897435898,309.3333333333333,109.49179487179488,311.75,109.46673076923078C314.1666666666667,109.44166666666668,316.5833333333333,109.41660256410256,319,109.39153846153846C321.4166666666667,109.36647435897436,323.8333333333333,109.34141025641026,326.25,109.31634615384615C328.6666666666667,109.29128205128205,331.0833333333333,109.26621794871794,333.5,109.24115384615384C335.9166666666667,109.21608974358973,338.3333333333333,109.19102564102563,340.75,109.16596153846153C343.1666666666667,109.14089743589743,345.5833333333333,109.11583333333334,348,109.09076923076924C350.4166666666667,109.06570512820514,352.8333333333333,109.04064102564104,355.25,109.01557692307694C357.6666666666667,108.99051282051283,360.0833333333333,108.96544871794872,362.5,108.94038461538462C364.9166666666667,108.91532051282051,367.3333333333333,108.89025641025641,369.75,108.86519230769231C372.1666666666667,108.84012820512821,374.5833333333333,108.84012820512821,377,108.78999999999999C379.4166666666667,108.73987179487177,381.8333333333333,108.38387387387388,384.25,108.18081081081081C386.6666666666667,107.97774774774774,389.0833333333333,107.77468468468469,391.5,107.57162162162162C393.9166666666667,107.36855855855855,396.33333333333337,107.16549549549549,398.75000000000006,106.96243243243242C401.16666666666674,106.75936936936937,403.58333333333337,106.5563063063063,406.00000000000006,106.35324324324324C408.4166666666667,106.15018018018019,410.8333333333333,105.94711711711712,413.24999999999994,105.74405405405406C415.66666666666663,105.54099099099099,418.08333333333326,105.33792792792792,420.49999999999994,105.13486486486487C422.91666666666663,104.9318018018018,425.3333333333333,104.72873873873876,427.75,104.52567567567569C430.1666666666667,104.32261261261263,432.5833333333333,104.11954954954956,435,103.91648648648649C437.4166666666667,103.71342342342342,439.8333333333333,103.51036036036035,442.25,103.3072972972973C444.6666666666667,103.10423423423424,447.0833333333333,102.90117117117117,449.5,102.69810810810812C451.9166666666667,102.49504504504506,454.3333333333333,102.29198198198199,456.75,102.08891891891892C459.1666666666667,101.88585585585585,461.5833333333333,101.6827927927928,464,101.47972972972973C466.4166666666667,101.27666666666666,468.8333333333333,101.0736036036036,471.25,100.87054054054053C473.6666666666667,100.66747747747746,476.0833333333333,100.4644144144144,478.5,100.26135135135135C480.9166666666667,100.05828828828828,483.33333333333337,99.85522522522523,485.75000000000006,99.65216216216216C488.16666666666674,99.44909909909909,490.58333333333337,99.24603603603603,493.00000000000006,99.04297297297296C495.4166666666667,98.8399099099099,497.8333333333333,98.63684684684684,500.24999999999994,98.43378378378378C502.66666666666663,98.23072072072073,505.08333333333326,98.02765765765766,507.49999999999994,97.8245945945946C509.91666666666663,97.62153153153153,512.3333333333333,97.41846846846848,514.75,97.2154054054054C517.1666666666666,97.01234234234234,519.5833333333334,96.80927927927928,522,96.60621621621621C524.4166666666666,96.40315315315314,526.8333333333334,96.20009009009009,529.25,95.99702702702703C531.6666666666666,95.79396396396398,534.0833333333334,95.59090090090092,536.5,95.38783783783785C538.9166666666666,95.18477477477478,541.3333333333334,94.98171171171172,543.75,94.77864864864866C546.1666666666666,94.57558558558559,548.5833333333334,94.37252252252253,551,94.16945945945946C553.4166666666666,93.96639639639639,555.8333333333334,93.76333333333332,558.25,93.56027027027027C560.6666666666666,93.35720720720721,563.0833333333334,93.15414414414414,565.5,92.95108108108109C567.9166666666666,92.74801801801803,570.3333333333334,92.54495495495496,572.75,92.34189189189189C575.1666666666666,92.13882882882882,577.5833333333334,91.93576576576575,580,91.7327027027027C582.4166666666666,91.52963963963964,584.8333333333334,91.32657657657657,587.25,91.12351351351352C589.6666666666666,90.92045045045046,592.0833333333334,90.71738738738739,594.5,90.51432432432432C596.9166666666666,90.31126126126125,599.3333333333334,90.10819819819821,601.75,89.90513513513514C604.1666666666666,89.70207207207207,606.5833333333334,89.499009009009,609,89.29594594594595C611.4166666666666,89.09288288288289,613.8333333333334,88.88981981981982,616.25,88.68675675675676C618.6666666666666,88.48369369369371,621.0833333333334,88.28063063063064,623.5,88.07756756756757C625.9166666666666,87.8745045045045,628.3333333333334,87.67144144144143,630.75,87.46837837837838C633.1666666666666,87.26531531531532,635.5833333333334,87.06225225225225,638,86.8591891891892C640.4166666666666,86.65612612612614,642.8333333333334,86.45306306306307,645.25,86.25C647.6666666666666,86.04693693693693,650.0833333333334,85.84387387387387,652.5,85.6408108108108C654.9166666666666,85.43774774774774,657.3333333333334,85.23468468468468,659.75,85.03162162162161C662.1666666666666,84.82855855855854,664.5833333333334,84.62549549549547,667,84.42243243243242C669.4166666666666,84.21936936936936,671.8333333333334,84.01630630630629,674.25,83.81324324324324C676.6666666666666,83.61018018018018,679.0833333333334,83.40711711711711,681.5,83.20405405405405C683.9166666666666,83.000990990991,686.3333333333334,82.79792792792793,688.75,82.59486486486486C691.1666666666666,82.39180180180179,693.5833333333334,82.18873873873875,696,81.98567567567568C698.4166666666666,81.78261261261261,700.8333333333334,81.57954954954954,703.25,81.37648648648648C705.6666666666666,81.17342342342343,708.0833333333334,80.97036036036036,710.5,80.7672972972973C712.9166666666666,80.56423423423425,715.3333333333334,80.36117117117118,717.75,80.15810810810811C720.1666666666666,79.95504504504504,722.5833333333334,79.751981981982,725,79.54891891891893C727.4166666666666,79.34585585585586,729.8333333333334,79.1427927927928,732.25,78.93972972972973C734.6666666666666,78.73666666666666,737.0833333333334,78.53360360360361,739.5,78.33054054054054C741.9166666666666,78.12747747747747,744.3333333333334,77.9244144144144,746.75,77.72135135135134C749.1666666666666,77.51828828828829,751.5833333333334,77.31522522522522,754,77.11216216216216C756.4166666666666,76.90909909909911,758.8333333333334,76.70603603603605,761.25,76.50297297297298C763.6666666666666,76.29990990990991,766.0833333333334,76.09684684684684,768.5,75.89378378378377C770.9166666666666,75.6907207207207,773.3333333333334,75.48765765765765,775.75,75.2845945945946C778.1666666666666,75.08153153153154,780.5833333333334,74.87846846846845,783,74.6754054054054C785.4166666666667,74.47234234234233,787.8333333333334,74.26927927927929,790.2500000000001,74.06621621621622C792.6666666666667,73.86315315315316,795.0833333333335,73.6600900900901,797.5000000000001,73.45702702702702C799.9166666666667,73.25396396396395,802.3333333333335,73.05090090090088,804.7500000000001,72.84783783783783C807.1666666666667,72.64477477477477,809.5833333333335,72.44171171171173,812.0000000000001,72.23864864864866C814.4166666666667,72.03558558558561,816.8333333333333,71.83252252252252,819.2499999999999,71.62945945945947C821.6666666666665,71.4263963963964,824.0833333333333,71.22333333333334,826.4999999999999,71.02027027027027C828.9166666666665,70.8172072072072,831.3333333333333,70.61414414414415,833.7499999999999,70.41108108108108C836.1666666666665,70.20801801801801,838.5833333333333,70.00495495495494,840.9999999999999,69.80189189189188C843.4166666666666,69.59882882882881,845.8333333333333,69.39576576576577,848.25,69.1927027027027C850.6666666666666,68.98963963963965,853.0833333333334,68.78657657657658,855.5,68.58351351351351C857.9166666666666,68.38045045045044,860.3333333333334,68.1773873873874,862.75,67.97432432432433C865.1666666666666,67.77126126126126,867.5833333333334,67.5681981981982,870,67.36513513513513C872.4166666666666,67.16207207207206,874.8333333333334,66.95900900900901,877.25,66.75594594594594C879.6666666666666,66.55288288288287,882.0833333333334,66.34981981981983,884.5,66.14675675675676C886.9166666666666,65.94369369369369,889.3333333333334,65.74063063063062,891.75,65.53756756756756C894.1666666666666,65.33450450450451,896.5833333333334,65.13144144144144,899,64.92837837837838C901.4166666666666,64.72531531531533,903.8333333333334,64.52225225225226,906.25,64.31918918918919C908.6666666666666,64.11612612612612,911.0833333333334,63.91306306306307,913.5,63.71000000000001C915.9166666666666,63.506936936936945,918.3333333333334,63.303873873873876,920.75,63.10081081081081C923.1666666666666,62.89774774774775,925.5833333333334,62.69468468468468,928,62.49162162162162C930.4166666666666,62.288558558558556,932.8333333333334,62.085495495495486,935.25,61.882432432432424C937.6666666666666,61.67936936936936,940.0833333333334,61.476306306306306,942.5,61.27324324324324C944.9166666666666,61.07018018018018,947.3333333333334,60.86711711711712,949.75,60.664054054054056C952.1666666666666,60.46099099099099,954.5833333333334,60.25792792792794,957,60.054864864864875C959.4166666666666,59.85180180180181,961.8333333333334,59.64873873873874,964.25,59.44567567567568C966.6666666666667,59.24261261261261,969.0833333333334,59.039549549549555,971.5000000000001,58.836486486486486C973.9166666666667,58.63342342342342,976.3333333333335,58.43036036036035,978.7500000000001,58.22729729729729C981.1666666666667,58.02423423423423,983.5833333333335,57.82117117117116,986.0000000000001,57.618108108108096C988.4166666666667,57.415045045045034,990.8333333333335,57.21198198198198,993.2500000000001,57.008918918918916C995.6666666666667,56.80585585585586,998.0833333333333,56.60279279279278,1000.4999999999999,56.39972972972973C1002.9166666666665,56.196666666666665,1005.3333333333333,55.99360360360361,1007.7499999999999,55.79054054054055C1010.1666666666665,55.587477477477485,1012.5833333333333,55.384414414414415,1014.9999999999999,55.18135135135135C1017.4166666666665,54.97828828828829,1019.8333333333333,54.77522522522522,1022.2499999999999,54.57216216216216C1024.6666666666665,54.36909909909909,1027.0833333333333,54.166036036036026,1029.5,53.96297297297296C1031.9166666666667,53.7599099099099,1034.3333333333333,53.556846846846845,1036.75,53.35378378378378C1039.1666666666667,53.15072072072072,1041.5833333333333,52.94765765765766,1044,52.744594594594595C1046.4166666666667,52.54153153153153,1048.8333333333333,52.33846846846848,1051.25,52.135405405405415C1053.6666666666667,51.93234234234235,1056.0833333333333,51.72927927927928,1058.5,51.52621621621622C1060.9166666666667,51.32315315315316,1063.3333333333333,51.12009009009009,1065.75,50.917027027027025C1068.1666666666667,50.71396396396396,1070.5833333333333,50.51090090090091,1073,50.307837837837845C1075.4166666666667,50.10477477477478,1077.8333333333333,49.9017117117117,1080.25,49.698648648648636C1082.6666666666667,49.49558558558557,1085.0833333333333,49.29252252252251,1087.5,49.08945945945945C1089.9166666666667,48.886396396396385,1092.3333333333333,48.68333333333333,1094.75,48.48027027027027C1097.1666666666667,48.277207207207205,1099.5833333333333,48.074144144144135,1102,47.87108108108107C1104.4166666666667,47.66801801801801,1106.8333333333333,47.464954954954955,1109.25,47.26189189189189C1111.6666666666667,47.05882882882883,1114.0833333333333,46.855765765765774,1116.5,46.65270270270271C1118.9166666666667,46.44963963963965,1121.3333333333333,46.24657657657658,1123.75,46.04351351351352C1126.1666666666667,45.840450450450454,1128.5833333333333,45.6373873873874,1131,45.434324324324336C1133.4166666666667,45.231261261261274,1135.8333333333333,45.02819819819821,1138.25,44.82513513513514C1140.6666666666667,44.62207207207207,1143.0833333333333,44.419009009009,1145.5,44.21594594594594C1147.9166666666667,44.01288288288288,1150.3333333333333,43.80981981981982,1152.75,43.60675675675676C1155.1666666666667,43.4036936936937,1157.5833333333333,43.20063063063063,1160,42.997567567567565C1162.4166666666667,42.7945045045045,1164.8333333333333,42.59144144144143,1167.25,42.38837837837837C1169.6666666666667,42.18531531531531,1172.0833333333333,41.98225225225225,1174.5,41.77918918918919C1176.9166666666667,41.57612612612613,1179.3333333333333,41.373063063063064,1181.75,41.17C1184.1666666666667,40.96693693693694,1186.5833333333333,40.763873873873884,1189,40.56081081081082C1191.4166666666667,40.35774774774776,1193.8333333333333,40.15468468468469,1196.25,39.951621621621626C1198.6666666666667,39.748558558558564,1201.0833333333333,39.545495495495494,1203.5,39.34243243243243C1205.9166666666667,39.13936936936937,1208.3333333333333,38.9363063063063,1210.75,38.73324324324324C1213.1666666666667,38.530180180180174,1215.5833333333333,38.327117117117105,1218,38.12405405405404C1220.4166666666667,37.92099099099098,1222.8333333333333,37.71792792792792,1225.25,37.514864864864855C1227.6666666666667,37.31180180180179,1230.0833333333333,37.108738738738744,1232.5,36.90567567567568C1234.9166666666667,36.70261261261262,1237.3333333333333,36.499549549549556,1239.75,36.296486486486494C1242.1666666666667,36.09342342342343,1244.5833333333333,35.89036036036036,1247,35.6872972972973C1249.4166666666667,35.484234234234236,1251.8333333333333,35.28117117117118,1254.25,35.07810810810812C1256.6666666666667,34.875045045045056,1259.0833333333333,34.671981981981986,1261.5,34.468918918918924C1263.9166666666667,34.26585585585586,1266.3333333333333,34.062792792792806,1268.75,33.85972972972974C1271.1666666666667,33.65666666666668,1273.5833333333333,33.45360360360361,1276,33.25054054054055C1278.4166666666667,33.047477477477486,1280.8333333333333,32.84441441441441,1283.25,32.64135135135135C1285.6666666666667,32.438288288288284,1288.0833333333333,32.23522522522523,1290.5,32.032162162162166C1292.9166666666667,31.829099099099103,1295.3333333333333,31.626036036036037,1297.75,31.42297297297297C1300.1666666666667,31.219909909909905,1302.5833333333333,31.01684684684684,1305,30.813783783783776C1307.4166666666667,30.610720720720714,1309.8333333333333,30.40765765765766,1312.25,30.204594594594596C1314.6666666666667,30.001531531531533,1317.0833333333333,29.79846846846847,1319.5,29.595405405405405C1321.9166666666667,29.39234234234234,1324.3333333333333,29.189279279279273,1326.75,28.98621621621621C1329.1666666666667,28.783153153153147,1331.5833333333333,28.580090090090092,1334,28.37702702702703C1336.4166666666667,28.173963963963967,1338.8333333333333,27.9709009009009,1341.25,27.76783783783784C1343.6666666666667,27.564774774774776,1346.0833333333333,27.361711711711706,1348.5,27.158648648648644C1350.9166666666667,26.95558558558558,1353.3333333333333,26.75252252252252,1355.75,26.549459459459452C1358.1666666666667,26.346396396396386,1360.5833333333333,26.143333333333317,1363,25.940270270270258C1365.4166666666667,25.7372072072072,1367.8333333333333,25.53414414414415,1370.25,25.33108108108109C1372.6666666666667,25.128018018018032,1375.0833333333333,24.924954954954963,1377.5,24.721891891891897C1379.9166666666667,24.51882882882883,1382.3333333333333,24.315765765765768,1384.75,24.112702702702705C1387.1666666666667,23.909639639639643,1389.5833333333333,23.70657657657659,1392,23.503513513513525C1394.4166666666667,23.30045045045046,1396.8333333333333,23.09738738738738,1399.25,22.894324324324316C1401.6666666666667,22.691261261261253,1404.0833333333333,22.488198198198212,1406.5,22.28513513513515C1408.9166666666667,22.082072072072087,1411.3333333333333,21.87900900900901,1413.75,21.675945945945944C1416.1666666666667,21.472882882882878,1418.5833333333333,21.269819819819826,1421,21.066756756756764C1423.4166666666667,20.8636936936937,1425.8333333333333,20.66063063063063,1428.25,20.45756756756757C1430.6666666666667,20.254504504504506,1433.0833333333333,20.051441441441455,1435.5,19.84837837837839C1437.9166666666667,19.645315315315322,1440.3333333333333,19.44225225225225,1442.75,19.239189189189183C1445.1666666666667,19.036126126126117,1447.5833333333333,18.833063063063054,1450,18.629999999999992" fill="transparent" stroke-linecap="round" stroke="#E7C6DF" stroke-width="2"></path><g class="visx-group visx-axis visx-axis-bottom" transform="translate(0, 115)"><g class="visx-group visx-axis-tick" transform="translate(0, 0)"><line class="visx-line" x1="0" y1="0" x2="0" y2="8" fill="transparent" shape-rendering="crispEdges" stroke="#000" stroke-width="0" stroke-linecap="square"></line><svg x="0" y="0" font-size="10" style="overflow:visible"><text transform="" x="0" y="18" fill="#000" font-size="10" text-anchor="middle"><tspan x="0" dy="0em">0%</tspan></text></svg></g><g class="visx-group visx-axis-tick" transform="translate(0, 0)"><line class="visx-line" x1="362.5" y1="0" x2="362.5" y2="8" fill="transparent" shape-rendering="crispEdges" stroke="#000" stroke-width="0" stroke-linecap="square"></line><svg x="0" y="0" font-size="10" style="overflow:visible"><text transform="" x="362.5" y="18" fill="#000" font-size="10" text-anchor="middle"><tspan x="362.5" dy="0em">25%</tspan></text></svg></g><g class="visx-group visx-axis-tick" transform="translate(0, 0)"><line class="visx-line" x1="725" y1="0" x2="725" y2="8" fill="transparent" shape-rendering="crispEdges" stroke="#000" stroke-width="0" stroke-linecap="square"></line><svg x="0" y="0" font-size="10" style="overflow:visible"><text transform="" x="725" y="18" fill="#000" font-size="10" text-anchor="middle"><tspan x="725" dy="0em">50%</tspan></text></svg></g><g class="visx-group visx-axis-tick" transform="translate(0, 0)"><line class="visx-line" x1="1087.5" y1="0" x2="1087.5" y2="8" fill="transparent" shape-rendering="crispEdges" stroke="#000" stroke-width="0" stroke-linecap="square"></line><svg x="0" y="0" font-size="10" style="overflow:visible"><text transform="" x="1087.5" y="18" fill="#000" font-size="10" text-anchor="middle"><tspan x="1087.5" dy="0em">75%</tspan></text></svg></g><g class="visx-group visx-axis-tick" transform="translate(0, 0)"><line class="visx-line" x1="1450" y1="0" x2="1450" y2="8" fill="transparent" shape-rendering="crispEdges" stroke="#000" stroke-width="0" stroke-linecap="square"></line><svg x="0" y="0" font-size="10" style="overflow:visible"><text transform="" x="1450" y="18" fill="#000" font-size="10" text-anchor="middle"><tspan x="1450" dy="0em">100%</tspan></text></svg></g><line class="visx-line visx-axis-line" x1="0.5" y1="0" x2="1450.5" y2="0" fill="transparent" shape-rendering="crispEdges" stroke="#222" stroke-width="0"></line></g><g class="visx-group visx-axis visx-axis-left" transform="translate(0, 0)"><g class="visx-group visx-axis-tick" transform="translate(0, 0)"><line class="visx-line" x1="0" y1="115" x2="-8" y2="115" fill="transparent" shape-rendering="crispEdges" stroke="#222" stroke-width="0" stroke-linecap="square"></line><svg x="-30" y="0" font-size="8" style="overflow:visible"><text transform="" x="-8" y="115" fill="#000" font-size="8" text-anchor="start"><tspan x="-8" dy="0em">0%</tspan></text></svg></g><g class="visx-group visx-axis-tick" transform="translate(0, 0)"><line class="visx-line" x1="0" y1="69" x2="-8" y2="69" fill="transparent" shape-rendering="crispEdges" stroke="#222" stroke-width="0" stroke-linecap="square"></line><svg x="-30" y="0" font-size="8" style="overflow:visible"><text transform="" x="-8" y="69" fill="#000" font-size="8" text-anchor="start"><tspan x="-8" dy="0em">200%</tspan></text></svg></g><g class="visx-group visx-axis-tick" transform="translate(0, 0)"><line class="visx-line" x1="0" y1="22.999999999999996" x2="-8" y2="22.999999999999996" fill="transparent" shape-rendering="crispEdges" stroke="#222" stroke-width="0" stroke-linecap="square"></line><svg x="-30" y="0" font-size="8" style="overflow:visible"><text transform="" x="-8" y="22.999999999999996" fill="#000" font-size="8" text-anchor="start"><tspan x="-8" dy="0em">400%</tspan></text></svg></g><line class="visx-line visx-axis-line" x1="0" y1="115.5" x2="0" y2="0.5" fill="transparent" shape-rendering="crispEdges" stroke="#222" stroke-width="0"></line></g><rect class="visx-bar" width="1450" height="115" fill="transparent"></rect><line class="visx-line" x1="377" y1="28" x2="377" y2="115" fill="transparent" shape-rendering="crispEdges" stroke="#0062D2" stroke-width="1" pointer-events="none" stroke-dasharray="5,2"></line><svg x="0" y="0" font-size="10px" style="overflow:visible"><text transform="" x="377" y="20" font-size="10px" fill="#fff" stroke="#fff" stroke-width="0.8em" text-anchor="middle"><tspan x="377" dy="0.355em">Optimal 26%</tspan></text></svg><svg x="0" y="0" font-size="10px" style="overflow:visible"><text transform="" x="377" y="20" font-size="10px" fill="#62677B" text-anchor="middle"><tspan x="377" dy="0.355em">Optimal 26%</tspan></text></svg></g></svg>