<?xml version="1.0"?><svg xmlns="http://www.w3.org/2000/svg" xmlns:xlink= "http://www.w3.org/1999/xlink" style="background: white;" width="1500" height="185"> <g style="color: black; font-size: 13px; font-family: sans-serif; transform: translate(18px, 25px);"><g><circle r="3" cx="-6" cy="-5" style="fill: #B6509E" /><text>Borrow APR, variable</text></g><g style="transform: translateX(150px);"><circle r="3" cx="-6" cy="-5" style="fill: rgb(231, 198, 223)" /><text>Borrow APR, stable</text></g><g style="transform: translateX(290px);"><circle r="3" cx="-6" cy="-5" style="fill: rgb(0, 98, 210)" /><text>Utilization Rate</text></g></g><g class="visx-group" transform="translate(40, 50)"><g class="visx-group visx-rows" transform="translate(0, 0)"><line class="visx-line" x1="0" y1="115" x2="1450" y2="115" fill="transparent" shape-rendering="crispEdges" stroke="#000" stroke-width="1" stroke-dasharray="3,3" pointer-events="none"></line><line class="visx-line" x1="0" y1="67.08333333333333" x2="1450" y2="67.08333333333333" fill="transparent" shape-rendering="crispEdges" stroke="#000" stroke-width="1" stroke-dasharray="3,3" pointer-events="none"></line><line class="visx-line" x1="0" y1="19.16666666666666" x2="1450" y2="19.16666666666666" fill="transparent" shape-rendering="crispEdges" stroke="#000" stroke-width="1" stroke-dasharray="3,3" pointer-events="none"></line></g><path class="visx-linepath" d="M0,114.99999999995437C2.4166666666666665,114.99239417986756,4.833333333333334,114.98478835978077,7.25,114.97718253968254C9.666666666666666,114.96957671958432,12.083333333333334,114.9619708994709,14.5,114.95436507936508C16.916666666666668,114.94675925925925,19.333333333333332,114.93915343915344,21.75,114.93154761904762C24.166666666666668,114.9239417989418,26.583333333333332,114.91633597883599,29,114.90873015873017C31.416666666666668,114.90112433862434,33.833333333333336,114.89351851851852,36.25,114.8859126984127C38.666666666666664,114.87830687830687,41.083333333333336,114.87070105820106,43.5,114.86309523809524C45.91666666666667,114.85548941798942,48.333333333333336,114.8478835978836,50.75000000000001,114.84027777777777C53.16666666666667,114.83267195767195,55.583333333333336,114.82506613756614,58,114.81746031746032C60.416666666666664,114.8098544973545,62.833333333333336,114.80224867724868,65.25,114.79464285714286C67.66666666666667,114.78703703703704,70.08333333333333,114.77943121693121,72.5,114.77182539682539C74.91666666666667,114.76421957671957,77.33333333333333,114.75661375661376,79.75,114.74900793650794C82.16666666666667,114.74140211640211,84.58333333333333,114.7337962962963,87,114.72619047619048C89.41666666666667,114.71858465608466,91.83333333333333,114.71097883597884,94.25,114.70337301587301C96.66666666666667,114.69576719576719,99.08333333333334,114.68816137566138,101.50000000000001,114.68055555555556C103.91666666666667,114.67294973544973,106.33333333333334,114.66534391534393,108.75,114.6577380952381C111.16666666666667,114.65013227513228,113.58333333333333,114.64252645502646,116,114.63492063492063C118.41666666666667,114.62731481481481,120.83333333333334,114.619708994709,123.25000000000001,114.61210317460318C125.66666666666667,114.60449735449735,128.08333333333334,114.59689153439155,130.5,114.58928571428572C132.91666666666666,114.5816798941799,135.33333333333334,114.57407407407408,137.75,114.56646825396825C140.16666666666666,114.55886243386243,142.58333333333334,114.55125661375662,145,114.5436507936508C147.41666666666666,114.53604497354497,149.83333333333334,114.52843915343915,152.25,114.52083333333333C154.66666666666666,114.5132275132275,157.08333333333334,114.5056216931217,159.5,114.49801587301587C161.91666666666666,114.49041005291005,164.33333333333334,114.48280423280424,166.75,114.47519841269842C169.16666666666666,114.4675925925926,171.58333333333334,114.45998677248677,174,114.45238095238095C176.41666666666666,114.44477513227513,178.83333333333334,114.43716931216932,181.25,114.4295634920635C183.66666666666666,114.42195767195767,186.08333333333334,114.41435185185186,188.5,114.40674603174604C190.91666666666666,114.39914021164022,193.33333333333334,114.39153439153439,195.75,114.38392857142857C198.16666666666669,114.37632275132275,200.58333333333334,114.36871693121694,203.00000000000003,114.36111111111111C205.41666666666669,114.35350529100529,207.83333333333331,114.34589947089948,210.24999999999997,114.33829365079366C212.66666666666666,114.33068783068784,215.08333333333331,114.32308201058201,217.5,114.31547619047619C219.91666666666666,114.30787037037037,222.33333333333334,114.30026455026456,224.75,114.29265873015873C227.16666666666666,114.28505291005291,229.58333333333334,114.27744708994709,232,114.26984126984127C234.41666666666666,114.26223544973544,236.83333333333334,114.25462962962963,239.25,114.24702380952381C241.66666666666669,114.23941798941799,244.08333333333334,114.23181216931218,246.50000000000003,114.22420634920636C248.91666666666669,114.21660052910053,251.33333333333331,114.20899470899471,253.74999999999997,114.20138888888889C256.16666666666663,114.19378306878306,258.5833333333333,114.18617724867725,261,114.17857142857143C263.4166666666667,114.17096560846561,265.8333333333333,114.1633597883598,268.25,114.15575396825398C270.6666666666667,114.14814814814815,273.0833333333333,114.14054232804233,275.5,114.1329365079365C277.9166666666667,114.12533068783068,280.3333333333333,114.11772486772487,282.75,114.11011904761905C285.1666666666667,114.10251322751323,287.5833333333333,114.09490740740742,290,114.0873015873016C292.4166666666667,114.07969576719577,294.8333333333333,114.07208994708995,297.25,114.06448412698413C299.6666666666667,114.0568783068783,302.0833333333333,114.0492724867725,304.5,114.04166666666667C306.9166666666667,114.03406084656085,309.3333333333333,114.02645502645504,311.75,114.01884920634922C314.1666666666667,114.0112433862434,316.5833333333333,114.00363756613757,319,113.99603174603175C321.4166666666667,113.98842592592592,323.8333333333333,113.98082010582011,326.25,113.97321428571429C328.6666666666667,113.96560846560847,331.0833333333333,113.95800264550265,333.5,113.95039682539682C335.9166666666667,113.942791005291,338.3333333333333,113.93518518518519,340.75,113.92757936507937C343.1666666666667,113.91997354497354,345.5833333333333,113.91236772486774,348,113.90476190476191C350.4166666666667,113.89715608465609,352.8333333333333,113.88955026455027,355.25,113.88194444444444C357.6666666666667,113.87433862433862,360.0833333333333,113.86673280423281,362.5,113.85912698412699C364.9166666666667,113.85152116402116,367.3333333333333,113.84391534391536,369.75,113.83630952380953C372.1666666666667,113.82870370370371,374.5833333333333,113.82109788359789,377,113.81349206349206C379.4166666666667,113.80588624338624,381.8333333333333,113.79828042328043,384.25,113.79067460317461C386.6666666666667,113.78306878306879,389.0833333333333,113.77546296296298,391.5,113.76785714285715C393.9166666666667,113.76025132275133,396.33333333333337,113.7526455026455,398.75000000000006,113.74503968253968C401.16666666666674,113.73743386243386,403.58333333333337,113.72982804232805,406.00000000000006,113.72222222222223C408.4166666666667,113.7146164021164,410.8333333333333,113.7070105820106,413.24999999999994,113.69940476190477C415.66666666666663,113.69179894179895,418.08333333333326,113.68419312169313,420.49999999999994,113.6765873015873C422.91666666666663,113.66898148148148,425.3333333333333,113.66137566137567,427.75,113.65376984126985C430.1666666666667,113.64616402116403,432.5833333333333,113.6385582010582,435,113.63095238095238C437.4166666666667,113.62334656084656,439.8333333333333,113.61574074074075,442.25,113.60813492063492C444.6666666666667,113.6005291005291,447.0833333333333,113.59292328042329,449.5,113.58531746031747C451.9166666666667,113.57771164021165,454.3333333333333,113.57010582010582,456.75,113.5625C459.1666666666667,113.55489417989418,461.5833333333333,113.54728835978837,464,113.53968253968254C466.4166666666667,113.53207671957672,468.8333333333333,113.52447089947091,471.25,113.51686507936509C473.6666666666667,113.50925925925927,476.0833333333333,113.50165343915344,478.5,113.49404761904762C480.9166666666667,113.4864417989418,483.33333333333337,113.47883597883599,485.75000000000006,113.47123015873017C488.16666666666674,113.46362433862434,490.58333333333337,113.45601851851853,493.00000000000006,113.44841269841271C495.4166666666667,113.44080687830689,497.8333333333333,113.43320105820106,500.24999999999994,113.42559523809524C502.66666666666663,113.41798941798942,505.08333333333326,113.41038359788361,507.49999999999994,113.40277777777779C509.91666666666663,113.39517195767196,512.3333333333333,113.38756613756614,514.75,113.37996031746032C517.1666666666666,113.3723544973545,519.5833333333334,113.36474867724868,522,113.35714285714286C524.4166666666666,113.34953703703704,526.8333333333334,113.34193121693123,529.25,113.3343253968254C531.6666666666666,113.32671957671958,534.0833333333334,113.31911375661376,536.5,113.31150793650794C538.9166666666666,113.30390211640211,541.3333333333334,113.2962962962963,543.75,113.28869047619048C546.1666666666666,113.28108465608466,548.5833333333334,113.27347883597885,551,113.26587301587303C553.4166666666666,113.2582671957672,555.8333333333334,113.25066137566138,558.25,113.24305555555556C560.6666666666666,113.23544973544973,563.0833333333334,113.22784391534393,565.5,113.2202380952381C567.9166666666666,113.21263227513228,570.3333333333334,113.20502645502646,572.75,113.19742063492063C575.1666666666666,113.18981481481481,577.5833333333334,113.18220899470899,580,113.17460317460316C582.4166666666666,113.16699735449734,584.8333333333334,113.15939153439155,587.25,113.15178571428572C589.6666666666666,113.1441798941799,592.0833333333334,113.13657407407408,594.5,113.12896825396825C596.9166666666666,113.12136243386243,599.3333333333334,113.1137566137566,601.75,113.10615079365078C604.1666666666666,113.09854497354496,606.5833333333334,113.09093915343915,609,113.08333333333333C611.4166666666666,113.0757275132275,613.8333333333334,113.0681216931217,616.25,113.06051587301587C618.6666666666666,113.05291005291005,621.0833333333334,113.04530423280423,623.5,113.0376984126984C625.9166666666666,113.03009259259258,628.3333333333334,113.02248677248677,630.75,113.01488095238095C633.1666666666666,113.00727513227513,635.5833333333334,112.9996693121693,638,112.99206349206348C640.4166666666666,112.98445767195766,642.8333333333334,112.97685185185185,645.25,112.96924603174602C647.6666666666666,112.9616402116402,650.0833333333334,112.95403439153439,652.5,112.94642857142857C654.9166666666666,112.93882275132275,657.3333333333334,112.93121693121692,659.75,112.9236111111111C662.1666666666666,112.91600529100528,664.5833333333334,112.90839947089947,667,112.90079365079364C669.4166666666666,112.89318783068782,671.8333333333334,112.88558201058201,674.25,112.87797619047619C676.6666666666666,112.87037037037037,679.0833333333334,112.86276455026454,681.5,112.85515873015872C683.9166666666666,112.8475529100529,686.3333333333334,112.83994708994709,688.75,112.83234126984127C691.1666666666666,112.82473544973544,693.5833333333334,112.81712962962963,696,112.80952380952381C698.4166666666666,112.80191798941799,700.8333333333334,112.79431216931216,703.25,112.78670634920634C705.6666666666666,112.77910052910052,708.0833333333334,112.77149470899471,710.5,112.76388888888889C712.9166666666666,112.75628306878306,715.3333333333334,112.74867724867725,717.75,112.74107142857143C720.1666666666666,112.73346560846561,722.5833333333334,112.72585978835978,725,112.71825396825396C727.4166666666666,112.71064814814814,729.8333333333334,112.70304232804233,732.25,112.6954365079365C734.6666666666666,112.68783068783068,737.0833333333334,112.68022486772486,739.5,112.67261904761904C741.9166666666666,112.66501322751321,744.3333333333334,112.6574074074074,746.75,112.64980158730158C749.1666666666666,112.64219576719576,751.5833333333334,112.63458994708995,754,112.62698412698413C756.4166666666666,112.6193783068783,758.8333333333334,112.61177248677248,761.25,112.60416666666666C763.6666666666666,112.59656084656083,766.0833333333334,112.58895502645503,768.5,112.5813492063492C770.9166666666666,112.57374338624338,773.3333333333334,112.56613756613757,775.75,112.55853174603175C778.1666666666666,112.55092592592592,780.5833333333334,112.5433201058201,783,112.53571428571428C785.4166666666667,112.52810846560845,787.8333333333334,112.52050264550265,790.2500000000001,112.51289682539682C792.6666666666667,112.505291005291,795.0833333333335,112.49768518518519,797.5000000000001,112.49007936507937C799.9166666666667,112.48247354497354,802.3333333333335,112.47486772486772,804.7500000000001,112.4672619047619C807.1666666666667,112.45965608465607,809.5833333333335,112.45205026455027,812.0000000000001,112.44444444444444C814.4166666666667,112.43683862433862,816.8333333333333,112.4292328042328,819.2499999999999,112.42162698412697C821.6666666666665,112.41402116402115,824.0833333333333,112.40641534391534,826.4999999999999,112.39880952380952C828.9166666666665,112.3912037037037,831.3333333333333,112.38359788359789,833.7499999999999,112.37599206349206C836.1666666666665,112.36838624338624,838.5833333333333,112.36078042328042,840.9999999999999,112.3531746031746C843.4166666666666,112.34556878306877,845.8333333333333,112.33796296296296,848.25,112.33035714285714C850.6666666666666,112.32275132275132,853.0833333333334,112.3151455026455,855.5,112.30753968253968C857.9166666666666,112.29993386243386,860.3333333333334,112.29232804232804,862.75,112.28472222222221C865.1666666666666,112.27711640211639,867.5833333333334,112.26951058201058,870,112.26190476190476C872.4166666666666,112.25429894179894,874.8333333333334,112.24669312169313,877.25,112.2390873015873C879.6666666666666,112.23148148148148,882.0833333333334,112.22387566137566,884.5,112.21626984126983C886.9166666666666,112.20866402116401,889.3333333333334,112.2010582010582,891.75,112.19345238095238C894.1666666666666,112.18584656084656,896.5833333333334,112.17824074074075,899,112.17063492063492C901.4166666666666,112.1630291005291,903.8333333333334,112.15542328042328,906.25,112.14781746031746C908.6666666666666,112.14021164021163,911.0833333333334,112.13260582010582,913.5,112.125C915.9166666666666,112.11739417989418,918.3333333333334,112.10978835978835,920.75,112.10218253968253C923.1666666666666,112.09457671957671,925.5833333333334,112.0869708994709,928,112.07936507936508C930.4166666666666,112.07175925925925,932.8333333333334,112.06415343915344,935.25,112.05654761904762C937.6666666666666,112.0489417989418,940.0833333333334,112.04133597883597,942.5,112.03373015873015C944.9166666666666,112.02612433862433,947.3333333333334,112.01851851851852,949.75,112.0109126984127C952.1666666666666,112.00330687830687,954.5833333333334,111.99570105820106,957,111.98809523809524C959.4166666666666,111.98048941798942,961.8333333333334,111.9728835978836,964.25,111.96527777777777C966.6666666666667,111.95767195767195,969.0833333333334,111.95006613756614,971.5000000000001,111.94246031746032C973.9166666666667,111.9348544973545,976.3333333333335,111.92724867724868,978.7500000000001,111.91964285714286C981.1666666666667,111.91203703703704,983.5833333333335,111.90443121693121,986.0000000000001,111.89682539682539C988.4166666666667,111.88921957671957,990.8333333333335,111.88161375661376,993.2500000000001,111.87400793650794C995.6666666666667,111.86640211640211,998.0833333333333,111.8587962962963,1000.4999999999999,111.85119047619048C1002.9166666666665,111.84358465608466,1005.3333333333333,111.83597883597884,1007.7499999999999,111.82837301587301C1010.1666666666665,111.82076719576719,1012.5833333333333,111.81316137566138,1014.9999999999999,111.80555555555556C1017.4166666666665,111.79794973544973,1019.8333333333333,111.79034391534391,1022.2499999999999,111.78273809523809C1024.6666666666665,111.77513227513226,1027.0833333333333,111.76752645502646,1029.5,111.75992063492063C1031.9166666666667,111.75231481481481,1034.3333333333333,111.744708994709,1036.75,111.73710317460318C1039.1666666666667,111.72949735449735,1041.5833333333333,111.72189153439153,1044,111.71428571428571C1046.4166666666667,111.70667989417989,1048.8333333333333,111.69907407407408,1051.25,111.69146825396825C1053.6666666666667,111.68386243386243,1056.0833333333333,111.67625661375662,1058.5,111.6686507936508C1060.9166666666667,111.66104497354497,1063.3333333333333,111.65343915343915,1065.75,111.64583333333333C1068.1666666666667,111.6382275132275,1070.5833333333333,111.6306216931217,1073,111.62301587301587C1075.4166666666667,111.61541005291005,1077.8333333333333,111.60780423280424,1080.25,111.60019841269842C1082.6666666666667,111.5925925925926,1085.0833333333333,111.58498677248677,1087.5,111.57738095238095C1089.9166666666667,111.56977513227513,1092.3333333333333,111.56216931216932,1094.75,111.5545634920635C1097.1666666666667,111.54695767195767,1099.5833333333333,111.53935185185185,1102,111.53174603174602C1104.4166666666667,111.5241402116402,1106.8333333333333,111.51653439153439,1109.25,111.50892857142857C1111.6666666666667,111.50132275132275,1114.0833333333333,111.49371693121694,1116.5,111.48611111111111C1118.9166666666667,111.47850529100529,1121.3333333333333,111.47089947089947,1123.75,111.46329365079364C1126.1666666666667,111.45568783068782,1128.5833333333333,111.44808201058201,1131,111.44047619047619C1133.4166666666667,111.43287037037037,1135.8333333333333,111.42526455026456,1138.25,111.41765873015873C1140.6666666666667,111.41005291005291,1143.0833333333333,111.40244708994709,1145.5,111.39484126984127C1147.9166666666667,111.38723544973544,1150.3333333333333,111.37962962962963,1152.75,111.37202380952381C1155.1666666666667,111.36441798941799,1157.5833333333333,111.35681216931218,1160,111.34920634920636C1162.4166666666667,111.34160052910053,1164.8333333333333,111.33399470899471,1167.25,111.32638888888889C1169.6666666666667,111.31878306878306,1172.0833333333333,111.31117724867725,1174.5,111.30357142857143C1176.9166666666667,111.29596560846561,1179.3333333333333,111.2883597883598,1181.75,111.28075396825398C1184.1666666666667,111.27314814814815,1186.5833333333333,111.26554232804233,1189,111.2579365079365C1191.4166666666667,111.25033068783068,1193.8333333333333,111.24272486772487,1196.25,111.23511904761905C1198.6666666666667,111.22751322751323,1201.0833333333333,111.2199074074074,1203.5,111.21230158730158C1205.9166666666667,111.20469576719576,1208.3333333333333,111.19708994708995,1210.75,111.18948412698413C1213.1666666666667,111.1818783068783,1215.5833333333333,111.1818783068783,1218,111.16666666666667C1220.4166666666667,111.15145502645504,1222.8333333333333,109.32986111111111,1225.25,108.41145833333334C1227.6666666666667,107.49305555555557,1230.0833333333333,106.57465277777777,1232.5,105.65625C1234.9166666666667,104.73784722222223,1237.3333333333333,103.81944444444446,1239.75,102.90104166666667C1242.1666666666667,101.98263888888889,1244.5833333333333,101.06423611111111,1247,100.14583333333333C1249.4166666666667,99.22743055555554,1251.8333333333333,98.30902777777777,1254.25,97.390625C1256.6666666666667,96.47222222222223,1259.0833333333333,95.55381944444443,1261.5,94.63541666666666C1263.9166666666667,93.71701388888889,1266.3333333333333,92.7986111111111,1268.75,91.88020833333333C1271.1666666666667,90.96180555555556,1273.5833333333333,90.04340277777777,1276,89.125C1278.4166666666667,88.20659722222223,1280.8333333333333,87.28819444444443,1283.25,86.36979166666666C1285.6666666666667,85.45138888888889,1288.0833333333333,84.5329861111111,1290.5,83.61458333333333C1292.9166666666667,82.69618055555556,1295.3333333333333,81.77777777777777,1297.75,80.859375C1300.1666666666667,79.94097222222223,1302.5833333333333,79.02256944444444,1305,78.10416666666667C1307.4166666666667,77.1857638888889,1309.8333333333333,76.26736111111111,1312.25,75.34895833333334C1314.6666666666667,74.43055555555557,1317.0833333333333,73.51215277777777,1319.5,72.59375C1321.9166666666667,71.67534722222223,1324.3333333333333,70.75694444444446,1326.75,69.83854166666667C1329.1666666666667,68.92013888888889,1331.5833333333333,68.00173611111111,1334,67.08333333333333C1336.4166666666667,66.16493055555554,1338.8333333333333,65.24652777777777,1341.25,64.328125C1343.6666666666667,63.40972222222222,1346.0833333333333,62.49131944444444,1348.5,61.572916666666664C1350.9166666666667,60.654513888888886,1353.3333333333333,59.736111111111114,1355.75,58.817708333333336C1358.1666666666667,57.89930555555556,1360.5833333333333,56.980902777777786,1363,56.06250000000001C1365.4166666666667,55.14409722222223,1367.8333333333333,54.22569444444444,1370.25,53.307291666666664C1372.6666666666667,52.388888888888886,1375.0833333333333,51.470486111111114,1377.5,50.552083333333336C1379.9166666666667,49.63368055555556,1382.3333333333333,48.71527777777778,1384.75,47.796875C1387.1666666666667,46.87847222222222,1389.5833333333333,45.96006944444445,1392,45.04166666666667C1394.4166666666667,44.12326388888889,1396.8333333333333,43.20486111111111,1399.25,42.28645833333333C1401.6666666666667,41.36805555555555,1404.0833333333333,40.44965277777778,1406.5,39.53125C1408.9166666666667,38.61284722222222,1411.3333333333333,37.69444444444445,1413.75,36.77604166666667C1416.1666666666667,35.85763888888889,1418.5833333333333,34.93923611111111,1421,34.02083333333333C1423.4166666666667,33.10243055555555,1425.8333333333333,32.18402777777777,1428.25,31.265624999999996C1430.6666666666667,30.34722222222222,1433.0833333333333,29.428819444444443,1435.5,28.510416666666668C1437.9166666666667,27.592013888888893,1440.3333333333333,26.673611111111118,1442.75,25.75520833333334C1445.1666666666667,24.83680555555556,1447.5833333333333,23.91840277777778,1450,22.999999999999996" fill="transparent" stroke-linecap="round" stroke="#B6509E" stroke-width="2"></path><path class="visx-linepath" d="M0,105.41666666664385C2.4166666666666665,105.41286375660044,4.833333333333334,105.40906084655704,7.25,105.40525793650794C9.666666666666666,105.40145502645883,12.083333333333334,105.39765211640211,14.5,105.3938492063492C16.916666666666668,105.39004629629629,19.333333333333332,105.38624338624338,21.75,105.38244047619047C24.166666666666668,105.37863756613756,26.583333333333332,105.37483465608466,29,105.37103174603175C31.416666666666668,105.36722883597884,33.833333333333336,105.36342592592592,36.25,105.35962301587301C38.666666666666664,105.3558201058201,41.083333333333336,105.35201719576719,43.5,105.34821428571428C45.91666666666667,105.34441137566137,48.333333333333336,105.34060846560847,50.75000000000001,105.33680555555556C53.16666666666667,105.33300264550265,55.583333333333336,105.32919973544973,58,105.32539682539682C60.416666666666664,105.32159391534391,62.833333333333336,105.317791005291,65.25,105.31398809523809C67.66666666666667,105.31018518518518,70.08333333333333,105.30638227513228,72.5,105.30257936507937C74.91666666666667,105.29877645502646,77.33333333333333,105.29497354497354,79.75,105.29117063492063C82.16666666666667,105.28736772486772,84.58333333333333,105.28356481481481,87,105.2797619047619C89.41666666666667,105.27595899470899,91.83333333333333,105.27215608465609,94.25,105.26835317460318C96.66666666666667,105.26455026455027,99.08333333333334,105.26074735449735,101.50000000000001,105.25694444444444C103.91666666666667,105.25314153439153,106.33333333333334,105.24933862433862,108.75,105.24553571428571C111.16666666666667,105.2417328042328,113.58333333333333,105.23792989417989,116,105.23412698412697C118.41666666666667,105.23032407407406,120.83333333333334,105.22652116402116,123.25000000000001,105.22271825396825C125.66666666666667,105.21891534391534,128.08333333333334,105.21511243386243,130.5,105.21130952380952C132.91666666666666,105.2075066137566,135.33333333333334,105.2037037037037,137.75,105.19990079365078C140.16666666666666,105.19609788359787,142.58333333333334,105.19229497354497,145,105.18849206349206C147.41666666666666,105.18468915343915,149.83333333333334,105.18088624338624,152.25,105.17708333333333C154.66666666666666,105.17328042328042,157.08333333333334,105.1694775132275,159.5,105.1656746031746C161.91666666666666,105.16187169312168,164.33333333333334,105.15806878306879,166.75,105.15426587301587C169.16666666666666,105.15046296296296,171.58333333333334,105.14666005291005,174,105.14285714285714C176.41666666666666,105.13905423280423,178.83333333333334,105.13525132275132,181.25,105.1314484126984C183.66666666666666,105.12764550264549,186.08333333333334,105.1238425925926,188.5,105.12003968253968C190.91666666666666,105.11623677248677,193.33333333333334,105.11243386243386,195.75,105.10863095238095C198.16666666666669,105.10482804232804,200.58333333333334,105.10102513227513,203.00000000000003,105.09722222222221C205.41666666666669,105.0934193121693,207.83333333333331,105.0896164021164,210.24999999999997,105.0858134920635C212.66666666666666,105.08201058201058,215.08333333333331,105.07820767195767,217.5,105.07440476190476C219.91666666666666,105.07060185185185,222.33333333333334,105.06679894179894,224.75,105.06299603174602C227.16666666666666,105.05919312169311,229.58333333333334,105.05539021164022,232,105.0515873015873C234.41666666666666,105.04778439153439,236.83333333333334,105.04398148148148,239.25,105.04017857142857C241.66666666666669,105.03637566137566,244.08333333333334,105.03257275132275,246.50000000000003,105.02876984126983C248.91666666666669,105.02496693121692,251.33333333333331,105.02116402116403,253.74999999999997,105.01736111111111C256.16666666666663,105.0135582010582,258.5833333333333,105.00975529100529,261,105.00595238095238C263.4166666666667,105.00214947089947,265.8333333333333,104.99834656084656,268.25,104.99454365079364C270.6666666666667,104.99074074074073,273.0833333333333,104.98693783068784,275.5,104.98313492063492C277.9166666666667,104.97933201058201,280.3333333333333,104.9755291005291,282.75,104.97172619047619C285.1666666666667,104.96792328042328,287.5833333333333,104.96412037037037,290,104.96031746031746C292.4166666666667,104.95651455026454,294.8333333333333,104.95271164021165,297.25,104.94890873015873C299.6666666666667,104.94510582010582,302.0833333333333,104.94130291005291,304.5,104.9375C306.9166666666667,104.93369708994709,309.3333333333333,104.92989417989418,311.75,104.92609126984127C314.1666666666667,104.92228835978835,316.5833333333333,104.91848544973544,319,104.91468253968253C321.4166666666667,104.91087962962962,323.8333333333333,104.90707671957672,326.25,104.90327380952381C328.6666666666667,104.8994708994709,331.0833333333333,104.89566798941799,333.5,104.89186507936508C335.9166666666667,104.88806216931216,338.3333333333333,104.88425925925925,340.75,104.88045634920634C343.1666666666667,104.87665343915343,345.5833333333333,104.87285052910053,348,104.86904761904762C350.4166666666667,104.86524470899471,352.8333333333333,104.8614417989418,355.25,104.85763888888889C357.6666666666667,104.85383597883597,360.0833333333333,104.85003306878306,362.5,104.84623015873015C364.9166666666667,104.84242724867724,367.3333333333333,104.83862433862434,369.75,104.83482142857143C372.1666666666667,104.83101851851852,374.5833333333333,104.82721560846561,377,104.8234126984127C379.4166666666667,104.81960978835978,381.8333333333333,104.81580687830687,384.25,104.81200396825396C386.6666666666667,104.80820105820105,389.0833333333333,104.80439814814815,391.5,104.80059523809524C393.9166666666667,104.79679232804233,396.33333333333337,104.79298941798942,398.75000000000006,104.7891865079365C401.16666666666674,104.7853835978836,403.58333333333337,104.78158068783068,406.00000000000006,104.77777777777777C408.4166666666667,104.77397486772486,410.8333333333333,104.77017195767196,413.24999999999994,104.76636904761905C415.66666666666663,104.76256613756614,418.08333333333326,104.75876322751323,420.49999999999994,104.75496031746032C422.91666666666663,104.7511574074074,425.3333333333333,104.7473544973545,427.75,104.74355158730158C430.1666666666667,104.73974867724867,432.5833333333333,104.73594576719577,435,104.73214285714286C437.4166666666667,104.72833994708995,439.8333333333333,104.72453703703704,442.25,104.72073412698413C444.6666666666667,104.71693121693121,447.0833333333333,104.7131283068783,449.5,104.70932539682539C451.9166666666667,104.70552248677248,454.3333333333333,104.70171957671958,456.75,104.69791666666667C459.1666666666667,104.69411375661376,461.5833333333333,104.69031084656085,464,104.68650793650794C466.4166666666667,104.68270502645503,468.8333333333333,104.67890211640211,471.25,104.6750992063492C473.6666666666667,104.67129629629629,476.0833333333333,104.6674933862434,478.5,104.66369047619048C480.9166666666667,104.65988756613757,483.33333333333337,104.65608465608466,485.75000000000006,104.65228174603175C488.16666666666674,104.64847883597884,490.58333333333337,104.64467592592592,493.00000000000006,104.64087301587301C495.4166666666667,104.6370701058201,497.8333333333333,104.63326719576719,500.24999999999994,104.62946428571428C502.66666666666663,104.62566137566137,505.08333333333326,104.62185846560847,507.49999999999994,104.61805555555556C509.91666666666663,104.61425264550265,512.3333333333333,104.61044973544973,514.75,104.60664682539682C517.1666666666666,104.60284391534391,519.5833333333334,104.599041005291,522,104.59523809523809C524.4166666666666,104.59143518518518,526.8333333333334,104.58763227513228,529.25,104.58382936507937C531.6666666666666,104.58002645502646,534.0833333333334,104.57622354497354,536.5,104.57242063492063C538.9166666666666,104.56861772486772,541.3333333333334,104.56481481481481,543.75,104.5610119047619C546.1666666666666,104.55720899470899,548.5833333333334,104.55340608465609,551,104.54960317460318C553.4166666666666,104.54580026455027,555.8333333333334,104.54199735449735,558.25,104.53819444444444C560.6666666666666,104.53439153439153,563.0833333333334,104.53058862433862,565.5,104.52678571428571C567.9166666666666,104.5229828042328,570.3333333333334,104.5191798941799,572.75,104.51537698412699C575.1666666666666,104.51157407407408,577.5833333333334,104.50777116402116,580,104.50396825396825C582.4166666666666,104.50016534391534,584.8333333333334,104.49636243386243,587.25,104.49255952380952C589.6666666666666,104.4887566137566,592.0833333333334,104.48495370370371,594.5,104.4811507936508C596.9166666666666,104.47734788359789,599.3333333333334,104.47354497354497,601.75,104.46974206349206C604.1666666666666,104.46593915343915,606.5833333333334,104.46213624338624,609,104.45833333333333C611.4166666666666,104.45453042328042,613.8333333333334,104.45072751322752,616.25,104.44692460317461C618.6666666666666,104.4431216931217,621.0833333333334,104.43931878306879,623.5,104.43551587301587C625.9166666666666,104.43171296296296,628.3333333333334,104.42791005291005,630.75,104.42410714285714C633.1666666666666,104.42030423280423,635.5833333333334,104.41650132275133,638,104.41269841269842C640.4166666666666,104.4088955026455,642.8333333333334,104.4050925925926,645.25,104.40128968253968C647.6666666666666,104.39748677248677,650.0833333333334,104.39368386243386,652.5,104.38988095238095C654.9166666666666,104.38607804232804,657.3333333333334,104.38227513227514,659.75,104.37847222222223C662.1666666666666,104.37466931216932,664.5833333333334,104.3708664021164,667,104.3670634920635C669.4166666666666,104.36326058201058,671.8333333333334,104.35945767195767,674.25,104.35565476190476C676.6666666666666,104.35185185185185,679.0833333333334,104.34804894179894,681.5,104.34424603174602C683.9166666666666,104.34044312169311,686.3333333333334,104.33664021164022,688.75,104.3328373015873C691.1666666666666,104.32903439153439,693.5833333333334,104.32523148148148,696,104.32142857142857C698.4166666666666,104.31762566137566,700.8333333333334,104.31382275132275,703.25,104.31001984126983C705.6666666666666,104.30621693121692,708.0833333333334,104.30241402116403,710.5,104.29861111111111C712.9166666666666,104.2948082010582,715.3333333333334,104.29100529100529,717.75,104.28720238095238C720.1666666666666,104.28339947089947,722.5833333333334,104.27959656084656,725,104.27579365079364C727.4166666666666,104.27199074074073,729.8333333333334,104.26818783068784,732.25,104.26438492063492C734.6666666666666,104.26058201058201,737.0833333333334,104.2567791005291,739.5,104.25297619047619C741.9166666666666,104.24917328042328,744.3333333333334,104.24537037037037,746.75,104.24156746031746C749.1666666666666,104.23776455026454,751.5833333333334,104.23396164021165,754,104.23015873015873C756.4166666666666,104.22635582010582,758.8333333333334,104.22255291005291,761.25,104.21875C763.6666666666666,104.21494708994709,766.0833333333334,104.21114417989418,768.5,104.20734126984127C770.9166666666666,104.20353835978835,773.3333333333334,104.19973544973546,775.75,104.19593253968254C778.1666666666666,104.19212962962963,780.5833333333334,104.18832671957672,783,104.18452380952381C785.4166666666667,104.1807208994709,787.8333333333334,104.17691798941799,790.2500000000001,104.17311507936508C792.6666666666667,104.16931216931216,795.0833333333335,104.16550925925927,797.5000000000001,104.16170634920636C799.9166666666667,104.15790343915344,802.3333333333335,104.15410052910053,804.7500000000001,104.15029761904762C807.1666666666667,104.14649470899471,809.5833333333335,104.1426917989418,812.0000000000001,104.13888888888889C814.4166666666667,104.13508597883597,816.8333333333333,104.13128306878308,819.2499999999999,104.12748015873017C821.6666666666665,104.12367724867725,824.0833333333333,104.11987433862434,826.4999999999999,104.11607142857143C828.9166666666665,104.11226851851852,831.3333333333333,104.10846560846561,833.7499999999999,104.1046626984127C836.1666666666665,104.10085978835978,838.5833333333333,104.09705687830689,840.9999999999999,104.09325396825398C843.4166666666666,104.08945105820106,845.8333333333333,104.08564814814815,848.25,104.08184523809524C850.6666666666666,104.07804232804233,853.0833333333334,104.07423941798942,855.5,104.0704365079365C857.9166666666666,104.0666335978836,860.3333333333334,104.06283068783068,862.75,104.05902777777777C865.1666666666666,104.05522486772486,867.5833333333334,104.05142195767196,870,104.04761904761905C872.4166666666666,104.04381613756614,874.8333333333334,104.04001322751323,877.25,104.03621031746032C879.6666666666666,104.0324074074074,882.0833333333334,104.0286044973545,884.5,104.02480158730158C886.9166666666666,104.02099867724867,889.3333333333334,104.01719576719577,891.75,104.01339285714286C894.1666666666666,104.00958994708995,896.5833333333334,104.00578703703704,899,104.00198412698413C901.4166666666666,103.99818121693121,903.8333333333334,103.9943783068783,906.25,103.99057539682539C908.6666666666666,103.98677248677248,911.0833333333334,103.98296957671958,913.5,103.97916666666667C915.9166666666666,103.97536375661376,918.3333333333334,103.97156084656085,920.75,103.96775793650794C923.1666666666666,103.96395502645503,925.5833333333334,103.96015211640211,928,103.9563492063492C930.4166666666666,103.95254629629629,932.8333333333334,103.9487433862434,935.25,103.94494047619048C937.6666666666666,103.94113756613757,940.0833333333334,103.93733465608466,942.5,103.93353174603175C944.9166666666666,103.92972883597884,947.3333333333334,103.92592592592592,949.75,103.92212301587301C952.1666666666666,103.9183201058201,954.5833333333334,103.9145171957672,957,103.91071428571429C959.4166666666666,103.90691137566138,961.8333333333334,103.90310846560847,964.25,103.89930555555556C966.6666666666667,103.89550264550265,969.0833333333334,103.89169973544973,971.5000000000001,103.88789682539682C973.9166666666667,103.88409391534391,976.3333333333335,103.88029100529101,978.7500000000001,103.8764880952381C981.1666666666667,103.87268518518519,983.5833333333335,103.86888227513228,986.0000000000001,103.86507936507937C988.4166666666667,103.86127645502646,990.8333333333335,103.85747354497354,993.2500000000001,103.85367063492063C995.6666666666667,103.84986772486772,998.0833333333333,103.84606481481482,1000.4999999999999,103.84226190476191C1002.9166666666665,103.838458994709,1005.3333333333333,103.83465608465609,1007.7499999999999,103.83085317460318C1010.1666666666665,103.82705026455027,1012.5833333333333,103.82324735449735,1014.9999999999999,103.81944444444444C1017.4166666666665,103.81564153439153,1019.8333333333333,103.81183862433863,1022.2499999999999,103.80803571428572C1024.6666666666665,103.80423280423281,1027.0833333333333,103.8004298941799,1029.5,103.79662698412699C1031.9166666666667,103.79282407407408,1034.3333333333333,103.78902116402116,1036.75,103.78521825396825C1039.1666666666667,103.78141534391534,1041.5833333333333,103.77761243386243,1044,103.77380952380952C1046.4166666666667,103.7700066137566,1048.8333333333333,103.76620370370371,1051.25,103.7624007936508C1053.6666666666667,103.75859788359789,1056.0833333333333,103.75479497354497,1058.5,103.75099206349206C1060.9166666666667,103.74718915343915,1063.3333333333333,103.74338624338624,1065.75,103.73958333333333C1068.1666666666667,103.73578042328042,1070.5833333333333,103.73197751322752,1073,103.72817460317461C1075.4166666666667,103.7243716931217,1077.8333333333333,103.72056878306879,1080.25,103.71676587301587C1082.6666666666667,103.71296296296296,1085.0833333333333,103.70916005291005,1087.5,103.70535714285714C1089.9166666666667,103.70155423280423,1092.3333333333333,103.69775132275133,1094.75,103.69394841269842C1097.1666666666667,103.6901455026455,1099.5833333333333,103.6863425925926,1102,103.68253968253968C1104.4166666666667,103.67873677248677,1106.8333333333333,103.67493386243386,1109.25,103.67113095238095C1111.6666666666667,103.66732804232804,1114.0833333333333,103.66352513227514,1116.5,103.65972222222223C1118.9166666666667,103.65591931216932,1121.3333333333333,103.6521164021164,1123.75,103.6483134920635C1126.1666666666667,103.64451058201058,1128.5833333333333,103.64070767195767,1131,103.63690476190476C1133.4166666666667,103.63310185185185,1135.8333333333333,103.62929894179895,1138.25,103.62549603174604C1140.6666666666667,103.62169312169313,1143.0833333333333,103.61789021164022,1145.5,103.6140873015873C1147.9166666666667,103.61028439153439,1150.3333333333333,103.60648148148148,1152.75,103.60267857142857C1155.1666666666667,103.59887566137566,1157.5833333333333,103.59507275132276,1160,103.59126984126985C1162.4166666666667,103.58746693121694,1164.8333333333333,103.58366402116403,1167.25,103.57986111111111C1169.6666666666667,103.5760582010582,1172.0833333333333,103.57225529100529,1174.5,103.56845238095238C1176.9166666666667,103.56464947089947,1179.3333333333333,103.56084656084657,1181.75,103.55704365079366C1184.1666666666667,103.55324074074075,1186.5833333333333,103.54943783068784,1189,103.54563492063492C1191.4166666666667,103.54183201058201,1193.8333333333333,103.5380291005291,1196.25,103.53422619047619C1198.6666666666667,103.53042328042328,1201.0833333333333,103.52662037037038,1203.5,103.52281746031747C1205.9166666666667,103.51901455026456,1208.3333333333333,103.51521164021165,1210.75,103.51140873015873C1213.1666666666667,103.50760582010582,1215.5833333333333,103.50760582010582,1218,103.5C1220.4166666666667,103.49239417989418,1222.8333333333333,101.66319444444443,1225.25,100.74479166666666C1227.6666666666667,99.82638888888889,1230.0833333333333,98.9079861111111,1232.5,97.98958333333333C1234.9166666666667,97.07118055555556,1237.3333333333333,96.15277777777777,1239.75,95.234375C1242.1666666666667,94.31597222222223,1244.5833333333333,93.39756944444444,1247,92.47916666666667C1249.4166666666667,91.5607638888889,1251.8333333333333,90.64236111111111,1254.25,89.72395833333334C1256.6666666666667,88.80555555555557,1259.0833333333333,87.88715277777777,1261.5,86.96875C1263.9166666666667,86.05034722222223,1266.3333333333333,85.13194444444446,1268.75,84.21354166666667C1271.1666666666667,83.29513888888889,1273.5833333333333,82.37673611111111,1276,81.45833333333333C1278.4166666666667,80.53993055555554,1280.8333333333333,79.62152777777777,1283.25,78.703125C1285.6666666666667,77.78472222222223,1288.0833333333333,76.86631944444446,1290.5,75.94791666666667C1292.9166666666667,75.02951388888889,1295.3333333333333,74.11111111111111,1297.75,73.19270833333333C1300.1666666666667,72.27430555555554,1302.5833333333333,71.35590277777777,1305,70.4375C1307.4166666666667,69.51909722222223,1309.8333333333333,68.60069444444446,1312.25,67.68229166666667C1314.6666666666667,66.76388888888889,1317.0833333333333,65.84548611111111,1319.5,64.92708333333333C1321.9166666666667,64.00868055555554,1324.3333333333333,63.09027777777778,1326.75,62.171875C1329.1666666666667,61.25347222222222,1331.5833333333333,60.33506944444445,1334,59.41666666666667C1336.4166666666667,58.49826388888889,1338.8333333333333,57.57986111111111,1341.25,56.66145833333333C1343.6666666666667,55.74305555555555,1346.0833333333333,54.82465277777779,1348.5,53.906250000000014C1350.9166666666667,52.987847222222236,1353.3333333333333,52.06944444444445,1355.75,51.15104166666667C1358.1666666666667,50.23263888888889,1360.5833333333333,49.31423611111111,1363,48.39583333333333C1365.4166666666667,47.47743055555555,1367.8333333333333,46.55902777777778,1370.25,45.640625C1372.6666666666667,44.72222222222222,1375.0833333333333,43.80381944444444,1377.5,42.885416666666664C1379.9166666666667,41.967013888888886,1382.3333333333333,41.048611111111114,1384.75,40.130208333333336C1387.1666666666667,39.21180555555556,1389.5833333333333,38.29340277777777,1392,37.37499999999999C1394.4166666666667,36.456597222222214,1396.8333333333333,35.53819444444444,1399.25,34.619791666666664C1401.6666666666667,33.701388888888886,1404.0833333333333,32.782986111111114,1406.5,31.864583333333336C1408.9166666666667,30.94618055555556,1411.3333333333333,30.027777777777782,1413.75,29.109375000000004C1416.1666666666667,28.190972222222225,1418.5833333333333,27.27256944444444,1421,26.35416666666666C1423.4166666666667,25.435763888888882,1425.8333333333333,24.517361111111107,1428.25,23.598958333333332C1430.6666666666667,22.680555555555557,1433.0833333333333,21.76215277777778,1435.5,20.843750000000004C1437.9166666666667,19.92534722222223,1440.3333333333333,19.00694444444445,1442.75,18.08854166666667C1445.1666666666667,17.170138888888893,1447.5833333333333,16.25173611111111,1450,15.33333333333333" fill="transparent" stroke-linecap="round" stroke="#E7C6DF" stroke-width="2"></path><g class="visx-group visx-axis visx-axis-bottom" transform="translate(0, 115)"><g class="visx-group visx-axis-tick" transform="translate(0, 0)"><line class="visx-line" x1="0" y1="0" x2="0" y2="8" fill="transparent" shape-rendering="crispEdges" stroke="#000" stroke-width="0" stroke-linecap="square"></line><svg x="0" y="0" font-size="10" style="overflow:visible"><text transform="" x="0" y="18" fill="#000" font-size="10" text-anchor="middle"><tspan x="0" dy="0em">0%</tspan></text></svg></g><g class="visx-group visx-axis-tick" transform="translate(0, 0)"><line class="visx-line" x1="362.5" y1="0" x2="362.5" y2="8" fill="transparent" shape-rendering="crispEdges" stroke="#000" stroke-width="0" stroke-linecap="square"></line><svg x="0" y="0" font-size="10" style="overflow:visible"><text transform="" x="362.5" y="18" fill="#000" font-size="10" text-anchor="middle"><tspan x="362.5" dy="0em">25%</tspan></text></svg></g><g class="visx-group visx-axis-tick" transform="translate(0, 0)"><line class="visx-line" x1="725" y1="0" x2="725" y2="8" fill="transparent" shape-rendering="crispEdges" stroke="#000" stroke-width="0" stroke-linecap="square"></line><svg x="0" y="0" font-size="10" style="overflow:visible"><text transform="" x="725" y="18" fill="#000" font-size="10" text-anchor="middle"><tspan x="725" dy="0em">50%</tspan></text></svg></g><g class="visx-group visx-axis-tick" transform="translate(0, 0)"><line class="visx-line" x1="1087.5" y1="0" x2="1087.5" y2="8" fill="transparent" shape-rendering="crispEdges" stroke="#000" stroke-width="0" stroke-linecap="square"></line><svg x="0" y="0" font-size="10" style="overflow:visible"><text transform="" x="1087.5" y="18" fill="#000" font-size="10" text-anchor="middle"><tspan x="1087.5" dy="0em">75%</tspan></text></svg></g><g class="visx-group visx-axis-tick" transform="translate(0, 0)"><line class="visx-line" x1="1450" y1="0" x2="1450" y2="8" fill="transparent" shape-rendering="crispEdges" stroke="#000" stroke-width="0" stroke-linecap="square"></line><svg x="0" y="0" font-size="10" style="overflow:visible"><text transform="" x="1450" y="18" fill="#000" font-size="10" text-anchor="middle"><tspan x="1450" dy="0em">100%</tspan></text></svg></g><line class="visx-line visx-axis-line" x1="0.5" y1="0" x2="1450.5" y2="0" fill="transparent" shape-rendering="crispEdges" stroke="#222" stroke-width="0"></line></g><g class="visx-group visx-axis visx-axis-left" transform="translate(0, 0)"><g class="visx-group visx-axis-tick" transform="translate(0, 0)"><line class="visx-line" x1="0" y1="115" x2="-8" y2="115" fill="transparent" shape-rendering="crispEdges" stroke="#222" stroke-width="0" stroke-linecap="square"></line><svg x="-30" y="0" font-size="8" style="overflow:visible"><text transform="" x="-8" y="115" fill="#000" font-size="8" text-anchor="start"><tspan x="-8" dy="0em">0%</tspan></text></svg></g><g class="visx-group visx-axis-tick" transform="translate(0, 0)"><line class="visx-line" x1="0" y1="67.08333333333333" x2="-8" y2="67.08333333333333" fill="transparent" shape-rendering="crispEdges" stroke="#222" stroke-width="0" stroke-linecap="square"></line><svg x="-30" y="0" font-size="8" style="overflow:visible"><text transform="" x="-8" y="67.08333333333333" fill="#000" font-size="8" text-anchor="start"><tspan x="-8" dy="0em">50%</tspan></text></svg></g><g class="visx-group visx-axis-tick" transform="translate(0, 0)"><line class="visx-line" x1="0" y1="19.16666666666666" x2="-8" y2="19.16666666666666" fill="transparent" shape-rendering="crispEdges" stroke="#222" stroke-width="0" stroke-linecap="square"></line><svg x="-30" y="0" font-size="8" style="overflow:visible"><text transform="" x="-8" y="19.16666666666666" fill="#000" font-size="8" text-anchor="start"><tspan x="-8" dy="0em">100%</tspan></text></svg></g><line class="visx-line visx-axis-line" x1="0" y1="115.5" x2="0" y2="0.5" fill="transparent" shape-rendering="crispEdges" stroke="#222" stroke-width="0"></line></g><rect class="visx-bar" width="1450" height="115" fill="transparent"></rect><line class="visx-line" x1="1218" y1="28" x2="1218" y2="115" fill="transparent" shape-rendering="crispEdges" stroke="#0062D2" stroke-width="1" pointer-events="none" stroke-dasharray="5,2"></line><svg x="0" y="0" font-size="10px" style="overflow:visible"><text transform="" x="1218" y="20" font-size="10px" fill="#fff" stroke="#fff" stroke-width="0.8em" text-anchor="middle"><tspan x="1218" dy="0.355em">Optimal 84%</tspan></text></svg><svg x="0" y="0" font-size="10px" style="overflow:visible"><text transform="" x="1218" y="20" font-size="10px" fill="#62677B" text-anchor="middle"><tspan x="1218" dy="0.355em">Optimal 84%</tspan></text></svg></g></svg>