<?xml version="1.0"?><svg xmlns="http://www.w3.org/2000/svg" xmlns:xlink= "http://www.w3.org/1999/xlink" style="background: white;" width="1500" height="185"> <g style="color: black; font-size: 13px; font-family: sans-serif; transform: translate(18px, 25px);"><g><circle r="3" cx="-6" cy="-5" style="fill: #B6509E" /><text>Borrow APR, variable</text></g><g style="transform: translateX(150px);"><circle r="3" cx="-6" cy="-5" style="fill: rgb(231, 198, 223)" /><text>Borrow APR, stable</text></g><g style="transform: translateX(290px);"><circle r="3" cx="-6" cy="-5" style="fill: rgb(0, 98, 210)" /><text>Utilization Rate</text></g></g><g class="visx-group" transform="translate(40, 50)"><g class="visx-group visx-rows" transform="translate(0, 0)"><line class="visx-line" x1="0" y1="115" x2="1450" y2="115" fill="transparent" shape-rendering="crispEdges" stroke="#000" stroke-width="1" stroke-dasharray="3,3" pointer-events="none"></line><line class="visx-line" x1="0" y1="82.14285714285714" x2="1450" y2="82.14285714285714" fill="transparent" shape-rendering="crispEdges" stroke="#000" stroke-width="1" stroke-dasharray="3,3" pointer-events="none"></line><line class="visx-line" x1="0" y1="49.28571428571429" x2="1450" y2="49.28571428571429" fill="transparent" shape-rendering="crispEdges" stroke="#000" stroke-width="1" stroke-dasharray="3,3" pointer-events="none"></line><line class="visx-line" x1="0" y1="16.428571428571434" x2="1450" y2="16.428571428571434" fill="transparent" shape-rendering="crispEdges" stroke="#000" stroke-width="1" stroke-dasharray="3,3" pointer-events="none"></line></g><path class="visx-linepath" d="M0,114.99999999997125C2.4166666666666665,114.99520833331657,4.833333333333334,114.99041666666187,7.25,114.985625C9.666666666666666,114.98083333333813,12.083333333333334,114.97604166666666,14.5,114.97125C16.916666666666668,114.96645833333334,19.333333333333332,114.96166666666666,21.75,114.956875C24.166666666666668,114.95208333333333,26.583333333333332,114.94729166666667,29,114.94250000000001C31.416666666666668,114.93770833333335,33.833333333333336,114.93291666666667,36.25,114.92812500000001C38.666666666666664,114.92333333333335,41.083333333333336,114.91854166666666,43.5,114.91375C45.91666666666667,114.90895833333333,48.333333333333336,114.90416666666667,50.75000000000001,114.899375C53.16666666666667,114.89458333333334,55.583333333333336,114.88979166666667,58,114.885C60.416666666666664,114.88020833333333,62.833333333333336,114.87541666666665,65.25,114.87062499999999C67.66666666666667,114.86583333333333,70.08333333333333,114.86104166666667,72.5,114.85625C74.91666666666667,114.85145833333334,77.33333333333333,114.84666666666666,79.75,114.841875C82.16666666666667,114.83708333333334,84.58333333333333,114.83229166666666,87,114.8275C89.41666666666667,114.82270833333334,91.83333333333333,114.81791666666666,94.25,114.813125C96.66666666666667,114.80833333333334,99.08333333333334,114.80354166666666,101.50000000000001,114.79875C103.91666666666667,114.79395833333334,106.33333333333334,114.78916666666667,108.75,114.78437500000001C111.16666666666667,114.77958333333335,113.58333333333333,114.77479166666666,116,114.77C118.41666666666667,114.76520833333332,120.83333333333334,114.76041666666666,123.25000000000001,114.755625C125.66666666666667,114.75083333333333,128.08333333333334,114.74604166666667,130.5,114.74125000000001C132.91666666666666,114.73645833333335,135.33333333333334,114.73166666666665,137.75,114.72687499999999C140.16666666666666,114.72208333333333,142.58333333333334,114.71729166666667,145,114.7125C147.41666666666666,114.70770833333334,149.83333333333334,114.70291666666667,152.25,114.698125C154.66666666666666,114.69333333333334,157.08333333333334,114.68854166666667,159.5,114.68375C161.91666666666666,114.67895833333334,164.33333333333334,114.67416666666666,166.75,114.669375C169.16666666666666,114.66458333333334,171.58333333333334,114.65979166666666,174,114.655C176.41666666666666,114.65020833333334,178.83333333333334,114.64541666666666,181.25,114.640625C183.66666666666666,114.63583333333334,186.08333333333334,114.63104166666666,188.5,114.62625C190.91666666666666,114.62145833333334,193.33333333333334,114.61666666666666,195.75,114.611875C198.16666666666669,114.60708333333334,200.58333333333334,114.60229166666667,203.00000000000003,114.59750000000001C205.41666666666669,114.59270833333335,207.83333333333331,114.58791666666666,210.24999999999997,114.583125C212.66666666666666,114.57833333333332,215.08333333333331,114.57354166666666,217.5,114.56875C219.91666666666666,114.56395833333333,222.33333333333334,114.55916666666667,224.75,114.55437500000001C227.16666666666666,114.54958333333335,229.58333333333334,114.54479166666667,232,114.54C234.41666666666666,114.53520833333334,236.83333333333334,114.53041666666665,239.25,114.52562499999999C241.66666666666669,114.52083333333333,244.08333333333334,114.51604166666667,246.50000000000003,114.51125C248.91666666666669,114.50645833333334,251.33333333333331,114.50166666666667,253.74999999999997,114.496875C256.16666666666663,114.49208333333334,258.5833333333333,114.48729166666666,261,114.4825C263.4166666666667,114.47770833333334,265.8333333333333,114.47291666666666,268.25,114.468125C270.6666666666667,114.46333333333334,273.0833333333333,114.45854166666666,275.5,114.45375C277.9166666666667,114.44895833333334,280.3333333333333,114.44416666666666,282.75,114.439375C285.1666666666667,114.43458333333334,287.5833333333333,114.42979166666666,290,114.425C292.4166666666667,114.42020833333333,294.8333333333333,114.41541666666666,297.25,114.410625C299.6666666666667,114.40583333333333,302.0833333333333,114.40104166666667,304.5,114.39625000000001C306.9166666666667,114.39145833333335,309.3333333333333,114.38666666666666,311.75,114.381875C314.1666666666667,114.37708333333333,316.5833333333333,114.37229166666667,319,114.3675C321.4166666666667,114.36270833333334,323.8333333333333,114.35791666666668,326.25,114.353125C328.6666666666667,114.34833333333333,331.0833333333333,114.34354166666665,333.5,114.33874999999999C335.9166666666667,114.33395833333333,338.3333333333333,114.32916666666667,340.75,114.324375C343.1666666666667,114.31958333333334,345.5833333333333,114.31479166666666,348,114.31C350.4166666666667,114.30520833333334,352.8333333333333,114.30041666666666,355.25,114.295625C357.6666666666667,114.29083333333334,360.0833333333333,114.28604166666666,362.5,114.28125C364.9166666666667,114.27645833333334,367.3333333333333,114.27166666666666,369.75,114.266875C372.1666666666667,114.26208333333334,374.5833333333333,114.25729166666667,377,114.25250000000001C379.4166666666667,114.24770833333335,381.8333333333333,114.24291666666667,384.25,114.238125C386.6666666666667,114.23333333333332,389.0833333333333,114.22854166666666,391.5,114.22375C393.9166666666667,114.21895833333333,396.33333333333337,114.21416666666667,398.75000000000006,114.20937500000001C401.16666666666674,114.20458333333335,403.58333333333337,114.19979166666667,406.00000000000006,114.195C408.4166666666667,114.19020833333333,410.8333333333333,114.18541666666665,413.24999999999994,114.18062499999999C415.66666666666663,114.17583333333333,418.08333333333326,114.17104166666667,420.49999999999994,114.16625C422.91666666666663,114.16145833333334,425.3333333333333,114.15666666666667,427.75,114.151875C430.1666666666667,114.14708333333334,432.5833333333333,114.14229166666667,435,114.1375C437.4166666666667,114.13270833333334,439.8333333333333,114.12791666666666,442.25,114.123125C444.6666666666667,114.11833333333334,447.0833333333333,114.11354166666666,449.5,114.10875C451.9166666666667,114.10395833333334,454.3333333333333,114.09916666666666,456.75,114.094375C459.1666666666667,114.08958333333334,461.5833333333333,114.08479166666666,464,114.08C466.4166666666667,114.07520833333334,468.8333333333333,114.07041666666666,471.25,114.065625C473.6666666666667,114.06083333333333,476.0833333333333,114.05604166666666,478.5,114.05125C480.9166666666667,114.04645833333333,483.33333333333337,114.04166666666666,485.75000000000006,114.036875C488.16666666666674,114.03208333333333,490.58333333333337,114.02729166666667,493.00000000000006,114.02250000000001C495.4166666666667,114.01770833333335,497.8333333333333,114.01291666666667,500.24999999999994,114.008125C502.66666666666663,114.00333333333333,505.08333333333326,113.99854166666665,507.49999999999994,113.99374999999999C509.91666666666663,113.98895833333333,512.3333333333333,113.98416666666667,514.75,113.979375C517.1666666666666,113.97458333333334,519.5833333333334,113.96979166666668,522,113.965C524.4166666666666,113.96020833333333,526.8333333333334,113.95541666666665,529.25,113.95062499999999C531.6666666666666,113.94583333333333,534.0833333333334,113.94104166666666,536.5,113.93625C538.9166666666666,113.93145833333334,541.3333333333334,113.92666666666666,543.75,113.921875C546.1666666666666,113.91708333333334,548.5833333333334,113.91229166666666,551,113.9075C553.4166666666666,113.90270833333334,555.8333333333334,113.89791666666666,558.25,113.893125C560.6666666666666,113.88833333333334,563.0833333333334,113.88354166666666,565.5,113.87875C567.9166666666666,113.87395833333333,570.3333333333334,113.86916666666667,572.75,113.86437500000001C575.1666666666666,113.85958333333335,577.5833333333334,113.85479166666667,580,113.85C582.4166666666666,113.84520833333332,584.8333333333334,113.84041666666666,587.25,113.835625C589.6666666666666,113.83083333333333,592.0833333333334,113.82604166666667,594.5,113.82125C596.9166666666666,113.81645833333334,599.3333333333334,113.81166666666665,601.75,113.80687499999999C604.1666666666666,113.80208333333333,606.5833333333334,113.79729166666667,609,113.7925C611.4166666666666,113.78770833333334,613.8333333333334,113.78291666666667,616.25,113.778125C618.6666666666666,113.77333333333334,621.0833333333334,113.76854166666666,623.5,113.76375C625.9166666666666,113.75895833333334,628.3333333333334,113.75416666666666,630.75,113.749375C633.1666666666666,113.74458333333334,635.5833333333334,113.73979166666666,638,113.735C640.4166666666666,113.73020833333334,642.8333333333334,113.72541666666666,645.25,113.720625C647.6666666666666,113.71583333333334,650.0833333333334,113.71104166666666,652.5,113.70625C654.9166666666666,113.70145833333333,657.3333333333334,113.69666666666666,659.75,113.691875C662.1666666666666,113.68708333333333,664.5833333333334,113.68229166666667,667,113.67750000000001C669.4166666666666,113.67270833333335,671.8333333333334,113.66791666666666,674.25,113.663125C676.6666666666666,113.65833333333333,679.0833333333334,113.65354166666665,681.5,113.64874999999999C683.9166666666666,113.64395833333333,686.3333333333334,113.63916666666667,688.75,113.634375C691.1666666666666,113.62958333333334,693.5833333333334,113.62479166666668,696,113.62C698.4166666666666,113.61520833333333,700.8333333333334,113.61041666666665,703.25,113.60562499999999C705.6666666666666,113.60083333333333,708.0833333333334,113.59604166666666,710.5,113.59125C712.9166666666666,113.58645833333334,715.3333333333334,113.58166666666666,717.75,113.576875C720.1666666666666,113.57208333333334,722.5833333333334,113.56729166666666,725,113.5625C727.4166666666666,113.55770833333334,729.8333333333334,113.55291666666666,732.25,113.548125C734.6666666666666,113.54333333333334,737.0833333333334,113.53854166666666,739.5,113.53375C741.9166666666666,113.52895833333334,744.3333333333334,113.52416666666666,746.75,113.519375C749.1666666666666,113.51458333333333,751.5833333333334,113.50979166666666,754,113.505C756.4166666666666,113.50020833333333,758.8333333333334,113.49541666666666,761.25,113.490625C763.6666666666666,113.48583333333333,766.0833333333334,113.48104166666667,768.5,113.47625000000001C770.9166666666666,113.47145833333335,773.3333333333334,113.46666666666665,775.75,113.46187499999999C778.1666666666666,113.45708333333333,780.5833333333334,113.45229166666667,783,113.4475C785.4166666666667,113.44270833333334,787.8333333333334,113.43791666666668,790.2500000000001,113.433125C792.6666666666667,113.42833333333334,795.0833333333335,113.42354166666665,797.5000000000001,113.41874999999999C799.9166666666667,113.41395833333333,802.3333333333335,113.40916666666666,804.7500000000001,113.404375C807.1666666666667,113.39958333333334,809.5833333333335,113.39479166666666,812.0000000000001,113.39C814.4166666666667,113.38520833333334,816.8333333333333,113.38041666666666,819.2499999999999,113.375625C821.6666666666665,113.37083333333334,824.0833333333333,113.36604166666666,826.4999999999999,113.36125C828.9166666666665,113.35645833333334,831.3333333333333,113.35166666666666,833.7499999999999,113.346875C836.1666666666665,113.34208333333333,838.5833333333333,113.33729166666667,840.9999999999999,113.33250000000001C843.4166666666666,113.32770833333335,845.8333333333333,113.32291666666667,848.25,113.318125C850.6666666666666,113.31333333333333,853.0833333333334,113.30854166666666,855.5,113.30375C857.9166666666666,113.29895833333333,860.3333333333334,113.29416666666667,862.75,113.289375C865.1666666666666,113.28458333333334,867.5833333333334,113.27979166666665,870,113.27499999999999C872.4166666666666,113.27020833333333,874.8333333333334,113.26541666666665,877.25,113.26062499999999C879.6666666666666,113.25583333333333,882.0833333333334,113.25104166666667,884.5,113.24625C886.9166666666666,113.24145833333334,889.3333333333334,113.23666666666666,891.75,113.231875C894.1666666666666,113.22708333333334,896.5833333333334,113.22229166666666,899,113.2175C901.4166666666666,113.21270833333334,903.8333333333334,113.20791666666666,906.25,113.203125C908.6666666666666,113.19833333333334,911.0833333333334,113.19354166666666,913.5,113.18875C915.9166666666666,113.18395833333334,918.3333333333334,113.17916666666666,920.75,113.174375C923.1666666666666,113.16958333333334,925.5833333333334,113.16479166666666,928,113.16C930.4166666666666,113.15520833333333,932.8333333333334,113.15041666666667,935.25,113.14562500000001C937.6666666666666,113.14083333333335,940.0833333333334,113.13604166666667,942.5,113.13125000000001C944.9166666666666,113.12645833333335,947.3333333333334,113.12166666666666,949.75,113.116875C952.1666666666666,113.11208333333333,954.5833333333334,113.10729166666667,957,113.1025C959.4166666666666,113.09770833333334,961.8333333333334,113.09291666666667,964.25,113.088125C966.6666666666667,113.08333333333333,969.0833333333334,113.07854166666665,971.5000000000001,113.07374999999999C973.9166666666667,113.06895833333333,976.3333333333335,113.06416666666667,978.7500000000001,113.059375C981.1666666666667,113.05458333333334,983.5833333333335,113.04979166666666,986.0000000000001,113.045C988.4166666666667,113.04020833333334,990.8333333333335,113.03541666666666,993.2500000000001,113.030625C995.6666666666667,113.02583333333334,998.0833333333333,113.02104166666666,1000.4999999999999,113.01625C1002.9166666666665,113.01145833333334,1005.3333333333333,113.00666666666666,1007.7499999999999,113.001875C1010.1666666666665,112.99708333333334,1012.5833333333333,112.99229166666667,1014.9999999999999,112.98750000000001C1017.4166666666665,112.98270833333335,1019.8333333333333,112.97791666666666,1022.2499999999999,112.973125C1024.6666666666665,112.96833333333332,1027.0833333333333,112.96354166666666,1029.5,112.95875C1031.9166666666667,112.95395833333333,1034.3333333333333,112.94916666666667,1036.75,112.94437500000001C1039.1666666666667,112.93958333333335,1041.5833333333333,112.93479166666665,1044,112.92999999999999C1046.4166666666667,112.92520833333333,1048.8333333333333,112.92041666666667,1051.25,112.915625C1053.6666666666667,112.91083333333334,1056.0833333333333,112.90604166666667,1058.5,112.90125C1060.9166666666667,112.89645833333334,1063.3333333333333,112.89166666666667,1065.75,112.886875C1068.1666666666667,112.88208333333334,1070.5833333333333,112.87729166666666,1073,112.8725C1075.4166666666667,112.86770833333334,1077.8333333333333,112.86291666666666,1080.25,112.858125C1082.6666666666667,112.85333333333334,1085.0833333333333,112.84854166666666,1087.5,112.84375C1089.9166666666667,112.83895833333334,1092.3333333333333,112.83416666666666,1094.75,112.829375C1097.1666666666667,112.82458333333334,1099.5833333333333,112.81979166666666,1102,112.815C1104.4166666666667,112.81020833333334,1106.8333333333333,112.80541666666667,1109.25,112.80062500000001C1111.6666666666667,112.79583333333335,1114.0833333333333,112.79104166666667,1116.5,112.78625C1118.9166666666667,112.78145833333332,1121.3333333333333,112.77666666666666,1123.75,112.771875C1126.1666666666667,112.76708333333333,1128.5833333333333,112.76229166666667,1131,112.75750000000001C1133.4166666666667,112.75270833333335,1135.8333333333333,112.74791666666667,1138.25,112.743125C1140.6666666666667,112.73833333333334,1143.0833333333333,112.73354166666665,1145.5,112.72874999999999C1147.9166666666667,112.72395833333333,1150.3333333333333,112.71916666666667,1152.75,112.714375C1155.1666666666667,112.70958333333334,1157.5833333333333,112.70958333333334,1160,112.7C1162.4166666666667,112.69041666666666,1164.8333333333333,111.05714285714286,1167.25,110.2357142857143C1169.6666666666667,109.41428571428573,1172.0833333333333,108.59285714285714,1174.5,107.77142857142857C1176.9166666666667,106.95,1179.3333333333333,106.12857142857142,1181.75,105.30714285714285C1184.1666666666667,104.48571428571428,1186.5833333333333,103.66428571428571,1189,102.84285714285714C1191.4166666666667,102.02142857142857,1193.8333333333333,101.2,1196.25,100.37857142857143C1198.6666666666667,99.55714285714286,1201.0833333333333,98.73571428571428,1203.5,97.91428571428571C1205.9166666666667,97.09285714285714,1208.3333333333333,96.27142857142856,1210.75,95.44999999999999C1213.1666666666667,94.62857142857142,1215.5833333333333,93.80714285714286,1218,92.9857142857143C1220.4166666666667,92.16428571428573,1222.8333333333333,91.34285714285714,1225.25,90.52142857142857C1227.6666666666667,89.7,1230.0833333333333,88.87857142857142,1232.5,88.05714285714285C1234.9166666666667,87.23571428571428,1237.3333333333333,86.41428571428571,1239.75,85.59285714285714C1242.1666666666667,84.77142857142857,1244.5833333333333,83.95,1247,83.12857142857143C1249.4166666666667,82.30714285714286,1251.8333333333333,81.48571428571428,1254.25,80.66428571428571C1256.6666666666667,79.84285714285714,1259.0833333333333,79.02142857142856,1261.5,78.19999999999999C1263.9166666666667,77.37857142857142,1266.3333333333333,76.55714285714285,1268.75,75.73571428571428C1271.1666666666667,74.91428571428571,1273.5833333333333,74.09285714285714,1276,73.27142857142857C1278.4166666666667,72.45,1280.8333333333333,71.62857142857142,1283.25,70.80714285714285C1285.6666666666667,69.98571428571428,1288.0833333333333,69.16428571428571,1290.5,68.34285714285714C1292.9166666666667,67.52142857142857,1295.3333333333333,66.7,1297.75,65.87857142857143C1300.1666666666667,65.05714285714286,1302.5833333333333,64.23571428571428,1305,63.41428571428571C1307.4166666666667,62.59285714285714,1309.8333333333333,61.77142857142857,1312.25,60.95C1314.6666666666667,60.12857142857143,1317.0833333333333,59.307142857142864,1319.5,58.48571428571429C1321.9166666666667,57.66428571428571,1324.3333333333333,56.842857142857135,1326.75,56.021428571428565C1329.1666666666667,55.199999999999996,1331.5833333333333,54.37857142857143,1334,53.557142857142864C1336.4166666666667,52.735714285714295,1338.8333333333333,51.91428571428571,1341.25,51.09285714285714C1343.6666666666667,50.27142857142857,1346.0833333333333,49.45,1348.5,48.628571428571426C1350.9166666666667,47.80714285714285,1353.3333333333333,46.98571428571427,1355.75,46.164285714285704C1358.1666666666667,45.342857142857135,1360.5833333333333,44.52142857142857,1363,43.7C1365.4166666666667,42.87857142857143,1367.8333333333333,42.05714285714285,1370.25,41.23571428571428C1372.6666666666667,40.41428571428571,1375.0833333333333,39.59285714285715,1377.5,38.77142857142858C1379.9166666666667,37.95000000000001,1382.3333333333333,37.12857142857143,1384.75,36.30714285714286C1387.1666666666667,35.48571428571428,1389.5833333333333,34.6642857142857,1392,33.84285714285713C1394.4166666666667,33.02142857142856,1396.8333333333333,32.2,1399.25,31.378571428571433C1401.6666666666667,30.557142857142864,1404.0833333333333,29.735714285714288,1406.5,28.914285714285715C1408.9166666666667,28.09285714285714,1411.3333333333333,27.271428571428572,1413.75,26.45C1416.1666666666667,25.628571428571426,1418.5833333333333,24.80714285714285,1421,23.98571428571428C1423.4166666666667,23.16428571428571,1425.8333333333333,22.342857142857145,1428.25,21.521428571428576C1430.6666666666667,20.700000000000006,1433.0833333333333,19.87857142857143,1435.5,19.057142857142857C1437.9166666666667,18.235714285714284,1440.3333333333333,17.414285714285707,1442.75,16.592857142857138C1445.1666666666667,15.771428571428567,1447.5833333333333,14.95,1450,14.128571428571432" fill="transparent" stroke-linecap="round" stroke="#B6509E" stroke-width="2"></path><path class="visx-linepath" d="M0,112.37142857139983C2.4166666666666665,112.36663690474515,4.833333333333334,112.36184523809045,7.25,112.35705357142858C9.666666666666666,112.3522619047667,12.083333333333334,112.34747023809523,14.5,112.34267857142856C16.916666666666668,112.3378869047619,19.333333333333332,112.33309523809524,21.75,112.32830357142858C24.166666666666668,112.32351190476192,26.583333333333332,112.31872023809524,29,112.31392857142858C31.416666666666668,112.30913690476191,33.833333333333336,112.30434523809522,36.25,112.29955357142856C38.666666666666664,112.2947619047619,41.083333333333336,112.28997023809524,43.5,112.28517857142857C45.91666666666667,112.28038690476191,48.333333333333336,112.27559523809524,50.75000000000001,112.27080357142857C53.16666666666667,112.26601190476191,55.583333333333336,112.26122023809523,58,112.25642857142857C60.416666666666664,112.25163690476191,62.833333333333336,112.24684523809523,65.25,112.24205357142857C67.66666666666667,112.23726190476191,70.08333333333333,112.23247023809523,72.5,112.22767857142857C74.91666666666667,112.2228869047619,77.33333333333333,112.21809523809524,79.75,112.21330357142858C82.16666666666667,112.20851190476192,84.58333333333333,112.20372023809523,87,112.19892857142857C89.41666666666667,112.1941369047619,91.83333333333333,112.18934523809523,94.25,112.18455357142857C96.66666666666667,112.1797619047619,99.08333333333334,112.17497023809524,101.50000000000001,112.17017857142858C103.91666666666667,112.16538690476192,106.33333333333334,112.16059523809523,108.75,112.15580357142856C111.16666666666667,112.15101190476189,113.58333333333333,112.14622023809522,116,112.14142857142856C118.41666666666667,112.1366369047619,120.83333333333334,112.13184523809524,123.25000000000001,112.12705357142858C125.66666666666667,112.12226190476191,128.08333333333334,112.11747023809524,130.5,112.11267857142857C132.91666666666666,112.10788690476191,135.33333333333334,112.10309523809524,137.75,112.09830357142857C140.16666666666666,112.09351190476191,142.58333333333334,112.08872023809523,145,112.08392857142857C147.41666666666666,112.07913690476191,149.83333333333334,112.07434523809523,152.25,112.06955357142857C154.66666666666666,112.06476190476191,157.08333333333334,112.05997023809523,159.5,112.05517857142857C161.91666666666666,112.05038690476191,164.33333333333334,112.04559523809523,166.75,112.04080357142857C169.16666666666666,112.0360119047619,171.58333333333334,112.03122023809524,174,112.02642857142858C176.41666666666666,112.02163690476192,178.83333333333334,112.01684523809524,181.25,112.01205357142857C183.66666666666666,112.00726190476189,186.08333333333334,112.00247023809523,188.5,111.99767857142857C190.91666666666666,111.9928869047619,193.33333333333334,111.98809523809524,195.75,111.98330357142858C198.16666666666669,111.97851190476192,200.58333333333334,111.97372023809525,203.00000000000003,111.96892857142858C205.41666666666669,111.96413690476192,207.83333333333331,111.95934523809522,210.24999999999997,111.95455357142856C212.66666666666666,111.9497619047619,215.08333333333331,111.94497023809524,217.5,111.94017857142858C219.91666666666666,111.93538690476191,222.33333333333334,111.93059523809524,224.75,111.92580357142857C227.16666666666666,111.92101190476191,229.58333333333334,111.91622023809522,232,111.91142857142856C234.41666666666666,111.9066369047619,236.83333333333334,111.90184523809523,239.25,111.89705357142857C241.66666666666669,111.89226190476191,244.08333333333334,111.88747023809523,246.50000000000003,111.88267857142857C248.91666666666669,111.87788690476191,251.33333333333331,111.87309523809523,253.74999999999997,111.86830357142857C256.16666666666663,111.8635119047619,258.5833333333333,111.85872023809523,261,111.85392857142857C263.4166666666667,111.8491369047619,265.8333333333333,111.84434523809523,268.25,111.83955357142857C270.6666666666667,111.8347619047619,273.0833333333333,111.82997023809524,275.5,111.82517857142858C277.9166666666667,111.82038690476192,280.3333333333333,111.81559523809523,282.75,111.81080357142856C285.1666666666667,111.8060119047619,287.5833333333333,111.80122023809524,290,111.79642857142858C292.4166666666667,111.79163690476192,294.8333333333333,111.78684523809525,297.25,111.78205357142858C299.6666666666667,111.7772619047619,302.0833333333333,111.77247023809522,304.5,111.76767857142856C306.9166666666667,111.7628869047619,309.3333333333333,111.75809523809524,311.75,111.75330357142857C314.1666666666667,111.74851190476191,316.5833333333333,111.74372023809524,319,111.73892857142857C321.4166666666667,111.73413690476191,323.8333333333333,111.72934523809523,326.25,111.72455357142857C328.6666666666667,111.71976190476191,331.0833333333333,111.71497023809523,333.5,111.71017857142857C335.9166666666667,111.70538690476191,338.3333333333333,111.70059523809523,340.75,111.69580357142857C343.1666666666667,111.69101190476191,345.5833333333333,111.68622023809523,348,111.68142857142857C350.4166666666667,111.6766369047619,352.8333333333333,111.67184523809523,355.25,111.66705357142857C357.6666666666667,111.6622619047619,360.0833333333333,111.65747023809523,362.5,111.65267857142857C364.9166666666667,111.6478869047619,367.3333333333333,111.64309523809524,369.75,111.63830357142858C372.1666666666667,111.63351190476192,374.5833333333333,111.62872023809524,377,111.62392857142856C379.4166666666667,111.61913690476189,381.8333333333333,111.61434523809523,384.25,111.60955357142856C386.6666666666667,111.6047619047619,389.0833333333333,111.59997023809524,391.5,111.59517857142858C393.9166666666667,111.59038690476191,396.33333333333337,111.58559523809524,398.75000000000006,111.58080357142858C401.16666666666674,111.57601190476191,403.58333333333337,111.57122023809524,406.00000000000006,111.56642857142857C408.4166666666667,111.56163690476191,410.8333333333333,111.55684523809524,413.24999999999994,111.55205357142857C415.66666666666663,111.54726190476191,418.08333333333326,111.54247023809523,420.49999999999994,111.53767857142857C422.91666666666663,111.53288690476191,425.3333333333333,111.52809523809523,427.75,111.52330357142857C430.1666666666667,111.51851190476191,432.5833333333333,111.51372023809523,435,111.50892857142857C437.4166666666667,111.5041369047619,439.8333333333333,111.49934523809523,442.25,111.49455357142857C444.6666666666667,111.4897619047619,447.0833333333333,111.48497023809524,449.5,111.48017857142858C451.9166666666667,111.47538690476192,454.3333333333333,111.47059523809523,456.75,111.46580357142857C459.1666666666667,111.4610119047619,461.5833333333333,111.45622023809523,464,111.45142857142856C466.4166666666667,111.4466369047619,468.8333333333333,111.44184523809524,471.25,111.43705357142858C473.6666666666667,111.43226190476192,476.0833333333333,111.42747023809522,478.5,111.42267857142856C480.9166666666667,111.4178869047619,483.33333333333337,111.41309523809524,485.75000000000006,111.40830357142858C488.16666666666674,111.40351190476191,490.58333333333337,111.39872023809525,493.00000000000006,111.39392857142857C495.4166666666667,111.38913690476191,497.8333333333333,111.38434523809522,500.24999999999994,111.37955357142856C502.66666666666663,111.3747619047619,505.08333333333326,111.36997023809523,507.49999999999994,111.36517857142857C509.91666666666663,111.36038690476191,512.3333333333333,111.35559523809523,514.75,111.35080357142857C517.1666666666666,111.34601190476191,519.5833333333334,111.34122023809525,522,111.33642857142858C524.4166666666666,111.33163690476192,526.8333333333334,111.32684523809525,529.25,111.32205357142857C531.6666666666666,111.31726190476189,534.0833333333334,111.31247023809523,536.5,111.30767857142857C538.9166666666666,111.3028869047619,541.3333333333334,111.29809523809524,543.75,111.29330357142858C546.1666666666666,111.28851190476192,548.5833333333334,111.28372023809524,551,111.27892857142857C553.4166666666666,111.27413690476189,555.8333333333334,111.26934523809523,558.25,111.26455357142856C560.6666666666666,111.2597619047619,563.0833333333334,111.25497023809524,565.5,111.25017857142858C567.9166666666666,111.24538690476192,570.3333333333334,111.24059523809524,572.75,111.23580357142858C575.1666666666666,111.23101190476191,577.5833333333334,111.22622023809524,580,111.22142857142858C582.4166666666666,111.21663690476191,584.8333333333334,111.21184523809524,587.25,111.20705357142857C589.6666666666666,111.20226190476191,592.0833333333334,111.19747023809524,594.5,111.19267857142857C596.9166666666666,111.18788690476191,599.3333333333334,111.18309523809523,601.75,111.17830357142857C604.1666666666666,111.17351190476191,606.5833333333334,111.16872023809523,609,111.16392857142857C611.4166666666666,111.15913690476191,613.8333333333334,111.15434523809523,616.25,111.14955357142857C618.6666666666666,111.1447619047619,621.0833333333334,111.13997023809523,623.5,111.13517857142857C625.9166666666666,111.1303869047619,628.3333333333334,111.12559523809523,630.75,111.12080357142857C633.1666666666666,111.1160119047619,635.5833333333334,111.11122023809524,638,111.10642857142858C640.4166666666666,111.10163690476192,642.8333333333334,111.09684523809526,645.25,111.09205357142858C647.6666666666666,111.0872619047619,650.0833333333334,111.08247023809523,652.5,111.07767857142856C654.9166666666666,111.0728869047619,657.3333333333334,111.06809523809524,659.75,111.06330357142858C662.1666666666666,111.05851190476191,664.5833333333334,111.05372023809525,667,111.04892857142858C669.4166666666666,111.0441369047619,671.8333333333334,111.03934523809522,674.25,111.03455357142856C676.6666666666666,111.0297619047619,679.0833333333334,111.02497023809524,681.5,111.02017857142857C683.9166666666666,111.01538690476191,686.3333333333334,111.01059523809523,688.75,111.00580357142857C691.1666666666666,111.00101190476191,693.5833333333334,110.99622023809523,696,110.99142857142857C698.4166666666666,110.98663690476191,700.8333333333334,110.98184523809523,703.25,110.97705357142857C705.6666666666666,110.97226190476191,708.0833333333334,110.96747023809523,710.5,110.96267857142857C712.9166666666666,110.9578869047619,715.3333333333334,110.95309523809524,717.75,110.94830357142858C720.1666666666666,110.94351190476192,722.5833333333334,110.93872023809524,725,110.93392857142857C727.4166666666666,110.92913690476189,729.8333333333334,110.92434523809523,732.25,110.91955357142857C734.6666666666666,110.9147619047619,737.0833333333334,110.90997023809524,739.5,110.90517857142858C741.9166666666666,110.90038690476192,744.3333333333334,110.89559523809523,746.75,110.89080357142856C749.1666666666666,110.8860119047619,751.5833333333334,110.88122023809524,754,110.87642857142858C756.4166666666666,110.87163690476191,758.8333333333334,110.86684523809524,761.25,110.86205357142858C763.6666666666666,110.85726190476191,766.0833333333334,110.85247023809524,768.5,110.84767857142857C770.9166666666666,110.84288690476191,773.3333333333334,110.83809523809524,775.75,110.83330357142857C778.1666666666666,110.82851190476191,780.5833333333334,110.82372023809523,783,110.81892857142857C785.4166666666667,110.81413690476191,787.8333333333334,110.80934523809523,790.2500000000001,110.80455357142857C792.6666666666667,110.79976190476191,795.0833333333335,110.79497023809523,797.5000000000001,110.79017857142857C799.9166666666667,110.7853869047619,802.3333333333335,110.78059523809523,804.7500000000001,110.77580357142857C807.1666666666667,110.7710119047619,809.5833333333335,110.76622023809524,812.0000000000001,110.76142857142858C814.4166666666667,110.75663690476192,816.8333333333333,110.75184523809523,819.2499999999999,110.74705357142857C821.6666666666665,110.74226190476189,824.0833333333333,110.73747023809523,826.4999999999999,110.73267857142856C828.9166666666665,110.7278869047619,831.3333333333333,110.72309523809524,833.7499999999999,110.71830357142858C836.1666666666665,110.71351190476192,838.5833333333333,110.70872023809524,840.9999999999999,110.70392857142858C843.4166666666666,110.6991369047619,845.8333333333333,110.69434523809522,848.25,110.68955357142856C850.6666666666666,110.6847619047619,853.0833333333334,110.67997023809524,855.5,110.67517857142857C857.9166666666666,110.67038690476191,860.3333333333334,110.66559523809524,862.75,110.66080357142857C865.1666666666666,110.65601190476191,867.5833333333334,110.65122023809523,870,110.64642857142857C872.4166666666666,110.64163690476191,874.8333333333334,110.63684523809523,877.25,110.63205357142857C879.6666666666666,110.62726190476191,882.0833333333334,110.62247023809523,884.5,110.61767857142857C886.9166666666666,110.61288690476191,889.3333333333334,110.60809523809523,891.75,110.60330357142857C894.1666666666666,110.5985119047619,896.5833333333334,110.59372023809523,899,110.58892857142857C901.4166666666666,110.5841369047619,903.8333333333334,110.57934523809523,906.25,110.57455357142857C908.6666666666666,110.5697619047619,911.0833333333334,110.56497023809524,913.5,110.56017857142858C915.9166666666666,110.55538690476192,918.3333333333334,110.55059523809523,920.75,110.54580357142856C923.1666666666666,110.5410119047619,925.5833333333334,110.53622023809524,928,110.53142857142858C930.4166666666666,110.52663690476192,932.8333333333334,110.52184523809524,935.25,110.51705357142858C937.6666666666666,110.51226190476191,940.0833333333334,110.50747023809522,942.5,110.50267857142856C944.9166666666666,110.4978869047619,947.3333333333334,110.49309523809524,949.75,110.48830357142857C952.1666666666666,110.48351190476191,954.5833333333334,110.47872023809524,957,110.47392857142857C959.4166666666666,110.46913690476191,961.8333333333334,110.46434523809523,964.25,110.45955357142857C966.6666666666667,110.45476190476191,969.0833333333334,110.44997023809523,971.5000000000001,110.44517857142857C973.9166666666667,110.44038690476191,976.3333333333335,110.43559523809523,978.7500000000001,110.43080357142857C981.1666666666667,110.4260119047619,983.5833333333335,110.42122023809524,986.0000000000001,110.41642857142858C988.4166666666667,110.41163690476192,990.8333333333335,110.40684523809524,993.2500000000001,110.40205357142857C995.6666666666667,110.3972619047619,998.0833333333333,110.39247023809523,1000.4999999999999,110.38767857142857C1002.9166666666665,110.3828869047619,1005.3333333333333,110.37809523809524,1007.7499999999999,110.37330357142858C1010.1666666666665,110.36851190476192,1012.5833333333333,110.36372023809523,1014.9999999999999,110.35892857142856C1017.4166666666665,110.3541369047619,1019.8333333333333,110.34934523809522,1022.2499999999999,110.34455357142856C1024.6666666666665,110.3397619047619,1027.0833333333333,110.33497023809524,1029.5,110.33017857142858C1031.9166666666667,110.32538690476191,1034.3333333333333,110.32059523809524,1036.75,110.31580357142857C1039.1666666666667,110.31101190476191,1041.5833333333333,110.30622023809524,1044,110.30142857142857C1046.4166666666667,110.29663690476191,1048.8333333333333,110.29184523809523,1051.25,110.28705357142857C1053.6666666666667,110.28226190476191,1056.0833333333333,110.27747023809523,1058.5,110.27267857142857C1060.9166666666667,110.26788690476191,1063.3333333333333,110.26309523809523,1065.75,110.25830357142857C1068.1666666666667,110.25351190476191,1070.5833333333333,110.24872023809523,1073,110.24392857142857C1075.4166666666667,110.2391369047619,1077.8333333333333,110.23434523809524,1080.25,110.22955357142858C1082.6666666666667,110.22476190476192,1085.0833333333333,110.21997023809524,1087.5,110.21517857142857C1089.9166666666667,110.21038690476189,1092.3333333333333,110.20559523809523,1094.75,110.20080357142857C1097.1666666666667,110.1960119047619,1099.5833333333333,110.19122023809524,1102,110.18642857142858C1104.4166666666667,110.18163690476192,1106.8333333333333,110.17684523809524,1109.25,110.17205357142858C1111.6666666666667,110.16726190476192,1114.0833333333333,110.16247023809522,1116.5,110.15767857142856C1118.9166666666667,110.1528869047619,1121.3333333333333,110.14809523809524,1123.75,110.14330357142858C1126.1666666666667,110.13851190476191,1128.5833333333333,110.13372023809524,1131,110.12892857142857C1133.4166666666667,110.12413690476191,1135.8333333333333,110.11934523809522,1138.25,110.11455357142856C1140.6666666666667,110.1097619047619,1143.0833333333333,110.10497023809523,1145.5,110.10017857142857C1147.9166666666667,110.09538690476191,1150.3333333333333,110.09059523809523,1152.75,110.08580357142857C1155.1666666666667,110.08101190476191,1157.5833333333333,110.08101190476191,1160,110.07142857142857C1162.4166666666667,110.06184523809523,1164.8333333333333,108.42857142857143,1167.25,107.60714285714286C1169.6666666666667,106.78571428571429,1172.0833333333333,105.96428571428571,1174.5,105.14285714285714C1176.9166666666667,104.32142857142857,1179.3333333333333,103.5,1181.75,102.67857142857143C1184.1666666666667,101.85714285714286,1186.5833333333333,101.03571428571429,1189,100.21428571428572C1191.4166666666667,99.39285714285715,1193.8333333333333,98.57142857142857,1196.25,97.75C1198.6666666666667,96.92857142857143,1201.0833333333333,96.10714285714285,1203.5,95.28571428571428C1205.9166666666667,94.46428571428571,1208.3333333333333,93.64285714285714,1210.75,92.82142857142857C1213.1666666666667,92,1215.5833333333333,91.17857142857143,1218,90.35714285714286C1220.4166666666667,89.53571428571429,1222.8333333333333,88.71428571428571,1225.25,87.89285714285714C1227.6666666666667,87.07142857142857,1230.0833333333333,86.25,1232.5,85.42857142857143C1234.9166666666667,84.60714285714286,1237.3333333333333,83.78571428571428,1239.75,82.96428571428571C1242.1666666666667,82.14285714285714,1244.5833333333333,81.32142857142857,1247,80.5C1249.4166666666667,79.67857142857143,1251.8333333333333,78.85714285714286,1254.25,78.03571428571429C1256.6666666666667,77.21428571428572,1259.0833333333333,76.39285714285714,1261.5,75.57142857142857C1263.9166666666667,74.75,1266.3333333333333,73.92857142857142,1268.75,73.10714285714285C1271.1666666666667,72.28571428571428,1273.5833333333333,71.46428571428572,1276,70.64285714285715C1278.4166666666667,69.82142857142858,1280.8333333333333,69,1283.25,68.17857142857143C1285.6666666666667,67.35714285714286,1288.0833333333333,66.53571428571428,1290.5,65.71428571428571C1292.9166666666667,64.89285714285714,1295.3333333333333,64.07142857142858,1297.75,63.25000000000001C1300.1666666666667,62.42857142857144,1302.5833333333333,61.60714285714286,1305,60.785714285714285C1307.4166666666667,59.96428571428571,1309.8333333333333,59.14285714285714,1312.25,58.32142857142857C1314.6666666666667,57.5,1317.0833333333333,56.67857142857143,1319.5,55.85714285714286C1321.9166666666667,55.03571428571429,1324.3333333333333,54.21428571428572,1326.75,53.392857142857146C1329.1666666666667,52.57142857142857,1331.5833333333333,51.75,1334,50.92857142857142C1336.4166666666667,50.10714285714285,1338.8333333333333,49.28571428571428,1341.25,48.46428571428571C1343.6666666666667,47.64285714285714,1346.0833333333333,46.82142857142857,1348.5,46C1350.9166666666667,45.17857142857143,1353.3333333333333,44.35714285714287,1355.75,43.5357142857143C1358.1666666666667,42.71428571428573,1360.5833333333333,41.892857142857146,1363,41.07142857142857C1365.4166666666667,40.24999999999999,1367.8333333333333,39.428571428571416,1370.25,38.60714285714285C1372.6666666666667,37.78571428571428,1375.0833333333333,36.96428571428571,1377.5,36.14285714285714C1379.9166666666667,35.32142857142857,1382.3333333333333,34.49999999999999,1384.75,33.67857142857142C1387.1666666666667,32.857142857142854,1389.5833333333333,32.03571428571429,1392,31.21428571428572C1394.4166666666667,30.39285714285715,1396.8333333333333,29.571428571428573,1399.25,28.75C1401.6666666666667,27.928571428571427,1404.0833333333333,27.10714285714285,1406.5,26.28571428571428C1408.9166666666667,25.46428571428571,1411.3333333333333,24.642857142857146,1413.75,23.821428571428577C1416.1666666666667,23.000000000000007,1418.5833333333333,22.17857142857143,1421,21.357142857142858C1423.4166666666667,20.535714285714285,1425.8333333333333,19.714285714285708,1428.25,18.89285714285714C1430.6666666666667,18.07142857142857,1433.0833333333333,17.250000000000004,1435.5,16.428571428571434C1437.9166666666667,15.607142857142863,1440.3333333333333,14.785714285714288,1442.75,13.964285714285715C1445.1666666666667,13.142857142857142,1447.5833333333333,12.32142857142857,1450,11.499999999999998" fill="transparent" stroke-linecap="round" stroke="#E7C6DF" stroke-width="2"></path><g class="visx-group visx-axis visx-axis-bottom" transform="translate(0, 115)"><g class="visx-group visx-axis-tick" transform="translate(0, 0)"><line class="visx-line" x1="0" y1="0" x2="0" y2="8" fill="transparent" shape-rendering="crispEdges" stroke="#000" stroke-width="0" stroke-linecap="square"></line><svg x="0" y="0" font-size="10" style="overflow:visible"><text transform="" x="0" y="18" fill="#000" font-size="10" text-anchor="middle"><tspan x="0" dy="0em">0%</tspan></text></svg></g><g class="visx-group visx-axis-tick" transform="translate(0, 0)"><line class="visx-line" x1="362.5" y1="0" x2="362.5" y2="8" fill="transparent" shape-rendering="crispEdges" stroke="#000" stroke-width="0" stroke-linecap="square"></line><svg x="0" y="0" font-size="10" style="overflow:visible"><text transform="" x="362.5" y="18" fill="#000" font-size="10" text-anchor="middle"><tspan x="362.5" dy="0em">25%</tspan></text></svg></g><g class="visx-group visx-axis-tick" transform="translate(0, 0)"><line class="visx-line" x1="725" y1="0" x2="725" y2="8" fill="transparent" shape-rendering="crispEdges" stroke="#000" stroke-width="0" stroke-linecap="square"></line><svg x="0" y="0" font-size="10" style="overflow:visible"><text transform="" x="725" y="18" fill="#000" font-size="10" text-anchor="middle"><tspan x="725" dy="0em">50%</tspan></text></svg></g><g class="visx-group visx-axis-tick" transform="translate(0, 0)"><line class="visx-line" x1="1087.5" y1="0" x2="1087.5" y2="8" fill="transparent" shape-rendering="crispEdges" stroke="#000" stroke-width="0" stroke-linecap="square"></line><svg x="0" y="0" font-size="10" style="overflow:visible"><text transform="" x="1087.5" y="18" fill="#000" font-size="10" text-anchor="middle"><tspan x="1087.5" dy="0em">75%</tspan></text></svg></g><g class="visx-group visx-axis-tick" transform="translate(0, 0)"><line class="visx-line" x1="1450" y1="0" x2="1450" y2="8" fill="transparent" shape-rendering="crispEdges" stroke="#000" stroke-width="0" stroke-linecap="square"></line><svg x="0" y="0" font-size="10" style="overflow:visible"><text transform="" x="1450" y="18" fill="#000" font-size="10" text-anchor="middle"><tspan x="1450" dy="0em">100%</tspan></text></svg></g><line class="visx-line visx-axis-line" x1="0.5" y1="0" x2="1450.5" y2="0" fill="transparent" shape-rendering="crispEdges" stroke="#222" stroke-width="0"></line></g><g class="visx-group visx-axis visx-axis-left" transform="translate(0, 0)"><g class="visx-group visx-axis-tick" transform="translate(0, 0)"><line class="visx-line" x1="0" y1="115" x2="-8" y2="115" fill="transparent" shape-rendering="crispEdges" stroke="#222" stroke-width="0" stroke-linecap="square"></line><svg x="-30" y="0" font-size="8" style="overflow:visible"><text transform="" x="-8" y="115" fill="#000" font-size="8" text-anchor="start"><tspan x="-8" dy="0em">0%</tspan></text></svg></g><g class="visx-group visx-axis-tick" transform="translate(0, 0)"><line class="visx-line" x1="0" y1="49.28571428571429" x2="-8" y2="49.28571428571429" fill="transparent" shape-rendering="crispEdges" stroke="#222" stroke-width="0" stroke-linecap="square"></line><svg x="-30" y="0" font-size="8" style="overflow:visible"><text transform="" x="-8" y="49.28571428571429" fill="#000" font-size="8" text-anchor="start"><tspan x="-8" dy="0em">200%</tspan></text></svg></g><line class="visx-line visx-axis-line" x1="0" y1="115.5" x2="0" y2="0.5" fill="transparent" shape-rendering="crispEdges" stroke="#222" stroke-width="0"></line></g><rect class="visx-bar" width="1450" height="115" fill="transparent"></rect><line class="visx-line" x1="1160" y1="28" x2="1160" y2="115" fill="transparent" shape-rendering="crispEdges" stroke="#0062D2" stroke-width="1" pointer-events="none" stroke-dasharray="5,2"></line><svg x="0" y="0" font-size="10px" style="overflow:visible"><text transform="" x="1160" y="20" font-size="10px" fill="#fff" stroke="#fff" stroke-width="0.8em" text-anchor="middle"><tspan x="1160" dy="0.355em">Optimal 80%</tspan></text></svg><svg x="0" y="0" font-size="10px" style="overflow:visible"><text transform="" x="1160" y="20" font-size="10px" fill="#62677B" text-anchor="middle"><tspan x="1160" dy="0.355em">Optimal 80%</tspan></text></svg></g></svg>