<?xml version="1.0"?><svg xmlns="http://www.w3.org/2000/svg" xmlns:xlink= "http://www.w3.org/1999/xlink" style="background: white;" width="1500" height="185"> <g style="color: black; font-size: 13px; font-family: sans-serif; transform: translate(18px, 25px);"><g><circle r="3" cx="-6" cy="-5" style="fill: #B6509E" /><text>Borrow APR, variable</text></g><g style="transform: translateX(150px);"><circle r="3" cx="-6" cy="-5" style="fill: rgb(231, 198, 223)" /><text>Borrow APR, stable</text></g><g style="transform: translateX(290px);"><circle r="3" cx="-6" cy="-5" style="fill: rgb(0, 98, 210)" /><text>Utilization Rate</text></g></g><g class="visx-group" transform="translate(40, 50)"><g class="visx-group visx-rows" transform="translate(0, 0)"><line class="visx-line" x1="0" y1="115" x2="1450" y2="115" fill="transparent" shape-rendering="crispEdges" stroke="#000" stroke-width="1" stroke-dasharray="3,3" pointer-events="none"></line><line class="visx-line" x1="0" y1="79.0625" x2="1450" y2="79.0625" fill="transparent" shape-rendering="crispEdges" stroke="#000" stroke-width="1" stroke-dasharray="3,3" pointer-events="none"></line><line class="visx-line" x1="0" y1="43.125" x2="1450" y2="43.125" fill="transparent" shape-rendering="crispEdges" stroke="#000" stroke-width="1" stroke-dasharray="3,3" pointer-events="none"></line><line class="visx-line" x1="0" y1="7.1875" x2="1450" y2="7.1875" fill="transparent" shape-rendering="crispEdges" stroke="#000" stroke-width="1" stroke-dasharray="3,3" pointer-events="none"></line></g><path class="visx-linepath" d="M0,114.99999999987678C2.4166666666666665,114.97946428564241,4.833333333333334,114.95892857140804,7.25,114.93839285714286C9.666666666666666,114.91785714287768,12.083333333333334,114.89732142857143,14.5,114.87678571428572C16.916666666666668,114.85625,19.333333333333332,114.83571428571429,21.75,114.81517857142858C24.166666666666668,114.79464285714286,26.583333333333332,114.77410714285715,29,114.75357142857143C31.416666666666668,114.73303571428572,33.833333333333336,114.7125,36.25,114.69196428571429C38.666666666666664,114.67142857142858,41.083333333333336,114.65089285714285,43.5,114.63035714285714C45.91666666666667,114.60982142857142,48.333333333333336,114.58928571428571,50.75000000000001,114.56875C53.16666666666667,114.54821428571428,55.583333333333336,114.52767857142857,58,114.50714285714285C60.416666666666664,114.48660714285714,62.833333333333336,114.46607142857144,65.25,114.44553571428573C67.66666666666667,114.42500000000001,70.08333333333333,114.40446428571428,72.5,114.38392857142857C74.91666666666667,114.36339285714286,77.33333333333333,114.34285714285714,79.75,114.32232142857143C82.16666666666667,114.30178571428571,84.58333333333333,114.28125,87,114.26071428571429C89.41666666666667,114.24017857142857,91.83333333333333,114.21964285714286,94.25,114.19910714285714C96.66666666666667,114.17857142857143,99.08333333333334,114.15803571428572,101.50000000000001,114.1375C103.91666666666667,114.11696428571429,106.33333333333334,114.09642857142858,108.75,114.07589285714286C111.16666666666667,114.05535714285715,113.58333333333333,114.03482142857143,116,114.01428571428572C118.41666666666667,113.99375,120.83333333333334,113.97321428571428,123.25000000000001,113.95267857142856C125.66666666666667,113.93214285714285,128.08333333333334,113.91160714285714,130.5,113.89107142857142C132.91666666666666,113.87053571428571,135.33333333333334,113.85,137.75,113.82946428571428C140.16666666666666,113.80892857142857,142.58333333333334,113.78839285714287,145,113.76785714285715C147.41666666666666,113.74732142857144,149.83333333333334,113.72678571428571,152.25,113.70625C154.66666666666666,113.68571428571428,157.08333333333334,113.66517857142857,159.5,113.64464285714286C161.91666666666666,113.62410714285714,164.33333333333334,113.60357142857143,166.75,113.58303571428571C169.16666666666666,113.5625,171.58333333333334,113.54196428571429,174,113.52142857142857C176.41666666666666,113.50089285714286,178.83333333333334,113.48035714285714,181.25,113.45982142857143C183.66666666666666,113.43928571428572,186.08333333333334,113.41875,188.5,113.39821428571429C190.91666666666666,113.37767857142858,193.33333333333334,113.35714285714286,195.75,113.33660714285715C198.16666666666669,113.31607142857143,200.58333333333334,113.2955357142857,203.00000000000003,113.27499999999999C205.41666666666669,113.25446428571428,207.83333333333331,113.23392857142856,210.24999999999997,113.21339285714285C212.66666666666666,113.19285714285714,215.08333333333331,113.17232142857144,217.5,113.15178571428572C219.91666666666666,113.13125000000001,222.33333333333334,113.1107142857143,224.75,113.09017857142858C227.16666666666666,113.06964285714287,229.58333333333334,113.04910714285714,232,113.02857142857142C234.41666666666666,113.00803571428571,236.83333333333334,112.9875,239.25,112.96696428571428C241.66666666666669,112.94642857142857,244.08333333333334,112.92589285714286,246.50000000000003,112.90535714285714C248.91666666666669,112.88482142857143,251.33333333333331,112.86428571428571,253.74999999999997,112.84375C256.16666666666663,112.82321428571429,258.5833333333333,112.80267857142857,261,112.78214285714286C263.4166666666667,112.76160714285714,265.8333333333333,112.74107142857143,268.25,112.72053571428572C270.6666666666667,112.7,273.0833333333333,112.67946428571429,275.5,112.65892857142858C277.9166666666667,112.63839285714286,280.3333333333333,112.61785714285715,282.75,112.59732142857143C285.1666666666667,112.57678571428572,287.5833333333333,112.55624999999999,290,112.53571428571428C292.4166666666667,112.51517857142856,294.8333333333333,112.49464285714286,297.25,112.47410714285715C299.6666666666667,112.45357142857144,302.0833333333333,112.43303571428572,304.5,112.41250000000001C306.9166666666667,112.3919642857143,309.3333333333333,112.37142857142857,311.75,112.35089285714285C314.1666666666667,112.33035714285714,316.5833333333333,112.30982142857142,319,112.28928571428571C321.4166666666667,112.26875,323.8333333333333,112.24821428571428,326.25,112.22767857142857C328.6666666666667,112.20714285714286,331.0833333333333,112.18660714285714,333.5,112.16607142857143C335.9166666666667,112.14553571428571,338.3333333333333,112.125,340.75,112.10446428571429C343.1666666666667,112.08392857142857,345.5833333333333,112.06339285714286,348,112.04285714285714C350.4166666666667,112.02232142857143,352.8333333333333,112.00178571428572,355.25,111.98125C357.6666666666667,111.96071428571429,360.0833333333333,111.94017857142858,362.5,111.91964285714286C364.9166666666667,111.89910714285715,367.3333333333333,111.87857142857142,369.75,111.8580357142857C372.1666666666667,111.83749999999999,374.5833333333333,111.81696428571429,377,111.79642857142858C379.4166666666667,111.77589285714286,381.8333333333333,111.75535714285715,384.25,111.73482142857144C386.6666666666667,111.71428571428572,389.0833333333333,111.69375,391.5,111.67321428571428C393.9166666666667,111.65267857142857,396.33333333333337,111.63214285714285,398.75000000000006,111.61160714285714C401.16666666666674,111.59107142857142,403.58333333333337,111.57053571428571,406.00000000000006,111.55C408.4166666666667,111.52946428571428,410.8333333333333,111.50892857142857,413.24999999999994,111.48839285714286C415.66666666666663,111.46785714285714,418.08333333333326,111.44732142857143,420.49999999999994,111.42678571428571C422.91666666666663,111.40625,425.3333333333333,111.38571428571429,427.75,111.36517857142857C430.1666666666667,111.34464285714286,432.5833333333333,111.32410714285714,435,111.30357142857143C437.4166666666667,111.28303571428572,439.8333333333333,111.2625,442.25,111.24196428571429C444.6666666666667,111.22142857142858,447.0833333333333,111.20089285714285,449.5,111.18035714285713C451.9166666666667,111.15982142857142,454.3333333333333,111.13928571428572,456.75,111.11875C459.1666666666667,111.09821428571429,461.5833333333333,111.07767857142858,464,111.05714285714286C466.4166666666667,111.03660714285715,468.8333333333333,111.01607142857144,471.25,110.99553571428572C473.6666666666667,110.97500000000001,476.0833333333333,110.95446428571428,478.5,110.93392857142857C480.9166666666667,110.91339285714285,483.33333333333337,110.89285714285714,485.75000000000006,110.87232142857142C488.16666666666674,110.85178571428571,490.58333333333337,110.83125,493.00000000000006,110.81071428571428C495.4166666666667,110.79017857142857,497.8333333333333,110.76964285714286,500.24999999999994,110.74910714285714C502.66666666666663,110.72857142857143,505.08333333333326,110.72857142857143,507.49999999999994,110.6875C509.91666666666663,110.64642857142857,512.3333333333333,110.2783653846154,514.75,110.07379807692308C517.1666666666666,109.86923076923078,519.5833333333334,109.66466346153845,522,109.46009615384615C524.4166666666666,109.25552884615385,526.8333333333334,109.05096153846154,529.25,108.84639423076923C531.6666666666666,108.64182692307693,534.0833333333334,108.43725961538462,536.5,108.2326923076923C538.9166666666666,108.02812499999999,541.3333333333334,107.82355769230767,543.75,107.61899038461537C546.1666666666666,107.41442307692307,548.5833333333334,107.20985576923077,551,107.00528846153847C553.4166666666666,106.80072115384617,555.8333333333334,106.59615384615384,558.25,106.39158653846154C560.6666666666666,106.18701923076924,563.0833333333334,105.98245192307692,565.5,105.77788461538462C567.9166666666666,105.57331730769232,570.3333333333334,105.36875,572.75,105.16418269230769C575.1666666666666,104.95961538461538,577.5833333333334,104.75504807692309,580,104.55048076923077C582.4166666666666,104.34591346153846,584.8333333333334,104.14134615384614,587.25,103.93677884615384C589.6666666666666,103.73221153846154,592.0833333333334,103.52764423076923,594.5,103.32307692307693C596.9166666666666,103.11850961538462,599.3333333333334,102.91394230769231,601.75,102.709375C604.1666666666666,102.50480769230768,606.5833333333334,102.30024038461538,609,102.09567307692308C611.4166666666666,101.89110576923078,613.8333333333334,101.68653846153848,616.25,101.48197115384616C618.6666666666666,101.27740384615385,621.0833333333334,101.07283653846153,623.5,100.86826923076923C625.9166666666666,100.66370192307693,628.3333333333334,100.45913461538461,630.75,100.25456730769231C633.1666666666666,100.05000000000001,635.5833333333334,99.8454326923077,638,99.64086538461538C640.4166666666666,99.43629807692307,642.8333333333334,99.23173076923077,645.25,99.02716346153846C647.6666666666666,98.82259615384616,650.0833333333334,98.61802884615386,652.5,98.41346153846155C654.9166666666666,98.20889423076923,657.3333333333334,98.00432692307692,659.75,97.79975961538462C662.1666666666666,97.59519230769232,664.5833333333334,97.390625,667,97.1860576923077C669.4166666666666,96.9814903846154,671.8333333333334,96.77692307692308,674.25,96.57235576923077C676.6666666666666,96.36778846153845,679.0833333333334,96.16322115384617,681.5,95.95865384615385C683.9166666666666,95.75408653846154,686.3333333333334,95.54951923076922,688.75,95.34495192307692C691.1666666666666,95.14038461538462,693.5833333333334,94.9358173076923,696,94.73125C698.4166666666666,94.5266826923077,700.8333333333334,94.32211538461539,703.25,94.11754807692307C705.6666666666666,93.91298076923076,708.0833333333334,93.70841346153847,710.5,93.50384615384615C712.9166666666666,93.29927884615384,715.3333333333334,93.09471153846154,717.75,92.89014423076922C720.1666666666666,92.68557692307691,722.5833333333334,92.4810096153846,725,92.27644230769229C727.4166666666666,92.07187499999999,729.8333333333334,91.86730769230769,732.25,91.66274038461539C734.6666666666666,91.45817307692309,737.0833333333334,91.25360576923077,739.5,91.04903846153846C741.9166666666666,90.84447115384614,744.3333333333334,90.63990384615386,746.75,90.43533653846154C749.1666666666666,90.23076923076923,751.5833333333334,90.02620192307691,754,89.82163461538461C756.4166666666666,89.61706730769231,758.8333333333334,89.4125,761.25,89.2079326923077C763.6666666666666,89.00336538461539,766.0833333333334,88.79879807692308,768.5,88.59423076923078C770.9166666666666,88.38966346153848,773.3333333333334,88.18509615384616,775.75,87.98052884615385C778.1666666666666,87.77596153846153,780.5833333333334,87.57139423076923,783,87.36682692307693C785.4166666666667,87.16225961538461,787.8333333333334,86.95769230769231,790.2500000000001,86.753125C792.6666666666667,86.5485576923077,795.0833333333335,86.34399038461538,797.5000000000001,86.13942307692308C799.9166666666667,85.93485576923078,802.3333333333335,85.73028846153846,804.7500000000001,85.52572115384615C807.1666666666667,85.32115384615383,809.5833333333335,85.11658653846155,812.0000000000001,84.91201923076923C814.4166666666667,84.70745192307693,816.8333333333333,84.5028846153846,819.2499999999999,84.2983173076923C821.6666666666665,84.09374999999999,824.0833333333333,83.88918269230768,826.4999999999999,83.68461538461538C828.9166666666665,83.48004807692308,831.3333333333333,83.27548076923077,833.7499999999999,83.07091346153847C836.1666666666665,82.86634615384617,838.5833333333333,82.66177884615384,840.9999999999999,82.45721153846154C843.4166666666666,82.25264423076922,845.8333333333333,82.04807692307693,848.25,81.84350961538462C850.6666666666666,81.63894230769232,853.0833333333334,81.43437499999999,855.5,81.22980769230769C857.9166666666666,81.02524038461539,860.3333333333334,80.82067307692307,862.75,80.61610576923077C865.1666666666666,80.41153846153847,867.5833333333334,80.20697115384614,870,80.00240384615384C872.4166666666666,79.79783653846154,874.8333333333334,79.59326923076924,877.25,79.38870192307694C879.6666666666666,79.18413461538464,882.0833333333334,78.97956730769232,884.5,78.775C886.9166666666666,78.57043269230769,889.3333333333334,78.36586538461538,891.75,78.16129807692307C894.1666666666666,77.95673076923077,896.5833333333334,77.75216346153846,899,77.54759615384616C901.4166666666666,77.34302884615386,903.8333333333334,77.13846153846154,906.25,76.93389423076923C908.6666666666666,76.72932692307691,911.0833333333334,76.52475961538462,913.5,76.32019230769231C915.9166666666666,76.115625,918.3333333333334,75.91105769230768,920.75,75.70649038461538C923.1666666666666,75.50192307692308,925.5833333333334,75.29735576923076,928,75.09278846153846C930.4166666666666,74.88822115384616,932.8333333333334,74.68365384615383,935.25,74.47908653846153C937.6666666666666,74.27451923076923,940.0833333333334,74.06995192307693,942.5,73.86538461538463C944.9166666666666,73.66081730769233,947.3333333333334,73.45625,949.75,73.25168269230768C952.1666666666666,73.04711538461537,954.5833333333334,72.84254807692307,957,72.63798076923077C959.4166666666666,72.43341346153846,961.8333333333334,72.22884615384615,964.25,72.02427884615385C966.6666666666667,71.81971153846153,969.0833333333334,71.61514423076923,971.5000000000001,71.41057692307692C973.9166666666667,71.20600961538462,976.3333333333335,71.0014423076923,978.7500000000001,70.796875C981.1666666666667,70.5923076923077,983.5833333333335,70.3877403846154,986.0000000000001,70.18317307692308C988.4166666666667,69.97860576923077,990.8333333333335,69.77403846153847,993.2500000000001,69.56947115384615C995.6666666666667,69.36490384615385,998.0833333333333,69.16033653846154,1000.4999999999999,68.95576923076923C1002.9166666666665,68.75120192307692,1005.3333333333333,68.54663461538462,1007.7499999999999,68.3420673076923C1010.1666666666665,68.13749999999999,1012.5833333333333,67.9329326923077,1014.9999999999999,67.72836538461539C1017.4166666666665,67.52379807692307,1019.8333333333333,67.31923076923076,1022.2499999999999,67.11466346153846C1024.6666666666665,66.91009615384614,1027.0833333333333,66.70552884615385,1029.5,66.50096153846154C1031.9166666666667,66.29639423076924,1034.3333333333333,66.09182692307692,1036.75,65.88725961538461C1039.1666666666667,65.68269230769229,1041.5833333333333,65.47812499999999,1044,65.27355769230769C1046.4166666666667,65.06899038461539,1048.8333333333333,64.86442307692307,1051.25,64.65985576923077C1053.6666666666667,64.45528846153847,1056.0833333333333,64.25072115384617,1058.5,64.04615384615386C1060.9166666666667,63.84158653846155,1063.3333333333333,63.63701923076923,1065.75,63.432451923076925C1068.1666666666667,63.22788461538462,1070.5833333333333,63.02331730769231,1073,62.81875C1075.4166666666667,62.61418269230769,1077.8333333333333,62.409615384615385,1080.25,62.20504807692308C1082.6666666666667,62.00048076923077,1085.0833333333333,61.79591346153846,1087.5,61.59134615384615C1089.9166666666667,61.386778846153845,1092.3333333333333,61.18221153846155,1094.75,60.97764423076924C1097.1666666666667,60.773076923076935,1099.5833333333333,60.56850961538461,1102,60.363942307692305C1104.4166666666667,60.159375,1106.8333333333333,59.954807692307696,1109.25,59.75024038461539C1111.6666666666667,59.54567307692308,1114.0833333333333,59.34110576923076,1116.5,59.13653846153845C1118.9166666666667,58.93197115384614,1121.3333333333333,58.72740384615385,1123.75,58.52283653846154C1126.1666666666667,58.31826923076923,1128.5833333333333,58.113701923076924,1131,57.909134615384616C1133.4166666666667,57.70456730769231,1135.8333333333333,57.5,1138.25,57.29543269230769C1140.6666666666667,57.090865384615384,1143.0833333333333,56.886298076923076,1145.5,56.68173076923077C1147.9166666666667,56.47716346153846,1150.3333333333333,56.27259615384615,1152.75,56.068028846153844C1155.1666666666667,55.863461538461536,1157.5833333333333,55.65889423076923,1160,55.45432692307692C1162.4166666666667,55.24975961538461,1164.8333333333333,55.045192307692304,1167.25,54.840624999999996C1169.6666666666667,54.63605769230769,1172.0833333333333,54.43149038461539,1174.5,54.22692307692308C1176.9166666666667,54.02235576923077,1179.3333333333333,53.81778846153846,1181.75,53.613221153846155C1184.1666666666667,53.40865384615385,1186.5833333333333,53.20408653846155,1189,52.999519230769245C1191.4166666666667,52.79495192307694,1193.8333333333333,52.590384615384615,1196.25,52.38581730769231C1198.6666666666667,52.18125,1201.0833333333333,51.976682692307705,1203.5,51.7721153846154C1205.9166666666667,51.56754807692309,1208.3333333333333,51.36298076923077,1210.75,51.15841346153846C1213.1666666666667,50.95384615384615,1215.5833333333333,50.74927884615386,1218,50.54471153846155C1220.4166666666667,50.34014423076924,1222.8333333333333,50.135576923076925,1225.25,49.93100961538462C1227.6666666666667,49.72644230769231,1230.0833333333333,49.521875,1232.5,49.31730769230769C1234.9166666666667,49.112740384615385,1237.3333333333333,48.90817307692308,1239.75,48.70360576923077C1242.1666666666667,48.49903846153846,1244.5833333333333,48.29447115384615,1247,48.089903846153845C1249.4166666666667,47.88533653846154,1251.8333333333333,47.68076923076923,1254.25,47.47620192307692C1256.6666666666667,47.27163461538461,1259.0833333333333,47.067067307692305,1261.5,46.8625C1263.9166666666667,46.65793269230769,1266.3333333333333,46.45336538461538,1268.75,46.24879807692307C1271.1666666666667,46.044230769230765,1273.5833333333333,45.83966346153846,1276,45.63509615384615C1278.4166666666667,45.43052884615384,1280.8333333333333,45.22596153846153,1283.25,45.021394230769225C1285.6666666666667,44.81682692307692,1288.0833333333333,44.61225961538461,1290.5,44.4076923076923C1292.9166666666667,44.20312499999999,1295.3333333333333,43.99855769230769,1297.75,43.793990384615384C1300.1666666666667,43.589423076923076,1302.5833333333333,43.38485576923077,1305,43.18028846153846C1307.4166666666667,42.97572115384615,1309.8333333333333,42.77115384615386,1312.25,42.56658653846155C1314.6666666666667,42.36201923076924,1317.0833333333333,42.15745192307692,1319.5,41.95288461538461C1321.9166666666667,41.748317307692304,1324.3333333333333,41.54375000000001,1326.75,41.3391826923077C1329.1666666666667,41.134615384615394,1331.5833333333333,40.930048076923086,1334,40.72548076923078C1336.4166666666667,40.52091346153847,1338.8333333333333,40.31634615384616,1341.25,40.111778846153854C1343.6666666666667,39.907211538461546,1346.0833333333333,39.702644230769224,1348.5,39.498076923076916C1350.9166666666667,39.29350961538461,1353.3333333333333,39.08894230769231,1355.75,38.884375C1358.1666666666667,38.67980769230769,1360.5833333333333,38.47524038461538,1363,38.270673076923075C1365.4166666666667,38.06610576923077,1367.8333333333333,37.86153846153846,1370.25,37.65697115384615C1372.6666666666667,37.45240384615384,1375.0833333333333,37.24783653846155,1377.5,37.04326923076924C1379.9166666666667,36.83870192307693,1382.3333333333333,36.63413461538461,1384.75,36.4295673076923C1387.1666666666667,36.224999999999994,1389.5833333333333,36.020432692307686,1392,35.81586538461538C1394.4166666666667,35.61129807692307,1396.8333333333333,35.406730769230776,1399.25,35.20216346153847C1401.6666666666667,34.99759615384616,1404.0833333333333,34.793028846153845,1406.5,34.58846153846154C1408.9166666666667,34.38389423076923,1411.3333333333333,34.179326923076914,1413.75,33.974759615384606C1416.1666666666667,33.7701923076923,1418.5833333333333,33.565625,1421,33.36105769230769C1423.4166666666667,33.15649038461538,1425.8333333333333,32.95192307692307,1428.25,32.747355769230765C1430.6666666666667,32.54278846153846,1433.0833333333333,32.33822115384616,1435.5,32.133653846153855C1437.9166666666667,31.929086538461547,1440.3333333333333,31.724519230769225,1442.75,31.519951923076917C1445.1666666666667,31.31538461538461,1447.5833333333333,31.110817307692304,1450,30.906250000000004" fill="transparent" stroke-linecap="round" stroke="#B6509E" stroke-width="2"></path><path class="visx-linepath" d="M0,107.81249999979465C2.4166666666666665,107.77827380940403,4.833333333333334,107.7440476190134,7.25,107.70982142857143C9.666666666666666,107.67559523812946,12.083333333333334,107.64136904761905,14.5,107.60714285714286C16.916666666666668,107.57291666666667,19.333333333333332,107.53869047619048,21.75,107.50446428571429C24.166666666666668,107.4702380952381,26.583333333333332,107.43601190476191,29,107.40178571428572C31.416666666666668,107.36755952380953,33.833333333333336,107.33333333333333,36.25,107.29910714285714C38.666666666666664,107.26488095238095,41.083333333333336,107.23065476190476,43.5,107.19642857142857C45.91666666666667,107.16220238095238,48.333333333333336,107.12797619047619,50.75000000000001,107.09375C53.16666666666667,107.05952380952381,55.583333333333336,107.02529761904762,58,106.99107142857143C60.416666666666664,106.95684523809524,62.833333333333336,106.92261904761905,65.25,106.88839285714286C67.66666666666667,106.85416666666667,70.08333333333333,106.81994047619048,72.5,106.78571428571429C74.91666666666667,106.7514880952381,77.33333333333333,106.71726190476191,79.75,106.68303571428572C82.16666666666667,106.64880952380953,84.58333333333333,106.61458333333334,87,106.58035714285715C89.41666666666667,106.54613095238096,91.83333333333333,106.51190476190476,94.25,106.47767857142857C96.66666666666667,106.44345238095238,99.08333333333334,106.40922619047619,101.50000000000001,106.375C103.91666666666667,106.34077380952381,106.33333333333334,106.30654761904762,108.75,106.27232142857143C111.16666666666667,106.23809523809524,113.58333333333333,106.20386904761905,116,106.16964285714286C118.41666666666667,106.13541666666667,120.83333333333334,106.10119047619047,123.25000000000001,106.06696428571428C125.66666666666667,106.03273809523809,128.08333333333334,105.9985119047619,130.5,105.96428571428571C132.91666666666666,105.93005952380952,135.33333333333334,105.89583333333333,137.75,105.86160714285714C140.16666666666666,105.82738095238095,142.58333333333334,105.79315476190477,145,105.75892857142858C147.41666666666666,105.7247023809524,149.83333333333334,105.69047619047619,152.25,105.65625C154.66666666666666,105.62202380952381,157.08333333333334,105.58779761904762,159.5,105.55357142857143C161.91666666666666,105.51934523809524,164.33333333333334,105.48511904761904,166.75,105.45089285714285C169.16666666666666,105.41666666666666,171.58333333333334,105.38244047619047,174,105.34821428571428C176.41666666666666,105.31398809523809,178.83333333333334,105.2797619047619,181.25,105.24553571428571C183.66666666666666,105.21130952380952,186.08333333333334,105.17708333333333,188.5,105.14285714285714C190.91666666666666,105.10863095238095,193.33333333333334,105.07440476190476,195.75,105.04017857142857C198.16666666666669,105.00595238095238,200.58333333333334,104.97172619047619,203.00000000000003,104.9375C205.41666666666669,104.90327380952381,207.83333333333331,104.86904761904762,210.24999999999997,104.83482142857143C212.66666666666666,104.80059523809524,215.08333333333331,104.76636904761905,217.5,104.73214285714286C219.91666666666666,104.69791666666667,222.33333333333334,104.66369047619047,224.75,104.62946428571428C227.16666666666666,104.59523809523809,229.58333333333334,104.5610119047619,232,104.52678571428571C234.41666666666666,104.49255952380952,236.83333333333334,104.45833333333333,239.25,104.42410714285714C241.66666666666669,104.38988095238095,244.08333333333334,104.35565476190476,246.50000000000003,104.32142857142857C248.91666666666669,104.28720238095238,251.33333333333331,104.25297619047619,253.74999999999997,104.21875C256.16666666666663,104.18452380952381,258.5833333333333,104.15029761904762,261,104.11607142857143C263.4166666666667,104.08184523809524,265.8333333333333,104.04761904761905,268.25,104.01339285714286C270.6666666666667,103.97916666666667,273.0833333333333,103.94494047619048,275.5,103.91071428571429C277.9166666666667,103.8764880952381,280.3333333333333,103.84226190476191,282.75,103.80803571428572C285.1666666666667,103.77380952380953,287.5833333333333,103.73958333333333,290,103.70535714285714C292.4166666666667,103.67113095238095,294.8333333333333,103.63690476190476,297.25,103.60267857142857C299.6666666666667,103.56845238095238,302.0833333333333,103.53422619047619,304.5,103.5C306.9166666666667,103.46577380952381,309.3333333333333,103.43154761904762,311.75,103.39732142857143C314.1666666666667,103.36309523809524,316.5833333333333,103.32886904761905,319,103.29464285714286C321.4166666666667,103.26041666666667,323.8333333333333,103.22619047619048,326.25,103.19196428571429C328.6666666666667,103.1577380952381,331.0833333333333,103.12351190476191,333.5,103.08928571428572C335.9166666666667,103.05505952380953,338.3333333333333,103.02083333333334,340.75,102.98660714285715C343.1666666666667,102.95238095238096,345.5833333333333,102.91815476190476,348,102.88392857142857C350.4166666666667,102.84970238095238,352.8333333333333,102.81547619047619,355.25,102.78125C357.6666666666667,102.74702380952381,360.0833333333333,102.71279761904762,362.5,102.67857142857143C364.9166666666667,102.64434523809524,367.3333333333333,102.61011904761905,369.75,102.57589285714286C372.1666666666667,102.54166666666667,374.5833333333333,102.50744047619047,377,102.47321428571428C379.4166666666667,102.43898809523809,381.8333333333333,102.40476190476191,384.25,102.37053571428572C386.6666666666667,102.33630952380953,389.0833333333333,102.30208333333334,391.5,102.26785714285715C393.9166666666667,102.23363095238096,396.33333333333337,102.19940476190476,398.75000000000006,102.16517857142857C401.16666666666674,102.13095238095238,403.58333333333337,102.09672619047619,406.00000000000006,102.0625C408.4166666666667,102.02827380952381,410.8333333333333,101.99404761904762,413.24999999999994,101.95982142857143C415.66666666666663,101.92559523809524,418.08333333333326,101.89136904761904,420.49999999999994,101.85714285714285C422.91666666666663,101.82291666666666,425.3333333333333,101.78869047619047,427.75,101.75446428571428C430.1666666666667,101.72023809523809,432.5833333333333,101.6860119047619,435,101.65178571428571C437.4166666666667,101.61755952380952,439.8333333333333,101.58333333333333,442.25,101.54910714285714C444.6666666666667,101.51488095238095,447.0833333333333,101.48065476190476,449.5,101.44642857142857C451.9166666666667,101.41220238095238,454.3333333333333,101.37797619047619,456.75,101.34375C459.1666666666667,101.30952380952381,461.5833333333333,101.27529761904762,464,101.24107142857143C466.4166666666667,101.20684523809524,468.8333333333333,101.17261904761905,471.25,101.13839285714286C473.6666666666667,101.10416666666667,476.0833333333333,101.06994047619047,478.5,101.03571428571428C480.9166666666667,101.00148809523809,483.33333333333337,100.9672619047619,485.75000000000006,100.93303571428571C488.16666666666674,100.89880952380952,490.58333333333337,100.86458333333333,493.00000000000006,100.83035714285714C495.4166666666667,100.79613095238095,497.8333333333333,100.76190476190476,500.24999999999994,100.72767857142857C502.66666666666663,100.69345238095238,505.08333333333326,100.69345238095238,507.49999999999994,100.625C509.91666666666663,100.55654761904762,512.3333333333333,100.21586538461538,514.75,100.01129807692307C517.1666666666666,99.80673076923077,519.5833333333334,99.60216346153845,522,99.39759615384615C524.4166666666666,99.19302884615385,526.8333333333334,98.98846153846154,529.25,98.78389423076922C531.6666666666666,98.5793269230769,534.0833333333334,98.3747596153846,536.5,98.1701923076923C538.9166666666666,97.965625,541.3333333333334,97.7610576923077,543.75,97.55649038461539C546.1666666666666,97.35192307692307,548.5833333333334,97.14735576923076,551,96.94278846153846C553.4166666666666,96.73822115384615,555.8333333333334,96.53365384615384,558.25,96.32908653846154C560.6666666666666,96.12451923076924,563.0833333333334,95.91995192307692,565.5,95.71538461538462C567.9166666666666,95.51081730769232,570.3333333333334,95.30625,572.75,95.10168269230769C575.1666666666666,94.89711538461538,577.5833333333334,94.69254807692306,580,94.48798076923076C582.4166666666666,94.28341346153846,584.8333333333334,94.07884615384616,587.25,93.87427884615386C589.6666666666666,93.66971153846156,592.0833333333334,93.46514423076923,594.5,93.26057692307693C596.9166666666666,93.05600961538462,599.3333333333334,92.85144230769231,601.75,92.64687500000001C604.1666666666666,92.44230769230771,606.5833333333334,92.23774038461539,609,92.03317307692308C611.4166666666666,91.82860576923076,613.8333333333334,91.62403846153848,616.25,91.41947115384616C618.6666666666666,91.21490384615385,621.0833333333334,91.01033653846154,623.5,90.80576923076923C625.9166666666666,90.60120192307691,628.3333333333334,90.39663461538461,630.75,90.1920673076923C633.1666666666666,89.98749999999998,635.5833333333334,89.7829326923077,638,89.57836538461538C640.4166666666666,89.37379807692307,642.8333333333334,89.16923076923075,645.25,88.96466346153845C647.6666666666666,88.76009615384615,650.0833333333334,88.55552884615383,652.5,88.35096153846153C654.9166666666666,88.14639423076923,657.3333333333334,87.94182692307692,659.75,87.73725961538462C662.1666666666666,87.53269230769232,664.5833333333334,87.328125,667,87.1235576923077C669.4166666666666,86.9189903846154,671.8333333333334,86.71442307692308,674.25,86.50985576923077C676.6666666666666,86.30528846153845,679.0833333333334,86.10072115384617,681.5,85.89615384615385C683.9166666666666,85.69158653846154,686.3333333333334,85.48701923076922,688.75,85.28245192307692C691.1666666666666,85.07788461538462,693.5833333333334,84.8733173076923,696,84.66875C698.4166666666666,84.4641826923077,700.8333333333334,84.25961538461539,703.25,84.05504807692309C705.6666666666666,83.85048076923078,708.0833333333334,83.64591346153847,710.5,83.44134615384615C712.9166666666666,83.23677884615384,715.3333333333334,83.03221153846155,717.75,82.82764423076924C720.1666666666666,82.62307692307692,722.5833333333334,82.41850961538461,725,82.2139423076923C727.4166666666666,82.009375,729.8333333333334,81.80480769230769,732.25,81.60024038461539C734.6666666666666,81.39567307692309,737.0833333333334,81.19110576923077,739.5,80.98653846153846C741.9166666666666,80.78197115384614,744.3333333333334,80.57740384615386,746.75,80.37283653846154C749.1666666666666,80.16826923076923,751.5833333333334,79.96370192307691,754,79.75913461538461C756.4166666666666,79.55456730769231,758.8333333333334,79.35,761.25,79.1454326923077C763.6666666666666,78.94086538461539,766.0833333333334,78.73629807692308,768.5,78.53173076923076C770.9166666666666,78.32716346153845,773.3333333333334,78.12259615384615,775.75,77.91802884615385C778.1666666666666,77.71346153846154,780.5833333333334,77.50889423076923,783,77.30432692307693C785.4166666666667,77.09975961538461,787.8333333333334,76.89519230769231,790.2500000000001,76.690625C792.6666666666667,76.4860576923077,795.0833333333335,76.28149038461538,797.5000000000001,76.07692307692308C799.9166666666667,75.87235576923078,802.3333333333335,75.66778846153846,804.7500000000001,75.46322115384615C807.1666666666667,75.25865384615383,809.5833333333335,75.05408653846155,812.0000000000001,74.84951923076923C814.4166666666667,74.64495192307693,816.8333333333333,74.44038461538462,819.2499999999999,74.23581730769232C821.6666666666665,74.03125,824.0833333333333,73.82668269230768,826.4999999999999,73.62211538461538C828.9166666666665,73.41754807692308,831.3333333333333,73.21298076923077,833.7499999999999,73.00841346153847C836.1666666666665,72.80384615384617,838.5833333333333,72.59927884615384,840.9999999999999,72.39471153846154C843.4166666666666,72.19014423076922,845.8333333333333,71.98557692307693,848.25,71.78100961538462C850.6666666666666,71.57644230769232,853.0833333333334,71.37187499999999,855.5,71.16730769230769C857.9166666666666,70.96274038461539,860.3333333333334,70.75817307692307,862.75,70.55360576923077C865.1666666666666,70.34903846153847,867.5833333333334,70.14447115384615,870,69.93990384615384C872.4166666666666,69.73533653846152,874.8333333333334,69.53076923076924,877.25,69.32620192307692C879.6666666666666,69.12163461538461,882.0833333333334,68.91706730769229,884.5,68.71249999999999C886.9166666666666,68.50793269230769,889.3333333333334,68.30336538461538,891.75,68.09879807692307C894.1666666666666,67.89423076923077,896.5833333333334,67.68966346153846,899,67.48509615384614C901.4166666666666,67.28052884615383,903.8333333333334,67.07596153846153,906.25,66.87139423076923C908.6666666666666,66.66682692307693,911.0833333333334,66.46225961538461,913.5,66.25769230769231C915.9166666666666,66.05312500000001,918.3333333333334,65.84855769230771,920.75,65.64399038461539C923.1666666666666,65.43942307692308,925.5833333333334,65.23485576923076,928,65.03028846153846C930.4166666666666,64.82572115384616,932.8333333333334,64.62115384615385,935.25,64.41658653846154C937.6666666666666,64.21201923076924,940.0833333333334,64.00745192307693,942.5,63.80288461538462C944.9166666666666,63.59831730769231,947.3333333333334,63.393750000000004,949.75,63.189182692307696C952.1666666666666,62.98461538461539,954.5833333333334,62.78004807692308,957,62.57548076923077C959.4166666666666,62.370913461538464,961.8333333333334,62.16634615384615,964.25,61.96177884615384C966.6666666666667,61.75721153846153,969.0833333333334,61.552644230769225,971.5000000000001,61.34807692307692C973.9166666666667,61.14350961538461,976.3333333333335,60.9389423076923,978.7500000000001,60.73437499999999C981.1666666666667,60.529807692307685,983.5833333333335,60.32524038461539,986.0000000000001,60.12067307692308C988.4166666666667,59.916105769230775,990.8333333333335,59.71153846153845,993.2500000000001,59.506971153846145C995.6666666666667,59.30240384615384,998.0833333333333,59.09783653846154,1000.4999999999999,58.893269230769235C1002.9166666666665,58.68870192307693,1005.3333333333333,58.484134615384605,1007.7499999999999,58.2795673076923C1010.1666666666665,58.07499999999999,1012.5833333333333,57.870432692307695,1014.9999999999999,57.66586538461539C1017.4166666666665,57.46129807692308,1019.8333333333333,57.25673076923077,1022.2499999999999,57.05216346153846C1024.6666666666665,56.847596153846155,1027.0833333333333,56.64302884615384,1029.5,56.43846153846153C1031.9166666666667,56.233894230769224,1034.3333333333333,56.029326923076916,1036.75,55.82475961538461C1039.1666666666667,55.6201923076923,1041.5833333333333,55.415625000000006,1044,55.2110576923077C1046.4166666666667,55.00649038461539,1048.8333333333333,54.80192307692308,1051.25,54.597355769230774C1053.6666666666667,54.392788461538466,1056.0833333333333,54.18822115384616,1058.5,53.98365384615385C1060.9166666666667,53.77908653846154,1063.3333333333333,53.57451923076923,1065.75,53.369951923076925C1068.1666666666667,53.16538461538462,1070.5833333333333,52.96081730769231,1073,52.75625C1075.4166666666667,52.55168269230769,1077.8333333333333,52.34711538461539,1080.25,52.142548076923084C1082.6666666666667,51.937980769230776,1085.0833333333333,51.733413461538454,1087.5,51.528846153846146C1089.9166666666667,51.32427884615384,1092.3333333333333,51.119711538461544,1094.75,50.915144230769236C1097.1666666666667,50.71057692307693,1099.5833333333333,50.506009615384606,1102,50.3014423076923C1104.4166666666667,50.09687499999999,1106.8333333333333,49.892307692307696,1109.25,49.68774038461539C1111.6666666666667,49.48317307692308,1114.0833333333333,49.27860576923077,1116.5,49.074038461538464C1118.9166666666667,48.869471153846156,1121.3333333333333,48.66490384615385,1123.75,48.46033653846154C1126.1666666666667,48.25576923076923,1128.5833333333333,48.051201923076924,1131,47.846634615384616C1133.4166666666667,47.64206730769231,1135.8333333333333,47.4375,1138.25,47.23293269230769C1140.6666666666667,47.028365384615384,1143.0833333333333,46.823798076923076,1145.5,46.61923076923077C1147.9166666666667,46.41466346153846,1150.3333333333333,46.21009615384616,1152.75,46.00552884615385C1155.1666666666667,45.80096153846154,1157.5833333333333,45.59639423076922,1160,45.39182692307691C1162.4166666666667,45.187259615384605,1164.8333333333333,44.98269230769231,1167.25,44.778125C1169.6666666666667,44.573557692307695,1172.0833333333333,44.36899038461539,1174.5,44.16442307692308C1176.9166666666667,43.95985576923077,1179.3333333333333,43.75528846153846,1181.75,43.550721153846155C1184.1666666666667,43.34615384615385,1186.5833333333333,43.14158653846154,1189,42.93701923076923C1191.4166666666667,42.73245192307692,1193.8333333333333,42.527884615384615,1196.25,42.32331730769231C1198.6666666666667,42.11875,1201.0833333333333,41.9141826923077,1203.5,41.70961538461539C1205.9166666666667,41.50504807692308,1208.3333333333333,41.30048076923076,1210.75,41.09591346153845C1213.1666666666667,40.89134615384614,1215.5833333333333,40.686778846153864,1218,40.482211538461556C1220.4166666666667,40.27764423076925,1222.8333333333333,40.073076923076925,1225.25,39.86850961538462C1227.6666666666667,39.66394230769231,1230.0833333333333,39.459375,1232.5,39.25480769230769C1234.9166666666667,39.050240384615385,1237.3333333333333,38.84567307692306,1239.75,38.641105769230755C1242.1666666666667,38.43653846153845,1244.5833333333333,38.23197115384617,1247,38.02740384615386C1249.4166666666667,37.82283653846155,1251.8333333333333,37.61826923076923,1254.25,37.41370192307692C1256.6666666666667,37.20913461538461,1259.0833333333333,37.004567307692305,1261.5,36.8C1263.9166666666667,36.59543269230769,1266.3333333333333,36.39086538461539,1268.75,36.18629807692308C1271.1666666666667,35.98173076923077,1273.5833333333333,35.777163461538464,1276,35.572596153846156C1278.4166666666667,35.36802884615385,1280.8333333333333,35.163461538461526,1283.25,34.95889423076922C1285.6666666666667,34.75432692307691,1288.0833333333333,34.549759615384616,1290.5,34.34519230769231C1292.9166666666667,34.140625,1295.3333333333333,33.93605769230769,1297.75,33.731490384615384C1300.1666666666667,33.526923076923076,1302.5833333333333,33.32235576923077,1305,33.11778846153846C1307.4166666666667,32.91322115384615,1309.8333333333333,32.708653846153844,1312.25,32.504086538461536C1314.6666666666667,32.29951923076923,1317.0833333333333,32.09495192307691,1319.5,31.89038461538461C1321.9166666666667,31.685817307692304,1324.3333333333333,31.481250000000006,1326.75,31.2766826923077C1329.1666666666667,31.07211538461539,1331.5833333333333,30.867548076923065,1334,30.66298076923076C1336.4166666666667,30.458413461538456,1338.8333333333333,30.25384615384617,1341.25,30.04927884615386C1343.6666666666667,29.844711538461553,1346.0833333333333,29.640144230769234,1348.5,29.435576923076923C1350.9166666666667,29.23100961538461,1353.3333333333333,29.026442307692307,1355.75,28.821875C1358.1666666666667,28.61730769230769,1360.5833333333333,28.41274038461539,1363,28.208173076923085C1365.4166666666667,28.00360576923078,1367.8333333333333,27.799038461538473,1370.25,27.59447115384616C1372.6666666666667,27.38990384615385,1375.0833333333333,27.18533653846153,1377.5,26.980769230769223C1379.9166666666667,26.776201923076915,1382.3333333333333,26.571634615384617,1384.75,26.367067307692313C1387.1666666666667,26.16250000000001,1389.5833333333333,25.957932692307697,1392,25.75336538461539C1394.4166666666667,25.54879807692308,1396.8333333333333,25.344230769230773,1399.25,25.13966346153846C1401.6666666666667,24.93509615384615,1404.0833333333333,24.730528846153835,1406.5,24.525961538461527C1408.9166666666667,24.32139423076922,1411.3333333333333,24.11682692307692,1413.75,23.912259615384613C1416.1666666666667,23.707692307692305,1418.5833333333333,23.503124999999997,1421,23.29855769230769C1423.4166666666667,23.09399038461538,1425.8333333333333,22.88942307692307,1428.25,22.684855769230765C1430.6666666666667,22.48028846153846,1433.0833333333333,22.275721153846174,1435.5,22.071153846153866C1437.9166666666667,21.866586538461558,1440.3333333333333,21.662019230769225,1442.75,21.457451923076913C1445.1666666666667,21.252884615384602,1447.5833333333333,21.048317307692304,1450,20.843750000000004" fill="transparent" stroke-linecap="round" stroke="#E7C6DF" stroke-width="2"></path><g class="visx-group visx-axis visx-axis-bottom" transform="translate(0, 115)"><g class="visx-group visx-axis-tick" transform="translate(0, 0)"><line class="visx-line" x1="0" y1="0" x2="0" y2="8" fill="transparent" shape-rendering="crispEdges" stroke="#000" stroke-width="0" stroke-linecap="square"></line><svg x="0" y="0" font-size="10" style="overflow:visible"><text transform="" x="0" y="18" fill="#000" font-size="10" text-anchor="middle"><tspan x="0" dy="0em">0%</tspan></text></svg></g><g class="visx-group visx-axis-tick" transform="translate(0, 0)"><line class="visx-line" x1="362.5" y1="0" x2="362.5" y2="8" fill="transparent" shape-rendering="crispEdges" stroke="#000" stroke-width="0" stroke-linecap="square"></line><svg x="0" y="0" font-size="10" style="overflow:visible"><text transform="" x="362.5" y="18" fill="#000" font-size="10" text-anchor="middle"><tspan x="362.5" dy="0em">25%</tspan></text></svg></g><g class="visx-group visx-axis-tick" transform="translate(0, 0)"><line class="visx-line" x1="725" y1="0" x2="725" y2="8" fill="transparent" shape-rendering="crispEdges" stroke="#000" stroke-width="0" stroke-linecap="square"></line><svg x="0" y="0" font-size="10" style="overflow:visible"><text transform="" x="725" y="18" fill="#000" font-size="10" text-anchor="middle"><tspan x="725" dy="0em">50%</tspan></text></svg></g><g class="visx-group visx-axis-tick" transform="translate(0, 0)"><line class="visx-line" x1="1087.5" y1="0" x2="1087.5" y2="8" fill="transparent" shape-rendering="crispEdges" stroke="#000" stroke-width="0" stroke-linecap="square"></line><svg x="0" y="0" font-size="10" style="overflow:visible"><text transform="" x="1087.5" y="18" fill="#000" font-size="10" text-anchor="middle"><tspan x="1087.5" dy="0em">75%</tspan></text></svg></g><g class="visx-group visx-axis-tick" transform="translate(0, 0)"><line class="visx-line" x1="1450" y1="0" x2="1450" y2="8" fill="transparent" shape-rendering="crispEdges" stroke="#000" stroke-width="0" stroke-linecap="square"></line><svg x="0" y="0" font-size="10" style="overflow:visible"><text transform="" x="1450" y="18" fill="#000" font-size="10" text-anchor="middle"><tspan x="1450" dy="0em">100%</tspan></text></svg></g><line class="visx-line visx-axis-line" x1="0.5" y1="0" x2="1450.5" y2="0" fill="transparent" shape-rendering="crispEdges" stroke="#222" stroke-width="0"></line></g><g class="visx-group visx-axis visx-axis-left" transform="translate(0, 0)"><g class="visx-group visx-axis-tick" transform="translate(0, 0)"><line class="visx-line" x1="0" y1="115" x2="-8" y2="115" fill="transparent" shape-rendering="crispEdges" stroke="#222" stroke-width="0" stroke-linecap="square"></line><svg x="-30" y="0" font-size="8" style="overflow:visible"><text transform="" x="-8" y="115" fill="#000" font-size="8" text-anchor="start"><tspan x="-8" dy="0em">0%</tspan></text></svg></g><g class="visx-group visx-axis-tick" transform="translate(0, 0)"><line class="visx-line" x1="0" y1="43.125" x2="-8" y2="43.125" fill="transparent" shape-rendering="crispEdges" stroke="#222" stroke-width="0" stroke-linecap="square"></line><svg x="-30" y="0" font-size="8" style="overflow:visible"><text transform="" x="-8" y="43.125" fill="#000" font-size="8" text-anchor="start"><tspan x="-8" dy="0em">100%</tspan></text></svg></g><line class="visx-line visx-axis-line" x1="0" y1="115.5" x2="0" y2="0.5" fill="transparent" shape-rendering="crispEdges" stroke="#222" stroke-width="0"></line></g><rect class="visx-bar" width="1450" height="115" fill="transparent"></rect><line class="visx-line" x1="507.49999999999994" y1="28" x2="507.49999999999994" y2="115" fill="transparent" shape-rendering="crispEdges" stroke="#0062D2" stroke-width="1" pointer-events="none" stroke-dasharray="5,2"></line><svg x="0" y="0" font-size="10px" style="overflow:visible"><text transform="" x="507.49999999999994" y="20" font-size="10px" fill="#fff" stroke="#fff" stroke-width="0.8em" text-anchor="middle"><tspan x="507.49999999999994" dy="0.355em">Optimal 35%</tspan></text></svg><svg x="0" y="0" font-size="10px" style="overflow:visible"><text transform="" x="507.49999999999994" y="20" font-size="10px" fill="#62677B" text-anchor="middle"><tspan x="507.49999999999994" dy="0.355em">Optimal 35%</tspan></text></svg></g></svg>