<?xml version="1.0"?><svg xmlns="http://www.w3.org/2000/svg" xmlns:xlink= "http://www.w3.org/1999/xlink" style="background: white;" width="1500" height="185"> <g style="color: black; font-size: 13px; font-family: sans-serif; transform: translate(18px, 25px);"><g><circle r="3" cx="-6" cy="-5" style="fill: #B6509E" /><text>Borrow APR, variable</text></g><g style="transform: translateX(150px);"><circle r="3" cx="-6" cy="-5" style="fill: rgb(231, 198, 223)" /><text>Borrow APR, stable</text></g><g style="transform: translateX(290px);"><circle r="3" cx="-6" cy="-5" style="fill: rgb(0, 98, 210)" /><text>Utilization Rate</text></g></g><g class="visx-group" transform="translate(40, 50)"><g class="visx-group visx-rows" transform="translate(0, 0)"><line class="visx-line" x1="0" y1="115" x2="1450" y2="115" fill="transparent" shape-rendering="crispEdges" stroke="#000" stroke-width="1" stroke-dasharray="3,3" pointer-events="none"></line><line class="visx-line" x1="0" y1="62.72727272727272" x2="1450" y2="62.72727272727272" fill="transparent" shape-rendering="crispEdges" stroke="#000" stroke-width="1" stroke-dasharray="3,3" pointer-events="none"></line><line class="visx-line" x1="0" y1="10.454545454545459" x2="1450" y2="10.454545454545459" fill="transparent" shape-rendering="crispEdges" stroke="#000" stroke-width="1" stroke-dasharray="3,3" pointer-events="none"></line></g><path class="visx-linepath" d="M0,114.99999999994498C2.4166666666666665,114.99082934606041,4.833333333333334,114.98165869217583,7.25,114.9724880382775C9.666666666666666,114.96331738437918,12.083333333333334,114.95414673046253,14.5,114.94497607655502C16.916666666666668,114.93580542264752,19.333333333333332,114.92663476874003,21.75,114.91746411483253C24.166666666666668,114.90829346092502,26.583333333333332,114.89912280701753,29,114.88995215311004C31.416666666666668,114.88078149920256,33.833333333333336,114.87161084529504,36.25,114.86244019138755C38.666666666666664,114.85326953748006,41.083333333333336,114.84409888357257,43.5,114.83492822966508C45.91666666666667,114.82575757575759,48.333333333333336,114.81658692185009,50.75000000000001,114.80741626794259C53.16666666666667,114.7982456140351,55.583333333333336,114.78907496012759,58,114.7799043062201C60.416666666666664,114.7707336523126,62.833333333333336,114.76156299840511,65.25,114.75239234449761C67.66666666666667,114.7432216905901,70.08333333333333,114.73405103668262,72.5,114.72488038277513C74.91666666666667,114.71570972886764,77.33333333333333,114.70653907496012,79.75,114.69736842105263C82.16666666666667,114.68819776714514,84.58333333333333,114.67902711323765,87,114.66985645933015C89.41666666666667,114.66068580542264,91.83333333333333,114.65151515151516,94.25,114.64234449760765C96.66666666666667,114.63317384370015,99.08333333333334,114.62400318979266,101.50000000000001,114.61483253588516C103.91666666666667,114.60566188197767,106.33333333333334,114.59649122807016,108.75,114.58732057416267C111.16666666666667,114.57814992025519,113.58333333333333,114.56897926634768,116,114.5598086124402C118.41666666666667,114.5506379585327,120.83333333333334,114.54146730462521,123.25000000000001,114.53229665071771C125.66666666666667,114.52312599681022,128.08333333333334,114.5139553429027,130.5,114.50478468899522C132.91666666666666,114.49561403508771,135.33333333333334,114.48644338118024,137.75,114.47727272727273C140.16666666666666,114.46810207336523,142.58333333333334,114.45893141945774,145,114.44976076555024C147.41666666666666,114.44059011164273,149.83333333333334,114.43141945773525,152.25,114.42224880382776C154.66666666666666,114.41307814992027,157.08333333333334,114.40390749601275,159.5,114.39473684210526C161.91666666666666,114.38556618819777,164.33333333333334,114.37639553429028,166.75,114.36722488038278C169.16666666666666,114.35805422647528,171.58333333333334,114.34888357256779,174,114.33971291866028C176.41666666666666,114.33054226475278,178.83333333333334,114.32137161084529,181.25,114.3122009569378C183.66666666666666,114.30303030303031,186.08333333333334,114.2938596491228,188.5,114.2846889952153C190.91666666666666,114.27551834130782,193.33333333333334,114.26634768740031,195.75,114.25717703349282C198.16666666666669,114.24800637958533,200.58333333333334,114.23883572567784,203.00000000000003,114.22966507177034C205.41666666666669,114.22049441786285,207.83333333333331,114.21132376395533,210.24999999999997,114.20215311004785C212.66666666666666,114.19298245614034,215.08333333333331,114.18381180223287,217.5,114.17464114832536C219.91666666666666,114.16547049441787,222.33333333333334,114.15629984051037,224.75,114.14712918660287C227.16666666666666,114.13795853269536,229.58333333333334,114.12878787878788,232,114.11961722488039C234.41666666666666,114.1104465709729,236.83333333333334,114.10127591706538,239.25,114.09210526315789C241.66666666666669,114.08293460925039,244.08333333333334,114.07376395534291,246.50000000000003,114.06459330143541C248.91666666666669,114.05542264752792,251.33333333333331,114.0462519936204,253.74999999999997,114.03708133971291C256.16666666666663,114.02791068580541,258.5833333333333,114.01874003189793,261,114.00956937799043C263.4166666666667,114.00039872408294,265.8333333333333,113.99122807017542,268.25,113.98205741626793C270.6666666666667,113.97288676236045,273.0833333333333,113.96371610845296,275.5,113.95454545454547C277.9166666666667,113.94537480063798,280.3333333333333,113.93620414673047,282.75,113.92703349282297C285.1666666666667,113.91786283891547,287.5833333333333,113.90869218500796,290,113.89952153110048C292.4166666666667,113.89035087719299,294.8333333333333,113.8811802232855,297.25,113.872009569378C299.6666666666667,113.86283891547049,302.0833333333333,113.853668261563,304.5,113.8444976076555C306.9166666666667,113.835326953748,309.3333333333333,113.8261562998405,311.75,113.81698564593302C314.1666666666667,113.80781499202553,316.5833333333333,113.79864433811801,319,113.78947368421052C321.4166666666667,113.78030303030303,323.8333333333333,113.77113237639554,326.25,113.76196172248804C328.6666666666667,113.75279106858054,331.0833333333333,113.74362041467305,333.5,113.73444976076554C335.9166666666667,113.72527910685804,338.3333333333333,113.71610845295055,340.75,113.70693779904306C343.1666666666667,113.69776714513557,345.5833333333333,113.68859649122807,348,113.67942583732058C350.4166666666667,113.67025518341309,352.8333333333333,113.66108452950559,355.25,113.6519138755981C357.6666666666667,113.64274322169061,360.0833333333333,113.63357256778309,362.5,113.6244019138756C364.9166666666667,113.61523125996811,367.3333333333333,113.60606060606062,369.75,113.59688995215312C372.1666666666667,113.58771929824562,374.5833333333333,113.57854864433813,377,113.56937799043062C379.4166666666667,113.56020733652312,381.8333333333333,113.55103668261563,384.25,113.54186602870813C386.6666666666667,113.53269537480062,389.0833333333333,113.52352472089314,391.5,113.51435406698565C393.9166666666667,113.50518341307814,396.33333333333337,113.49601275917065,398.75000000000006,113.48684210526315C401.16666666666674,113.47767145135566,403.58333333333337,113.46850079744817,406.00000000000006,113.45933014354067C408.4166666666667,113.45015948963318,410.8333333333333,113.44098883572566,413.24999999999994,113.43181818181817C415.66666666666663,113.42264752791067,418.08333333333326,113.41347687400318,420.49999999999994,113.40430622009569C422.91666666666663,113.3951355661882,425.3333333333333,113.3859649122807,427.75,113.37679425837321C430.1666666666667,113.36762360446572,432.5833333333333,113.35845295055822,435,113.34928229665073C437.4166666666667,113.34011164274324,439.8333333333333,113.33094098883572,442.25,113.32177033492823C444.6666666666667,113.31259968102074,447.0833333333333,113.30342902711325,449.5,113.29425837320575C451.9166666666667,113.28508771929825,454.3333333333333,113.27591706539076,456.75,113.26674641148325C459.1666666666667,113.25757575757575,461.5833333333333,113.24840510366826,464,113.23923444976077C466.4166666666667,113.23006379585328,468.8333333333333,113.22089314194578,471.25,113.21172248803828C473.6666666666667,113.20255183413077,476.0833333333333,113.19338118022327,478.5,113.18421052631578C480.9166666666667,113.17503987240828,483.33333333333337,113.1658692185008,485.75000000000006,113.1566985645933C488.16666666666674,113.14752791068581,490.58333333333337,113.1383572567783,493.00000000000006,113.1291866028708C495.4166666666667,113.12001594896331,497.8333333333333,113.11084529505581,500.24999999999994,113.10167464114832C502.66666666666663,113.09250398724083,505.08333333333326,113.08333333333333,507.49999999999994,113.07416267942584C509.91666666666663,113.06499202551835,512.3333333333333,113.05582137161086,514.75,113.04665071770336C517.1666666666666,113.03748006379587,519.5833333333334,113.02830940988835,522,113.01913875598086C524.4166666666666,113.00996810207337,526.8333333333334,113.00079744816588,529.25,112.99162679425838C531.6666666666666,112.98245614035088,534.0833333333334,112.97328548644339,536.5,112.96411483253588C538.9166666666666,112.95494417862838,541.3333333333334,112.94577352472089,543.75,112.9366028708134C546.1666666666666,112.92743221690591,548.5833333333334,112.9274322169059,551,112.9090909090909C553.4166666666666,112.89074960127591,555.8333333333334,112.41727761485826,558.25,112.17137096774194C560.6666666666666,111.92546432062561,563.0833333333334,111.6795576735093,565.5,111.43365102639297C567.9166666666666,111.18774437927664,570.3333333333334,110.94183773216031,572.75,110.69593108504398C575.1666666666666,110.45002443792765,577.5833333333334,110.20411779081134,580,109.95821114369501C582.4166666666666,109.71230449657868,584.8333333333334,109.46639784946237,587.25,109.22049120234604C589.6666666666666,108.97458455522971,592.0833333333334,108.7286779081134,594.5,108.48277126099707C596.9166666666666,108.23686461388074,599.3333333333334,107.99095796676443,601.75,107.7450513196481C604.1666666666666,107.49914467253177,606.5833333333334,107.25323802541546,609,107.00733137829913C611.4166666666666,106.7614247311828,613.8333333333334,106.51551808406647,616.25,106.26961143695014C618.6666666666666,106.02370478983381,621.0833333333334,105.7777981427175,623.5,105.53189149560117C625.9166666666666,105.28598484848484,628.3333333333334,105.04007820136853,630.75,104.7941715542522C633.1666666666666,104.54826490713587,635.5833333333334,104.30235826001955,638,104.05645161290322C640.4166666666666,103.81054496578689,642.8333333333334,103.56463831867057,645.25,103.31873167155425C647.6666666666666,103.07282502443792,650.0833333333334,102.8269183773216,652.5,102.58101173020528C654.9166666666666,102.33510508308895,657.3333333333334,102.08919843597263,659.75,101.8432917888563C662.1666666666666,101.59738514173998,664.5833333333334,101.35147849462366,667,101.10557184750733C669.4166666666666,100.859665200391,671.8333333333334,100.61375855327469,674.25,100.36785190615836C676.6666666666666,100.12194525904204,679.0833333333334,99.87603861192571,681.5,99.63013196480938C683.9166666666666,99.38422531769305,686.3333333333334,99.13831867057674,688.75,98.89241202346041C691.1666666666666,98.64650537634408,693.5833333333334,98.40059872922777,696,98.15469208211144C698.4166666666666,97.90878543499511,700.8333333333334,97.6628787878788,703.25,97.41697214076247C705.6666666666666,97.17106549364614,708.0833333333334,96.92515884652983,710.5,96.6792521994135C712.9166666666666,96.43334555229717,715.3333333333334,96.18743890518084,717.75,95.94153225806451C720.1666666666666,95.69562561094818,722.5833333333334,95.44971896383187,725,95.20381231671554C727.4166666666666,94.95790566959921,729.8333333333334,94.7119990224829,732.25,94.46609237536657C734.6666666666666,94.22018572825024,737.0833333333334,93.97427908113393,739.5,93.7283724340176C741.9166666666666,93.48246578690127,744.3333333333334,93.23655913978494,746.75,92.99065249266862C749.1666666666666,92.74474584555229,751.5833333333334,92.49883919843599,754,92.25293255131966C756.4166666666666,92.00702590420333,758.8333333333334,91.761119257087,761.25,91.51521260997067C763.6666666666666,91.26930596285435,766.0833333333334,91.02339931573802,768.5,90.77749266862169C770.9166666666666,90.53158602150536,773.3333333333334,90.28567937438906,775.75,90.03977272727273C778.1666666666666,89.7938660801564,780.5833333333334,89.54795943304008,783,89.30205278592375C785.4166666666667,89.05614613880742,787.8333333333334,88.8102394916911,790.2500000000001,88.56433284457478C792.6666666666667,88.31842619745845,795.0833333333335,88.07251955034214,797.5000000000001,87.82661290322581C799.9166666666667,87.58070625610948,802.3333333333335,87.33479960899317,804.7500000000001,87.08889296187684C807.1666666666667,86.84298631476051,809.5833333333335,86.59707966764418,812.0000000000001,86.35117302052785C814.4166666666667,86.10526637341154,816.8333333333333,85.85935972629521,819.2499999999999,85.6134530791789C821.6666666666665,85.36754643206257,824.0833333333333,85.12163978494624,826.4999999999999,84.87573313782991C828.9166666666665,84.62982649071358,831.3333333333333,84.38391984359727,833.7499999999999,84.13801319648094C836.1666666666665,83.89210654936461,838.5833333333333,83.6461999022483,840.9999999999999,83.40029325513197C843.4166666666666,83.15438660801564,845.8333333333333,82.90847996089931,848.25,82.66257331378299C850.6666666666666,82.41666666666666,853.0833333333334,82.17076001955033,855.5,81.92485337243401C857.9166666666666,81.6789467253177,860.3333333333334,81.43304007820139,862.75,81.18713343108506C865.1666666666666,80.94122678396873,867.5833333333334,80.6953201368524,870,80.44941348973607C872.4166666666666,80.20350684261975,874.8333333333334,79.95760019550342,877.25,79.71169354838709C879.6666666666666,79.46578690127076,882.0833333333334,79.21988025415446,884.5,78.97397360703813C886.9166666666666,78.7280669599218,889.3333333333334,78.48216031280548,891.75,78.23625366568915C894.1666666666666,77.99034701857282,896.5833333333334,77.7444403714565,899,77.49853372434018C901.4166666666666,77.25262707722385,903.8333333333334,77.00672043010753,906.25,76.7608137829912C908.6666666666666,76.51490713587488,911.0833333333334,76.26900048875856,913.5,76.02309384164224C915.9166666666666,75.77718719452591,918.3333333333334,75.53128054740958,920.75,75.28537390029325C923.1666666666666,75.03946725317692,925.5833333333334,74.79356060606061,928,74.54765395894428C930.4166666666666,74.30174731182795,932.8333333333334,74.05584066471164,935.25,73.80993401759531C937.6666666666666,73.56402737047898,940.0833333333334,73.31812072336265,942.5,73.07221407624633C944.9166666666666,72.82630742913,947.3333333333334,72.5804007820137,949.75,72.33449413489737C952.1666666666666,72.08858748778104,954.5833333333334,71.84268084066471,957,71.59677419354838C959.4166666666666,71.35086754643206,961.8333333333334,71.10496089931574,964.25,70.85905425219941C966.6666666666667,70.61314760508309,969.0833333333334,70.36724095796677,971.5000000000001,70.12133431085044C973.9166666666667,69.87542766373411,976.3333333333335,69.62952101661779,978.7500000000001,69.38361436950146C981.1666666666667,69.13770772238513,983.5833333333335,68.89180107526882,986.0000000000001,68.64589442815249C988.4166666666667,68.39998778103616,990.8333333333335,68.15408113391985,993.2500000000001,67.90817448680352C995.6666666666667,67.6622678396872,998.0833333333333,67.41636119257088,1000.4999999999999,67.17045454545455C1002.9166666666665,66.92454789833822,1005.3333333333333,66.67864125122189,1007.7499999999999,66.43273460410556C1010.1666666666665,66.18682795698923,1012.5833333333333,65.94092130987293,1014.9999999999999,65.6950146627566C1017.4166666666665,65.44910801564028,1019.8333333333333,65.20320136852395,1022.2499999999999,64.95729472140762C1024.6666666666665,64.71138807429129,1027.0833333333333,64.46548142717498,1029.5,64.21957478005865C1031.9166666666667,63.97366813294233,1034.3333333333333,63.727761485825994,1036.75,63.48185483870967C1039.1666666666667,63.23594819159335,1041.5833333333333,62.99004154447703,1044,62.74413489736071C1046.4166666666667,62.49822825024439,1048.8333333333333,62.25232160312805,1051.25,62.00641495601173C1053.6666666666667,61.76050830889541,1056.0833333333333,61.51460166177908,1058.5,61.26869501466276C1060.9166666666667,61.02278836754644,1063.3333333333333,60.776881720430104,1065.75,60.53097507331378C1068.1666666666667,60.28506842619746,1070.5833333333333,60.03916177908115,1073,59.79325513196482C1075.4166666666667,59.54734848484849,1077.8333333333333,59.301441837732156,1080.25,59.05553519061583C1082.6666666666667,58.8096285434995,1085.0833333333333,58.56372189638318,1087.5,58.31781524926686C1089.9166666666667,58.071908602150536,1092.3333333333333,57.826001955034215,1094.75,57.580095307917894C1097.1666666666667,57.33418866080157,1099.5833333333333,57.088282013685244,1102,56.842375366568916C1104.4166666666667,56.59646871945259,1106.8333333333333,56.350562072336274,1109.25,56.104655425219946C1111.6666666666667,55.85874877810362,1114.0833333333333,55.612842130987296,1116.5,55.36693548387097C1118.9166666666667,55.12102883675464,1121.3333333333333,54.87512218963832,1123.75,54.62921554252199C1126.1666666666667,54.38330889540566,1128.5833333333333,54.13740224828935,1131,53.89149560117302C1133.4166666666667,53.64558895405669,1135.8333333333333,53.39968230694036,1138.25,53.15377565982404C1140.6666666666667,52.90786901270772,1143.0833333333333,52.66196236559141,1145.5,52.41605571847508C1147.9166666666667,52.17014907135875,1150.3333333333333,51.92424242424242,1152.75,51.678335777126094C1155.1666666666667,51.432429130009766,1157.5833333333333,51.18652248289344,1160,50.940615835777116C1162.4166666666667,50.694709188660795,1164.8333333333333,50.448802541544474,1167.25,50.20289589442815C1169.6666666666667,49.95698924731183,1172.0833333333333,49.71108260019551,1174.5,49.46517595307918C1176.9166666666667,49.219269305962854,1179.3333333333333,48.973362658846526,1181.75,48.727456011730204C1184.1666666666667,48.48154936461388,1186.5833333333333,48.23564271749757,1189,47.98973607038124C1191.4166666666667,47.74382942326491,1193.8333333333333,47.49792277614857,1196.25,47.25201612903224C1198.6666666666667,47.006109481915914,1201.0833333333333,46.760202834799614,1203.5,46.51429618768329C1205.9166666666667,46.26838954056697,1208.3333333333333,46.02248289345064,1210.75,45.776576246334315C1213.1666666666667,45.53066959921799,1215.5833333333333,45.28476295210166,1218,45.03885630498533C1220.4166666666667,44.792949657869,1222.8333333333333,44.54704301075269,1225.25,44.30113636363637C1227.6666666666667,44.055229716520046,1230.0833333333333,43.80932306940372,1232.5,43.56341642228739C1234.9166666666667,43.31750977517106,1237.3333333333333,43.07160312805474,1239.75,42.82569648093842C1242.1666666666667,42.5797898338221,1244.5833333333333,42.33388318670578,1247,42.087976539589455C1249.4166666666667,41.84206989247313,1251.8333333333333,41.59616324535679,1254.25,41.35025659824046C1256.6666666666667,41.104349951124135,1259.0833333333333,40.85844330400782,1261.5,40.61253665689149C1263.9166666666667,40.366630009775164,1266.3333333333333,40.120723362658836,1268.75,39.874816715542515C1271.1666666666667,39.628910068426194,1273.5833333333333,39.38300342130987,1276,39.13709677419355C1278.4166666666667,38.89119012707723,1280.8333333333333,38.64528347996091,1283.25,38.39937683284458C1285.6666666666667,38.15347018572825,1288.0833333333333,37.90756353861193,1290.5,37.6616568914956C1292.9166666666667,37.415750244379275,1295.3333333333333,37.169843597262954,1297.75,36.923936950146626C1300.1666666666667,36.6780303030303,1302.5833333333333,36.43212365591397,1305,36.18621700879765C1307.4166666666667,35.94031036168133,1309.8333333333333,35.694403714565,1312.25,35.44849706744868C1314.6666666666667,35.202590420332356,1317.0833333333333,34.95668377321604,1319.5,34.710777126099714C1321.9166666666667,34.464870478983386,1324.3333333333333,34.21896383186706,1326.75,33.97305718475073C1329.1666666666667,33.7271505376344,1331.5833333333333,33.481243890518094,1334,33.235337243401766C1336.4166666666667,32.98943059628544,1338.8333333333333,32.7435239491691,1341.25,32.497617302052774C1343.6666666666667,32.251710654936446,1346.0833333333333,32.00580400782013,1348.5,31.759897360703807C1350.9166666666667,31.513990713587486,1353.3333333333333,31.268084066471165,1355.75,31.02217741935484C1358.1666666666667,30.776270772238515,1360.5833333333333,30.530364125122187,1363,30.284457478005862C1365.4166666666667,30.038550830889537,1367.8333333333333,29.79264418377322,1370.25,29.546737536656895C1372.6666666666667,29.30083088954057,1375.0833333333333,29.054924242424228,1377.5,28.809017595307903C1379.9166666666667,28.56311094819158,1382.3333333333333,28.317204301075257,1384.75,28.071297653958936C1387.1666666666667,27.825391006842615,1389.5833333333333,27.579484359726308,1392,27.333577712609983C1394.4166666666667,27.08767106549366,1396.8333333333333,26.841764418377316,1399.25,26.59585777126099C1401.6666666666667,26.349951124144667,1404.0833333333333,26.104044477028346,1406.5,25.858137829912025C1408.9166666666667,25.612231182795703,1411.3333333333333,25.366324535679382,1413.75,25.120417888563058C1416.1666666666667,24.874511241446733,1418.5833333333333,24.62860459433039,1421,24.382697947214066C1423.4166666666667,24.13679130009774,1425.8333333333333,23.890884652981434,1428.25,23.64497800586511C1430.6666666666667,23.399071358748785,1433.0833333333333,23.153164711632442,1435.5,22.907258064516117C1437.9166666666667,22.661351417399793,1440.3333333333333,22.415444770283475,1442.75,22.169538123167154C1445.1666666666667,21.923631476050833,1447.5833333333333,21.677724828934508,1450,21.431818181818187" fill="transparent" stroke-linecap="round" stroke="#B6509E" stroke-width="2"></path><path class="visx-linepath" d="M0,109.7727272725897C2.4166666666666665,109.74980063787828,4.833333333333334,109.72687400316687,7.25,109.70394736842105C9.666666666666666,109.68102073367524,12.083333333333334,109.65809409888357,14.5,109.63516746411483C16.916666666666668,109.61224082934609,19.333333333333332,109.58931419457736,21.75,109.56638755980862C24.166666666666668,109.54346092503988,26.583333333333332,109.52053429027113,29,109.49760765550239C31.416666666666668,109.47468102073366,33.833333333333336,109.4517543859649,36.25,109.42882775119617C38.666666666666664,109.40590111642743,41.083333333333336,109.38297448165868,43.5,109.36004784688994C45.91666666666667,109.3371212121212,48.333333333333336,109.31419457735247,50.75000000000001,109.29126794258373C53.16666666666667,109.26834130781499,55.583333333333336,109.24541467304626,58,109.22248803827752C60.416666666666664,109.19956140350878,62.833333333333336,109.17663476874003,65.25,109.15370813397129C67.66666666666667,109.13078149920256,70.08333333333333,109.1078548644338,72.5,109.08492822966507C74.91666666666667,109.06200159489633,77.33333333333333,109.03907496012758,79.75,109.01614832535884C82.16666666666667,108.9932216905901,84.58333333333333,108.97029505582137,87,108.94736842105263C89.41666666666667,108.9244417862839,91.83333333333333,108.90151515151516,94.25,108.87858851674642C96.66666666666667,108.85566188197768,99.08333333333334,108.83273524720893,101.50000000000001,108.8098086124402C103.91666666666667,108.78688197767146,106.33333333333334,108.7639553429027,108.75,108.74102870813397C111.16666666666667,108.71810207336523,113.58333333333333,108.6951754385965,116,108.67224880382776C118.41666666666667,108.64932216905902,120.83333333333334,108.62639553429027,123.25000000000001,108.60346889952153C125.66666666666667,108.5805422647528,128.08333333333334,108.55761562998404,130.5,108.5346889952153C132.91666666666666,108.51176236044657,135.33333333333334,108.48883572567783,137.75,108.4659090909091C140.16666666666666,108.44298245614036,142.58333333333334,108.4200558213716,145,108.39712918660287C147.41666666666666,108.37420255183413,149.83333333333334,108.3512759170654,152.25,108.32834928229666C154.66666666666666,108.30542264752792,157.08333333333334,108.28249601275917,159.5,108.25956937799043C161.91666666666666,108.2366427432217,164.33333333333334,108.21371610845294,166.75,108.1907894736842C169.16666666666666,108.16786283891547,171.58333333333334,108.14493620414672,174,108.12200956937798C176.41666666666666,108.09908293460924,178.83333333333334,108.07615629984052,181.25,108.05322966507178C183.66666666666666,108.03030303030305,186.08333333333334,108.0073763955343,188.5,107.98444976076556C190.91666666666666,107.96152312599682,193.33333333333334,107.93859649122807,195.75,107.91566985645933C198.16666666666669,107.8927432216906,200.58333333333334,107.86981658692184,203.00000000000003,107.8468899521531C205.41666666666669,107.82396331738437,207.83333333333331,107.80103668261563,210.24999999999997,107.7781100478469C212.66666666666666,107.75518341307816,215.08333333333331,107.7322567783094,217.5,107.70933014354067C219.91666666666666,107.68640350877193,222.33333333333334,107.66347687400318,224.75,107.64055023923444C227.16666666666666,107.6176236044657,229.58333333333334,107.59469696969697,232,107.57177033492823C234.41666666666666,107.5488437001595,236.83333333333334,107.52591706539076,239.25,107.50299043062202C241.66666666666669,107.48006379585328,244.08333333333334,107.45713716108453,246.50000000000003,107.4342105263158C248.91666666666669,107.41128389154706,251.33333333333331,107.3883572567783,253.74999999999997,107.36543062200957C256.16666666666663,107.34250398724083,258.5833333333333,107.31957735247208,261,107.29665071770334C263.4166666666667,107.2737240829346,265.8333333333333,107.25079744816587,268.25,107.22787081339713C270.6666666666667,107.2049441786284,273.0833333333333,107.18201754385966,275.5,107.15909090909092C277.9166666666667,107.13616427432218,280.3333333333333,107.11323763955343,282.75,107.0903110047847C285.1666666666667,107.06738437001596,287.5833333333333,107.0444577352472,290,107.02153110047847C292.4166666666667,106.99860446570973,294.8333333333333,106.97567783094098,297.25,106.95275119617224C299.6666666666667,106.9298245614035,302.0833333333333,106.90689792663477,304.5,106.88397129186603C306.9166666666667,106.8610446570973,309.3333333333333,106.83811802232854,311.75,106.8151913875598C314.1666666666667,106.79226475279107,316.5833333333333,106.76933811802232,319,106.74641148325358C321.4166666666667,106.72348484848484,323.8333333333333,106.70055821371609,326.25,106.67763157894736C328.6666666666667,106.65470494417862,331.0833333333333,106.6317783094099,333.5,106.60885167464116C335.9166666666667,106.58592503987242,338.3333333333333,106.56299840510367,340.75,106.54007177033493C343.1666666666667,106.5171451355662,345.5833333333333,106.49421850079744,348,106.47129186602871C350.4166666666667,106.44836523125997,352.8333333333333,106.42543859649122,355.25,106.40251196172248C357.6666666666667,106.37958532695374,360.0833333333333,106.35665869218501,362.5,106.33373205741627C364.9166666666667,106.31080542264753,367.3333333333333,106.2878787878788,369.75,106.26495215311006C372.1666666666667,106.24202551834132,374.5833333333333,106.21909888357257,377,106.19617224880383C379.4166666666667,106.1732456140351,381.8333333333333,106.15031897926634,384.25,106.12739234449761C386.6666666666667,106.10446570972887,389.0833333333333,106.08153907496012,391.5,106.05861244019138C393.9166666666667,106.03568580542264,396.33333333333337,106.01275917065391,398.75000000000006,105.98983253588517C401.16666666666674,105.96690590111643,403.58333333333337,105.94397926634768,406.00000000000006,105.92105263157895C408.4166666666667,105.89812599681021,410.8333333333333,105.87519936204146,413.24999999999994,105.85227272727272C415.66666666666663,105.82934609250398,418.08333333333326,105.80641945773523,420.49999999999994,105.7834928229665C422.91666666666663,105.76056618819776,425.3333333333333,105.73763955342903,427.75,105.7147129186603C430.1666666666667,105.69178628389156,432.5833333333333,105.66885964912281,435,105.64593301435407C437.4166666666667,105.62300637958533,439.8333333333333,105.60007974481658,442.25,105.57715311004785C444.6666666666667,105.55422647527911,447.0833333333333,105.53129984051036,449.5,105.50837320574162C451.9166666666667,105.48544657097288,454.3333333333333,105.46251993620415,456.75,105.43959330143541C459.1666666666667,105.41666666666667,461.5833333333333,105.39374003189793,464,105.3708133971292C466.4166666666667,105.34788676236046,468.8333333333333,105.32496012759171,471.25,105.30203349282297C473.6666666666667,105.27910685805423,476.0833333333333,105.25618022328548,478.5,105.23325358851675C480.9166666666667,105.21032695374801,483.33333333333337,105.18740031897927,485.75000000000006,105.16447368421053C488.16666666666674,105.1415470494418,490.58333333333337,105.11862041467305,493.00000000000006,105.09569377990431C495.4166666666667,105.07276714513557,497.8333333333333,105.04984051036682,500.24999999999994,105.02691387559808C502.66666666666663,105.00398724082935,505.08333333333326,104.9810606060606,507.49999999999994,104.95813397129186C509.91666666666663,104.93520733652312,512.3333333333333,104.91228070175438,514.75,104.88935406698565C517.1666666666666,104.86642743221691,519.5833333333334,104.84350079744817,522,104.82057416267943C524.4166666666666,104.7976475279107,526.8333333333334,104.77472089314195,529.25,104.75179425837321C531.6666666666666,104.72886762360447,534.0833333333334,104.70594098883572,536.5,104.68301435406698C538.9166666666666,104.66008771929825,541.3333333333334,104.6371610845295,543.75,104.61423444976076C546.1666666666666,104.59130781499202,548.5833333333334,104.59130781499202,551,104.54545454545455C553.4166666666666,104.49960127591707,555.8333333333334,104.0536412512219,558.25,103.80773460410558C560.6666666666666,103.56182795698925,563.0833333333334,103.31592130987292,565.5,103.07001466275659C567.9166666666666,102.82410801564026,570.3333333333334,102.57820136852396,572.75,102.33229472140764C575.1666666666666,102.0863880742913,577.5833333333334,101.84048142717498,580,101.59457478005865C582.4166666666666,101.34866813294232,584.8333333333334,101.102761485826,587.25,100.85685483870967C589.6666666666666,100.61094819159334,592.0833333333334,100.36504154447704,594.5,100.11913489736071C596.9166666666666,99.87322825024438,599.3333333333334,99.62732160312807,601.75,99.38141495601174C604.1666666666666,99.13550830889541,606.5833333333334,98.88960166177908,609,98.64369501466275C611.4166666666666,98.39778836754643,613.8333333333334,98.15188172043011,616.25,97.90597507331378C618.6666666666666,97.66006842619745,621.0833333333334,97.41416177908114,623.5,97.16825513196481C625.9166666666666,96.92234848484848,628.3333333333334,96.67644183773216,630.75,96.43053519061583C633.1666666666666,96.1846285434995,635.5833333333334,95.93872189638319,638,95.69281524926686C640.4166666666666,95.44690860215053,642.8333333333334,95.20100195503422,645.25,94.95509530791789C647.6666666666666,94.70918866080156,650.0833333333334,94.46328201368524,652.5,94.21737536656892C654.9166666666666,93.97146871945259,657.3333333333334,93.72556207233627,659.75,93.47965542521995C662.1666666666666,93.23374877810362,664.5833333333334,92.98784213098729,667,92.74193548387096C669.4166666666666,92.49602883675463,671.8333333333334,92.25012218963832,674.25,92.00421554252199C676.6666666666666,91.75830889540566,679.0833333333334,91.51240224828935,681.5,91.26649560117302C683.9166666666666,91.02058895405669,686.3333333333334,90.77468230694038,688.75,90.52877565982405C691.1666666666666,90.28286901270772,693.5833333333334,90.03696236559139,696,89.79105571847506C698.4166666666666,89.54514907135874,700.8333333333334,89.29924242424244,703.25,89.05333577712611C705.6666666666666,88.80742913000978,708.0833333333334,88.56152248289345,710.5,88.31561583577712C712.9166666666666,88.0697091886608,715.3333333333334,87.82380254154448,717.75,87.57789589442815C720.1666666666666,87.33198924731182,722.5833333333334,87.08608260019551,725,86.84017595307918C727.4166666666666,86.59426930596285,729.8333333333334,86.34836265884653,732.25,86.1024560117302C734.6666666666666,85.85654936461387,737.0833333333334,85.61064271749756,739.5,85.36473607038123C741.9166666666666,85.1188294232649,744.3333333333334,84.87292277614858,746.75,84.62701612903226C749.1666666666666,84.38110948191593,751.5833333333334,84.13520283479961,754,83.88929618768329C756.4166666666666,83.64338954056696,758.8333333333334,83.39748289345064,761.25,83.15157624633432C763.6666666666666,82.90566959921799,766.0833333333334,82.65976295210166,768.5,82.41385630498533C770.9166666666666,82.167949657869,773.3333333333334,81.92204301075269,775.75,81.67613636363636C778.1666666666666,81.43022971652003,780.5833333333334,81.18432306940372,783,80.93841642228739C785.4166666666667,80.69250977517106,787.8333333333334,80.44660312805475,790.2500000000001,80.20069648093842C792.6666666666667,79.95478983382209,795.0833333333335,79.70888318670576,797.5000000000001,79.46297653958943C799.9166666666667,79.2170698924731,802.3333333333335,78.97116324535679,804.7500000000001,78.72525659824046C807.1666666666667,78.47934995112414,809.5833333333335,78.23344330400784,812.0000000000001,77.9875366568915C814.4166666666667,77.74163000977519,816.8333333333333,77.49572336265885,819.2499999999999,77.24981671554252C821.6666666666665,77.0039100684262,824.0833333333333,76.75800342130987,826.4999999999999,76.51209677419354C828.9166666666665,76.26619012707721,831.3333333333333,76.02028347996091,833.7499999999999,75.77437683284458C836.1666666666665,75.52847018572825,838.5833333333333,75.28256353861192,840.9999999999999,75.0366568914956C843.4166666666666,74.79075024437927,845.8333333333333,74.54484359726295,848.25,74.29893695014663C850.6666666666666,74.0530303030303,853.0833333333334,73.80712365591398,855.5,73.56121700879766C857.9166666666666,73.31531036168133,860.3333333333334,73.06940371456501,862.75,72.82349706744868C865.1666666666666,72.57759042033236,867.5833333333334,72.33168377321603,870,72.0857771260997C872.4166666666666,71.83987047898337,874.8333333333334,71.59396383186706,877.25,71.34805718475073C879.6666666666666,71.1021505376344,882.0833333333334,70.85624389051809,884.5,70.61033724340176C886.9166666666666,70.36443059628543,889.3333333333334,70.11852394916912,891.75,69.87261730205279C894.1666666666666,69.62671065493646,896.5833333333334,69.38080400782013,899,69.1348973607038C901.4166666666666,68.88899071358748,903.8333333333334,68.64308406647116,906.25,68.39717741935483C908.6666666666666,68.1512707722385,911.0833333333334,67.90536412512219,913.5,67.65945747800586C915.9166666666666,67.41355083088953,918.3333333333334,67.16764418377322,920.75,66.92173753665689C923.1666666666666,66.67583088954056,925.5833333333334,66.42992424242424,928,66.1840175953079C930.4166666666666,65.93811094819158,932.8333333333334,65.69220430107526,935.25,65.44629765395895C937.6666666666666,65.20039100684264,940.0833333333334,64.95448435972631,942.5,64.70857771260998C944.9166666666666,64.46267106549365,947.3333333333334,64.21676441837732,949.75,63.970857771260995C952.1666666666666,63.72495112414467,954.5833333333334,63.47904447702834,957,63.23313782991202C959.4166666666666,62.987231182795696,961.8333333333334,62.741324535679375,964.25,62.495417888563054C966.6666666666667,62.249511241446726,969.0833333333334,62.0036045943304,971.5000000000001,61.75769794721407C973.9166666666667,61.51179130009775,976.3333333333335,61.26588465298143,978.7500000000001,61.019978005865106C981.1666666666667,60.774071358748785,983.5833333333335,60.528164711632456,986.0000000000001,60.28225806451613C988.4166666666667,60.0363514173998,990.8333333333335,59.790444770283486,993.2500000000001,59.54453812316716C995.6666666666667,59.298631476050836,998.0833333333333,59.0527248289345,1000.4999999999999,58.80681818181818C1002.9166666666665,58.56091153470185,1005.3333333333333,58.31500488758553,1007.7499999999999,58.0690982404692C1010.1666666666665,57.823191593352874,1012.5833333333333,57.57728494623656,1014.9999999999999,57.33137829912023C1017.4166666666665,57.0854716520039,1019.8333333333333,56.839565004887575,1022.2499999999999,56.593658357771254C1024.6666666666665,56.347751710654926,1027.0833333333333,56.10184506353861,1029.5,55.85593841642229C1031.9166666666667,55.61003176930597,1034.3333333333333,55.36412512218965,1036.75,55.11821847507332C1039.1666666666667,54.87231182795699,1041.5833333333333,54.62640518084067,1044,54.38049853372434C1046.4166666666667,54.134591886608014,1048.8333333333333,53.88868523949169,1051.25,53.642778592375365C1053.6666666666667,53.396871945259036,1056.0833333333333,53.15096529814271,1058.5,52.90505865102639C1060.9166666666667,52.659152003910066,1063.3333333333333,52.41324535679375,1065.75,52.16733870967743C1068.1666666666667,51.92143206256111,1070.5833333333333,51.67552541544478,1073,51.42961876832845C1075.4166666666667,51.183712121212125,1077.8333333333333,50.9378054740958,1080.25,50.691898826979475C1082.6666666666667,50.44599217986315,1085.0833333333333,50.20008553274682,1087.5,49.95417888563049C1089.9166666666667,49.70827223851416,1092.3333333333333,49.462365591397834,1094.75,49.21645894428151C1097.1666666666667,48.97055229716519,1099.5833333333333,48.72464565004888,1102,48.478739002932556C1104.4166666666667,48.232832355816235,1106.8333333333333,47.9869257086999,1109.25,47.74101906158358C1111.6666666666667,47.49511241446726,1114.0833333333333,47.249205767350944,1116.5,47.003299120234615C1118.9166666666667,46.75739247311829,1121.3333333333333,46.51148582600195,1123.75,46.26557917888562C1126.1666666666667,46.019672531769295,1128.5833333333333,45.773765884652974,1131,45.52785923753665C1133.4166666666667,45.28195259042033,1135.8333333333333,45.03604594330401,1138.25,44.79013929618769C1140.6666666666667,44.54423264907137,1143.0833333333333,44.29832600195503,1145.5,44.05241935483871C1147.9166666666667,43.80651270772239,1150.3333333333333,43.56060606060607,1152.75,43.31469941348974C1155.1666666666667,43.06879276637341,1157.5833333333333,42.82288611925708,1160,42.57697947214075C1162.4166666666667,42.33107282502442,1164.8333333333333,42.08516617790811,1167.25,41.839259530791786C1169.6666666666667,41.593352883675465,1172.0833333333333,41.347446236559136,1174.5,41.101539589442815C1176.9166666666667,40.855632942326494,1179.3333333333333,40.60972629521016,1181.75,40.36381964809384C1184.1666666666667,40.117913000977516,1186.5833333333333,39.872006353861195,1189,39.626099706744874C1191.4166666666667,39.38019305962855,1193.8333333333333,39.13428641251223,1196.25,38.888379765395904C1198.6666666666667,38.642473118279575,1201.0833333333333,38.39656647116324,1203.5,38.15065982404691C1205.9166666666667,37.90475317693058,1208.3333333333333,37.65884652981427,1210.75,37.41293988269795C1213.1666666666667,37.16703323558163,1215.5833333333333,36.921126588465285,1218,36.67521994134896C1220.4166666666667,36.42931329423264,1222.8333333333333,36.18340664711632,1225.25,35.9375C1227.6666666666667,35.69159335288368,1230.0833333333333,35.44568670576736,1232.5,35.19978005865104C1234.9166666666667,34.953873411534715,1237.3333333333333,34.70796676441838,1239.75,34.46206011730205C1242.1666666666667,34.21615347018572,1244.5833333333333,33.970246823069395,1247,33.724340175953074C1249.4166666666667,33.47843352883675,1251.8333333333333,33.232526881720446,1254.25,32.98662023460412C1256.6666666666667,32.74071358748779,1259.0833333333333,32.494806940371454,1261.5,32.248900293255126C1263.9166666666667,32.0029936461388,1266.3333333333333,31.757086999022487,1268.75,31.511180351906162C1271.1666666666667,31.265273704789838,1273.5833333333333,31.019367057673513,1276,30.773460410557185C1278.4166666666667,30.527553763440856,1280.8333333333333,30.281647116324525,1283.25,30.035740469208204C1285.6666666666667,29.789833822091882,1288.0833333333333,29.543927174975572,1290.5,29.29802052785925C1292.9166666666667,29.05211388074293,1295.3333333333333,28.806207233626594,1297.75,28.56030058651027C1300.1666666666667,28.314393939393945,1302.5833333333333,28.068487292277617,1305,27.822580645161292C1307.4166666666667,27.576673998044967,1309.8333333333333,27.330767350928635,1312.25,27.08486070381231C1314.6666666666667,26.838954056695986,1317.0833333333333,26.593047409579665,1319.5,26.347140762463344C1321.9166666666667,26.101234115347022,1324.3333333333333,25.855327468230705,1326.75,25.60942082111438C1329.1666666666667,25.363514173998055,1331.5833333333333,25.117607526881724,1334,24.8717008797654C1336.4166666666667,24.625794232649074,1338.8333333333333,24.379887585532757,1341.25,24.133980938416432C1343.6666666666667,23.888074291300107,1346.0833333333333,23.642167644183765,1348.5,23.39626099706744C1350.9166666666667,23.150354349951115,1353.3333333333333,22.904447702834794,1355.75,22.658541055718473C1358.1666666666667,22.412634408602152,1360.5833333333333,22.16672776148583,1363,21.920821114369506C1365.4166666666667,21.67491446725318,1367.8333333333333,21.429007820136853,1370.25,21.18310117302053C1372.6666666666667,20.937194525904204,1375.0833333333333,20.69128787878789,1377.5,20.44538123167156C1379.9166666666667,20.199474584555233,1382.3333333333333,19.953567937438898,1384.75,19.70766129032257C1387.1666666666667,19.46175464320624,1389.5833333333333,19.215847996089924,1392,18.969941348973602C1394.4166666666667,18.72403470185728,1396.8333333333333,18.47812805474096,1399.25,18.232221407624635C1401.6666666666667,17.98631476050831,1404.0833333333333,17.740408113391982,1406.5,17.494501466275658C1408.9166666666667,17.248594819159333,1411.3333333333333,17.002688172043012,1413.75,16.75678152492669C1416.1666666666667,16.51087487781037,1418.5833333333333,16.264968230694052,1421,16.019061583577724C1423.4166666666667,15.773154936461397,1425.8333333333333,15.527248289345058,1428.25,15.281341642228732C1430.6666666666667,15.035434995112405,1433.0833333333333,14.78952834799609,1435.5,14.543621700879765C1437.9166666666667,14.29771505376344,1440.3333333333333,14.05180840664711,1442.75,13.805901759530785C1445.1666666666667,13.55999511241446,1447.5833333333333,13.314088465298141,1450,13.06818181818182" fill="transparent" stroke-linecap="round" stroke="#E7C6DF" stroke-width="2"></path><g class="visx-group visx-axis visx-axis-bottom" transform="translate(0, 115)"><g class="visx-group visx-axis-tick" transform="translate(0, 0)"><line class="visx-line" x1="0" y1="0" x2="0" y2="8" fill="transparent" shape-rendering="crispEdges" stroke="#000" stroke-width="0" stroke-linecap="square"></line><svg x="0" y="0" font-size="10" style="overflow:visible"><text transform="" x="0" y="18" fill="#000" font-size="10" text-anchor="middle"><tspan x="0" dy="0em">0%</tspan></text></svg></g><g class="visx-group visx-axis-tick" transform="translate(0, 0)"><line class="visx-line" x1="362.5" y1="0" x2="362.5" y2="8" fill="transparent" shape-rendering="crispEdges" stroke="#000" stroke-width="0" stroke-linecap="square"></line><svg x="0" y="0" font-size="10" style="overflow:visible"><text transform="" x="362.5" y="18" fill="#000" font-size="10" text-anchor="middle"><tspan x="362.5" dy="0em">25%</tspan></text></svg></g><g class="visx-group visx-axis-tick" transform="translate(0, 0)"><line class="visx-line" x1="725" y1="0" x2="725" y2="8" fill="transparent" shape-rendering="crispEdges" stroke="#000" stroke-width="0" stroke-linecap="square"></line><svg x="0" y="0" font-size="10" style="overflow:visible"><text transform="" x="725" y="18" fill="#000" font-size="10" text-anchor="middle"><tspan x="725" dy="0em">50%</tspan></text></svg></g><g class="visx-group visx-axis-tick" transform="translate(0, 0)"><line class="visx-line" x1="1087.5" y1="0" x2="1087.5" y2="8" fill="transparent" shape-rendering="crispEdges" stroke="#000" stroke-width="0" stroke-linecap="square"></line><svg x="0" y="0" font-size="10" style="overflow:visible"><text transform="" x="1087.5" y="18" fill="#000" font-size="10" text-anchor="middle"><tspan x="1087.5" dy="0em">75%</tspan></text></svg></g><g class="visx-group visx-axis-tick" transform="translate(0, 0)"><line class="visx-line" x1="1450" y1="0" x2="1450" y2="8" fill="transparent" shape-rendering="crispEdges" stroke="#000" stroke-width="0" stroke-linecap="square"></line><svg x="0" y="0" font-size="10" style="overflow:visible"><text transform="" x="1450" y="18" fill="#000" font-size="10" text-anchor="middle"><tspan x="1450" dy="0em">100%</tspan></text></svg></g><line class="visx-line visx-axis-line" x1="0.5" y1="0" x2="1450.5" y2="0" fill="transparent" shape-rendering="crispEdges" stroke="#222" stroke-width="0"></line></g><g class="visx-group visx-axis visx-axis-left" transform="translate(0, 0)"><g class="visx-group visx-axis-tick" transform="translate(0, 0)"><line class="visx-line" x1="0" y1="115" x2="-8" y2="115" fill="transparent" shape-rendering="crispEdges" stroke="#222" stroke-width="0" stroke-linecap="square"></line><svg x="-30" y="0" font-size="8" style="overflow:visible"><text transform="" x="-8" y="115" fill="#000" font-size="8" text-anchor="start"><tspan x="-8" dy="0em">0%</tspan></text></svg></g><g class="visx-group visx-axis-tick" transform="translate(0, 0)"><line class="visx-line" x1="0" y1="62.72727272727272" x2="-8" y2="62.72727272727272" fill="transparent" shape-rendering="crispEdges" stroke="#222" stroke-width="0" stroke-linecap="square"></line><svg x="-30" y="0" font-size="8" style="overflow:visible"><text transform="" x="-8" y="62.72727272727272" fill="#000" font-size="8" text-anchor="start"><tspan x="-8" dy="0em">100%</tspan></text></svg></g><g class="visx-group visx-axis-tick" transform="translate(0, 0)"><line class="visx-line" x1="0" y1="10.454545454545459" x2="-8" y2="10.454545454545459" fill="transparent" shape-rendering="crispEdges" stroke="#222" stroke-width="0" stroke-linecap="square"></line><svg x="-30" y="0" font-size="8" style="overflow:visible"><text transform="" x="-8" y="10.454545454545459" fill="#000" font-size="8" text-anchor="start"><tspan x="-8" dy="0em">200%</tspan></text></svg></g><line class="visx-line visx-axis-line" x1="0" y1="115.5" x2="0" y2="0.5" fill="transparent" shape-rendering="crispEdges" stroke="#222" stroke-width="0"></line></g><rect class="visx-bar" width="1450" height="115" fill="transparent"></rect><line class="visx-line" x1="551" y1="28" x2="551" y2="115" fill="transparent" shape-rendering="crispEdges" stroke="#0062D2" stroke-width="1" pointer-events="none" stroke-dasharray="5,2"></line><svg x="0" y="0" font-size="10px" style="overflow:visible"><text transform="" x="551" y="20" font-size="10px" fill="#fff" stroke="#fff" stroke-width="0.8em" text-anchor="middle"><tspan x="551" dy="0.355em">Optimal 38%</tspan></text></svg><svg x="0" y="0" font-size="10px" style="overflow:visible"><text transform="" x="551" y="20" font-size="10px" fill="#62677B" text-anchor="middle"><tspan x="551" dy="0.355em">Optimal 38%</tspan></text></svg></g></svg>