<?xml version="1.0"?><svg xmlns="http://www.w3.org/2000/svg" xmlns:xlink= "http://www.w3.org/1999/xlink" style="background: white;" width="1500" height="185"> <g style="color: black; font-size: 13px; font-family: sans-serif; transform: translate(18px, 25px);"><g><circle r="3" cx="-6" cy="-5" style="fill: #B6509E" /><text>Borrow APR, variable</text></g><g style="transform: translateX(150px);"><circle r="3" cx="-6" cy="-5" style="fill: rgb(231, 198, 223)" /><text>Borrow APR, stable</text></g><g style="transform: translateX(290px);"><circle r="3" cx="-6" cy="-5" style="fill: rgb(0, 98, 210)" /><text>Utilization Rate</text></g></g><g class="visx-group" transform="translate(40, 50)"><g class="visx-group visx-rows" transform="translate(0, 0)"><line class="visx-line" x1="0" y1="115" x2="1450" y2="115" fill="transparent" shape-rendering="crispEdges" stroke="#000" stroke-width="1" stroke-dasharray="3,3" pointer-events="none"></line><line class="visx-line" x1="0" y1="83.05555555555556" x2="1450" y2="83.05555555555556" fill="transparent" shape-rendering="crispEdges" stroke="#000" stroke-width="1" stroke-dasharray="3,3" pointer-events="none"></line><line class="visx-line" x1="0" y1="51.11111111111111" x2="1450" y2="51.11111111111111" fill="transparent" shape-rendering="crispEdges" stroke="#000" stroke-width="1" stroke-dasharray="3,3" pointer-events="none"></line><line class="visx-line" x1="0" y1="19.16666666666666" x2="1450" y2="19.16666666666666" fill="transparent" shape-rendering="crispEdges" stroke="#000" stroke-width="1" stroke-dasharray="3,3" pointer-events="none"></line></g><path class="visx-linepath" d="M0,114.99999999995741C2.4166666666666665,114.99290123454306,4.833333333333334,114.9858024691287,7.25,114.9787037037037C9.666666666666666,114.9716049382787,12.083333333333334,114.96450617283952,14.5,114.95740740740742C16.916666666666668,114.95030864197531,19.333333333333332,114.94320987654322,21.75,114.93611111111112C24.166666666666668,114.92901234567901,26.583333333333332,114.92191358024692,29,114.91481481481482C31.416666666666668,114.90771604938271,33.833333333333336,114.90061728395062,36.25,114.89351851851852C38.666666666666664,114.88641975308641,41.083333333333336,114.87932098765434,43.5,114.87222222222223C45.91666666666667,114.86512345679013,48.333333333333336,114.85802469135803,50.75000000000001,114.85092592592592C53.16666666666667,114.84382716049382,55.583333333333336,114.83672839506173,58,114.82962962962962C60.416666666666664,114.82253086419752,62.833333333333336,114.81543209876543,65.25,114.80833333333332C67.66666666666667,114.80123456790122,70.08333333333333,114.79413580246913,72.5,114.78703703703704C74.91666666666667,114.77993827160495,77.33333333333333,114.77283950617284,79.75,114.76574074074074C82.16666666666667,114.75864197530863,84.58333333333333,114.75154320987654,87,114.74444444444444C89.41666666666667,114.73734567901234,91.83333333333333,114.73024691358023,94.25,114.72314814814814C96.66666666666667,114.71604938271604,99.08333333333334,114.70895061728396,101.50000000000001,114.70185185185186C103.91666666666667,114.69475308641977,106.33333333333334,114.68765432098766,108.75,114.68055555555556C111.16666666666667,114.67345679012345,113.58333333333333,114.66635802469136,116,114.65925925925926C118.41666666666667,114.65216049382715,120.83333333333334,114.64506172839506,123.25000000000001,114.63796296296296C125.66666666666667,114.63086419753087,128.08333333333334,114.62376543209876,130.5,114.61666666666667C132.91666666666666,114.60956790123457,135.33333333333334,114.60246913580248,137.75,114.59537037037038C140.16666666666666,114.58827160493827,142.58333333333334,114.58117283950618,145,114.57407407407408C147.41666666666666,114.56697530864197,149.83333333333334,114.55987654320988,152.25,114.55277777777778C154.66666666666666,114.54567901234567,157.08333333333334,114.53858024691358,159.5,114.53148148148148C161.91666666666666,114.52438271604937,164.33333333333334,114.51728395061728,166.75,114.51018518518518C169.16666666666666,114.50308641975307,171.58333333333334,114.49598765432097,174,114.48888888888888C176.41666666666666,114.48179012345679,178.83333333333334,114.4746913580247,181.25,114.4675925925926C183.66666666666666,114.46049382716049,186.08333333333334,114.4533950617284,188.5,114.4462962962963C190.91666666666666,114.43919753086419,193.33333333333334,114.4320987654321,195.75,114.425C198.16666666666669,114.41790123456789,200.58333333333334,114.4108024691358,203.00000000000003,114.4037037037037C205.41666666666669,114.39660493827161,207.83333333333331,114.3895061728395,210.24999999999997,114.38240740740741C212.66666666666666,114.37530864197531,215.08333333333331,114.36820987654322,217.5,114.36111111111111C219.91666666666666,114.35401234567901,222.33333333333334,114.34691358024692,224.75,114.33981481481482C227.16666666666666,114.33271604938271,229.58333333333334,114.3256172839506,232,114.31851851851852C234.41666666666666,114.31141975308643,236.83333333333334,114.30432098765432,239.25,114.29722222222223C241.66666666666669,114.29012345679013,244.08333333333334,114.28302469135804,246.50000000000003,114.27592592592593C248.91666666666669,114.26882716049383,251.33333333333331,114.26172839506172,253.74999999999997,114.25462962962962C256.16666666666663,114.24753086419751,258.5833333333333,114.24043209876544,261,114.23333333333333C263.4166666666667,114.22623456790124,265.8333333333333,114.21913580246914,268.25,114.21203703703704C270.6666666666667,114.20493827160493,273.0833333333333,114.19783950617284,275.5,114.19074074074074C277.9166666666667,114.18364197530863,280.3333333333333,114.17654320987654,282.75,114.16944444444444C285.1666666666667,114.16234567901233,287.5833333333333,114.15524691358024,290,114.14814814814815C292.4166666666667,114.14104938271606,294.8333333333333,114.13395061728396,297.25,114.12685185185185C299.6666666666667,114.11975308641975,302.0833333333333,114.11265432098766,304.5,114.10555555555555C306.9166666666667,114.09845679012345,309.3333333333333,114.09135802469135,311.75,114.08425925925926C314.1666666666667,114.07716049382717,316.5833333333333,114.07006172839507,319,114.06296296296297C321.4166666666667,114.05586419753087,323.8333333333333,114.04876543209878,326.25,114.04166666666667C328.6666666666667,114.03456790123457,331.0833333333333,114.02746913580248,333.5,114.02037037037037C335.9166666666667,114.01327160493827,338.3333333333333,114.00617283950618,340.75,113.99907407407407C343.1666666666667,113.99197530864197,345.5833333333333,113.9848765432099,348,113.97777777777779C350.4166666666667,113.97067901234568,352.8333333333333,113.96358024691358,355.25,113.95648148148148C357.6666666666667,113.94938271604937,360.0833333333333,113.94228395061728,362.5,113.93518518518518C364.9166666666667,113.92808641975307,367.3333333333333,113.92098765432098,369.75,113.91388888888889C372.1666666666667,113.9067901234568,374.5833333333333,113.8996913580247,377,113.89259259259259C379.4166666666667,113.88549382716049,381.8333333333333,113.8783950617284,384.25,113.8712962962963C386.6666666666667,113.86419753086419,389.0833333333333,113.85709876543208,391.5,113.85C393.9166666666667,113.84290123456789,396.33333333333337,113.83580246913581,398.75000000000006,113.82870370370371C401.16666666666674,113.82160493827162,403.58333333333337,113.81450617283951,406.00000000000006,113.80740740740741C408.4166666666667,113.8003086419753,410.8333333333333,113.79320987654322,413.24999999999994,113.78611111111111C415.66666666666663,113.779012345679,418.08333333333326,113.7719135802469,420.49999999999994,113.76481481481481C422.91666666666663,113.75771604938271,425.3333333333333,113.75061728395063,427.75,113.74351851851853C430.1666666666667,113.73641975308644,432.5833333333333,113.72932098765433,435,113.72222222222223C437.4166666666667,113.71512345679012,439.8333333333333,113.70802469135803,442.25,113.70092592592593C444.6666666666667,113.69382716049383,447.0833333333333,113.68672839506173,449.5,113.67962962962963C451.9166666666667,113.67253086419753,454.3333333333333,113.66543209876544,456.75,113.65833333333333C459.1666666666667,113.65123456790123,461.5833333333333,113.64413580246914,464,113.63703703703703C466.4166666666667,113.62993827160493,468.8333333333333,113.62283950617282,471.25,113.61574074074073C473.6666666666667,113.60864197530864,476.0833333333333,113.60154320987654,478.5,113.59444444444445C480.9166666666667,113.58734567901234,483.33333333333337,113.58024691358025,485.75000000000006,113.57314814814815C488.16666666666674,113.56604938271605,490.58333333333337,113.55895061728395,493.00000000000006,113.55185185185185C495.4166666666667,113.54475308641975,497.8333333333333,113.53765432098764,500.24999999999994,113.53055555555555C502.66666666666663,113.52345679012345,505.08333333333326,113.51635802469136,507.49999999999994,113.50925925925927C509.91666666666663,113.50216049382716,512.3333333333333,113.49506172839507,514.75,113.48796296296297C517.1666666666666,113.48086419753086,519.5833333333334,113.47376543209877,522,113.46666666666667C524.4166666666666,113.45956790123456,526.8333333333334,113.45246913580246,529.25,113.44537037037037C531.6666666666666,113.43827160493828,534.0833333333334,113.43117283950619,536.5,113.42407407407408C538.9166666666666,113.41697530864198,541.3333333333334,113.40987654320989,543.75,113.40277777777779C546.1666666666666,113.39567901234568,548.5833333333334,113.38858024691358,551,113.38148148148147C553.4166666666666,113.37438271604937,555.8333333333334,113.36728395061726,558.25,113.36018518518517C560.6666666666666,113.35308641975308,563.0833333333334,113.345987654321,565.5,113.33888888888889C567.9166666666666,113.33179012345678,570.3333333333334,113.3246913580247,572.75,113.31759259259259C575.1666666666666,113.31049382716049,577.5833333333334,113.3033950617284,580,113.29629629629629C582.4166666666666,113.28919753086419,584.8333333333334,113.2820987654321,587.25,113.27499999999999C589.6666666666666,113.26790123456789,592.0833333333334,113.2608024691358,594.5,113.2537037037037C596.9166666666666,113.24660493827162,599.3333333333334,113.23950617283951,601.75,113.23240740740741C604.1666666666666,113.2253086419753,606.5833333333334,113.2182098765432,609,113.21111111111111C611.4166666666666,113.20401234567902,613.8333333333334,113.19691358024693,616.25,113.18981481481482C618.6666666666666,113.18271604938272,621.0833333333334,113.17561728395063,623.5,113.16851851851852C625.9166666666666,113.16141975308642,628.3333333333334,113.15432098765433,630.75,113.14722222222223C633.1666666666666,113.14012345679012,635.5833333333334,113.13302469135803,638,113.12592592592593C640.4166666666666,113.11882716049382,642.8333333333334,113.11172839506175,645.25,113.10462962962964C647.6666666666666,113.09753086419754,650.0833333333334,113.09043209876543,652.5,113.08333333333333C654.9166666666666,113.07623456790122,657.3333333333334,113.06913580246913,659.75,113.06203703703703C662.1666666666666,113.05493827160493,664.5833333333334,113.04783950617283,667,113.04074074074073C669.4166666666666,113.03364197530863,671.8333333333334,113.02654320987654,674.25,113.01944444444445C676.6666666666666,113.01234567901236,679.0833333333334,113.00524691358025,681.5,112.99814814814815C683.9166666666666,112.99104938271604,686.3333333333334,112.98395061728395,688.75,112.97685185185185C691.1666666666666,112.96975308641974,693.5833333333334,112.96265432098764,696,112.95555555555555C698.4166666666666,112.94845679012346,700.8333333333334,112.94135802469137,703.25,112.93425925925926C705.6666666666666,112.92716049382716,708.0833333333334,112.92006172839507,710.5,112.91296296296296C712.9166666666666,112.90586419753086,715.3333333333334,112.89876543209877,717.75,112.89166666666667C720.1666666666666,112.88456790123456,722.5833333333334,112.87746913580247,725,112.87037037037037C727.4166666666666,112.86327160493826,729.8333333333334,112.85617283950617,732.25,112.84907407407408C734.6666666666666,112.84197530864199,737.0833333333334,112.83487654320989,739.5,112.82777777777778C741.9166666666666,112.82067901234568,744.3333333333334,112.81358024691359,746.75,112.80648148148148C749.1666666666666,112.79938271604938,751.5833333333334,112.79228395061729,754,112.78518518518518C756.4166666666666,112.77808641975308,758.8333333333334,112.77098765432099,761.25,112.76388888888889C763.6666666666666,112.75679012345678,766.0833333333334,112.74969135802469,768.5,112.74259259259259C770.9166666666666,112.73549382716048,773.3333333333334,112.72839506172838,775.75,112.72129629629629C778.1666666666666,112.7141975308642,780.5833333333334,112.7070987654321,783,112.7C785.4166666666667,112.6929012345679,787.8333333333334,112.68580246913581,790.2500000000001,112.6787037037037C792.6666666666667,112.6716049382716,795.0833333333335,112.66450617283951,797.5000000000001,112.6574074074074C799.9166666666667,112.6503086419753,802.3333333333335,112.64320987654321,804.7500000000001,112.6361111111111C807.1666666666667,112.629012345679,809.5833333333335,112.62191358024693,812.0000000000001,112.61481481481482C814.4166666666667,112.60771604938273,816.8333333333333,112.60061728395063,819.2499999999999,112.59351851851852C821.6666666666665,112.58641975308642,824.0833333333333,112.57932098765433,826.4999999999999,112.57222222222222C828.9166666666665,112.56512345679012,831.3333333333333,112.55802469135801,833.7499999999999,112.55092592592592C836.1666666666665,112.54382716049383,838.5833333333333,112.53672839506174,840.9999999999999,112.52962962962964C843.4166666666666,112.52253086419753,845.8333333333333,112.51543209876543,848.25,112.50833333333333C850.6666666666666,112.50123456790122,853.0833333333334,112.49413580246912,855.5,112.48703703703703C857.9166666666666,112.47993827160494,860.3333333333334,112.47283950617285,862.75,112.46574074074074C865.1666666666666,112.45864197530864,867.5833333333334,112.45864197530864,870,112.44444444444444C872.4166666666666,112.43024691358025,874.8333333333334,111.66712962962964,877.25,111.27847222222223C879.6666666666666,110.88981481481483,882.0833333333334,110.5011574074074,884.5,110.1125C886.9166666666666,109.72384259259259,889.3333333333334,109.33518518518518,891.75,108.94652777777777C894.1666666666666,108.55787037037037,896.5833333333334,108.16921296296296,899,107.78055555555555C901.4166666666666,107.39189814814814,903.8333333333334,107.00324074074075,906.25,106.61458333333334C908.6666666666666,106.22592592592594,911.0833333333334,105.83726851851851,913.5,105.4486111111111C915.9166666666666,105.0599537037037,918.3333333333334,104.67129629629629,920.75,104.28263888888888C923.1666666666666,103.89398148148148,925.5833333333334,103.50532407407407,928,103.11666666666666C930.4166666666666,102.72800925925925,932.8333333333334,102.33935185185186,935.25,101.95069444444445C937.6666666666666,101.56203703703704,940.0833333333334,101.17337962962964,942.5,100.78472222222223C944.9166666666666,100.39606481481482,947.3333333333334,100.0074074074074,949.75,99.61874999999999C952.1666666666666,99.23009259259258,954.5833333333334,98.84143518518518,957,98.45277777777777C959.4166666666666,98.06412037037036,961.8333333333334,97.67546296296297,964.25,97.28680555555556C966.6666666666667,96.89814814814815,969.0833333333334,96.50949074074074,971.5000000000001,96.12083333333334C973.9166666666667,95.73217592592593,976.3333333333335,95.34351851851852,978.7500000000001,94.95486111111111C981.1666666666667,94.5662037037037,983.5833333333335,94.1775462962963,986.0000000000001,93.78888888888889C988.4166666666667,93.40023148148148,990.8333333333335,93.01157407407408,993.2500000000001,92.62291666666667C995.6666666666667,92.23425925925926,998.0833333333333,91.84560185185185,1000.4999999999999,91.45694444444445C1002.9166666666665,91.06828703703704,1005.3333333333333,90.67962962962963,1007.7499999999999,90.29097222222222C1010.1666666666665,89.90231481481482,1012.5833333333333,89.51365740740741,1014.9999999999999,89.125C1017.4166666666665,88.73634259259259,1019.8333333333333,88.34768518518518,1022.2499999999999,87.95902777777778C1024.6666666666665,87.57037037037037,1027.0833333333333,87.18171296296298,1029.5,86.79305555555557C1031.9166666666667,86.40439814814816,1034.3333333333333,86.01574074074074,1036.75,85.62708333333333C1039.1666666666667,85.23842592592592,1041.5833333333333,84.84976851851852,1044,84.46111111111111C1046.4166666666667,84.0724537037037,1048.8333333333333,83.6837962962963,1051.25,83.29513888888889C1053.6666666666667,82.90648148148148,1056.0833333333333,82.51782407407407,1058.5,82.12916666666666C1060.9166666666667,81.74050925925926,1063.3333333333333,81.35185185185186,1065.75,80.96319444444445C1068.1666666666667,80.57453703703705,1070.5833333333333,80.18587962962962,1073,79.79722222222222C1075.4166666666667,79.40856481481481,1077.8333333333333,79.0199074074074,1080.25,78.63125C1082.6666666666667,78.24259259259259,1085.0833333333333,77.8539351851852,1087.5,77.46527777777779C1089.9166666666667,77.07662037037038,1092.3333333333333,76.68796296296297,1094.75,76.29930555555556C1097.1666666666667,75.91064814814816,1099.5833333333333,75.52199074074073,1102,75.13333333333333C1104.4166666666667,74.74467592592592,1106.8333333333333,74.35601851851851,1109.25,73.9673611111111C1111.6666666666667,73.5787037037037,1114.0833333333333,73.1900462962963,1116.5,72.8013888888889C1118.9166666666667,72.41273148148149,1121.3333333333333,72.02407407407408,1123.75,71.63541666666667C1126.1666666666667,71.24675925925926,1128.5833333333333,70.85810185185186,1131,70.46944444444445C1133.4166666666667,70.08078703703704,1135.8333333333333,69.69212962962962,1138.25,69.30347222222221C1140.6666666666667,68.9148148148148,1143.0833333333333,68.52615740740741,1145.5,68.1375C1147.9166666666667,67.7488425925926,1150.3333333333333,67.36018518518519,1152.75,66.97152777777778C1155.1666666666667,66.58287037037037,1157.5833333333333,66.19421296296296,1160,65.80555555555556C1162.4166666666667,65.41689814814815,1164.8333333333333,65.02824074074073,1167.25,64.63958333333332C1169.6666666666667,64.25092592592591,1172.0833333333333,63.8622685185185,1174.5,63.4736111111111C1176.9166666666667,63.0849537037037,1179.3333333333333,62.6962962962963,1181.75,62.3076388888889C1184.1666666666667,61.9189814814815,1186.5833333333333,61.53032407407408,1189,61.14166666666667C1191.4166666666667,60.753009259259265,1193.8333333333333,60.36435185185186,1196.25,59.97569444444445C1198.6666666666667,59.58703703703704,1201.0833333333333,59.19837962962963,1203.5,58.80972222222222C1205.9166666666667,58.42106481481481,1208.3333333333333,58.032407407407405,1210.75,57.64375C1213.1666666666667,57.25509259259259,1215.5833333333333,56.86643518518518,1218,56.477777777777774C1220.4166666666667,56.08912037037037,1222.8333333333333,55.700462962962966,1225.25,55.31180555555556C1227.6666666666667,54.92314814814815,1230.0833333333333,54.53449074074074,1232.5,54.145833333333336C1234.9166666666667,53.75717592592593,1237.3333333333333,53.36851851851851,1239.75,52.979861111111106C1242.1666666666667,52.5912037037037,1244.5833333333333,52.20254629629629,1247,51.81388888888888C1249.4166666666667,51.425231481481475,1251.8333333333333,51.036574074074075,1254.25,50.64791666666667C1256.6666666666667,50.25925925925926,1259.0833333333333,49.87060185185185,1261.5,49.481944444444444C1263.9166666666667,49.09328703703704,1266.3333333333333,48.70462962962962,1268.75,48.315972222222214C1271.1666666666667,47.92731481481481,1273.5833333333333,47.53865740740741,1276,47.150000000000006C1278.4166666666667,46.7613425925926,1280.8333333333333,46.37268518518518,1283.25,45.984027777777776C1285.6666666666667,45.59537037037037,1288.0833333333333,45.20671296296296,1290.5,44.81805555555555C1292.9166666666667,44.429398148148145,1295.3333333333333,44.040740740740745,1297.75,43.65208333333334C1300.1666666666667,43.26342592592593,1302.5833333333333,42.87476851851852,1305,42.486111111111114C1307.4166666666667,42.09745370370371,1309.8333333333333,41.708796296296285,1312.25,41.32013888888888C1314.6666666666667,40.93148148148147,1317.0833333333333,40.54282407407407,1319.5,40.15416666666666C1321.9166666666667,39.765509259259254,1324.3333333333333,39.376851851851846,1326.75,38.98819444444444C1329.1666666666667,38.59953703703703,1331.5833333333333,38.21087962962963,1334,37.82222222222222C1336.4166666666667,37.433564814814815,1338.8333333333333,37.04490740740741,1341.25,36.65625C1343.6666666666667,36.26759259259259,1346.0833333333333,35.87893518518519,1348.5,35.490277777777784C1350.9166666666667,35.10162037037038,1353.3333333333333,34.712962962962955,1355.75,34.32430555555555C1358.1666666666667,33.93564814814814,1360.5833333333333,33.54699074074074,1363,33.15833333333333C1365.4166666666667,32.769675925925924,1367.8333333333333,32.381018518518516,1370.25,31.99236111111111C1372.6666666666667,31.6037037037037,1375.0833333333333,31.2150462962963,1377.5,30.826388888888893C1379.9166666666667,30.437731481481485,1382.3333333333333,30.049074074074078,1384.75,29.66041666666667C1387.1666666666667,29.271759259259262,1389.5833333333333,28.88310185185185,1392,28.494444444444444C1394.4166666666667,28.105787037037036,1396.8333333333333,27.71712962962964,1399.25,27.32847222222223C1401.6666666666667,26.939814814814824,1404.0833333333333,26.5511574074074,1406.5,26.16249999999999C1408.9166666666667,25.773842592592583,1411.3333333333333,25.385185185185186,1413.75,24.99652777777778C1416.1666666666667,24.60787037037037,1418.5833333333333,24.21921296296295,1421,23.83055555555554C1423.4166666666667,23.441898148148134,1425.8333333333333,23.05324074074073,1428.25,22.664583333333326C1430.6666666666667,22.27592592592592,1433.0833333333333,21.887268518518518,1435.5,21.498611111111114C1437.9166666666667,21.10995370370371,1440.3333333333333,20.72129629629631,1442.75,20.3326388888889C1445.1666666666667,19.943981481481494,1447.5833333333333,19.555324074074075,1450,19.16666666666666" fill="transparent" stroke-linecap="round" stroke="#B6509E" stroke-width="2"></path><path class="visx-linepath" d="M0,108.61111111108981C2.4166666666666665,108.60756172838263,4.833333333333334,108.60401234567547,7.25,108.60046296296296C9.666666666666666,108.59691358025046,12.083333333333334,108.59336419753086,14.5,108.58981481481482C16.916666666666668,108.58626543209877,19.333333333333332,108.58271604938271,21.75,108.57916666666667C24.166666666666668,108.57561728395062,26.583333333333332,108.57206790123456,29,108.56851851851852C31.416666666666668,108.56496913580247,33.833333333333336,108.56141975308643,36.25,108.55787037037038C38.666666666666664,108.55432098765434,41.083333333333336,108.55077160493826,43.5,108.54722222222222C45.91666666666667,108.54367283950616,48.333333333333336,108.54012345679011,50.75000000000001,108.53657407407407C53.16666666666667,108.53302469135802,55.583333333333336,108.52947530864198,58,108.52592592592593C60.416666666666664,108.52237654320989,62.833333333333336,108.51882716049381,65.25,108.51527777777777C67.66666666666667,108.51172839506172,70.08333333333333,108.50817901234568,72.5,108.50462962962963C74.91666666666667,108.50108024691359,77.33333333333333,108.49753086419753,79.75,108.49398148148148C82.16666666666667,108.49043209876544,84.58333333333333,108.48688271604938,87,108.48333333333333C89.41666666666667,108.47978395061729,91.83333333333333,108.47623456790123,94.25,108.47268518518518C96.66666666666667,108.46913580246914,99.08333333333334,108.46558641975308,101.50000000000001,108.46203703703704C103.91666666666667,108.45848765432099,106.33333333333334,108.45493827160493,108.75,108.45138888888889C111.16666666666667,108.44783950617284,113.58333333333333,108.4442901234568,116,108.44074074074075C118.41666666666667,108.4371913580247,120.83333333333334,108.43364197530863,123.25000000000001,108.43009259259259C125.66666666666667,108.42654320987654,128.08333333333334,108.4229938271605,130.5,108.41944444444445C132.91666666666666,108.4158950617284,135.33333333333334,108.41234567901235,137.75,108.4087962962963C140.16666666666666,108.40524691358026,142.58333333333334,108.40169753086418,145,108.39814814814814C147.41666666666666,108.3945987654321,149.83333333333334,108.39104938271605,152.25,108.3875C154.66666666666666,108.38395061728396,157.08333333333334,108.3804012345679,159.5,108.37685185185185C161.91666666666666,108.37330246913581,164.33333333333334,108.36975308641975,166.75,108.3662037037037C169.16666666666666,108.36265432098766,171.58333333333334,108.3591049382716,174,108.35555555555555C176.41666666666666,108.35200617283951,178.83333333333334,108.34845679012345,181.25,108.3449074074074C183.66666666666666,108.34135802469136,186.08333333333334,108.3378086419753,188.5,108.33425925925926C190.91666666666666,108.33070987654321,193.33333333333334,108.32716049382717,195.75,108.32361111111112C198.16666666666669,108.32006172839507,200.58333333333334,108.316512345679,203.00000000000003,108.31296296296296C205.41666666666669,108.30941358024691,207.83333333333331,108.30586419753087,210.24999999999997,108.30231481481482C212.66666666666666,108.29876543209878,215.08333333333331,108.29521604938272,217.5,108.29166666666667C219.91666666666666,108.28811728395063,222.33333333333334,108.28456790123457,224.75,108.28101851851852C227.16666666666666,108.27746913580248,229.58333333333334,108.27391975308642,232,108.27037037037037C234.41666666666666,108.26682098765433,236.83333333333334,108.26327160493827,239.25,108.25972222222222C241.66666666666669,108.25617283950618,244.08333333333334,108.25262345679012,246.50000000000003,108.24907407407407C248.91666666666669,108.24552469135803,251.33333333333331,108.24197530864197,253.74999999999997,108.23842592592592C256.16666666666663,108.23487654320988,258.5833333333333,108.23132716049382,261,108.22777777777777C263.4166666666667,108.22422839506173,265.8333333333333,108.22067901234567,268.25,108.21712962962962C270.6666666666667,108.21358024691358,273.0833333333333,108.21003086419753,275.5,108.20648148148149C277.9166666666667,108.20293209876544,280.3333333333333,108.19938271604937,282.75,108.19583333333333C285.1666666666667,108.19228395061728,287.5833333333333,108.18873456790124,290,108.18518518518519C292.4166666666667,108.18163580246915,294.8333333333333,108.17808641975309,297.25,108.17453703703704C299.6666666666667,108.170987654321,302.0833333333333,108.16743827160494,304.5,108.16388888888889C306.9166666666667,108.16033950617285,309.3333333333333,108.15679012345679,311.75,108.15324074074074C314.1666666666667,108.1496913580247,316.5833333333333,108.14614197530864,319,108.14259259259259C321.4166666666667,108.13904320987655,323.8333333333333,108.13549382716049,326.25,108.13194444444444C328.6666666666667,108.1283950617284,331.0833333333333,108.12484567901235,333.5,108.12129629629631C335.9166666666667,108.11774691358026,338.3333333333333,108.11419753086419,340.75,108.11064814814814C343.1666666666667,108.1070987654321,345.5833333333333,108.10354938271604,348,108.1C350.4166666666667,108.09645061728395,352.8333333333333,108.0929012345679,355.25,108.08935185185186C357.6666666666667,108.08580246913581,360.0833333333333,108.08225308641974,362.5,108.0787037037037C364.9166666666667,108.07515432098765,367.3333333333333,108.0716049382716,369.75,108.06805555555556C372.1666666666667,108.06450617283951,374.5833333333333,108.06095679012344,377,108.0574074074074C379.4166666666667,108.05385802469135,381.8333333333333,108.0503086419753,384.25,108.04675925925926C386.6666666666667,108.04320987654322,389.0833333333333,108.03966049382716,391.5,108.03611111111111C393.9166666666667,108.03256172839507,396.33333333333337,108.029012345679,398.75000000000006,108.02546296296296C401.16666666666674,108.02191358024692,403.58333333333337,108.01836419753086,406.00000000000006,108.01481481481481C408.4166666666667,108.01126543209877,410.8333333333333,108.00771604938272,413.24999999999994,108.00416666666668C415.66666666666663,108.00061728395063,418.08333333333326,107.99706790123456,420.49999999999994,107.99351851851851C422.91666666666663,107.98996913580247,425.3333333333333,107.98641975308642,427.75,107.98287037037038C430.1666666666667,107.97932098765433,432.5833333333333,107.97577160493827,435,107.97222222222223C437.4166666666667,107.96867283950618,439.8333333333333,107.96512345679012,442.25,107.96157407407408C444.6666666666667,107.95802469135803,447.0833333333333,107.95447530864197,449.5,107.95092592592593C451.9166666666667,107.94737654320988,454.3333333333333,107.94382716049381,456.75,107.94027777777777C459.1666666666667,107.93672839506172,461.5833333333333,107.93317901234568,464,107.92962962962963C466.4166666666667,107.92608024691359,468.8333333333333,107.92253086419753,471.25,107.91898148148148C473.6666666666667,107.91543209876544,476.0833333333333,107.91188271604938,478.5,107.90833333333333C480.9166666666667,107.90478395061729,483.33333333333337,107.90123456790123,485.75000000000006,107.89768518518518C488.16666666666674,107.89413580246914,490.58333333333337,107.89058641975309,493.00000000000006,107.88703703703705C495.4166666666667,107.883487654321,497.8333333333333,107.87993827160493,500.24999999999994,107.87638888888888C502.66666666666663,107.87283950617284,505.08333333333326,107.86929012345679,507.49999999999994,107.86574074074075C509.91666666666663,107.8621913580247,512.3333333333333,107.85864197530863,514.75,107.85509259259258C517.1666666666666,107.85154320987654,519.5833333333334,107.8479938271605,522,107.84444444444445C524.4166666666666,107.8408950617284,526.8333333333334,107.83734567901234,529.25,107.8337962962963C531.6666666666666,107.83024691358025,534.0833333333334,107.8266975308642,536.5,107.82314814814815C538.9166666666666,107.8195987654321,541.3333333333334,107.81604938271605,543.75,107.8125C546.1666666666666,107.80895061728395,548.5833333333334,107.80540123456791,551,107.80185185185186C553.4166666666666,107.79830246913582,555.8333333333334,107.79475308641975,558.25,107.7912037037037C560.6666666666666,107.78765432098766,563.0833333333334,107.7841049382716,565.5,107.78055555555555C567.9166666666666,107.7770061728395,570.3333333333334,107.77345679012346,572.75,107.76990740740742C575.1666666666666,107.76635802469137,577.5833333333334,107.7628086419753,580,107.75925925925925C582.4166666666666,107.75570987654321,584.8333333333334,107.75216049382716,587.25,107.74861111111112C589.6666666666666,107.74506172839507,592.0833333333334,107.741512345679,594.5,107.73796296296295C596.9166666666666,107.73441358024691,599.3333333333334,107.73086419753086,601.75,107.72731481481482C604.1666666666666,107.72376543209877,606.5833333333334,107.72021604938271,609,107.71666666666667C611.4166666666666,107.71311728395062,613.8333333333334,107.70956790123456,616.25,107.70601851851852C618.6666666666666,107.70246913580247,621.0833333333334,107.69891975308641,623.5,107.69537037037037C625.9166666666666,107.69182098765432,628.3333333333334,107.68827160493828,630.75,107.68472222222223C633.1666666666666,107.68117283950619,635.5833333333334,107.67762345679012,638,107.67407407407407C640.4166666666666,107.67052469135803,642.8333333333334,107.66697530864197,645.25,107.66342592592592C647.6666666666666,107.65987654320988,650.0833333333334,107.65632716049382,652.5,107.65277777777777C654.9166666666666,107.64922839506173,657.3333333333334,107.64567901234567,659.75,107.64212962962962C662.1666666666666,107.63858024691358,664.5833333333334,107.63503086419753,667,107.63148148148149C669.4166666666666,107.62793209876544,671.8333333333334,107.62438271604937,674.25,107.62083333333332C676.6666666666666,107.61728395061728,679.0833333333334,107.61373456790123,681.5,107.61018518518519C683.9166666666666,107.60663580246914,686.3333333333334,107.60308641975308,688.75,107.59953703703704C691.1666666666666,107.595987654321,693.5833333333334,107.59243827160493,696,107.58888888888889C698.4166666666666,107.58533950617284,700.8333333333334,107.58179012345678,703.25,107.57824074074074C705.6666666666666,107.5746913580247,708.0833333333334,107.57114197530865,710.5,107.5675925925926C712.9166666666666,107.56404320987656,715.3333333333334,107.56049382716049,717.75,107.55694444444444C720.1666666666666,107.5533950617284,722.5833333333334,107.54984567901235,725,107.5462962962963C727.4166666666666,107.54274691358026,729.8333333333334,107.53919753086419,732.25,107.53564814814814C734.6666666666666,107.5320987654321,737.0833333333334,107.52854938271605,739.5,107.525C741.9166666666666,107.52145061728396,744.3333333333334,107.5179012345679,746.75,107.51435185185186C749.1666666666666,107.51080246913581,751.5833333333334,107.50725308641974,754,107.50370370370369C756.4166666666666,107.50015432098765,758.8333333333334,107.4966049382716,761.25,107.49305555555556C763.6666666666666,107.48950617283951,766.0833333333334,107.48595679012345,768.5,107.48240740740741C770.9166666666666,107.47885802469136,773.3333333333334,107.4753086419753,775.75,107.47175925925926C778.1666666666666,107.46820987654321,780.5833333333334,107.46466049382715,783,107.46111111111111C785.4166666666667,107.45756172839506,787.8333333333334,107.454012345679,790.2500000000001,107.45046296296296C792.6666666666667,107.44691358024691,795.0833333333335,107.44336419753085,797.5000000000001,107.43981481481481C799.9166666666667,107.43626543209876,802.3333333333335,107.43271604938272,804.7500000000001,107.42916666666667C807.1666666666667,107.42561728395063,809.5833333333335,107.42206790123456,812.0000000000001,107.41851851851851C814.4166666666667,107.41496913580247,816.8333333333333,107.41141975308642,819.2499999999999,107.40787037037038C821.6666666666665,107.40432098765433,824.0833333333333,107.40077160493827,826.4999999999999,107.39722222222223C828.9166666666665,107.39367283950618,831.3333333333333,107.3901234567901,833.7499999999999,107.38657407407406C836.1666666666665,107.38302469135802,838.5833333333333,107.37947530864197,840.9999999999999,107.37592592592593C843.4166666666666,107.37237654320988,845.8333333333333,107.36882716049384,848.25,107.36527777777779C850.6666666666666,107.36172839506175,853.0833333333334,107.35817901234567,855.5,107.35462962962963C857.9166666666666,107.35108024691358,860.3333333333334,107.34753086419752,862.75,107.34398148148148C865.1666666666666,107.34043209876543,867.5833333333334,107.34043209876543,870,107.33333333333333C872.4166666666666,107.32623456790122,874.8333333333334,106.55601851851851,877.25,106.1673611111111C879.6666666666666,105.7787037037037,882.0833333333334,105.39004629629629,884.5,105.00138888888888C886.9166666666666,104.61273148148148,889.3333333333334,104.22407407407408,891.75,103.83541666666667C894.1666666666666,103.44675925925927,896.5833333333334,103.05810185185186,899,102.66944444444445C901.4166666666666,102.28078703703704,903.8333333333334,101.89212962962962,906.25,101.50347222222221C908.6666666666666,101.1148148148148,911.0833333333334,100.72615740740741,913.5,100.3375C915.9166666666666,99.9488425925926,918.3333333333334,99.56018518518519,920.75,99.17152777777778C923.1666666666666,98.78287037037038,925.5833333333334,98.39421296296297,928,98.00555555555556C930.4166666666666,97.61689814814815,932.8333333333334,97.22824074074073,935.25,96.83958333333332C937.6666666666666,96.45092592592592,940.0833333333334,96.06226851851851,942.5,95.6736111111111C944.9166666666666,95.28495370370369,947.3333333333334,94.8962962962963,949.75,94.50763888888889C952.1666666666666,94.11898148148148,954.5833333333334,93.73032407407408,957,93.34166666666667C959.4166666666666,92.95300925925926,961.8333333333334,92.56435185185185,964.25,92.17569444444445C966.6666666666667,91.78703703703704,969.0833333333334,91.39837962962963,971.5000000000001,91.00972222222222C973.9166666666667,90.62106481481482,976.3333333333335,90.23240740740741,978.7500000000001,89.84375C981.1666666666667,89.45509259259259,983.5833333333335,89.06643518518518,986.0000000000001,88.67777777777778C988.4166666666667,88.28912037037037,990.8333333333335,87.90046296296296,993.2500000000001,87.51180555555555C995.6666666666667,87.12314814814815,998.0833333333333,86.73449074074074,1000.4999999999999,86.34583333333333C1002.9166666666665,85.95717592592592,1005.3333333333333,85.56851851851852,1007.7499999999999,85.17986111111111C1010.1666666666665,84.7912037037037,1012.5833333333333,84.40254629629631,1014.9999999999999,84.0138888888889C1017.4166666666665,83.62523148148149,1019.8333333333333,83.23657407407408,1022.2499999999999,82.84791666666668C1024.6666666666665,82.45925925925927,1027.0833333333333,82.07060185185185,1029.5,81.68194444444444C1031.9166666666667,81.29328703703703,1034.3333333333333,80.90462962962962,1036.75,80.51597222222222C1039.1666666666667,80.12731481481481,1041.5833333333333,79.7386574074074,1044,79.35C1046.4166666666667,78.96134259259259,1048.8333333333333,78.57268518518518,1051.25,78.18402777777777C1053.6666666666667,77.79537037037036,1056.0833333333333,77.40671296296296,1058.5,77.01805555555555C1060.9166666666667,76.62939814814814,1063.3333333333333,76.24074074074075,1065.75,75.85208333333334C1068.1666666666667,75.46342592592593,1070.5833333333333,75.07476851851852,1073,74.68611111111112C1075.4166666666667,74.29745370370371,1077.8333333333333,73.9087962962963,1080.25,73.5201388888889C1082.6666666666667,73.13148148148149,1085.0833333333333,72.74282407407408,1087.5,72.35416666666667C1089.9166666666667,71.96550925925926,1092.3333333333333,71.57685185185184,1094.75,71.18819444444443C1097.1666666666667,70.79953703703703,1099.5833333333333,70.41087962962963,1102,70.02222222222223C1104.4166666666667,69.63356481481482,1106.8333333333333,69.24490740740741,1109.25,68.85625C1111.6666666666667,68.4675925925926,1114.0833333333333,68.07893518518517,1116.5,67.69027777777777C1118.9166666666667,67.30162037037036,1121.3333333333333,66.91296296296296,1123.75,66.52430555555556C1126.1666666666667,66.13564814814815,1128.5833333333333,65.74699074074074,1131,65.35833333333333C1133.4166666666667,64.96967592592593,1135.8333333333333,64.58101851851852,1138.25,64.19236111111111C1140.6666666666667,63.803703703703704,1143.0833333333333,63.41504629629629,1145.5,63.02638888888888C1147.9166666666667,62.637731481481474,1150.3333333333333,62.24907407407408,1152.75,61.86041666666667C1155.1666666666667,61.471759259259265,1157.5833333333333,61.08310185185185,1160,60.69444444444444C1162.4166666666667,60.305787037037035,1164.8333333333333,59.91712962962963,1167.25,59.52847222222222C1169.6666666666667,59.13981481481481,1172.0833333333333,58.75115740740741,1174.5,58.362500000000004C1176.9166666666667,57.9738425925926,1179.3333333333333,57.585185185185175,1181.75,57.19652777777777C1184.1666666666667,56.80787037037036,1186.5833333333333,56.41921296296295,1189,56.030555555555544C1191.4166666666667,55.64189814814814,1193.8333333333333,55.253240740740736,1196.25,54.86458333333333C1198.6666666666667,54.47592592592592,1201.0833333333333,54.08726851851851,1203.5,53.698611111111106C1205.9166666666667,53.3099537037037,1208.3333333333333,52.9212962962963,1210.75,52.53263888888889C1213.1666666666667,52.14398148148148,1215.5833333333333,51.755324074074075,1218,51.36666666666667C1220.4166666666667,50.97800925925926,1222.8333333333333,50.589351851851845,1225.25,50.20069444444444C1227.6666666666667,49.81203703703703,1230.0833333333333,49.423379629629636,1232.5,49.03472222222223C1234.9166666666667,48.64606481481482,1237.3333333333333,48.257407407407406,1239.75,47.86875C1242.1666666666667,47.48009259259259,1244.5833333333333,47.0914351851852,1247,46.70277777777779C1249.4166666666667,46.31412037037038,1251.8333333333333,45.92546296296296,1254.25,45.53680555555555C1256.6666666666667,45.148148148148145,1259.0833333333333,44.759490740740745,1261.5,44.37083333333334C1263.9166666666667,43.98217592592593,1266.3333333333333,43.59351851851852,1268.75,43.204861111111114C1271.1666666666667,42.81620370370371,1273.5833333333333,42.427546296296306,1276,42.0388888888889C1278.4166666666667,41.65023148148149,1280.8333333333333,41.26157407407407,1283.25,40.87291666666666C1285.6666666666667,40.484259259259254,1288.0833333333333,40.09560185185184,1290.5,39.70694444444443C1292.9166666666667,39.318287037037024,1295.3333333333333,38.92962962962963,1297.75,38.54097222222222C1300.1666666666667,38.152314814814815,1302.5833333333333,37.7636574074074,1305,37.37499999999999C1307.4166666666667,36.986342592592585,1309.8333333333333,36.59768518518519,1312.25,36.209027777777784C1314.6666666666667,35.82037037037038,1317.0833333333333,35.43171296296296,1319.5,35.043055555555554C1321.9166666666667,34.65439814814815,1324.3333333333333,34.26574074074075,1326.75,33.877083333333346C1329.1666666666667,33.48842592592594,1331.5833333333333,33.09976851851851,1334,32.7111111111111C1336.4166666666667,32.322453703703694,1338.8333333333333,31.933796296296297,1341.25,31.545138888888893C1343.6666666666667,31.15648148148149,1346.0833333333333,30.767824074074085,1348.5,30.379166666666677C1350.9166666666667,29.99050925925927,1353.3333333333333,29.601851851851848,1355.75,29.21319444444444C1358.1666666666667,28.824537037037032,1360.5833333333333,28.435879629629635,1363,28.047222222222228C1365.4166666666667,27.65856481481482,1367.8333333333333,27.269907407407395,1370.25,26.881249999999987C1372.6666666666667,26.49259259259258,1375.0833333333333,26.103935185185183,1377.5,25.715277777777775C1379.9166666666667,25.326620370370367,1382.3333333333333,24.937962962962956,1384.75,24.54930555555555C1387.1666666666667,24.16064814814814,1389.5833333333333,23.771990740740733,1392,23.383333333333326C1394.4166666666667,22.994675925925918,1396.8333333333333,22.606018518518514,1399.25,22.21736111111111C1401.6666666666667,21.828703703703706,1404.0833333333333,21.440046296296305,1406.5,21.051388888888898C1408.9166666666667,20.66273148148149,1411.3333333333333,20.27407407407408,1413.75,19.88541666666667C1416.1666666666667,19.496759259259264,1418.5833333333333,19.108101851851856,1421,18.71944444444445C1423.4166666666667,18.33078703703704,1425.8333333333333,17.942129629629633,1428.25,17.553472222222222C1430.6666666666667,17.16481481481481,1433.0833333333333,16.77615740740739,1435.5,16.38749999999998C1437.9166666666667,15.998842592592572,1440.3333333333333,15.610185185185173,1442.75,15.22152777777777C1445.1666666666667,14.832870370370365,1447.5833333333333,14.444212962962961,1450,14.055555555555557" fill="transparent" stroke-linecap="round" stroke="#E7C6DF" stroke-width="2"></path><g class="visx-group visx-axis visx-axis-bottom" transform="translate(0, 115)"><g class="visx-group visx-axis-tick" transform="translate(0, 0)"><line class="visx-line" x1="0" y1="0" x2="0" y2="8" fill="transparent" shape-rendering="crispEdges" stroke="#000" stroke-width="0" stroke-linecap="square"></line><svg x="0" y="0" font-size="10" style="overflow:visible"><text transform="" x="0" y="18" fill="#000" font-size="10" text-anchor="middle"><tspan x="0" dy="0em">0%</tspan></text></svg></g><g class="visx-group visx-axis-tick" transform="translate(0, 0)"><line class="visx-line" x1="362.5" y1="0" x2="362.5" y2="8" fill="transparent" shape-rendering="crispEdges" stroke="#000" stroke-width="0" stroke-linecap="square"></line><svg x="0" y="0" font-size="10" style="overflow:visible"><text transform="" x="362.5" y="18" fill="#000" font-size="10" text-anchor="middle"><tspan x="362.5" dy="0em">25%</tspan></text></svg></g><g class="visx-group visx-axis-tick" transform="translate(0, 0)"><line class="visx-line" x1="725" y1="0" x2="725" y2="8" fill="transparent" shape-rendering="crispEdges" stroke="#000" stroke-width="0" stroke-linecap="square"></line><svg x="0" y="0" font-size="10" style="overflow:visible"><text transform="" x="725" y="18" fill="#000" font-size="10" text-anchor="middle"><tspan x="725" dy="0em">50%</tspan></text></svg></g><g class="visx-group visx-axis-tick" transform="translate(0, 0)"><line class="visx-line" x1="1087.5" y1="0" x2="1087.5" y2="8" fill="transparent" shape-rendering="crispEdges" stroke="#000" stroke-width="0" stroke-linecap="square"></line><svg x="0" y="0" font-size="10" style="overflow:visible"><text transform="" x="1087.5" y="18" fill="#000" font-size="10" text-anchor="middle"><tspan x="1087.5" dy="0em">75%</tspan></text></svg></g><g class="visx-group visx-axis-tick" transform="translate(0, 0)"><line class="visx-line" x1="1450" y1="0" x2="1450" y2="8" fill="transparent" shape-rendering="crispEdges" stroke="#000" stroke-width="0" stroke-linecap="square"></line><svg x="0" y="0" font-size="10" style="overflow:visible"><text transform="" x="1450" y="18" fill="#000" font-size="10" text-anchor="middle"><tspan x="1450" dy="0em">100%</tspan></text></svg></g><line class="visx-line visx-axis-line" x1="0.5" y1="0" x2="1450.5" y2="0" fill="transparent" shape-rendering="crispEdges" stroke="#222" stroke-width="0"></line></g><g class="visx-group visx-axis visx-axis-left" transform="translate(0, 0)"><g class="visx-group visx-axis-tick" transform="translate(0, 0)"><line class="visx-line" x1="0" y1="115" x2="-8" y2="115" fill="transparent" shape-rendering="crispEdges" stroke="#222" stroke-width="0" stroke-linecap="square"></line><svg x="-30" y="0" font-size="8" style="overflow:visible"><text transform="" x="-8" y="115" fill="#000" font-size="8" text-anchor="start"><tspan x="-8" dy="0em">0%</tspan></text></svg></g><g class="visx-group visx-axis-tick" transform="translate(0, 0)"><line class="visx-line" x1="0" y1="51.11111111111111" x2="-8" y2="51.11111111111111" fill="transparent" shape-rendering="crispEdges" stroke="#222" stroke-width="0" stroke-linecap="square"></line><svg x="-30" y="0" font-size="8" style="overflow:visible"><text transform="" x="-8" y="51.11111111111111" fill="#000" font-size="8" text-anchor="start"><tspan x="-8" dy="0em">100%</tspan></text></svg></g><line class="visx-line visx-axis-line" x1="0" y1="115.5" x2="0" y2="0.5" fill="transparent" shape-rendering="crispEdges" stroke="#222" stroke-width="0"></line></g><rect class="visx-bar" width="1450" height="115" fill="transparent"></rect><line class="visx-line" x1="870" y1="28" x2="870" y2="115" fill="transparent" shape-rendering="crispEdges" stroke="#0062D2" stroke-width="1" pointer-events="none" stroke-dasharray="5,2"></line><svg x="0" y="0" font-size="10px" style="overflow:visible"><text transform="" x="870" y="20" font-size="10px" fill="#fff" stroke="#fff" stroke-width="0.8em" text-anchor="middle"><tspan x="870" dy="0.355em">Optimal 60%</tspan></text></svg><svg x="0" y="0" font-size="10px" style="overflow:visible"><text transform="" x="870" y="20" font-size="10px" fill="#62677B" text-anchor="middle"><tspan x="870" dy="0.355em">Optimal 60%</tspan></text></svg></g></svg>