<?xml version="1.0"?><svg xmlns="http://www.w3.org/2000/svg" xmlns:xlink= "http://www.w3.org/1999/xlink" style="background: white;" width="1500" height="185"> <g style="color: black; font-size: 13px; font-family: sans-serif; transform: translate(18px, 25px);"><g><circle r="3" cx="-6" cy="-5" style="fill: #B6509E" /><text>Borrow APR, variable</text></g><g style="transform: translateX(150px);"><circle r="3" cx="-6" cy="-5" style="fill: rgb(231, 198, 223)" /><text>Borrow APR, stable</text></g><g style="transform: translateX(290px);"><circle r="3" cx="-6" cy="-5" style="fill: rgb(0, 98, 210)" /><text>Utilization Rate</text></g></g><g class="visx-group" transform="translate(40, 50)"><g class="visx-group visx-rows" transform="translate(0, 0)"><line class="visx-line" x1="0" y1="115" x2="1450" y2="115" fill="transparent" shape-rendering="crispEdges" stroke="#000" stroke-width="1" stroke-dasharray="3,3" pointer-events="none"></line><line class="visx-line" x1="0" y1="73.18181818181819" x2="1450" y2="73.18181818181819" fill="transparent" shape-rendering="crispEdges" stroke="#000" stroke-width="1" stroke-dasharray="3,3" pointer-events="none"></line><line class="visx-line" x1="0" y1="31.36363636363636" x2="1450" y2="31.36363636363636" fill="transparent" shape-rendering="crispEdges" stroke="#000" stroke-width="1" stroke-dasharray="3,3" pointer-events="none"></line></g><path class="visx-linepath" d="M0,94.09090907627274C2.4166666666666665,91.65151514297727,4.833333333333334,89.21212120968181,7.25,86.77272727272727C9.666666666666666,84.33333333577272,12.083333333333334,79.66574839302112,14.5,79.45454545454545C16.916666666666668,79.24334251606979,19.333333333333332,79.24334251606979,21.75,79.13774104683196C24.166666666666668,79.03213957759414,26.583333333333332,78.92653810835628,29,78.82093663911846C31.416666666666668,78.71533516988063,33.833333333333336,78.6097337006428,36.25,78.50413223140497C38.666666666666664,78.39853076216713,41.083333333333336,78.2929292929293,43.5,78.18732782369146C45.91666666666667,78.08172635445362,48.333333333333336,77.9761248852158,50.75000000000001,77.87052341597796C53.16666666666667,77.76492194674013,55.583333333333336,77.65932047750229,58,77.55371900826447C60.416666666666664,77.44811753902663,62.833333333333336,77.34251606978879,65.25,77.23691460055096C67.66666666666667,77.13131313131314,70.08333333333333,77.02571166207531,72.5,76.92011019283747C74.91666666666667,76.81450872359963,77.33333333333333,76.7089072543618,79.75,76.60330578512396C82.16666666666667,76.49770431588612,84.58333333333333,76.3921028466483,87,76.28650137741046C89.41666666666667,76.18089990817262,91.83333333333333,76.0752984389348,94.25,75.96969696969697C96.66666666666667,75.86409550045914,99.08333333333334,75.75849403122132,101.50000000000001,75.65289256198348C103.91666666666667,75.54729109274565,106.33333333333334,75.4416896235078,108.75,75.33608815426997C111.16666666666667,75.23048668503213,113.58333333333333,75.12488521579431,116,75.01928374655648C118.41666666666667,74.91368227731864,120.83333333333334,74.80808080808082,123.25000000000001,74.70247933884298C125.66666666666667,74.59687786960514,128.08333333333334,74.4912764003673,130.5,74.38567493112947C132.91666666666666,74.28007346189165,135.33333333333334,74.17447199265382,137.75,74.068870523416C140.16666666666666,73.96326905417817,142.58333333333334,73.85766758494033,145,73.75206611570249C147.41666666666666,73.64646464646465,149.83333333333334,73.54086317722681,152.25,73.43526170798899C154.66666666666666,73.32966023875116,157.08333333333334,73.22405876951333,159.5,73.1184573002755C161.91666666666666,73.01285583103765,164.33333333333334,72.9072543617998,166.75,72.80165289256198C169.16666666666666,72.69605142332415,171.58333333333334,72.59044995408632,174,72.4848484848485C176.41666666666666,72.37924701561067,178.83333333333334,72.27364554637283,181.25,72.168044077135C183.66666666666666,72.06244260789715,186.08333333333334,71.95684113865931,188.5,71.85123966942149C190.91666666666666,71.74563820018366,193.33333333333334,71.64003673094584,195.75,71.534435261708C198.16666666666669,71.42883379247016,200.58333333333334,71.32323232323232,203.00000000000003,71.21763085399448C205.41666666666669,71.11202938475665,207.83333333333331,71.00642791551883,210.24999999999997,70.900826446281C212.66666666666666,70.79522497704318,215.08333333333331,70.68962350780534,217.5,70.5840220385675C219.91666666666666,70.47842056932966,222.33333333333334,70.37281910009183,224.75,70.26721763085399C227.16666666666666,70.16161616161615,229.58333333333334,70.05601469237833,232,69.95041322314049C234.41666666666666,69.84481175390265,236.83333333333334,69.73921028466481,239.25,69.63360881542698C241.66666666666669,69.52800734618916,244.08333333333334,69.42240587695134,246.50000000000003,69.3168044077135C248.91666666666669,69.21120293847568,251.33333333333331,69.10560146923783,253.74999999999997,68.99999999999999C256.16666666666663,68.89439853076215,258.5833333333333,68.78879706152433,261,68.6831955922865C263.4166666666667,68.57759412304867,265.8333333333333,68.47199265381083,268.25,68.36639118457299C270.6666666666667,68.26078971533515,273.0833333333333,68.15518824609731,275.5,68.04958677685948C277.9166666666667,67.94398530762166,280.3333333333333,67.83838383838383,282.75,67.73278236914601C285.1666666666667,67.62718089990818,287.5833333333333,67.52157943067034,290,67.4159779614325C292.4166666666667,67.31037649219466,294.8333333333333,67.20477502295682,297.25,67.099173553719C299.6666666666667,66.99357208448117,302.0833333333333,66.88797061524335,304.5,66.78236914600551C306.9166666666667,66.67676767676767,309.3333333333333,66.57116620752984,311.75,66.465564738292C314.1666666666667,66.35996326905416,316.5833333333333,66.25436179981634,319,66.14876033057851C321.4166666666667,66.04315886134069,323.8333333333333,65.93755739210286,326.25,65.83195592286502C328.6666666666667,65.72635445362718,331.0833333333333,65.62075298438936,333.5,65.51515151515152C335.9166666666667,65.40955004591368,338.3333333333333,65.30394857667585,340.75,65.19834710743801C343.1666666666667,65.09274563820017,345.5833333333333,64.98714416896235,348,64.88154269972452C350.4166666666667,64.7759412304867,352.8333333333333,64.67033976124884,355.25,64.56473829201101C357.6666666666667,64.45913682277319,360.0833333333333,64.35353535353536,362.5,64.24793388429752C364.9166666666667,64.14233241505968,367.3333333333333,64.03673094582186,369.75,63.93112947658402C372.1666666666667,63.825528007346186,374.5833333333333,63.71992653810835,377,63.61432506887052C379.4166666666667,63.50872359963269,381.8333333333333,63.40312213039486,384.25,63.29752066115703C386.6666666666667,63.1919191919192,389.0833333333333,63.08631772268136,391.5,62.980716253443525C393.9166666666667,62.87511478420569,396.33333333333337,62.76951331496786,398.75000000000006,62.66391184573003C401.16666666666674,62.558310376492194,403.58333333333337,62.45270890725437,406.00000000000006,62.347107438016536C408.4166666666667,62.241505968778704,410.8333333333333,62.135904499540864,413.24999999999994,62.03030303030303C415.66666666666663,61.9247015610652,418.08333333333326,61.819100091827366,420.49999999999994,61.71349862258953C422.91666666666663,61.6078971533517,425.3333333333333,61.50229568411386,427.75,61.39669421487603C430.1666666666667,61.291092745638196,432.5833333333333,61.18549127640036,435,61.07988980716253C437.4166666666667,60.9742883379247,439.8333333333333,60.86868686868687,442.25,60.76308539944904C444.6666666666667,60.65748393021121,447.0833333333333,60.55188246097338,449.5,60.44628099173555C451.9166666666667,60.340679522497716,454.3333333333333,60.23507805325988,456.75,60.12947658402205C459.1666666666667,60.02387511478422,461.5833333333333,59.91827364554638,464,59.812672176308546C466.4166666666667,59.70707070707071,468.8333333333333,59.601469237832866,471.25,59.49586776859503C473.6666666666667,59.3902662993572,476.0833333333333,59.284664830119375,478.5,59.17906336088154C480.9166666666667,59.07346189164371,483.33333333333337,58.96786042240588,485.75000000000006,58.862258953168045C488.16666666666674,58.75665748393021,490.58333333333337,58.65105601469237,493.00000000000006,58.54545454545454C495.4166666666667,58.43985307621671,497.8333333333333,58.33425160697887,500.24999999999994,58.228650137741035C502.66666666666663,58.1230486685032,505.08333333333326,58.01744719926537,507.49999999999994,57.91184573002754C509.91666666666663,57.806244260789704,512.3333333333333,57.70064279155188,514.75,57.595041322314046C517.1666666666666,57.48943985307621,519.5833333333334,57.38383838383838,522,57.27823691460055C524.4166666666666,57.172635445362715,526.8333333333334,57.06703397612489,529.25,56.96143250688706C531.6666666666666,56.855831037649224,534.0833333333334,56.75022956841137,536.5,56.64462809917354C538.9166666666666,56.539026629935705,541.3333333333334,56.43342516069789,543.75,56.327823691460054C546.1666666666666,56.22222222222222,548.5833333333334,56.11662075298438,551,56.01101928374655C553.4166666666666,55.905417814508716,555.8333333333334,55.79981634527089,558.25,55.69421487603306C560.6666666666666,55.588613406795226,563.0833333333334,55.48301193755739,565.5,55.37741046831956C567.9166666666666,55.27180899908173,570.3333333333334,55.16620752984389,572.75,55.060606060606055C575.1666666666666,54.95500459136822,577.5833333333334,54.84940312213039,580,54.74380165289256C582.4166666666666,54.638200183654725,584.8333333333334,54.5325987144169,587.25,54.42699724517907C589.6666666666666,54.321395775941234,592.0833333333334,54.215794306703394,594.5,54.11019283746556C596.9166666666666,54.00459136822773,599.3333333333334,53.898989898989896,601.75,53.79338842975206C604.1666666666666,53.68778696051423,606.5833333333334,53.58218549127639,609,53.47658402203856C611.4166666666666,53.370982552800726,613.8333333333334,53.26538108356291,616.25,53.159779614325075C618.6666666666666,53.05417814508724,621.0833333333334,52.9485766758494,623.5,52.84297520661157C625.9166666666666,52.73737373737374,628.3333333333334,52.63177226813591,630.75,52.52617079889808C633.1666666666666,52.420569329660246,635.5833333333334,52.3149678604224,638,52.20936639118457C640.4166666666666,52.103764921946734,642.8333333333334,51.99816345270891,645.25,51.892561983471076C647.6666666666666,51.78696051423324,650.0833333333334,51.68135904499541,652.5,51.57575757575758C654.9166666666666,51.470156106519745,657.3333333333334,51.36455463728192,659.75,51.25895316804409C662.1666666666666,51.153351698806254,664.5833333333334,51.04775022956841,667,50.942148760330575C669.4166666666666,50.83654729109274,671.8333333333334,50.73094582185492,674.25,50.625344352617084C676.6666666666666,50.51974288337925,679.0833333333334,50.41414141414141,681.5,50.30853994490358C683.9166666666666,50.202938475665746,686.3333333333334,50.09733700642793,688.75,49.991735537190095C691.1666666666666,49.88613406795226,693.5833333333334,49.78053259871442,696,49.67493112947659C698.4166666666666,49.56932966023876,700.8333333333334,49.46372819100092,703.25,49.358126721763085C705.6666666666666,49.25252525252525,708.0833333333334,49.146923783287406,710.5,49.04132231404957C712.9166666666666,48.93572084481174,715.3333333333334,48.830119375573915,717.75,48.72451790633608C720.1666666666666,48.61891643709825,722.5833333333334,48.51331496786042,725,48.407713498622584C727.4166666666666,48.30211202938475,729.8333333333334,48.196510560146926,732.25,48.09090909090909C734.6666666666666,47.98530762167126,737.0833333333334,47.879706152433414,739.5,47.77410468319558C741.9166666666666,47.66850321395775,744.3333333333334,47.56290174471992,746.75,47.45730027548209C749.1666666666666,47.35169880624426,751.5833333333334,47.24609733700642,754,47.140495867768585C756.4166666666666,47.03489439853075,758.8333333333334,46.929292929292934,761.25,46.8236914600551C763.6666666666666,46.71808999081727,766.0833333333334,46.61248852157943,768.5,46.5068870523416C770.9166666666666,46.401285583103764,773.3333333333334,46.29568411386593,775.75,46.1900826446281C778.1666666666666,46.084481175390266,780.5833333333334,45.978879706152426,783,45.873278236914594C785.4166666666667,45.76767676767676,787.8333333333334,45.662075298438936,790.2500000000001,45.5564738292011C792.6666666666667,45.45087235996327,795.0833333333335,45.34527089072544,797.5000000000001,45.239669421487605C799.9166666666667,45.13406795224977,802.3333333333335,45.02846648301195,804.7500000000001,44.922865013774114C807.1666666666667,44.81726354453628,809.5833333333335,44.711662075298435,812.0000000000001,44.6060606060606C814.4166666666667,44.50045913682277,816.8333333333333,44.394857667584944,819.2499999999999,44.28925619834711C821.6666666666665,44.18365472910928,824.0833333333333,44.07805325987144,826.4999999999999,43.972451790633606C828.9166666666665,43.86685032139577,831.3333333333333,43.761248852157955,833.7499999999999,43.65564738292012C836.1666666666665,43.55004591368229,838.5833333333333,43.444444444444436,840.9999999999999,43.3388429752066C843.4166666666666,43.23324150596877,845.8333333333333,43.12764003673095,848.25,43.02203856749312C850.6666666666666,42.91643709825529,853.0833333333334,42.81083562901745,855.5,42.705234159779614C857.9166666666666,42.59963269054178,860.3333333333334,42.494031221303956,862.75,42.38842975206612C865.1666666666666,42.28282828282829,867.5833333333334,42.17722681359046,870,42.071625344352626C872.4166666666666,41.96602387511479,874.8333333333334,41.86042240587695,877.25,41.75482093663912C879.6666666666666,41.64921946740129,882.0833333333334,41.543617998163455,884.5,41.43801652892562C886.9166666666666,41.33241505968779,889.3333333333334,41.226813590449964,891.75,41.12121212121213C894.1666666666666,41.0156106519743,896.5833333333334,40.91000918273646,899,40.80440771349863C901.4166666666666,40.698806244260794,903.8333333333334,40.59320477502296,906.25,40.48760330578513C908.6666666666666,40.382001836547296,911.0833333333334,40.276400367309456,913.5,40.170798898071624C915.9166666666666,40.06519742883379,918.3333333333334,39.959595959595966,920.75,39.85399449035813C923.1666666666666,39.7483930211203,925.5833333333334,39.64279155188247,928,39.537190082644635C930.4166666666666,39.4315886134068,932.8333333333334,39.32598714416896,935.25,39.22038567493113C937.6666666666666,39.1147842056933,940.0833333333334,39.009182736455465,942.5,38.90358126721763C944.9166666666666,38.7979797979798,947.3333333333334,38.69237832874196,949.75,38.58677685950413C952.1666666666666,38.481175390266294,954.5833333333334,38.37557392102846,957,38.26997245179063C959.4166666666666,38.164370982552796,961.8333333333334,38.05876951331497,964.25,37.95316804407714C966.6666666666667,37.847566574839306,969.0833333333334,37.741965105601466,971.5000000000001,37.63636363636363C973.9166666666667,37.5307621671258,976.3333333333335,37.42516069788797,978.7500000000001,37.319559228650135C981.1666666666667,37.2139577594123,983.5833333333335,37.10835629017446,986.0000000000001,37.00275482093663C988.4166666666667,36.8971533516988,990.8333333333335,36.79155188246098,993.2500000000001,36.685950413223146C995.6666666666667,36.580348943985314,998.0833333333333,36.474747474747474,1000.4999999999999,36.36914600550964C1002.9166666666665,36.2635445362718,1005.3333333333333,36.15794306703397,1007.7499999999999,36.052341597796136C1010.1666666666665,35.946740128558304,1012.5833333333333,35.84113865932047,1014.9999999999999,35.73553719008264C1017.4166666666665,35.629935720844806,1019.8333333333333,35.524334251606966,1022.2499999999999,35.41873278236913C1024.6666666666665,35.3131313131313,1027.0833333333333,35.20752984389348,1029.5,35.10192837465565C1031.9166666666667,34.99632690541782,1034.3333333333333,34.89072543617998,1036.75,34.785123966942145C1039.1666666666667,34.67952249770431,1041.5833333333333,34.573921028466486,1044,34.468319559228654C1046.4166666666667,34.36271808999082,1048.8333333333333,34.257116620752974,1051.25,34.15151515151514C1053.6666666666667,34.04591368227731,1056.0833333333333,33.94031221303948,1058.5,33.83471074380165C1060.9166666666667,33.72910927456382,1063.3333333333333,33.623507805325985,1065.75,33.51790633608815C1068.1666666666667,33.41230486685032,1070.5833333333333,33.306703397612495,1073,33.20110192837466C1075.4166666666667,33.09550045913683,1077.8333333333333,32.98989898989898,1080.25,32.88429752066115C1082.6666666666667,32.77869605142332,1085.0833333333333,32.67309458218549,1087.5,32.56749311294766C1089.9166666666667,32.461891643709826,1092.3333333333333,32.35629017447199,1094.75,32.250688705234154C1097.1666666666667,32.14508723599632,1099.5833333333333,32.039485766758496,1102,31.933884297520667C1104.4166666666667,31.828282828282834,1106.8333333333333,31.722681359044998,1109.25,31.617079889807165C1111.6666666666667,31.511478420569333,1114.0833333333333,31.4058769513315,1116.5,31.300275482093664C1118.9166666666667,31.194674012855828,1121.3333333333333,31.08907254361798,1123.75,30.983471074380148C1126.1666666666667,30.877869605142315,1128.5833333333333,30.772268135904504,1131,30.66666666666667C1133.4166666666667,30.56106519742884,1135.8333333333333,30.455463728190992,1138.25,30.34986225895316C1140.6666666666667,30.244260789715327,1143.0833333333333,30.1386593204775,1145.5,30.03305785123967C1147.9166666666667,29.927456382001836,1150.3333333333333,29.821854912763985,1152.75,29.716253443526153C1155.1666666666667,29.61065197428832,1157.5833333333333,29.505050505050512,1160,29.39944903581268C1162.4166666666667,29.293847566574847,1164.8333333333333,29.188246097336997,1167.25,29.082644628099164C1169.6666666666667,28.97704315886133,1172.0833333333333,28.87144168962352,1174.5,28.765840220385687C1176.9166666666667,28.660238751147855,1179.3333333333333,28.554637281910004,1181.75,28.44903581267217C1184.1666666666667,28.34343434343434,1186.5833333333333,28.237832874196517,1189,28.132231404958684C1191.4166666666667,28.02662993572085,1193.8333333333333,27.921028466483,1196.25,27.81542699724517C1198.6666666666667,27.709825528007336,1201.0833333333333,27.604224058769525,1203.5,27.498622589531692C1205.9166666666667,27.39302112029386,1208.3333333333333,27.287419651056013,1210.75,27.18181818181818C1213.1666666666667,27.076216712580347,1215.5833333333333,26.97061524334252,1218,26.86501377410469C1220.4166666666667,26.759412304866856,1222.8333333333333,26.653810835629006,1225.25,26.548209366391173C1227.6666666666667,26.44260789715334,1230.0833333333333,26.33700642791553,1232.5,26.231404958677697C1234.9166666666667,26.125803489439864,1237.3333333333333,26.020202020202017,1239.75,25.914600550964185C1242.1666666666667,25.808999081726352,1244.5833333333333,25.703397612488526,1247,25.597796143250694C1249.4166666666667,25.49219467401286,1251.8333333333333,25.386593204775014,1254.25,25.28099173553718C1256.6666666666667,25.17539026629935,1259.0833333333333,25.069788797061538,1261.5,24.964187327823705C1263.9166666666667,24.858585858585872,1266.3333333333333,24.752984389348022,1268.75,24.64738292011019C1271.1666666666667,24.541781450872357,1273.5833333333333,24.43617998163453,1276,24.3305785123967C1278.4166666666667,24.224977043158866,1280.8333333333333,24.11937557392103,1283.25,24.013774104683197C1285.6666666666667,23.908172635445364,1288.0833333333333,23.802571166207542,1290.5,23.69696969696971C1292.9166666666667,23.591368227731877,1295.3333333333333,23.485766758494027,1297.75,23.380165289256194C1300.1666666666667,23.27456382001836,1302.5833333333333,23.16896235078055,1305,23.063360881542717C1307.4166666666667,22.957759412304885,1309.8333333333333,22.85215794306704,1312.25,22.746556473829205C1314.6666666666667,22.64095500459137,1317.0833333333333,22.535353535353533,1319.5,22.4297520661157C1321.9166666666667,22.324150596877868,1324.3333333333333,22.21854912764003,1326.75,22.1129476584022C1329.1666666666667,22.007346189164366,1331.5833333333333,21.90174471992653,1334,21.796143250688697C1336.4166666666667,21.690541781450865,1338.8333333333333,21.584940312213043,1341.25,21.47933884297521C1343.6666666666667,21.373737373737377,1346.0833333333333,21.26813590449954,1348.5,21.16253443526171C1350.9166666666667,21.056932966023876,1353.3333333333333,20.95133149678604,1355.75,20.845730027548207C1358.1666666666667,20.740128558310374,1360.5833333333333,20.634527089072535,1363,20.528925619834702C1365.4166666666667,20.42332415059687,1367.8333333333333,20.317722681359047,1370.25,20.212121212121215C1372.6666666666667,20.106519742883382,1375.0833333333333,20.000918273645546,1377.5,19.895316804407713C1379.9166666666667,19.78971533516988,1382.3333333333333,19.684113865932044,1384.75,19.57851239669421C1387.1666666666667,19.47291092745638,1389.5833333333333,19.367309458218543,1392,19.26170798898071C1394.4166666666667,19.156106519742877,1396.8333333333333,19.050505050505052,1399.25,18.94490358126722C1401.6666666666667,18.839302112029387,1404.0833333333333,18.73370064279155,1406.5,18.628099173553718C1408.9166666666667,18.522497704315885,1411.3333333333333,18.416896235078063,1413.75,18.31129476584023C1416.1666666666667,18.205693296602398,1418.5833333333333,18.10009182736456,1421,17.99449035812673C1423.4166666666667,17.888888888888896,1425.8333333333333,17.783287419651057,1428.25,17.677685950413224C1430.6666666666667,17.57208448117539,1433.0833333333333,17.466483011937555,1435.5,17.360881542699723C1437.9166666666667,17.25528007346189,1440.3333333333333,17.149678604224068,1442.75,17.044077134986235C1445.1666666666667,16.938475665748403,1447.5833333333333,16.83287419651057,1450,16.727272727272734" fill="transparent" stroke-linecap="round" stroke="#B6509E" stroke-width="2"></path><path class="visx-linepath" d="M0,112.90909089445454C2.4166666666666665,110.46969696115909,4.833333333333334,108.03030302786364,7.25,105.5909090909091C9.666666666666666,103.15151515395455,12.083333333333334,98.48393021120293,14.5,98.27272727272727C16.916666666666668,98.0615243342516,19.333333333333332,98.0615243342516,21.75,97.95592286501378C24.166666666666668,97.85032139577595,26.583333333333332,97.7447199265381,29,97.63911845730027C31.416666666666668,97.53351698806244,33.833333333333336,97.4279155188246,36.25,97.32231404958678C38.666666666666664,97.21671258034895,41.083333333333336,97.11111111111111,43.5,97.00550964187329C45.91666666666667,96.89990817263545,48.333333333333336,96.79430670339762,50.75000000000001,96.68870523415978C53.16666666666667,96.58310376492194,55.583333333333336,96.47750229568412,58,96.37190082644628C60.416666666666664,96.26629935720844,62.833333333333336,96.1606978879706,65.25,96.05509641873277C67.66666666666667,95.94949494949495,70.08333333333333,95.84389348025711,72.5,95.73829201101928C74.91666666666667,95.63269054178146,77.33333333333333,95.52708907254362,79.75,95.42148760330579C82.16666666666667,95.31588613406797,84.58333333333333,95.21028466483013,87,95.10468319559229C89.41666666666667,94.99908172635445,91.83333333333333,94.89348025711662,94.25,94.78787878787878C96.66666666666667,94.68227731864094,99.08333333333334,94.5766758494031,101.50000000000001,94.47107438016528C103.91666666666667,94.36547291092745,106.33333333333334,94.25987144168963,108.75,94.1542699724518C111.16666666666667,94.04866850321397,113.58333333333333,93.94306703397613,116,93.8374655647383C118.41666666666667,93.73186409550046,120.83333333333334,93.62626262626263,123.25000000000001,93.52066115702479C125.66666666666667,93.41505968778695,128.08333333333334,93.30945821854911,130.5,93.20385674931129C132.91666666666666,93.09825528007345,135.33333333333334,92.99265381083562,137.75,92.8870523415978C140.16666666666666,92.78145087235997,142.58333333333334,92.67584940312213,145,92.5702479338843C147.41666666666666,92.46464646464648,149.83333333333334,92.35904499540862,152.25,92.2534435261708C154.66666666666666,92.14784205693297,157.08333333333334,92.04224058769515,159.5,91.93663911845731C161.91666666666666,91.83103764921947,164.33333333333334,91.72543617998164,166.75,91.6198347107438C169.16666666666666,91.51423324150596,171.58333333333334,91.40863177226814,174,91.3030303030303C176.41666666666666,91.19742883379246,178.83333333333334,91.09182736455463,181.25,90.9862258953168C183.66666666666666,90.88062442607898,186.08333333333334,90.77502295684113,188.5,90.6694214876033C190.91666666666666,90.56382001836548,193.33333333333334,90.45821854912764,195.75,90.35261707988981C198.16666666666669,90.24701561065197,200.58333333333334,90.14141414141415,203.00000000000003,90.0358126721763C205.41666666666669,89.93021120293847,207.83333333333331,89.82460973370063,210.24999999999997,89.7190082644628C212.66666666666666,89.61340679522498,215.08333333333331,89.50780532598716,217.5,89.40220385674932C219.91666666666666,89.2966023875115,222.33333333333334,89.19100091827364,224.75,89.0853994490358C227.16666666666666,88.97979797979797,229.58333333333334,88.87419651056015,232,88.76859504132231C234.41666666666666,88.66299357208447,236.83333333333334,88.55739210284663,239.25,88.45179063360881C241.66666666666669,88.34618916437097,244.08333333333334,88.24058769513314,246.50000000000003,88.13498622589532C248.91666666666669,88.02938475665749,251.33333333333331,87.92378328741965,253.74999999999997,87.81818181818183C256.16666666666663,87.71258034894399,258.5833333333333,87.60697887970616,261,87.50137741046832C263.4166666666667,87.39577594123048,265.8333333333333,87.29017447199266,268.25,87.18457300275482C270.6666666666667,87.07897153351698,273.0833333333333,86.97337006427915,275.5,86.86776859504133C277.9166666666667,86.7621671258035,280.3333333333333,86.65656565656565,282.75,86.55096418732782C285.1666666666667,86.44536271809,287.5833333333333,86.33976124885217,290,86.23415977961433C292.4166666666667,86.12855831037649,294.8333333333333,86.02295684113867,297.25,85.91735537190083C299.6666666666667,85.81175390266299,302.0833333333333,85.70615243342516,304.5,85.60055096418732C306.9166666666667,85.49494949494948,309.3333333333333,85.38934802571166,311.75,85.28374655647383C314.1666666666667,85.178145087236,316.5833333333333,85.07254361799815,319,84.96694214876032C321.4166666666667,84.8613406795225,323.8333333333333,84.75573921028466,326.25,84.65013774104683C328.6666666666667,84.54453627180901,331.0833333333333,84.43893480257118,333.5,84.33333333333334C335.9166666666667,84.2277318640955,338.3333333333333,84.12213039485766,340.75,84.01652892561982C343.1666666666667,83.91092745638198,345.5833333333333,83.80532598714416,348,83.69972451790633C350.4166666666667,83.59412304866851,352.8333333333333,83.48852157943065,355.25,83.38292011019283C357.6666666666667,83.277318640955,360.0833333333333,83.17171717171716,362.5,83.06611570247934C364.9166666666667,82.96051423324151,367.3333333333333,82.85491276400367,369.75,82.74931129476585C372.1666666666667,82.64370982552802,374.5833333333333,82.53810835629018,377,82.43250688705234C379.4166666666667,82.3269054178145,381.8333333333333,82.22130394857666,384.25,82.11570247933884C386.6666666666667,82.01010101010101,389.0833333333333,81.90449954086317,391.5,81.79889807162535C393.9166666666667,81.6932966023875,396.33333333333337,81.58769513314968,398.75000000000006,81.48209366391184C401.16666666666674,81.37649219467401,403.58333333333337,81.27089072543619,406.00000000000006,81.16528925619835C408.4166666666667,81.05968778696052,410.8333333333333,80.95408631772268,413.24999999999994,80.84848484848484C415.66666666666663,80.742883379247,418.08333333333326,80.63728191000916,420.49999999999994,80.53168044077134C422.91666666666663,80.4260789715335,425.3333333333333,80.32047750229567,427.75,80.21487603305785C430.1666666666667,80.10927456382002,432.5833333333333,80.00367309458218,435,79.89807162534436C437.4166666666667,79.79247015610653,439.8333333333333,79.68686868686868,442.25,79.58126721763085C444.6666666666667,79.47566574839303,447.0833333333333,79.3700642791552,449.5,79.26446280991736C451.9166666666667,79.15886134067952,454.3333333333333,79.0532598714417,456.75,78.94765840220386C459.1666666666667,78.84205693296602,461.5833333333333,78.73645546372819,464,78.63085399449035C466.4166666666667,78.52525252525251,468.8333333333333,78.41965105601469,471.25,78.31404958677686C473.6666666666667,78.20844811753904,476.0833333333333,78.10284664830118,478.5,77.99724517906336C480.9166666666667,77.89164370982552,483.33333333333337,77.7860422405877,485.75000000000006,77.68044077134986C488.16666666666674,77.57483930211204,490.58333333333337,77.4692378328742,493.00000000000006,77.36363636363636C495.4166666666667,77.25803489439853,497.8333333333333,77.1524334251607,500.24999999999994,77.04683195592287C502.66666666666663,76.94123048668504,505.08333333333326,76.8356290174472,507.49999999999994,76.73002754820938C509.91666666666663,76.62442607897154,512.3333333333333,76.51882460973371,514.75,76.41322314049587C517.1666666666666,76.30762167125803,519.5833333333334,76.20202020202021,522,76.09641873278237C524.4166666666666,75.99081726354453,526.8333333333334,75.8852157943067,529.25,75.77961432506888C531.6666666666666,75.67401285583105,534.0833333333334,75.5684113865932,536.5,75.46280991735537C538.9166666666666,75.35720844811755,541.3333333333334,75.25160697887972,543.75,75.14600550964188C546.1666666666666,75.04040404040404,548.5833333333334,74.93480257116622,551,74.82920110192838C553.4166666666666,74.72359963269054,555.8333333333334,74.61799816345271,558.25,74.51239669421487C560.6666666666666,74.40679522497703,563.0833333333334,74.3011937557392,565.5,74.19559228650138C567.9166666666666,74.08999081726355,570.3333333333334,73.9843893480257,572.75,73.87878787878788C575.1666666666666,73.77318640955005,577.5833333333334,73.66758494031222,580,73.56198347107438C582.4166666666666,73.45638200183654,584.8333333333334,73.35078053259872,587.25,73.24517906336088C589.6666666666666,73.13957759412304,592.0833333333334,73.03397612488521,594.5,72.92837465564737C596.9166666666666,72.82277318640953,599.3333333333334,72.71717171717171,601.75,72.61157024793388C604.1666666666666,72.50596877869606,606.5833333333334,72.40036730945823,609,72.29476584022039C611.4166666666666,72.18916437098255,613.8333333333334,72.08356290174473,616.25,71.97796143250689C618.6666666666666,71.87235996326905,621.0833333333334,71.76675849403122,623.5,71.6611570247934C625.9166666666666,71.55555555555557,628.3333333333334,71.44995408631773,630.75,71.34435261707989C633.1666666666666,71.23875114784205,635.5833333333334,71.13314967860421,638,71.02754820936639C640.4166666666666,70.92194674012856,642.8333333333334,70.81634527089074,645.25,70.7107438016529C647.6666666666666,70.60514233241506,650.0833333333334,70.49954086317723,652.5,70.39393939393939C654.9166666666666,70.28833792470155,657.3333333333334,70.18273645546373,659.75,70.0771349862259C662.1666666666666,69.97153351698807,664.5833333333334,69.86593204775025,667,69.76033057851241C669.4166666666666,69.65472910927457,671.8333333333334,69.54912764003673,674.25,69.44352617079889C676.6666666666666,69.33792470156105,679.0833333333334,69.23232323232322,681.5,69.1267217630854C683.9166666666666,69.02112029384757,686.3333333333334,68.91551882460973,688.75,68.80991735537191C691.1666666666666,68.70431588613408,693.5833333333334,68.59871441689623,696,68.4931129476584C698.4166666666666,68.38751147842058,700.8333333333334,68.28191000918275,703.25,68.17630853994491C705.6666666666666,68.07070707070707,708.0833333333334,67.96510560146925,710.5,67.85950413223141C712.9166666666666,67.75390266299357,715.3333333333334,67.64830119375574,717.75,67.54269972451792C720.1666666666666,67.43709825528009,722.5833333333334,67.33149678604225,725,67.22589531680441C727.4166666666666,67.12029384756657,729.8333333333334,67.01469237832873,732.25,66.9090909090909C734.6666666666666,66.80348943985308,737.0833333333334,66.69788797061526,739.5,66.59228650137742C741.9166666666666,66.48668503213958,744.3333333333334,66.38108356290175,746.75,66.27548209366391C749.1666666666666,66.16988062442607,751.5833333333334,66.06427915518825,754,65.95867768595042C756.4166666666666,65.8530762167126,758.8333333333334,65.74747474747475,761.25,65.64187327823691C763.6666666666666,65.53627180899908,766.0833333333334,65.43067033976124,768.5,65.32506887052341C770.9166666666666,65.21946740128558,773.3333333333334,65.11386593204776,775.75,65.00826446280992C778.1666666666666,64.90266299357208,780.5833333333334,64.79706152433423,783,64.6914600550964C785.4166666666667,64.58585858585856,787.8333333333334,64.48025711662075,790.2500000000001,64.37465564738292C792.6666666666667,64.2690541781451,795.0833333333335,64.16345270890726,797.5000000000001,64.05785123966942C799.9166666666667,63.952249770431585,802.3333333333335,63.846648301193746,804.7500000000001,63.74104683195591C807.1666666666667,63.63544536271808,809.5833333333335,63.529843893480255,812.0000000000001,63.42424242424242C814.4166666666667,63.31864095500459,816.8333333333333,63.21303948576676,819.2499999999999,63.107438016528924C821.6666666666665,63.00183654729109,824.0833333333333,62.89623507805325,826.4999999999999,62.79063360881542C828.9166666666665,62.68503213957759,831.3333333333333,62.57943067033976,833.7499999999999,62.47382920110193C836.1666666666665,62.368227731864096,838.5833333333333,62.26262626262625,840.9999999999999,62.157024793388416C843.4166666666666,62.05142332415058,845.8333333333333,61.94582185491276,848.25,61.840220385674925C850.6666666666666,61.7346189164371,853.0833333333334,61.629017447199274,855.5,61.52341597796144C857.9166666666666,61.41781450872361,860.3333333333334,61.31221303948577,862.75,61.20661157024794C865.1666666666666,61.101010101010104,867.5833333333334,60.99540863177227,870,60.88980716253444C872.4166666666666,60.784205693296606,874.8333333333334,60.678604224058766,877.25,60.57300275482093C879.6666666666666,60.4674012855831,882.0833333333334,60.36179981634526,884.5,60.25619834710743C886.9166666666666,60.150596877869596,889.3333333333334,60.04499540863178,891.75,59.939393939393945C894.1666666666666,59.83379247015611,896.5833333333334,59.72819100091826,899,59.622589531680426C901.4166666666666,59.51698806244259,903.8333333333334,59.41138659320477,906.25,59.30578512396694C908.6666666666666,59.200183654729116,911.0833333333334,59.094582185491284,913.5,58.98898071625345C915.9166666666666,58.88337924701562,918.3333333333334,58.77777777777778,920.75,58.672176308539946C923.1666666666666,58.56657483930211,925.5833333333334,58.46097337006428,928,58.35537190082645C930.4166666666666,58.249770431588615,932.8333333333334,58.144168962350776,935.25,58.03856749311294C937.6666666666666,57.93296602387511,940.0833333333334,57.82736455463728,942.5,57.721763085399445C944.9166666666666,57.61616161616161,947.3333333333334,57.51056014692379,949.75,57.404958677685954C952.1666666666666,57.29935720844812,954.5833333333334,57.193755739210296,957,57.08815426997246C959.4166666666666,56.98255280073463,961.8333333333334,56.8769513314968,964.25,56.771349862258965C966.6666666666667,56.66574839302113,969.0833333333334,56.56014692378329,971.5000000000001,56.45454545454546C973.9166666666667,56.34894398530763,976.3333333333335,56.24334251606979,978.7500000000001,56.137741046831955C981.1666666666667,56.03213957759412,983.5833333333335,55.92653810835629,986.0000000000001,55.82093663911846C988.4166666666667,55.715335169880625,990.8333333333335,55.6097337006428,993.2500000000001,55.50413223140497C995.6666666666667,55.398530762167134,998.0833333333333,55.2929292929293,1000.4999999999999,55.18732782369147C1002.9166666666665,55.08172635445363,1005.3333333333333,54.97612488521578,1007.7499999999999,54.87052341597795C1010.1666666666665,54.76492194674012,1012.5833333333333,54.6593204775023,1014.9999999999999,54.553719008264466C1017.4166666666665,54.44811753902663,1019.8333333333333,54.34251606978879,1022.2499999999999,54.23691460055096C1024.6666666666665,54.13131313131313,1027.0833333333333,54.02571166207529,1029.5,53.920110192837456C1031.9166666666667,53.81450872359962,1034.3333333333333,53.708907254361804,1036.75,53.60330578512397C1039.1666666666667,53.49770431588614,1041.5833333333333,53.392102846648285,1044,53.28650137741045C1046.4166666666667,53.18089990817262,1048.8333333333333,53.0752984389348,1051.25,52.96969696969697C1053.6666666666667,52.864095500459136,1056.0833333333333,52.758494031221296,1058.5,52.652892561983464C1060.9166666666667,52.54729109274563,1063.3333333333333,52.441689623507806,1065.75,52.33608815426997C1068.1666666666667,52.23048668503214,1070.5833333333333,52.12488521579429,1073,52.01928374655646C1075.4166666666667,51.91368227731863,1077.8333333333333,51.8080808080808,1080.25,51.70247933884297C1082.6666666666667,51.59687786960514,1085.0833333333333,51.491276400367305,1087.5,51.38567493112947C1089.9166666666667,51.28007346189164,1092.3333333333333,51.174471992653814,1094.75,51.06887052341598C1097.1666666666667,50.96326905417815,1099.5833333333333,50.85766758494031,1102,50.752066115702476C1104.4166666666667,50.64646464646464,1106.8333333333333,50.54086317722681,1109.25,50.43526170798898C1111.6666666666667,50.329660238751146,1114.0833333333333,50.224058769513306,1116.5,50.11845730027547C1118.9166666666667,50.01285583103764,1121.3333333333333,49.90725436179982,1123.75,49.80165289256199C1126.1666666666667,49.69605142332416,1128.5833333333333,49.59044995408632,1131,49.484848484848484C1133.4166666666667,49.37924701561065,1135.8333333333333,49.27364554637281,1138.25,49.16804407713498C1140.6666666666667,49.06244260789715,1143.0833333333333,48.956841138659314,1145.5,48.85123966942148C1147.9166666666667,48.74563820018365,1150.3333333333333,48.64003673094582,1152.75,48.53443526170799C1155.1666666666667,48.42883379247016,1157.5833333333333,48.323232323232325,1160,48.21763085399449C1162.4166666666667,48.11202938475666,1164.8333333333333,48.006427915518834,1167.25,47.900826446281C1169.6666666666667,47.79522497704317,1172.0833333333333,47.689623507805315,1174.5,47.58402203856748C1176.9166666666667,47.47842056932965,1179.3333333333333,47.37281910009183,1181.75,47.267217630854C1184.1666666666667,47.161616161616166,1186.5833333333333,47.05601469237833,1189,46.950413223140494C1191.4166666666667,46.84481175390266,1193.8333333333333,46.739210284664836,1196.25,46.633608815427C1198.6666666666667,46.52800734618917,1201.0833333333333,46.42240587695134,1203.5,46.316804407713505C1205.9166666666667,46.21120293847567,1208.3333333333333,46.10560146923783,1210.75,46C1213.1666666666667,45.89439853076217,1215.5833333333333,45.788797061524335,1218,45.6831955922865C1220.4166666666667,45.57759412304867,1222.8333333333333,45.471992653810844,1225.25,45.36639118457301C1227.6666666666667,45.26078971533518,1230.0833333333333,45.155188246097346,1232.5,45.04958677685951C1234.9166666666667,44.94398530762168,1237.3333333333333,44.83838383838384,1239.75,44.73278236914601C1242.1666666666667,44.627180899908176,1244.5833333333333,44.52157943067033,1247,44.415977961432496C1249.4166666666667,44.31037649219466,1251.8333333333333,44.20477502295684,1254.25,44.099173553719005C1256.6666666666667,43.99357208448117,1259.0833333333333,43.88797061524333,1261.5,43.7823691460055C1263.9166666666667,43.67676767676767,1266.3333333333333,43.57116620752985,1268.75,43.46556473829202C1271.1666666666667,43.359963269054184,1273.5833333333333,43.254361799816344,1276,43.14876033057851C1278.4166666666667,43.04315886134068,1280.8333333333333,42.93755739210284,1283.25,42.831955922865006C1285.6666666666667,42.726354453627174,1288.0833333333333,42.62075298438934,1290.5,42.51515151515151C1292.9166666666667,42.409550045913676,1295.3333333333333,42.30394857667585,1297.75,42.19834710743802C1300.1666666666667,42.092745638200185,1302.5833333333333,41.98714416896235,1305,41.88154269972452C1307.4166666666667,41.77594123048669,1309.8333333333333,41.67033976124885,1312.25,41.564738292011015C1314.6666666666667,41.45913682277318,1317.0833333333333,41.35353535353535,1319.5,41.24793388429752C1321.9166666666667,41.142332415059684,1324.3333333333333,41.03673094582186,1326.75,40.931129476584026C1329.1666666666667,40.82552800734619,1331.5833333333333,40.71992653810835,1334,40.61432506887052C1336.4166666666667,40.50872359963269,1338.8333333333333,40.40312213039487,1341.25,40.29752066115704C1343.6666666666667,40.191919191919204,1346.0833333333333,40.08631772268135,1348.5,39.98071625344352C1350.9166666666667,39.875114784205685,1353.3333333333333,39.76951331496786,1355.75,39.66391184573003C1358.1666666666667,39.558310376492194,1360.5833333333333,39.45270890725436,1363,39.34710743801653C1365.4166666666667,39.2415059687787,1367.8333333333333,39.13590449954087,1370.25,39.03030303030304C1372.6666666666667,38.924701561065206,1375.0833333333333,38.81910009182736,1377.5,38.713498622589526C1379.9166666666667,38.60789715335169,1382.3333333333333,38.50229568411387,1384.75,38.396694214876035C1387.1666666666667,38.2910927456382,1389.5833333333333,38.18549127640036,1392,38.07988980716253C1394.4166666666667,37.9742883379247,1396.8333333333333,37.86868686868688,1399.25,37.76308539944905C1401.6666666666667,37.657483930211214,1404.0833333333333,37.551882460973374,1406.5,37.44628099173554C1408.9166666666667,37.34067952249771,1411.3333333333333,37.235078053259876,1413.75,37.12947658402204C1416.1666666666667,37.02387511478421,1418.5833333333333,36.91827364554637,1421,36.81267217630854C1423.4166666666667,36.707070707070706,1425.8333333333333,36.60146923783288,1428.25,36.49586776859505C1430.6666666666667,36.390266299357215,1433.0833333333333,36.28466483011938,1435.5,36.17906336088155C1437.9166666666667,36.07346189164372,1440.3333333333333,35.96786042240589,1442.75,35.86225895316806C1445.1666666666667,35.756657483930226,1447.5833333333333,35.65105601469239,1450,35.54545454545455" fill="transparent" stroke-linecap="round" stroke="#E7C6DF" stroke-width="2"></path><g class="visx-group visx-axis visx-axis-bottom" transform="translate(0, 115)"><g class="visx-group visx-axis-tick" transform="translate(0, 0)"><line class="visx-line" x1="0" y1="0" x2="0" y2="8" fill="transparent" shape-rendering="crispEdges" stroke="#000" stroke-width="0" stroke-linecap="square"></line><svg x="0" y="0" font-size="10" style="overflow:visible"><text transform="" x="0" y="18" fill="#000" font-size="10" text-anchor="middle"><tspan x="0" dy="0em">0%</tspan></text></svg></g><g class="visx-group visx-axis-tick" transform="translate(0, 0)"><line class="visx-line" x1="362.5" y1="0" x2="362.5" y2="8" fill="transparent" shape-rendering="crispEdges" stroke="#000" stroke-width="0" stroke-linecap="square"></line><svg x="0" y="0" font-size="10" style="overflow:visible"><text transform="" x="362.5" y="18" fill="#000" font-size="10" text-anchor="middle"><tspan x="362.5" dy="0em">25%</tspan></text></svg></g><g class="visx-group visx-axis-tick" transform="translate(0, 0)"><line class="visx-line" x1="725" y1="0" x2="725" y2="8" fill="transparent" shape-rendering="crispEdges" stroke="#000" stroke-width="0" stroke-linecap="square"></line><svg x="0" y="0" font-size="10" style="overflow:visible"><text transform="" x="725" y="18" fill="#000" font-size="10" text-anchor="middle"><tspan x="725" dy="0em">50%</tspan></text></svg></g><g class="visx-group visx-axis-tick" transform="translate(0, 0)"><line class="visx-line" x1="1087.5" y1="0" x2="1087.5" y2="8" fill="transparent" shape-rendering="crispEdges" stroke="#000" stroke-width="0" stroke-linecap="square"></line><svg x="0" y="0" font-size="10" style="overflow:visible"><text transform="" x="1087.5" y="18" fill="#000" font-size="10" text-anchor="middle"><tspan x="1087.5" dy="0em">75%</tspan></text></svg></g><g class="visx-group visx-axis-tick" transform="translate(0, 0)"><line class="visx-line" x1="1450" y1="0" x2="1450" y2="8" fill="transparent" shape-rendering="crispEdges" stroke="#000" stroke-width="0" stroke-linecap="square"></line><svg x="0" y="0" font-size="10" style="overflow:visible"><text transform="" x="1450" y="18" fill="#000" font-size="10" text-anchor="middle"><tspan x="1450" dy="0em">100%</tspan></text></svg></g><line class="visx-line visx-axis-line" x1="0.5" y1="0" x2="1450.5" y2="0" fill="transparent" shape-rendering="crispEdges" stroke="#222" stroke-width="0"></line></g><g class="visx-group visx-axis visx-axis-left" transform="translate(0, 0)"><g class="visx-group visx-axis-tick" transform="translate(0, 0)"><line class="visx-line" x1="0" y1="115" x2="-8" y2="115" fill="transparent" shape-rendering="crispEdges" stroke="#222" stroke-width="0" stroke-linecap="square"></line><svg x="-30" y="0" font-size="8" style="overflow:visible"><text transform="" x="-8" y="115" fill="#000" font-size="8" text-anchor="start"><tspan x="-8" dy="0em">0%</tspan></text></svg></g><g class="visx-group visx-axis-tick" transform="translate(0, 0)"><line class="visx-line" x1="0" y1="73.18181818181819" x2="-8" y2="73.18181818181819" fill="transparent" shape-rendering="crispEdges" stroke="#222" stroke-width="0" stroke-linecap="square"></line><svg x="-30" y="0" font-size="8" style="overflow:visible"><text transform="" x="-8" y="73.18181818181819" fill="#000" font-size="8" text-anchor="start"><tspan x="-8" dy="0em">200%</tspan></text></svg></g><g class="visx-group visx-axis-tick" transform="translate(0, 0)"><line class="visx-line" x1="0" y1="31.36363636363636" x2="-8" y2="31.36363636363636" fill="transparent" shape-rendering="crispEdges" stroke="#222" stroke-width="0" stroke-linecap="square"></line><svg x="-30" y="0" font-size="8" style="overflow:visible"><text transform="" x="-8" y="31.36363636363636" fill="#000" font-size="8" text-anchor="start"><tspan x="-8" dy="0em">400%</tspan></text></svg></g><line class="visx-line visx-axis-line" x1="0" y1="115.5" x2="0" y2="0.5" fill="transparent" shape-rendering="crispEdges" stroke="#222" stroke-width="0"></line></g><rect class="visx-bar" width="1450" height="115" fill="transparent"></rect><line class="visx-line" x1="14.5" y1="28" x2="14.5" y2="115" fill="transparent" shape-rendering="crispEdges" stroke="#0062D2" stroke-width="1" pointer-events="none" stroke-dasharray="5,2"></line><svg x="0" y="0" font-size="10px" style="overflow:visible"><text transform="" x="14.5" y="20" font-size="10px" fill="#fff" stroke="#fff" stroke-width="0.8em" text-anchor="middle"><tspan x="14.5" dy="0.355em">Optimal 1%</tspan></text></svg><svg x="0" y="0" font-size="10px" style="overflow:visible"><text transform="" x="14.5" y="20" font-size="10px" fill="#62677B" text-anchor="middle"><tspan x="14.5" dy="0.355em">Optimal 1%</tspan></text></svg></g></svg>