<?xml version="1.0"?><svg xmlns="http://www.w3.org/2000/svg" xmlns:xlink= "http://www.w3.org/1999/xlink" style="background: white;" width="1500" height="185"> <g style="color: black; font-size: 13px; font-family: sans-serif; transform: translate(18px, 25px);"><g><circle r="3" cx="-6" cy="-5" style="fill: #B6509E" /><text>Borrow APR, variable</text></g><g style="transform: translateX(150px);"><circle r="3" cx="-6" cy="-5" style="fill: rgb(231, 198, 223)" /><text>Borrow APR, stable</text></g><g style="transform: translateX(290px);"><circle r="3" cx="-6" cy="-5" style="fill: rgb(0, 98, 210)" /><text>Utilization Rate</text></g></g><g class="visx-group" transform="translate(40, 50)"><g class="visx-group visx-rows" transform="translate(0, 0)"><line class="visx-line" x1="0" y1="115" x2="1450" y2="115" fill="transparent" shape-rendering="crispEdges" stroke="#000" stroke-width="1" stroke-dasharray="3,3" pointer-events="none"></line><line class="visx-line" x1="0" y1="82.14285714285714" x2="1450" y2="82.14285714285714" fill="transparent" shape-rendering="crispEdges" stroke="#000" stroke-width="1" stroke-dasharray="3,3" pointer-events="none"></line><line class="visx-line" x1="0" y1="49.28571428571429" x2="1450" y2="49.28571428571429" fill="transparent" shape-rendering="crispEdges" stroke="#000" stroke-width="1" stroke-dasharray="3,3" pointer-events="none"></line><line class="visx-line" x1="0" y1="16.428571428571434" x2="1450" y2="16.428571428571434" fill="transparent" shape-rendering="crispEdges" stroke="#000" stroke-width="1" stroke-dasharray="3,3" pointer-events="none"></line></g><path class="visx-linepath" d="M0,114.9999999999489C2.4166666666666665,114.99148148145167,4.833333333333334,114.98296296295445,7.25,114.97444444444444C9.666666666666666,114.96592592593444,12.083333333333334,114.9574074074074,14.5,114.94888888888889C16.916666666666668,114.94037037037037,19.333333333333332,114.93185185185185,21.75,114.92333333333333C24.166666666666668,114.91481481481482,26.583333333333332,114.90629629629629,29,114.89777777777778C31.416666666666668,114.88925925925926,33.833333333333336,114.88074074074075,36.25,114.87222222222223C38.666666666666664,114.86370370370372,41.083333333333336,114.85518518518518,43.5,114.84666666666666C45.91666666666667,114.83814814814814,48.333333333333336,114.82962962962962,50.75000000000001,114.82111111111111C53.16666666666667,114.8125925925926,55.583333333333336,114.80407407407407,58,114.79555555555555C60.416666666666664,114.78703703703704,62.833333333333336,114.77851851851851,65.25,114.77C67.66666666666667,114.76148148148148,70.08333333333333,114.75296296296295,72.5,114.74444444444444C74.91666666666667,114.73592592592593,77.33333333333333,114.7274074074074,79.75,114.71888888888888C82.16666666666667,114.71037037037037,84.58333333333333,114.70185185185184,87,114.69333333333333C89.41666666666667,114.68481481481481,91.83333333333333,114.67629629629629,94.25,114.66777777777777C96.66666666666667,114.65925925925926,99.08333333333334,114.65074074074074,101.50000000000001,114.64222222222223C103.91666666666667,114.63370370370372,106.33333333333334,114.62518518518519,108.75,114.61666666666667C111.16666666666667,114.60814814814816,113.58333333333333,114.59962962962963,116,114.59111111111112C118.41666666666667,114.5825925925926,120.83333333333334,114.57407407407408,123.25000000000001,114.56555555555556C125.66666666666667,114.55703703703705,128.08333333333334,114.54851851851852,130.5,114.54C132.91666666666666,114.53148148148148,135.33333333333334,114.52296296296296,137.75,114.51444444444444C140.16666666666666,114.50592592592591,142.58333333333334,114.4974074074074,145,114.48888888888888C147.41666666666666,114.48037037037037,149.83333333333334,114.47185185185184,152.25,114.46333333333332C154.66666666666666,114.45481481481481,157.08333333333334,114.44629629629628,159.5,114.43777777777777C161.91666666666666,114.42925925925925,164.33333333333334,114.42074074074074,166.75,114.41222222222223C169.16666666666666,114.40370370370371,171.58333333333334,114.39518518518518,174,114.38666666666667C176.41666666666666,114.37814814814816,178.83333333333334,114.36962962962963,181.25,114.36111111111111C183.66666666666666,114.3525925925926,186.08333333333334,114.34407407407407,188.5,114.33555555555556C190.91666666666666,114.32703703703704,193.33333333333334,114.31851851851852,195.75,114.31C198.16666666666669,114.30148148148149,200.58333333333334,114.29296296296296,203.00000000000003,114.28444444444445C205.41666666666669,114.27592592592593,207.83333333333331,114.2674074074074,210.24999999999997,114.25888888888889C212.66666666666666,114.25037037037038,215.08333333333331,114.24185185185185,217.5,114.23333333333333C219.91666666666666,114.22481481481482,222.33333333333334,114.21629629629629,224.75,114.20777777777778C227.16666666666666,114.19925925925926,229.58333333333334,114.19074074074074,232,114.18222222222222C234.41666666666666,114.17370370370371,236.83333333333334,114.16518518518518,239.25,114.15666666666667C241.66666666666669,114.14814814814815,244.08333333333334,114.13962962962962,246.50000000000003,114.13111111111111C248.91666666666669,114.1225925925926,251.33333333333331,114.11407407407407,253.74999999999997,114.10555555555555C256.16666666666663,114.09703703703704,258.5833333333333,114.08851851851851,261,114.08C263.4166666666667,114.07148148148148,265.8333333333333,114.06296296296296,268.25,114.05444444444444C270.6666666666667,114.04592592592593,273.0833333333333,114.0374074074074,275.5,114.02888888888889C277.9166666666667,114.02037037037037,280.3333333333333,114.01185185185184,282.75,114.00333333333333C285.1666666666667,113.99481481481482,287.5833333333333,113.9862962962963,290,113.97777777777779C292.4166666666667,113.96925925925927,294.8333333333333,113.96074074074075,297.25,113.95222222222223C299.6666666666667,113.94370370370372,302.0833333333333,113.93518518518519,304.5,113.92666666666668C306.9166666666667,113.91814814814816,309.3333333333333,113.90962962962962,311.75,113.9011111111111C314.1666666666667,113.89259259259259,316.5833333333333,113.88407407407406,319,113.87555555555555C321.4166666666667,113.86703703703704,323.8333333333333,113.85851851851851,326.25,113.85C328.6666666666667,113.84148148148148,331.0833333333333,113.83296296296295,333.5,113.82444444444444C335.9166666666667,113.81592592592592,338.3333333333333,113.8074074074074,340.75,113.79888888888888C343.1666666666667,113.79037037037037,345.5833333333333,113.78185185185184,348,113.77333333333333C350.4166666666667,113.76481481481481,352.8333333333333,113.7562962962963,355.25,113.74777777777778C357.6666666666667,113.73925925925927,360.0833333333333,113.73074074074074,362.5,113.72222222222223C364.9166666666667,113.71370370370371,367.3333333333333,113.70518518518519,369.75,113.69666666666667C372.1666666666667,113.68814814814816,374.5833333333333,113.67962962962963,377,113.67111111111112C379.4166666666667,113.6625925925926,381.8333333333333,113.65407407407407,384.25,113.64555555555556C386.6666666666667,113.63703703703705,389.0833333333333,113.62851851851852,391.5,113.62C393.9166666666667,113.61148148148149,396.33333333333337,113.60296296296298,398.75000000000006,113.59444444444445C401.16666666666674,113.58592592592593,403.58333333333337,113.5774074074074,406.00000000000006,113.56888888888888C408.4166666666667,113.56037037037036,410.8333333333333,113.55185185185184,413.24999999999994,113.54333333333332C415.66666666666663,113.53481481481481,418.08333333333326,113.5262962962963,420.49999999999994,113.51777777777778C422.91666666666663,113.50925925925927,425.3333333333333,113.50074074074074,427.75,113.49222222222222C430.1666666666667,113.48370370370371,432.5833333333333,113.47518518518518,435,113.46666666666667C437.4166666666667,113.45814814814815,439.8333333333333,113.44962962962963,442.25,113.44111111111111C444.6666666666667,113.4325925925926,447.0833333333333,113.42407407407407,449.5,113.41555555555556C451.9166666666667,113.40703703703704,454.3333333333333,113.39851851851851,456.75,113.39C459.1666666666667,113.38148148148149,461.5833333333333,113.37296296296296,464,113.36444444444444C466.4166666666667,113.35592592592593,468.8333333333333,113.3474074074074,471.25,113.33888888888889C473.6666666666667,113.33037037037037,476.0833333333333,113.32185185185185,478.5,113.31333333333333C480.9166666666667,113.30481481481482,483.33333333333337,113.29629629629629,485.75000000000006,113.28777777777778C488.16666666666674,113.27925925925926,490.58333333333337,113.27074074074073,493.00000000000006,113.26222222222222C495.4166666666667,113.2537037037037,497.8333333333333,113.24518518518518,500.24999999999994,113.23666666666666C502.66666666666663,113.22814814814815,505.08333333333326,113.21962962962962,507.49999999999994,113.21111111111111C509.91666666666663,113.2025925925926,512.3333333333333,113.19407407407407,514.75,113.18555555555555C517.1666666666666,113.17703703703704,519.5833333333334,113.16851851851851,522,113.16C524.4166666666666,113.15148148148148,526.8333333333334,113.14296296296295,529.25,113.13444444444444C531.6666666666666,113.12592592592593,534.0833333333334,113.1174074074074,536.5,113.10888888888888C538.9166666666666,113.10037037037037,541.3333333333334,113.09185185185184,543.75,113.08333333333333C546.1666666666666,113.07481481481481,548.5833333333334,113.0662962962963,551,113.05777777777779C553.4166666666666,113.04925925925927,555.8333333333334,113.04074074074074,558.25,113.03222222222223C560.6666666666666,113.02370370370372,563.0833333333334,113.01518518518519,565.5,113.00666666666667C567.9166666666666,112.99814814814816,570.3333333333334,112.98962962962963,572.75,112.98111111111112C575.1666666666666,112.9725925925926,577.5833333333334,112.96407407407406,580,112.95555555555555C582.4166666666666,112.94703703703703,584.8333333333334,112.9385185185185,587.25,112.92999999999999C589.6666666666666,112.92148148148148,592.0833333333334,112.91296296296295,594.5,112.90444444444444C596.9166666666666,112.89592592592592,599.3333333333334,112.8874074074074,601.75,112.87888888888888C604.1666666666666,112.87037037037037,606.5833333333334,112.86185185185185,609,112.85333333333334C611.4166666666666,112.84481481481482,613.8333333333334,112.8362962962963,616.25,112.82777777777778C618.6666666666666,112.81925925925927,621.0833333333334,112.81074074074074,623.5,112.80222222222223C625.9166666666666,112.79370370370371,628.3333333333334,112.78518518518518,630.75,112.77666666666667C633.1666666666666,112.76814814814816,635.5833333333334,112.75962962962963,638,112.75111111111111C640.4166666666666,112.7425925925926,642.8333333333334,112.73407407407407,645.25,112.72555555555556C647.6666666666666,112.71703703703704,650.0833333333334,112.71703703703704,652.5,112.7C654.9166666666666,112.68296296296296,657.3333333333334,112.10259740259741,659.75,111.80389610389611C662.1666666666666,111.5051948051948,664.5833333333334,111.2064935064935,667,110.9077922077922C669.4166666666666,110.6090909090909,671.8333333333334,110.3103896103896,674.25,110.0116883116883C676.6666666666666,109.712987012987,679.0833333333334,109.41428571428571,681.5,109.11558441558441C683.9166666666666,108.8168831168831,686.3333333333334,108.51818181818182,688.75,108.21948051948051C691.1666666666666,107.92077922077921,693.5833333333334,107.62207792207792,696,107.32337662337662C698.4166666666666,107.02467532467531,700.8333333333334,106.72597402597403,703.25,106.42727272727272C705.6666666666666,106.12857142857142,708.0833333333334,105.82987012987013,710.5,105.53116883116883C712.9166666666666,105.23246753246752,715.3333333333334,104.93376623376624,717.75,104.63506493506493C720.1666666666666,104.33636363636363,722.5833333333334,104.03766233766234,725,103.73896103896104C727.4166666666666,103.44025974025973,729.8333333333334,103.14155844155844,732.25,102.84285714285714C734.6666666666666,102.54415584415584,737.0833333333334,102.24545454545455,739.5,101.94675324675325C741.9166666666666,101.64805194805194,744.3333333333334,101.34935064935065,746.75,101.05064935064935C749.1666666666666,100.75194805194805,751.5833333333334,100.45324675324675,754,100.15454545454544C756.4166666666666,99.85584415584414,758.8333333333334,99.55714285714286,761.25,99.25844155844156C763.6666666666666,98.95974025974026,766.0833333333334,98.66103896103895,768.5,98.36233766233765C770.9166666666666,98.06363636363635,773.3333333333334,97.76493506493507,775.75,97.46623376623377C778.1666666666666,97.16753246753247,780.5833333333334,96.86883116883115,783,96.57012987012986C785.4166666666667,96.27142857142856,787.8333333333334,95.97272727272728,790.2500000000001,95.67402597402598C792.6666666666667,95.37532467532469,795.0833333333335,95.07662337662337,797.5000000000001,94.77792207792207C799.9166666666667,94.47922077922077,802.3333333333335,94.18051948051948,804.7500000000001,93.88181818181819C807.1666666666667,93.5831168831169,809.5833333333335,93.2844155844156,812.0000000000001,92.9857142857143C814.4166666666667,92.687012987013,816.8333333333333,92.3883116883117,819.2499999999999,92.0896103896104C821.6666666666665,91.7909090909091,824.0833333333333,91.4922077922078,826.4999999999999,91.19350649350649C828.9166666666665,90.89480519480519,831.3333333333333,90.5961038961039,833.7499999999999,90.2974025974026C836.1666666666665,89.99870129870129,838.5833333333333,89.69999999999999,840.9999999999999,89.4012987012987C843.4166666666666,89.1025974025974,845.8333333333333,88.80389610389611,848.25,88.5051948051948C850.6666666666666,88.2064935064935,853.0833333333334,87.90779220779221,855.5,87.60909090909091C857.9166666666666,87.3103896103896,860.3333333333334,87.01168831168832,862.75,86.71298701298701C865.1666666666666,86.41428571428571,867.5833333333334,86.11558441558442,870,85.81688311688312C872.4166666666666,85.51818181818182,874.8333333333334,85.21948051948053,877.25,84.92077922077922C879.6666666666666,84.62207792207792,882.0833333333334,84.32337662337662,884.5,84.02467532467531C886.9166666666666,83.72597402597401,889.3333333333334,83.42727272727272,891.75,83.12857142857143C894.1666666666666,82.82987012987014,896.5833333333334,82.53116883116884,899,82.23246753246754C901.4166666666666,81.93376623376624,903.8333333333334,81.63506493506495,906.25,81.33636363636364C908.6666666666666,81.03766233766234,911.0833333333334,80.73896103896104,913.5,80.44025974025973C915.9166666666666,80.14155844155843,918.3333333333334,79.84285714285714,920.75,79.54415584415584C923.1666666666666,79.24545454545454,925.5833333333334,78.94675324675325,928,78.64805194805194C930.4166666666666,78.34935064935064,932.8333333333334,78.05064935064935,935.25,77.75194805194805C937.6666666666666,77.45324675324675,940.0833333333334,77.15454545454546,942.5,76.85584415584415C944.9166666666666,76.55714285714285,947.3333333333334,76.25844155844156,949.75,75.95974025974026C952.1666666666666,75.66103896103895,954.5833333333334,75.36233766233765,957,75.06363636363635C959.4166666666666,74.76493506493505,961.8333333333334,74.46623376623376,964.25,74.16753246753247C966.6666666666667,73.86883116883116,969.0833333333334,73.57012987012988,971.5000000000001,73.27142857142857C973.9166666666667,72.97272727272727,976.3333333333335,72.67402597402598,978.7500000000001,72.37532467532468C981.1666666666667,72.07662337662337,983.5833333333335,71.77792207792209,986.0000000000001,71.47922077922078C988.4166666666667,71.18051948051948,990.8333333333335,70.88181818181819,993.2500000000001,70.58311688311689C995.6666666666667,70.2844155844156,998.0833333333333,69.9857142857143,1000.4999999999999,69.68701298701299C1002.9166666666665,69.38831168831169,1005.3333333333333,69.08961038961039,1007.7499999999999,68.79090909090908C1010.1666666666665,68.49220779220778,1012.5833333333333,68.19350649350649,1014.9999999999999,67.89480519480519C1017.4166666666665,67.59610389610388,1019.8333333333333,67.29740259740258,1022.2499999999999,66.99870129870129C1024.6666666666665,66.69999999999999,1027.0833333333333,66.40129870129871,1029.5,66.10259740259741C1031.9166666666667,65.80389610389611,1034.3333333333333,65.5051948051948,1036.75,65.2064935064935C1039.1666666666667,64.9077922077922,1041.5833333333333,64.60909090909091,1044,64.3103896103896C1046.4166666666667,64.0116883116883,1048.8333333333333,63.71298701298701,1051.25,63.41428571428571C1053.6666666666667,63.115584415584415,1056.0833333333333,62.81688311688312,1058.5,62.51818181818182C1060.9166666666667,62.21948051948053,1063.3333333333333,61.920779220779224,1065.75,61.62207792207793C1068.1666666666667,61.32337662337663,1070.5833333333333,61.024675324675336,1073,60.72597402597403C1075.4166666666667,60.42727272727273,1077.8333333333333,60.12857142857142,1080.25,59.82987012987012C1082.6666666666667,59.53116883116883,1085.0833333333333,59.23246753246754,1087.5,58.93376623376624C1089.9166666666667,58.635064935064946,1092.3333333333333,58.33636363636363,1094.75,58.03766233766233C1097.1666666666667,57.73896103896104,1099.5833333333333,57.44025974025974,1102,57.141558441558445C1104.4166666666667,56.84285714285715,1106.8333333333333,56.544155844155846,1109.25,56.24545454545455C1111.6666666666667,55.946753246753254,1114.0833333333333,55.64805194805196,1116.5,55.349350649350654C1118.9166666666667,55.05064935064935,1121.3333333333333,54.75194805194804,1123.75,54.453246753246745C1126.1666666666667,54.15454545454545,1128.5833333333333,53.85584415584416,1131,53.557142857142864C1133.4166666666667,53.25844155844157,1135.8333333333333,52.959740259740265,1138.25,52.66103896103896C1140.6666666666667,52.36233766233766,1143.0833333333333,52.06363636363635,1145.5,51.76493506493505C1147.9166666666667,51.466233766233756,1150.3333333333333,51.16753246753247,1152.75,50.86883116883117C1155.1666666666667,50.570129870129875,1157.5833333333333,50.27142857142857,1160,49.972727272727276C1162.4166666666667,49.67402597402598,1164.8333333333333,49.37532467532468,1167.25,49.07662337662338C1169.6666666666667,48.777922077922085,1172.0833333333333,48.47922077922078,1174.5,48.180519480519486C1176.9166666666667,47.88181818181819,1179.3333333333333,47.58311688311689,1181.75,47.284415584415584C1184.1666666666667,46.98571428571428,1186.5833333333333,46.68701298701297,1189,46.388311688311674C1191.4166666666667,46.08961038961038,1193.8333333333333,45.79090909090909,1196.25,45.49220779220779C1198.6666666666667,45.1935064935065,1201.0833333333333,44.894805194805194,1203.5,44.5961038961039C1205.9166666666667,44.2974025974026,1208.3333333333333,43.9987012987013,1210.75,43.7C1213.1666666666667,43.40129870129871,1215.5833333333333,43.102597402597404,1218,42.80389610389611C1220.4166666666667,42.50519480519481,1222.8333333333333,42.2064935064935,1225.25,41.907792207792205C1227.6666666666667,41.60909090909091,1230.0833333333333,41.31038961038961,1232.5,41.01168831168831C1234.9166666666667,40.71298701298701,1237.3333333333333,40.4142857142857,1239.75,40.1155844155844C1242.1666666666667,39.816883116883105,1244.5833333333333,39.518181818181816,1247,39.21948051948052C1249.4166666666667,38.920779220779224,1251.8333333333333,38.62207792207793,1254.25,38.32337662337663C1256.6666666666667,38.024675324675336,1259.0833333333333,37.725974025974025,1261.5,37.42727272727272C1263.9166666666667,37.12857142857142,1266.3333333333333,36.82987012987012,1268.75,36.53116883116883C1271.1666666666667,36.23246753246753,1273.5833333333333,35.93376623376623,1276,35.63506493506493C1278.4166666666667,35.336363636363636,1280.8333333333333,35.03766233766234,1283.25,34.73896103896104C1285.6666666666667,34.440259740259734,1288.0833333333333,34.14155844155842,1290.5,33.84285714285713C1292.9166666666667,33.54415584415583,1295.3333333333333,33.24545454545454,1297.75,32.94675324675325C1300.1666666666667,32.64805194805195,1302.5833333333333,32.349350649350654,1305,32.05064935064936C1307.4166666666667,31.75194805194806,1309.8333333333333,31.453246753246752,1312.25,31.154545454545453C1314.6666666666667,30.855844155844153,1317.0833333333333,30.55714285714285,1319.5,30.258441558441554C1321.9166666666667,29.959740259740258,1324.3333333333333,29.66103896103897,1326.75,29.36233766233767C1329.1666666666667,29.06363636363637,1331.5833333333333,28.764935064935063,1334,28.466233766233763C1336.4166666666667,28.167532467532464,1338.8333333333333,27.86883116883116,1341.25,27.570129870129865C1343.6666666666667,27.27142857142857,1346.0833333333333,26.97272727272728,1348.5,26.67402597402598C1350.9166666666667,26.37532467532468,1353.3333333333333,26.07662337662337,1355.75,25.77792207792207C1358.1666666666667,25.47922077922077,1360.5833333333333,25.18051948051949,1363,24.88181818181819C1365.4166666666667,24.58311688311689,1367.8333333333333,24.28441558441558,1370.25,23.98571428571428C1372.6666666666667,23.68701298701298,1375.0833333333333,23.38831168831168,1377.5,23.08961038961038C1379.9166666666667,22.790909090909082,1382.3333333333333,22.492207792207775,1384.75,22.193506493506476C1387.1666666666667,21.894805194805176,1389.5833333333333,21.596103896103887,1392,21.29740259740259C1394.4166666666667,20.998701298701295,1396.8333333333333,20.700000000000003,1399.25,20.401298701298707C1401.6666666666667,20.10259740259741,1404.0833333333333,19.80389610389611,1406.5,19.50519480519481C1408.9166666666667,19.206493506493512,1411.3333333333333,18.907792207792202,1413.75,18.609090909090902C1416.1666666666667,18.310389610389603,1418.5833333333333,18.0116883116883,1421,17.712987012987004C1423.4166666666667,17.414285714285707,1425.8333333333333,17.115584415584422,1428.25,16.816883116883123C1430.6666666666667,16.518181818181823,1433.0833333333333,16.219480519480513,1435.5,15.920779220779211C1437.9166666666667,15.62207792207791,1440.3333333333333,15.323376623376612,1442.75,15.024675324675316C1445.1666666666667,14.72597402597402,1447.5833333333333,14.427272727272726,1450,14.128571428571432" fill="transparent" stroke-linecap="round" stroke="#B6509E" stroke-width="2"></path><path class="visx-linepath" d="M0,111.71428571425652C2.4166666666666665,111.70941798940096,4.833333333333334,111.7045502645454,7.25,111.69968253968254C9.666666666666666,111.69481481481968,12.083333333333334,111.68994708994708,14.5,111.68507936507936C16.916666666666668,111.68021164021164,19.333333333333332,111.67534391534392,21.75,111.6704761904762C24.166666666666668,111.66560846560847,26.583333333333332,111.66074074074075,29,111.65587301587303C31.416666666666668,111.6510052910053,33.833333333333336,111.64613756613755,36.25,111.64126984126983C38.666666666666664,111.63640211640211,41.083333333333336,111.63153439153439,43.5,111.62666666666667C45.91666666666667,111.62179894179894,48.333333333333336,111.61693121693122,50.75000000000001,111.6120634920635C53.16666666666667,111.60719576719578,55.583333333333336,111.60232804232804,58,111.59746031746032C60.416666666666664,111.5925925925926,62.833333333333336,111.58772486772487,65.25,111.58285714285715C67.66666666666667,111.57798941798943,70.08333333333333,111.57312169312168,72.5,111.56825396825396C74.91666666666667,111.56338624338623,77.33333333333333,111.55851851851851,79.75,111.55365079365079C82.16666666666667,111.54878306878307,84.58333333333333,111.54391534391534,87,111.53904761904762C89.41666666666667,111.5341798941799,91.83333333333333,111.52931216931216,94.25,111.52444444444444C96.66666666666667,111.51957671957672,99.08333333333334,111.514708994709,101.50000000000001,111.50984126984127C103.91666666666667,111.50497354497355,106.33333333333334,111.50010582010582,108.75,111.4952380952381C111.16666666666667,111.49037037037037,113.58333333333333,111.48550264550263,116,111.48063492063491C118.41666666666667,111.47576719576719,120.83333333333334,111.47089947089947,123.25000000000001,111.46603174603175C125.66666666666667,111.46116402116402,128.08333333333334,111.45629629629629,130.5,111.45142857142856C132.91666666666666,111.44656084656084,135.33333333333334,111.44169312169312,137.75,111.4368253968254C140.16666666666666,111.43195767195768,142.58333333333334,111.42708994708995,145,111.42222222222223C147.41666666666666,111.41735449735451,149.83333333333334,111.41248677248676,152.25,111.40761904761904C154.66666666666666,111.40275132275131,157.08333333333334,111.39788359788359,159.5,111.39301587301587C161.91666666666666,111.38814814814815,164.33333333333334,111.38328042328042,166.75,111.3784126984127C169.16666666666666,111.37354497354498,171.58333333333334,111.36867724867724,174,111.36380952380952C176.41666666666666,111.3589417989418,178.83333333333334,111.35407407407408,181.25,111.34920634920636C183.66666666666666,111.34433862433863,186.08333333333334,111.3394708994709,188.5,111.33460317460317C190.91666666666666,111.32973544973545,193.33333333333334,111.32486772486772,195.75,111.32C198.16666666666669,111.31513227513227,200.58333333333334,111.31026455026455,203.00000000000003,111.30539682539683C205.41666666666669,111.3005291005291,207.83333333333331,111.29566137566138,210.24999999999997,111.29079365079366C212.66666666666666,111.28592592592594,215.08333333333331,111.2810582010582,217.5,111.27619047619048C219.91666666666666,111.27132275132276,222.33333333333334,111.26645502645502,224.75,111.2615873015873C227.16666666666666,111.25671957671958,229.58333333333334,111.25185185185184,232,111.24698412698412C234.41666666666666,111.2421164021164,236.83333333333334,111.23724867724867,239.25,111.23238095238095C241.66666666666669,111.22751322751323,244.08333333333334,111.2226455026455,246.50000000000003,111.21777777777778C248.91666666666669,111.21291005291006,251.33333333333331,111.20804232804232,253.74999999999997,111.2031746031746C256.16666666666663,111.19830687830688,258.5833333333333,111.19343915343916,261,111.18857142857144C263.4166666666667,111.18370370370371,265.8333333333333,111.17883597883598,268.25,111.17396825396825C270.6666666666667,111.16910052910053,273.0833333333333,111.1642328042328,275.5,111.15936507936507C277.9166666666667,111.15449735449735,280.3333333333333,111.14962962962963,282.75,111.1447619047619C285.1666666666667,111.13989417989418,287.5833333333333,111.13502645502646,290,111.13015873015874C292.4166666666667,111.12529100529102,294.8333333333333,111.12042328042328,297.25,111.11555555555556C299.6666666666667,111.11068783068784,302.0833333333333,111.1058201058201,304.5,111.10095238095238C306.9166666666667,111.09608465608466,309.3333333333333,111.09121693121692,311.75,111.0863492063492C314.1666666666667,111.08148148148148,316.5833333333333,111.07661375661375,319,111.07174603174603C321.4166666666667,111.06687830687831,323.8333333333333,111.06201058201059,326.25,111.05714285714286C328.6666666666667,111.05227513227514,331.0833333333333,111.0474074074074,333.5,111.04253968253968C335.9166666666667,111.03767195767196,338.3333333333333,111.03280423280422,340.75,111.0279365079365C343.1666666666667,111.02306878306878,345.5833333333333,111.01820105820106,348,111.01333333333334C350.4166666666667,111.00846560846561,352.8333333333333,111.00359788359788,355.25,110.99873015873015C357.6666666666667,110.99386243386243,360.0833333333333,110.98899470899471,362.5,110.98412698412699C364.9166666666667,110.97925925925927,367.3333333333333,110.97439153439154,369.75,110.96952380952382C372.1666666666667,110.9646560846561,374.5833333333333,110.95978835978835,377,110.95492063492063C379.4166666666667,110.9500529100529,381.8333333333333,110.94518518518518,384.25,110.94031746031746C386.6666666666667,110.93544973544974,389.0833333333333,110.930582010582,391.5,110.92571428571428C393.9166666666667,110.92084656084656,396.33333333333337,110.91597883597883,398.75000000000006,110.91111111111111C401.16666666666674,110.90624338624339,403.58333333333337,110.90137566137567,406.00000000000006,110.89650793650794C408.4166666666667,110.89164021164022,410.8333333333333,110.88677248677249,413.24999999999994,110.88190476190476C415.66666666666663,110.87703703703704,418.08333333333326,110.8721693121693,420.49999999999994,110.86730158730158C422.91666666666663,110.86243386243386,425.3333333333333,110.85756613756614,427.75,110.85269841269842C430.1666666666667,110.8478306878307,432.5833333333333,110.84296296296296,435,110.83809523809524C437.4166666666667,110.83322751322751,439.8333333333333,110.82835978835979,442.25,110.82349206349207C444.6666666666667,110.81862433862435,447.0833333333333,110.81375661375661,449.5,110.80888888888889C451.9166666666667,110.80402116402117,454.3333333333333,110.79915343915343,456.75,110.7942857142857C459.1666666666667,110.78941798941798,461.5833333333333,110.78455026455026,464,110.77968253968254C466.4166666666667,110.77481481481482,468.8333333333333,110.76994708994708,471.25,110.76507936507936C473.6666666666667,110.76021164021164,476.0833333333333,110.75534391534391,478.5,110.75047619047619C480.9166666666667,110.74560846560847,483.33333333333337,110.74074074074075,485.75000000000006,110.73587301587303C488.16666666666674,110.7310052910053,490.58333333333337,110.72613756613755,493.00000000000006,110.72126984126983C495.4166666666667,110.71640211640211,497.8333333333333,110.71153439153439,500.24999999999994,110.70666666666666C502.66666666666663,110.70179894179894,505.08333333333326,110.69693121693122,507.49999999999994,110.6920634920635C509.91666666666663,110.68719576719577,512.3333333333333,110.68232804232804,514.75,110.67746031746032C517.1666666666666,110.6725925925926,519.5833333333334,110.66772486772487,522,110.66285714285715C524.4166666666666,110.65798941798943,526.8333333333334,110.65312169312169,529.25,110.64825396825397C531.6666666666666,110.64338624338625,534.0833333333334,110.63851851851851,536.5,110.63365079365079C538.9166666666666,110.62878306878306,541.3333333333334,110.62391534391534,543.75,110.61904761904762C546.1666666666666,110.6141798941799,548.5833333333334,110.60931216931216,551,110.60444444444444C553.4166666666666,110.59957671957672,555.8333333333334,110.594708994709,558.25,110.58984126984127C560.6666666666666,110.58497354497355,563.0833333333334,110.58010582010583,565.5,110.5752380952381C567.9166666666666,110.57037037037038,570.3333333333334,110.56550264550263,572.75,110.56063492063491C575.1666666666666,110.55576719576719,577.5833333333334,110.55089947089947,580,110.54603174603174C582.4166666666666,110.54116402116402,584.8333333333334,110.5362962962963,587.25,110.53142857142858C589.6666666666666,110.52656084656086,592.0833333333334,110.52169312169312,594.5,110.5168253968254C596.9166666666666,110.51195767195767,599.3333333333334,110.50708994708995,601.75,110.50222222222223C604.1666666666666,110.49735449735451,606.5833333333334,110.49248677248676,609,110.48761904761903C611.4166666666666,110.48275132275131,613.8333333333334,110.47788359788359,616.25,110.47301587301587C618.6666666666666,110.46814814814815,621.0833333333334,110.46328042328042,623.5,110.4584126984127C625.9166666666666,110.45354497354498,628.3333333333334,110.44867724867724,630.75,110.44380952380952C633.1666666666666,110.4389417989418,635.5833333333334,110.43407407407408,638,110.42920634920635C640.4166666666666,110.42433862433863,642.8333333333334,110.4194708994709,645.25,110.41460317460317C647.6666666666666,110.40973544973545,650.0833333333334,110.40973544973545,652.5,110.39999999999999C654.9166666666666,110.39026455026453,657.3333333333334,109.8025974025974,659.75,109.5038961038961C662.1666666666666,109.2051948051948,664.5833333333334,108.9064935064935,667,108.6077922077922C669.4166666666666,108.3090909090909,671.8333333333334,108.01038961038961,674.25,107.7116883116883C676.6666666666666,107.412987012987,679.0833333333334,107.11428571428571,681.5,106.81558441558441C683.9166666666666,106.51688311688311,686.3333333333334,106.21818181818182,688.75,105.91948051948052C691.1666666666666,105.62077922077921,693.5833333333334,105.32207792207792,696,105.02337662337662C698.4166666666666,104.72467532467532,700.8333333333334,104.42597402597401,703.25,104.12727272727273C705.6666666666666,103.82857142857144,708.0833333333334,103.52987012987015,710.5,103.23116883116884C712.9166666666666,102.93246753246754,715.3333333333334,102.63376623376624,717.75,102.33506493506493C720.1666666666666,102.03636363636363,722.5833333333334,101.73766233766233,725,101.43896103896103C727.4166666666666,101.14025974025972,729.8333333333334,100.84155844155845,732.25,100.54285714285714C734.6666666666666,100.24415584415584,737.0833333333334,99.94545454545454,739.5,99.64675324675324C741.9166666666666,99.34805194805193,744.3333333333334,99.04935064935066,746.75,98.75064935064935C749.1666666666666,98.45194805194805,751.5833333333334,98.15324675324675,754,97.85454545454544C756.4166666666666,97.55584415584414,758.8333333333334,97.25714285714287,761.25,96.95844155844156C763.6666666666666,96.65974025974026,766.0833333333334,96.36103896103896,768.5,96.06233766233765C770.9166666666666,95.76363636363635,773.3333333333334,95.46493506493506,775.75,95.16623376623377C778.1666666666666,94.86753246753248,780.5833333333334,94.56883116883117,783,94.27012987012988C785.4166666666667,93.97142857142858,787.8333333333334,93.67272727272729,790.2500000000001,93.37402597402598C792.6666666666667,93.07532467532468,795.0833333333335,92.77662337662338,797.5000000000001,92.47792207792207C799.9166666666667,92.17922077922077,802.3333333333335,91.88051948051948,804.7500000000001,91.58181818181818C807.1666666666667,91.28311688311688,809.5833333333335,90.98441558441559,812.0000000000001,90.68571428571428C814.4166666666667,90.387012987013,816.8333333333333,90.08831168831168,819.2499999999999,89.78961038961039C821.6666666666665,89.49090909090908,824.0833333333333,89.1922077922078,826.4999999999999,88.8935064935065C828.9166666666665,88.59480519480519,831.3333333333333,88.2961038961039,833.7499999999999,87.9974025974026C836.1666666666665,87.6987012987013,838.5833333333333,87.4,840.9999999999999,87.1012987012987C843.4166666666666,86.8025974025974,845.8333333333333,86.50389610389611,848.25,86.20519480519481C850.6666666666666,85.9064935064935,853.0833333333334,85.6077922077922,855.5,85.3090909090909C857.9166666666666,85.0103896103896,860.3333333333334,84.7116883116883,862.75,84.41298701298702C865.1666666666666,84.11428571428573,867.5833333333334,83.81558441558442,870,83.51688311688312C872.4166666666666,83.21818181818182,874.8333333333334,82.91948051948053,877.25,82.62077922077923C879.6666666666666,82.32207792207792,882.0833333333334,82.02337662337662,884.5,81.72467532467532C886.9166666666666,81.42597402597401,889.3333333333334,81.12727272727273,891.75,80.82857142857142C894.1666666666666,80.52987012987012,896.5833333333334,80.23116883116883,899,79.93246753246753C901.4166666666666,79.63376623376622,903.8333333333334,79.33506493506493,906.25,79.03636363636363C908.6666666666666,78.73766233766233,911.0833333333334,78.43896103896104,913.5,78.14025974025974C915.9166666666666,77.84155844155843,918.3333333333334,77.54285714285713,920.75,77.24415584415584C923.1666666666666,76.94545454545455,925.5833333333334,76.64675324675326,928,76.34805194805196C930.4166666666666,76.04935064935066,932.8333333333334,75.75064935064935,935.25,75.45194805194805C937.6666666666666,75.15324675324675,940.0833333333334,74.85454545454546,942.5,74.55584415584416C944.9166666666666,74.25714285714285,947.3333333333334,73.95844155844155,949.75,73.65974025974026C952.1666666666666,73.36103896103897,954.5833333333334,73.06233766233768,957,72.76363636363638C959.4166666666666,72.46493506493508,961.8333333333334,72.16623376623377,964.25,71.86753246753247C966.6666666666667,71.56883116883117,969.0833333333334,71.27012987012988,971.5000000000001,70.97142857142858C973.9166666666667,70.67272727272727,976.3333333333335,70.37402597402597,978.7500000000001,70.07532467532467C981.1666666666667,69.77662337662336,983.5833333333335,69.47792207792209,986.0000000000001,69.17922077922078C988.4166666666667,68.88051948051948,990.8333333333335,68.58181818181818,993.2500000000001,68.28311688311688C995.6666666666667,67.98441558441559,998.0833333333333,67.68571428571428,1000.4999999999999,67.387012987013C1002.9166666666665,67.08831168831169,1005.3333333333333,66.78961038961039,1007.7499999999999,66.49090909090908C1010.1666666666665,66.19220779220778,1012.5833333333333,65.8935064935065,1014.9999999999999,65.59480519480519C1017.4166666666665,65.29610389610389,1019.8333333333333,64.99740259740258,1022.2499999999999,64.6987012987013C1024.6666666666665,64.39999999999999,1027.0833333333333,64.1012987012987,1029.5,63.80259740259741C1031.9166666666667,63.50389610389611,1034.3333333333333,63.20519480519481,1036.75,62.90649350649351C1039.1666666666667,62.607792207792215,1041.5833333333333,62.30909090909092,1044,62.010389610389616C1046.4166666666667,61.71168831168831,1048.8333333333333,61.412987012987,1051.25,61.11428571428571C1053.6666666666667,60.81558441558441,1056.0833333333333,60.51688311688312,1058.5,60.218181818181826C1060.9166666666667,59.91948051948053,1063.3333333333333,59.62077922077921,1065.75,59.322077922077916C1068.1666666666667,59.02337662337662,1070.5833333333333,58.724675324675324,1073,58.42597402597403C1075.4166666666667,58.12727272727273,1077.8333333333333,57.82857142857143,1080.25,57.52987012987013C1082.6666666666667,57.23116883116884,1085.0833333333333,56.93246753246754,1087.5,56.63376623376624C1089.9166666666667,56.335064935064935,1092.3333333333333,56.036363636363625,1094.75,55.73766233766233C1097.1666666666667,55.43896103896103,1099.5833333333333,55.140259740259744,1102,54.84155844155845C1104.4166666666667,54.54285714285715,1106.8333333333333,54.24415584415585,1109.25,53.945454545454545C1111.6666666666667,53.64675324675324,1114.0833333333333,53.34805194805193,1116.5,53.049350649350636C1118.9166666666667,52.75064935064934,1121.3333333333333,52.45194805194805,1123.75,52.153246753246755C1126.1666666666667,51.85454545454546,1128.5833333333333,51.555844155844156,1131,51.25714285714286C1133.4166666666667,50.958441558441564,1135.8333333333333,50.65974025974026,1138.25,50.361038961038965C1140.6666666666667,50.06233766233767,1143.0833333333333,49.763636363636365,1145.5,49.46493506493507C1147.9166666666667,49.16623376623377,1150.3333333333333,48.86753246753247,1152.75,48.56883116883117C1155.1666666666667,48.270129870129864,1157.5833333333333,47.971428571428554,1160,47.67272727272726C1162.4166666666667,47.37402597402596,1164.8333333333333,47.07532467532467,1167.25,46.77662337662338C1169.6666666666667,46.47792207792208,1172.0833333333333,46.17922077922078,1174.5,45.88051948051948C1176.9166666666667,45.581818181818186,1179.3333333333333,45.28311688311688,1181.75,44.984415584415586C1184.1666666666667,44.68571428571429,1186.5833333333333,44.38701298701299,1189,44.08831168831169C1191.4166666666667,43.789610389610395,1193.8333333333333,43.490909090909085,1196.25,43.19220779220779C1198.6666666666667,42.89350649350649,1201.0833333333333,42.5948051948052,1203.5,42.296103896103894C1205.9166666666667,41.99740259740259,1208.3333333333333,41.69870129870128,1210.75,41.399999999999984C1213.1666666666667,41.10129870129869,1215.5833333333333,40.8025974025974,1218,40.5038961038961C1220.4166666666667,40.20519480519481,1222.8333333333333,39.90649350649351,1225.25,39.607792207792215C1227.6666666666667,39.30909090909092,1230.0833333333333,39.01038961038961,1232.5,38.711688311688306C1234.9166666666667,38.412987012987,1237.3333333333333,38.11428571428571,1239.75,37.81558441558441C1242.1666666666667,37.516883116883115,1244.5833333333333,37.21818181818181,1247,36.919480519480516C1249.4166666666667,36.62077922077922,1251.8333333333333,36.32207792207792,1254.25,36.02337662337662C1256.6666666666667,35.72467532467532,1259.0833333333333,35.42597402597401,1261.5,35.12727272727271C1263.9166666666667,34.828571428571415,1266.3333333333333,34.529870129870126,1268.75,34.23116883116883C1271.1666666666667,33.932467532467534,1273.5833333333333,33.63376623376624,1276,33.33506493506494C1278.4166666666667,33.036363636363646,1280.8333333333333,32.737662337662336,1283.25,32.43896103896103C1285.6666666666667,32.14025974025973,1288.0833333333333,31.841558441558437,1290.5,31.542857142857137C1292.9166666666667,31.244155844155838,1295.3333333333333,30.94545454545454,1297.75,30.646753246753242C1300.1666666666667,30.348051948051943,1302.5833333333333,30.049350649350632,1305,29.750649350649333C1307.4166666666667,29.451948051948033,1309.8333333333333,29.153246753246744,1312.25,28.85454545454545C1314.6666666666667,28.555844155844152,1317.0833333333333,28.25714285714286,1319.5,27.958441558441564C1321.9166666666667,27.659740259740268,1324.3333333333333,27.361038961038968,1326.75,27.06233766233767C1329.1666666666667,26.76363636363637,1331.5833333333333,26.46493506493506,1334,26.16623376623376C1336.4166666666667,25.86753246753246,1338.8333333333333,25.56883116883116,1341.25,25.270129870129864C1343.6666666666667,24.971428571428568,1346.0833333333333,24.67272727272728,1348.5,24.37402597402598C1350.9166666666667,24.07532467532468,1353.3333333333333,23.77662337662337,1355.75,23.47792207792207C1358.1666666666667,23.17922077922077,1360.5833333333333,22.88051948051948,1363,22.581818181818186C1365.4166666666667,22.28311688311689,1367.8333333333333,21.98441558441559,1370.25,21.68571428571429C1372.6666666666667,21.38701298701299,1375.0833333333333,21.08831168831168,1377.5,20.78961038961038C1379.9166666666667,20.49090909090908,1382.3333333333333,20.192207792207792,1384.75,19.893506493506496C1387.1666666666667,19.5948051948052,1389.5833333333333,19.2961038961039,1392,18.9974025974026C1394.4166666666667,18.6987012987013,1396.8333333333333,18.39999999999999,1399.25,18.101298701298692C1401.6666666666667,17.802597402597392,1404.0833333333333,17.5038961038961,1406.5,17.205194805194807C1408.9166666666667,16.906493506493515,1411.3333333333333,16.607792207792226,1413.75,16.309090909090926C1416.1666666666667,16.010389610389627,1418.5833333333333,15.711688311688317,1421,15.412987012987015C1423.4166666666667,15.114285714285714,1425.8333333333333,14.81558441558442,1428.25,14.516883116883118C1430.6666666666667,14.218181818181817,1433.0833333333333,13.919480519480508,1435.5,13.62077922077921C1437.9166666666667,13.322077922077913,1440.3333333333333,13.023376623376624,1442.75,12.724675324675326C1445.1666666666667,12.425974025974028,1447.5833333333333,12.127272727272729,1450,11.82857142857143" fill="transparent" stroke-linecap="round" stroke="#E7C6DF" stroke-width="2"></path><g class="visx-group visx-axis visx-axis-bottom" transform="translate(0, 115)"><g class="visx-group visx-axis-tick" transform="translate(0, 0)"><line class="visx-line" x1="0" y1="0" x2="0" y2="8" fill="transparent" shape-rendering="crispEdges" stroke="#000" stroke-width="0" stroke-linecap="square"></line><svg x="0" y="0" font-size="10" style="overflow:visible"><text transform="" x="0" y="18" fill="#000" font-size="10" text-anchor="middle"><tspan x="0" dy="0em">0%</tspan></text></svg></g><g class="visx-group visx-axis-tick" transform="translate(0, 0)"><line class="visx-line" x1="362.5" y1="0" x2="362.5" y2="8" fill="transparent" shape-rendering="crispEdges" stroke="#000" stroke-width="0" stroke-linecap="square"></line><svg x="0" y="0" font-size="10" style="overflow:visible"><text transform="" x="362.5" y="18" fill="#000" font-size="10" text-anchor="middle"><tspan x="362.5" dy="0em">25%</tspan></text></svg></g><g class="visx-group visx-axis-tick" transform="translate(0, 0)"><line class="visx-line" x1="725" y1="0" x2="725" y2="8" fill="transparent" shape-rendering="crispEdges" stroke="#000" stroke-width="0" stroke-linecap="square"></line><svg x="0" y="0" font-size="10" style="overflow:visible"><text transform="" x="725" y="18" fill="#000" font-size="10" text-anchor="middle"><tspan x="725" dy="0em">50%</tspan></text></svg></g><g class="visx-group visx-axis-tick" transform="translate(0, 0)"><line class="visx-line" x1="1087.5" y1="0" x2="1087.5" y2="8" fill="transparent" shape-rendering="crispEdges" stroke="#000" stroke-width="0" stroke-linecap="square"></line><svg x="0" y="0" font-size="10" style="overflow:visible"><text transform="" x="1087.5" y="18" fill="#000" font-size="10" text-anchor="middle"><tspan x="1087.5" dy="0em">75%</tspan></text></svg></g><g class="visx-group visx-axis-tick" transform="translate(0, 0)"><line class="visx-line" x1="1450" y1="0" x2="1450" y2="8" fill="transparent" shape-rendering="crispEdges" stroke="#000" stroke-width="0" stroke-linecap="square"></line><svg x="0" y="0" font-size="10" style="overflow:visible"><text transform="" x="1450" y="18" fill="#000" font-size="10" text-anchor="middle"><tspan x="1450" dy="0em">100%</tspan></text></svg></g><line class="visx-line visx-axis-line" x1="0.5" y1="0" x2="1450.5" y2="0" fill="transparent" shape-rendering="crispEdges" stroke="#222" stroke-width="0"></line></g><g class="visx-group visx-axis visx-axis-left" transform="translate(0, 0)"><g class="visx-group visx-axis-tick" transform="translate(0, 0)"><line class="visx-line" x1="0" y1="115" x2="-8" y2="115" fill="transparent" shape-rendering="crispEdges" stroke="#222" stroke-width="0" stroke-linecap="square"></line><svg x="-30" y="0" font-size="8" style="overflow:visible"><text transform="" x="-8" y="115" fill="#000" font-size="8" text-anchor="start"><tspan x="-8" dy="0em">0%</tspan></text></svg></g><g class="visx-group visx-axis-tick" transform="translate(0, 0)"><line class="visx-line" x1="0" y1="49.28571428571429" x2="-8" y2="49.28571428571429" fill="transparent" shape-rendering="crispEdges" stroke="#222" stroke-width="0" stroke-linecap="square"></line><svg x="-30" y="0" font-size="8" style="overflow:visible"><text transform="" x="-8" y="49.28571428571429" fill="#000" font-size="8" text-anchor="start"><tspan x="-8" dy="0em">200%</tspan></text></svg></g><line class="visx-line visx-axis-line" x1="0" y1="115.5" x2="0" y2="0.5" fill="transparent" shape-rendering="crispEdges" stroke="#222" stroke-width="0"></line></g><rect class="visx-bar" width="1450" height="115" fill="transparent"></rect><line class="visx-line" x1="652.5" y1="28" x2="652.5" y2="115" fill="transparent" shape-rendering="crispEdges" stroke="#0062D2" stroke-width="1" pointer-events="none" stroke-dasharray="5,2"></line><svg x="0" y="0" font-size="10px" style="overflow:visible"><text transform="" x="652.5" y="20" font-size="10px" fill="#fff" stroke="#fff" stroke-width="0.8em" text-anchor="middle"><tspan x="652.5" dy="0.355em">Optimal 45%</tspan></text></svg><svg x="0" y="0" font-size="10px" style="overflow:visible"><text transform="" x="652.5" y="20" font-size="10px" fill="#62677B" text-anchor="middle"><tspan x="652.5" dy="0.355em">Optimal 45%</tspan></text></svg></g></svg>