<?xml version="1.0"?><svg xmlns="http://www.w3.org/2000/svg" xmlns:xlink= "http://www.w3.org/1999/xlink" style="background: white;" width="1500" height="185"> <g style="color: black; font-size: 13px; font-family: sans-serif; transform: translate(18px, 25px);"><g><circle r="3" cx="-6" cy="-5" style="fill: #B6509E" /><text>Borrow APR, variable</text></g><g style="transform: translateX(150px);"><circle r="3" cx="-6" cy="-5" style="fill: rgb(231, 198, 223)" /><text>Borrow APR, stable</text></g><g style="transform: translateX(290px);"><circle r="3" cx="-6" cy="-5" style="fill: rgb(0, 98, 210)" /><text>Utilization Rate</text></g></g><g class="visx-group" transform="translate(40, 50)"><g class="visx-group visx-rows" transform="translate(0, 0)"><line class="visx-line" x1="0" y1="115" x2="1450" y2="115" fill="transparent" shape-rendering="crispEdges" stroke="#000" stroke-width="1" stroke-dasharray="3,3" pointer-events="none"></line><line class="visx-line" x1="0" y1="76.66666666666667" x2="1450" y2="76.66666666666667" fill="transparent" shape-rendering="crispEdges" stroke="#000" stroke-width="1" stroke-dasharray="3,3" pointer-events="none"></line><line class="visx-line" x1="0" y1="38.333333333333336" x2="1450" y2="38.333333333333336" fill="transparent" shape-rendering="crispEdges" stroke="#000" stroke-width="1" stroke-dasharray="3,3" pointer-events="none"></line><line class="visx-line" x1="0" y1="0" x2="1450" y2="0" fill="transparent" shape-rendering="crispEdges" stroke="#000" stroke-width="1" stroke-dasharray="3,3" pointer-events="none"></line></g><path class="visx-linepath" d="M0,113.0833333332036C2.4166666666666665,113.06170940163372,4.833333333333334,113.04008547006384,7.25,113.01846153846154C9.666666666666666,112.99683760685923,12.083333333333334,112.97521367521368,14.5,112.95358974358975C16.916666666666668,112.93196581196581,19.333333333333332,112.91034188034187,21.75,112.88871794871794C24.166666666666668,112.867094017094,26.583333333333332,112.84547008547008,29,112.82384615384615C31.416666666666668,112.80222222222221,33.833333333333336,112.78059829059829,36.25,112.75897435897436C38.666666666666664,112.73735042735042,41.083333333333336,112.7157264957265,43.5,112.69410256410256C45.91666666666667,112.67247863247863,48.333333333333336,112.65085470085471,50.75000000000001,112.62923076923077C53.16666666666667,112.60760683760684,55.583333333333336,112.58598290598292,58,112.56435897435898C60.416666666666664,112.54273504273505,62.833333333333336,112.52111111111113,65.25,112.49948717948719C67.66666666666667,112.47786324786325,70.08333333333333,112.45623931623932,72.5,112.43461538461538C74.91666666666667,112.41299145299145,77.33333333333333,112.39136752136751,79.75,112.36974358974358C82.16666666666667,112.34811965811964,84.58333333333333,112.32649572649572,87,112.30487179487179C89.41666666666667,112.28324786324785,91.83333333333333,112.26162393162393,94.25,112.24C96.66666666666667,112.21837606837606,99.08333333333334,112.19675213675214,101.50000000000001,112.1751282051282C103.91666666666667,112.15350427350427,106.33333333333334,112.13188034188035,108.75,112.11025641025641C111.16666666666667,112.08863247863248,113.58333333333333,112.06700854700856,116,112.04538461538462C118.41666666666667,112.02376068376068,120.83333333333334,112.00213675213676,123.25000000000001,111.98051282051283C125.66666666666667,111.9588888888889,128.08333333333334,111.93726495726496,130.5,111.91564102564102C132.91666666666666,111.89401709401709,135.33333333333334,111.87239316239317,137.75,111.85076923076923C140.16666666666666,111.8291452991453,142.58333333333334,111.80752136752137,145,111.78589743589744C147.41666666666666,111.7642735042735,149.83333333333334,111.74264957264957,152.25,111.72102564102563C154.66666666666666,111.6994017094017,157.08333333333334,111.67777777777778,159.5,111.65615384615384C161.91666666666666,111.6345299145299,164.33333333333334,111.61290598290599,166.75,111.59128205128205C169.16666666666666,111.56965811965811,171.58333333333334,111.5480341880342,174,111.52641025641026C176.41666666666666,111.50478632478632,178.83333333333334,111.4831623931624,181.25,111.46153846153847C183.66666666666666,111.43991452991453,186.08333333333334,111.4182905982906,188.5,111.39666666666666C190.91666666666666,111.37504273504273,193.33333333333334,111.3534188034188,195.75,111.33179487179487C198.16666666666669,111.31017094017093,200.58333333333334,111.28854700854701,203.00000000000003,111.26692307692308C205.41666666666669,111.24529914529914,207.83333333333331,111.22367521367522,210.24999999999997,111.20205128205129C212.66666666666666,111.18042735042735,215.08333333333331,111.15880341880343,217.5,111.1371794871795C219.91666666666666,111.11555555555556,222.33333333333334,111.09393162393162,224.75,111.07230769230769C227.16666666666666,111.05068376068375,229.58333333333334,111.02905982905983,232,111.0074358974359C234.41666666666666,110.98581196581196,236.83333333333334,110.96418803418804,239.25,110.9425641025641C241.66666666666669,110.92094017094017,244.08333333333334,110.89931623931624,246.50000000000003,110.8776923076923C248.91666666666669,110.85606837606836,251.33333333333331,110.83444444444444,253.74999999999997,110.81282051282051C256.16666666666663,110.79119658119657,258.5833333333333,110.76957264957265,261,110.74794871794872C263.4166666666667,110.72632478632478,265.8333333333333,110.70470085470086,268.25,110.68307692307692C270.6666666666667,110.66145299145299,273.0833333333333,110.63982905982907,275.5,110.61820512820513C277.9166666666667,110.5965811965812,280.3333333333333,110.57495726495728,282.75,110.55333333333334C285.1666666666667,110.5317094017094,287.5833333333333,110.51008547008549,290,110.48846153846155C292.4166666666667,110.46683760683761,294.8333333333333,110.44521367521368,297.25,110.42358974358974C299.6666666666667,110.40196581196581,302.0833333333333,110.38034188034187,304.5,110.35871794871794C306.9166666666667,110.337094017094,309.3333333333333,110.31547008547008,311.75,110.29384615384615C314.1666666666667,110.27222222222221,316.5833333333333,110.25059829059829,319,110.22897435897436C321.4166666666667,110.20735042735042,323.8333333333333,110.1857264957265,326.25,110.16410256410256C328.6666666666667,110.14247863247863,331.0833333333333,110.12085470085471,333.5,110.09923076923077C335.9166666666667,110.07760683760684,338.3333333333333,110.05598290598292,340.75,110.03435897435898C343.1666666666667,110.01273504273504,345.5833333333333,109.99111111111112,348,109.96948717948719C350.4166666666667,109.94786324786325,352.8333333333333,109.92623931623932,355.25,109.90461538461538C357.6666666666667,109.88299145299145,360.0833333333333,109.86136752136753,362.5,109.83974358974359C364.9166666666667,109.81811965811966,367.3333333333333,109.79649572649572,369.75,109.77487179487179C372.1666666666667,109.75324786324785,374.5833333333333,109.73162393162393,377,109.71C379.4166666666667,109.68837606837606,381.8333333333333,109.66675213675214,384.25,109.6451282051282C386.6666666666667,109.62350427350427,389.0833333333333,109.60188034188035,391.5,109.58025641025641C393.9166666666667,109.55863247863248,396.33333333333337,109.53700854700855,398.75000000000006,109.51538461538462C401.16666666666674,109.49376068376068,403.58333333333337,109.47213675213676,406.00000000000006,109.45051282051283C408.4166666666667,109.42888888888889,410.8333333333333,109.40726495726496,413.24999999999994,109.38564102564102C415.66666666666663,109.36401709401709,418.08333333333326,109.34239316239317,420.49999999999994,109.32076923076923C422.91666666666663,109.2991452991453,425.3333333333333,109.27752136752137,427.75,109.25589743589744C430.1666666666667,109.2342735042735,432.5833333333333,109.21264957264958,435,109.19102564102565C437.4166666666667,109.16940170940171,439.8333333333333,109.14777777777779,442.25,109.12615384615385C444.6666666666667,109.10452991452992,447.0833333333333,109.08290598290598,449.5,109.06128205128205C451.9166666666667,109.03965811965811,454.3333333333333,109.01803418803419,456.75,108.99641025641026C459.1666666666667,108.97478632478632,461.5833333333333,108.9531623931624,464,108.93153846153847C466.4166666666667,108.90991452991453,468.8333333333333,108.8882905982906,471.25,108.86666666666666C473.6666666666667,108.84504273504272,476.0833333333333,108.8234188034188,478.5,108.80179487179487C480.9166666666667,108.78017094017093,483.33333333333337,108.75854700854701,485.75000000000006,108.73692307692308C488.16666666666674,108.71529914529914,490.58333333333337,108.69367521367522,493.00000000000006,108.67205128205129C495.4166666666667,108.65042735042735,497.8333333333333,108.62880341880343,500.24999999999994,108.6071794871795C502.66666666666663,108.58555555555556,505.08333333333326,108.56393162393164,507.49999999999994,108.5423076923077C509.91666666666663,108.52068376068377,512.3333333333333,108.49905982905983,514.75,108.4774358974359C517.1666666666666,108.45581196581196,519.5833333333334,108.43418803418803,522,108.41256410256409C524.4166666666666,108.39094017094015,526.8333333333334,108.36931623931623,529.25,108.3476923076923C531.6666666666666,108.32606837606836,534.0833333333334,108.30444444444444,536.5,108.2828205128205C538.9166666666666,108.26119658119657,541.3333333333334,108.23957264957265,543.75,108.21794871794872C546.1666666666666,108.19632478632478,548.5833333333334,108.17470085470086,551,108.15307692307692C553.4166666666666,108.13145299145299,555.8333333333334,108.10982905982907,558.25,108.08820512820513C560.6666666666666,108.0665811965812,563.0833333333334,108.04495726495728,565.5,108.02333333333334C567.9166666666666,108.0017094017094,570.3333333333334,107.98008547008548,572.75,107.95846153846155C575.1666666666666,107.93683760683761,577.5833333333334,107.91521367521368,580,107.89358974358974C582.4166666666666,107.87196581196581,584.8333333333334,107.85034188034189,587.25,107.82871794871795C589.6666666666666,107.80709401709402,592.0833333333334,107.78547008547008,594.5,107.76384615384615C596.9166666666666,107.74222222222221,599.3333333333334,107.72059829059829,601.75,107.69897435897435C604.1666666666666,107.67735042735042,606.5833333333334,107.6557264957265,609,107.63410256410256C611.4166666666666,107.61247863247863,613.8333333333334,107.5908547008547,616.25,107.56923076923077C618.6666666666666,107.54760683760684,621.0833333333334,107.52598290598291,623.5,107.50435897435898C625.9166666666666,107.48273504273504,628.3333333333334,107.46111111111111,630.75,107.43948717948717C633.1666666666666,107.41786324786324,635.5833333333334,107.39623931623932,638,107.37461538461538C640.4166666666666,107.35299145299145,642.8333333333334,107.33136752136753,645.25,107.30974358974359C647.6666666666666,107.28811965811965,650.0833333333334,107.26649572649573,652.5,107.2448717948718C654.9166666666666,107.22324786324786,657.3333333333334,107.20162393162394,659.75,107.18C662.1666666666666,107.15837606837607,664.5833333333334,107.13675213675214,667,107.1151282051282C669.4166666666666,107.09350427350427,671.8333333333334,107.07188034188034,674.25,107.05025641025641C676.6666666666666,107.02863247863247,679.0833333333334,107.00700854700855,681.5,106.98538461538462C683.9166666666666,106.96376068376068,686.3333333333334,106.94213675213675,688.75,106.92051282051281C691.1666666666666,106.89888888888888,693.5833333333334,106.87726495726496,696,106.85564102564102C698.4166666666666,106.83401709401709,700.8333333333334,106.81239316239316,703.25,106.79076923076923C705.6666666666666,106.7691452991453,708.0833333333334,106.74752136752137,710.5,106.72589743589744C712.9166666666666,106.7042735042735,715.3333333333334,106.68264957264958,717.75,106.66102564102565C720.1666666666666,106.63940170940171,722.5833333333334,106.61777777777779,725,106.59615384615385C727.4166666666666,106.57452991452992,729.8333333333334,106.552905982906,732.25,106.53128205128206C734.6666666666666,106.50965811965813,737.0833333333334,106.48803418803419,739.5,106.46641025641026C741.9166666666666,106.44478632478632,744.3333333333334,106.42316239316239,746.75,106.40153846153845C749.1666666666666,106.37991452991452,751.5833333333334,106.3582905982906,754,106.33666666666666C756.4166666666666,106.31504273504272,758.8333333333334,106.2934188034188,761.25,106.27179487179487C763.6666666666666,106.25017094017093,766.0833333333334,106.22854700854701,768.5,106.20692307692308C770.9166666666666,106.18529914529914,773.3333333333334,106.16367521367522,775.75,106.14205128205128C778.1666666666666,106.12042735042735,780.5833333333334,106.09880341880343,783,106.07717948717949C785.4166666666667,106.05555555555556,787.8333333333334,106.03393162393164,790.2500000000001,106.0123076923077C792.6666666666667,105.99068376068377,795.0833333333335,105.96905982905983,797.5000000000001,105.9474358974359C799.9166666666667,105.92581196581196,802.3333333333335,105.90418803418802,804.7500000000001,105.88256410256409C807.1666666666667,105.86094017094015,809.5833333333335,105.83931623931623,812.0000000000001,105.8176923076923C814.4166666666667,105.79606837606836,816.8333333333333,105.77444444444444,819.2499999999999,105.7528205128205C821.6666666666665,105.73119658119657,824.0833333333333,105.70957264957265,826.4999999999999,105.68794871794871C828.9166666666665,105.66632478632478,831.3333333333333,105.64470085470086,833.7499999999999,105.62307692307692C836.1666666666665,105.60145299145299,838.5833333333333,105.57982905982907,840.9999999999999,105.55820512820513C843.4166666666666,105.5365811965812,845.8333333333333,105.51495726495727,848.25,105.49333333333334C850.6666666666666,105.4717094017094,853.0833333333334,105.45008547008547,855.5,105.42846153846153C857.9166666666666,105.4068376068376,860.3333333333334,105.38521367521368,862.75,105.36358974358974C865.1666666666666,105.3419658119658,867.5833333333334,105.32034188034189,870,105.29871794871795C872.4166666666666,105.27709401709402,874.8333333333334,105.2554700854701,877.25,105.23384615384616C879.6666666666666,105.21222222222222,882.0833333333334,105.1905982905983,884.5,105.16897435897437C886.9166666666666,105.14735042735043,889.3333333333334,105.1257264957265,891.75,105.10410256410256C894.1666666666666,105.08247863247863,896.5833333333334,105.0608547008547,899,105.03923076923077C901.4166666666666,105.01760683760683,903.8333333333334,104.99598290598291,906.25,104.97435897435898C908.6666666666666,104.95273504273504,911.0833333333334,104.93111111111111,913.5,104.90948717948717C915.9166666666666,104.88786324786324,918.3333333333334,104.86623931623932,920.75,104.84461538461538C923.1666666666666,104.82299145299145,925.5833333333334,104.80136752136752,928,104.77974358974359C930.4166666666666,104.75811965811965,932.8333333333334,104.73649572649573,935.25,104.7148717948718C937.6666666666666,104.69324786324786,940.0833333333334,104.69324786324786,942.5,104.65C944.9166666666666,104.60675213675215,947.3333333333334,103.7884126984127,949.75,103.35761904761905C952.1666666666666,102.92682539682541,954.5833333333334,102.49603174603173,957,102.06523809523809C959.4166666666666,101.63444444444444,961.8333333333334,101.2036507936508,964.25,100.77285714285715C966.6666666666667,100.3420634920635,969.0833333333334,99.91126984126986,971.5000000000001,99.4804761904762C973.9166666666667,99.04968253968255,976.3333333333335,98.61888888888888,978.7500000000001,98.18809523809523C981.1666666666667,97.75730158730158,983.5833333333335,97.32650793650792,986.0000000000001,96.89571428571428C988.4166666666667,96.46492063492063,990.8333333333335,96.034126984127,993.2500000000001,95.60333333333334C995.6666666666667,95.17253968253969,998.0833333333333,94.74174603174603,1000.4999999999999,94.31095238095239C1002.9166666666665,93.88015873015873,1005.3333333333333,93.44936507936507,1007.7499999999999,93.01857142857142C1010.1666666666665,92.58777777777777,1012.5833333333333,92.15698412698413,1014.9999999999999,91.72619047619048C1017.4166666666665,91.29539682539684,1019.8333333333333,90.86460317460318,1022.2499999999999,90.43380952380953C1024.6666666666665,90.00301587301587,1027.0833333333333,89.57222222222224,1029.5,89.14142857142858C1031.9166666666667,88.71063492063493,1034.3333333333333,88.27984126984126,1036.75,87.84904761904761C1039.1666666666667,87.41825396825396,1041.5833333333333,86.9874603174603,1044,86.55666666666666C1046.4166666666667,86.12587301587301,1048.8333333333333,85.69507936507937,1051.25,85.26428571428572C1053.6666666666667,84.83349206349207,1056.0833333333333,84.40269841269841,1058.5,83.97190476190477C1060.9166666666667,83.54111111111112,1063.3333333333333,83.11031746031746,1065.75,82.67952380952381C1068.1666666666667,82.24873015873017,1070.5833333333333,81.81793650793651,1073,81.38714285714286C1075.4166666666667,80.95634920634922,1077.8333333333333,80.52555555555556,1080.25,80.09476190476191C1082.6666666666667,79.66396825396826,1085.0833333333333,79.23317460317459,1087.5,78.80238095238094C1089.9166666666667,78.3715873015873,1092.3333333333333,77.94079365079364,1094.75,77.50999999999999C1097.1666666666667,77.07920634920634,1099.5833333333333,76.64841269841268,1102,76.21761904761904C1104.4166666666667,75.78682539682539,1106.8333333333333,75.35603174603173,1109.25,74.92523809523809C1111.6666666666667,74.49444444444444,1114.0833333333333,74.0636507936508,1116.5,73.63285714285715C1118.9166666666667,73.2020634920635,1121.3333333333333,72.77126984126984,1123.75,72.3404761904762C1126.1666666666667,71.90968253968255,1128.5833333333333,71.47888888888889,1131,71.04809523809524C1133.4166666666667,70.6173015873016,1135.8333333333333,70.18650793650792,1138.25,69.75571428571428C1140.6666666666667,69.32492063492063,1143.0833333333333,68.89412698412698,1145.5,68.46333333333334C1147.9166666666667,68.03253968253969,1150.3333333333333,67.60174603174603,1152.75,67.17095238095239C1155.1666666666667,66.74015873015874,1157.5833333333333,66.30936507936508,1160,65.87857142857143C1162.4166666666667,65.44777777777779,1164.8333333333333,65.01698412698413,1167.25,64.58619047619048C1169.6666666666667,64.15539682539683,1172.0833333333333,63.72460317460318,1174.5,63.29380952380953C1176.9166666666667,62.863015873015875,1179.3333333333333,62.43222222222222,1181.75,62.00142857142857C1184.1666666666667,61.570634920634916,1186.5833333333333,61.13984126984127,1189,60.70904761904762C1191.4166666666667,60.27825396825396,1193.8333333333333,59.8474603174603,1196.25,59.41666666666666C1198.6666666666667,58.98587301587301,1201.0833333333333,58.555079365079365,1203.5,58.12428571428572C1205.9166666666667,57.69349206349207,1208.3333333333333,57.26269841269841,1210.75,56.83190476190476C1213.1666666666667,56.401111111111106,1215.5833333333333,55.97031746031746,1218,55.53952380952381C1220.4166666666667,55.108730158730154,1222.8333333333333,54.6779365079365,1225.25,54.24714285714285C1227.6666666666667,53.816349206349194,1230.0833333333333,53.38555555555555,1232.5,52.9547619047619C1234.9166666666667,52.523968253968256,1237.3333333333333,52.093174603174596,1239.75,51.66238095238095C1242.1666666666667,51.231587301587304,1244.5833333333333,50.80079365079366,1247,50.370000000000005C1249.4166666666667,49.93920634920635,1251.8333333333333,49.508412698412684,1254.25,49.07761904761904C1256.6666666666667,48.64682539682539,1259.0833333333333,48.21603174603175,1261.5,47.78523809523811C1263.9166666666667,47.35444444444446,1266.3333333333333,46.92365079365079,1268.75,46.49285714285714C1271.1666666666667,46.06206349206349,1273.5833333333333,45.63126984126984,1276,45.200476190476195C1278.4166666666667,44.76968253968255,1280.8333333333333,44.338888888888896,1283.25,43.90809523809524C1285.6666666666667,43.47730158730159,1288.0833333333333,43.046507936507936,1290.5,42.61571428571428C1292.9166666666667,42.18492063492063,1295.3333333333333,41.75412698412699,1297.75,41.32333333333334C1300.1666666666667,40.892539682539685,1302.5833333333333,40.46174603174602,1305,40.03095238095237C1307.4166666666667,39.600158730158725,1309.8333333333333,39.169365079365086,1312.25,38.73857142857144C1314.6666666666667,38.307777777777794,1317.0833333333333,37.87698412698413,1319.5,37.44619047619047C1321.9166666666667,37.01539682539682,1324.3333333333333,36.58460317460318,1326.75,36.15380952380953C1329.1666666666667,35.723015873015875,1331.5833333333333,35.29222222222221,1334,34.86142857142856C1336.4166666666667,34.430634920634915,1338.8333333333333,33.999841269841276,1341.25,33.56904761904763C1343.6666666666667,33.138253968253984,1346.0833333333333,32.707460317460324,1348.5,32.27666666666667C1350.9166666666667,31.845873015873018,1353.3333333333333,31.41507936507937,1355.75,30.98428571428572C1358.1666666666667,30.553492063492065,1360.5833333333333,30.122698412698416,1363,29.691904761904762C1365.4166666666667,29.26111111111111,1367.8333333333333,28.830317460317456,1370.25,28.399523809523807C1372.6666666666667,27.968730158730157,1375.0833333333333,27.53793650793651,1377.5,27.10714285714286C1379.9166666666667,26.67634920634921,1382.3333333333333,26.245555555555562,1384.75,25.81476190476191C1387.1666666666667,25.383968253968256,1389.5833333333333,24.953174603174602,1392,24.52238095238095C1394.4166666666667,24.091587301587296,1396.8333333333333,23.66079365079365,1399.25,23.229999999999997C1401.6666666666667,22.799206349206344,1404.0833333333333,22.368412698412687,1406.5,21.937619047619037C1408.9166666666667,21.506825396825388,1411.3333333333333,21.076031746031745,1413.75,20.645238095238096C1416.1666666666667,20.214444444444446,1418.5833333333333,19.783650793650793,1421,19.35285714285714C1423.4166666666667,18.922063492063486,1425.8333333333333,18.491269841269837,1428.25,18.060476190476184C1430.6666666666667,17.62968253968253,1433.0833333333333,17.198888888888877,1435.5,16.768095238095228C1437.9166666666667,16.337301587301578,1440.3333333333333,15.906507936507934,1442.75,15.475714285714284C1445.1666666666667,15.044920634920635,1447.5833333333333,14.614126984126981,1450,14.183333333333328" fill="transparent" stroke-linecap="round" stroke="#B6509E" stroke-width="2"></path><path class="visx-linepath" d="M0,111.16666666653693C2.4166666666666665,111.14504273496706,4.833333333333334,111.12341880339719,7.25,111.10179487179488C9.666666666666666,111.08017094019257,12.083333333333334,111.05854700854701,14.5,111.03692307692307C16.916666666666668,111.01529914529914,19.333333333333332,110.99367521367522,21.75,110.97205128205128C24.166666666666668,110.95042735042735,26.583333333333332,110.92880341880343,29,110.90717948717949C31.416666666666668,110.88555555555556,33.833333333333336,110.86393162393162,36.25,110.84230769230768C38.666666666666664,110.82068376068375,41.083333333333336,110.79905982905983,43.5,110.7774358974359C45.91666666666667,110.75581196581196,48.333333333333336,110.73418803418804,50.75000000000001,110.7125641025641C53.16666666666667,110.69094017094017,55.583333333333336,110.66931623931625,58,110.64769230769231C60.416666666666664,110.62606837606837,62.833333333333336,110.60444444444445,65.25,110.58282051282052C67.66666666666667,110.56119658119658,70.08333333333333,110.53957264957265,72.5,110.51794871794871C74.91666666666667,110.49632478632478,77.33333333333333,110.47470085470086,79.75,110.45307692307692C82.16666666666667,110.43145299145299,84.58333333333333,110.40982905982906,87,110.38820512820513C89.41666666666667,110.3665811965812,91.83333333333333,110.34495726495727,94.25,110.32333333333334C96.66666666666667,110.3017094017094,99.08333333333334,110.28008547008548,101.50000000000001,110.25846153846155C103.91666666666667,110.23683760683761,106.33333333333334,110.21521367521369,108.75,110.19358974358975C111.16666666666667,110.17196581196582,113.58333333333333,110.15034188034188,116,110.12871794871795C118.41666666666667,110.10709401709401,120.83333333333334,110.08547008547009,123.25000000000001,110.06384615384616C125.66666666666667,110.04222222222222,128.08333333333334,110.02059829059829,130.5,109.99897435897435C132.91666666666666,109.97735042735042,135.33333333333334,109.9557264957265,137.75,109.93410256410256C140.16666666666666,109.91247863247862,142.58333333333334,109.8908547008547,145,109.86923076923077C147.41666666666666,109.84760683760683,149.83333333333334,109.82598290598291,152.25,109.80435897435898C154.66666666666666,109.78273504273504,157.08333333333334,109.76111111111112,159.5,109.73948717948718C161.91666666666666,109.71786324786325,164.33333333333334,109.69623931623933,166.75,109.6746153846154C169.16666666666666,109.65299145299146,171.58333333333334,109.63136752136754,174,109.6097435897436C176.41666666666666,109.58811965811967,178.83333333333334,109.56649572649573,181.25,109.5448717948718C183.66666666666666,109.52324786324786,186.08333333333334,109.50162393162393,188.5,109.47999999999999C190.91666666666666,109.45837606837605,193.33333333333334,109.43675213675213,195.75,109.4151282051282C198.16666666666669,109.39350427350426,200.58333333333334,109.37188034188034,203.00000000000003,109.3502564102564C205.41666666666669,109.32863247863247,207.83333333333331,109.30700854700855,210.24999999999997,109.28538461538461C212.66666666666666,109.26376068376068,215.08333333333331,109.24213675213676,217.5,109.22051282051282C219.91666666666666,109.19888888888889,222.33333333333334,109.17726495726497,224.75,109.15564102564103C227.16666666666666,109.1340170940171,229.58333333333334,109.11239316239318,232,109.09076923076924C234.41666666666666,109.0691452991453,236.83333333333334,109.04752136752137,239.25,109.02589743589743C241.66666666666669,109.0042735042735,244.08333333333334,108.98264957264958,246.50000000000003,108.96102564102564C248.91666666666669,108.93940170940171,251.33333333333331,108.91777777777779,253.74999999999997,108.89615384615385C256.16666666666663,108.87452991452992,258.5833333333333,108.85290598290598,261,108.83128205128205C263.4166666666667,108.80965811965811,265.8333333333333,108.78803418803419,268.25,108.76641025641025C270.6666666666667,108.74478632478632,273.0833333333333,108.7231623931624,275.5,108.70153846153846C277.9166666666667,108.67991452991453,280.3333333333333,108.6582905982906,282.75,108.63666666666667C285.1666666666667,108.61504273504273,287.5833333333333,108.59341880341881,290,108.57179487179488C292.4166666666667,108.55017094017094,294.8333333333333,108.52854700854701,297.25,108.50692307692307C299.6666666666667,108.48529914529914,302.0833333333333,108.46367521367522,304.5,108.44205128205128C306.9166666666667,108.42042735042735,309.3333333333333,108.39880341880342,311.75,108.37717948717949C314.1666666666667,108.35555555555555,316.5833333333333,108.33393162393163,319,108.3123076923077C321.4166666666667,108.29068376068376,323.8333333333333,108.26905982905983,326.25,108.24743589743589C328.6666666666667,108.22581196581196,331.0833333333333,108.20418803418804,333.5,108.1825641025641C335.9166666666667,108.16094017094017,338.3333333333333,108.13931623931624,340.75,108.11769230769231C343.1666666666667,108.09606837606837,345.5833333333333,108.07444444444444,348,108.0528205128205C350.4166666666667,108.03119658119657,352.8333333333333,108.00957264957265,355.25,107.98794871794871C357.6666666666667,107.96632478632478,360.0833333333333,107.94470085470086,362.5,107.92307692307692C364.9166666666667,107.90145299145298,367.3333333333333,107.87982905982906,369.75,107.85820512820513C372.1666666666667,107.8365811965812,374.5833333333333,107.81495726495727,377,107.79333333333334C379.4166666666667,107.7717094017094,381.8333333333333,107.75008547008548,384.25,107.72846153846154C386.6666666666667,107.70683760683761,389.0833333333333,107.68521367521369,391.5,107.66358974358975C393.9166666666667,107.64196581196582,396.33333333333337,107.6203418803419,398.75000000000006,107.59871794871796C401.16666666666674,107.57709401709403,403.58333333333337,107.55547008547008,406.00000000000006,107.53384615384614C408.4166666666667,107.5122222222222,410.8333333333333,107.49059829059829,413.24999999999994,107.46897435897435C415.66666666666663,107.44735042735041,418.08333333333326,107.4257264957265,420.49999999999994,107.40410256410256C422.91666666666663,107.38247863247862,425.3333333333333,107.3608547008547,427.75,107.33923076923077C430.1666666666667,107.31760683760683,432.5833333333333,107.29598290598291,435,107.27435897435898C437.4166666666667,107.25273504273504,439.8333333333333,107.23111111111112,442.25,107.20948717948718C444.6666666666667,107.18786324786325,447.0833333333333,107.16623931623933,449.5,107.14461538461539C451.9166666666667,107.12299145299146,454.3333333333333,107.10136752136752,456.75,107.07974358974359C459.1666666666667,107.05811965811965,461.5833333333333,107.03649572649573,464,107.0148717948718C466.4166666666667,106.99324786324786,468.8333333333333,106.97162393162392,471.25,106.94999999999999C473.6666666666667,106.92837606837605,476.0833333333333,106.90675213675213,478.5,106.8851282051282C480.9166666666667,106.86350427350426,483.33333333333337,106.84188034188034,485.75000000000006,106.8202564102564C488.16666666666674,106.79863247863247,490.58333333333337,106.77700854700855,493.00000000000006,106.75538461538461C495.4166666666667,106.73376068376068,497.8333333333333,106.71213675213676,500.24999999999994,106.69051282051282C502.66666666666663,106.66888888888889,505.08333333333326,106.64726495726497,507.49999999999994,106.62564102564103C509.91666666666663,106.6040170940171,512.3333333333333,106.58239316239316,514.75,106.56076923076922C517.1666666666666,106.53914529914529,519.5833333333334,106.51752136752137,522,106.49589743589743C524.4166666666666,106.4742735042735,526.8333333333334,106.45264957264958,529.25,106.43102564102564C531.6666666666666,106.4094017094017,534.0833333333334,106.38777777777779,536.5,106.36615384615385C538.9166666666666,106.34452991452991,541.3333333333334,106.322905982906,543.75,106.30128205128206C546.1666666666666,106.27965811965812,548.5833333333334,106.2580341880342,551,106.23641025641027C553.4166666666666,106.21478632478633,555.8333333333334,106.1931623931624,558.25,106.17153846153846C560.6666666666666,106.14991452991453,563.0833333333334,106.1282905982906,565.5,106.10666666666667C567.9166666666666,106.08504273504273,570.3333333333334,106.0634188034188,572.75,106.04179487179486C575.1666666666666,106.02017094017093,577.5833333333334,105.998547008547,580,105.97692307692307C582.4166666666666,105.95529914529914,584.8333333333334,105.93367521367522,587.25,105.91205128205128C589.6666666666666,105.89042735042734,592.0833333333334,105.86880341880342,594.5,105.84717948717949C596.9166666666666,105.82555555555555,599.3333333333334,105.80393162393163,601.75,105.7823076923077C604.1666666666666,105.76068376068376,606.5833333333334,105.73905982905984,609,105.7174358974359C611.4166666666666,105.69581196581197,613.8333333333334,105.67418803418803,616.25,105.6525641025641C618.6666666666666,105.63094017094016,621.0833333333334,105.60931623931624,623.5,105.58769230769231C625.9166666666666,105.56606837606837,628.3333333333334,105.54444444444444,630.75,105.5228205128205C633.1666666666666,105.50119658119657,635.5833333333334,105.47957264957265,638,105.45794871794871C640.4166666666666,105.43632478632478,642.8333333333334,105.41470085470085,645.25,105.39307692307692C647.6666666666666,105.37145299145298,650.0833333333334,105.34982905982906,652.5,105.32820512820513C654.9166666666666,105.30658119658119,657.3333333333334,105.28495726495727,659.75,105.26333333333334C662.1666666666666,105.2417094017094,664.5833333333334,105.22008547008548,667,105.19846153846154C669.4166666666666,105.17683760683761,671.8333333333334,105.15521367521369,674.25,105.13358974358975C676.6666666666666,105.11196581196582,679.0833333333334,105.09034188034188,681.5,105.06871794871795C683.9166666666666,105.04709401709401,686.3333333333334,105.02547008547009,688.75,105.00384615384615C691.1666666666666,104.98222222222222,693.5833333333334,104.9605982905983,696,104.93897435897436C698.4166666666666,104.91735042735043,700.8333333333334,104.8957264957265,703.25,104.87410256410257C705.6666666666666,104.85247863247864,708.0833333333334,104.8308547008547,710.5,104.80923076923077C712.9166666666666,104.78760683760683,715.3333333333334,104.76598290598291,717.75,104.74435897435897C720.1666666666666,104.72273504273504,722.5833333333334,104.70111111111112,725,104.67948717948718C727.4166666666666,104.65786324786325,729.8333333333334,104.63623931623933,732.25,104.61461538461539C734.6666666666666,104.59299145299146,737.0833333333334,104.57136752136752,739.5,104.54974358974358C741.9166666666666,104.52811965811965,744.3333333333334,104.50649572649573,746.75,104.4848717948718C749.1666666666666,104.46324786324786,751.5833333333334,104.44162393162394,754,104.42C756.4166666666666,104.39837606837607,758.8333333333334,104.37675213675215,761.25,104.35512820512821C763.6666666666666,104.33350427350427,766.0833333333334,104.31188034188034,768.5,104.2902564102564C770.9166666666666,104.26863247863247,773.3333333333334,104.24700854700855,775.75,104.22538461538461C778.1666666666666,104.20376068376068,780.5833333333334,104.18213675213676,783,104.16051282051282C785.4166666666667,104.13888888888889,787.8333333333334,104.11726495726496,790.2500000000001,104.09564102564103C792.6666666666667,104.0740170940171,795.0833333333335,104.05239316239316,797.5000000000001,104.03076923076922C799.9166666666667,104.00914529914529,802.3333333333335,103.98752136752137,804.7500000000001,103.96589743589743C807.1666666666667,103.9442735042735,809.5833333333335,103.92264957264958,812.0000000000001,103.90102564102564C814.4166666666667,103.8794017094017,816.8333333333333,103.85777777777778,819.2499999999999,103.83615384615385C821.6666666666665,103.81452991452991,824.0833333333333,103.79290598290599,826.4999999999999,103.77128205128206C828.9166666666665,103.74965811965812,831.3333333333333,103.7280341880342,833.7499999999999,103.70641025641027C836.1666666666665,103.68478632478633,838.5833333333333,103.66316239316241,840.9999999999999,103.64153846153847C843.4166666666666,103.61991452991454,845.8333333333333,103.5982905982906,848.25,103.57666666666667C850.6666666666666,103.55504273504273,853.0833333333334,103.5334188034188,855.5,103.51179487179486C857.9166666666666,103.49017094017093,860.3333333333334,103.468547008547,862.75,103.44692307692307C865.1666666666666,103.42529914529914,867.5833333333334,103.40367521367521,870,103.38205128205128C872.4166666666666,103.36042735042734,874.8333333333334,103.33880341880342,877.25,103.31717948717949C879.6666666666666,103.29555555555555,882.0833333333334,103.27393162393163,884.5,103.2523076923077C886.9166666666666,103.23068376068376,889.3333333333334,103.20905982905984,891.75,103.1874358974359C894.1666666666666,103.16581196581197,896.5833333333334,103.14418803418805,899,103.12256410256411C901.4166666666666,103.10094017094018,903.8333333333334,103.07931623931624,906.25,103.0576923076923C908.6666666666666,103.03606837606837,911.0833333333334,103.01444444444444,913.5,102.9928205128205C915.9166666666666,102.97119658119657,918.3333333333334,102.94957264957264,920.75,102.92794871794871C923.1666666666666,102.90632478632477,925.5833333333334,102.88470085470085,928,102.86307692307692C930.4166666666666,102.84145299145298,932.8333333333334,102.81982905982906,935.25,102.79820512820513C937.6666666666666,102.77658119658119,940.0833333333334,102.77658119658119,942.5,102.73333333333333C944.9166666666666,102.69008547008548,947.3333333333334,101.87174603174603,949.75,101.44095238095238C952.1666666666666,101.01015873015874,954.5833333333334,100.57936507936506,957,100.14857142857142C959.4166666666666,99.71777777777777,961.8333333333334,99.28698412698412,964.25,98.85619047619048C966.6666666666667,98.42539682539683,969.0833333333334,97.99460317460318,971.5000000000001,97.56380952380952C973.9166666666667,97.13301587301588,976.3333333333335,96.70222222222222,978.7500000000001,96.27142857142857C981.1666666666667,95.84063492063493,983.5833333333335,95.40984126984127,986.0000000000001,94.97904761904762C988.4166666666667,94.54825396825397,990.8333333333335,94.11746031746033,993.2500000000001,93.68666666666667C995.6666666666667,93.25587301587302,998.0833333333333,92.82507936507936,1000.4999999999999,92.39428571428572C1002.9166666666665,91.96349206349205,1005.3333333333333,91.53269841269841,1007.7499999999999,91.10190476190476C1010.1666666666665,90.67111111111112,1012.5833333333333,90.24031746031746,1014.9999999999999,89.80952380952381C1017.4166666666665,89.37873015873016,1019.8333333333333,88.9479365079365,1022.2499999999999,88.51714285714286C1024.6666666666665,88.0863492063492,1027.0833333333333,87.65555555555557,1029.5,87.2247619047619C1031.9166666666667,86.79396825396826,1034.3333333333333,86.3631746031746,1036.75,85.93238095238095C1039.1666666666667,85.5015873015873,1041.5833333333333,85.07079365079365,1044,84.64C1046.4166666666667,84.20920634920635,1048.8333333333333,83.7784126984127,1051.25,83.34761904761905C1053.6666666666667,82.9168253968254,1056.0833333333333,82.48603174603173,1058.5,82.05523809523808C1060.9166666666667,81.62444444444444,1063.3333333333333,81.19365079365079,1065.75,80.76285714285714C1068.1666666666667,80.3320634920635,1070.5833333333333,79.90126984126985,1073,79.4704761904762C1075.4166666666667,79.03968253968256,1077.8333333333333,78.60888888888888,1080.25,78.17809523809524C1082.6666666666667,77.74730158730159,1085.0833333333333,77.31650793650793,1087.5,76.88571428571429C1089.9166666666667,76.45492063492064,1092.3333333333333,76.02412698412698,1094.75,75.59333333333333C1097.1666666666667,75.16253968253969,1099.5833333333333,74.73174603174603,1102,74.30095238095238C1104.4166666666667,73.87015873015874,1106.8333333333333,73.43936507936506,1109.25,73.00857142857141C1111.6666666666667,72.57777777777777,1114.0833333333333,72.14698412698411,1116.5,71.71619047619046C1118.9166666666667,71.28539682539682,1121.3333333333333,70.85460317460318,1123.75,70.42380952380954C1126.1666666666667,69.99301587301589,1128.5833333333333,69.56222222222222,1131,69.13142857142857C1133.4166666666667,68.70063492063493,1135.8333333333333,68.26984126984127,1138.25,67.83904761904762C1140.6666666666667,67.40825396825397,1143.0833333333333,66.97746031746031,1145.5,66.54666666666667C1147.9166666666667,66.11587301587302,1150.3333333333333,65.68507936507936,1152.75,65.25428571428571C1155.1666666666667,64.82349206349207,1157.5833333333333,64.39269841269841,1160,63.961904761904755C1162.4166666666667,63.5311111111111,1164.8333333333333,63.10031746031744,1167.25,62.669523809523795C1169.6666666666667,62.23873015873015,1172.0833333333333,61.80793650793652,1174.5,61.37714285714287C1176.9166666666667,60.946349206349225,1179.3333333333333,60.51555555555555,1181.75,60.0847619047619C1184.1666666666667,59.653968253968245,1186.5833333333333,59.2231746031746,1189,58.79238095238095C1191.4166666666667,58.361587301587306,1193.8333333333333,57.93079365079365,1196.25,57.5C1198.6666666666667,57.06920634920635,1201.0833333333333,56.638412698412694,1203.5,56.20761904761905C1205.9166666666667,55.7768253968254,1208.3333333333333,55.346031746031755,1210.75,54.9152380952381C1213.1666666666667,54.48444444444445,1215.5833333333333,54.053650793650775,1218,53.62285714285713C1220.4166666666667,53.19206349206348,1222.8333333333333,52.76126984126985,1225.25,52.330476190476205C1227.6666666666667,51.89968253968256,1230.0833333333333,51.468888888888884,1232.5,51.03809523809523C1234.9166666666667,50.60730158730158,1237.3333333333333,50.17650793650794,1239.75,49.74571428571429C1242.1666666666667,49.31492063492065,1244.5833333333333,48.884126984126986,1247,48.45333333333333C1249.4166666666667,48.02253968253968,1251.8333333333333,47.59174603174603,1254.25,47.16095238095238C1256.6666666666667,46.730158730158735,1259.0833333333333,46.29936507936509,1261.5,45.868571428571435C1263.9166666666667,45.43777777777778,1266.3333333333333,45.00698412698413,1268.75,44.576190476190476C1271.1666666666667,44.14539682539682,1273.5833333333333,43.71460317460318,1276,43.28380952380952C1278.4166666666667,42.85301587301587,1280.8333333333333,42.42222222222222,1283.25,41.991428571428564C1285.6666666666667,41.56063492063491,1288.0833333333333,41.12984126984126,1290.5,40.69904761904761C1292.9166666666667,40.268253968253966,1295.3333333333333,39.83746031746031,1297.75,39.406666666666666C1300.1666666666667,38.97587301587302,1302.5833333333333,38.54507936507937,1305,38.114285714285714C1307.4166666666667,37.68349206349206,1309.8333333333333,37.2526984126984,1312.25,36.821904761904754C1314.6666666666667,36.39111111111111,1317.0833333333333,35.96031746031747,1319.5,35.52952380952382C1321.9166666666667,35.09873015873018,1324.3333333333333,34.66793650793651,1326.75,34.23714285714286C1329.1666666666667,33.8063492063492,1331.5833333333333,33.375555555555565,1334,32.94476190476191C1336.4166666666667,32.51396825396826,1338.8333333333333,32.0831746031746,1341.25,31.652380952380945C1343.6666666666667,31.22158730158729,1346.0833333333333,30.790793650793653,1348.5,30.360000000000003C1350.9166666666667,29.929206349206353,1353.3333333333333,29.49841269841271,1355.75,29.067619047619058C1358.1666666666667,28.636825396825405,1360.5833333333333,28.206031746031744,1363,27.77523809523809C1365.4166666666667,27.344444444444438,1367.8333333333333,26.9136507936508,1370.25,26.482857142857146C1372.6666666666667,26.052063492063493,1375.0833333333333,25.621269841269832,1377.5,25.19047619047618C1379.9166666666667,24.759682539682526,1382.3333333333333,24.328888888888883,1384.75,23.898095238095234C1387.1666666666667,23.467301587301584,1389.5833333333333,23.03650793650794,1392,22.605714285714292C1394.4166666666667,22.174920634920642,1396.8333333333333,21.74412698412699,1399.25,21.313333333333336C1401.6666666666667,20.882539682539683,1404.0833333333333,20.451746031746033,1406.5,20.02095238095238C1408.9166666666667,19.590158730158727,1411.3333333333333,19.159365079365074,1413.75,18.728571428571424C1416.1666666666667,18.297777777777775,1418.5833333333333,17.86698412698413,1421,17.43619047619048C1423.4166666666667,17.00539682539683,1425.8333333333333,16.574603174603176,1428.25,16.143809523809523C1430.6666666666667,15.713015873015872,1433.0833333333333,15.28222222222222,1435.5,14.851428571428569C1437.9166666666667,14.420634920634917,1440.3333333333333,13.989841269841262,1442.75,13.559047619047613C1445.1666666666667,13.128253968253963,1447.5833333333333,12.697460317460315,1450,12.26666666666667" fill="transparent" stroke-linecap="round" stroke="#E7C6DF" stroke-width="2"></path><g class="visx-group visx-axis visx-axis-bottom" transform="translate(0, 115)"><g class="visx-group visx-axis-tick" transform="translate(0, 0)"><line class="visx-line" x1="0" y1="0" x2="0" y2="8" fill="transparent" shape-rendering="crispEdges" stroke="#000" stroke-width="0" stroke-linecap="square"></line><svg x="0" y="0" font-size="10" style="overflow:visible"><text transform="" x="0" y="18" fill="#000" font-size="10" text-anchor="middle"><tspan x="0" dy="0em">0%</tspan></text></svg></g><g class="visx-group visx-axis-tick" transform="translate(0, 0)"><line class="visx-line" x1="362.5" y1="0" x2="362.5" y2="8" fill="transparent" shape-rendering="crispEdges" stroke="#000" stroke-width="0" stroke-linecap="square"></line><svg x="0" y="0" font-size="10" style="overflow:visible"><text transform="" x="362.5" y="18" fill="#000" font-size="10" text-anchor="middle"><tspan x="362.5" dy="0em">25%</tspan></text></svg></g><g class="visx-group visx-axis-tick" transform="translate(0, 0)"><line class="visx-line" x1="725" y1="0" x2="725" y2="8" fill="transparent" shape-rendering="crispEdges" stroke="#000" stroke-width="0" stroke-linecap="square"></line><svg x="0" y="0" font-size="10" style="overflow:visible"><text transform="" x="725" y="18" fill="#000" font-size="10" text-anchor="middle"><tspan x="725" dy="0em">50%</tspan></text></svg></g><g class="visx-group visx-axis-tick" transform="translate(0, 0)"><line class="visx-line" x1="1087.5" y1="0" x2="1087.5" y2="8" fill="transparent" shape-rendering="crispEdges" stroke="#000" stroke-width="0" stroke-linecap="square"></line><svg x="0" y="0" font-size="10" style="overflow:visible"><text transform="" x="1087.5" y="18" fill="#000" font-size="10" text-anchor="middle"><tspan x="1087.5" dy="0em">75%</tspan></text></svg></g><g class="visx-group visx-axis-tick" transform="translate(0, 0)"><line class="visx-line" x1="1450" y1="0" x2="1450" y2="8" fill="transparent" shape-rendering="crispEdges" stroke="#000" stroke-width="0" stroke-linecap="square"></line><svg x="0" y="0" font-size="10" style="overflow:visible"><text transform="" x="1450" y="18" fill="#000" font-size="10" text-anchor="middle"><tspan x="1450" dy="0em">100%</tspan></text></svg></g><line class="visx-line visx-axis-line" x1="0.5" y1="0" x2="1450.5" y2="0" fill="transparent" shape-rendering="crispEdges" stroke="#222" stroke-width="0"></line></g><g class="visx-group visx-axis visx-axis-left" transform="translate(0, 0)"><g class="visx-group visx-axis-tick" transform="translate(0, 0)"><line class="visx-line" x1="0" y1="115" x2="-8" y2="115" fill="transparent" shape-rendering="crispEdges" stroke="#222" stroke-width="0" stroke-linecap="square"></line><svg x="-30" y="0" font-size="8" style="overflow:visible"><text transform="" x="-8" y="115" fill="#000" font-size="8" text-anchor="start"><tspan x="-8" dy="0em">0%</tspan></text></svg></g><g class="visx-group visx-axis-tick" transform="translate(0, 0)"><line class="visx-line" x1="0" y1="38.333333333333336" x2="-8" y2="38.333333333333336" fill="transparent" shape-rendering="crispEdges" stroke="#222" stroke-width="0" stroke-linecap="square"></line><svg x="-30" y="0" font-size="8" style="overflow:visible"><text transform="" x="-8" y="38.333333333333336" fill="#000" font-size="8" text-anchor="start"><tspan x="-8" dy="0em">200%</tspan></text></svg></g><line class="visx-line visx-axis-line" x1="0" y1="115.5" x2="0" y2="0.5" fill="transparent" shape-rendering="crispEdges" stroke="#222" stroke-width="0"></line></g><rect class="visx-bar" width="1450" height="115" fill="transparent"></rect><line class="visx-line" x1="942.5" y1="28" x2="942.5" y2="115" fill="transparent" shape-rendering="crispEdges" stroke="#0062D2" stroke-width="1" pointer-events="none" stroke-dasharray="5,2"></line><svg x="0" y="0" font-size="10px" style="overflow:visible"><text transform="" x="942.5" y="20" font-size="10px" fill="#fff" stroke="#fff" stroke-width="0.8em" text-anchor="middle"><tspan x="942.5" dy="0.355em">Optimal 65%</tspan></text></svg><svg x="0" y="0" font-size="10px" style="overflow:visible"><text transform="" x="942.5" y="20" font-size="10px" fill="#62677B" text-anchor="middle"><tspan x="942.5" dy="0.355em">Optimal 65%</tspan></text></svg></g></svg>