<?xml version="1.0"?><svg xmlns="http://www.w3.org/2000/svg" xmlns:xlink= "http://www.w3.org/1999/xlink" style="background: white;" width="1500" height="185"> <g style="color: black; font-size: 13px; font-family: sans-serif; transform: translate(18px, 25px);"><g><circle r="3" cx="-6" cy="-5" style="fill: #B6509E" /><text>Borrow APR, variable</text></g><g style="transform: translateX(150px);"><circle r="3" cx="-6" cy="-5" style="fill: rgb(231, 198, 223)" /><text>Borrow APR, stable</text></g><g style="transform: translateX(290px);"><circle r="3" cx="-6" cy="-5" style="fill: rgb(0, 98, 210)" /><text>Utilization Rate</text></g></g><g class="visx-group" transform="translate(40, 50)"><g class="visx-group visx-rows" transform="translate(0, 0)"><line class="visx-line" x1="0" y1="115" x2="1450" y2="115" fill="transparent" shape-rendering="crispEdges" stroke="#000" stroke-width="1" stroke-dasharray="3,3" pointer-events="none"></line><line class="visx-line" x1="0" y1="57.5" x2="1450" y2="57.5" fill="transparent" shape-rendering="crispEdges" stroke="#000" stroke-width="1" stroke-dasharray="3,3" pointer-events="none"></line><line class="visx-line" x1="0" y1="0" x2="1450" y2="0" fill="transparent" shape-rendering="crispEdges" stroke="#000" stroke-width="1" stroke-dasharray="3,3" pointer-events="none"></line></g><path class="visx-linepath" d="M0,114.99999999992814C2.4166666666666665,114.98802083329142,4.833333333333334,114.97604166665468,7.25,114.9640625C9.666666666666666,114.95208333334531,12.083333333333334,114.94010416666667,14.5,114.92812500000001C16.916666666666668,114.91614583333335,19.333333333333332,114.90416666666665,21.75,114.89218749999999C24.166666666666668,114.88020833333333,26.583333333333332,114.86822916666667,29,114.85625C31.416666666666668,114.84427083333334,33.833333333333336,114.83229166666666,36.25,114.8203125C38.666666666666664,114.80833333333334,41.083333333333336,114.79635416666667,43.5,114.78437500000001C45.91666666666667,114.77239583333335,48.333333333333336,114.76041666666666,50.75000000000001,114.7484375C53.16666666666667,114.73645833333333,55.583333333333336,114.72447916666667,58,114.7125C60.416666666666664,114.70052083333334,62.833333333333336,114.68854166666667,65.25,114.6765625C67.66666666666667,114.66458333333334,70.08333333333333,114.65260416666666,72.5,114.640625C74.91666666666667,114.62864583333334,77.33333333333333,114.61666666666666,79.75,114.6046875C82.16666666666667,114.59270833333333,84.58333333333333,114.58072916666666,87,114.56875C89.41666666666667,114.55677083333333,91.83333333333333,114.54479166666667,94.25,114.5328125C96.66666666666667,114.52083333333334,99.08333333333334,114.50885416666667,101.50000000000001,114.496875C103.91666666666667,114.48489583333334,106.33333333333334,114.47291666666666,108.75,114.4609375C111.16666666666667,114.44895833333334,113.58333333333333,114.43697916666666,116,114.425C118.41666666666667,114.41302083333333,120.83333333333334,114.40104166666666,123.25000000000001,114.3890625C125.66666666666667,114.37708333333333,128.08333333333334,114.36510416666667,130.5,114.353125C132.91666666666666,114.34114583333334,135.33333333333334,114.32916666666665,137.75,114.31718749999999C140.16666666666666,114.30520833333333,142.58333333333334,114.29322916666666,145,114.28125C147.41666666666666,114.26927083333334,149.83333333333334,114.25729166666666,152.25,114.2453125C154.66666666666666,114.23333333333333,157.08333333333334,114.22135416666667,159.5,114.20937500000001C161.91666666666666,114.19739583333335,164.33333333333334,114.18541666666665,166.75,114.17343749999999C169.16666666666666,114.16145833333333,171.58333333333334,114.14947916666667,174,114.1375C176.41666666666666,114.12552083333334,178.83333333333334,114.11354166666666,181.25,114.1015625C183.66666666666666,114.08958333333334,186.08333333333334,114.07760416666666,188.5,114.065625C190.91666666666666,114.05364583333333,193.33333333333334,114.04166666666667,195.75,114.02968750000001C198.16666666666669,114.01770833333335,200.58333333333334,114.00572916666665,203.00000000000003,113.99374999999999C205.41666666666669,113.98177083333333,207.83333333333331,113.96979166666667,210.24999999999997,113.9578125C212.66666666666666,113.94583333333334,215.08333333333331,113.93385416666666,217.5,113.921875C219.91666666666666,113.90989583333334,222.33333333333334,113.89791666666667,224.75,113.88593750000001C227.16666666666666,113.87395833333335,229.58333333333334,113.86197916666666,232,113.85C234.41666666666666,113.83802083333333,236.83333333333334,113.82604166666667,239.25,113.8140625C241.66666666666669,113.80208333333334,244.08333333333334,113.79010416666667,246.50000000000003,113.778125C248.91666666666669,113.76614583333334,251.33333333333331,113.75416666666666,253.74999999999997,113.7421875C256.16666666666663,113.73020833333334,258.5833333333333,113.71822916666666,261,113.70625C263.4166666666667,113.69427083333333,265.8333333333333,113.68229166666666,268.25,113.6703125C270.6666666666667,113.65833333333333,273.0833333333333,113.64635416666667,275.5,113.634375C277.9166666666667,113.62239583333334,280.3333333333333,113.61041666666667,282.75,113.5984375C285.1666666666667,113.58645833333334,287.5833333333333,113.57447916666666,290,113.5625C292.4166666666667,113.55052083333334,294.8333333333333,113.53854166666666,297.25,113.5265625C299.6666666666667,113.51458333333333,302.0833333333333,113.50260416666666,304.5,113.490625C306.9166666666667,113.47864583333333,309.3333333333333,113.46666666666667,311.75,113.4546875C314.1666666666667,113.44270833333334,316.5833333333333,113.43072916666665,319,113.41874999999999C321.4166666666667,113.40677083333333,323.8333333333333,113.39479166666666,326.25,113.3828125C328.6666666666667,113.37083333333334,331.0833333333333,113.35885416666666,333.5,113.346875C335.9166666666667,113.33489583333333,338.3333333333333,113.32291666666667,340.75,113.31093750000001C343.1666666666667,113.29895833333335,345.5833333333333,113.28697916666665,348,113.27499999999999C350.4166666666667,113.26302083333333,352.8333333333333,113.25104166666667,355.25,113.2390625C357.6666666666667,113.22708333333334,360.0833333333333,113.21510416666666,362.5,113.203125C364.9166666666667,113.19114583333334,367.3333333333333,113.17916666666666,369.75,113.1671875C372.1666666666667,113.15520833333333,374.5833333333333,113.14322916666667,377,113.13125000000001C379.4166666666667,113.11927083333335,381.8333333333333,113.10729166666665,384.25,113.09531249999999C386.6666666666667,113.08333333333333,389.0833333333333,113.07135416666667,391.5,113.059375C393.9166666666667,113.04739583333334,396.33333333333337,113.03541666666666,398.75000000000006,113.0234375C401.16666666666674,113.01145833333334,403.58333333333337,112.99947916666667,406.00000000000006,112.98750000000001C408.4166666666667,112.97552083333335,410.8333333333333,112.96354166666666,413.24999999999994,112.9515625C415.66666666666663,112.93958333333333,418.08333333333326,112.92760416666667,420.49999999999994,112.915625C422.91666666666663,112.90364583333334,425.3333333333333,112.89166666666667,427.75,112.8796875C430.1666666666667,112.86770833333334,432.5833333333333,112.85572916666666,435,112.84375C437.4166666666667,112.83177083333334,439.8333333333333,112.81979166666666,442.25,112.8078125C444.6666666666667,112.79583333333333,447.0833333333333,112.78385416666666,449.5,112.771875C451.9166666666667,112.75989583333333,454.3333333333333,112.74791666666667,456.75,112.7359375C459.1666666666667,112.72395833333334,461.5833333333333,112.71197916666667,464,112.7C466.4166666666667,112.68802083333334,468.8333333333333,112.67604166666666,471.25,112.6640625C473.6666666666667,112.65208333333334,476.0833333333333,112.64010416666666,478.5,112.628125C480.9166666666667,112.61614583333333,483.33333333333337,112.60416666666666,485.75000000000006,112.5921875C488.16666666666674,112.58020833333333,490.58333333333337,112.56822916666667,493.00000000000006,112.55625C495.4166666666667,112.54427083333334,497.8333333333333,112.53229166666665,500.24999999999994,112.52031249999999C502.66666666666663,112.50833333333333,505.08333333333326,112.49635416666666,507.49999999999994,112.484375C509.91666666666663,112.47239583333334,512.3333333333333,112.46041666666666,514.75,112.4484375C517.1666666666666,112.43645833333333,519.5833333333334,112.42447916666667,522,112.41250000000001C524.4166666666666,112.40052083333335,526.8333333333334,112.38854166666665,529.25,112.37656249999999C531.6666666666666,112.36458333333333,534.0833333333334,112.35260416666667,536.5,112.340625C538.9166666666666,112.32864583333334,541.3333333333334,112.31666666666666,543.75,112.3046875C546.1666666666666,112.29270833333334,548.5833333333334,112.28072916666666,551,112.26875C553.4166666666666,112.25677083333333,555.8333333333334,112.24479166666667,558.25,112.23281250000001C560.6666666666666,112.22083333333335,563.0833333333334,112.20885416666665,565.5,112.19687499999999C567.9166666666666,112.18489583333333,570.3333333333334,112.17291666666667,572.75,112.1609375C575.1666666666666,112.14895833333334,577.5833333333334,112.13697916666666,580,112.125C582.4166666666666,112.11302083333334,584.8333333333334,112.10104166666667,587.25,112.08906250000001C589.6666666666666,112.07708333333335,592.0833333333334,112.06510416666666,594.5,112.053125C596.9166666666666,112.04114583333333,599.3333333333334,112.02916666666667,601.75,112.0171875C604.1666666666666,112.00520833333334,606.5833333333334,111.99322916666667,609,111.98125C611.4166666666666,111.96927083333334,613.8333333333334,111.95729166666666,616.25,111.9453125C618.6666666666666,111.93333333333334,621.0833333333334,111.92135416666666,623.5,111.909375C625.9166666666666,111.89739583333333,628.3333333333334,111.88541666666666,630.75,111.8734375C633.1666666666666,111.86145833333333,635.5833333333334,111.84947916666667,638,111.8375C640.4166666666666,111.82552083333334,642.8333333333334,111.81354166666667,645.25,111.8015625C647.6666666666666,111.78958333333334,650.0833333333334,111.77760416666666,652.5,111.765625C654.9166666666666,111.75364583333334,657.3333333333334,111.74166666666666,659.75,111.7296875C662.1666666666666,111.71770833333333,664.5833333333334,111.70572916666666,667,111.69375C669.4166666666666,111.68177083333333,671.8333333333334,111.66979166666667,674.25,111.6578125C676.6666666666666,111.64583333333334,679.0833333333334,111.63385416666665,681.5,111.62187499999999C683.9166666666666,111.60989583333333,686.3333333333334,111.59791666666666,688.75,111.5859375C691.1666666666666,111.57395833333334,693.5833333333334,111.56197916666666,696,111.55C698.4166666666666,111.53802083333333,700.8333333333334,111.52604166666667,703.25,111.51406250000001C705.6666666666666,111.50208333333335,708.0833333333334,111.49010416666665,710.5,111.47812499999999C712.9166666666666,111.46614583333333,715.3333333333334,111.45416666666667,717.75,111.4421875C720.1666666666666,111.43020833333334,722.5833333333334,111.41822916666666,725,111.40625C727.4166666666666,111.39427083333334,729.8333333333334,111.38229166666666,732.25,111.3703125C734.6666666666666,111.35833333333333,737.0833333333334,111.34635416666667,739.5,111.33437500000001C741.9166666666666,111.32239583333335,744.3333333333334,111.31041666666665,746.75,111.29843749999999C749.1666666666666,111.28645833333333,751.5833333333334,111.27447916666667,754,111.2625C756.4166666666666,111.25052083333334,758.8333333333334,111.23854166666666,761.25,111.2265625C763.6666666666666,111.21458333333334,766.0833333333334,111.20260416666667,768.5,111.19062500000001C770.9166666666666,111.17864583333335,773.3333333333334,111.16666666666666,775.75,111.1546875C778.1666666666666,111.14270833333333,780.5833333333334,111.13072916666667,783,111.11875C785.4166666666667,111.10677083333334,787.8333333333334,111.09479166666667,790.2500000000001,111.0828125C792.6666666666667,111.07083333333334,795.0833333333335,111.05885416666666,797.5000000000001,111.046875C799.9166666666667,111.03489583333334,802.3333333333335,111.02291666666666,804.7500000000001,111.0109375C807.1666666666667,110.99895833333333,809.5833333333335,110.98697916666666,812.0000000000001,110.975C814.4166666666667,110.96302083333333,816.8333333333333,110.95104166666667,819.2499999999999,110.9390625C821.6666666666665,110.92708333333334,824.0833333333333,110.91510416666667,826.4999999999999,110.903125C828.9166666666665,110.89114583333334,831.3333333333333,110.87916666666666,833.7499999999999,110.8671875C836.1666666666665,110.85520833333334,838.5833333333333,110.84322916666666,840.9999999999999,110.83125C843.4166666666666,110.81927083333333,845.8333333333333,110.80729166666666,848.25,110.7953125C850.6666666666666,110.78333333333333,853.0833333333334,110.77135416666667,855.5,110.759375C857.9166666666666,110.74739583333334,860.3333333333334,110.73541666666665,862.75,110.72343749999999C865.1666666666666,110.71145833333333,867.5833333333334,110.69947916666666,870,110.6875C872.4166666666666,110.67552083333334,874.8333333333334,110.66354166666666,877.25,110.6515625C879.6666666666666,110.63958333333333,882.0833333333334,110.62760416666667,884.5,110.61562500000001C886.9166666666666,110.60364583333335,889.3333333333334,110.59166666666665,891.75,110.57968749999999C894.1666666666666,110.56770833333333,896.5833333333334,110.55572916666667,899,110.54375C901.4166666666666,110.53177083333334,903.8333333333334,110.51979166666666,906.25,110.5078125C908.6666666666666,110.49583333333334,911.0833333333334,110.48385416666666,913.5,110.471875C915.9166666666666,110.45989583333333,918.3333333333334,110.44791666666667,920.75,110.43593750000001C923.1666666666666,110.42395833333335,925.5833333333334,110.41197916666665,928,110.39999999999999C930.4166666666666,110.38802083333333,932.8333333333334,110.37604166666667,935.25,110.3640625C937.6666666666666,110.35208333333334,940.0833333333334,110.34010416666666,942.5,110.328125C944.9166666666666,110.31614583333334,947.3333333333334,110.30416666666667,949.75,110.29218750000001C952.1666666666666,110.28020833333335,954.5833333333334,110.26822916666666,957,110.25625C959.4166666666666,110.24427083333333,961.8333333333334,110.23229166666667,964.25,110.2203125C966.6666666666667,110.20833333333334,969.0833333333334,110.19635416666667,971.5000000000001,110.184375C973.9166666666667,110.17239583333334,976.3333333333335,110.16041666666666,978.7500000000001,110.1484375C981.1666666666667,110.13645833333334,983.5833333333335,110.12447916666666,986.0000000000001,110.1125C988.4166666666667,110.10052083333333,990.8333333333335,110.08854166666666,993.2500000000001,110.0765625C995.6666666666667,110.06458333333333,998.0833333333333,110.05260416666667,1000.4999999999999,110.040625C1002.9166666666665,110.02864583333334,1005.3333333333333,110.01666666666667,1007.7499999999999,110.0046875C1010.1666666666665,109.99270833333334,1012.5833333333333,109.98072916666666,1014.9999999999999,109.96875C1017.4166666666665,109.95677083333334,1019.8333333333333,109.94479166666666,1022.2499999999999,109.9328125C1024.6666666666665,109.92083333333333,1027.0833333333333,109.90885416666666,1029.5,109.896875C1031.9166666666667,109.88489583333333,1034.3333333333333,109.87291666666667,1036.75,109.8609375C1039.1666666666667,109.84895833333334,1041.5833333333333,109.83697916666665,1044,109.82499999999999C1046.4166666666667,109.81302083333333,1048.8333333333333,109.80104166666666,1051.25,109.7890625C1053.6666666666667,109.77708333333334,1056.0833333333333,109.76510416666666,1058.5,109.753125C1060.9166666666667,109.74114583333333,1063.3333333333333,109.72916666666667,1065.75,109.71718750000001C1068.1666666666667,109.70520833333335,1070.5833333333333,109.69322916666665,1073,109.68124999999999C1075.4166666666667,109.66927083333333,1077.8333333333333,109.65729166666667,1080.25,109.6453125C1082.6666666666667,109.63333333333334,1085.0833333333333,109.62135416666666,1087.5,109.609375C1089.9166666666667,109.59739583333334,1092.3333333333333,109.58541666666666,1094.75,109.5734375C1097.1666666666667,109.56145833333333,1099.5833333333333,109.54947916666667,1102,109.53750000000001C1104.4166666666667,109.52552083333335,1106.8333333333333,109.51354166666665,1109.25,109.50156249999999C1111.6666666666667,109.48958333333333,1114.0833333333333,109.47760416666667,1116.5,109.465625C1118.9166666666667,109.45364583333334,1121.3333333333333,109.44166666666666,1123.75,109.4296875C1126.1666666666667,109.41770833333334,1128.5833333333333,109.40572916666667,1131,109.39375000000001C1133.4166666666667,109.38177083333335,1135.8333333333333,109.36979166666666,1138.25,109.3578125C1140.6666666666667,109.34583333333333,1143.0833333333333,109.33385416666667,1145.5,109.321875C1147.9166666666667,109.30989583333334,1150.3333333333333,109.29791666666667,1152.75,109.2859375C1155.1666666666667,109.27395833333334,1157.5833333333333,109.27395833333334,1160,109.25C1162.4166666666667,109.22604166666666,1164.8333333333333,107.8125,1167.25,107.09375C1169.6666666666667,106.375,1172.0833333333333,105.65625,1174.5,104.9375C1176.9166666666667,104.21875,1179.3333333333333,103.5,1181.75,102.78125C1184.1666666666667,102.0625,1186.5833333333333,101.34375,1189,100.625C1191.4166666666667,99.90625,1193.8333333333333,99.1875,1196.25,98.46875C1198.6666666666667,97.75,1201.0833333333333,97.03125,1203.5,96.3125C1205.9166666666667,95.59375,1208.3333333333333,94.875,1210.75,94.15625C1213.1666666666667,93.4375,1215.5833333333333,92.71875,1218,92C1220.4166666666667,91.28125,1222.8333333333333,90.5625,1225.25,89.84375C1227.6666666666667,89.125,1230.0833333333333,88.40625,1232.5,87.6875C1234.9166666666667,86.96875,1237.3333333333333,86.25,1239.75,85.53125C1242.1666666666667,84.8125,1244.5833333333333,84.09375,1247,83.375C1249.4166666666667,82.65625,1251.8333333333333,81.9375,1254.25,81.21875C1256.6666666666667,80.5,1259.0833333333333,79.78125,1261.5,79.0625C1263.9166666666667,78.34375,1266.3333333333333,77.625,1268.75,76.90625C1271.1666666666667,76.1875,1273.5833333333333,75.46875,1276,74.75C1278.4166666666667,74.03125,1280.8333333333333,73.3125,1283.25,72.59375C1285.6666666666667,71.875,1288.0833333333333,71.15625,1290.5,70.4375C1292.9166666666667,69.71875,1295.3333333333333,69,1297.75,68.28125C1300.1666666666667,67.5625,1302.5833333333333,66.84375,1305,66.125C1307.4166666666667,65.40625,1309.8333333333333,64.6875,1312.25,63.96875C1314.6666666666667,63.25,1317.0833333333333,62.53125,1319.5,61.8125C1321.9166666666667,61.09375,1324.3333333333333,60.37500000000001,1326.75,59.65625000000001C1329.1666666666667,58.93750000000001,1331.5833333333333,58.21875,1334,57.5C1336.4166666666667,56.78125,1338.8333333333333,56.06249999999999,1341.25,55.34374999999999C1343.6666666666667,54.62499999999999,1346.0833333333333,53.90625,1348.5,53.1875C1350.9166666666667,52.46875,1353.3333333333333,51.75,1355.75,51.03125C1358.1666666666667,50.3125,1360.5833333333333,49.59375000000001,1363,48.87500000000001C1365.4166666666667,48.15625000000001,1367.8333333333333,47.4375,1370.25,46.71875C1372.6666666666667,46,1375.0833333333333,45.28124999999999,1377.5,44.56249999999999C1379.9166666666667,43.84374999999999,1382.3333333333333,43.125,1384.75,42.40625C1387.1666666666667,41.6875,1389.5833333333333,40.96875,1392,40.25C1394.4166666666667,39.53125,1396.8333333333333,38.81250000000001,1399.25,38.09375000000001C1401.6666666666667,37.37500000000001,1404.0833333333333,36.65625,1406.5,35.9375C1408.9166666666667,35.21875,1411.3333333333333,34.49999999999999,1413.75,33.78124999999999C1416.1666666666667,33.06249999999999,1418.5833333333333,32.34375,1421,31.625000000000004C1423.4166666666667,30.906250000000004,1425.8333333333333,30.187499999999996,1428.25,29.468749999999996C1430.6666666666667,28.749999999999996,1433.0833333333333,28.031250000000004,1435.5,27.312500000000004C1437.9166666666667,26.593750000000004,1440.3333333333333,25.875,1442.75,25.15625C1445.1666666666667,24.4375,1447.5833333333333,23.718749999999996,1450,22.999999999999996" fill="transparent" stroke-linecap="round" stroke="#B6509E" stroke-width="2"></path><path class="visx-linepath" d="M0,103.49999999997125C2.4166666666666665,103.49520833331655,4.833333333333334,103.49041666666187,7.25,103.485625C9.666666666666666,103.48083333333813,12.083333333333334,103.47604166666667,14.5,103.47125000000001C16.916666666666668,103.46645833333335,19.333333333333332,103.46166666666667,21.75,103.456875C24.166666666666668,103.45208333333332,26.583333333333332,103.44729166666666,29,103.4425C31.416666666666668,103.43770833333333,33.833333333333336,103.43291666666667,36.25,103.42812500000001C38.666666666666664,103.42333333333335,41.083333333333336,103.41854166666666,43.5,103.41375C45.91666666666667,103.40895833333332,48.333333333333336,103.40416666666665,50.75000000000001,103.39937499999999C53.16666666666667,103.39458333333333,55.583333333333336,103.38979166666667,58,103.385C60.416666666666664,103.38020833333334,62.833333333333336,103.37541666666667,65.25,103.370625C67.66666666666667,103.36583333333334,70.08333333333333,103.36104166666665,72.5,103.35624999999999C74.91666666666667,103.35145833333333,77.33333333333333,103.34666666666666,79.75,103.341875C82.16666666666667,103.33708333333334,84.58333333333333,103.33229166666666,87,103.3275C89.41666666666667,103.32270833333334,91.83333333333333,103.31791666666666,94.25,103.313125C96.66666666666667,103.30833333333334,99.08333333333334,103.30354166666666,101.50000000000001,103.29875C103.91666666666667,103.29395833333334,106.33333333333334,103.28916666666667,108.75,103.28437500000001C111.16666666666667,103.27958333333335,113.58333333333333,103.27479166666666,116,103.27C118.41666666666667,103.26520833333332,120.83333333333334,103.26041666666666,123.25000000000001,103.255625C125.66666666666667,103.25083333333333,128.08333333333334,103.24604166666667,130.5,103.24125000000001C132.91666666666666,103.23645833333335,135.33333333333334,103.23166666666668,137.75,103.226875C140.16666666666666,103.22208333333333,142.58333333333334,103.21729166666665,145,103.21249999999999C147.41666666666666,103.20770833333333,149.83333333333334,103.20291666666667,152.25,103.198125C154.66666666666666,103.19333333333334,157.08333333333334,103.18854166666668,159.5,103.18375C161.91666666666666,103.17895833333333,164.33333333333334,103.17416666666665,166.75,103.16937499999999C169.16666666666666,103.16458333333333,171.58333333333334,103.15979166666666,174,103.155C176.41666666666666,103.15020833333334,178.83333333333334,103.14541666666666,181.25,103.140625C183.66666666666666,103.13583333333334,186.08333333333334,103.13104166666666,188.5,103.12625C190.91666666666666,103.12145833333334,193.33333333333334,103.11666666666666,195.75,103.111875C198.16666666666669,103.10708333333334,200.58333333333334,103.10229166666666,203.00000000000003,103.0975C205.41666666666669,103.09270833333333,207.83333333333331,103.08791666666667,210.24999999999997,103.08312500000001C212.66666666666666,103.07833333333335,215.08333333333331,103.07354166666666,217.5,103.06875C219.91666666666666,103.06395833333333,222.33333333333334,103.05916666666667,224.75,103.05437500000001C227.16666666666666,103.04958333333335,229.58333333333334,103.04479166666667,232,103.04C234.41666666666666,103.03520833333334,236.83333333333334,103.03041666666665,239.25,103.02562499999999C241.66666666666669,103.02083333333333,244.08333333333334,103.01604166666667,246.50000000000003,103.01125C248.91666666666669,103.00645833333334,251.33333333333331,103.00166666666667,253.74999999999997,102.996875C256.16666666666663,102.99208333333334,258.5833333333333,102.98729166666666,261,102.9825C263.4166666666667,102.97770833333334,265.8333333333333,102.97291666666666,268.25,102.968125C270.6666666666667,102.96333333333334,273.0833333333333,102.95854166666666,275.5,102.95375C277.9166666666667,102.94895833333334,280.3333333333333,102.94416666666666,282.75,102.939375C285.1666666666667,102.93458333333334,287.5833333333333,102.92979166666666,290,102.925C292.4166666666667,102.92020833333333,294.8333333333333,102.91541666666666,297.25,102.910625C299.6666666666667,102.90583333333333,302.0833333333333,102.90104166666666,304.5,102.89625C306.9166666666667,102.89145833333333,309.3333333333333,102.88666666666666,311.75,102.881875C314.1666666666667,102.87708333333333,316.5833333333333,102.87229166666667,319,102.8675C321.4166666666667,102.86270833333334,323.8333333333333,102.85791666666667,326.25,102.853125C328.6666666666667,102.84833333333334,331.0833333333333,102.84354166666667,333.5,102.83875C335.9166666666667,102.83395833333334,338.3333333333333,102.82916666666667,340.75,102.824375C343.1666666666667,102.81958333333334,345.5833333333333,102.81479166666666,348,102.81C350.4166666666667,102.80520833333334,352.8333333333333,102.80041666666666,355.25,102.795625C357.6666666666667,102.79083333333334,360.0833333333333,102.78604166666666,362.5,102.78125C364.9166666666667,102.77645833333334,367.3333333333333,102.77166666666666,369.75,102.766875C372.1666666666667,102.76208333333334,374.5833333333333,102.75729166666666,377,102.7525C379.4166666666667,102.74770833333334,381.8333333333333,102.74291666666666,384.25,102.738125C386.6666666666667,102.73333333333333,389.0833333333333,102.72854166666666,391.5,102.72375C393.9166666666667,102.71895833333333,396.33333333333337,102.71416666666666,398.75000000000006,102.709375C401.16666666666674,102.70458333333333,403.58333333333337,102.69979166666667,406.00000000000006,102.69500000000001C408.4166666666667,102.69020833333335,410.8333333333333,102.68541666666665,413.24999999999994,102.68062499999999C415.66666666666663,102.67583333333333,418.08333333333326,102.67104166666667,420.49999999999994,102.66625C422.91666666666663,102.66145833333334,425.3333333333333,102.65666666666668,427.75,102.651875C430.1666666666667,102.64708333333334,432.5833333333333,102.64229166666665,435,102.63749999999999C437.4166666666667,102.63270833333333,439.8333333333333,102.62791666666666,442.25,102.623125C444.6666666666667,102.61833333333334,447.0833333333333,102.61354166666666,449.5,102.60875C451.9166666666667,102.60395833333334,454.3333333333333,102.59916666666668,456.75,102.59437500000001C459.1666666666667,102.58958333333335,461.5833333333333,102.58479166666666,464,102.58C466.4166666666667,102.57520833333334,468.8333333333333,102.57041666666666,471.25,102.565625C473.6666666666667,102.56083333333333,476.0833333333333,102.55604166666667,478.5,102.55125000000001C480.9166666666667,102.54645833333335,483.33333333333337,102.54166666666667,485.75000000000006,102.536875C488.16666666666674,102.53208333333333,490.58333333333337,102.52729166666666,493.00000000000006,102.5225C495.4166666666667,102.51770833333333,497.8333333333333,102.51291666666667,500.24999999999994,102.508125C502.66666666666663,102.50333333333334,505.08333333333326,102.49854166666665,507.49999999999994,102.49374999999999C509.91666666666663,102.48895833333331,512.3333333333333,102.48416666666665,514.75,102.47937499999999C517.1666666666666,102.47458333333333,519.5833333333334,102.46979166666667,522,102.465C524.4166666666666,102.46020833333334,526.8333333333334,102.45541666666668,529.25,102.450625C531.6666666666666,102.44583333333333,534.0833333333334,102.44104166666665,536.5,102.43624999999999C538.9166666666666,102.43145833333332,541.3333333333334,102.42666666666666,543.75,102.421875C546.1666666666666,102.41708333333334,548.5833333333334,102.41229166666668,551,102.40750000000001C553.4166666666666,102.40270833333335,555.8333333333334,102.39791666666667,558.25,102.393125C560.6666666666666,102.38833333333332,563.0833333333334,102.38354166666666,565.5,102.37875C567.9166666666666,102.37395833333333,570.3333333333334,102.36916666666667,572.75,102.36437500000001C575.1666666666666,102.35958333333335,577.5833333333334,102.35479166666667,580,102.35000000000001C582.4166666666666,102.34520833333335,584.8333333333334,102.34041666666666,587.25,102.335625C589.6666666666666,102.33083333333333,592.0833333333334,102.32604166666667,594.5,102.32125C596.9166666666666,102.31645833333334,599.3333333333334,102.31166666666667,601.75,102.306875C604.1666666666666,102.30208333333334,606.5833333333334,102.29729166666665,609,102.29249999999999C611.4166666666666,102.28770833333333,613.8333333333334,102.28291666666667,616.25,102.278125C618.6666666666666,102.27333333333334,621.0833333333334,102.26854166666666,623.5,102.26375C625.9166666666666,102.25895833333334,628.3333333333334,102.25416666666665,630.75,102.24937499999999C633.1666666666666,102.24458333333332,635.5833333333334,102.23979166666666,638,102.235C640.4166666666666,102.23020833333334,642.8333333333334,102.22541666666666,645.25,102.220625C647.6666666666666,102.21583333333334,650.0833333333334,102.21104166666667,652.5,102.20625000000001C654.9166666666666,102.20145833333335,657.3333333333334,102.19666666666666,659.75,102.191875C662.1666666666666,102.18708333333333,664.5833333333334,102.18229166666666,667,102.1775C669.4166666666666,102.17270833333333,671.8333333333334,102.16791666666667,674.25,102.16312500000001C676.6666666666666,102.15833333333335,679.0833333333334,102.15354166666665,681.5,102.14874999999999C683.9166666666666,102.14395833333333,686.3333333333334,102.13916666666667,688.75,102.134375C691.1666666666666,102.12958333333334,693.5833333333334,102.12479166666667,696,102.12C698.4166666666666,102.11520833333334,700.8333333333334,102.11041666666667,703.25,102.105625C705.6666666666666,102.10083333333334,708.0833333333334,102.09604166666666,710.5,102.09125C712.9166666666666,102.08645833333334,715.3333333333334,102.08166666666666,717.75,102.076875C720.1666666666666,102.07208333333334,722.5833333333334,102.06729166666666,725,102.0625C727.4166666666666,102.05770833333334,729.8333333333334,102.05291666666666,732.25,102.048125C734.6666666666666,102.04333333333334,737.0833333333334,102.03854166666666,739.5,102.03375C741.9166666666666,102.02895833333334,744.3333333333334,102.02416666666666,746.75,102.019375C749.1666666666666,102.01458333333333,751.5833333333334,102.00979166666666,754,102.005C756.4166666666666,102.00020833333333,758.8333333333334,101.99541666666666,761.25,101.990625C763.6666666666666,101.98583333333333,766.0833333333334,101.98104166666666,768.5,101.97625C770.9166666666666,101.97145833333333,773.3333333333334,101.96666666666667,775.75,101.961875C778.1666666666666,101.95708333333334,780.5833333333334,101.95229166666667,783,101.9475C785.4166666666667,101.94270833333334,787.8333333333334,101.93791666666667,790.2500000000001,101.933125C792.6666666666667,101.92833333333334,795.0833333333335,101.92354166666667,797.5000000000001,101.91875C799.9166666666667,101.91395833333334,802.3333333333335,101.90916666666666,804.7500000000001,101.904375C807.1666666666667,101.89958333333334,809.5833333333335,101.89479166666666,812.0000000000001,101.89C814.4166666666667,101.88520833333334,816.8333333333333,101.88041666666666,819.2499999999999,101.875625C821.6666666666665,101.87083333333334,824.0833333333333,101.86604166666666,826.4999999999999,101.86125C828.9166666666665,101.85645833333334,831.3333333333333,101.85166666666666,833.7499999999999,101.846875C836.1666666666665,101.84208333333333,838.5833333333333,101.83729166666666,840.9999999999999,101.8325C843.4166666666666,101.82770833333333,845.8333333333333,101.82291666666667,848.25,101.81812500000001C850.6666666666666,101.81333333333335,853.0833333333334,101.80854166666666,855.5,101.80375C857.9166666666666,101.79895833333333,860.3333333333334,101.79416666666665,862.75,101.78937499999999C865.1666666666666,101.78458333333333,867.5833333333334,101.77979166666667,870,101.775C872.4166666666666,101.77020833333334,874.8333333333334,101.76541666666665,877.25,101.76062499999999C879.6666666666666,101.75583333333333,882.0833333333334,101.75104166666667,884.5,101.74625C886.9166666666666,101.74145833333334,889.3333333333334,101.73666666666666,891.75,101.731875C894.1666666666666,101.72708333333334,896.5833333333334,101.72229166666666,899,101.7175C901.4166666666666,101.71270833333334,903.8333333333334,101.70791666666666,906.25,101.703125C908.6666666666666,101.69833333333334,911.0833333333334,101.69354166666666,913.5,101.68875C915.9166666666666,101.68395833333334,918.3333333333334,101.67916666666667,920.75,101.67437500000001C923.1666666666666,101.66958333333335,925.5833333333334,101.66479166666667,928,101.66C930.4166666666666,101.65520833333332,932.8333333333334,101.65041666666666,935.25,101.645625C937.6666666666666,101.64083333333333,940.0833333333334,101.63604166666667,942.5,101.63125000000001C944.9166666666666,101.62645833333335,947.3333333333334,101.62166666666667,949.75,101.616875C952.1666666666666,101.61208333333332,954.5833333333334,101.60729166666665,957,101.60249999999999C959.4166666666666,101.59770833333333,961.8333333333334,101.59291666666667,964.25,101.588125C966.6666666666667,101.58333333333334,969.0833333333334,101.57854166666668,971.5000000000001,101.57375C973.9166666666667,101.56895833333334,976.3333333333335,101.56416666666665,978.7500000000001,101.55937499999999C981.1666666666667,101.55458333333333,983.5833333333335,101.54979166666666,986.0000000000001,101.545C988.4166666666667,101.54020833333334,990.8333333333335,101.53541666666666,993.2500000000001,101.530625C995.6666666666667,101.52583333333334,998.0833333333333,101.52104166666666,1000.4999999999999,101.51625C1002.9166666666665,101.51145833333334,1005.3333333333333,101.50666666666666,1007.7499999999999,101.501875C1010.1666666666665,101.49708333333334,1012.5833333333333,101.49229166666667,1014.9999999999999,101.48750000000001C1017.4166666666665,101.48270833333335,1019.8333333333333,101.47791666666666,1022.2499999999999,101.473125C1024.6666666666665,101.46833333333332,1027.0833333333333,101.46354166666666,1029.5,101.45875C1031.9166666666667,101.45395833333333,1034.3333333333333,101.44916666666667,1036.75,101.44437500000001C1039.1666666666667,101.43958333333335,1041.5833333333333,101.43479166666668,1044,101.43C1046.4166666666667,101.42520833333333,1048.8333333333333,101.42041666666665,1051.25,101.41562499999999C1053.6666666666667,101.41083333333333,1056.0833333333333,101.40604166666667,1058.5,101.40125C1060.9166666666667,101.39645833333334,1063.3333333333333,101.39166666666668,1065.75,101.386875C1068.1666666666667,101.38208333333333,1070.5833333333333,101.37729166666665,1073,101.37249999999999C1075.4166666666667,101.36770833333333,1077.8333333333333,101.36291666666666,1080.25,101.358125C1082.6666666666667,101.35333333333334,1085.0833333333333,101.34854166666666,1087.5,101.34375C1089.9166666666667,101.33895833333334,1092.3333333333333,101.33416666666666,1094.75,101.329375C1097.1666666666667,101.32458333333334,1099.5833333333333,101.31979166666666,1102,101.315C1104.4166666666667,101.31020833333334,1106.8333333333333,101.30541666666666,1109.25,101.300625C1111.6666666666667,101.29583333333333,1114.0833333333333,101.29104166666667,1116.5,101.28625000000001C1118.9166666666667,101.28145833333335,1121.3333333333333,101.27666666666666,1123.75,101.271875C1126.1666666666667,101.26708333333333,1128.5833333333333,101.26229166666667,1131,101.25750000000001C1133.4166666666667,101.25270833333335,1135.8333333333333,101.24791666666667,1138.25,101.243125C1140.6666666666667,101.23833333333334,1143.0833333333333,101.23354166666665,1145.5,101.22874999999999C1147.9166666666667,101.22395833333333,1150.3333333333333,101.21916666666667,1152.75,101.214375C1155.1666666666667,101.20958333333334,1157.5833333333333,101.20958333333334,1160,101.2C1162.4166666666667,101.19041666666666,1164.8333333333333,99.76249999999999,1167.25,99.04374999999999C1169.6666666666667,98.32499999999999,1172.0833333333333,97.60625,1174.5,96.8875C1176.9166666666667,96.16875,1179.3333333333333,95.45,1181.75,94.73125C1184.1666666666667,94.0125,1186.5833333333333,93.29374999999999,1189,92.57499999999999C1191.4166666666667,91.85624999999999,1193.8333333333333,91.1375,1196.25,90.41875C1198.6666666666667,89.7,1201.0833333333333,88.98124999999999,1203.5,88.26249999999999C1205.9166666666667,87.54374999999999,1208.3333333333333,86.825,1210.75,86.10625C1213.1666666666667,85.3875,1215.5833333333333,84.66875,1218,83.95C1220.4166666666667,83.23125,1222.8333333333333,82.51249999999999,1225.25,81.79374999999999C1227.6666666666667,81.07499999999999,1230.0833333333333,80.35625,1232.5,79.6375C1234.9166666666667,78.91875,1237.3333333333333,78.2,1239.75,77.48125C1242.1666666666667,76.7625,1244.5833333333333,76.04375,1247,75.325C1249.4166666666667,74.60625,1251.8333333333333,73.8875,1254.25,73.16875C1256.6666666666667,72.45,1259.0833333333333,71.73124999999999,1261.5,71.01249999999999C1263.9166666666667,70.29374999999999,1266.3333333333333,69.575,1268.75,68.85625C1271.1666666666667,68.1375,1273.5833333333333,67.41875,1276,66.7C1278.4166666666667,65.98125,1280.8333333333333,65.2625,1283.25,64.54375C1285.6666666666667,63.825,1288.0833333333333,63.106249999999996,1290.5,62.387499999999996C1292.9166666666667,61.668749999999996,1295.3333333333333,60.949999999999996,1297.75,60.231249999999996C1300.1666666666667,59.512499999999996,1302.5833333333333,58.79375,1305,58.075C1307.4166666666667,57.35625,1309.8333333333333,56.637499999999996,1312.25,55.918749999999996C1314.6666666666667,55.199999999999996,1317.0833333333333,54.48125,1319.5,53.7625C1321.9166666666667,53.04375,1324.3333333333333,52.324999999999996,1326.75,51.606249999999996C1329.1666666666667,50.887499999999996,1331.5833333333333,50.16875,1334,49.45C1336.4166666666667,48.73125,1338.8333333333333,48.0125,1341.25,47.29375C1343.6666666666667,46.575,1346.0833333333333,45.856249999999996,1348.5,45.137499999999996C1350.9166666666667,44.418749999999996,1353.3333333333333,43.7,1355.75,42.98125C1358.1666666666667,42.2625,1360.5833333333333,41.543749999999996,1363,40.824999999999996C1365.4166666666667,40.106249999999996,1367.8333333333333,39.3875,1370.25,38.66875C1372.6666666666667,37.95,1375.0833333333333,37.23125,1377.5,36.5125C1379.9166666666667,35.79375,1382.3333333333333,35.074999999999996,1384.75,34.356249999999996C1387.1666666666667,33.637499999999996,1389.5833333333333,32.91875,1392,32.2C1394.4166666666667,31.481250000000003,1396.8333333333333,30.7625,1399.25,30.04375C1401.6666666666667,29.325,1404.0833333333333,28.606250000000006,1406.5,27.887500000000006C1408.9166666666667,27.168750000000006,1411.3333333333333,26.450000000000003,1413.75,25.73125C1416.1666666666667,25.012499999999996,1418.5833333333333,24.293749999999996,1421,23.574999999999996C1423.4166666666667,22.856249999999996,1425.8333333333333,22.137500000000003,1428.25,21.418750000000003C1430.6666666666667,20.700000000000003,1433.0833333333333,19.98125,1435.5,19.2625C1437.9166666666667,18.54375,1440.3333333333333,17.825000000000006,1442.75,17.106250000000006C1445.1666666666667,16.387500000000006,1447.5833333333333,15.668750000000005,1450,14.950000000000001" fill="transparent" stroke-linecap="round" stroke="#E7C6DF" stroke-width="2"></path><g class="visx-group visx-axis visx-axis-bottom" transform="translate(0, 115)"><g class="visx-group visx-axis-tick" transform="translate(0, 0)"><line class="visx-line" x1="0" y1="0" x2="0" y2="8" fill="transparent" shape-rendering="crispEdges" stroke="#000" stroke-width="0" stroke-linecap="square"></line><svg x="0" y="0" font-size="10" style="overflow:visible"><text transform="" x="0" y="18" fill="#000" font-size="10" text-anchor="middle"><tspan x="0" dy="0em">0%</tspan></text></svg></g><g class="visx-group visx-axis-tick" transform="translate(0, 0)"><line class="visx-line" x1="362.5" y1="0" x2="362.5" y2="8" fill="transparent" shape-rendering="crispEdges" stroke="#000" stroke-width="0" stroke-linecap="square"></line><svg x="0" y="0" font-size="10" style="overflow:visible"><text transform="" x="362.5" y="18" fill="#000" font-size="10" text-anchor="middle"><tspan x="362.5" dy="0em">25%</tspan></text></svg></g><g class="visx-group visx-axis-tick" transform="translate(0, 0)"><line class="visx-line" x1="725" y1="0" x2="725" y2="8" fill="transparent" shape-rendering="crispEdges" stroke="#000" stroke-width="0" stroke-linecap="square"></line><svg x="0" y="0" font-size="10" style="overflow:visible"><text transform="" x="725" y="18" fill="#000" font-size="10" text-anchor="middle"><tspan x="725" dy="0em">50%</tspan></text></svg></g><g class="visx-group visx-axis-tick" transform="translate(0, 0)"><line class="visx-line" x1="1087.5" y1="0" x2="1087.5" y2="8" fill="transparent" shape-rendering="crispEdges" stroke="#000" stroke-width="0" stroke-linecap="square"></line><svg x="0" y="0" font-size="10" style="overflow:visible"><text transform="" x="1087.5" y="18" fill="#000" font-size="10" text-anchor="middle"><tspan x="1087.5" dy="0em">75%</tspan></text></svg></g><g class="visx-group visx-axis-tick" transform="translate(0, 0)"><line class="visx-line" x1="1450" y1="0" x2="1450" y2="8" fill="transparent" shape-rendering="crispEdges" stroke="#000" stroke-width="0" stroke-linecap="square"></line><svg x="0" y="0" font-size="10" style="overflow:visible"><text transform="" x="1450" y="18" fill="#000" font-size="10" text-anchor="middle"><tspan x="1450" dy="0em">100%</tspan></text></svg></g><line class="visx-line visx-axis-line" x1="0.5" y1="0" x2="1450.5" y2="0" fill="transparent" shape-rendering="crispEdges" stroke="#222" stroke-width="0"></line></g><g class="visx-group visx-axis visx-axis-left" transform="translate(0, 0)"><g class="visx-group visx-axis-tick" transform="translate(0, 0)"><line class="visx-line" x1="0" y1="115" x2="-8" y2="115" fill="transparent" shape-rendering="crispEdges" stroke="#222" stroke-width="0" stroke-linecap="square"></line><svg x="-30" y="0" font-size="8" style="overflow:visible"><text transform="" x="-8" y="115" fill="#000" font-size="8" text-anchor="start"><tspan x="-8" dy="0em">0%</tspan></text></svg></g><g class="visx-group visx-axis-tick" transform="translate(0, 0)"><line class="visx-line" x1="0" y1="57.5" x2="-8" y2="57.5" fill="transparent" shape-rendering="crispEdges" stroke="#222" stroke-width="0" stroke-linecap="square"></line><svg x="-30" y="0" font-size="8" style="overflow:visible"><text transform="" x="-8" y="57.5" fill="#000" font-size="8" text-anchor="start"><tspan x="-8" dy="0em">50%</tspan></text></svg></g><g class="visx-group visx-axis-tick" transform="translate(0, 0)"><line class="visx-line" x1="0" y1="0" x2="-8" y2="0" fill="transparent" shape-rendering="crispEdges" stroke="#222" stroke-width="0" stroke-linecap="square"></line><svg x="-30" y="0" font-size="8" style="overflow:visible"><text transform="" x="-8" y="0" fill="#000" font-size="8" text-anchor="start"><tspan x="-8" dy="0em">100%</tspan></text></svg></g><line class="visx-line visx-axis-line" x1="0" y1="115.5" x2="0" y2="0.5" fill="transparent" shape-rendering="crispEdges" stroke="#222" stroke-width="0"></line></g><rect class="visx-bar" width="1450" height="115" fill="transparent"></rect><line class="visx-line" x1="1160" y1="28" x2="1160" y2="115" fill="transparent" shape-rendering="crispEdges" stroke="#0062D2" stroke-width="1" pointer-events="none" stroke-dasharray="5,2"></line><svg x="0" y="0" font-size="10px" style="overflow:visible"><text transform="" x="1160" y="20" font-size="10px" fill="#fff" stroke="#fff" stroke-width="0.8em" text-anchor="middle"><tspan x="1160" dy="0.355em">Optimal 80%</tspan></text></svg><svg x="0" y="0" font-size="10px" style="overflow:visible"><text transform="" x="1160" y="20" font-size="10px" fill="#62677B" text-anchor="middle"><tspan x="1160" dy="0.355em">Optimal 80%</tspan></text></svg></g></svg>