<?xml version="1.0"?><svg xmlns="http://www.w3.org/2000/svg" xmlns:xlink= "http://www.w3.org/1999/xlink" style="background: white;" width="1500" height="185"> <g style="color: black; font-size: 13px; font-family: sans-serif; transform: translate(18px, 25px);"><g><circle r="3" cx="-6" cy="-5" style="fill: #B6509E" /><text>Borrow APR, variable</text></g><g style="transform: translateX(150px);"><circle r="3" cx="-6" cy="-5" style="fill: rgb(231, 198, 223)" /><text>Borrow APR, stable</text></g><g style="transform: translateX(290px);"><circle r="3" cx="-6" cy="-5" style="fill: rgb(0, 98, 210)" /><text>Utilization Rate</text></g></g><g class="visx-group" transform="translate(40, 50)"><g class="visx-group visx-rows" transform="translate(0, 0)"><line class="visx-line" x1="0" y1="115" x2="1450" y2="115" fill="transparent" shape-rendering="crispEdges" stroke="#000" stroke-width="1" stroke-dasharray="3,3" pointer-events="none"></line><line class="visx-line" x1="0" y1="67.08333333333333" x2="1450" y2="67.08333333333333" fill="transparent" shape-rendering="crispEdges" stroke="#000" stroke-width="1" stroke-dasharray="3,3" pointer-events="none"></line><line class="visx-line" x1="0" y1="19.16666666666666" x2="1450" y2="19.16666666666666" fill="transparent" shape-rendering="crispEdges" stroke="#000" stroke-width="1" stroke-dasharray="3,3" pointer-events="none"></line></g><path class="visx-linepath" d="M0,114.85624999998322C2.4166666666666665,114.85345486110133,4.833333333333334,114.85065972221942,7.25,114.84786458333333C9.666666666666666,114.84506944444725,12.083333333333334,114.84227430555555,14.5,114.83947916666666C16.916666666666668,114.83668402777778,19.333333333333332,114.83388888888888,21.75,114.83109375C24.166666666666668,114.82829861111111,26.583333333333332,114.82550347222222,29,114.82270833333334C31.416666666666668,114.81991319444445,33.833333333333336,114.81711805555555,36.25,114.81432291666667C38.666666666666664,114.81152777777778,41.083333333333336,114.80873263888888,43.5,114.8059375C45.91666666666667,114.80314236111111,48.333333333333336,114.80034722222221,50.75000000000001,114.79755208333333C53.16666666666667,114.79475694444444,55.583333333333336,114.79196180555554,58,114.78916666666666C60.416666666666664,114.78637152777777,62.833333333333336,114.78357638888889,65.25,114.78078125C67.66666666666667,114.77798611111112,70.08333333333333,114.77519097222222,72.5,114.77239583333333C74.91666666666667,114.76960069444445,77.33333333333333,114.76680555555556,79.75,114.76401041666668C82.16666666666667,114.7612152777778,84.58333333333333,114.75842013888888,87,114.755625C89.41666666666667,114.75282986111111,91.83333333333333,114.75003472222221,94.25,114.74723958333333C96.66666666666667,114.74444444444444,99.08333333333334,114.74164930555555,101.50000000000001,114.73885416666667C103.91666666666667,114.73605902777778,106.33333333333334,114.73326388888889,108.75,114.73046875C111.16666666666667,114.72767361111111,113.58333333333333,114.72487847222223,116,114.72208333333334C118.41666666666667,114.71928819444446,120.83333333333334,114.71649305555556,123.25000000000001,114.71369791666666C125.66666666666667,114.71090277777778,128.08333333333334,114.70810763888888,130.5,114.70531249999999C132.91666666666666,114.7025173611111,135.33333333333334,114.69972222222222,137.75,114.69692708333334C140.16666666666666,114.69413194444445,142.58333333333334,114.69133680555555,145,114.68854166666667C147.41666666666666,114.68574652777778,149.83333333333334,114.6829513888889,152.25,114.68015625000001C154.66666666666666,114.67736111111113,157.08333333333334,114.67456597222221,159.5,114.67177083333333C161.91666666666666,114.66897569444444,164.33333333333334,114.66618055555556,166.75,114.66338541666667C169.16666666666666,114.66059027777779,171.58333333333334,114.65779513888889,174,114.655C176.41666666666666,114.65220486111112,178.83333333333334,114.64940972222222,181.25,114.64661458333333C183.66666666666666,114.64381944444445,186.08333333333334,114.64102430555556,188.5,114.63822916666668C190.91666666666666,114.63543402777779,193.33333333333334,114.63263888888888,195.75,114.62984374999999C198.16666666666669,114.6270486111111,200.58333333333334,114.62425347222222,203.00000000000003,114.62145833333334C205.41666666666669,114.61866319444445,207.83333333333331,114.61586805555555,210.24999999999997,114.61307291666667C212.66666666666666,114.61027777777778,215.08333333333331,114.60748263888888,217.5,114.6046875C219.91666666666666,114.60189236111111,222.33333333333334,114.59909722222223,224.75,114.59630208333334C227.16666666666666,114.59350694444446,229.58333333333334,114.59071180555554,232,114.58791666666666C234.41666666666666,114.58512152777777,236.83333333333334,114.58232638888889,239.25,114.57953125C241.66666666666669,114.57673611111112,244.08333333333334,114.57394097222222,246.50000000000003,114.57114583333333C248.91666666666669,114.56835069444445,251.33333333333331,114.56555555555555,253.74999999999997,114.56276041666666C256.16666666666663,114.55996527777778,258.5833333333333,114.55717013888889,261,114.55437500000001C263.4166666666667,114.55157986111112,265.8333333333333,114.54878472222221,268.25,114.54598958333332C270.6666666666667,114.54319444444444,273.0833333333333,114.54039930555555,275.5,114.53760416666667C277.9166666666667,114.53480902777778,280.3333333333333,114.53201388888888,282.75,114.52921875C285.1666666666667,114.52642361111111,287.5833333333333,114.52642361111111,290,114.52083333333333C292.4166666666667,114.51524305555554,294.8333333333333,114.48090277777777,297.25,114.4609375C299.6666666666667,114.44097222222223,302.0833333333333,114.42100694444443,304.5,114.40104166666666C306.9166666666667,114.38107638888889,309.3333333333333,114.3611111111111,311.75,114.34114583333333C314.1666666666667,114.32118055555556,316.5833333333333,114.30121527777777,319,114.28125C321.4166666666667,114.26128472222223,323.8333333333333,114.24131944444444,326.25,114.22135416666667C328.6666666666667,114.2013888888889,331.0833333333333,114.1814236111111,333.5,114.16145833333333C335.9166666666667,114.14149305555556,338.3333333333333,114.12152777777777,340.75,114.1015625C343.1666666666667,114.08159722222223,345.5833333333333,114.06163194444444,348,114.04166666666667C350.4166666666667,114.0217013888889,352.8333333333333,114.0017361111111,355.25,113.98177083333333C357.6666666666667,113.96180555555556,360.0833333333333,113.94184027777777,362.5,113.921875C364.9166666666667,113.90190972222223,367.3333333333333,113.88194444444444,369.75,113.86197916666667C372.1666666666667,113.8420138888889,374.5833333333333,113.82204861111111,377,113.80208333333334C379.4166666666667,113.78211805555557,381.8333333333333,113.76215277777777,384.25,113.7421875C386.6666666666667,113.72222222222223,389.0833333333333,113.70225694444444,391.5,113.68229166666667C393.9166666666667,113.66232638888889,396.33333333333337,113.64236111111111,398.75000000000006,113.62239583333333C401.16666666666674,113.60243055555556,403.58333333333337,113.58246527777779,406.00000000000006,113.5625C408.4166666666667,113.54253472222223,410.8333333333333,113.52256944444443,413.24999999999994,113.50260416666666C415.66666666666663,113.48263888888887,418.08333333333326,113.4626736111111,420.49999999999994,113.44270833333333C422.91666666666663,113.42274305555556,425.3333333333333,113.40277777777777,427.75,113.3828125C430.1666666666667,113.36284722222223,432.5833333333333,113.34288194444444,435,113.32291666666667C437.4166666666667,113.3029513888889,439.8333333333333,113.2829861111111,442.25,113.26302083333333C444.6666666666667,113.24305555555556,447.0833333333333,113.22309027777777,449.5,113.203125C451.9166666666667,113.18315972222223,454.3333333333333,113.16319444444444,456.75,113.14322916666667C459.1666666666667,113.1232638888889,461.5833333333333,113.1032986111111,464,113.08333333333333C466.4166666666667,113.06336805555556,468.8333333333333,113.04340277777777,471.25,113.0234375C473.6666666666667,113.00347222222223,476.0833333333333,112.98350694444444,478.5,112.96354166666667C480.9166666666667,112.9435763888889,483.33333333333337,112.92361111111113,485.75000000000006,112.90364583333334C488.16666666666674,112.88368055555557,490.58333333333337,112.86371527777779,493.00000000000006,112.84375C495.4166666666667,112.82378472222223,497.8333333333333,112.80381944444444,500.24999999999994,112.78385416666667C502.66666666666663,112.76388888888889,505.08333333333326,112.7439236111111,507.49999999999994,112.72395833333333C509.91666666666663,112.70399305555554,512.3333333333333,112.68402777777779,514.75,112.6640625C517.1666666666666,112.64409722222223,519.5833333333334,112.62413194444443,522,112.60416666666666C524.4166666666666,112.58420138888889,526.8333333333334,112.5642361111111,529.25,112.54427083333333C531.6666666666666,112.52430555555556,534.0833333333334,112.50434027777777,536.5,112.484375C538.9166666666666,112.46440972222223,541.3333333333334,112.44444444444444,543.75,112.42447916666667C546.1666666666666,112.4045138888889,548.5833333333334,112.3845486111111,551,112.36458333333333C553.4166666666666,112.34461805555556,555.8333333333334,112.32465277777777,558.25,112.3046875C560.6666666666666,112.28472222222223,563.0833333333334,112.26475694444444,565.5,112.24479166666667C567.9166666666666,112.2248263888889,570.3333333333334,112.2048611111111,572.75,112.18489583333333C575.1666666666666,112.16493055555556,577.5833333333334,112.14496527777777,580,112.125C582.4166666666666,112.10503472222223,584.8333333333334,112.08506944444444,587.25,112.06510416666667C589.6666666666666,112.0451388888889,592.0833333333334,112.02517361111111,594.5,112.00520833333334C596.9166666666666,111.98524305555557,599.3333333333334,111.96527777777777,601.75,111.9453125C604.1666666666666,111.92534722222223,606.5833333333334,111.90538194444444,609,111.88541666666667C611.4166666666666,111.8654513888889,613.8333333333334,111.8454861111111,616.25,111.82552083333333C618.6666666666666,111.80555555555556,621.0833333333334,111.78559027777777,623.5,111.765625C625.9166666666666,111.74565972222223,628.3333333333334,111.72569444444443,630.75,111.70572916666666C633.1666666666666,111.68576388888889,635.5833333333334,111.6657986111111,638,111.64583333333333C640.4166666666666,111.62586805555556,642.8333333333334,111.60590277777777,645.25,111.5859375C647.6666666666666,111.56597222222223,650.0833333333334,111.54600694444444,652.5,111.52604166666667C654.9166666666666,111.5060763888889,657.3333333333334,111.4861111111111,659.75,111.46614583333333C662.1666666666666,111.44618055555556,664.5833333333334,111.42621527777777,667,111.40625C669.4166666666666,111.38628472222223,671.8333333333334,111.36631944444444,674.25,111.34635416666667C676.6666666666666,111.3263888888889,679.0833333333334,111.3064236111111,681.5,111.28645833333333C683.9166666666666,111.26649305555556,686.3333333333334,111.24652777777777,688.75,111.2265625C691.1666666666666,111.20659722222223,693.5833333333334,111.18663194444444,696,111.16666666666667C698.4166666666666,111.1467013888889,700.8333333333334,111.12673611111111,703.25,111.10677083333334C705.6666666666666,111.08680555555557,708.0833333333334,111.06684027777777,710.5,111.046875C712.9166666666666,111.02690972222223,715.3333333333334,111.00694444444444,717.75,110.98697916666667C720.1666666666666,110.9670138888889,722.5833333333334,110.9470486111111,725,110.92708333333333C727.4166666666666,110.90711805555556,729.8333333333334,110.88715277777777,732.25,110.8671875C734.6666666666666,110.84722222222223,737.0833333333334,110.82725694444443,739.5,110.80729166666666C741.9166666666666,110.78732638888889,744.3333333333334,110.7673611111111,746.75,110.74739583333333C749.1666666666666,110.72743055555556,751.5833333333334,110.70746527777777,754,110.6875C756.4166666666666,110.66753472222223,758.8333333333334,110.64756944444444,761.25,110.62760416666667C763.6666666666666,110.6076388888889,766.0833333333334,110.5876736111111,768.5,110.56770833333333C770.9166666666666,110.54774305555556,773.3333333333334,110.52777777777777,775.75,110.5078125C778.1666666666666,110.48784722222223,780.5833333333334,110.46788194444444,783,110.44791666666667C785.4166666666667,110.42795138888889,787.8333333333334,110.40798611111111,790.2500000000001,110.38802083333333C792.6666666666667,110.36805555555556,795.0833333333335,110.34809027777777,797.5000000000001,110.328125C799.9166666666667,110.30815972222223,802.3333333333335,110.28819444444444,804.7500000000001,110.26822916666667C807.1666666666667,110.2482638888889,809.5833333333335,110.22829861111113,812.0000000000001,110.20833333333334C814.4166666666667,110.18836805555557,816.8333333333333,110.16840277777777,819.2499999999999,110.1484375C821.6666666666665,110.12847222222221,824.0833333333333,110.10850694444444,826.4999999999999,110.08854166666667C828.9166666666665,110.0685763888889,831.3333333333333,110.0486111111111,833.7499999999999,110.02864583333333C836.1666666666665,110.00868055555556,838.5833333333333,109.98871527777777,840.9999999999999,109.96875C843.4166666666666,109.94878472222221,845.8333333333333,109.92881944444444,848.25,109.90885416666666C850.6666666666666,109.88888888888889,853.0833333333334,109.8689236111111,855.5,109.84895833333333C857.9166666666666,109.82899305555556,860.3333333333334,109.80902777777777,862.75,109.7890625C865.1666666666666,109.76909722222223,867.5833333333334,109.74913194444443,870,109.72916666666666C872.4166666666666,109.70920138888889,874.8333333333334,109.6892361111111,877.25,109.66927083333333C879.6666666666666,109.64930555555556,882.0833333333334,109.62934027777777,884.5,109.609375C886.9166666666666,109.58940972222223,889.3333333333334,109.56944444444444,891.75,109.54947916666667C894.1666666666666,109.5295138888889,896.5833333333334,109.50954861111111,899,109.48958333333334C901.4166666666666,109.46961805555557,903.8333333333334,109.44965277777777,906.25,109.4296875C908.6666666666666,109.40972222222223,911.0833333333334,109.38975694444444,913.5,109.36979166666667C915.9166666666666,109.3498263888889,918.3333333333334,109.32986111111111,920.75,109.30989583333334C923.1666666666666,109.28993055555557,925.5833333333334,109.26996527777777,928,109.25C930.4166666666666,109.23003472222223,932.8333333333334,109.21006944444444,935.25,109.19010416666667C937.6666666666666,109.1701388888889,940.0833333333334,109.1501736111111,942.5,109.13020833333333C944.9166666666666,109.11024305555556,947.3333333333334,109.09027777777777,949.75,109.0703125C952.1666666666666,109.05034722222223,954.5833333333334,109.03038194444443,957,109.01041666666666C959.4166666666666,108.99045138888889,961.8333333333334,108.9704861111111,964.25,108.95052083333333C966.6666666666667,108.93055555555556,969.0833333333334,108.91059027777777,971.5000000000001,108.890625C973.9166666666667,108.87065972222223,976.3333333333335,108.85069444444444,978.7500000000001,108.83072916666667C981.1666666666667,108.8107638888889,983.5833333333335,108.7907986111111,986.0000000000001,108.77083333333333C988.4166666666667,108.75086805555556,990.8333333333335,108.73090277777777,993.2500000000001,108.7109375C995.6666666666667,108.69097222222223,998.0833333333333,108.67100694444444,1000.4999999999999,108.65104166666667C1002.9166666666665,108.63107638888889,1005.3333333333333,108.6111111111111,1007.7499999999999,108.59114583333333C1010.1666666666665,108.57118055555556,1012.5833333333333,108.55121527777777,1014.9999999999999,108.53125C1017.4166666666665,108.51128472222223,1019.8333333333333,108.49131944444444,1022.2499999999999,108.47135416666667C1024.6666666666665,108.4513888888889,1027.0833333333333,108.43142361111113,1029.5,108.41145833333334C1031.9166666666667,108.39149305555557,1034.3333333333333,108.37152777777777,1036.75,108.3515625C1039.1666666666667,108.33159722222223,1041.5833333333333,108.31163194444444,1044,108.29166666666667C1046.4166666666667,108.2717013888889,1048.8333333333333,108.2517361111111,1051.25,108.23177083333333C1053.6666666666667,108.21180555555556,1056.0833333333333,108.19184027777777,1058.5,108.171875C1060.9166666666667,108.15190972222223,1063.3333333333333,108.13194444444443,1065.75,108.11197916666666C1068.1666666666667,108.09201388888889,1070.5833333333333,108.0720486111111,1073,108.05208333333333C1075.4166666666667,108.03211805555556,1077.8333333333333,108.01215277777777,1080.25,107.9921875C1082.6666666666667,107.97222222222223,1085.0833333333333,107.95225694444444,1087.5,107.93229166666667C1089.9166666666667,107.9123263888889,1092.3333333333333,107.8923611111111,1094.75,107.87239583333333C1097.1666666666667,107.85243055555556,1099.5833333333333,107.83246527777777,1102,107.8125C1104.4166666666667,107.79253472222223,1106.8333333333333,107.77256944444444,1109.25,107.75260416666667C1111.6666666666667,107.7326388888889,1114.0833333333333,107.71267361111111,1116.5,107.69270833333334C1118.9166666666667,107.67274305555557,1121.3333333333333,107.65277777777777,1123.75,107.6328125C1126.1666666666667,107.61284722222223,1128.5833333333333,107.59288194444444,1131,107.57291666666667C1133.4166666666667,107.5529513888889,1135.8333333333333,107.53298611111111,1138.25,107.51302083333334C1140.6666666666667,107.49305555555557,1143.0833333333333,107.47309027777777,1145.5,107.453125C1147.9166666666667,107.43315972222223,1150.3333333333333,107.41319444444444,1152.75,107.39322916666667C1155.1666666666667,107.3732638888889,1157.5833333333333,107.3532986111111,1160,107.33333333333333C1162.4166666666667,107.31336805555556,1164.8333333333333,107.29340277777777,1167.25,107.2734375C1169.6666666666667,107.25347222222223,1172.0833333333333,107.23350694444443,1174.5,107.21354166666666C1176.9166666666667,107.19357638888889,1179.3333333333333,107.1736111111111,1181.75,107.15364583333333C1184.1666666666667,107.13368055555556,1186.5833333333333,107.11371527777777,1189,107.09375C1191.4166666666667,107.07378472222223,1193.8333333333333,107.05381944444443,1196.25,107.03385416666666C1198.6666666666667,107.01388888888889,1201.0833333333333,106.9939236111111,1203.5,106.97395833333333C1205.9166666666667,106.95399305555556,1208.3333333333333,106.93402777777777,1210.75,106.9140625C1213.1666666666667,106.89409722222223,1215.5833333333333,106.87413194444444,1218,106.85416666666667C1220.4166666666667,106.8342013888889,1222.8333333333333,106.81423611111111,1225.25,106.79427083333334C1227.6666666666667,106.77430555555557,1230.0833333333333,106.75434027777777,1232.5,106.734375C1234.9166666666667,106.71440972222223,1237.3333333333333,106.69444444444444,1239.75,106.67447916666667C1242.1666666666667,106.6545138888889,1244.5833333333333,106.63454861111111,1247,106.61458333333334C1249.4166666666667,106.59461805555557,1251.8333333333333,106.57465277777777,1254.25,106.5546875C1256.6666666666667,106.53472222222223,1259.0833333333333,106.51475694444444,1261.5,106.49479166666667C1263.9166666666667,106.4748263888889,1266.3333333333333,106.4548611111111,1268.75,106.43489583333333C1271.1666666666667,106.41493055555556,1273.5833333333333,106.39496527777777,1276,106.375C1278.4166666666667,106.35503472222223,1280.8333333333333,106.33506944444443,1283.25,106.31510416666666C1285.6666666666667,106.29513888888889,1288.0833333333333,106.2751736111111,1290.5,106.25520833333333C1292.9166666666667,106.23524305555556,1295.3333333333333,106.21527777777777,1297.75,106.1953125C1300.1666666666667,106.17534722222223,1302.5833333333333,106.15538194444443,1305,106.13541666666666C1307.4166666666667,106.11545138888889,1309.8333333333333,106.0954861111111,1312.25,106.07552083333333C1314.6666666666667,106.05555555555556,1317.0833333333333,106.03559027777777,1319.5,106.015625C1321.9166666666667,105.99565972222223,1324.3333333333333,105.97569444444444,1326.75,105.95572916666667C1329.1666666666667,105.9357638888889,1331.5833333333333,105.91579861111111,1334,105.89583333333334C1336.4166666666667,105.87586805555557,1338.8333333333333,105.85590277777777,1341.25,105.8359375C1343.6666666666667,105.81597222222223,1346.0833333333333,105.79600694444444,1348.5,105.77604166666667C1350.9166666666667,105.7560763888889,1353.3333333333333,105.73611111111111,1355.75,105.71614583333334C1358.1666666666667,105.69618055555557,1360.5833333333333,105.67621527777777,1363,105.65625C1365.4166666666667,105.63628472222223,1367.8333333333333,105.61631944444444,1370.25,105.59635416666667C1372.6666666666667,105.5763888888889,1375.0833333333333,105.5564236111111,1377.5,105.53645833333333C1379.9166666666667,105.51649305555556,1382.3333333333333,105.49652777777777,1384.75,105.4765625C1387.1666666666667,105.45659722222223,1389.5833333333333,105.43663194444443,1392,105.41666666666666C1394.4166666666667,105.39670138888889,1396.8333333333333,105.3767361111111,1399.25,105.35677083333333C1401.6666666666667,105.33680555555556,1404.0833333333333,105.31684027777777,1406.5,105.296875C1408.9166666666667,105.27690972222223,1411.3333333333333,105.25694444444443,1413.75,105.23697916666666C1416.1666666666667,105.21701388888889,1418.5833333333333,105.1970486111111,1421,105.17708333333333C1423.4166666666667,105.15711805555556,1425.8333333333333,105.13715277777777,1428.25,105.1171875C1430.6666666666667,105.09722222222223,1433.0833333333333,105.07725694444444,1435.5,105.05729166666667C1437.9166666666667,105.0373263888889,1440.3333333333333,105.01736111111111,1442.75,104.99739583333334C1445.1666666666667,104.97743055555557,1447.5833333333333,104.95746527777779,1450,104.9375" fill="transparent" stroke-linecap="round" stroke="#B6509E" stroke-width="2"></path><path class="visx-linepath" d="M0,114.52083333331656C2.4166666666666665,114.51803819443467,4.833333333333334,114.51524305555277,7.25,114.51244791666667C9.666666666666666,114.50965277778057,12.083333333333334,114.50685763888887,14.5,114.50406249999999C16.916666666666668,114.5012673611111,19.333333333333332,114.49847222222222,21.75,114.49567708333333C24.166666666666668,114.49288194444445,26.583333333333332,114.49008680555555,29,114.48729166666666C31.416666666666668,114.48449652777778,33.833333333333336,114.4817013888889,36.25,114.47890625000001C38.666666666666664,114.47611111111112,41.083333333333336,114.47331597222222,43.5,114.47052083333334C45.91666666666667,114.46772569444444,48.333333333333336,114.46493055555554,50.75000000000001,114.46213541666665C53.16666666666667,114.45934027777777,55.583333333333336,114.45654513888888,58,114.45375C60.416666666666664,114.45095486111111,62.833333333333336,114.44815972222221,65.25,114.44536458333333C67.66666666666667,114.44256944444444,70.08333333333333,114.43977430555556,72.5,114.43697916666667C74.91666666666667,114.43418402777779,77.33333333333333,114.43138888888889,79.75,114.42859375C82.16666666666667,114.42579861111112,84.58333333333333,114.42300347222222,87,114.42020833333333C89.41666666666667,114.41741319444445,91.83333333333333,114.41461805555555,94.25,114.41182291666667C96.66666666666667,114.40902777777778,99.08333333333334,114.40623263888888,101.50000000000001,114.4034375C103.91666666666667,114.40064236111111,106.33333333333334,114.39784722222223,108.75,114.39505208333334C111.16666666666667,114.39225694444445,113.58333333333333,114.38946180555556,116,114.38666666666667C118.41666666666667,114.38387152777779,120.83333333333334,114.38107638888889,123.25000000000001,114.37828125C125.66666666666667,114.37548611111112,128.08333333333334,114.37269097222222,130.5,114.36989583333333C132.91666666666666,114.36710069444445,135.33333333333334,114.36430555555555,137.75,114.36151041666666C140.16666666666666,114.35871527777778,142.58333333333334,114.35592013888889,145,114.353125C147.41666666666666,114.35032986111112,149.83333333333334,114.34753472222222,152.25,114.34473958333334C154.66666666666666,114.34194444444445,157.08333333333334,114.33914930555555,159.5,114.33635416666667C161.91666666666666,114.33355902777778,164.33333333333334,114.33076388888888,166.75,114.32796875C169.16666666666666,114.32517361111111,171.58333333333334,114.32237847222221,174,114.31958333333333C176.41666666666666,114.31678819444444,178.83333333333334,114.31399305555556,181.25,114.31119791666667C183.66666666666666,114.30840277777779,186.08333333333334,114.30560763888889,188.5,114.3028125C190.91666666666666,114.30001736111112,193.33333333333334,114.29722222222223,195.75,114.29442708333335C198.16666666666669,114.29163194444446,200.58333333333334,114.28883680555556,203.00000000000003,114.28604166666666C205.41666666666669,114.28324652777778,207.83333333333331,114.28045138888888,210.24999999999997,114.27765624999999C212.66666666666666,114.27486111111111,215.08333333333331,114.27206597222222,217.5,114.26927083333334C219.91666666666666,114.26647569444445,222.33333333333334,114.26368055555555,224.75,114.26088541666667C227.16666666666666,114.25809027777778,229.58333333333334,114.2552951388889,232,114.25250000000001C234.41666666666666,114.24970486111113,236.83333333333334,114.24690972222221,239.25,114.24411458333333C241.66666666666669,114.24131944444443,244.08333333333334,114.23852430555554,246.50000000000003,114.23572916666666C248.91666666666669,114.23293402777777,251.33333333333331,114.23013888888889,253.74999999999997,114.22734375C256.16666666666663,114.22454861111112,258.5833333333333,114.22175347222222,261,114.21895833333333C263.4166666666667,114.21616319444445,265.8333333333333,114.21336805555556,268.25,114.21057291666668C270.6666666666667,114.20777777777779,273.0833333333333,114.20498263888888,275.5,114.2021875C277.9166666666667,114.19939236111111,280.3333333333333,114.19659722222222,282.75,114.19380208333334C285.1666666666667,114.19100694444445,287.5833333333333,114.19100694444445,290,114.18541666666667C292.4166666666667,114.17982638888888,294.8333333333333,113.7861111111111,297.25,113.58645833333333C299.6666666666667,113.38680555555555,302.0833333333333,113.18715277777778,304.5,112.98750000000001C306.9166666666667,112.78784722222224,309.3333333333333,112.58819444444445,311.75,112.38854166666667C314.1666666666667,112.18888888888888,316.5833333333333,111.9892361111111,319,111.78958333333333C321.4166666666667,111.58993055555555,323.8333333333333,111.39027777777778,326.25,111.19062500000001C328.6666666666667,110.99097222222224,331.0833333333333,110.79131944444445,333.5,110.59166666666667C335.9166666666667,110.39201388888888,338.3333333333333,110.1923611111111,340.75,109.99270833333333C343.1666666666667,109.79305555555555,345.5833333333333,109.59340277777778,348,109.39375000000001C350.4166666666667,109.19409722222224,352.8333333333333,108.99444444444445,355.25,108.79479166666667C357.6666666666667,108.59513888888888,360.0833333333333,108.3954861111111,362.5,108.19583333333333C364.9166666666667,107.99618055555555,367.3333333333333,107.79652777777778,369.75,107.59687500000001C372.1666666666667,107.39722222222224,374.5833333333333,107.19756944444445,377,106.99791666666667C379.4166666666667,106.79826388888888,381.8333333333333,106.5986111111111,384.25,106.39895833333333C386.6666666666667,106.19930555555555,389.0833333333333,105.99965277777778,391.5,105.80000000000001C393.9166666666667,105.60034722222224,396.33333333333337,105.40069444444445,398.75000000000006,105.20104166666667C401.16666666666674,105.00138888888888,403.58333333333337,104.8017361111111,406.00000000000006,104.60208333333333C408.4166666666667,104.40243055555555,410.8333333333333,104.20277777777778,413.24999999999994,104.00312500000001C415.66666666666663,103.80347222222224,418.08333333333326,103.60381944444445,420.49999999999994,103.40416666666667C422.91666666666663,103.20451388888888,425.3333333333333,103.0048611111111,427.75,102.80520833333333C430.1666666666667,102.60555555555555,432.5833333333333,102.40590277777778,435,102.20625000000001C437.4166666666667,102.00659722222224,439.8333333333333,101.80694444444445,442.25,101.60729166666667C444.6666666666667,101.40763888888888,447.0833333333333,101.2079861111111,449.5,101.00833333333333C451.9166666666667,100.80868055555555,454.3333333333333,100.60902777777778,456.75,100.40937500000001C459.1666666666667,100.20972222222224,461.5833333333333,100.01006944444445,464,99.81041666666667C466.4166666666667,99.61076388888888,468.8333333333333,99.4111111111111,471.25,99.21145833333333C473.6666666666667,99.01180555555555,476.0833333333333,98.81215277777778,478.5,98.61250000000001C480.9166666666667,98.41284722222224,483.33333333333337,98.21319444444445,485.75000000000006,98.01354166666667C488.16666666666674,97.81388888888888,490.58333333333337,97.6142361111111,493.00000000000006,97.41458333333333C495.4166666666667,97.21493055555555,497.8333333333333,97.01527777777778,500.24999999999994,96.81562500000001C502.66666666666663,96.61597222222224,505.08333333333326,96.41631944444445,507.49999999999994,96.21666666666667C509.91666666666663,96.01701388888888,512.3333333333333,95.8173611111111,514.75,95.61770833333333C517.1666666666666,95.41805555555555,519.5833333333334,95.21840277777778,522,95.01875000000001C524.4166666666666,94.81909722222224,526.8333333333334,94.61944444444445,529.25,94.41979166666667C531.6666666666666,94.22013888888888,534.0833333333334,94.0204861111111,536.5,93.82083333333333C538.9166666666666,93.62118055555555,541.3333333333334,93.42152777777778,543.75,93.22187500000001C546.1666666666666,93.02222222222224,548.5833333333334,92.82256944444445,551,92.62291666666667C553.4166666666666,92.42326388888888,555.8333333333334,92.2236111111111,558.25,92.02395833333333C560.6666666666666,91.82430555555555,563.0833333333334,91.62465277777778,565.5,91.42500000000001C567.9166666666666,91.22534722222224,570.3333333333334,91.02569444444445,572.75,90.82604166666667C575.1666666666666,90.62638888888888,577.5833333333334,90.4267361111111,580,90.22708333333333C582.4166666666666,90.02743055555555,584.8333333333334,89.82777777777778,587.25,89.62812500000001C589.6666666666666,89.42847222222224,592.0833333333334,89.22881944444445,594.5,89.02916666666667C596.9166666666666,88.82951388888888,599.3333333333334,88.6298611111111,601.75,88.43020833333333C604.1666666666666,88.23055555555555,606.5833333333334,88.03090277777778,609,87.83125000000001C611.4166666666666,87.63159722222224,613.8333333333334,87.43194444444445,616.25,87.23229166666667C618.6666666666666,87.03263888888888,621.0833333333334,86.8329861111111,623.5,86.63333333333333C625.9166666666666,86.43368055555555,628.3333333333334,86.23402777777777,630.75,86.034375C633.1666666666666,85.83472222222223,635.5833333333334,85.63506944444444,638,85.43541666666667C640.4166666666666,85.2357638888889,642.8333333333334,85.03611111111111,645.25,84.83645833333334C647.6666666666666,84.63680555555557,650.0833333333334,84.43715277777777,652.5,84.2375C654.9166666666666,84.03784722222223,657.3333333333334,83.83819444444444,659.75,83.63854166666667C662.1666666666666,83.4388888888889,664.5833333333334,83.23923611111111,667,83.03958333333334C669.4166666666666,82.83993055555557,671.8333333333334,82.64027777777777,674.25,82.440625C676.6666666666666,82.24097222222223,679.0833333333334,82.04131944444444,681.5,81.84166666666667C683.9166666666666,81.6420138888889,686.3333333333334,81.44236111111111,688.75,81.24270833333334C691.1666666666666,81.04305555555557,693.5833333333334,80.84340277777777,696,80.64375C698.4166666666666,80.44409722222223,700.8333333333334,80.24444444444444,703.25,80.04479166666667C705.6666666666666,79.8451388888889,708.0833333333334,79.64548611111111,710.5,79.44583333333334C712.9166666666666,79.24618055555557,715.3333333333334,79.04652777777777,717.75,78.846875C720.1666666666666,78.64722222222223,722.5833333333334,78.44756944444444,725,78.24791666666667C727.4166666666666,78.0482638888889,729.8333333333334,77.84861111111111,732.25,77.64895833333334C734.6666666666666,77.44930555555557,737.0833333333334,77.24965277777777,739.5,77.05C741.9166666666666,76.85034722222223,744.3333333333334,76.65069444444444,746.75,76.45104166666667C749.1666666666666,76.2513888888889,751.5833333333334,76.05173611111111,754,75.85208333333334C756.4166666666666,75.65243055555557,758.8333333333334,75.45277777777777,761.25,75.253125C763.6666666666666,75.05347222222223,766.0833333333334,74.85381944444444,768.5,74.65416666666667C770.9166666666666,74.4545138888889,773.3333333333334,74.25486111111111,775.75,74.05520833333334C778.1666666666666,73.85555555555557,780.5833333333334,73.65590277777777,783,73.45625C785.4166666666667,73.25659722222221,787.8333333333334,73.05694444444444,790.2500000000001,72.85729166666667C792.6666666666667,72.6576388888889,795.0833333333335,72.45798611111111,797.5000000000001,72.25833333333334C799.9166666666667,72.05868055555557,802.3333333333335,71.85902777777777,804.7500000000001,71.659375C807.1666666666667,71.45972222222223,809.5833333333335,71.26006944444445,812.0000000000001,71.06041666666667C814.4166666666667,70.8607638888889,816.8333333333333,70.66111111111111,819.2499999999999,70.46145833333334C821.6666666666665,70.26180555555555,824.0833333333333,70.06215277777777,826.4999999999999,69.8625C828.9166666666665,69.66284722222223,831.3333333333333,69.46319444444444,833.7499999999999,69.26354166666667C836.1666666666665,69.0638888888889,838.5833333333333,68.86423611111111,840.9999999999999,68.66458333333334C843.4166666666666,68.46493055555555,845.8333333333333,68.26527777777778,848.25,68.065625C850.6666666666666,67.86597222222223,853.0833333333334,67.66631944444444,855.5,67.46666666666667C857.9166666666666,67.2670138888889,860.3333333333334,67.06736111111111,862.75,66.86770833333334C865.1666666666666,66.66805555555557,867.5833333333334,66.46840277777777,870,66.26875C872.4166666666666,66.06909722222223,874.8333333333334,65.86944444444444,877.25,65.66979166666667C879.6666666666666,65.4701388888889,882.0833333333334,65.27048611111111,884.5,65.07083333333334C886.9166666666666,64.87118055555557,889.3333333333334,64.67152777777777,891.75,64.471875C894.1666666666666,64.27222222222223,896.5833333333334,64.07256944444444,899,63.87291666666667C901.4166666666666,63.67326388888889,903.8333333333334,63.47361111111112,906.25,63.27395833333334C908.6666666666666,63.07430555555556,911.0833333333334,62.87465277777777,913.5,62.67499999999999C915.9166666666666,62.47534722222221,918.3333333333334,62.27569444444444,920.75,62.07604166666667C923.1666666666666,61.8763888888889,925.5833333333334,61.67673611111112,928,61.47708333333334C930.4166666666666,61.27743055555556,932.8333333333334,61.07777777777777,935.25,60.87812499999999C937.6666666666666,60.67847222222221,940.0833333333334,60.47881944444444,942.5,60.27916666666667C944.9166666666666,60.0795138888889,947.3333333333334,59.87986111111112,949.75,59.68020833333334C952.1666666666666,59.48055555555556,954.5833333333334,59.28090277777777,957,59.08124999999999C959.4166666666666,58.88159722222221,961.8333333333334,58.68194444444444,964.25,58.48229166666667C966.6666666666667,58.28263888888889,969.0833333333334,58.08298611111112,971.5000000000001,57.88333333333334C973.9166666666667,57.68368055555556,976.3333333333335,57.48402777777778,978.7500000000001,57.284375000000004C981.1666666666667,57.084722222222226,983.5833333333335,56.88506944444445,986.0000000000001,56.68541666666667C988.4166666666667,56.48576388888889,990.8333333333335,56.28611111111111,993.2500000000001,56.08645833333333C995.6666666666667,55.88680555555556,998.0833333333333,55.687152777777776,1000.4999999999999,55.487500000000004C1002.9166666666665,55.287847222222226,1005.3333333333333,55.08819444444445,1007.7499999999999,54.88854166666667C1010.1666666666665,54.68888888888889,1012.5833333333333,54.48923611111111,1014.9999999999999,54.28958333333333C1017.4166666666665,54.089930555555554,1019.8333333333333,53.89027777777778,1022.2499999999999,53.690625000000004C1024.6666666666665,53.490972222222226,1027.0833333333333,53.29131944444445,1029.5,53.09166666666667C1031.9166666666667,52.89201388888889,1034.3333333333333,52.69236111111111,1036.75,52.49270833333333C1039.1666666666667,52.293055555555554,1041.5833333333333,52.09340277777778,1044,51.893750000000004C1046.4166666666667,51.694097222222226,1048.8333333333333,51.49444444444445,1051.25,51.29479166666667C1053.6666666666667,51.09513888888889,1056.0833333333333,50.89548611111111,1058.5,50.69583333333333C1060.9166666666667,50.496180555555554,1063.3333333333333,50.29652777777778,1065.75,50.096875000000004C1068.1666666666667,49.897222222222226,1070.5833333333333,49.69756944444445,1073,49.49791666666667C1075.4166666666667,49.29826388888889,1077.8333333333333,49.09861111111111,1080.25,48.89895833333333C1082.6666666666667,48.699305555555554,1085.0833333333333,48.49965277777778,1087.5,48.300000000000004C1089.9166666666667,48.100347222222226,1092.3333333333333,47.90069444444445,1094.75,47.70104166666667C1097.1666666666667,47.50138888888889,1099.5833333333333,47.30173611111111,1102,47.10208333333333C1104.4166666666667,46.902430555555554,1106.8333333333333,46.70277777777778,1109.25,46.503125000000004C1111.6666666666667,46.303472222222226,1114.0833333333333,46.10381944444445,1116.5,45.90416666666667C1118.9166666666667,45.70451388888889,1121.3333333333333,45.50486111111111,1123.75,45.30520833333333C1126.1666666666667,45.105555555555554,1128.5833333333333,44.90590277777778,1131,44.706250000000004C1133.4166666666667,44.506597222222226,1135.8333333333333,44.30694444444445,1138.25,44.10729166666667C1140.6666666666667,43.90763888888889,1143.0833333333333,43.70798611111111,1145.5,43.50833333333333C1147.9166666666667,43.308680555555554,1150.3333333333333,43.10902777777778,1152.75,42.909375000000004C1155.1666666666667,42.709722222222226,1157.5833333333333,42.51006944444445,1160,42.31041666666667C1162.4166666666667,42.11076388888889,1164.8333333333333,41.91111111111111,1167.25,41.71145833333333C1169.6666666666667,41.511805555555554,1172.0833333333333,41.31215277777778,1174.5,41.112500000000004C1176.9166666666667,40.912847222222226,1179.3333333333333,40.71319444444445,1181.75,40.51354166666667C1184.1666666666667,40.31388888888889,1186.5833333333333,40.11423611111111,1189,39.91458333333333C1191.4166666666667,39.714930555555554,1193.8333333333333,39.51527777777778,1196.25,39.315625000000004C1198.6666666666667,39.115972222222226,1201.0833333333333,38.91631944444445,1203.5,38.71666666666667C1205.9166666666667,38.51701388888889,1208.3333333333333,38.3173611111111,1210.75,38.11770833333332C1213.1666666666667,37.91805555555554,1215.5833333333333,37.71840277777777,1218,37.51874999999999C1220.4166666666667,37.31909722222221,1222.8333333333333,37.11944444444443,1225.25,36.919791666666654C1227.6666666666667,36.720138888888876,1230.0833333333333,36.5204861111111,1232.5,36.32083333333332C1234.9166666666667,36.12118055555554,1237.3333333333333,35.92152777777777,1239.75,35.72187499999999C1242.1666666666667,35.52222222222221,1244.5833333333333,35.32256944444443,1247,35.122916666666654C1249.4166666666667,34.923263888888876,1251.8333333333333,34.7236111111111,1254.25,34.52395833333332C1256.6666666666667,34.32430555555554,1259.0833333333333,34.12465277777777,1261.5,33.92499999999999C1263.9166666666667,33.72534722222221,1266.3333333333333,33.52569444444443,1268.75,33.326041666666654C1271.1666666666667,33.126388888888876,1273.5833333333333,32.9267361111111,1276,32.72708333333332C1278.4166666666667,32.52743055555554,1280.8333333333333,32.32777777777777,1283.25,32.12812499999999C1285.6666666666667,31.92847222222221,1288.0833333333333,31.728819444444433,1290.5,31.529166666666654C1292.9166666666667,31.329513888888876,1295.3333333333333,31.129861111111094,1297.75,30.930208333333315C1300.1666666666667,30.730555555555537,1302.5833333333333,30.530902777777765,1305,30.33124999999999C1307.4166666666667,30.131597222222215,1309.8333333333333,29.931944444444433,1312.25,29.732291666666654C1314.6666666666667,29.532638888888876,1317.0833333333333,29.332986111111094,1319.5,29.133333333333315C1321.9166666666667,28.933680555555537,1324.3333333333333,28.734027777777765,1326.75,28.53437499999999C1329.1666666666667,28.334722222222215,1331.5833333333333,28.135069444444433,1334,27.935416666666654C1336.4166666666667,27.735763888888876,1338.8333333333333,27.536111111111094,1341.25,27.336458333333315C1343.6666666666667,27.136805555555537,1346.0833333333333,26.937152777777765,1348.5,26.73749999999999C1350.9166666666667,26.537847222222215,1353.3333333333333,26.338194444444433,1355.75,26.138541666666654C1358.1666666666667,25.938888888888876,1360.5833333333333,25.739236111111094,1363,25.539583333333315C1365.4166666666667,25.339930555555537,1367.8333333333333,25.140277777777765,1370.25,24.94062499999999C1372.6666666666667,24.740972222222215,1375.0833333333333,24.541319444444433,1377.5,24.341666666666654C1379.9166666666667,24.142013888888876,1382.3333333333333,23.942361111111094,1384.75,23.742708333333315C1387.1666666666667,23.543055555555537,1389.5833333333333,23.343402777777765,1392,23.14374999999999C1394.4166666666667,22.944097222222215,1396.8333333333333,22.744444444444433,1399.25,22.544791666666654C1401.6666666666667,22.345138888888876,1404.0833333333333,22.145486111111094,1406.5,21.945833333333315C1408.9166666666667,21.746180555555537,1411.3333333333333,21.546527777777765,1413.75,21.34687499999999C1416.1666666666667,21.147222222222215,1418.5833333333333,20.947569444444433,1421,20.747916666666654C1423.4166666666667,20.548263888888876,1425.8333333333333,20.348611111111094,1428.25,20.148958333333315C1430.6666666666667,19.949305555555537,1433.0833333333333,19.749652777777765,1435.5,19.54999999999999C1437.9166666666667,19.350347222222215,1440.3333333333333,19.150694444444433,1442.75,18.951041666666654C1445.1666666666667,18.751388888888876,1447.5833333333333,18.551736111111094,1450,18.352083333333315" fill="transparent" stroke-linecap="round" stroke="#E7C6DF" stroke-width="2"></path><g class="visx-group visx-axis visx-axis-bottom" transform="translate(0, 115)"><g class="visx-group visx-axis-tick" transform="translate(0, 0)"><line class="visx-line" x1="0" y1="0" x2="0" y2="8" fill="transparent" shape-rendering="crispEdges" stroke="#000" stroke-width="0" stroke-linecap="square"></line><svg x="0" y="0" font-size="10" style="overflow:visible"><text transform="" x="0" y="18" fill="#000" font-size="10" text-anchor="middle"><tspan x="0" dy="0em">0%</tspan></text></svg></g><g class="visx-group visx-axis-tick" transform="translate(0, 0)"><line class="visx-line" x1="362.5" y1="0" x2="362.5" y2="8" fill="transparent" shape-rendering="crispEdges" stroke="#000" stroke-width="0" stroke-linecap="square"></line><svg x="0" y="0" font-size="10" style="overflow:visible"><text transform="" x="362.5" y="18" fill="#000" font-size="10" text-anchor="middle"><tspan x="362.5" dy="0em">25%</tspan></text></svg></g><g class="visx-group visx-axis-tick" transform="translate(0, 0)"><line class="visx-line" x1="725" y1="0" x2="725" y2="8" fill="transparent" shape-rendering="crispEdges" stroke="#000" stroke-width="0" stroke-linecap="square"></line><svg x="0" y="0" font-size="10" style="overflow:visible"><text transform="" x="725" y="18" fill="#000" font-size="10" text-anchor="middle"><tspan x="725" dy="0em">50%</tspan></text></svg></g><g class="visx-group visx-axis-tick" transform="translate(0, 0)"><line class="visx-line" x1="1087.5" y1="0" x2="1087.5" y2="8" fill="transparent" shape-rendering="crispEdges" stroke="#000" stroke-width="0" stroke-linecap="square"></line><svg x="0" y="0" font-size="10" style="overflow:visible"><text transform="" x="1087.5" y="18" fill="#000" font-size="10" text-anchor="middle"><tspan x="1087.5" dy="0em">75%</tspan></text></svg></g><g class="visx-group visx-axis-tick" transform="translate(0, 0)"><line class="visx-line" x1="1450" y1="0" x2="1450" y2="8" fill="transparent" shape-rendering="crispEdges" stroke="#000" stroke-width="0" stroke-linecap="square"></line><svg x="0" y="0" font-size="10" style="overflow:visible"><text transform="" x="1450" y="18" fill="#000" font-size="10" text-anchor="middle"><tspan x="1450" dy="0em">100%</tspan></text></svg></g><line class="visx-line visx-axis-line" x1="0.5" y1="0" x2="1450.5" y2="0" fill="transparent" shape-rendering="crispEdges" stroke="#222" stroke-width="0"></line></g><g class="visx-group visx-axis visx-axis-left" transform="translate(0, 0)"><g class="visx-group visx-axis-tick" transform="translate(0, 0)"><line class="visx-line" x1="0" y1="115" x2="-8" y2="115" fill="transparent" shape-rendering="crispEdges" stroke="#222" stroke-width="0" stroke-linecap="square"></line><svg x="-30" y="0" font-size="8" style="overflow:visible"><text transform="" x="-8" y="115" fill="#000" font-size="8" text-anchor="start"><tspan x="-8" dy="0em">0%</tspan></text></svg></g><g class="visx-group visx-axis-tick" transform="translate(0, 0)"><line class="visx-line" x1="0" y1="67.08333333333333" x2="-8" y2="67.08333333333333" fill="transparent" shape-rendering="crispEdges" stroke="#222" stroke-width="0" stroke-linecap="square"></line><svg x="-30" y="0" font-size="8" style="overflow:visible"><text transform="" x="-8" y="67.08333333333333" fill="#000" font-size="8" text-anchor="start"><tspan x="-8" dy="0em">1000%</tspan></text></svg></g><g class="visx-group visx-axis-tick" transform="translate(0, 0)"><line class="visx-line" x1="0" y1="19.16666666666666" x2="-8" y2="19.16666666666666" fill="transparent" shape-rendering="crispEdges" stroke="#222" stroke-width="0" stroke-linecap="square"></line><svg x="-30" y="0" font-size="8" style="overflow:visible"><text transform="" x="-8" y="19.16666666666666" fill="#000" font-size="8" text-anchor="start"><tspan x="-8" dy="0em">2000%</tspan></text></svg></g><line class="visx-line visx-axis-line" x1="0" y1="115.5" x2="0" y2="0.5" fill="transparent" shape-rendering="crispEdges" stroke="#222" stroke-width="0"></line></g><rect class="visx-bar" width="1450" height="115" fill="transparent"></rect><line class="visx-line" x1="290" y1="28" x2="290" y2="115" fill="transparent" shape-rendering="crispEdges" stroke="#0062D2" stroke-width="1" pointer-events="none" stroke-dasharray="5,2"></line><svg x="0" y="0" font-size="10px" style="overflow:visible"><text transform="" x="290" y="20" font-size="10px" fill="#fff" stroke="#fff" stroke-width="0.8em" text-anchor="middle"><tspan x="290" dy="0.355em">Optimal 20%</tspan></text></svg><svg x="0" y="0" font-size="10px" style="overflow:visible"><text transform="" x="290" y="20" font-size="10px" fill="#62677B" text-anchor="middle"><tspan x="290" dy="0.355em">Optimal 20%</tspan></text></svg></g></svg>