<?xml version="1.0"?><svg xmlns="http://www.w3.org/2000/svg" xmlns:xlink= "http://www.w3.org/1999/xlink" style="background: white;" width="1500" height="185"> <g style="color: black; font-size: 13px; font-family: sans-serif; transform: translate(18px, 25px);"><g><circle r="3" cx="-6" cy="-5" style="fill: #B6509E" /><text>Borrow APR, variable</text></g><g style="transform: translateX(150px);"><circle r="3" cx="-6" cy="-5" style="fill: rgb(231, 198, 223)" /><text>Borrow APR, stable</text></g><g style="transform: translateX(290px);"><circle r="3" cx="-6" cy="-5" style="fill: rgb(0, 98, 210)" /><text>Utilization Rate</text></g></g><g class="visx-group" transform="translate(40, 50)"><g class="visx-group visx-rows" transform="translate(0, 0)"><line class="visx-line" x1="0" y1="115" x2="1450" y2="115" fill="transparent" shape-rendering="crispEdges" stroke="#000" stroke-width="1" stroke-dasharray="3,3" pointer-events="none"></line><line class="visx-line" x1="0" y1="62.72727272727272" x2="1450" y2="62.72727272727272" fill="transparent" shape-rendering="crispEdges" stroke="#000" stroke-width="1" stroke-dasharray="3,3" pointer-events="none"></line><line class="visx-line" x1="0" y1="10.454545454545459" x2="1450" y2="10.454545454545459" fill="transparent" shape-rendering="crispEdges" stroke="#000" stroke-width="1" stroke-dasharray="3,3" pointer-events="none"></line></g><path class="visx-linepath" d="M0,112.38636363621988C2.4166666666666665,112.36240530294644,4.833333333333334,112.338446969673,7.25,112.31448863636363C9.666666666666666,112.29053030305427,12.083333333333334,112.26657196969697,14.5,112.24261363636364C16.916666666666668,112.21865530303032,19.333333333333332,112.19469696969698,21.75,112.17073863636364C24.166666666666668,112.1467803030303,26.583333333333332,112.12282196969696,29,112.09886363636363C31.416666666666668,112.0749053030303,33.833333333333336,112.05094696969698,36.25,112.02698863636364C38.666666666666664,112.0030303030303,41.083333333333336,111.97907196969696,43.5,111.95511363636363C45.91666666666667,111.9311553030303,48.333333333333336,111.90719696969698,50.75000000000001,111.88323863636364C53.16666666666667,111.85928030303032,55.583333333333336,111.83532196969696,58,111.81136363636364C60.416666666666664,111.7874053030303,62.833333333333336,111.76344696969699,65.25,111.73948863636365C67.66666666666667,111.7155303030303,70.08333333333333,111.69157196969698,72.5,111.66761363636364C74.91666666666667,111.6436553030303,77.33333333333333,111.61969696969699,79.75,111.59573863636365C82.16666666666667,111.57178030303031,84.58333333333333,111.54782196969697,87,111.52386363636363C89.41666666666667,111.49990530303029,91.83333333333333,111.47594696969696,94.25,111.45198863636364C96.66666666666667,111.4280303030303,99.08333333333334,111.40407196969697,101.50000000000001,111.38011363636363C103.91666666666667,111.3561553030303,106.33333333333334,111.33219696969697,108.75,111.30823863636364C111.16666666666667,111.2842803030303,113.58333333333333,111.26032196969696,116,111.23636363636363C118.41666666666667,111.2124053030303,120.83333333333334,111.18844696969698,123.25000000000001,111.16448863636364C125.66666666666667,111.14053030303032,128.08333333333334,111.11657196969696,130.5,111.09261363636364C132.91666666666666,111.0686553030303,135.33333333333334,111.04469696969699,137.75,111.02073863636365C140.16666666666666,110.9967803030303,142.58333333333334,110.97282196969697,145,110.94886363636363C147.41666666666666,110.92490530303029,149.83333333333334,110.90094696969697,152.25,110.87698863636363C154.66666666666666,110.8530303030303,157.08333333333334,110.82907196969697,159.5,110.80511363636363C161.91666666666666,110.78115530303029,164.33333333333334,110.75719696969696,166.75,110.73323863636364C169.16666666666666,110.70928030303031,171.58333333333334,110.68532196969696,174,110.66136363636363C176.41666666666666,110.6374053030303,178.83333333333334,110.61344696969698,181.25,110.58948863636364C183.66666666666666,110.5655303030303,186.08333333333334,110.54157196969697,188.5,110.51761363636363C190.91666666666666,110.4936553030303,193.33333333333334,110.46969696969697,195.75,110.44573863636364C198.16666666666669,110.4217803030303,200.58333333333334,110.39782196969698,203.00000000000003,110.37386363636364C205.41666666666669,110.3499053030303,207.83333333333331,110.32594696969696,210.24999999999997,110.30198863636363C212.66666666666666,110.27803030303029,215.08333333333331,110.25407196969698,217.5,110.23011363636364C219.91666666666666,110.20615530303031,222.33333333333334,110.18219696969697,224.75,110.15823863636363C227.16666666666666,110.1342803030303,229.58333333333334,110.11032196969697,232,110.08636363636364C234.41666666666666,110.06240530303032,236.83333333333334,110.03844696969696,239.25,110.01448863636364C241.66666666666669,109.9905303030303,244.08333333333334,109.96657196969699,246.50000000000003,109.94261363636365C248.91666666666669,109.91865530303032,251.33333333333331,109.89469696969698,253.74999999999997,109.87073863636364C256.16666666666663,109.8467803030303,258.5833333333333,109.82282196969697,261,109.79886363636363C263.4166666666667,109.7749053030303,265.8333333333333,109.75094696969697,268.25,109.72698863636363C270.6666666666667,109.70303030303029,273.0833333333333,109.67907196969696,275.5,109.65511363636364C277.9166666666667,109.63115530303031,280.3333333333333,109.60719696969696,282.75,109.58323863636363C285.1666666666667,109.5592803030303,287.5833333333333,109.53532196969698,290,109.51136363636364C292.4166666666667,109.4874053030303,294.8333333333333,109.46344696969697,297.25,109.43948863636363C299.6666666666667,109.4155303030303,302.0833333333333,109.39157196969697,304.5,109.36761363636364C306.9166666666667,109.34365530303032,309.3333333333333,109.31969696969698,311.75,109.29573863636364C314.1666666666667,109.2717803030303,316.5833333333333,109.24782196969697,319,109.22386363636363C321.4166666666667,109.19990530303029,323.8333333333333,109.17594696969695,326.25,109.15198863636363C328.6666666666667,109.1280303030303,331.0833333333333,109.10407196969697,333.5,109.08011363636363C335.9166666666667,109.0561553030303,338.3333333333333,109.03219696969697,340.75,109.00823863636363C343.1666666666667,108.98428030303029,345.5833333333333,108.96032196969696,348,108.93636363636364C350.4166666666667,108.91240530303031,352.8333333333333,108.88844696969696,355.25,108.86448863636363C357.6666666666667,108.8405303030303,360.0833333333333,108.81657196969698,362.5,108.79261363636364C364.9166666666667,108.7686553030303,367.3333333333333,108.74469696969697,369.75,108.72073863636363C372.1666666666667,108.6967803030303,374.5833333333333,108.67282196969697,377,108.64886363636364C379.4166666666667,108.62490530303032,381.8333333333333,108.60094696969698,384.25,108.57698863636364C386.6666666666667,108.5530303030303,389.0833333333333,108.52907196969696,391.5,108.50511363636363C393.9166666666667,108.48115530303029,396.33333333333337,108.45719696969698,398.75000000000006,108.43323863636364C401.16666666666674,108.40928030303031,403.58333333333337,108.38532196969697,406.00000000000006,108.36136363636363C408.4166666666667,108.33740530303031,410.8333333333333,108.31344696969697,413.24999999999994,108.28948863636364C415.66666666666663,108.2655303030303,418.08333333333326,108.24157196969696,420.49999999999994,108.21761363636364C422.91666666666663,108.1936553030303,425.3333333333333,108.16969696969699,427.75,108.14573863636365C430.1666666666667,108.12178030303032,432.5833333333333,108.09782196969698,435,108.07386363636364C437.4166666666667,108.0499053030303,439.8333333333333,108.02594696969699,442.25,108.00198863636365C444.6666666666667,107.97803030303031,447.0833333333333,107.95407196969697,449.5,107.93011363636363C451.9166666666667,107.90615530303029,454.3333333333333,107.88219696969696,456.75,107.85823863636364C459.1666666666667,107.83428030303031,461.5833333333333,107.81032196969696,464,107.78636363636363C466.4166666666667,107.7624053030303,468.8333333333333,107.73844696969698,471.25,107.71448863636364C473.6666666666667,107.6905303030303,476.0833333333333,107.66657196969696,478.5,107.64261363636363C480.9166666666667,107.6186553030303,483.33333333333337,107.59469696969698,485.75000000000006,107.57073863636364C488.16666666666674,107.54678030303032,490.58333333333337,107.52282196969698,493.00000000000006,107.49886363636364C495.4166666666667,107.4749053030303,497.8333333333333,107.45094696969697,500.24999999999994,107.42698863636363C502.66666666666663,107.40303030303029,505.08333333333326,107.37907196969695,507.49999999999994,107.35511363636363C509.91666666666663,107.33115530303029,512.3333333333333,107.30719696969697,514.75,107.28323863636363C517.1666666666666,107.25928030303031,519.5833333333334,107.23532196969697,522,107.21136363636363C524.4166666666666,107.18740530303029,526.8333333333334,107.16344696969696,529.25,107.13948863636364C531.6666666666666,107.11553030303031,534.0833333333334,107.09157196969696,536.5,107.06761363636363C538.9166666666666,107.0436553030303,541.3333333333334,107.01969696969698,543.75,106.99573863636364C546.1666666666666,106.9717803030303,548.5833333333334,106.94782196969697,551,106.92386363636363C553.4166666666666,106.8999053030303,555.8333333333334,106.87594696969697,558.25,106.85198863636364C560.6666666666666,106.82803030303032,563.0833333333334,106.80407196969698,565.5,106.78011363636364C567.9166666666666,106.7561553030303,570.3333333333334,106.73219696969696,572.75,106.70823863636363C575.1666666666666,106.6842803030303,577.5833333333334,106.66032196969698,580,106.63636363636364C582.4166666666666,106.6124053030303,584.8333333333334,106.58844696969697,587.25,106.56448863636363C589.6666666666666,106.5405303030303,592.0833333333334,106.51657196969697,594.5,106.49261363636364C596.9166666666666,106.46865530303032,599.3333333333334,106.44469696969696,601.75,106.42073863636364C604.1666666666666,106.39678030303031,606.5833333333334,106.37282196969699,609,106.34886363636365C611.4166666666666,106.3249053030303,613.8333333333334,106.30094696969698,616.25,106.27698863636364C618.6666666666666,106.2530303030303,621.0833333333334,106.22907196969697,623.5,106.20511363636363C625.9166666666666,106.1811553030303,628.3333333333334,106.15719696969697,630.75,106.13323863636363C633.1666666666666,106.10928030303029,635.5833333333334,106.08532196969696,638,106.06136363636364C640.4166666666666,106.03740530303031,642.8333333333334,106.01344696969696,645.25,105.98948863636363C647.6666666666666,105.9655303030303,650.0833333333334,105.94157196969698,652.5,105.91761363636364C654.9166666666666,105.8936553030303,657.3333333333334,105.86969696969697,659.75,105.84573863636363C662.1666666666666,105.8217803030303,664.5833333333334,105.79782196969697,667,105.77386363636364C669.4166666666666,105.74990530303032,671.8333333333334,105.72594696969698,674.25,105.70198863636364C676.6666666666666,105.6780303030303,679.0833333333334,105.65407196969697,681.5,105.63011363636363C683.9166666666666,105.60615530303029,686.3333333333334,105.58219696969695,688.75,105.55823863636363C691.1666666666666,105.5342803030303,693.5833333333334,105.51032196969697,696,105.48636363636363C698.4166666666666,105.4624053030303,700.8333333333334,105.43844696969697,703.25,105.41448863636363C705.6666666666666,105.39053030303029,708.0833333333334,105.36657196969696,710.5,105.34261363636364C712.9166666666666,105.31865530303031,715.3333333333334,105.29469696969696,717.75,105.27073863636363C720.1666666666666,105.2467803030303,722.5833333333334,105.22282196969698,725,105.19886363636364C727.4166666666666,105.1749053030303,729.8333333333334,105.15094696969697,732.25,105.12698863636363C734.6666666666666,105.1030303030303,737.0833333333334,105.07907196969697,739.5,105.05511363636364C741.9166666666666,105.03115530303032,744.3333333333334,105.00719696969698,746.75,104.98323863636364C749.1666666666666,104.9592803030303,751.5833333333334,104.93532196969696,754,104.91136363636363C756.4166666666666,104.8874053030303,758.8333333333334,104.86344696969698,761.25,104.83948863636364C763.6666666666666,104.8155303030303,766.0833333333334,104.79157196969697,768.5,104.76761363636363C770.9166666666666,104.7436553030303,773.3333333333334,104.71969696969697,775.75,104.69573863636364C778.1666666666666,104.67178030303032,780.5833333333334,104.64782196969696,783,104.62386363636364C785.4166666666667,104.5999053030303,787.8333333333334,104.57594696969699,790.2500000000001,104.55198863636365C792.6666666666667,104.52803030303032,795.0833333333335,104.50407196969698,797.5000000000001,104.48011363636364C799.9166666666667,104.4561553030303,802.3333333333335,104.43219696969699,804.7500000000001,104.40823863636365C807.1666666666667,104.38428030303031,809.5833333333335,104.36032196969697,812.0000000000001,104.33636363636363C814.4166666666667,104.31240530303029,816.8333333333333,104.28844696969696,819.2499999999999,104.26448863636364C821.6666666666665,104.2405303030303,824.0833333333333,104.21657196969696,826.4999999999999,104.19261363636363C828.9166666666665,104.1686553030303,831.3333333333333,104.14469696969698,833.7499999999999,104.12073863636364C836.1666666666665,104.0967803030303,838.5833333333333,104.07282196969696,840.9999999999999,104.04886363636363C843.4166666666666,104.0249053030303,845.8333333333333,104.00094696969698,848.25,103.97698863636364C850.6666666666666,103.95303030303032,853.0833333333334,103.92907196969698,855.5,103.90511363636364C857.9166666666666,103.8811553030303,860.3333333333334,103.85719696969697,862.75,103.83323863636363C865.1666666666666,103.80928030303029,867.5833333333334,103.78532196969695,870,103.76136363636363C872.4166666666666,103.7374053030303,874.8333333333334,103.71344696969697,877.25,103.68948863636363C879.6666666666666,103.6655303030303,882.0833333333334,103.64157196969697,884.5,103.61761363636363C886.9166666666666,103.59365530303029,889.3333333333334,103.56969696969696,891.75,103.54573863636364C894.1666666666666,103.52178030303031,896.5833333333334,103.49782196969696,899,103.47386363636363C901.4166666666666,103.4499053030303,903.8333333333334,103.42594696969698,906.25,103.40198863636364C908.6666666666666,103.3780303030303,911.0833333333334,103.35407196969697,913.5,103.33011363636363C915.9166666666666,103.3061553030303,918.3333333333334,103.28219696969697,920.75,103.25823863636364C923.1666666666666,103.23428030303032,925.5833333333334,103.21032196969698,928,103.18636363636364C930.4166666666666,103.1624053030303,932.8333333333334,103.13844696969696,935.25,103.11448863636363C937.6666666666666,103.0905303030303,940.0833333333334,103.06657196969698,942.5,103.04261363636364C944.9166666666666,103.0186553030303,947.3333333333334,102.99469696969697,949.75,102.97073863636363C952.1666666666666,102.9467803030303,954.5833333333334,102.92282196969697,957,102.89886363636364C959.4166666666666,102.87490530303032,961.8333333333334,102.85094696969696,964.25,102.82698863636364C966.6666666666667,102.8030303030303,969.0833333333334,102.77907196969699,971.5000000000001,102.75511363636365C973.9166666666667,102.73115530303032,976.3333333333335,102.70719696969698,978.7500000000001,102.68323863636364C981.1666666666667,102.6592803030303,983.5833333333335,102.63532196969699,986.0000000000001,102.61136363636365C988.4166666666667,102.58740530303031,990.8333333333335,102.56344696969697,993.2500000000001,102.53948863636363C995.6666666666667,102.51553030303029,998.0833333333333,102.49157196969696,1000.4999999999999,102.46761363636364C1002.9166666666665,102.4436553030303,1005.3333333333333,102.41969696969696,1007.7499999999999,102.39573863636363C1010.1666666666665,102.3717803030303,1012.5833333333333,102.34782196969698,1014.9999999999999,102.32386363636364C1017.4166666666665,102.2999053030303,1019.8333333333333,102.27594696969696,1022.2499999999999,102.25198863636363C1024.6666666666665,102.2280303030303,1027.0833333333333,102.20407196969698,1029.5,102.18011363636364C1031.9166666666667,102.15615530303032,1034.3333333333333,102.13219696969698,1036.75,102.10823863636364C1039.1666666666667,102.0842803030303,1041.5833333333333,102.06032196969697,1044,102.03636363636363C1046.4166666666667,102.01240530303029,1048.8333333333333,101.98844696969695,1051.25,101.96448863636363C1053.6666666666667,101.9405303030303,1056.0833333333333,101.91657196969697,1058.5,101.89261363636363C1060.9166666666667,101.8686553030303,1063.3333333333333,101.84469696969697,1065.75,101.82073863636363C1068.1666666666667,101.79678030303029,1070.5833333333333,101.77282196969696,1073,101.74886363636364C1075.4166666666667,101.72490530303031,1077.8333333333333,101.70094696969696,1080.25,101.67698863636363C1082.6666666666667,101.6530303030303,1085.0833333333333,101.62907196969698,1087.5,101.60511363636364C1089.9166666666667,101.5811553030303,1092.3333333333333,101.55719696969697,1094.75,101.53323863636363C1097.1666666666667,101.5092803030303,1099.5833333333333,101.48532196969697,1102,101.46136363636364C1104.4166666666667,101.43740530303032,1106.8333333333333,101.41344696969696,1109.25,101.38948863636364C1111.6666666666667,101.36553030303031,1114.0833333333333,101.34157196969699,1116.5,101.31761363636365C1118.9166666666667,101.2936553030303,1121.3333333333333,101.26969696969698,1123.75,101.24573863636364C1126.1666666666667,101.2217803030303,1128.5833333333333,101.19782196969697,1131,101.17386363636363C1133.4166666666667,101.1499053030303,1135.8333333333333,101.12594696969697,1138.25,101.10198863636364C1140.6666666666667,101.07803030303032,1143.0833333333333,101.05407196969696,1145.5,101.03011363636364C1147.9166666666667,101.00615530303031,1150.3333333333333,100.98219696969699,1152.75,100.95823863636365C1155.1666666666667,100.9342803030303,1157.5833333333333,100.9342803030303,1160,100.88636363636364C1162.4166666666667,100.83844696969697,1164.8333333333333,99.57954545454545,1167.25,98.92613636363636C1169.6666666666667,98.27272727272727,1172.0833333333333,97.61931818181819,1174.5,96.9659090909091C1176.9166666666667,96.3125,1179.3333333333333,95.65909090909092,1181.75,95.00568181818183C1184.1666666666667,94.35227272727273,1186.5833333333333,93.69886363636364,1189,93.04545454545455C1191.4166666666667,92.39204545454545,1193.8333333333333,91.73863636363636,1196.25,91.08522727272727C1198.6666666666667,90.43181818181817,1201.0833333333333,89.7784090909091,1203.5,89.125C1205.9166666666667,88.4715909090909,1208.3333333333333,87.81818181818181,1210.75,87.16477272727272C1213.1666666666667,86.51136363636363,1215.5833333333333,85.85795454545456,1218,85.20454545454547C1220.4166666666667,84.55113636363637,1222.8333333333333,83.89772727272728,1225.25,83.24431818181819C1227.6666666666667,82.5909090909091,1230.0833333333333,81.9375,1232.5,81.2840909090909C1234.9166666666667,80.63068181818181,1237.3333333333333,79.97727272727272,1239.75,79.32386363636363C1242.1666666666667,78.67045454545453,1244.5833333333333,78.01704545454545,1247,77.36363636363636C1249.4166666666667,76.71022727272727,1251.8333333333333,76.05681818181819,1254.25,75.4034090909091C1256.6666666666667,74.75,1259.0833333333333,74.09659090909092,1261.5,73.44318181818183C1263.9166666666667,72.78977272727273,1266.3333333333333,72.13636363636364,1268.75,71.48295454545455C1271.1666666666667,70.82954545454545,1273.5833333333333,70.17613636363636,1276,69.52272727272727C1278.4166666666667,68.86931818181817,1280.8333333333333,68.2159090909091,1283.25,67.5625C1285.6666666666667,66.9090909090909,1288.0833333333333,66.25568181818181,1290.5,65.60227272727272C1292.9166666666667,64.94886363636363,1295.3333333333333,64.29545454545455,1297.75,63.64204545454546C1300.1666666666667,62.988636363636374,1302.5833333333333,62.33522727272727,1305,61.68181818181818C1307.4166666666667,61.028409090909086,1309.8333333333333,60.375,1312.25,59.72159090909091C1314.6666666666667,59.06818181818181,1317.0833333333333,58.41477272727271,1319.5,57.761363636363626C1321.9166666666667,57.10795454545454,1324.3333333333333,56.45454545454545,1326.75,55.80113636363637C1329.1666666666667,55.14772727272728,1331.5833333333333,54.49431818181818,1334,53.840909090909086C1336.4166666666667,53.18749999999999,1338.8333333333333,52.534090909090914,1341.25,51.88068181818182C1343.6666666666667,51.22727272727273,1346.0833333333333,50.573863636363626,1348.5,49.92045454545453C1350.9166666666667,49.26704545454544,1353.3333333333333,48.61363636363635,1355.75,47.960227272727266C1358.1666666666667,47.30681818181818,1360.5833333333333,46.65340909090909,1363,46C1365.4166666666667,45.34659090909091,1367.8333333333333,44.69318181818181,1370.25,44.03977272727273C1372.6666666666667,43.38636363636364,1375.0833333333333,42.732954545454554,1377.5,42.07954545454546C1379.9166666666667,41.42613636363637,1382.3333333333333,40.77272727272727,1384.75,40.11931818181818C1387.1666666666667,39.465909090909086,1389.5833333333333,38.8125,1392,38.15909090909091C1394.4166666666667,37.50568181818181,1396.8333333333333,36.852272727272734,1399.25,36.19886363636364C1401.6666666666667,35.54545454545455,1404.0833333333333,34.89204545454546,1406.5,34.23863636363637C1408.9166666666667,33.58522727272727,1411.3333333333333,32.93181818181818,1413.75,32.278409090909086C1416.1666666666667,31.624999999999996,1418.5833333333333,30.97159090909091,1421,30.31818181818182C1423.4166666666667,29.66477272727273,1425.8333333333333,29.011363636363637,1428.25,28.357954545454543C1430.6666666666667,27.70454545454545,1433.0833333333333,27.051136363636356,1435.5,26.397727272727266C1437.9166666666667,25.744318181818176,1440.3333333333333,25.090909090909093,1442.75,24.437500000000004C1445.1666666666667,23.784090909090914,1447.5833333333333,23.13068181818182,1450,22.477272727272727" fill="transparent" stroke-linecap="round" stroke="#B6509E" stroke-width="2"></path><path class="visx-linepath" d="M0,109.77272727258352C2.4166666666666665,109.74876893931008,4.833333333333334,109.72481060603664,7.25,109.70085227272726C9.666666666666666,109.67689393941788,12.083333333333334,109.6529356060606,14.5,109.62897727272727C16.916666666666668,109.60501893939394,19.333333333333332,109.58106060606059,21.75,109.55710227272726C24.166666666666668,109.53314393939394,26.583333333333332,109.50918560606061,29,109.48522727272727C31.416666666666668,109.46126893939393,33.833333333333336,109.4373106060606,36.25,109.41335227272727C38.666666666666664,109.38939393939393,41.083333333333336,109.3654356060606,43.5,109.34147727272727C45.91666666666667,109.31751893939393,48.333333333333336,109.29356060606061,50.75000000000001,109.26960227272727C53.16666666666667,109.24564393939394,55.583333333333336,109.2216856060606,58,109.19772727272728C60.416666666666664,109.17376893939394,62.833333333333336,109.14981060606061,65.25,109.12585227272727C67.66666666666667,109.10189393939393,70.08333333333333,109.0779356060606,72.5,109.05397727272727C74.91666666666667,109.03001893939393,77.33333333333333,109.0060606060606,79.75,108.98210227272727C82.16666666666667,108.95814393939395,84.58333333333333,108.9341856060606,87,108.91022727272727C89.41666666666667,108.88626893939394,91.83333333333333,108.8623106060606,94.25,108.83835227272728C96.66666666666667,108.81439393939394,99.08333333333334,108.79043560606061,101.50000000000001,108.76647727272727C103.91666666666667,108.74251893939395,106.33333333333334,108.7185606060606,108.75,108.69460227272728C111.16666666666667,108.67064393939394,113.58333333333333,108.6466856060606,116,108.62272727272727C118.41666666666667,108.59876893939393,120.83333333333334,108.57481060606062,123.25000000000001,108.55085227272728C125.66666666666667,108.52689393939396,128.08333333333334,108.50293560606062,130.5,108.47897727272728C132.91666666666666,108.45501893939394,135.33333333333334,108.43106060606061,137.75,108.40710227272727C140.16666666666666,108.38314393939393,142.58333333333334,108.3591856060606,145,108.33522727272727C147.41666666666666,108.31126893939393,149.83333333333334,108.2873106060606,152.25,108.26335227272727C154.66666666666666,108.23939393939395,157.08333333333334,108.2154356060606,159.5,108.19147727272727C161.91666666666666,108.16751893939394,164.33333333333334,108.14356060606062,166.75,108.11960227272728C169.16666666666666,108.09564393939394,171.58333333333334,108.07168560606061,174,108.04772727272727C176.41666666666666,108.02376893939393,178.83333333333334,107.99981060606062,181.25,107.97585227272728C183.66666666666666,107.95189393939394,186.08333333333334,107.9279356060606,188.5,107.90397727272726C190.91666666666666,107.88001893939392,193.33333333333334,107.8560606060606,195.75,107.83210227272727C198.16666666666669,107.80814393939393,200.58333333333334,107.7841856060606,203.00000000000003,107.76022727272726C205.41666666666669,107.73626893939394,207.83333333333331,107.7123106060606,210.24999999999997,107.68835227272727C212.66666666666666,107.66439393939393,215.08333333333331,107.6404356060606,217.5,107.61647727272727C219.91666666666666,107.59251893939394,222.33333333333334,107.5685606060606,224.75,107.54460227272727C227.16666666666666,107.52064393939395,229.58333333333334,107.4966856060606,232,107.47272727272727C234.41666666666666,107.44876893939394,236.83333333333334,107.4248106060606,239.25,107.40085227272728C241.66666666666669,107.37689393939394,244.08333333333334,107.35293560606061,246.50000000000003,107.32897727272727C248.91666666666669,107.30501893939393,251.33333333333331,107.28106060606059,253.74999999999997,107.25710227272727C256.16666666666663,107.23314393939393,258.5833333333333,107.20918560606061,261,107.18522727272727C263.4166666666667,107.16126893939395,265.8333333333333,107.1373106060606,268.25,107.11335227272727C270.6666666666667,107.08939393939394,273.0833333333333,107.06543560606062,275.5,107.04147727272728C277.9166666666667,107.01751893939394,280.3333333333333,106.99356060606061,282.75,106.96960227272727C285.1666666666667,106.94564393939393,287.5833333333333,106.9216856060606,290,106.89772727272728C292.4166666666667,106.87376893939395,294.8333333333333,106.8498106060606,297.25,106.82585227272727C299.6666666666667,106.80189393939395,302.0833333333333,106.77793560606062,304.5,106.75397727272728C306.9166666666667,106.73001893939394,309.3333333333333,106.70606060606062,311.75,106.68210227272728C314.1666666666667,106.65814393939394,316.5833333333333,106.63418560606061,319,106.61022727272727C321.4166666666667,106.58626893939393,323.8333333333333,106.5623106060606,326.25,106.53835227272727C328.6666666666667,106.51439393939393,331.0833333333333,106.4904356060606,333.5,106.46647727272727C335.9166666666667,106.44251893939395,338.3333333333333,106.4185606060606,340.75,106.39460227272727C343.1666666666667,106.37064393939394,345.5833333333333,106.34668560606062,348,106.32272727272728C350.4166666666667,106.29876893939394,352.8333333333333,106.27481060606061,355.25,106.25085227272727C357.6666666666667,106.22689393939393,360.0833333333333,106.20293560606062,362.5,106.17897727272728C364.9166666666667,106.15501893939394,367.3333333333333,106.1310606060606,369.75,106.10710227272726C372.1666666666667,106.08314393939392,374.5833333333333,106.0591856060606,377,106.03522727272727C379.4166666666667,106.01126893939394,381.8333333333333,105.98731060606059,384.25,105.96335227272726C386.6666666666667,105.93939393939394,389.0833333333333,105.9154356060606,391.5,105.89147727272727C393.9166666666667,105.86751893939393,396.33333333333337,105.8435606060606,398.75000000000006,105.81960227272727C401.16666666666674,105.79564393939394,403.58333333333337,105.77168560606061,406.00000000000006,105.74772727272727C408.4166666666667,105.72376893939395,410.8333333333333,105.6998106060606,413.24999999999994,105.67585227272727C415.66666666666663,105.65189393939393,418.08333333333326,105.6279356060606,420.49999999999994,105.60397727272728C422.91666666666663,105.58001893939394,425.3333333333333,105.55606060606061,427.75,105.53210227272727C430.1666666666667,105.50814393939393,432.5833333333333,105.4841856060606,435,105.46022727272727C437.4166666666667,105.43626893939393,439.8333333333333,105.4123106060606,442.25,105.38835227272727C444.6666666666667,105.36439393939395,447.0833333333333,105.3404356060606,449.5,105.31647727272727C451.9166666666667,105.29251893939394,454.3333333333333,105.26856060606062,456.75,105.24460227272728C459.1666666666667,105.22064393939394,461.5833333333333,105.19668560606061,464,105.17272727272727C466.4166666666667,105.14876893939393,468.8333333333333,105.1248106060606,471.25,105.10085227272728C473.6666666666667,105.07689393939395,476.0833333333333,105.0529356060606,478.5,105.02897727272727C480.9166666666667,105.00501893939393,483.33333333333337,104.98106060606062,485.75000000000006,104.95710227272728C488.16666666666674,104.93314393939394,490.58333333333337,104.9091856060606,493.00000000000006,104.88522727272726C495.4166666666667,104.86126893939392,497.8333333333333,104.8373106060606,500.24999999999994,104.81335227272727C502.66666666666663,104.78939393939393,505.08333333333326,104.76543560606059,507.49999999999994,104.74147727272727C509.91666666666663,104.71751893939393,512.3333333333333,104.69356060606061,514.75,104.66960227272727C517.1666666666666,104.64564393939395,519.5833333333334,104.6216856060606,522,104.59772727272727C524.4166666666666,104.57376893939394,526.8333333333334,104.54981060606062,529.25,104.52585227272728C531.6666666666666,104.50189393939394,534.0833333333334,104.47793560606061,536.5,104.45397727272727C538.9166666666666,104.43001893939393,541.3333333333334,104.40606060606062,543.75,104.38210227272728C546.1666666666666,104.35814393939394,548.5833333333334,104.3341856060606,551,104.31022727272726C553.4166666666666,104.28626893939392,555.8333333333334,104.26231060606062,558.25,104.23835227272728C560.6666666666666,104.21439393939394,563.0833333333334,104.1904356060606,565.5,104.16647727272726C567.9166666666666,104.14251893939392,570.3333333333334,104.11856060606061,572.75,104.09460227272727C575.1666666666666,104.07064393939393,577.5833333333334,104.0466856060606,580,104.02272727272727C582.4166666666666,103.99876893939393,584.8333333333334,103.9748106060606,587.25,103.95085227272727C589.6666666666666,103.92689393939395,592.0833333333334,103.9029356060606,594.5,103.87897727272727C596.9166666666666,103.85501893939394,599.3333333333334,103.83106060606062,601.75,103.80710227272728C604.1666666666666,103.78314393939394,606.5833333333334,103.75918560606061,609,103.73522727272727C611.4166666666666,103.71126893939393,613.8333333333334,103.6873106060606,616.25,103.66335227272727C618.6666666666666,103.63939393939393,621.0833333333334,103.6154356060606,623.5,103.59147727272727C625.9166666666666,103.56751893939395,628.3333333333334,103.5435606060606,630.75,103.51960227272727C633.1666666666666,103.49564393939394,635.5833333333334,103.47168560606062,638,103.44772727272728C640.4166666666666,103.42376893939394,642.8333333333334,103.39981060606061,645.25,103.37585227272727C647.6666666666666,103.35189393939393,650.0833333333334,103.3279356060606,652.5,103.30397727272728C654.9166666666666,103.28001893939395,657.3333333333334,103.25606060606061,659.75,103.23210227272727C662.1666666666666,103.20814393939393,664.5833333333334,103.1841856060606,667,103.16022727272727C669.4166666666666,103.13626893939394,671.8333333333334,103.11231060606062,674.25,103.08835227272728C676.6666666666666,103.06439393939394,679.0833333333334,103.04043560606061,681.5,103.01647727272727C683.9166666666666,102.99251893939393,686.3333333333334,102.9685606060606,688.75,102.94460227272727C691.1666666666666,102.92064393939393,693.5833333333334,102.8966856060606,696,102.87272727272727C698.4166666666666,102.84876893939395,700.8333333333334,102.8248106060606,703.25,102.80085227272727C705.6666666666666,102.77689393939394,708.0833333333334,102.75293560606062,710.5,102.72897727272728C712.9166666666666,102.70501893939394,715.3333333333334,102.68106060606061,717.75,102.65710227272727C720.1666666666666,102.63314393939393,722.5833333333334,102.60918560606062,725,102.58522727272728C727.4166666666666,102.56126893939394,729.8333333333334,102.5373106060606,732.25,102.51335227272726C734.6666666666666,102.48939393939392,737.0833333333334,102.46543560606062,739.5,102.44147727272728C741.9166666666666,102.41751893939394,744.3333333333334,102.3935606060606,746.75,102.36960227272726C749.1666666666666,102.34564393939392,751.5833333333334,102.32168560606061,754,102.29772727272727C756.4166666666666,102.27376893939393,758.8333333333334,102.2498106060606,761.25,102.22585227272727C763.6666666666666,102.20189393939393,766.0833333333334,102.1779356060606,768.5,102.15397727272727C770.9166666666666,102.13001893939395,773.3333333333334,102.1060606060606,775.75,102.08210227272727C778.1666666666666,102.05814393939394,780.5833333333334,102.0341856060606,783,102.01022727272728C785.4166666666667,101.98626893939394,787.8333333333334,101.96231060606061,790.2500000000001,101.93835227272727C792.6666666666667,101.91439393939395,795.0833333333335,101.8904356060606,797.5000000000001,101.86647727272728C799.9166666666667,101.84251893939395,802.3333333333335,101.81856060606061,804.7500000000001,101.79460227272727C807.1666666666667,101.77064393939393,809.5833333333335,101.74668560606061,812.0000000000001,101.72272727272727C814.4166666666667,101.69876893939394,816.8333333333333,101.6748106060606,819.2499999999999,101.65085227272728C821.6666666666665,101.62689393939394,824.0833333333333,101.60293560606061,826.4999999999999,101.57897727272727C828.9166666666665,101.55501893939393,831.3333333333333,101.5310606060606,833.7499999999999,101.50710227272728C836.1666666666665,101.48314393939395,838.5833333333333,101.45918560606061,840.9999999999999,101.43522727272727C843.4166666666666,101.41126893939393,845.8333333333333,101.38731060606061,848.25,101.36335227272727C850.6666666666666,101.33939393939394,853.0833333333334,101.31543560606062,855.5,101.29147727272728C857.9166666666666,101.26751893939394,860.3333333333334,101.24356060606061,862.75,101.21960227272727C865.1666666666666,101.19564393939393,867.5833333333334,101.1716856060606,870,101.14772727272727C872.4166666666666,101.12376893939393,874.8333333333334,101.0998106060606,877.25,101.07585227272727C879.6666666666666,101.05189393939395,882.0833333333334,101.0279356060606,884.5,101.00397727272727C886.9166666666666,100.98001893939394,889.3333333333334,100.95606060606062,891.75,100.93210227272728C894.1666666666666,100.90814393939394,896.5833333333334,100.88418560606061,899,100.86022727272727C901.4166666666666,100.83626893939393,903.8333333333334,100.81231060606062,906.25,100.78835227272728C908.6666666666666,100.76439393939394,911.0833333333334,100.7404356060606,913.5,100.71647727272726C915.9166666666666,100.69251893939392,918.3333333333334,100.6685606060606,920.75,100.64460227272727C923.1666666666666,100.62064393939394,925.5833333333334,100.59668560606059,928,100.57272727272726C930.4166666666666,100.54876893939394,932.8333333333334,100.52481060606061,935.25,100.50085227272727C937.6666666666666,100.47689393939393,940.0833333333334,100.4529356060606,942.5,100.42897727272727C944.9166666666666,100.40501893939393,947.3333333333334,100.3810606060606,949.75,100.35710227272727C952.1666666666666,100.33314393939395,954.5833333333334,100.3091856060606,957,100.28522727272727C959.4166666666666,100.26126893939394,961.8333333333334,100.2373106060606,964.25,100.21335227272728C966.6666666666667,100.18939393939394,969.0833333333334,100.16543560606061,971.5000000000001,100.14147727272727C973.9166666666667,100.11751893939393,976.3333333333335,100.0935606060606,978.7500000000001,100.06960227272727C981.1666666666667,100.04564393939393,983.5833333333335,100.0216856060606,986.0000000000001,99.99772727272727C988.4166666666667,99.97376893939395,990.8333333333335,99.94981060606061,993.2500000000001,99.92585227272727C995.6666666666667,99.90189393939394,998.0833333333333,99.8779356060606,1000.4999999999999,99.85397727272728C1002.9166666666665,99.83001893939394,1005.3333333333333,99.80606060606061,1007.7499999999999,99.78210227272727C1010.1666666666665,99.75814393939393,1012.5833333333333,99.7341856060606,1014.9999999999999,99.71022727272728C1017.4166666666665,99.68626893939395,1019.8333333333333,99.66231060606061,1022.2499999999999,99.63835227272727C1024.6666666666665,99.61439393939393,1027.0833333333333,99.59043560606061,1029.5,99.56647727272727C1031.9166666666667,99.54251893939394,1034.3333333333333,99.51856060606062,1036.75,99.49460227272728C1039.1666666666667,99.47064393939394,1041.5833333333333,99.44668560606061,1044,99.42272727272727C1046.4166666666667,99.39876893939393,1048.8333333333333,99.3748106060606,1051.25,99.35085227272727C1053.6666666666667,99.32689393939393,1056.0833333333333,99.3029356060606,1058.5,99.27897727272727C1060.9166666666667,99.25501893939395,1063.3333333333333,99.2310606060606,1065.75,99.20710227272727C1068.1666666666667,99.18314393939394,1070.5833333333333,99.15918560606062,1073,99.13522727272728C1075.4166666666667,99.11126893939394,1077.8333333333333,99.08731060606061,1080.25,99.06335227272727C1082.6666666666667,99.03939393939393,1085.0833333333333,99.01543560606062,1087.5,98.99147727272728C1089.9166666666667,98.96751893939394,1092.3333333333333,98.9435606060606,1094.75,98.91960227272726C1097.1666666666667,98.89564393939392,1099.5833333333333,98.87168560606062,1102,98.84772727272728C1104.4166666666667,98.82376893939394,1106.8333333333333,98.7998106060606,1109.25,98.77585227272726C1111.6666666666667,98.75189393939392,1114.0833333333333,98.72793560606061,1116.5,98.70397727272727C1118.9166666666667,98.68001893939393,1121.3333333333333,98.6560606060606,1123.75,98.63210227272727C1126.1666666666667,98.60814393939393,1128.5833333333333,98.5841856060606,1131,98.56022727272727C1133.4166666666667,98.53626893939395,1135.8333333333333,98.5123106060606,1138.25,98.48835227272727C1140.6666666666667,98.46439393939394,1143.0833333333333,98.44043560606062,1145.5,98.41647727272728C1147.9166666666667,98.39251893939394,1150.3333333333333,98.36856060606061,1152.75,98.34460227272727C1155.1666666666667,98.32064393939393,1157.5833333333333,98.32064393939393,1160,98.27272727272727C1162.4166666666667,98.2248106060606,1164.8333333333333,96.9659090909091,1167.25,96.3125C1169.6666666666667,95.6590909090909,1172.0833333333333,95.00568181818181,1174.5,94.35227272727272C1176.9166666666667,93.69886363636363,1179.3333333333333,93.04545454545456,1181.75,92.39204545454547C1184.1666666666667,91.73863636363637,1186.5833333333333,91.08522727272728,1189,90.43181818181819C1191.4166666666667,89.7784090909091,1193.8333333333333,89.125,1196.25,88.4715909090909C1198.6666666666667,87.81818181818181,1201.0833333333333,87.16477272727272,1203.5,86.51136363636363C1205.9166666666667,85.85795454545453,1208.3333333333333,85.20454545454545,1210.75,84.55113636363636C1213.1666666666667,83.89772727272727,1215.5833333333333,83.24431818181819,1218,82.5909090909091C1220.4166666666667,81.9375,1222.8333333333333,81.28409090909092,1225.25,80.63068181818183C1227.6666666666667,79.97727272727273,1230.0833333333333,79.32386363636364,1232.5,78.67045454545455C1234.9166666666667,78.01704545454545,1237.3333333333333,77.36363636363636,1239.75,76.71022727272727C1242.1666666666667,76.05681818181817,1244.5833333333333,75.4034090909091,1247,74.75C1249.4166666666667,74.0965909090909,1251.8333333333333,73.44318181818181,1254.25,72.78977272727272C1256.6666666666667,72.13636363636363,1259.0833333333333,71.48295454545456,1261.5,70.82954545454547C1263.9166666666667,70.17613636363637,1266.3333333333333,69.52272727272728,1268.75,68.86931818181819C1271.1666666666667,68.2159090909091,1273.5833333333333,67.5625,1276,66.9090909090909C1278.4166666666667,66.25568181818181,1280.8333333333333,65.60227272727272,1283.25,64.94886363636363C1285.6666666666667,64.29545454545453,1288.0833333333333,63.64204545454545,1290.5,62.98863636363637C1292.9166666666667,62.33522727272728,1295.3333333333333,61.681818181818194,1297.75,61.0284090909091C1300.1666666666667,60.37500000000001,1302.5833333333333,59.721590909090914,1305,59.06818181818182C1307.4166666666667,58.41477272727273,1309.8333333333333,57.76136363636364,1312.25,57.10795454545455C1314.6666666666667,56.45454545454545,1317.0833333333333,55.80113636363636,1319.5,55.147727272727266C1321.9166666666667,54.49431818181817,1324.3333333333333,53.84090909090908,1326.75,53.18749999999999C1329.1666666666667,52.53409090909091,1331.5833333333333,51.88068181818181,1334,51.22727272727273C1336.4166666666667,50.57386363636364,1338.8333333333333,49.920454545454554,1341.25,49.26704545454546C1343.6666666666667,48.61363636363637,1346.0833333333333,47.96022727272727,1348.5,47.30681818181818C1350.9166666666667,46.653409090909086,1353.3333333333333,46,1355.75,45.34659090909091C1358.1666666666667,44.69318181818181,1360.5833333333333,44.039772727272734,1363,43.38636363636364C1365.4166666666667,42.73295454545455,1367.8333333333333,42.07954545454546,1370.25,41.42613636363637C1372.6666666666667,40.77272727272727,1375.0833333333333,40.11931818181818,1377.5,39.465909090909086C1379.9166666666667,38.81249999999999,1382.3333333333333,38.15909090909091,1384.75,37.50568181818182C1387.1666666666667,36.852272727272734,1389.5833333333333,36.19886363636364,1392,35.54545454545455C1394.4166666666667,34.89204545454545,1396.8333333333333,34.23863636363636,1399.25,33.585227272727266C1401.6666666666667,32.93181818181817,1404.0833333333333,32.27840909090909,1406.5,31.625000000000004C1408.9166666666667,30.971590909090914,1411.3333333333333,30.318181818181817,1413.75,29.664772727272727C1416.1666666666667,29.011363636363637,1418.5833333333333,28.35795454545455,1421,27.70454545454546C1423.4166666666667,27.05113636363637,1425.8333333333333,26.397727272727277,1428.25,25.744318181818183C1430.6666666666667,25.09090909090909,1433.0833333333333,24.437499999999996,1435.5,23.784090909090907C1437.9166666666667,23.130681818181817,1440.3333333333333,22.47727272727273,1442.75,21.82386363636364C1445.1666666666667,21.17045454545455,1447.5833333333333,20.517045454545457,1450,19.863636363636363" fill="transparent" stroke-linecap="round" stroke="#E7C6DF" stroke-width="2"></path><g class="visx-group visx-axis visx-axis-bottom" transform="translate(0, 115)"><g class="visx-group visx-axis-tick" transform="translate(0, 0)"><line class="visx-line" x1="0" y1="0" x2="0" y2="8" fill="transparent" shape-rendering="crispEdges" stroke="#000" stroke-width="0" stroke-linecap="square"></line><svg x="0" y="0" font-size="10" style="overflow:visible"><text transform="" x="0" y="18" fill="#000" font-size="10" text-anchor="middle"><tspan x="0" dy="0em">0%</tspan></text></svg></g><g class="visx-group visx-axis-tick" transform="translate(0, 0)"><line class="visx-line" x1="362.5" y1="0" x2="362.5" y2="8" fill="transparent" shape-rendering="crispEdges" stroke="#000" stroke-width="0" stroke-linecap="square"></line><svg x="0" y="0" font-size="10" style="overflow:visible"><text transform="" x="362.5" y="18" fill="#000" font-size="10" text-anchor="middle"><tspan x="362.5" dy="0em">25%</tspan></text></svg></g><g class="visx-group visx-axis-tick" transform="translate(0, 0)"><line class="visx-line" x1="725" y1="0" x2="725" y2="8" fill="transparent" shape-rendering="crispEdges" stroke="#000" stroke-width="0" stroke-linecap="square"></line><svg x="0" y="0" font-size="10" style="overflow:visible"><text transform="" x="725" y="18" fill="#000" font-size="10" text-anchor="middle"><tspan x="725" dy="0em">50%</tspan></text></svg></g><g class="visx-group visx-axis-tick" transform="translate(0, 0)"><line class="visx-line" x1="1087.5" y1="0" x2="1087.5" y2="8" fill="transparent" shape-rendering="crispEdges" stroke="#000" stroke-width="0" stroke-linecap="square"></line><svg x="0" y="0" font-size="10" style="overflow:visible"><text transform="" x="1087.5" y="18" fill="#000" font-size="10" text-anchor="middle"><tspan x="1087.5" dy="0em">75%</tspan></text></svg></g><g class="visx-group visx-axis-tick" transform="translate(0, 0)"><line class="visx-line" x1="1450" y1="0" x2="1450" y2="8" fill="transparent" shape-rendering="crispEdges" stroke="#000" stroke-width="0" stroke-linecap="square"></line><svg x="0" y="0" font-size="10" style="overflow:visible"><text transform="" x="1450" y="18" fill="#000" font-size="10" text-anchor="middle"><tspan x="1450" dy="0em">100%</tspan></text></svg></g><line class="visx-line visx-axis-line" x1="0.5" y1="0" x2="1450.5" y2="0" fill="transparent" shape-rendering="crispEdges" stroke="#222" stroke-width="0"></line></g><g class="visx-group visx-axis visx-axis-left" transform="translate(0, 0)"><g class="visx-group visx-axis-tick" transform="translate(0, 0)"><line class="visx-line" x1="0" y1="115" x2="-8" y2="115" fill="transparent" shape-rendering="crispEdges" stroke="#222" stroke-width="0" stroke-linecap="square"></line><svg x="-30" y="0" font-size="8" style="overflow:visible"><text transform="" x="-8" y="115" fill="#000" font-size="8" text-anchor="start"><tspan x="-8" dy="0em">0%</tspan></text></svg></g><g class="visx-group visx-axis-tick" transform="translate(0, 0)"><line class="visx-line" x1="0" y1="62.72727272727272" x2="-8" y2="62.72727272727272" fill="transparent" shape-rendering="crispEdges" stroke="#222" stroke-width="0" stroke-linecap="square"></line><svg x="-30" y="0" font-size="8" style="overflow:visible"><text transform="" x="-8" y="62.72727272727272" fill="#000" font-size="8" text-anchor="start"><tspan x="-8" dy="0em">100%</tspan></text></svg></g><g class="visx-group visx-axis-tick" transform="translate(0, 0)"><line class="visx-line" x1="0" y1="10.454545454545459" x2="-8" y2="10.454545454545459" fill="transparent" shape-rendering="crispEdges" stroke="#222" stroke-width="0" stroke-linecap="square"></line><svg x="-30" y="0" font-size="8" style="overflow:visible"><text transform="" x="-8" y="10.454545454545459" fill="#000" font-size="8" text-anchor="start"><tspan x="-8" dy="0em">200%</tspan></text></svg></g><line class="visx-line visx-axis-line" x1="0" y1="115.5" x2="0" y2="0.5" fill="transparent" shape-rendering="crispEdges" stroke="#222" stroke-width="0"></line></g><rect class="visx-bar" width="1450" height="115" fill="transparent"></rect><line class="visx-line" x1="1160" y1="28" x2="1160" y2="115" fill="transparent" shape-rendering="crispEdges" stroke="#0062D2" stroke-width="1" pointer-events="none" stroke-dasharray="5,2"></line><svg x="0" y="0" font-size="10px" style="overflow:visible"><text transform="" x="1160" y="20" font-size="10px" fill="#fff" stroke="#fff" stroke-width="0.8em" text-anchor="middle"><tspan x="1160" dy="0.355em">Optimal 80%</tspan></text></svg><svg x="0" y="0" font-size="10px" style="overflow:visible"><text transform="" x="1160" y="20" font-size="10px" fill="#62677B" text-anchor="middle"><tspan x="1160" dy="0.355em">Optimal 80%</tspan></text></svg></g></svg>