<?xml version="1.0"?><svg xmlns="http://www.w3.org/2000/svg" xmlns:xlink= "http://www.w3.org/1999/xlink" style="background: white;" width="1500" height="185"> <g style="color: black; font-size: 13px; font-family: sans-serif; transform: translate(18px, 25px);"><g><circle r="3" cx="-6" cy="-5" style="fill: #B6509E" /><text>Borrow APR, variable</text></g><g style="transform: translateX(150px);"><circle r="3" cx="-6" cy="-5" style="fill: rgb(231, 198, 223)" /><text>Borrow APR, stable</text></g><g style="transform: translateX(290px);"><circle r="3" cx="-6" cy="-5" style="fill: rgb(0, 98, 210)" /><text>Utilization Rate</text></g></g><g class="visx-group" transform="translate(40, 50)"><g class="visx-group visx-rows" transform="translate(0, 0)"><line class="visx-line" x1="0" y1="115" x2="1450" y2="115" fill="transparent" shape-rendering="crispEdges" stroke="#000" stroke-width="1" stroke-dasharray="3,3" pointer-events="none"></line><line class="visx-line" x1="0" y1="57.5" x2="1450" y2="57.5" fill="transparent" shape-rendering="crispEdges" stroke="#000" stroke-width="1" stroke-dasharray="3,3" pointer-events="none"></line><line class="visx-line" x1="0" y1="0" x2="1450" y2="0" fill="transparent" shape-rendering="crispEdges" stroke="#000" stroke-width="1" stroke-dasharray="3,3" pointer-events="none"></line></g><path class="visx-linepath" d="M0,113.85C2.4166666666666665,113.85,4.833333333333334,113.85,7.25,113.85C9.666666666666666,113.85,12.083333333333334,113.85,14.5,113.85C16.916666666666668,113.85,19.333333333333332,113.85,21.75,113.85C24.166666666666668,113.85,26.583333333333332,113.85,29,113.85C31.416666666666668,113.85,33.833333333333336,113.85,36.25,113.85C38.666666666666664,113.85,41.083333333333336,113.85,43.5,113.85C45.91666666666667,113.85,48.333333333333336,113.85,50.75000000000001,113.85C53.16666666666667,113.85,55.583333333333336,113.85,58,113.85C60.416666666666664,113.85,62.833333333333336,113.85,65.25,113.85C67.66666666666667,113.85,70.08333333333333,113.85,72.5,113.85C74.91666666666667,113.85,77.33333333333333,113.85,79.75,113.85C82.16666666666667,113.85,84.58333333333333,113.85,87,113.85C89.41666666666667,113.85,91.83333333333333,113.85,94.25,113.85C96.66666666666667,113.85,99.08333333333334,113.85,101.50000000000001,113.85C103.91666666666667,113.85,106.33333333333334,113.85,108.75,113.85C111.16666666666667,113.85,113.58333333333333,113.85,116,113.85C118.41666666666667,113.85,120.83333333333334,113.85,123.25000000000001,113.85C125.66666666666667,113.85,128.08333333333334,113.85,130.5,113.85C132.91666666666666,113.85,135.33333333333334,113.85,137.75,113.85C140.16666666666666,113.85,142.58333333333334,113.85,145,113.85C147.41666666666666,113.85,149.83333333333334,113.85,152.25,113.85C154.66666666666666,113.85,157.08333333333334,113.85,159.5,113.85C161.91666666666666,113.85,164.33333333333334,113.85,166.75,113.85C169.16666666666666,113.85,171.58333333333334,113.85,174,113.85C176.41666666666666,113.85,178.83333333333334,113.85,181.25,113.85C183.66666666666666,113.85,186.08333333333334,113.85,188.5,113.85C190.91666666666666,113.85,193.33333333333334,113.85,195.75,113.85C198.16666666666669,113.85,200.58333333333334,113.85,203.00000000000003,113.85C205.41666666666669,113.85,207.83333333333331,113.85,210.24999999999997,113.85C212.66666666666666,113.85,215.08333333333331,113.85,217.5,113.85C219.91666666666666,113.85,222.33333333333334,113.85,224.75,113.85C227.16666666666666,113.85,229.58333333333334,113.85,232,113.85C234.41666666666666,113.85,236.83333333333334,113.85,239.25,113.85C241.66666666666669,113.85,244.08333333333334,113.85,246.50000000000003,113.85C248.91666666666669,113.85,251.33333333333331,113.85,253.74999999999997,113.85C256.16666666666663,113.85,258.5833333333333,113.85,261,113.85C263.4166666666667,113.85,265.8333333333333,113.85,268.25,113.85C270.6666666666667,113.85,273.0833333333333,113.85,275.5,113.85C277.9166666666667,113.85,280.3333333333333,113.85,282.75,113.85C285.1666666666667,113.85,287.5833333333333,113.85,290,113.85C292.4166666666667,113.85,294.8333333333333,113.85,297.25,113.85C299.6666666666667,113.85,302.0833333333333,113.85,304.5,113.85C306.9166666666667,113.85,309.3333333333333,113.85,311.75,113.85C314.1666666666667,113.85,316.5833333333333,113.85,319,113.85C321.4166666666667,113.85,323.8333333333333,113.85,326.25,113.85C328.6666666666667,113.85,331.0833333333333,113.85,333.5,113.85C335.9166666666667,113.85,338.3333333333333,113.85,340.75,113.85C343.1666666666667,113.85,345.5833333333333,113.85,348,113.85C350.4166666666667,113.85,352.8333333333333,113.85,355.25,113.85C357.6666666666667,113.85,360.0833333333333,113.85,362.5,113.85C364.9166666666667,113.85,367.3333333333333,113.85,369.75,113.85C372.1666666666667,113.85,374.5833333333333,113.85,377,113.85C379.4166666666667,113.85,381.8333333333333,113.85,384.25,113.85C386.6666666666667,113.85,389.0833333333333,113.85,391.5,113.85C393.9166666666667,113.85,396.33333333333337,113.85,398.75000000000006,113.85C401.16666666666674,113.85,403.58333333333337,113.85,406.00000000000006,113.85C408.4166666666667,113.85,410.8333333333333,113.85,413.24999999999994,113.85C415.66666666666663,113.85,418.08333333333326,113.85,420.49999999999994,113.85C422.91666666666663,113.85,425.3333333333333,113.85,427.75,113.85C430.1666666666667,113.85,432.5833333333333,113.85,435,113.85C437.4166666666667,113.85,439.8333333333333,113.85,442.25,113.85C444.6666666666667,113.85,447.0833333333333,113.85,449.5,113.85C451.9166666666667,113.85,454.3333333333333,113.85,456.75,113.85C459.1666666666667,113.85,461.5833333333333,113.85,464,113.85C466.4166666666667,113.85,468.8333333333333,113.85,471.25,113.85C473.6666666666667,113.85,476.0833333333333,113.85,478.5,113.85C480.9166666666667,113.85,483.33333333333337,113.85,485.75000000000006,113.85C488.16666666666674,113.85,490.58333333333337,113.85,493.00000000000006,113.85C495.4166666666667,113.85,497.8333333333333,113.85,500.24999999999994,113.85C502.66666666666663,113.85,505.08333333333326,113.85,507.49999999999994,113.85C509.91666666666663,113.85,512.3333333333333,113.85,514.75,113.85C517.1666666666666,113.85,519.5833333333334,113.85,522,113.85C524.4166666666666,113.85,526.8333333333334,113.85,529.25,113.85C531.6666666666666,113.85,534.0833333333334,113.85,536.5,113.85C538.9166666666666,113.85,541.3333333333334,113.85,543.75,113.85C546.1666666666666,113.85,548.5833333333334,113.85,551,113.85C553.4166666666666,113.85,555.8333333333334,113.85,558.25,113.85C560.6666666666666,113.85,563.0833333333334,113.85,565.5,113.85C567.9166666666666,113.85,570.3333333333334,113.85,572.75,113.85C575.1666666666666,113.85,577.5833333333334,113.85,580,113.85C582.4166666666666,113.85,584.8333333333334,113.85,587.25,113.85C589.6666666666666,113.85,592.0833333333334,113.85,594.5,113.85C596.9166666666666,113.85,599.3333333333334,113.85,601.75,113.85C604.1666666666666,113.85,606.5833333333334,113.85,609,113.85C611.4166666666666,113.85,613.8333333333334,113.85,616.25,113.85C618.6666666666666,113.85,621.0833333333334,113.85,623.5,113.85C625.9166666666666,113.85,628.3333333333334,113.85,630.75,113.85C633.1666666666666,113.85,635.5833333333334,113.85,638,113.85C640.4166666666666,113.85,642.8333333333334,113.85,645.25,113.85C647.6666666666666,113.85,650.0833333333334,113.85,652.5,113.85C654.9166666666666,113.85,657.3333333333334,113.85,659.75,113.85C662.1666666666666,113.85,664.5833333333334,113.85,667,113.85C669.4166666666666,113.85,671.8333333333334,113.85,674.25,113.85C676.6666666666666,113.85,679.0833333333334,113.85,681.5,113.85C683.9166666666666,113.85,686.3333333333334,113.85,688.75,113.85C691.1666666666666,113.85,693.5833333333334,113.85,696,113.85C698.4166666666666,113.85,700.8333333333334,113.85,703.25,113.85C705.6666666666666,113.85,708.0833333333334,113.85,710.5,113.85C712.9166666666666,113.85,715.3333333333334,113.85,717.75,113.85C720.1666666666666,113.85,722.5833333333334,113.85,725,113.85C727.4166666666666,113.85,729.8333333333334,113.85,732.25,113.85C734.6666666666666,113.85,737.0833333333334,113.85,739.5,113.85C741.9166666666666,113.85,744.3333333333334,113.85,746.75,113.85C749.1666666666666,113.85,751.5833333333334,113.85,754,113.85C756.4166666666666,113.85,758.8333333333334,113.85,761.25,113.85C763.6666666666666,113.85,766.0833333333334,113.85,768.5,113.85C770.9166666666666,113.85,773.3333333333334,113.85,775.75,113.85C778.1666666666666,113.85,780.5833333333334,113.85,783,113.85C785.4166666666667,113.85,787.8333333333334,113.85,790.2500000000001,113.85C792.6666666666667,113.85,795.0833333333335,113.85,797.5000000000001,113.85C799.9166666666667,113.85,802.3333333333335,113.85,804.7500000000001,113.85C807.1666666666667,113.85,809.5833333333335,113.85,812.0000000000001,113.85C814.4166666666667,113.85,816.8333333333333,113.85,819.2499999999999,113.85C821.6666666666665,113.85,824.0833333333333,113.85,826.4999999999999,113.85C828.9166666666665,113.85,831.3333333333333,113.85,833.7499999999999,113.85C836.1666666666665,113.85,838.5833333333333,113.85,840.9999999999999,113.85C843.4166666666666,113.85,845.8333333333333,113.85,848.25,113.85C850.6666666666666,113.85,853.0833333333334,113.85,855.5,113.85C857.9166666666666,113.85,860.3333333333334,113.85,862.75,113.85C865.1666666666666,113.85,867.5833333333334,113.85,870,113.85C872.4166666666666,113.85,874.8333333333334,113.85,877.25,113.85C879.6666666666666,113.85,882.0833333333334,113.85,884.5,113.85C886.9166666666666,113.85,889.3333333333334,113.85,891.75,113.85C894.1666666666666,113.85,896.5833333333334,113.85,899,113.85C901.4166666666666,113.85,903.8333333333334,113.85,906.25,113.85C908.6666666666666,113.85,911.0833333333334,113.85,913.5,113.85C915.9166666666666,113.85,918.3333333333334,113.85,920.75,113.85C923.1666666666666,113.85,925.5833333333334,113.85,928,113.85C930.4166666666666,113.85,932.8333333333334,113.85,935.25,113.85C937.6666666666666,113.85,940.0833333333334,113.85,942.5,113.85C944.9166666666666,113.85,947.3333333333334,113.85,949.75,113.85C952.1666666666666,113.85,954.5833333333334,113.85,957,113.85C959.4166666666666,113.85,961.8333333333334,113.85,964.25,113.85C966.6666666666667,113.85,969.0833333333334,113.85,971.5000000000001,113.85C973.9166666666667,113.85,976.3333333333335,113.85,978.7500000000001,113.85C981.1666666666667,113.85,983.5833333333335,113.85,986.0000000000001,113.85C988.4166666666667,113.85,990.8333333333335,113.85,993.2500000000001,113.85C995.6666666666667,113.85,998.0833333333333,113.85,1000.4999999999999,113.85C1002.9166666666665,113.85,1005.3333333333333,113.85,1007.7499999999999,113.85C1010.1666666666665,113.85,1012.5833333333333,113.85,1014.9999999999999,113.85C1017.4166666666665,113.85,1019.8333333333333,113.85,1022.2499999999999,113.85C1024.6666666666665,113.85,1027.0833333333333,113.85,1029.5,113.85C1031.9166666666667,113.85,1034.3333333333333,113.85,1036.75,113.85C1039.1666666666667,113.85,1041.5833333333333,113.85,1044,113.85C1046.4166666666667,113.85,1048.8333333333333,113.85,1051.25,113.85C1053.6666666666667,113.85,1056.0833333333333,113.85,1058.5,113.85C1060.9166666666667,113.85,1063.3333333333333,113.85,1065.75,113.85C1068.1666666666667,113.85,1070.5833333333333,113.85,1073,113.85C1075.4166666666667,113.85,1077.8333333333333,113.85,1080.25,113.85C1082.6666666666667,113.85,1085.0833333333333,113.85,1087.5,113.85C1089.9166666666667,113.85,1092.3333333333333,113.85,1094.75,113.85C1097.1666666666667,113.85,1099.5833333333333,113.85,1102,113.85C1104.4166666666667,113.85,1106.8333333333333,113.85,1109.25,113.85C1111.6666666666667,113.85,1114.0833333333333,113.85,1116.5,113.85C1118.9166666666667,113.85,1121.3333333333333,113.85,1123.75,113.85C1126.1666666666667,113.85,1128.5833333333333,113.85,1131,113.85C1133.4166666666667,113.85,1135.8333333333333,113.85,1138.25,113.85C1140.6666666666667,113.85,1143.0833333333333,113.85,1145.5,113.85C1147.9166666666667,113.85,1150.3333333333333,113.85,1152.75,113.85C1155.1666666666667,113.85,1157.5833333333333,113.85,1160,113.85C1162.4166666666667,113.85,1164.8333333333333,112.31666666666666,1167.25,111.55C1169.6666666666667,110.78333333333333,1172.0833333333333,110.01666666666667,1174.5,109.25C1176.9166666666667,108.48333333333333,1179.3333333333333,107.71666666666665,1181.75,106.94999999999999C1184.1666666666667,106.18333333333332,1186.5833333333333,105.41666666666667,1189,104.65C1191.4166666666667,103.88333333333334,1193.8333333333333,103.11666666666667,1196.25,102.35000000000001C1198.6666666666667,101.58333333333334,1201.0833333333333,100.81666666666666,1203.5,100.05C1205.9166666666667,99.28333333333333,1208.3333333333333,98.51666666666667,1210.75,97.75C1213.1666666666667,96.98333333333333,1215.5833333333333,96.21666666666665,1218,95.44999999999999C1220.4166666666667,94.68333333333332,1222.8333333333333,93.91666666666667,1225.25,93.15C1227.6666666666667,92.38333333333334,1230.0833333333333,91.61666666666667,1232.5,90.85000000000001C1234.9166666666667,90.08333333333334,1237.3333333333333,89.31666666666666,1239.75,88.55C1242.1666666666667,87.78333333333333,1244.5833333333333,87.01666666666667,1247,86.25C1249.4166666666667,85.48333333333333,1251.8333333333333,84.71666666666667,1254.25,83.95C1256.6666666666667,83.18333333333334,1259.0833333333333,82.41666666666666,1261.5,81.64999999999999C1263.9166666666667,80.88333333333333,1266.3333333333333,80.11666666666666,1268.75,79.35C1271.1666666666667,78.58333333333333,1273.5833333333333,77.81666666666666,1276,77.05C1278.4166666666667,76.28333333333333,1280.8333333333333,75.51666666666667,1283.25,74.75C1285.6666666666667,73.98333333333333,1288.0833333333333,73.21666666666667,1290.5,72.45C1292.9166666666667,71.68333333333334,1295.3333333333333,70.91666666666666,1297.75,70.14999999999999C1300.1666666666667,69.38333333333333,1302.5833333333333,68.61666666666667,1305,67.85000000000001C1307.4166666666667,67.08333333333334,1309.8333333333333,66.31666666666668,1312.25,65.55000000000001C1314.6666666666667,64.78333333333335,1317.0833333333333,64.01666666666668,1319.5,63.25000000000001C1321.9166666666667,62.48333333333334,1324.3333333333333,61.71666666666667,1326.75,60.95C1329.1666666666667,60.18333333333334,1331.5833333333333,59.416666666666664,1334,58.65C1336.4166666666667,57.88333333333333,1338.8333333333333,57.11666666666667,1341.25,56.35C1343.6666666666667,55.583333333333336,1346.0833333333333,54.81666666666666,1348.5,54.05C1350.9166666666667,53.28333333333333,1353.3333333333333,52.51666666666666,1355.75,51.74999999999999C1358.1666666666667,50.98333333333333,1360.5833333333333,50.21666666666667,1363,49.45C1365.4166666666667,48.68333333333334,1367.8333333333333,47.91666666666667,1370.25,47.150000000000006C1372.6666666666667,46.38333333333334,1375.0833333333333,45.61666666666667,1377.5,44.85C1379.9166666666667,44.083333333333336,1382.3333333333333,43.31666666666666,1384.75,42.55C1387.1666666666667,41.78333333333333,1389.5833333333333,41.016666666666666,1392,40.25C1394.4166666666667,39.483333333333334,1396.8333333333333,38.71666666666666,1399.25,37.949999999999996C1401.6666666666667,37.18333333333333,1404.0833333333333,36.41666666666667,1406.5,35.650000000000006C1408.9166666666667,34.88333333333334,1411.3333333333333,34.11666666666667,1413.75,33.35C1416.1666666666667,32.583333333333336,1418.5833333333333,31.816666666666666,1421,31.05C1423.4166666666667,30.283333333333335,1425.8333333333333,29.516666666666666,1428.25,28.75C1430.6666666666667,27.983333333333334,1433.0833333333333,27.21666666666667,1435.5,26.45C1437.9166666666667,25.68333333333333,1440.3333333333333,24.916666666666664,1442.75,24.149999999999995C1445.1666666666667,23.383333333333326,1447.5833333333333,22.61666666666666,1450,21.849999999999994" fill="transparent" stroke-linecap="round" stroke="#B6509E" stroke-width="2"></path><path class="visx-linepath" d="M0,111.5499999999425C2.4166666666666665,111.54041666663312,4.833333333333334,111.53083333332374,7.25,111.52125C9.666666666666666,111.51166666667625,12.083333333333334,111.50208333333335,14.5,111.4925C16.916666666666668,111.48291666666667,19.333333333333332,111.47333333333333,21.75,111.46374999999999C24.166666666666668,111.45416666666665,26.583333333333332,111.44458333333333,29,111.435C31.416666666666668,111.42541666666668,33.833333333333336,111.41583333333334,36.25,111.40625C38.666666666666664,111.39666666666666,41.083333333333336,111.38708333333332,43.5,111.3775C45.91666666666667,111.36791666666666,48.333333333333336,111.35833333333335,50.75000000000001,111.34875000000001C53.16666666666667,111.33916666666667,55.583333333333336,111.32958333333333,58,111.32C60.416666666666664,111.31041666666665,62.833333333333336,111.30083333333333,65.25,111.29125C67.66666666666667,111.28166666666668,70.08333333333333,111.27208333333334,72.5,111.2625C74.91666666666667,111.25291666666666,77.33333333333333,111.24333333333333,79.75,111.23374999999999C82.16666666666667,111.22416666666665,84.58333333333333,111.21458333333332,87,111.205C89.41666666666667,111.19541666666667,91.83333333333333,111.18583333333332,94.25,111.17625C96.66666666666667,111.16666666666666,99.08333333333334,111.15708333333335,101.50000000000001,111.14750000000001C103.91666666666667,111.13791666666668,106.33333333333334,111.12833333333334,108.75,111.11875C111.16666666666667,111.10916666666667,113.58333333333333,111.09958333333334,116,111.09C118.41666666666667,111.08041666666666,120.83333333333334,111.07083333333334,123.25000000000001,111.06125C125.66666666666667,111.05166666666666,128.08333333333334,111.04208333333334,130.5,111.0325C132.91666666666666,111.02291666666666,135.33333333333334,111.01333333333334,137.75,111.00375C140.16666666666666,110.99416666666666,142.58333333333334,110.98458333333332,145,110.975C147.41666666666666,110.96541666666667,149.83333333333334,110.95583333333333,152.25,110.94625C154.66666666666666,110.93666666666668,157.08333333333334,110.92708333333334,159.5,110.9175C161.91666666666666,110.90791666666667,164.33333333333334,110.89833333333334,166.75,110.88875C169.16666666666666,110.87916666666666,171.58333333333334,110.86958333333334,174,110.86C176.41666666666666,110.85041666666666,178.83333333333334,110.84083333333332,181.25,110.83125C183.66666666666666,110.82166666666667,186.08333333333334,110.81208333333333,188.5,110.80250000000001C190.91666666666666,110.79291666666668,193.33333333333334,110.78333333333335,195.75,110.77375C198.16666666666669,110.76416666666667,200.58333333333334,110.75458333333333,203.00000000000003,110.74499999999999C205.41666666666669,110.73541666666665,207.83333333333331,110.72583333333333,210.24999999999997,110.71625C212.66666666666666,110.70666666666666,215.08333333333331,110.69708333333334,217.5,110.6875C219.91666666666666,110.67791666666668,222.33333333333334,110.66833333333335,224.75,110.65875000000001C227.16666666666666,110.64916666666667,229.58333333333334,110.63958333333333,232,110.63C234.41666666666666,110.62041666666666,236.83333333333334,110.61083333333332,239.25,110.60125C241.66666666666669,110.59166666666665,244.08333333333334,110.58208333333334,246.50000000000003,110.5725C248.91666666666669,110.56291666666668,251.33333333333331,110.55333333333334,253.74999999999997,110.54375C256.16666666666663,110.53416666666666,258.5833333333333,110.52458333333334,261,110.515C263.4166666666667,110.50541666666666,265.8333333333333,110.49583333333334,268.25,110.48625C270.6666666666667,110.47666666666666,273.0833333333333,110.46708333333332,275.5,110.4575C277.9166666666667,110.44791666666667,280.3333333333333,110.43833333333335,282.75,110.42875000000001C285.1666666666667,110.41916666666667,287.5833333333333,110.40958333333333,290,110.39999999999999C292.4166666666667,110.39041666666665,294.8333333333333,110.38083333333333,297.25,110.37125C299.6666666666667,110.36166666666668,302.0833333333333,110.35208333333334,304.5,110.3425C306.9166666666667,110.33291666666666,309.3333333333333,110.32333333333334,311.75,110.31375C314.1666666666667,110.30416666666666,316.5833333333333,110.29458333333334,319,110.285C321.4166666666667,110.27541666666666,323.8333333333333,110.26583333333332,326.25,110.25625C328.6666666666667,110.24666666666667,331.0833333333333,110.23708333333333,333.5,110.2275C335.9166666666667,110.21791666666668,338.3333333333333,110.20833333333334,340.75,110.19875C343.1666666666667,110.18916666666667,345.5833333333333,110.17958333333334,348,110.17C350.4166666666667,110.16041666666666,352.8333333333333,110.15083333333334,355.25,110.14125C357.6666666666667,110.13166666666666,360.0833333333333,110.12208333333332,362.5,110.1125C364.9166666666667,110.10291666666667,367.3333333333333,110.09333333333335,369.75,110.08375000000001C372.1666666666667,110.07416666666667,374.5833333333333,110.06458333333333,377,110.05499999999999C379.4166666666667,110.04541666666665,381.8333333333333,110.03583333333333,384.25,110.02625C386.6666666666667,110.01666666666668,389.0833333333333,110.00708333333334,391.5,109.9975C393.9166666666667,109.98791666666666,396.33333333333337,109.97833333333334,398.75000000000006,109.96875C401.16666666666674,109.95916666666666,403.58333333333337,109.94958333333334,406.00000000000006,109.94C408.4166666666667,109.93041666666666,410.8333333333333,109.92083333333332,413.24999999999994,109.91125C415.66666666666663,109.90166666666666,418.08333333333326,109.89208333333333,420.49999999999994,109.88250000000001C422.91666666666663,109.87291666666667,425.3333333333333,109.86333333333334,427.75,109.85375C430.1666666666667,109.84416666666667,432.5833333333333,109.83458333333333,435,109.82499999999999C437.4166666666667,109.81541666666665,439.8333333333333,109.80583333333333,442.25,109.79625C444.6666666666667,109.78666666666668,447.0833333333333,109.77708333333332,449.5,109.7675C451.9166666666667,109.75791666666667,454.3333333333333,109.74833333333335,456.75,109.73875000000001C459.1666666666667,109.72916666666667,461.5833333333333,109.71958333333333,464,109.71C466.4166666666667,109.70041666666665,468.8333333333333,109.69083333333332,471.25,109.68124999999999C473.6666666666667,109.67166666666667,476.0833333333333,109.66208333333333,478.5,109.6525C480.9166666666667,109.64291666666666,483.33333333333337,109.63333333333334,485.75000000000006,109.62375C488.16666666666674,109.61416666666666,490.58333333333337,109.60458333333334,493.00000000000006,109.595C495.4166666666667,109.58541666666666,497.8333333333333,109.57583333333332,500.24999999999994,109.56625C502.66666666666663,109.55666666666666,505.08333333333326,109.54708333333333,507.49999999999994,109.53750000000001C509.91666666666663,109.52791666666667,512.3333333333333,109.51833333333335,514.75,109.50875C517.1666666666666,109.49916666666667,519.5833333333334,109.48958333333333,522,109.47999999999999C524.4166666666666,109.47041666666665,526.8333333333334,109.46083333333333,529.25,109.45125C531.6666666666666,109.44166666666668,534.0833333333334,109.43208333333332,536.5,109.4225C538.9166666666666,109.41291666666667,541.3333333333334,109.40333333333335,543.75,109.39375000000001C546.1666666666666,109.38416666666667,548.5833333333334,109.37458333333333,551,109.365C553.4166666666666,109.35541666666666,555.8333333333334,109.34583333333332,558.25,109.33624999999999C560.6666666666666,109.32666666666667,563.0833333333334,109.31708333333333,565.5,109.3075C567.9166666666666,109.29791666666668,570.3333333333334,109.28833333333334,572.75,109.27875C575.1666666666666,109.26916666666666,577.5833333333334,109.25958333333334,580,109.25C582.4166666666666,109.24041666666666,584.8333333333334,109.23083333333334,587.25,109.22125C589.6666666666666,109.21166666666666,592.0833333333334,109.20208333333332,594.5,109.1925C596.9166666666666,109.18291666666667,599.3333333333334,109.17333333333335,601.75,109.16375000000001C604.1666666666666,109.15416666666667,606.5833333333334,109.14458333333333,609,109.13499999999999C611.4166666666666,109.12541666666665,613.8333333333334,109.11583333333333,616.25,109.10625C618.6666666666666,109.09666666666668,621.0833333333334,109.08708333333334,623.5,109.0775C625.9166666666666,109.06791666666666,628.3333333333334,109.05833333333334,630.75,109.04875C633.1666666666666,109.03916666666666,635.5833333333334,109.02958333333333,638,109.02C640.4166666666666,109.01041666666666,642.8333333333334,109.00083333333332,645.25,108.99125C647.6666666666666,108.98166666666667,650.0833333333334,108.97208333333333,652.5,108.9625C654.9166666666666,108.95291666666668,657.3333333333334,108.94333333333334,659.75,108.93375C662.1666666666666,108.92416666666666,664.5833333333334,108.91458333333334,667,108.905C669.4166666666666,108.89541666666666,671.8333333333334,108.88583333333334,674.25,108.87625C676.6666666666666,108.86666666666666,679.0833333333334,108.85708333333332,681.5,108.8475C683.9166666666666,108.83791666666667,686.3333333333334,108.82833333333335,688.75,108.81875000000001C691.1666666666666,108.80916666666667,693.5833333333334,108.79958333333333,696,108.78999999999999C698.4166666666666,108.78041666666665,700.8333333333334,108.77083333333333,703.25,108.76125C705.6666666666666,108.75166666666668,708.0833333333334,108.74208333333334,710.5,108.7325C712.9166666666666,108.72291666666666,715.3333333333334,108.71333333333334,717.75,108.70375C720.1666666666666,108.69416666666666,722.5833333333334,108.68458333333334,725,108.675C727.4166666666666,108.66541666666666,729.8333333333334,108.65583333333332,732.25,108.64625C734.6666666666666,108.63666666666667,737.0833333333334,108.62708333333333,739.5,108.6175C741.9166666666666,108.60791666666668,744.3333333333334,108.59833333333334,746.75,108.58875C749.1666666666666,108.57916666666667,751.5833333333334,108.56958333333333,754,108.55999999999999C756.4166666666666,108.55041666666665,758.8333333333334,108.54083333333332,761.25,108.53125C763.6666666666666,108.52166666666668,766.0833333333334,108.51208333333332,768.5,108.5025C770.9166666666666,108.49291666666667,773.3333333333334,108.48333333333335,775.75,108.47375000000001C778.1666666666666,108.46416666666667,780.5833333333334,108.45458333333333,783,108.445C785.4166666666667,108.43541666666665,787.8333333333334,108.42583333333333,790.2500000000001,108.41624999999999C792.6666666666667,108.40666666666667,795.0833333333335,108.39708333333333,797.5000000000001,108.3875C799.9166666666667,108.37791666666668,802.3333333333335,108.36833333333334,804.7500000000001,108.35875C807.1666666666667,108.34916666666666,809.5833333333335,108.33958333333334,812.0000000000001,108.33C814.4166666666667,108.32041666666666,816.8333333333333,108.31083333333333,819.2499999999999,108.30125C821.6666666666665,108.29166666666666,824.0833333333333,108.28208333333332,826.4999999999999,108.2725C828.9166666666665,108.26291666666667,831.3333333333333,108.25333333333333,833.7499999999999,108.24375C836.1666666666665,108.23416666666668,838.5833333333333,108.22458333333334,840.9999999999999,108.215C843.4166666666666,108.20541666666666,845.8333333333333,108.19583333333334,848.25,108.18625C850.6666666666666,108.17666666666666,853.0833333333334,108.16708333333334,855.5,108.1575C857.9166666666666,108.14791666666666,860.3333333333334,108.13833333333334,862.75,108.12875C865.1666666666666,108.11916666666666,867.5833333333334,108.10958333333333,870,108.1C872.4166666666666,108.09041666666666,874.8333333333334,108.08083333333332,877.25,108.07124999999999C879.6666666666666,108.06166666666667,882.0833333333334,108.05208333333333,884.5,108.0425C886.9166666666666,108.03291666666668,889.3333333333334,108.02333333333333,891.75,108.01375C894.1666666666666,108.00416666666668,896.5833333333334,107.99458333333335,899,107.98500000000001C901.4166666666666,107.97541666666667,903.8333333333334,107.96583333333334,906.25,107.95625C908.6666666666666,107.94666666666666,911.0833333333334,107.93708333333332,913.5,107.9275C915.9166666666666,107.91791666666667,918.3333333333334,107.90833333333335,920.75,107.89875C923.1666666666666,107.88916666666667,925.5833333333334,107.87958333333333,928,107.86999999999999C930.4166666666666,107.86041666666665,932.8333333333334,107.85083333333333,935.25,107.84125C937.6666666666666,107.83166666666668,940.0833333333334,107.82208333333334,942.5,107.8125C944.9166666666666,107.80291666666666,947.3333333333334,107.79333333333332,949.75,107.78375C952.1666666666666,107.77416666666667,954.5833333333334,107.76458333333335,957,107.75500000000001C959.4166666666666,107.74541666666667,961.8333333333334,107.73583333333333,964.25,107.72625C966.6666666666667,107.71666666666665,969.0833333333334,107.70708333333334,971.5000000000001,107.6975C973.9166666666667,107.68791666666668,976.3333333333335,107.67833333333334,978.7500000000001,107.66875C981.1666666666667,107.65916666666666,983.5833333333335,107.64958333333333,986.0000000000001,107.63999999999999C988.4166666666667,107.63041666666665,990.8333333333335,107.62083333333334,993.2500000000001,107.61125C995.6666666666667,107.60166666666667,998.0833333333333,107.59208333333332,1000.4999999999999,107.5825C1002.9166666666665,107.57291666666666,1005.3333333333333,107.56333333333333,1007.7499999999999,107.55375000000001C1010.1666666666665,107.54416666666668,1012.5833333333333,107.53458333333334,1014.9999999999999,107.525C1017.4166666666665,107.51541666666667,1019.8333333333333,107.50583333333334,1022.2499999999999,107.49625C1024.6666666666665,107.48666666666666,1027.0833333333333,107.47708333333334,1029.5,107.4675C1031.9166666666667,107.45791666666666,1034.3333333333333,107.44833333333334,1036.75,107.43875C1039.1666666666667,107.42916666666666,1041.5833333333333,107.41958333333334,1044,107.41C1046.4166666666667,107.40041666666666,1048.8333333333333,107.39083333333332,1051.25,107.38125C1053.6666666666667,107.37166666666667,1056.0833333333333,107.36208333333333,1058.5,107.3525C1060.9166666666667,107.34291666666668,1063.3333333333333,107.33333333333334,1065.75,107.32375C1068.1666666666667,107.31416666666667,1070.5833333333333,107.30458333333334,1073,107.295C1075.4166666666667,107.28541666666666,1077.8333333333333,107.27583333333334,1080.25,107.26625C1082.6666666666667,107.25666666666666,1085.0833333333333,107.24708333333332,1087.5,107.2375C1089.9166666666667,107.22791666666667,1092.3333333333333,107.21833333333335,1094.75,107.20875000000001C1097.1666666666667,107.19916666666667,1099.5833333333333,107.18958333333333,1102,107.17999999999999C1104.4166666666667,107.17041666666665,1106.8333333333333,107.16083333333331,1109.25,107.15124999999999C1111.6666666666667,107.14166666666667,1114.0833333333333,107.13208333333333,1116.5,107.1225C1118.9166666666667,107.11291666666668,1121.3333333333333,107.10333333333332,1123.75,107.09375C1126.1666666666667,107.08416666666668,1128.5833333333333,107.07458333333335,1131,107.06500000000001C1133.4166666666667,107.05541666666667,1135.8333333333333,107.04583333333333,1138.25,107.03625C1140.6666666666667,107.02666666666666,1143.0833333333333,107.01708333333332,1145.5,107.0075C1147.9166666666667,106.99791666666667,1150.3333333333333,106.98833333333334,1152.75,106.97875C1155.1666666666667,106.96916666666667,1157.5833333333333,106.96916666666667,1160,106.94999999999999C1162.4166666666667,106.93083333333331,1164.8333333333333,105.41666666666667,1167.25,104.65C1169.6666666666667,103.88333333333334,1172.0833333333333,103.11666666666667,1174.5,102.35000000000001C1176.9166666666667,101.58333333333334,1179.3333333333333,100.81666666666666,1181.75,100.05C1184.1666666666667,99.28333333333333,1186.5833333333333,98.51666666666667,1189,97.75C1191.4166666666667,96.98333333333333,1193.8333333333333,96.21666666666665,1196.25,95.44999999999999C1198.6666666666667,94.68333333333332,1201.0833333333333,93.91666666666667,1203.5,93.15C1205.9166666666667,92.38333333333334,1208.3333333333333,91.61666666666667,1210.75,90.85000000000001C1213.1666666666667,90.08333333333334,1215.5833333333333,89.31666666666666,1218,88.55C1220.4166666666667,87.78333333333333,1222.8333333333333,87.01666666666667,1225.25,86.25C1227.6666666666667,85.48333333333333,1230.0833333333333,84.71666666666667,1232.5,83.95C1234.9166666666667,83.18333333333334,1237.3333333333333,82.41666666666666,1239.75,81.64999999999999C1242.1666666666667,80.88333333333333,1244.5833333333333,80.11666666666666,1247,79.35C1249.4166666666667,78.58333333333333,1251.8333333333333,77.81666666666666,1254.25,77.05C1256.6666666666667,76.28333333333333,1259.0833333333333,75.51666666666667,1261.5,74.75C1263.9166666666667,73.98333333333333,1266.3333333333333,73.21666666666667,1268.75,72.45C1271.1666666666667,71.68333333333334,1273.5833333333333,70.91666666666666,1276,70.14999999999999C1278.4166666666667,69.38333333333333,1280.8333333333333,68.61666666666667,1283.25,67.85000000000001C1285.6666666666667,67.08333333333334,1288.0833333333333,66.31666666666668,1290.5,65.55000000000001C1292.9166666666667,64.78333333333335,1295.3333333333333,64.01666666666668,1297.75,63.25000000000001C1300.1666666666667,62.48333333333334,1302.5833333333333,61.71666666666667,1305,60.95C1307.4166666666667,60.18333333333334,1309.8333333333333,59.416666666666664,1312.25,58.65C1314.6666666666667,57.88333333333333,1317.0833333333333,57.11666666666667,1319.5,56.35C1321.9166666666667,55.583333333333336,1324.3333333333333,54.81666666666666,1326.75,54.05C1329.1666666666667,53.28333333333333,1331.5833333333333,52.51666666666666,1334,51.74999999999999C1336.4166666666667,50.98333333333333,1338.8333333333333,50.21666666666667,1341.25,49.45C1343.6666666666667,48.68333333333334,1346.0833333333333,47.91666666666667,1348.5,47.150000000000006C1350.9166666666667,46.38333333333334,1353.3333333333333,45.61666666666667,1355.75,44.85C1358.1666666666667,44.083333333333336,1360.5833333333333,43.31666666666666,1363,42.55C1365.4166666666667,41.78333333333333,1367.8333333333333,41.016666666666666,1370.25,40.25C1372.6666666666667,39.483333333333334,1375.0833333333333,38.71666666666666,1377.5,37.949999999999996C1379.9166666666667,37.18333333333333,1382.3333333333333,36.41666666666667,1384.75,35.650000000000006C1387.1666666666667,34.88333333333334,1389.5833333333333,34.11666666666667,1392,33.35C1394.4166666666667,32.583333333333336,1396.8333333333333,31.816666666666666,1399.25,31.05C1401.6666666666667,30.283333333333335,1404.0833333333333,29.516666666666666,1406.5,28.75C1408.9166666666667,27.983333333333334,1411.3333333333333,27.21666666666667,1413.75,26.45C1416.1666666666667,25.68333333333333,1418.5833333333333,24.916666666666664,1421,24.149999999999995C1423.4166666666667,23.383333333333326,1425.8333333333333,22.61666666666666,1428.25,21.849999999999994C1430.6666666666667,21.08333333333333,1433.0833333333333,20.31666666666667,1435.5,19.550000000000004C1437.9166666666667,18.78333333333334,1440.3333333333333,18.01666666666667,1442.75,17.250000000000004C1445.1666666666667,16.483333333333338,1447.5833333333333,15.716666666666669,1450,14.950000000000001" fill="transparent" stroke-linecap="round" stroke="#E7C6DF" stroke-width="2"></path><g class="visx-group visx-axis visx-axis-bottom" transform="translate(0, 115)"><g class="visx-group visx-axis-tick" transform="translate(0, 0)"><line class="visx-line" x1="0" y1="0" x2="0" y2="8" fill="transparent" shape-rendering="crispEdges" stroke="#000" stroke-width="0" stroke-linecap="square"></line><svg x="0" y="0" font-size="10" style="overflow:visible"><text transform="" x="0" y="18" fill="#000" font-size="10" text-anchor="middle"><tspan x="0" dy="0em">0%</tspan></text></svg></g><g class="visx-group visx-axis-tick" transform="translate(0, 0)"><line class="visx-line" x1="362.5" y1="0" x2="362.5" y2="8" fill="transparent" shape-rendering="crispEdges" stroke="#000" stroke-width="0" stroke-linecap="square"></line><svg x="0" y="0" font-size="10" style="overflow:visible"><text transform="" x="362.5" y="18" fill="#000" font-size="10" text-anchor="middle"><tspan x="362.5" dy="0em">25%</tspan></text></svg></g><g class="visx-group visx-axis-tick" transform="translate(0, 0)"><line class="visx-line" x1="725" y1="0" x2="725" y2="8" fill="transparent" shape-rendering="crispEdges" stroke="#000" stroke-width="0" stroke-linecap="square"></line><svg x="0" y="0" font-size="10" style="overflow:visible"><text transform="" x="725" y="18" fill="#000" font-size="10" text-anchor="middle"><tspan x="725" dy="0em">50%</tspan></text></svg></g><g class="visx-group visx-axis-tick" transform="translate(0, 0)"><line class="visx-line" x1="1087.5" y1="0" x2="1087.5" y2="8" fill="transparent" shape-rendering="crispEdges" stroke="#000" stroke-width="0" stroke-linecap="square"></line><svg x="0" y="0" font-size="10" style="overflow:visible"><text transform="" x="1087.5" y="18" fill="#000" font-size="10" text-anchor="middle"><tspan x="1087.5" dy="0em">75%</tspan></text></svg></g><g class="visx-group visx-axis-tick" transform="translate(0, 0)"><line class="visx-line" x1="1450" y1="0" x2="1450" y2="8" fill="transparent" shape-rendering="crispEdges" stroke="#000" stroke-width="0" stroke-linecap="square"></line><svg x="0" y="0" font-size="10" style="overflow:visible"><text transform="" x="1450" y="18" fill="#000" font-size="10" text-anchor="middle"><tspan x="1450" dy="0em">100%</tspan></text></svg></g><line class="visx-line visx-axis-line" x1="0.5" y1="0" x2="1450.5" y2="0" fill="transparent" shape-rendering="crispEdges" stroke="#222" stroke-width="0"></line></g><g class="visx-group visx-axis visx-axis-left" transform="translate(0, 0)"><g class="visx-group visx-axis-tick" transform="translate(0, 0)"><line class="visx-line" x1="0" y1="115" x2="-8" y2="115" fill="transparent" shape-rendering="crispEdges" stroke="#222" stroke-width="0" stroke-linecap="square"></line><svg x="-30" y="0" font-size="8" style="overflow:visible"><text transform="" x="-8" y="115" fill="#000" font-size="8" text-anchor="start"><tspan x="-8" dy="0em">0%</tspan></text></svg></g><g class="visx-group visx-axis-tick" transform="translate(0, 0)"><line class="visx-line" x1="0" y1="57.5" x2="-8" y2="57.5" fill="transparent" shape-rendering="crispEdges" stroke="#222" stroke-width="0" stroke-linecap="square"></line><svg x="-30" y="0" font-size="8" style="overflow:visible"><text transform="" x="-8" y="57.5" fill="#000" font-size="8" text-anchor="start"><tspan x="-8" dy="0em">50%</tspan></text></svg></g><g class="visx-group visx-axis-tick" transform="translate(0, 0)"><line class="visx-line" x1="0" y1="0" x2="-8" y2="0" fill="transparent" shape-rendering="crispEdges" stroke="#222" stroke-width="0" stroke-linecap="square"></line><svg x="-30" y="0" font-size="8" style="overflow:visible"><text transform="" x="-8" y="0" fill="#000" font-size="8" text-anchor="start"><tspan x="-8" dy="0em">100%</tspan></text></svg></g><line class="visx-line visx-axis-line" x1="0" y1="115.5" x2="0" y2="0.5" fill="transparent" shape-rendering="crispEdges" stroke="#222" stroke-width="0"></line></g><rect class="visx-bar" width="1450" height="115" fill="transparent"></rect><line class="visx-line" x1="1160" y1="28" x2="1160" y2="115" fill="transparent" shape-rendering="crispEdges" stroke="#0062D2" stroke-width="1" pointer-events="none" stroke-dasharray="5,2"></line><svg x="0" y="0" font-size="10px" style="overflow:visible"><text transform="" x="1160" y="20" font-size="10px" fill="#fff" stroke="#fff" stroke-width="0.8em" text-anchor="middle"><tspan x="1160" dy="0.355em">Optimal 80%</tspan></text></svg><svg x="0" y="0" font-size="10px" style="overflow:visible"><text transform="" x="1160" y="20" font-size="10px" fill="#62677B" text-anchor="middle"><tspan x="1160" dy="0.355em">Optimal 80%</tspan></text></svg></g></svg>