<?xml version="1.0"?><svg xmlns="http://www.w3.org/2000/svg" xmlns:xlink= "http://www.w3.org/1999/xlink" style="background: white;" width="1500" height="185"> <g style="color: black; font-size: 13px; font-family: sans-serif; transform: translate(18px, 25px);"><g><circle r="3" cx="-6" cy="-5" style="fill: #B6509E" /><text>Borrow APR, variable</text></g><g style="transform: translateX(150px);"><circle r="3" cx="-6" cy="-5" style="fill: rgb(231, 198, 223)" /><text>Borrow APR, stable</text></g><g style="transform: translateX(290px);"><circle r="3" cx="-6" cy="-5" style="fill: rgb(0, 98, 210)" /><text>Utilization Rate</text></g></g><g class="visx-group" transform="translate(40, 50)"><g class="visx-group visx-rows" transform="translate(0, 0)"><line class="visx-line" x1="0" y1="115" x2="1450" y2="115" fill="transparent" shape-rendering="crispEdges" stroke="#000" stroke-width="1" stroke-dasharray="3,3" pointer-events="none"></line><line class="visx-line" x1="0" y1="86.25" x2="1450" y2="86.25" fill="transparent" shape-rendering="crispEdges" stroke="#000" stroke-width="1" stroke-dasharray="3,3" pointer-events="none"></line><line class="visx-line" x1="0" y1="57.5" x2="1450" y2="57.5" fill="transparent" shape-rendering="crispEdges" stroke="#000" stroke-width="1" stroke-dasharray="3,3" pointer-events="none"></line><line class="visx-line" x1="0" y1="28.75" x2="1450" y2="28.75" fill="transparent" shape-rendering="crispEdges" stroke="#000" stroke-width="1" stroke-dasharray="3,3" pointer-events="none"></line><line class="visx-line" x1="0" y1="0" x2="1450" y2="0" fill="transparent" shape-rendering="crispEdges" stroke="#000" stroke-width="1" stroke-dasharray="3,3" pointer-events="none"></line></g><path class="visx-linepath" d="M0,114.13749999991056C2.4166666666666665,114.12259259254043,4.833333333333334,114.10768518517028,7.25,114.09277777777778C9.666666666666666,114.07787037038528,12.083333333333334,114.06296296296296,14.5,114.04805555555555C16.916666666666668,114.03314814814814,19.333333333333332,114.01824074074074,21.75,114.00333333333333C24.166666666666668,113.98842592592592,26.583333333333332,113.97351851851852,29,113.95861111111111C31.416666666666668,113.9437037037037,33.833333333333336,113.9287962962963,36.25,113.91388888888889C38.666666666666664,113.89898148148148,41.083333333333336,113.88407407407406,43.5,113.86916666666666C45.91666666666667,113.85425925925925,48.333333333333336,113.83935185185184,50.75000000000001,113.82444444444444C53.16666666666667,113.80953703703703,55.583333333333336,113.79462962962963,58,113.77972222222222C60.416666666666664,113.76481481481481,62.833333333333336,113.7499074074074,65.25,113.735C67.66666666666667,113.7200925925926,70.08333333333333,113.70518518518519,72.5,113.69027777777778C74.91666666666667,113.67537037037037,77.33333333333333,113.66046296296297,79.75,113.64555555555556C82.16666666666667,113.63064814814815,84.58333333333333,113.61574074074075,87,113.60083333333334C89.41666666666667,113.58592592592593,91.83333333333333,113.57101851851851,94.25,113.55611111111111C96.66666666666667,113.5412037037037,99.08333333333334,113.5262962962963,101.50000000000001,113.51138888888889C103.91666666666667,113.49648148148148,106.33333333333334,113.48157407407408,108.75,113.46666666666667C111.16666666666667,113.45175925925926,113.58333333333333,113.43685185185186,116,113.42194444444445C118.41666666666667,113.40703703703704,120.83333333333334,113.39212962962964,123.25000000000001,113.37722222222223C125.66666666666667,113.36231481481482,128.08333333333334,113.34740740740742,130.5,113.33250000000001C132.91666666666666,113.3175925925926,135.33333333333334,113.30268518518518,137.75,113.28777777777778C140.16666666666666,113.27287037037037,142.58333333333334,113.25796296296296,145,113.24305555555556C147.41666666666666,113.22814814814815,149.83333333333334,113.21324074074073,152.25,113.19833333333332C154.66666666666666,113.18342592592592,157.08333333333334,113.16851851851851,159.5,113.1536111111111C161.91666666666666,113.1387037037037,164.33333333333334,113.12379629629629,166.75,113.10888888888888C169.16666666666666,113.09398148148148,171.58333333333334,113.07907407407407,174,113.06416666666667C176.41666666666666,113.04925925925926,178.83333333333334,113.03435185185185,181.25,113.01944444444445C183.66666666666666,113.00453703703704,186.08333333333334,112.98962962962963,188.5,112.97472222222223C190.91666666666666,112.95981481481482,193.33333333333334,112.9449074074074,195.75,112.92999999999999C198.16666666666669,112.91509259259259,200.58333333333334,112.90018518518518,203.00000000000003,112.88527777777777C205.41666666666669,112.87037037037037,207.83333333333331,112.85546296296296,210.24999999999997,112.84055555555555C212.66666666666666,112.82564814814815,215.08333333333331,112.81074074074074,217.5,112.79583333333333C219.91666666666666,112.78092592592593,222.33333333333334,112.76601851851852,224.75,112.75111111111111C227.16666666666666,112.73620370370371,229.58333333333334,112.7212962962963,232,112.7063888888889C234.41666666666666,112.69148148148149,236.83333333333334,112.67657407407407,239.25,112.66166666666666C241.66666666666669,112.64675925925926,244.08333333333334,112.63185185185185,246.50000000000003,112.61694444444444C248.91666666666669,112.60203703703704,251.33333333333331,112.58712962962963,253.74999999999997,112.57222222222222C256.16666666666663,112.55731481481482,258.5833333333333,112.54240740740741,261,112.5275C263.4166666666667,112.5125925925926,265.8333333333333,112.49768518518519,268.25,112.48277777777778C270.6666666666667,112.46787037037038,273.0833333333333,112.45296296296297,275.5,112.43805555555556C277.9166666666667,112.42314814814816,280.3333333333333,112.40824074074075,282.75,112.39333333333335C285.1666666666667,112.37842592592594,287.5833333333333,112.36351851851852,290,112.34861111111111C292.4166666666667,112.3337037037037,294.8333333333333,112.31879629629628,297.25,112.30388888888888C299.6666666666667,112.28898148148147,302.0833333333333,112.27407407407406,304.5,112.25916666666666C306.9166666666667,112.24425925925925,309.3333333333333,112.22935185185185,311.75,112.21444444444444C314.1666666666667,112.19953703703703,316.5833333333333,112.18462962962963,319,112.16972222222222C321.4166666666667,112.15481481481481,323.8333333333333,112.1399074074074,326.25,112.125C328.6666666666667,112.1100925925926,331.0833333333333,112.09518518518519,333.5,112.08027777777778C335.9166666666667,112.06537037037037,338.3333333333333,112.05046296296297,340.75,112.03555555555556C343.1666666666667,112.02064814814815,345.5833333333333,112.00574074074073,348,111.99083333333333C350.4166666666667,111.97592592592592,352.8333333333333,111.96101851851851,355.25,111.94611111111111C357.6666666666667,111.9312037037037,360.0833333333333,111.9162962962963,362.5,111.90138888888889C364.9166666666667,111.88648148148148,367.3333333333333,111.87157407407408,369.75,111.85666666666667C372.1666666666667,111.84175925925926,374.5833333333333,111.82685185185186,377,111.81194444444445C379.4166666666667,111.79703703703704,381.8333333333333,111.78212962962964,384.25,111.76722222222223C386.6666666666667,111.75231481481482,389.0833333333333,111.7374074074074,391.5,111.7225C393.9166666666667,111.70759259259259,396.33333333333337,111.69268518518518,398.75000000000006,111.67777777777778C401.16666666666674,111.66287037037037,403.58333333333337,111.64796296296296,406.00000000000006,111.63305555555556C408.4166666666667,111.61814814814815,410.8333333333333,111.60324074074074,413.24999999999994,111.58833333333334C415.66666666666663,111.57342592592593,418.08333333333326,111.55851851851853,420.49999999999994,111.54361111111112C422.91666666666663,111.52870370370371,425.3333333333333,111.51379629629629,427.75,111.49888888888889C430.1666666666667,111.48398148148148,432.5833333333333,111.46907407407407,435,111.45416666666667C437.4166666666667,111.43925925925926,439.8333333333333,111.42435185185185,442.25,111.40944444444445C444.6666666666667,111.39453703703704,447.0833333333333,111.37962962962962,449.5,111.36472222222221C451.9166666666667,111.3498148148148,454.3333333333333,111.3349074074074,456.75,111.32C459.1666666666667,111.30509259259259,461.5833333333333,111.29018518518518,464,111.27527777777777C466.4166666666667,111.26037037037037,468.8333333333333,111.24546296296296,471.25,111.23055555555555C473.6666666666667,111.21564814814815,476.0833333333333,111.20074074074074,478.5,111.18583333333333C480.9166666666667,111.17092592592593,483.33333333333337,111.15601851851852,485.75000000000006,111.14111111111112C488.16666666666674,111.12620370370371,490.58333333333337,111.1112962962963,493.00000000000006,111.0963888888889C495.4166666666667,111.08148148148149,497.8333333333333,111.06657407407407,500.24999999999994,111.05166666666666C502.66666666666663,111.03675925925926,505.08333333333326,111.02185185185185,507.49999999999994,111.00694444444444C509.91666666666663,110.99203703703704,512.3333333333333,110.97712962962963,514.75,110.96222222222222C517.1666666666666,110.94731481481482,519.5833333333334,110.93240740740741,522,110.9175C524.4166666666666,110.9025925925926,526.8333333333334,110.88768518518519,529.25,110.87277777777778C531.6666666666666,110.85787037037038,534.0833333333334,110.84296296296297,536.5,110.82805555555557C538.9166666666666,110.81314814814816,541.3333333333334,110.79824074074074,543.75,110.78333333333333C546.1666666666666,110.76842592592592,548.5833333333334,110.75351851851852,551,110.73861111111111C553.4166666666666,110.7237037037037,555.8333333333334,110.7087962962963,558.25,110.69388888888889C560.6666666666666,110.67898148148149,563.0833333333334,110.66407407407407,565.5,110.64916666666666C567.9166666666666,110.63425925925925,570.3333333333334,110.61935185185185,572.75,110.60444444444444C575.1666666666666,110.58953703703703,577.5833333333334,110.57462962962963,580,110.55972222222222C582.4166666666666,110.54481481481481,584.8333333333334,110.5299074074074,587.25,110.515C589.6666666666666,110.5000925925926,592.0833333333334,110.48518518518519,594.5,110.47027777777778C596.9166666666666,110.45537037037037,599.3333333333334,110.44046296296295,601.75,110.42555555555555C604.1666666666666,110.41064814814814,606.5833333333334,110.39574074074073,609,110.38083333333333C611.4166666666666,110.36592592592592,613.8333333333334,110.35101851851852,616.25,110.33611111111111C618.6666666666666,110.3212037037037,621.0833333333334,110.3062962962963,623.5,110.29138888888889C625.9166666666666,110.27648148148148,628.3333333333334,110.26157407407408,630.75,110.24666666666667C633.1666666666666,110.23175925925926,635.5833333333334,110.21685185185186,638,110.20194444444445C640.4166666666666,110.18703703703704,642.8333333333334,110.17212962962962,645.25,110.15722222222222C647.6666666666666,110.14231481481481,650.0833333333334,110.14231481481481,652.5,110.1125C654.9166666666666,110.08268518518518,657.3333333333334,109.58977272727273,659.75,109.32840909090909C662.1666666666666,109.06704545454545,664.5833333333334,108.80568181818182,667,108.54431818181818C669.4166666666666,108.28295454545454,671.8333333333334,108.0215909090909,674.25,107.76022727272726C676.6666666666666,107.49886363636362,679.0833333333334,107.23749999999998,681.5,106.97613636363636C683.9166666666666,106.71477272727273,686.3333333333334,106.4534090909091,688.75,106.19204545454546C691.1666666666666,105.93068181818182,693.5833333333334,105.66931818181818,696,105.40795454545454C698.4166666666666,105.1465909090909,700.8333333333334,104.88522727272728,703.25,104.62386363636364C705.6666666666666,104.3625,708.0833333333334,104.10113636363637,710.5,103.83977272727273C712.9166666666666,103.57840909090909,715.3333333333334,103.31704545454545,717.75,103.05568181818181C720.1666666666666,102.79431818181817,722.5833333333334,102.53295454545454,725,102.2715909090909C727.4166666666666,102.01022727272726,729.8333333333334,101.74886363636365,732.25,101.48750000000001C734.6666666666666,101.22613636363637,737.0833333333334,100.96477272727273,739.5,100.70340909090909C741.9166666666666,100.44204545454545,744.3333333333334,100.18068181818182,746.75,99.91931818181818C749.1666666666666,99.65795454545454,751.5833333333334,99.39659090909092,754,99.13522727272728C756.4166666666666,98.87386363636364,758.8333333333334,98.6125,761.25,98.35113636363636C763.6666666666666,98.08977272727272,766.0833333333334,97.82840909090909,768.5,97.56704545454545C770.9166666666666,97.30568181818181,773.3333333333334,97.04431818181818,775.75,96.78295454545454C778.1666666666666,96.5215909090909,780.5833333333334,96.26022727272728,783,95.99886363636364C785.4166666666667,95.7375,787.8333333333334,95.47613636363636,790.2500000000001,95.21477272727272C792.6666666666667,94.95340909090908,795.0833333333335,94.69204545454546,797.5000000000001,94.43068181818182C799.9166666666667,94.16931818181818,802.3333333333335,93.90795454545454,804.7500000000001,93.6465909090909C807.1666666666667,93.38522727272726,809.5833333333335,93.12386363636364,812.0000000000001,92.8625C814.4166666666667,92.60113636363637,816.8333333333333,92.33977272727272,819.2499999999999,92.07840909090909C821.6666666666665,91.81704545454545,824.0833333333333,91.55568181818182,826.4999999999999,91.29431818181818C828.9166666666665,91.03295454545454,831.3333333333333,90.7715909090909,833.7499999999999,90.51022727272726C836.1666666666665,90.24886363636362,838.5833333333333,89.9875,840.9999999999999,89.72613636363636C843.4166666666666,89.46477272727272,845.8333333333333,89.20340909090909,848.25,88.94204545454545C850.6666666666666,88.68068181818181,853.0833333333334,88.41931818181818,855.5,88.15795454545454C857.9166666666666,87.8965909090909,860.3333333333334,87.63522727272728,862.75,87.37386363636364C865.1666666666666,87.1125,867.5833333333334,86.85113636363637,870,86.58977272727273C872.4166666666666,86.32840909090909,874.8333333333334,86.06704545454545,877.25,85.80568181818181C879.6666666666666,85.54431818181817,882.0833333333334,85.28295454545454,884.5,85.0215909090909C886.9166666666666,84.76022727272726,889.3333333333334,84.49886363636364,891.75,84.2375C894.1666666666666,83.97613636363636,896.5833333333334,83.71477272727273,899,83.45340909090909C901.4166666666666,83.19204545454545,903.8333333333334,82.93068181818182,906.25,82.66931818181818C908.6666666666666,82.40795454545454,911.0833333333334,82.14659090909092,913.5,81.88522727272728C915.9166666666666,81.62386363636364,918.3333333333334,81.3625,920.75,81.10113636363636C923.1666666666666,80.83977272727272,925.5833333333334,80.5784090909091,928,80.31704545454546C930.4166666666666,80.05568181818182,932.8333333333334,79.7943181818182,935.25,79.53295454545456C937.6666666666666,79.27159090909092,940.0833333333334,79.01022727272728,942.5,78.74886363636364C944.9166666666666,78.4875,947.3333333333334,78.22613636363637,949.75,77.96477272727273C952.1666666666666,77.70340909090909,954.5833333333334,77.44204545454546,957,77.18068181818182C959.4166666666666,76.91931818181818,961.8333333333334,76.65795454545454,964.25,76.3965909090909C966.6666666666667,76.13522727272726,969.0833333333334,75.87386363636364,971.5000000000001,75.6125C973.9166666666667,75.35113636363636,976.3333333333335,75.08977272727273,978.7500000000001,74.82840909090909C981.1666666666667,74.56704545454545,983.5833333333335,74.30568181818181,986.0000000000001,74.04431818181817C988.4166666666667,73.78295454545453,990.8333333333335,73.5215909090909,993.2500000000001,73.26022727272726C995.6666666666667,72.99886363636364,998.0833333333333,72.7375,1000.4999999999999,72.47613636363637C1002.9166666666665,72.21477272727273,1005.3333333333333,71.95340909090909,1007.7499999999999,71.69204545454545C1010.1666666666665,71.43068181818181,1012.5833333333333,71.16931818181818,1014.9999999999999,70.90795454545454C1017.4166666666665,70.6465909090909,1019.8333333333333,70.38522727272728,1022.2499999999999,70.12386363636364C1024.6666666666665,69.8625,1027.0833333333333,69.60113636363637,1029.5,69.33977272727273C1031.9166666666667,69.07840909090909,1034.3333333333333,68.81704545454545,1036.75,68.55568181818181C1039.1666666666667,68.29431818181817,1041.5833333333333,68.03295454545456,1044,67.77159090909092C1046.4166666666667,67.51022727272728,1048.8333333333333,67.24886363636364,1051.25,66.9875C1053.6666666666667,66.72613636363636,1056.0833333333333,66.46477272727273,1058.5,66.20340909090909C1060.9166666666667,65.94204545454545,1063.3333333333333,65.68068181818182,1065.75,65.41931818181818C1068.1666666666667,65.15795454545454,1070.5833333333333,64.89659090909092,1073,64.63522727272728C1075.4166666666667,64.37386363636364,1077.8333333333333,64.1125,1080.25,63.85113636363636C1082.6666666666667,63.58977272727272,1085.0833333333333,63.32840909090909,1087.5,63.06704545454546C1089.9166666666667,62.805681818181824,1092.3333333333333,62.54431818181817,1094.75,62.28295454545454C1097.1666666666667,62.021590909090904,1099.5833333333333,61.76022727272727,1102,61.49886363636364C1104.4166666666667,61.237500000000004,1106.8333333333333,60.97613636363636,1109.25,60.714772727272724C1111.6666666666667,60.45340909090909,1114.0833333333333,60.19204545454545,1116.5,59.93068181818182C1118.9166666666667,59.669318181818184,1121.3333333333333,59.40795454545455,1123.75,59.14659090909092C1126.1666666666667,58.885227272727285,1128.5833333333333,58.62386363636364,1131,58.362500000000004C1133.4166666666667,58.10113636363637,1135.8333333333333,57.83977272727273,1138.25,57.5784090909091C1140.6666666666667,57.317045454545465,1143.0833333333333,57.055681818181824,1145.5,56.794318181818184C1147.9166666666667,56.532954545454544,1150.3333333333333,56.27159090909092,1152.75,56.01022727272728C1155.1666666666667,55.74886363636364,1157.5833333333333,55.487500000000004,1160,55.226136363636364C1162.4166666666667,54.964772727272724,1164.8333333333333,54.70340909090909,1167.25,54.44204545454545C1169.6666666666667,54.18068181818181,1172.0833333333333,53.919318181818184,1174.5,53.657954545454544C1176.9166666666667,53.396590909090904,1179.3333333333333,53.13522727272726,1181.75,52.87386363636363C1184.1666666666667,52.6125,1186.5833333333333,52.351136363636364,1189,52.08977272727273C1191.4166666666667,51.8284090909091,1193.8333333333333,51.567045454545465,1196.25,51.305681818181824C1198.6666666666667,51.044318181818184,1201.0833333333333,50.78295454545455,1203.5,50.52159090909091C1205.9166666666667,50.26022727272727,1208.3333333333333,49.99886363636364,1210.75,49.7375C1213.1666666666667,49.47613636363636,1215.5833333333333,49.21477272727273,1218,48.95340909090909C1220.4166666666667,48.69204545454545,1222.8333333333333,48.43068181818182,1225.25,48.16931818181818C1227.6666666666667,47.90795454545454,1230.0833333333333,47.6465909090909,1232.5,47.38522727272726C1234.9166666666667,47.12386363636363,1237.3333333333333,46.862500000000004,1239.75,46.60113636363637C1242.1666666666667,46.33977272727274,1244.5833333333333,46.0784090909091,1247,45.81704545454546C1249.4166666666667,45.55568181818182,1251.8333333333333,45.294318181818184,1254.25,45.032954545454544C1256.6666666666667,44.771590909090904,1259.0833333333333,44.51022727272728,1261.5,44.24886363636364C1263.9166666666667,43.9875,1266.3333333333333,43.726136363636364,1268.75,43.464772727272724C1271.1666666666667,43.20340909090908,1273.5833333333333,42.94204545454545,1276,42.68068181818181C1278.4166666666667,42.41931818181817,1280.8333333333333,42.15795454545454,1283.25,41.896590909090904C1285.6666666666667,41.63522727272727,1288.0833333333333,41.37386363636364,1290.5,41.112500000000004C1292.9166666666667,40.85113636363637,1295.3333333333333,40.589772727272745,1297.75,40.328409090909105C1300.1666666666667,40.067045454545465,1302.5833333333333,39.805681818181824,1305,39.544318181818184C1307.4166666666667,39.282954545454544,1309.8333333333333,39.021590909090904,1312.25,38.76022727272727C1314.6666666666667,38.49886363636364,1317.0833333333333,38.2375,1319.5,37.976136363636364C1321.9166666666667,37.71477272727273,1324.3333333333333,37.4534090909091,1326.75,37.192045454545465C1329.1666666666667,36.93068181818183,1331.5833333333333,36.669318181818205,1334,36.407954545454565C1336.4166666666667,36.146590909090925,1338.8333333333333,35.88522727272728,1341.25,35.62386363636364C1343.6666666666667,35.3625,1346.0833333333333,35.10113636363637,1348.5,34.83977272727273C1350.9166666666667,34.57840909090909,1353.3333333333333,34.31704545454545,1355.75,34.05568181818182C1358.1666666666667,33.794318181818184,1360.5833333333333,33.53295454545456,1363,33.27159090909092C1365.4166666666667,33.01022727272728,1367.8333333333333,32.74886363636364,1370.25,32.4875C1372.6666666666667,32.22613636363636,1375.0833333333333,31.964772727272724,1377.5,31.703409090909087C1379.9166666666667,31.44204545454545,1382.3333333333333,31.180681818181824,1384.75,30.919318181818188C1387.1666666666667,30.65795454545455,1389.5833333333333,30.39659090909091,1392,30.135227272727278C1394.4166666666667,29.873863636363645,1396.8333333333333,29.612500000000015,1399.25,29.35113636363638C1401.6666666666667,29.08977272727274,1404.0833333333333,28.828409090909094,1406.5,28.567045454545454C1408.9166666666667,28.305681818181814,1411.3333333333333,28.04431818181818,1413.75,27.782954545454544C1416.1666666666667,27.521590909090907,1418.5833333333333,27.26022727272727,1421,26.998863636363634C1423.4166666666667,26.737499999999997,1425.8333333333333,26.47613636363637,1428.25,26.214772727272734C1430.6666666666667,25.953409090909098,1433.0833333333333,25.69204545454546,1435.5,25.430681818181824C1437.9166666666667,25.169318181818188,1440.3333333333333,24.90795454545455,1442.75,24.646590909090914C1445.1666666666667,24.385227272727278,1447.5833333333333,24.123863636363637,1450,23.8625" fill="transparent" stroke-linecap="round" stroke="#B6509E" stroke-width="2"></path><path class="visx-linepath" d="M0,112.12499999989139C2.4166666666666665,112.1068981480848,4.833333333333334,112.08879629627819,7.25,112.07069444444444C9.666666666666666,112.0525925926107,12.083333333333334,112.03449074074074,14.5,112.01638888888888C16.916666666666668,111.99828703703703,19.333333333333332,111.98018518518519,21.75,111.96208333333334C24.166666666666668,111.94398148148149,26.583333333333332,111.92587962962963,29,111.90777777777778C31.416666666666668,111.88967592592593,33.833333333333336,111.87157407407408,36.25,111.85347222222222C38.666666666666664,111.83537037037037,41.083333333333336,111.81726851851852,43.5,111.79916666666666C45.91666666666667,111.78106481481481,48.333333333333336,111.76296296296296,50.75000000000001,111.7448611111111C53.16666666666667,111.72675925925925,55.583333333333336,111.7086574074074,58,111.69055555555555C60.416666666666664,111.6724537037037,62.833333333333336,111.65435185185186,65.25,111.63625C67.66666666666667,111.61814814814815,70.08333333333333,111.6000462962963,72.5,111.58194444444445C74.91666666666667,111.5638425925926,77.33333333333333,111.54574074074074,79.75,111.52763888888889C82.16666666666667,111.50953703703703,84.58333333333333,111.4914351851852,87,111.47333333333334C89.41666666666667,111.45523148148149,91.83333333333333,111.43712962962962,94.25,111.41902777777777C96.66666666666667,111.40092592592592,99.08333333333334,111.38282407407407,101.50000000000001,111.36472222222221C103.91666666666667,111.34662037037036,106.33333333333334,111.32851851851852,108.75,111.31041666666667C111.16666666666667,111.29231481481482,113.58333333333333,111.27421296296296,116,111.25611111111111C118.41666666666667,111.23800925925926,120.83333333333334,111.2199074074074,123.25000000000001,111.20180555555555C125.66666666666667,111.1837037037037,128.08333333333334,111.16560185185186,130.5,111.14750000000001C132.91666666666666,111.12939814814816,135.33333333333334,111.1112962962963,137.75,111.09319444444445C140.16666666666666,111.0750925925926,142.58333333333334,111.05699074074073,145,111.03888888888888C147.41666666666666,111.02078703703702,149.83333333333334,111.00268518518519,152.25,110.98458333333333C154.66666666666666,110.96648148148148,157.08333333333334,110.94837962962963,159.5,110.93027777777777C161.91666666666666,110.91217592592592,164.33333333333334,110.89407407407407,166.75,110.87597222222222C169.16666666666666,110.85787037037036,171.58333333333334,110.83976851851853,174,110.82166666666667C176.41666666666666,110.80356481481482,178.83333333333334,110.78546296296297,181.25,110.76736111111111C183.66666666666666,110.74925925925926,186.08333333333334,110.73115740740741,188.5,110.71305555555556C190.91666666666666,110.6949537037037,193.33333333333334,110.67685185185186,195.75,110.65875000000001C198.16666666666669,110.64064814814816,200.58333333333334,110.62254629629629,203.00000000000003,110.60444444444444C205.41666666666669,110.58634259259259,207.83333333333331,110.56824074074073,210.24999999999997,110.55013888888888C212.66666666666666,110.53203703703703,215.08333333333331,110.51393518518519,217.5,110.49583333333334C219.91666666666666,110.47773148148148,222.33333333333334,110.45962962962963,224.75,110.44152777777778C227.16666666666666,110.42342592592593,229.58333333333334,110.40532407407407,232,110.38722222222222C234.41666666666666,110.36912037037037,236.83333333333334,110.35101851851853,239.25,110.33291666666668C241.66666666666669,110.31481481481482,244.08333333333334,110.29671296296297,246.50000000000003,110.27861111111112C248.91666666666669,110.26050925925927,251.33333333333331,110.2424074074074,253.74999999999997,110.22430555555555C256.16666666666663,110.2062037037037,258.5833333333333,110.18810185185185,261,110.17C263.4166666666667,110.15189814814815,265.8333333333333,110.1337962962963,268.25,110.11569444444444C270.6666666666667,110.09759259259259,273.0833333333333,110.07949074074074,275.5,110.06138888888889C277.9166666666667,110.04328703703703,280.3333333333333,110.0251851851852,282.75,110.00708333333334C285.1666666666667,109.98898148148149,287.5833333333333,109.97087962962964,290,109.95277777777778C292.4166666666667,109.93467592592593,294.8333333333333,109.91657407407408,297.25,109.89847222222222C299.6666666666667,109.88037037037037,302.0833333333333,109.86226851851852,304.5,109.84416666666667C306.9166666666667,109.82606481481481,309.3333333333333,109.80796296296296,311.75,109.78986111111111C314.1666666666667,109.77175925925926,316.5833333333333,109.7536574074074,319,109.73555555555555C321.4166666666667,109.7174537037037,323.8333333333333,109.69935185185184,326.25,109.68124999999999C328.6666666666667,109.66314814814814,331.0833333333333,109.6450462962963,333.5,109.62694444444445C335.9166666666667,109.6088425925926,338.3333333333333,109.59074074074074,340.75,109.57263888888889C343.1666666666667,109.55453703703704,345.5833333333333,109.53643518518518,348,109.51833333333333C350.4166666666667,109.50023148148148,352.8333333333333,109.48212962962964,355.25,109.46402777777779C357.6666666666667,109.44592592592593,360.0833333333333,109.42782407407407,362.5,109.40972222222221C364.9166666666667,109.39162037037036,367.3333333333333,109.37351851851851,369.75,109.35541666666666C372.1666666666667,109.3373148148148,374.5833333333333,109.31921296296296,377,109.30111111111111C379.4166666666667,109.28300925925926,381.8333333333333,109.2649074074074,384.25,109.24680555555555C386.6666666666667,109.2287037037037,389.0833333333333,109.21060185185185,391.5,109.1925C393.9166666666667,109.17439814814814,396.33333333333337,109.1562962962963,398.75000000000006,109.13819444444445C401.16666666666674,109.1200925925926,403.58333333333337,109.10199074074075,406.00000000000006,109.0838888888889C408.4166666666667,109.06578703703704,410.8333333333333,109.04768518518519,413.24999999999994,109.02958333333333C415.66666666666663,109.01148148148148,418.08333333333326,108.99337962962963,420.49999999999994,108.97527777777778C422.91666666666663,108.95717592592592,425.3333333333333,108.93907407407407,427.75,108.92097222222222C430.1666666666667,108.90287037037037,432.5833333333333,108.88476851851851,435,108.86666666666666C437.4166666666667,108.84856481481481,439.8333333333333,108.83046296296297,442.25,108.81236111111112C444.6666666666667,108.79425925925926,447.0833333333333,108.77615740740741,449.5,108.75805555555556C451.9166666666667,108.7399537037037,454.3333333333333,108.72185185185185,456.75,108.70375C459.1666666666667,108.68564814814815,461.5833333333333,108.66754629629631,464,108.64944444444446C466.4166666666667,108.6313425925926,468.8333333333333,108.61324074074074,471.25,108.59513888888888C473.6666666666667,108.57703703703703,476.0833333333333,108.55893518518518,478.5,108.54083333333332C480.9166666666667,108.52273148148147,483.33333333333337,108.50462962962963,485.75000000000006,108.48652777777778C488.16666666666674,108.46842592592593,490.58333333333337,108.45032407407408,493.00000000000006,108.43222222222222C495.4166666666667,108.41412037037037,497.8333333333333,108.39601851851852,500.24999999999994,108.37791666666666C502.66666666666663,108.35981481481481,505.08333333333326,108.34171296296297,507.49999999999994,108.32361111111112C509.91666666666663,108.30550925925927,512.3333333333333,108.28740740740741,514.75,108.26930555555556C517.1666666666666,108.25120370370371,519.5833333333334,108.23310185185186,522,108.215C524.4166666666666,108.19689814814815,526.8333333333334,108.1787962962963,529.25,108.16069444444445C531.6666666666666,108.14259259259259,534.0833333333334,108.12449074074074,536.5,108.10638888888889C538.9166666666666,108.08828703703703,541.3333333333334,108.07018518518518,543.75,108.05208333333333C546.1666666666666,108.03398148148148,548.5833333333334,108.01587962962964,551,107.99777777777778C553.4166666666666,107.97967592592593,555.8333333333334,107.96157407407408,558.25,107.94347222222223C560.6666666666666,107.92537037037037,563.0833333333334,107.90726851851852,565.5,107.88916666666667C567.9166666666666,107.87106481481482,570.3333333333334,107.85296296296296,572.75,107.83486111111111C575.1666666666666,107.81675925925926,577.5833333333334,107.7986574074074,580,107.78055555555555C582.4166666666666,107.7624537037037,584.8333333333334,107.74435185185185,587.25,107.72625C589.6666666666666,107.70814814814814,592.0833333333334,107.6900462962963,594.5,107.67194444444445C596.9166666666666,107.6538425925926,599.3333333333334,107.63574074074074,601.75,107.61763888888889C604.1666666666666,107.59953703703704,606.5833333333334,107.58143518518519,609,107.56333333333333C611.4166666666666,107.54523148148148,613.8333333333334,107.52712962962964,616.25,107.50902777777779C618.6666666666666,107.49092592592594,621.0833333333334,107.47282407407408,623.5,107.45472222222223C625.9166666666666,107.43662037037038,628.3333333333334,107.41851851851852,630.75,107.40041666666667C633.1666666666666,107.38231481481482,635.5833333333334,107.36421296296297,638,107.34611111111111C640.4166666666666,107.32800925925926,642.8333333333334,107.30990740740741,645.25,107.29180555555556C647.6666666666666,107.2737037037037,650.0833333333334,107.2737037037037,652.5,107.2375C654.9166666666666,107.20129629629629,657.3333333333334,106.71477272727273,659.75,106.45340909090909C662.1666666666666,106.19204545454545,664.5833333333334,105.93068181818182,667,105.66931818181818C669.4166666666666,105.40795454545454,671.8333333333334,105.14659090909092,674.25,104.88522727272728C676.6666666666666,104.62386363636364,679.0833333333334,104.36250000000001,681.5,104.10113636363637C683.9166666666666,103.83977272727273,686.3333333333334,103.57840909090909,688.75,103.31704545454545C691.1666666666666,103.05568181818181,693.5833333333334,102.79431818181818,696,102.53295454545454C698.4166666666666,102.2715909090909,700.8333333333334,102.01022727272728,703.25,101.74886363636364C705.6666666666666,101.4875,708.0833333333334,101.22613636363637,710.5,100.96477272727273C712.9166666666666,100.70340909090909,715.3333333333334,100.44204545454545,717.75,100.18068181818181C720.1666666666666,99.91931818181817,722.5833333333334,99.65795454545454,725,99.3965909090909C727.4166666666666,99.13522727272726,729.8333333333334,98.87386363636365,732.25,98.61250000000001C734.6666666666666,98.35113636363637,737.0833333333334,98.08977272727273,739.5,97.82840909090909C741.9166666666666,97.56704545454545,744.3333333333334,97.30568181818182,746.75,97.04431818181818C749.1666666666666,96.78295454545454,751.5833333333334,96.52159090909092,754,96.26022727272728C756.4166666666666,95.99886363636364,758.8333333333334,95.7375,761.25,95.47613636363636C763.6666666666666,95.21477272727272,766.0833333333334,94.95340909090908,768.5,94.69204545454545C770.9166666666666,94.43068181818182,773.3333333333334,94.1693181818182,775.75,93.90795454545456C778.1666666666666,93.64659090909092,780.5833333333334,93.38522727272728,783,93.12386363636364C785.4166666666667,92.8625,787.8333333333334,92.60113636363637,790.2500000000001,92.33977272727273C792.6666666666667,92.07840909090909,795.0833333333335,91.81704545454546,797.5000000000001,91.55568181818182C799.9166666666667,91.29431818181818,802.3333333333335,91.03295454545454,804.7500000000001,90.7715909090909C807.1666666666667,90.51022727272726,809.5833333333335,90.24886363636364,812.0000000000001,89.9875C814.4166666666667,89.72613636363637,816.8333333333333,89.46477272727273,819.2499999999999,89.20340909090909C821.6666666666665,88.94204545454545,824.0833333333333,88.68068181818181,826.4999999999999,88.41931818181817C828.9166666666665,88.15795454545453,831.3333333333333,87.89659090909092,833.7499999999999,87.63522727272728C836.1666666666665,87.37386363636364,838.5833333333333,87.11250000000001,840.9999999999999,86.85113636363637C843.4166666666666,86.58977272727273,845.8333333333333,86.32840909090909,848.25,86.06704545454545C850.6666666666666,85.80568181818181,853.0833333333334,85.54431818181817,855.5,85.28295454545454C857.9166666666666,85.02159090909092,860.3333333333334,84.76022727272729,862.75,84.49886363636365C865.1666666666666,84.23750000000001,867.5833333333334,83.97613636363637,870,83.71477272727273C872.4166666666666,83.45340909090909,874.8333333333334,83.19204545454546,877.25,82.93068181818182C879.6666666666666,82.66931818181818,882.0833333333334,82.40795454545456,884.5,82.14659090909092C886.9166666666666,81.88522727272728,889.3333333333334,81.62386363636364,891.75,81.3625C894.1666666666666,81.10113636363636,896.5833333333334,80.83977272727273,899,80.57840909090909C901.4166666666666,80.31704545454545,903.8333333333334,80.05568181818182,906.25,79.79431818181818C908.6666666666666,79.53295454545454,911.0833333333334,79.2715909090909,913.5,79.01022727272726C915.9166666666666,78.74886363636362,918.3333333333334,78.48749999999998,920.75,78.22613636363636C923.1666666666666,77.96477272727273,925.5833333333334,77.7034090909091,928,77.44204545454546C930.4166666666666,77.18068181818182,932.8333333333334,76.91931818181817,935.25,76.65795454545453C937.6666666666666,76.39659090909089,940.0833333333334,76.13522727272726,942.5,75.87386363636364C944.9166666666666,75.61250000000001,947.3333333333334,75.35113636363637,949.75,75.08977272727273C952.1666666666666,74.82840909090909,954.5833333333334,74.56704545454545,957,74.30568181818181C959.4166666666666,74.04431818181817,961.8333333333334,73.78295454545454,964.25,73.52159090909092C966.6666666666667,73.26022727272728,969.0833333333334,72.99886363636365,971.5000000000001,72.73750000000001C973.9166666666667,72.47613636363637,976.3333333333335,72.21477272727273,978.7500000000001,71.95340909090909C981.1666666666667,71.69204545454545,983.5833333333335,71.43068181818182,986.0000000000001,71.16931818181818C988.4166666666667,70.90795454545454,990.8333333333335,70.64659090909092,993.2500000000001,70.38522727272728C995.6666666666667,70.12386363636364,998.0833333333333,69.8625,1000.4999999999999,69.60113636363636C1002.9166666666665,69.33977272727272,1005.3333333333333,69.07840909090909,1007.7499999999999,68.81704545454545C1010.1666666666665,68.55568181818181,1012.5833333333333,68.29431818181818,1014.9999999999999,68.03295454545454C1017.4166666666665,67.7715909090909,1019.8333333333333,67.51022727272728,1022.2499999999999,67.24886363636364C1024.6666666666665,66.9875,1027.0833333333333,66.72613636363636,1029.5,66.46477272727272C1031.9166666666667,66.20340909090908,1034.3333333333333,65.94204545454545,1036.75,65.68068181818181C1039.1666666666667,65.41931818181817,1041.5833333333333,65.15795454545454,1044,64.8965909090909C1046.4166666666667,64.63522727272726,1048.8333333333333,64.37386363636364,1051.25,64.1125C1053.6666666666667,63.85113636363636,1056.0833333333333,63.58977272727271,1058.5,63.328409090909076C1060.9166666666667,63.06704545454544,1063.3333333333333,62.805681818181824,1065.75,62.54431818181819C1068.1666666666667,62.28295454545456,1070.5833333333333,62.02159090909092,1073,61.76022727272728C1075.4166666666667,61.49886363636364,1077.8333333333333,61.23750000000001,1080.25,60.97613636363637C1082.6666666666667,60.71477272727273,1085.0833333333333,60.4534090909091,1087.5,60.19204545454546C1089.9166666666667,59.93068181818182,1092.3333333333333,59.669318181818184,1094.75,59.407954545454544C1097.1666666666667,59.146590909090904,1099.5833333333333,58.88522727272728,1102,58.62386363636364C1104.4166666666667,58.3625,1106.8333333333333,58.101136363636364,1109.25,57.839772727272724C1111.6666666666667,57.57840909090908,1114.0833333333333,57.31704545454545,1116.5,57.05568181818181C1118.9166666666667,56.79431818181817,1121.3333333333333,56.53295454545454,1123.75,56.271590909090904C1126.1666666666667,56.01022727272727,1128.5833333333333,55.74886363636364,1131,55.487500000000004C1133.4166666666667,55.22613636363637,1135.8333333333333,54.96477272727273,1138.25,54.70340909090909C1140.6666666666667,54.44204545454545,1143.0833333333333,54.180681818181824,1145.5,53.919318181818184C1147.9166666666667,53.657954545454544,1150.3333333333333,53.396590909090904,1152.75,53.13522727272727C1155.1666666666667,52.87386363636364,1157.5833333333333,52.6125,1160,52.351136363636364C1162.4166666666667,52.08977272727273,1164.8333333333333,51.82840909090908,1167.25,51.56704545454545C1169.6666666666667,51.30568181818182,1172.0833333333333,51.044318181818184,1174.5,50.78295454545455C1176.9166666666667,50.52159090909092,1179.3333333333333,50.26022727272728,1181.75,49.99886363636364C1184.1666666666667,49.7375,1186.5833333333333,49.47613636363637,1189,49.21477272727273C1191.4166666666667,48.95340909090909,1193.8333333333333,48.69204545454545,1196.25,48.43068181818182C1198.6666666666667,48.169318181818184,1201.0833333333333,47.907954545454544,1203.5,47.64659090909091C1205.9166666666667,47.38522727272728,1208.3333333333333,47.12386363636364,1210.75,46.8625C1213.1666666666667,46.60113636363636,1215.5833333333333,46.33977272727272,1218,46.07840909090908C1220.4166666666667,45.81704545454545,1222.8333333333333,45.555681818181824,1225.25,45.29431818181819C1227.6666666666667,45.03295454545456,1230.0833333333333,44.77159090909092,1232.5,44.51022727272728C1234.9166666666667,44.24886363636364,1237.3333333333333,43.9875,1239.75,43.726136363636364C1242.1666666666667,43.46477272727273,1244.5833333333333,43.20340909090909,1247,42.94204545454546C1249.4166666666667,42.680681818181824,1251.8333333333333,42.419318181818184,1254.25,42.157954545454544C1256.6666666666667,41.896590909090904,1259.0833333333333,41.63522727272726,1261.5,41.37386363636363C1263.9166666666667,41.1125,1266.3333333333333,40.85113636363637,1268.75,40.58977272727274C1271.1666666666667,40.328409090909105,1273.5833333333333,40.067045454545465,1276,39.805681818181824C1278.4166666666667,39.544318181818184,1280.8333333333333,39.282954545454544,1283.25,39.02159090909091C1285.6666666666667,38.76022727272728,1288.0833333333333,38.49886363636364,1290.5,38.237500000000004C1292.9166666666667,37.97613636363637,1295.3333333333333,37.71477272727273,1297.75,37.45340909090909C1300.1666666666667,37.19204545454545,1302.5833333333333,36.93068181818181,1305,36.66931818181818C1307.4166666666667,36.407954545454544,1309.8333333333333,36.146590909090904,1312.25,35.88522727272727C1314.6666666666667,35.62386363636364,1317.0833333333333,35.36249999999999,1319.5,35.10113636363636C1321.9166666666667,34.839772727272724,1324.3333333333333,34.57840909090909,1326.75,34.31704545454546C1329.1666666666667,34.055681818181824,1331.5833333333333,33.79431818181817,1334,33.53295454545454C1336.4166666666667,33.271590909090904,1338.8333333333333,33.01022727272727,1341.25,32.74886363636364C1343.6666666666667,32.487500000000004,1346.0833333333333,32.226136363636364,1348.5,31.964772727272727C1350.9166666666667,31.70340909090909,1353.3333333333333,31.442045454545458,1355.75,31.180681818181817C1358.1666666666667,30.919318181818177,1360.5833333333333,30.65795454545453,1363,30.396590909090893C1365.4166666666667,30.135227272727256,1367.8333333333333,29.873863636363627,1370.25,29.612499999999994C1372.6666666666667,29.35113636363636,1375.0833333333333,29.08977272727273,1377.5,28.828409090909098C1379.9166666666667,28.567045454545465,1382.3333333333333,28.30568181818182,1384.75,28.044318181818184C1387.1666666666667,27.782954545454547,1389.5833333333333,27.521590909090914,1392,27.260227272727274C1394.4166666666667,26.998863636363634,1396.8333333333333,26.737499999999986,1399.25,26.47613636363635C1401.6666666666667,26.214772727272713,1404.0833333333333,25.95340909090909,1406.5,25.692045454545454C1408.9166666666667,25.430681818181817,1411.3333333333333,25.169318181818177,1413.75,24.90795454545454C1416.1666666666667,24.646590909090904,1418.5833333333333,24.385227272727263,1421,24.12386363636363C1423.4166666666667,23.862499999999997,1425.8333333333333,23.601136363636368,1428.25,23.33977272727273C1430.6666666666667,23.078409090909094,1433.0833333333333,22.817045454545447,1435.5,22.55568181818181C1437.9166666666667,22.294318181818173,1440.3333333333333,22.032954545454544,1442.75,21.77159090909091C1445.1666666666667,21.510227272727278,1447.5833333333333,21.248863636363637,1450,20.9875" fill="transparent" stroke-linecap="round" stroke="#E7C6DF" stroke-width="2"></path><g class="visx-group visx-axis visx-axis-bottom" transform="translate(0, 115)"><g class="visx-group visx-axis-tick" transform="translate(0, 0)"><line class="visx-line" x1="0" y1="0" x2="0" y2="8" fill="transparent" shape-rendering="crispEdges" stroke="#000" stroke-width="0" stroke-linecap="square"></line><svg x="0" y="0" font-size="10" style="overflow:visible"><text transform="" x="0" y="18" fill="#000" font-size="10" text-anchor="middle"><tspan x="0" dy="0em">0%</tspan></text></svg></g><g class="visx-group visx-axis-tick" transform="translate(0, 0)"><line class="visx-line" x1="362.5" y1="0" x2="362.5" y2="8" fill="transparent" shape-rendering="crispEdges" stroke="#000" stroke-width="0" stroke-linecap="square"></line><svg x="0" y="0" font-size="10" style="overflow:visible"><text transform="" x="362.5" y="18" fill="#000" font-size="10" text-anchor="middle"><tspan x="362.5" dy="0em">25%</tspan></text></svg></g><g class="visx-group visx-axis-tick" transform="translate(0, 0)"><line class="visx-line" x1="725" y1="0" x2="725" y2="8" fill="transparent" shape-rendering="crispEdges" stroke="#000" stroke-width="0" stroke-linecap="square"></line><svg x="0" y="0" font-size="10" style="overflow:visible"><text transform="" x="725" y="18" fill="#000" font-size="10" text-anchor="middle"><tspan x="725" dy="0em">50%</tspan></text></svg></g><g class="visx-group visx-axis-tick" transform="translate(0, 0)"><line class="visx-line" x1="1087.5" y1="0" x2="1087.5" y2="8" fill="transparent" shape-rendering="crispEdges" stroke="#000" stroke-width="0" stroke-linecap="square"></line><svg x="0" y="0" font-size="10" style="overflow:visible"><text transform="" x="1087.5" y="18" fill="#000" font-size="10" text-anchor="middle"><tspan x="1087.5" dy="0em">75%</tspan></text></svg></g><g class="visx-group visx-axis-tick" transform="translate(0, 0)"><line class="visx-line" x1="1450" y1="0" x2="1450" y2="8" fill="transparent" shape-rendering="crispEdges" stroke="#000" stroke-width="0" stroke-linecap="square"></line><svg x="0" y="0" font-size="10" style="overflow:visible"><text transform="" x="1450" y="18" fill="#000" font-size="10" text-anchor="middle"><tspan x="1450" dy="0em">100%</tspan></text></svg></g><line class="visx-line visx-axis-line" x1="0.5" y1="0" x2="1450.5" y2="0" fill="transparent" shape-rendering="crispEdges" stroke="#222" stroke-width="0"></line></g><g class="visx-group visx-axis visx-axis-left" transform="translate(0, 0)"><g class="visx-group visx-axis-tick" transform="translate(0, 0)"><line class="visx-line" x1="0" y1="115" x2="-8" y2="115" fill="transparent" shape-rendering="crispEdges" stroke="#222" stroke-width="0" stroke-linecap="square"></line><svg x="-30" y="0" font-size="8" style="overflow:visible"><text transform="" x="-8" y="115" fill="#000" font-size="8" text-anchor="start"><tspan x="-8" dy="0em">0%</tspan></text></svg></g><g class="visx-group visx-axis-tick" transform="translate(0, 0)"><line class="visx-line" x1="0" y1="57.5" x2="-8" y2="57.5" fill="transparent" shape-rendering="crispEdges" stroke="#222" stroke-width="0" stroke-linecap="square"></line><svg x="-30" y="0" font-size="8" style="overflow:visible"><text transform="" x="-8" y="57.5" fill="#000" font-size="8" text-anchor="start"><tspan x="-8" dy="0em">200%</tspan></text></svg></g><g class="visx-group visx-axis-tick" transform="translate(0, 0)"><line class="visx-line" x1="0" y1="0" x2="-8" y2="0" fill="transparent" shape-rendering="crispEdges" stroke="#222" stroke-width="0" stroke-linecap="square"></line><svg x="-30" y="0" font-size="8" style="overflow:visible"><text transform="" x="-8" y="0" fill="#000" font-size="8" text-anchor="start"><tspan x="-8" dy="0em">400%</tspan></text></svg></g><line class="visx-line visx-axis-line" x1="0" y1="115.5" x2="0" y2="0.5" fill="transparent" shape-rendering="crispEdges" stroke="#222" stroke-width="0"></line></g><rect class="visx-bar" width="1450" height="115" fill="transparent"></rect><line class="visx-line" x1="652.5" y1="28" x2="652.5" y2="115" fill="transparent" shape-rendering="crispEdges" stroke="#0062D2" stroke-width="1" pointer-events="none" stroke-dasharray="5,2"></line><svg x="0" y="0" font-size="10px" style="overflow:visible"><text transform="" x="652.5" y="20" font-size="10px" fill="#fff" stroke="#fff" stroke-width="0.8em" text-anchor="middle"><tspan x="652.5" dy="0.355em">Optimal 45%</tspan></text></svg><svg x="0" y="0" font-size="10px" style="overflow:visible"><text transform="" x="652.5" y="20" font-size="10px" fill="#62677B" text-anchor="middle"><tspan x="652.5" dy="0.355em">Optimal 45%</tspan></text></svg></g></svg>