<?xml version="1.0"?><svg xmlns="http://www.w3.org/2000/svg" xmlns:xlink= "http://www.w3.org/1999/xlink" style="background: white;" width="1500" height="185"> <g style="color: black; font-size: 13px; font-family: sans-serif; transform: translate(18px, 25px);"><g><circle r="3" cx="-6" cy="-5" style="fill: #B6509E" /><text>Borrow APR, variable</text></g><g style="transform: translateX(150px);"><circle r="3" cx="-6" cy="-5" style="fill: rgb(231, 198, 223)" /><text>Borrow APR, stable</text></g><g style="transform: translateX(290px);"><circle r="3" cx="-6" cy="-5" style="fill: rgb(0, 98, 210)" /><text>Utilization Rate</text></g></g><g class="visx-group" transform="translate(40, 50)"><g class="visx-group visx-rows" transform="translate(0, 0)"><line class="visx-line" x1="0" y1="115" x2="1450" y2="115" fill="transparent" shape-rendering="crispEdges" stroke="#000" stroke-width="1" stroke-dasharray="3,3" pointer-events="none"></line><line class="visx-line" x1="0" y1="57.5" x2="1450" y2="57.5" fill="transparent" shape-rendering="crispEdges" stroke="#000" stroke-width="1" stroke-dasharray="3,3" pointer-events="none"></line><line class="visx-line" x1="0" y1="0" x2="1450" y2="0" fill="transparent" shape-rendering="crispEdges" stroke="#000" stroke-width="1" stroke-dasharray="3,3" pointer-events="none"></line></g><path class="visx-linepath" d="M0,114.99999999989937C2.4166666666666665,114.98322916660797,4.833333333333334,114.96645833331655,7.25,114.9496875C9.666666666666666,114.93291666668344,12.083333333333334,114.91614583333335,14.5,114.899375C16.916666666666668,114.88260416666667,19.333333333333332,114.86583333333333,21.75,114.84906249999999C24.166666666666668,114.83229166666665,26.583333333333332,114.81552083333332,29,114.79875C31.416666666666668,114.78197916666667,33.833333333333336,114.76520833333333,36.25,114.7484375C38.666666666666664,114.73166666666665,41.083333333333336,114.71489583333333,43.5,114.698125C45.91666666666667,114.68135416666667,48.333333333333336,114.66458333333334,50.75000000000001,114.6478125C53.16666666666667,114.63104166666668,55.583333333333336,114.61427083333335,58,114.59750000000001C60.416666666666664,114.58072916666667,62.833333333333336,114.56395833333333,65.25,114.54718749999999C67.66666666666667,114.53041666666665,70.08333333333333,114.51364583333333,72.5,114.496875C74.91666666666667,114.48010416666668,77.33333333333333,114.46333333333334,79.75,114.4465625C82.16666666666667,114.42979166666666,84.58333333333333,114.41302083333335,87,114.39625000000001C89.41666666666667,114.37947916666667,91.83333333333333,114.36270833333334,94.25,114.3459375C96.66666666666667,114.32916666666667,99.08333333333334,114.31239583333334,101.50000000000001,114.295625C103.91666666666667,114.27885416666666,106.33333333333334,114.26208333333334,108.75,114.2453125C111.16666666666667,114.22854166666666,113.58333333333333,114.21177083333332,116,114.195C118.41666666666667,114.17822916666665,120.83333333333334,114.16145833333334,123.25000000000001,114.1446875C125.66666666666667,114.12791666666668,128.08333333333334,114.11114583333332,130.5,114.094375C132.91666666666666,114.07760416666666,135.33333333333334,114.06083333333335,137.75,114.04406250000001C140.16666666666666,114.02729166666667,142.58333333333334,114.01052083333333,145,113.99374999999999C147.41666666666666,113.97697916666665,149.83333333333334,113.96020833333333,152.25,113.9434375C154.66666666666666,113.92666666666668,157.08333333333334,113.90989583333334,159.5,113.893125C161.91666666666666,113.87635416666666,164.33333333333334,113.85958333333335,166.75,113.84281250000001C169.16666666666666,113.82604166666667,171.58333333333334,113.80927083333334,174,113.7925C176.41666666666666,113.77572916666666,178.83333333333334,113.75895833333334,181.25,113.7421875C183.66666666666666,113.72541666666666,186.08333333333334,113.70864583333332,188.5,113.691875C190.91666666666666,113.67510416666667,193.33333333333334,113.65833333333333,195.75,113.6415625C198.16666666666669,113.62479166666667,200.58333333333334,113.60802083333334,203.00000000000003,113.59125C205.41666666666669,113.57447916666666,207.83333333333331,113.55770833333334,210.24999999999997,113.5409375C212.66666666666666,113.52416666666666,215.08333333333331,113.50739583333333,217.5,113.490625C219.91666666666666,113.47385416666665,222.33333333333334,113.45708333333332,224.75,113.44031249999999C227.16666666666666,113.42354166666667,229.58333333333334,113.40677083333333,232,113.39C234.41666666666666,113.37322916666668,236.83333333333334,113.35645833333332,239.25,113.3396875C241.66666666666669,113.32291666666666,244.08333333333334,113.30614583333335,246.50000000000003,113.289375C248.91666666666669,113.27260416666668,251.33333333333331,113.25583333333334,253.74999999999997,113.2390625C256.16666666666663,113.22229166666666,258.5833333333333,113.20552083333334,261,113.18875C263.4166666666667,113.17197916666666,265.8333333333333,113.15520833333332,268.25,113.1384375C270.6666666666667,113.12166666666667,273.0833333333333,113.10489583333333,275.5,113.088125C277.9166666666667,113.07135416666668,280.3333333333333,113.05458333333334,282.75,113.0378125C285.1666666666667,113.02104166666666,287.5833333333333,113.00427083333335,290,112.98750000000001C292.4166666666667,112.97072916666667,294.8333333333333,112.95395833333333,297.25,112.9371875C299.6666666666667,112.92041666666665,302.0833333333333,112.90364583333334,304.5,112.886875C306.9166666666667,112.87010416666666,309.3333333333333,112.85333333333334,311.75,112.8365625C314.1666666666667,112.81979166666666,316.5833333333333,112.80302083333333,319,112.78625C321.4166666666667,112.76947916666666,323.8333333333333,112.75270833333335,326.25,112.7359375C328.6666666666667,112.71916666666667,331.0833333333333,112.70239583333334,333.5,112.685625C335.9166666666667,112.66885416666666,338.3333333333333,112.65208333333334,340.75,112.6353125C343.1666666666667,112.61854166666666,345.5833333333333,112.60177083333332,348,112.585C350.4166666666667,112.56822916666667,352.8333333333333,112.55145833333333,355.25,112.5346875C357.6666666666667,112.51791666666668,360.0833333333333,112.50114583333334,362.5,112.484375C364.9166666666667,112.46760416666666,367.3333333333333,112.45083333333335,369.75,112.43406250000001C372.1666666666667,112.41729166666667,374.5833333333333,112.40052083333333,377,112.38374999999999C379.4166666666667,112.36697916666665,381.8333333333333,112.35020833333334,384.25,112.3334375C386.6666666666667,112.31666666666666,389.0833333333333,112.29989583333332,391.5,112.283125C393.9166666666667,112.26635416666666,396.33333333333337,112.24958333333335,398.75000000000006,112.23281250000001C401.16666666666674,112.21604166666668,403.58333333333337,112.19927083333334,406.00000000000006,112.1825C408.4166666666667,112.16572916666667,410.8333333333333,112.14895833333333,413.24999999999994,112.13218749999999C415.66666666666663,112.11541666666665,418.08333333333326,112.09864583333332,420.49999999999994,112.081875C422.91666666666663,112.06510416666666,425.3333333333333,112.04833333333333,427.75,112.03156249999999C430.1666666666667,112.01479166666667,432.5833333333333,111.99802083333333,435,111.98125C437.4166666666667,111.96447916666668,439.8333333333333,111.94770833333334,442.25,111.9309375C444.6666666666667,111.91416666666666,447.0833333333333,111.89739583333335,449.5,111.88062500000001C451.9166666666667,111.86385416666667,454.3333333333333,111.84708333333333,456.75,111.83031249999999C459.1666666666667,111.81354166666665,461.5833333333333,111.79677083333334,464,111.78C466.4166666666667,111.76322916666666,468.8333333333333,111.74645833333332,471.25,111.7296875C473.6666666666667,111.71291666666667,476.0833333333333,111.69614583333333,478.5,111.67937500000001C480.9166666666667,111.66260416666667,483.33333333333337,111.64583333333334,485.75000000000006,111.6290625C488.16666666666674,111.61229166666668,490.58333333333337,111.59552083333335,493.00000000000006,111.57875000000001C495.4166666666667,111.56197916666667,497.8333333333333,111.54520833333333,500.24999999999994,111.5284375C502.66666666666663,111.51166666666666,505.08333333333326,111.49489583333332,507.49999999999994,111.47812499999999C509.91666666666663,111.46135416666665,512.3333333333333,111.44458333333334,514.75,111.4278125C517.1666666666666,111.41104166666668,519.5833333333334,111.39427083333334,522,111.3775C524.4166666666666,111.36072916666666,526.8333333333334,111.34395833333335,529.25,111.32718750000001C531.6666666666666,111.31041666666667,534.0833333333334,111.29364583333333,536.5,111.27687499999999C538.9166666666666,111.26010416666665,541.3333333333334,111.24333333333334,543.75,111.2265625C546.1666666666666,111.20979166666666,548.5833333333334,111.19302083333332,551,111.17625C553.4166666666666,111.15947916666667,555.8333333333334,111.14270833333333,558.25,111.1259375C560.6666666666666,111.10916666666668,563.0833333333334,111.09239583333334,565.5,111.075625C567.9166666666666,111.05885416666666,570.3333333333334,111.04208333333334,572.75,111.0253125C575.1666666666666,111.00854166666666,577.5833333333334,110.99177083333333,580,110.975C582.4166666666666,110.95822916666665,584.8333333333334,110.94145833333334,587.25,110.9246875C589.6666666666666,110.90791666666667,592.0833333333334,110.89114583333334,594.5,110.874375C596.9166666666666,110.85760416666666,599.3333333333334,110.84083333333334,601.75,110.8240625C604.1666666666666,110.80729166666666,606.5833333333334,110.79052083333335,609,110.77375C611.4166666666666,110.75697916666667,613.8333333333334,110.74020833333333,616.25,110.72343749999999C618.6666666666666,110.70666666666665,621.0833333333334,110.68989583333334,623.5,110.673125C625.9166666666666,110.65635416666666,628.3333333333334,110.63958333333332,630.75,110.6228125C633.1666666666666,110.60604166666667,635.5833333333334,110.58927083333333,638,110.5725C640.4166666666666,110.55572916666668,642.8333333333334,110.53895833333334,645.25,110.5221875C647.6666666666666,110.50541666666666,650.0833333333334,110.48864583333334,652.5,110.471875C654.9166666666666,110.45510416666666,657.3333333333334,110.43833333333333,659.75,110.4215625C662.1666666666666,110.40479166666665,664.5833333333334,110.38802083333334,667,110.37125C669.4166666666666,110.35447916666666,671.8333333333334,110.33770833333332,674.25,110.3209375C676.6666666666666,110.30416666666667,679.0833333333334,110.28739583333333,681.5,110.27062500000001C683.9166666666666,110.25385416666668,686.3333333333334,110.23708333333335,688.75,110.2203125C691.1666666666666,110.20354166666667,693.5833333333334,110.18677083333334,696,110.17C698.4166666666666,110.15322916666666,700.8333333333334,110.13645833333334,703.25,110.1196875C705.6666666666666,110.10291666666666,708.0833333333334,110.08614583333332,710.5,110.069375C712.9166666666666,110.05260416666667,715.3333333333334,110.03583333333333,717.75,110.0190625C720.1666666666666,110.00229166666668,722.5833333333334,109.98552083333334,725,109.96875C727.4166666666666,109.95197916666666,729.8333333333334,109.93520833333334,732.25,109.9184375C734.6666666666666,109.90166666666666,737.0833333333334,109.88489583333333,739.5,109.86812499999999C741.9166666666666,109.85135416666665,744.3333333333334,109.83458333333334,746.75,109.8178125C749.1666666666666,109.80104166666666,751.5833333333334,109.78427083333332,754,109.7675C756.4166666666666,109.75072916666667,758.8333333333334,109.73395833333335,761.25,109.71718750000001C763.6666666666666,109.70041666666667,766.0833333333334,109.68364583333333,768.5,109.66687499999999C770.9166666666666,109.65010416666665,773.3333333333334,109.63333333333333,775.75,109.6165625C778.1666666666666,109.59979166666668,780.5833333333334,109.58302083333332,783,109.56625C785.4166666666667,109.54947916666666,787.8333333333334,109.53270833333335,790.2500000000001,109.5159375C792.6666666666667,109.49916666666668,795.0833333333335,109.48239583333334,797.5000000000001,109.465625C799.9166666666667,109.44885416666666,802.3333333333335,109.43208333333334,804.7500000000001,109.4153125C807.1666666666667,109.39854166666666,809.5833333333335,109.38177083333333,812.0000000000001,109.365C814.4166666666667,109.34822916666666,816.8333333333333,109.33145833333332,819.2499999999999,109.31468749999999C821.6666666666665,109.29791666666665,824.0833333333333,109.28114583333334,826.4999999999999,109.264375C828.9166666666665,109.24760416666666,831.3333333333333,109.23083333333332,833.7499999999999,109.2140625C836.1666666666665,109.19729166666667,838.5833333333333,109.18052083333333,840.9999999999999,109.16375000000001C843.4166666666666,109.14697916666667,845.8333333333333,109.13020833333334,848.25,109.1134375C850.6666666666666,109.09666666666666,853.0833333333334,109.07989583333334,855.5,109.063125C857.9166666666666,109.04635416666666,860.3333333333334,109.02958333333333,862.75,109.0128125C865.1666666666666,108.99604166666666,867.5833333333334,108.97927083333335,870,108.9625C872.4166666666666,108.94572916666667,874.8333333333334,108.92895833333333,877.25,108.9121875C879.6666666666666,108.89541666666668,882.0833333333334,108.87864583333335,884.5,108.86187500000001C886.9166666666666,108.84510416666667,889.3333333333334,108.82833333333333,891.75,108.8115625C894.1666666666666,108.79479166666665,896.5833333333334,108.77802083333333,899,108.76125C901.4166666666666,108.74447916666668,903.8333333333334,108.72770833333334,906.25,108.7109375C908.6666666666666,108.69416666666666,911.0833333333334,108.67739583333332,913.5,108.660625C915.9166666666666,108.64385416666667,918.3333333333334,108.62708333333335,920.75,108.6103125C923.1666666666666,108.59354166666667,925.5833333333334,108.57677083333333,928,108.55999999999999C930.4166666666666,108.54322916666665,932.8333333333334,108.52645833333332,935.25,108.5096875C937.6666666666666,108.49291666666667,940.0833333333334,108.47614583333333,942.5,108.459375C944.9166666666666,108.44260416666665,947.3333333333334,108.42583333333334,949.75,108.4090625C952.1666666666666,108.39229166666667,954.5833333333334,108.37552083333334,957,108.35875C959.4166666666666,108.34197916666666,961.8333333333334,108.32520833333334,964.25,108.3084375C966.6666666666667,108.29166666666666,969.0833333333334,108.27489583333333,971.5000000000001,108.25812499999999C973.9166666666667,108.24135416666667,976.3333333333335,108.22458333333333,978.7500000000001,108.2078125C981.1666666666667,108.19104166666668,983.5833333333335,108.17427083333334,986.0000000000001,108.1575C988.4166666666667,108.14072916666666,990.8333333333335,108.12395833333335,993.2500000000001,108.10718750000001C995.6666666666667,108.09041666666668,998.0833333333333,108.07364583333334,1000.4999999999999,108.056875C1002.9166666666665,108.04010416666667,1005.3333333333333,108.02333333333334,1007.7499999999999,108.0065625C1010.1666666666665,107.98979166666666,1012.5833333333333,107.97302083333334,1014.9999999999999,107.95625C1017.4166666666665,107.93947916666666,1019.8333333333333,107.92270833333332,1022.2499999999999,107.9059375C1024.6666666666665,107.88916666666665,1027.0833333333333,107.87239583333334,1029.5,107.855625C1031.9166666666667,107.83885416666668,1034.3333333333333,107.82208333333332,1036.75,107.8053125C1039.1666666666667,107.78854166666667,1041.5833333333333,107.77177083333335,1044,107.75500000000001C1046.4166666666667,107.73822916666667,1048.8333333333333,107.72145833333333,1051.25,107.70468749999999C1053.6666666666667,107.68791666666665,1056.0833333333333,107.67114583333333,1058.5,107.654375C1060.9166666666667,107.63760416666668,1063.3333333333333,107.62083333333334,1065.75,107.6040625C1068.1666666666667,107.58729166666666,1070.5833333333333,107.57052083333335,1073,107.55375000000001C1075.4166666666667,107.53697916666667,1077.8333333333333,107.52020833333334,1080.25,107.5034375C1082.6666666666667,107.48666666666666,1085.0833333333333,107.46989583333334,1087.5,107.453125C1089.9166666666667,107.43635416666666,1092.3333333333333,107.41958333333332,1094.75,107.4028125C1097.1666666666667,107.38604166666667,1099.5833333333333,107.36927083333333,1102,107.3525C1104.4166666666667,107.33572916666668,1106.8333333333333,107.31895833333334,1109.25,107.3021875C1111.6666666666667,107.28541666666666,1114.0833333333333,107.26864583333334,1116.5,107.251875C1118.9166666666667,107.23510416666666,1121.3333333333333,107.21833333333333,1123.75,107.2015625C1126.1666666666667,107.18479166666665,1128.5833333333333,107.16802083333332,1131,107.15124999999999C1133.4166666666667,107.13447916666667,1135.8333333333333,107.11770833333333,1138.25,107.1009375C1140.6666666666667,107.08416666666668,1143.0833333333333,107.06739583333334,1145.5,107.050625C1147.9166666666667,107.03385416666666,1150.3333333333333,107.01708333333335,1152.75,107.0003125C1155.1666666666667,106.98354166666667,1157.5833333333333,106.98354166666667,1160,106.94999999999999C1162.4166666666667,106.91645833333331,1164.8333333333333,105.5125,1167.25,104.79375C1169.6666666666667,104.075,1172.0833333333333,103.35624999999999,1174.5,102.63749999999999C1176.9166666666667,101.91874999999999,1179.3333333333333,101.2,1181.75,100.48125C1184.1666666666667,99.7625,1186.5833333333333,99.04375,1189,98.325C1191.4166666666667,97.60625,1193.8333333333333,96.88749999999999,1196.25,96.16874999999999C1198.6666666666667,95.44999999999999,1201.0833333333333,94.73125,1203.5,94.0125C1205.9166666666667,93.29375,1208.3333333333333,92.57499999999999,1210.75,91.85624999999999C1213.1666666666667,91.13749999999999,1215.5833333333333,90.41875,1218,89.7C1220.4166666666667,88.98125,1222.8333333333333,88.2625,1225.25,87.54375C1227.6666666666667,86.825,1230.0833333333333,86.10624999999999,1232.5,85.38749999999999C1234.9166666666667,84.66874999999999,1237.3333333333333,83.95,1239.75,83.23125C1242.1666666666667,82.5125,1244.5833333333333,81.79375,1247,81.075C1249.4166666666667,80.35625,1251.8333333333333,79.6375,1254.25,78.91875C1256.6666666666667,78.2,1259.0833333333333,77.48125,1261.5,76.7625C1263.9166666666667,76.04375,1266.3333333333333,75.32499999999999,1268.75,74.60624999999999C1271.1666666666667,73.88749999999999,1273.5833333333333,73.16875,1276,72.45C1278.4166666666667,71.73125,1280.8333333333333,71.0125,1283.25,70.29375C1285.6666666666667,69.575,1288.0833333333333,68.85625,1290.5,68.1375C1292.9166666666667,67.41875,1295.3333333333333,66.7,1297.75,65.98125C1300.1666666666667,65.2625,1302.5833333333333,64.54374999999999,1305,63.824999999999996C1307.4166666666667,63.106249999999996,1309.8333333333333,62.3875,1312.25,61.66875C1314.6666666666667,60.95,1317.0833333333333,60.23125000000001,1319.5,59.51250000000001C1321.9166666666667,58.79375000000001,1324.3333333333333,58.075,1326.75,57.35625C1329.1666666666667,56.6375,1331.5833333333333,55.918749999999996,1334,55.199999999999996C1336.4166666666667,54.481249999999996,1338.8333333333333,53.7625,1341.25,53.04375C1343.6666666666667,52.325,1346.0833333333333,51.60625,1348.5,50.8875C1350.9166666666667,50.16875,1353.3333333333333,49.449999999999996,1355.75,48.731249999999996C1358.1666666666667,48.012499999999996,1360.5833333333333,47.29375,1363,46.575C1365.4166666666667,45.85625,1367.8333333333333,45.137499999999996,1370.25,44.418749999999996C1372.6666666666667,43.699999999999996,1375.0833333333333,42.98125,1377.5,42.2625C1379.9166666666667,41.54375,1382.3333333333333,40.825,1384.75,40.10625C1387.1666666666667,39.3875,1389.5833333333333,38.668749999999996,1392,37.949999999999996C1394.4166666666667,37.231249999999996,1396.8333333333333,36.5125,1399.25,35.79375C1401.6666666666667,35.075,1404.0833333333333,34.356249999999996,1406.5,33.637499999999996C1408.9166666666667,32.918749999999996,1411.3333333333333,32.2,1413.75,31.481250000000006C1416.1666666666667,30.762500000000006,1418.5833333333333,30.043750000000003,1421,29.325C1423.4166666666667,28.606249999999996,1425.8333333333333,27.887499999999996,1428.25,27.168749999999996C1430.6666666666667,26.449999999999996,1433.0833333333333,25.731250000000003,1435.5,25.012500000000003C1437.9166666666667,24.293750000000003,1440.3333333333333,23.575,1442.75,22.85625C1445.1666666666667,22.1375,1447.5833333333333,21.418750000000003,1450,20.700000000000006" fill="transparent" stroke-linecap="round" stroke="#B6509E" stroke-width="2"></path><path class="visx-linepath" d="M0,105.79999999999282C2.4166666666666665,105.79880208332915,4.833333333333334,105.79760416666548,7.25,105.79640625C9.666666666666666,105.79520833333453,12.083333333333334,105.79401041666667,14.5,105.7928125C16.916666666666668,105.79161458333333,19.333333333333332,105.79041666666667,21.75,105.78921875C24.166666666666668,105.78802083333333,26.583333333333332,105.78682291666667,29,105.785625C31.416666666666668,105.78442708333333,33.833333333333336,105.78322916666666,36.25,105.78203124999999C38.666666666666664,105.78083333333332,41.083333333333336,105.77963541666668,43.5,105.77843750000001C45.91666666666667,105.77723958333334,48.333333333333336,105.77604166666667,50.75000000000001,105.77484375C53.16666666666667,105.77364583333333,55.583333333333336,105.77244791666666,58,105.77125C60.416666666666664,105.77005208333333,62.833333333333336,105.76885416666667,65.25,105.76765625C67.66666666666667,105.76645833333333,70.08333333333333,105.76526041666666,72.5,105.7640625C74.91666666666667,105.76286458333333,77.33333333333333,105.76166666666667,79.75,105.76046875C82.16666666666667,105.75927083333333,84.58333333333333,105.75807291666668,87,105.75687500000001C89.41666666666667,105.75567708333334,91.83333333333333,105.75447916666667,94.25,105.75328125C96.66666666666667,105.75208333333333,99.08333333333334,105.75088541666668,101.50000000000001,105.74968750000001C103.91666666666667,105.74848958333334,106.33333333333334,105.74729166666667,108.75,105.74609375C111.16666666666667,105.74489583333333,113.58333333333333,105.74369791666666,116,105.74249999999999C118.41666666666667,105.74130208333332,120.83333333333334,105.74010416666668,123.25000000000001,105.73890625000001C125.66666666666667,105.73770833333334,128.08333333333334,105.73651041666668,130.5,105.7353125C132.91666666666666,105.73411458333334,135.33333333333334,105.73291666666667,137.75,105.73171875C140.16666666666666,105.73052083333333,142.58333333333334,105.72932291666667,145,105.728125C147.41666666666666,105.72692708333334,149.83333333333334,105.72572916666667,152.25,105.72453125C154.66666666666666,105.72333333333333,157.08333333333334,105.72213541666666,159.5,105.72093749999999C161.91666666666666,105.71973958333332,164.33333333333334,105.71854166666668,166.75,105.71734375000001C169.16666666666666,105.71614583333334,171.58333333333334,105.71494791666667,174,105.71375C176.41666666666666,105.71255208333334,178.83333333333334,105.71135416666667,181.25,105.71015625C183.66666666666666,105.70895833333333,186.08333333333334,105.70776041666667,188.5,105.7065625C190.91666666666666,105.70536458333333,193.33333333333334,105.70416666666667,195.75,105.70296875C198.16666666666669,105.70177083333333,200.58333333333334,105.70057291666667,203.00000000000003,105.699375C205.41666666666669,105.69817708333333,207.83333333333331,105.69697916666668,210.24999999999997,105.69578125000001C212.66666666666666,105.69458333333334,215.08333333333331,105.69338541666667,217.5,105.6921875C219.91666666666666,105.69098958333333,222.33333333333334,105.68979166666666,224.75,105.68859375C227.16666666666666,105.68739583333333,229.58333333333334,105.68619791666667,232,105.685C234.41666666666666,105.68380208333333,236.83333333333334,105.68260416666666,239.25,105.68140625C241.66666666666669,105.68020833333333,244.08333333333334,105.67901041666667,246.50000000000003,105.6778125C248.91666666666669,105.67661458333333,251.33333333333331,105.67541666666668,253.74999999999997,105.67421875000001C256.16666666666663,105.67302083333334,258.5833333333333,105.67182291666667,261,105.670625C263.4166666666667,105.66942708333333,265.8333333333333,105.66822916666666,268.25,105.66703125C270.6666666666667,105.66583333333332,273.0833333333333,105.66463541666667,275.5,105.6634375C277.9166666666667,105.66223958333333,280.3333333333333,105.66104166666666,282.75,105.65984375C285.1666666666667,105.65864583333332,287.5833333333333,105.65744791666667,290,105.65625C292.4166666666667,105.65505208333333,294.8333333333333,105.65385416666668,297.25,105.65265625C299.6666666666667,105.65145833333334,302.0833333333333,105.65026041666667,304.5,105.6490625C306.9166666666667,105.64786458333333,309.3333333333333,105.64666666666666,311.75,105.64546874999999C314.1666666666667,105.64427083333332,316.5833333333333,105.64307291666667,319,105.641875C321.4166666666667,105.64067708333333,323.8333333333333,105.63947916666666,326.25,105.63828124999999C328.6666666666667,105.63708333333332,331.0833333333333,105.63588541666667,333.5,105.6346875C335.9166666666667,105.63348958333333,338.3333333333333,105.63229166666667,340.75,105.63109375C343.1666666666667,105.62989583333334,345.5833333333333,105.62869791666667,348,105.6275C350.4166666666667,105.62630208333333,352.8333333333333,105.62510416666666,355.25,105.62390624999999C357.6666666666667,105.62270833333332,360.0833333333333,105.62151041666667,362.5,105.6203125C364.9166666666667,105.61911458333333,367.3333333333333,105.61791666666667,369.75,105.61671875C372.1666666666667,105.61552083333333,374.5833333333333,105.61432291666667,377,105.613125C379.4166666666667,105.61192708333333,381.8333333333333,105.61072916666667,384.25,105.60953125C386.6666666666667,105.60833333333333,389.0833333333333,105.60713541666667,391.5,105.6059375C393.9166666666667,105.60473958333333,396.33333333333337,105.60354166666666,398.75000000000006,105.60234374999999C401.16666666666674,105.60114583333332,403.58333333333337,105.59994791666666,406.00000000000006,105.59875C408.4166666666667,105.59755208333333,410.8333333333333,105.59635416666667,413.24999999999994,105.59515625C415.66666666666663,105.59395833333333,418.08333333333326,105.59276041666666,420.49999999999994,105.5915625C422.91666666666663,105.59036458333333,425.3333333333333,105.58916666666667,427.75,105.58796875C430.1666666666667,105.58677083333333,432.5833333333333,105.58557291666666,435,105.584375C437.4166666666667,105.58317708333333,439.8333333333333,105.58197916666666,442.25,105.58078124999999C444.6666666666667,105.57958333333332,447.0833333333333,105.57838541666666,449.5,105.5771875C451.9166666666667,105.57598958333332,454.3333333333333,105.57479166666667,456.75,105.57359375C459.1666666666667,105.57239583333333,461.5833333333333,105.57119791666666,464,105.57C466.4166666666667,105.56880208333332,468.8333333333333,105.56760416666667,471.25,105.56640625C473.6666666666667,105.56520833333333,476.0833333333333,105.56401041666668,478.5,105.5628125C480.9166666666667,105.56161458333334,483.33333333333337,105.56041666666667,485.75000000000006,105.55921875C488.16666666666674,105.55802083333333,490.58333333333337,105.55682291666668,493.00000000000006,105.555625C495.4166666666667,105.55442708333334,497.8333333333333,105.55322916666668,500.24999999999994,105.55203125000001C502.66666666666663,105.55083333333334,505.08333333333326,105.54963541666667,507.49999999999994,105.5484375C509.91666666666663,105.54723958333334,512.3333333333333,105.54604166666667,514.75,105.54484375C517.1666666666666,105.54364583333333,519.5833333333334,105.54244791666667,522,105.54125C524.4166666666666,105.54005208333334,526.8333333333334,105.53885416666667,529.25,105.53765625C531.6666666666666,105.53645833333333,534.0833333333334,105.53526041666667,536.5,105.5340625C538.9166666666666,105.53286458333334,541.3333333333334,105.53166666666668,543.75,105.53046875000001C546.1666666666666,105.52927083333334,548.5833333333334,105.52807291666667,551,105.526875C553.4166666666666,105.52567708333333,555.8333333333334,105.52447916666667,558.25,105.52328125C560.6666666666666,105.52208333333333,563.0833333333334,105.52088541666667,565.5,105.5196875C567.9166666666666,105.51848958333333,570.3333333333334,105.51729166666667,572.75,105.51609375C575.1666666666666,105.51489583333333,577.5833333333334,105.51369791666667,580,105.5125C582.4166666666666,105.51130208333333,584.8333333333334,105.51010416666668,587.25,105.50890625000001C589.6666666666666,105.50770833333334,592.0833333333334,105.50651041666667,594.5,105.5053125C596.9166666666666,105.50411458333333,599.3333333333334,105.50291666666666,601.75,105.50171875C604.1666666666666,105.50052083333333,606.5833333333334,105.49932291666667,609,105.498125C611.4166666666666,105.49692708333333,613.8333333333334,105.49572916666668,616.25,105.49453125000001C618.6666666666666,105.49333333333334,621.0833333333334,105.49213541666667,623.5,105.4909375C625.9166666666666,105.48973958333333,628.3333333333334,105.48854166666668,630.75,105.48734375000001C633.1666666666666,105.48614583333334,635.5833333333334,105.48494791666667,638,105.48375C640.4166666666666,105.48255208333333,642.8333333333334,105.48135416666666,645.25,105.48015625C647.6666666666666,105.47895833333332,650.0833333333334,105.47776041666667,652.5,105.4765625C654.9166666666666,105.47536458333333,657.3333333333334,105.47416666666668,659.75,105.47296875C662.1666666666666,105.47177083333334,664.5833333333334,105.47057291666667,667,105.469375C669.4166666666666,105.46817708333333,671.8333333333334,105.46697916666668,674.25,105.46578125C676.6666666666666,105.46458333333334,679.0833333333334,105.46338541666667,681.5,105.4621875C683.9166666666666,105.46098958333333,686.3333333333334,105.45979166666666,688.75,105.45859374999999C691.1666666666666,105.45739583333332,693.5833333333334,105.45619791666667,696,105.455C698.4166666666666,105.45380208333333,700.8333333333334,105.45260416666667,703.25,105.45140625C705.6666666666666,105.45020833333334,708.0833333333334,105.44901041666667,710.5,105.4478125C712.9166666666666,105.44661458333333,715.3333333333334,105.44541666666667,717.75,105.44421875C720.1666666666666,105.44302083333334,722.5833333333334,105.44182291666667,725,105.440625C727.4166666666666,105.43942708333333,729.8333333333334,105.43822916666666,732.25,105.43703124999999C734.6666666666666,105.43583333333332,737.0833333333334,105.43463541666667,739.5,105.4334375C741.9166666666666,105.43223958333333,744.3333333333334,105.43104166666667,746.75,105.42984375C749.1666666666666,105.42864583333333,751.5833333333334,105.42744791666667,754,105.42625C756.4166666666666,105.42505208333333,758.8333333333334,105.42385416666667,761.25,105.42265625C763.6666666666666,105.42145833333333,766.0833333333334,105.42026041666666,768.5,105.4190625C770.9166666666666,105.41786458333333,773.3333333333334,105.41666666666666,775.75,105.41546874999999C778.1666666666666,105.41427083333332,780.5833333333334,105.41307291666668,783,105.41187500000001C785.4166666666667,105.41067708333334,787.8333333333334,105.40947916666667,790.2500000000001,105.40828125C792.6666666666667,105.40708333333333,795.0833333333335,105.40588541666666,797.5000000000001,105.4046875C799.9166666666667,105.40348958333333,802.3333333333335,105.40229166666667,804.7500000000001,105.40109375C807.1666666666667,105.39989583333333,809.5833333333335,105.39869791666666,812.0000000000001,105.3975C814.4166666666667,105.39630208333332,816.8333333333333,105.39510416666666,819.2499999999999,105.39390624999999C821.6666666666665,105.39270833333332,824.0833333333333,105.39151041666668,826.4999999999999,105.39031250000001C828.9166666666665,105.38911458333334,831.3333333333333,105.38791666666667,833.7499999999999,105.38671875C836.1666666666665,105.38552083333333,838.5833333333333,105.38432291666666,840.9999999999999,105.38312499999999C843.4166666666666,105.38192708333332,845.8333333333333,105.38072916666667,848.25,105.37953125C850.6666666666666,105.37833333333333,853.0833333333334,105.37713541666666,855.5,105.37593749999999C857.9166666666666,105.37473958333332,860.3333333333334,105.37354166666667,862.75,105.37234375C865.1666666666666,105.37114583333333,867.5833333333334,105.36994791666667,870,105.36875C872.4166666666666,105.36755208333334,874.8333333333334,105.36635416666667,877.25,105.36515625C879.6666666666666,105.36395833333333,882.0833333333334,105.36276041666667,884.5,105.3615625C886.9166666666666,105.36036458333334,889.3333333333334,105.35916666666667,891.75,105.35796875C894.1666666666666,105.35677083333333,896.5833333333334,105.35557291666666,899,105.35437499999999C901.4166666666666,105.35317708333332,903.8333333333334,105.35197916666668,906.25,105.35078125000001C908.6666666666666,105.34958333333334,911.0833333333334,105.34838541666667,913.5,105.3471875C915.9166666666666,105.34598958333333,918.3333333333334,105.34479166666667,920.75,105.34359375C923.1666666666666,105.34239583333333,925.5833333333334,105.34119791666667,928,105.34C930.4166666666666,105.33880208333333,932.8333333333334,105.33760416666667,935.25,105.33640625C937.6666666666666,105.33520833333333,940.0833333333334,105.33401041666666,942.5,105.33281249999999C944.9166666666666,105.33161458333332,947.3333333333334,105.33041666666668,949.75,105.32921875000001C952.1666666666666,105.32802083333334,954.5833333333334,105.32682291666667,957,105.325625C959.4166666666666,105.32442708333333,961.8333333333334,105.32322916666666,964.25,105.32203125C966.6666666666667,105.32083333333333,969.0833333333334,105.31963541666667,971.5000000000001,105.3184375C973.9166666666667,105.31723958333333,976.3333333333335,105.31604166666666,978.7500000000001,105.31484375C981.1666666666667,105.31364583333333,983.5833333333335,105.31244791666667,986.0000000000001,105.31125C988.4166666666667,105.31005208333333,990.8333333333335,105.30885416666668,993.2500000000001,105.30765625000001C995.6666666666667,105.30645833333334,998.0833333333333,105.30526041666667,1000.4999999999999,105.3040625C1002.9166666666665,105.30286458333333,1005.3333333333333,105.30166666666668,1007.7499999999999,105.30046875000001C1010.1666666666665,105.29927083333334,1012.5833333333333,105.29807291666667,1014.9999999999999,105.296875C1017.4166666666665,105.29567708333333,1019.8333333333333,105.29447916666666,1022.2499999999999,105.29328124999999C1024.6666666666665,105.29208333333332,1027.0833333333333,105.29088541666668,1029.5,105.28968750000001C1031.9166666666667,105.28848958333334,1034.3333333333333,105.28729166666668,1036.75,105.28609375C1039.1666666666667,105.28489583333334,1041.5833333333333,105.28369791666667,1044,105.2825C1046.4166666666667,105.28130208333333,1048.8333333333333,105.28010416666667,1051.25,105.27890625C1053.6666666666667,105.27770833333334,1056.0833333333333,105.27651041666667,1058.5,105.2753125C1060.9166666666667,105.27411458333333,1063.3333333333333,105.27291666666666,1065.75,105.27171874999999C1068.1666666666667,105.27052083333332,1070.5833333333333,105.26932291666668,1073,105.26812500000001C1075.4166666666667,105.26692708333334,1077.8333333333333,105.26572916666667,1080.25,105.26453125C1082.6666666666667,105.26333333333334,1085.0833333333333,105.26213541666667,1087.5,105.2609375C1089.9166666666667,105.25973958333333,1092.3333333333333,105.25854166666667,1094.75,105.25734375C1097.1666666666667,105.25614583333333,1099.5833333333333,105.25494791666667,1102,105.25375C1104.4166666666667,105.25255208333333,1106.8333333333333,105.25135416666667,1109.25,105.25015625C1111.6666666666667,105.24895833333333,1114.0833333333333,105.24776041666668,1116.5,105.24656250000001C1118.9166666666667,105.24536458333334,1121.3333333333333,105.24416666666667,1123.75,105.24296875C1126.1666666666667,105.24177083333333,1128.5833333333333,105.24057291666666,1131,105.239375C1133.4166666666667,105.23817708333333,1135.8333333333333,105.23697916666667,1138.25,105.23578125C1140.6666666666667,105.23458333333333,1143.0833333333333,105.23338541666666,1145.5,105.2321875C1147.9166666666667,105.23098958333333,1150.3333333333333,105.22979166666667,1152.75,105.22859375C1155.1666666666667,105.22739583333333,1157.5833333333333,105.22739583333333,1160,105.22500000000001C1162.4166666666667,105.22260416666668,1164.8333333333333,103.7875,1167.25,103.06875C1169.6666666666667,102.35,1172.0833333333333,101.63125,1174.5,100.9125C1176.9166666666667,100.19375,1179.3333333333333,99.47500000000001,1181.75,98.75625000000001C1184.1666666666667,98.03750000000001,1186.5833333333333,97.31875,1189,96.6C1191.4166666666667,95.88125,1193.8333333333333,95.16250000000001,1196.25,94.44375000000001C1198.6666666666667,93.72500000000001,1201.0833333333333,93.00625,1203.5,92.2875C1205.9166666666667,91.56875,1208.3333333333333,90.85,1210.75,90.13125C1213.1666666666667,89.4125,1215.5833333333333,88.69375000000001,1218,87.97500000000001C1220.4166666666667,87.25625000000001,1222.8333333333333,86.53750000000001,1225.25,85.81875000000001C1227.6666666666667,85.10000000000001,1230.0833333333333,84.38125000000001,1232.5,83.66250000000001C1234.9166666666667,82.94375000000001,1237.3333333333333,82.225,1239.75,81.50625C1242.1666666666667,80.7875,1244.5833333333333,80.06875,1247,79.35C1249.4166666666667,78.63125,1251.8333333333333,77.91250000000001,1254.25,77.19375000000001C1256.6666666666667,76.47500000000001,1259.0833333333333,75.75625000000001,1261.5,75.03750000000001C1263.9166666666667,74.31875000000001,1266.3333333333333,73.60000000000001,1268.75,72.88125000000001C1271.1666666666667,72.16250000000001,1273.5833333333333,71.44375,1276,70.725C1278.4166666666667,70.00625,1280.8333333333333,69.2875,1283.25,68.56875C1285.6666666666667,67.85,1288.0833333333333,67.13125000000001,1290.5,66.41250000000001C1292.9166666666667,65.69375000000001,1295.3333333333333,64.97500000000001,1297.75,64.25625000000001C1300.1666666666667,63.53750000000001,1302.5833333333333,62.81875,1305,62.1C1307.4166666666667,61.38125,1309.8333333333333,60.6625,1312.25,59.94375C1314.6666666666667,59.225,1317.0833333333333,58.506249999999994,1319.5,57.787499999999994C1321.9166666666667,57.068749999999994,1324.3333333333333,56.35,1326.75,55.63125C1329.1666666666667,54.9125,1331.5833333333333,54.193749999999994,1334,53.474999999999994C1336.4166666666667,52.756249999999994,1338.8333333333333,52.0375,1341.25,51.31875C1343.6666666666667,50.6,1346.0833333333333,49.88125,1348.5,49.1625C1350.9166666666667,48.44375,1353.3333333333333,47.724999999999994,1355.75,47.006249999999994C1358.1666666666667,46.287499999999994,1360.5833333333333,45.56875,1363,44.85C1365.4166666666667,44.13125,1367.8333333333333,43.412499999999994,1370.25,42.693749999999994C1372.6666666666667,41.974999999999994,1375.0833333333333,41.25625,1377.5,40.5375C1379.9166666666667,39.81875,1382.3333333333333,39.1,1384.75,38.38125C1387.1666666666667,37.6625,1389.5833333333333,36.943749999999994,1392,36.224999999999994C1394.4166666666667,35.506249999999994,1396.8333333333333,34.7875,1399.25,34.06875C1401.6666666666667,33.35,1404.0833333333333,32.631249999999994,1406.5,31.912499999999998C1408.9166666666667,31.193749999999998,1411.3333333333333,30.475000000000005,1413.75,29.756250000000005C1416.1666666666667,29.037500000000005,1418.5833333333333,28.31875,1421,27.599999999999998C1423.4166666666667,26.881249999999994,1425.8333333333333,26.162499999999994,1428.25,25.443749999999994C1430.6666666666667,24.724999999999994,1433.0833333333333,24.00625,1435.5,23.2875C1437.9166666666667,22.56875,1440.3333333333333,21.849999999999998,1442.75,21.131249999999998C1445.1666666666667,20.412499999999998,1447.5833333333333,19.69375,1450,18.975000000000005" fill="transparent" stroke-linecap="round" stroke="#E7C6DF" stroke-width="2"></path><g class="visx-group visx-axis visx-axis-bottom" transform="translate(0, 115)"><g class="visx-group visx-axis-tick" transform="translate(0, 0)"><line class="visx-line" x1="0" y1="0" x2="0" y2="8" fill="transparent" shape-rendering="crispEdges" stroke="#000" stroke-width="0" stroke-linecap="square"></line><svg x="0" y="0" font-size="10" style="overflow:visible"><text transform="" x="0" y="18" fill="#000" font-size="10" text-anchor="middle"><tspan x="0" dy="0em">0%</tspan></text></svg></g><g class="visx-group visx-axis-tick" transform="translate(0, 0)"><line class="visx-line" x1="362.5" y1="0" x2="362.5" y2="8" fill="transparent" shape-rendering="crispEdges" stroke="#000" stroke-width="0" stroke-linecap="square"></line><svg x="0" y="0" font-size="10" style="overflow:visible"><text transform="" x="362.5" y="18" fill="#000" font-size="10" text-anchor="middle"><tspan x="362.5" dy="0em">25%</tspan></text></svg></g><g class="visx-group visx-axis-tick" transform="translate(0, 0)"><line class="visx-line" x1="725" y1="0" x2="725" y2="8" fill="transparent" shape-rendering="crispEdges" stroke="#000" stroke-width="0" stroke-linecap="square"></line><svg x="0" y="0" font-size="10" style="overflow:visible"><text transform="" x="725" y="18" fill="#000" font-size="10" text-anchor="middle"><tspan x="725" dy="0em">50%</tspan></text></svg></g><g class="visx-group visx-axis-tick" transform="translate(0, 0)"><line class="visx-line" x1="1087.5" y1="0" x2="1087.5" y2="8" fill="transparent" shape-rendering="crispEdges" stroke="#000" stroke-width="0" stroke-linecap="square"></line><svg x="0" y="0" font-size="10" style="overflow:visible"><text transform="" x="1087.5" y="18" fill="#000" font-size="10" text-anchor="middle"><tspan x="1087.5" dy="0em">75%</tspan></text></svg></g><g class="visx-group visx-axis-tick" transform="translate(0, 0)"><line class="visx-line" x1="1450" y1="0" x2="1450" y2="8" fill="transparent" shape-rendering="crispEdges" stroke="#000" stroke-width="0" stroke-linecap="square"></line><svg x="0" y="0" font-size="10" style="overflow:visible"><text transform="" x="1450" y="18" fill="#000" font-size="10" text-anchor="middle"><tspan x="1450" dy="0em">100%</tspan></text></svg></g><line class="visx-line visx-axis-line" x1="0.5" y1="0" x2="1450.5" y2="0" fill="transparent" shape-rendering="crispEdges" stroke="#222" stroke-width="0"></line></g><g class="visx-group visx-axis visx-axis-left" transform="translate(0, 0)"><g class="visx-group visx-axis-tick" transform="translate(0, 0)"><line class="visx-line" x1="0" y1="115" x2="-8" y2="115" fill="transparent" shape-rendering="crispEdges" stroke="#222" stroke-width="0" stroke-linecap="square"></line><svg x="-30" y="0" font-size="8" style="overflow:visible"><text transform="" x="-8" y="115" fill="#000" font-size="8" text-anchor="start"><tspan x="-8" dy="0em">0%</tspan></text></svg></g><g class="visx-group visx-axis-tick" transform="translate(0, 0)"><line class="visx-line" x1="0" y1="57.5" x2="-8" y2="57.5" fill="transparent" shape-rendering="crispEdges" stroke="#222" stroke-width="0" stroke-linecap="square"></line><svg x="-30" y="0" font-size="8" style="overflow:visible"><text transform="" x="-8" y="57.5" fill="#000" font-size="8" text-anchor="start"><tspan x="-8" dy="0em">50%</tspan></text></svg></g><g class="visx-group visx-axis-tick" transform="translate(0, 0)"><line class="visx-line" x1="0" y1="0" x2="-8" y2="0" fill="transparent" shape-rendering="crispEdges" stroke="#222" stroke-width="0" stroke-linecap="square"></line><svg x="-30" y="0" font-size="8" style="overflow:visible"><text transform="" x="-8" y="0" fill="#000" font-size="8" text-anchor="start"><tspan x="-8" dy="0em">100%</tspan></text></svg></g><line class="visx-line visx-axis-line" x1="0" y1="115.5" x2="0" y2="0.5" fill="transparent" shape-rendering="crispEdges" stroke="#222" stroke-width="0"></line></g><rect class="visx-bar" width="1450" height="115" fill="transparent"></rect><line class="visx-line" x1="1160" y1="28" x2="1160" y2="115" fill="transparent" shape-rendering="crispEdges" stroke="#0062D2" stroke-width="1" pointer-events="none" stroke-dasharray="5,2"></line><svg x="0" y="0" font-size="10px" style="overflow:visible"><text transform="" x="1160" y="20" font-size="10px" fill="#fff" stroke="#fff" stroke-width="0.8em" text-anchor="middle"><tspan x="1160" dy="0.355em">Optimal 80%</tspan></text></svg><svg x="0" y="0" font-size="10px" style="overflow:visible"><text transform="" x="1160" y="20" font-size="10px" fill="#62677B" text-anchor="middle"><tspan x="1160" dy="0.355em">Optimal 80%</tspan></text></svg></g></svg>