<?xml version="1.0"?><svg xmlns="http://www.w3.org/2000/svg" xmlns:xlink= "http://www.w3.org/1999/xlink" style="background: white;" width="1500" height="185"> <g style="color: black; font-size: 13px; font-family: sans-serif; transform: translate(18px, 25px);"><g><circle r="3" cx="-6" cy="-5" style="fill: #B6509E" /><text>Borrow APR, variable</text></g><g style="transform: translateX(150px);"><circle r="3" cx="-6" cy="-5" style="fill: rgb(231, 198, 223)" /><text>Borrow APR, stable</text></g><g style="transform: translateX(290px);"><circle r="3" cx="-6" cy="-5" style="fill: rgb(0, 98, 210)" /><text>Utilization Rate</text></g></g><g class="visx-group" transform="translate(40, 50)"><g class="visx-group visx-rows" transform="translate(0, 0)"><line class="visx-line" x1="0" y1="115" x2="1450" y2="115" fill="transparent" shape-rendering="crispEdges" stroke="#000" stroke-width="1" stroke-dasharray="3,3" pointer-events="none"></line><line class="visx-line" x1="0" y1="82.14285714285714" x2="1450" y2="82.14285714285714" fill="transparent" shape-rendering="crispEdges" stroke="#000" stroke-width="1" stroke-dasharray="3,3" pointer-events="none"></line><line class="visx-line" x1="0" y1="49.28571428571429" x2="1450" y2="49.28571428571429" fill="transparent" shape-rendering="crispEdges" stroke="#000" stroke-width="1" stroke-dasharray="3,3" pointer-events="none"></line><line class="visx-line" x1="0" y1="16.428571428571434" x2="1450" y2="16.428571428571434" fill="transparent" shape-rendering="crispEdges" stroke="#000" stroke-width="1" stroke-dasharray="3,3" pointer-events="none"></line></g><path class="visx-linepath" d="M0,113.35714285703165C2.4166666666666665,113.33860805854319,4.833333333333334,113.32007326005471,7.25,113.30153846153846C9.666666666666666,113.2830036630222,12.083333333333334,113.26446886446887,14.5,113.24593406593407C16.916666666666668,113.22739926739926,19.333333333333332,113.20886446886448,21.75,113.19032967032967C24.166666666666668,113.17179487179487,26.583333333333332,113.15326007326007,29,113.13472527472527C31.416666666666668,113.11619047619047,33.833333333333336,113.09765567765568,36.25,113.07912087912088C38.666666666666664,113.06058608058608,41.083333333333336,113.04205128205129,43.5,113.02351648351649C45.91666666666667,113.00498168498169,48.333333333333336,112.98644688644688,50.75000000000001,112.96791208791208C53.16666666666667,112.94937728937728,55.583333333333336,112.9308424908425,58,112.91230769230769C60.416666666666664,112.89377289377289,62.833333333333336,112.8752380952381,65.25,112.8567032967033C67.66666666666667,112.8381684981685,70.08333333333333,112.8196336996337,72.5,112.8010989010989C74.91666666666667,112.7825641025641,77.33333333333333,112.76402930402931,79.75,112.7454945054945C82.16666666666667,112.7269597069597,84.58333333333333,112.70842490842492,87,112.68989010989011C89.41666666666667,112.67135531135531,91.83333333333333,112.65282051282051,94.25,112.63428571428571C96.66666666666667,112.61575091575091,99.08333333333334,112.59721611721612,101.50000000000001,112.57868131868132C103.91666666666667,112.56014652014652,106.33333333333334,112.54161172161173,108.75,112.52307692307693C111.16666666666667,112.50454212454213,113.58333333333333,112.48600732600732,116,112.46747252747252C118.41666666666667,112.44893772893772,120.83333333333334,112.43040293040293,123.25000000000001,112.41186813186813C125.66666666666667,112.39333333333333,128.08333333333334,112.37479853479854,130.5,112.35626373626374C132.91666666666666,112.33772893772894,135.33333333333334,112.31919413919414,137.75,112.30065934065934C140.16666666666666,112.28212454212454,142.58333333333334,112.26358974358975,145,112.24505494505495C147.41666666666666,112.22652014652014,149.83333333333334,112.20798534798536,152.25,112.18945054945056C154.66666666666666,112.17091575091575,157.08333333333334,112.15238095238095,159.5,112.13384615384615C161.91666666666666,112.11531135531135,164.33333333333334,112.09677655677655,166.75,112.07824175824175C169.16666666666666,112.05970695970694,171.58333333333334,112.04117216117217,174,112.02263736263737C176.41666666666666,112.00410256410257,178.83333333333334,111.98556776556777,181.25,111.96703296703296C183.66666666666666,111.94849816849816,186.08333333333334,111.92996336996336,188.5,111.91142857142856C190.91666666666666,111.89289377289376,193.33333333333334,111.87435897435898,195.75,111.85582417582418C198.16666666666669,111.83728937728938,200.58333333333334,111.81875457875458,203.00000000000003,111.80021978021978C205.41666666666669,111.78168498168498,207.83333333333331,111.76315018315019,210.24999999999997,111.74461538461539C212.66666666666666,111.72608058608058,215.08333333333331,111.7075457875458,217.5,111.689010989011C219.91666666666666,111.6704761904762,222.33333333333334,111.65194139194139,224.75,111.63340659340659C227.16666666666666,111.61487179487179,229.58333333333334,111.596336996337,232,111.5778021978022C234.41666666666666,111.5592673992674,236.83333333333334,111.54073260073261,239.25,111.52219780219781C241.66666666666669,111.50366300366301,244.08333333333334,111.4851282051282,246.50000000000003,111.4665934065934C248.91666666666669,111.4480586080586,251.33333333333331,111.42952380952381,253.74999999999997,111.41098901098901C256.16666666666663,111.39245421245421,258.5833333333333,111.37391941391942,261,111.35538461538462C263.4166666666667,111.33684981684982,265.8333333333333,111.31831501831502,268.25,111.29978021978022C270.6666666666667,111.28124542124542,273.0833333333333,111.26271062271063,275.5,111.24417582417583C277.9166666666667,111.22564102564102,280.3333333333333,111.20710622710624,282.75,111.18857142857144C285.1666666666667,111.17003663003663,287.5833333333333,111.15150183150183,290,111.13296703296703C292.4166666666667,111.11443223443223,294.8333333333333,111.09589743589744,297.25,111.07736263736264C299.6666666666667,111.05882783882784,302.0833333333333,111.04029304029304,304.5,111.02175824175823C306.9166666666667,111.00322344322343,309.3333333333333,110.98468864468865,311.75,110.96615384615384C314.1666666666667,110.94761904761904,316.5833333333333,110.92908424908426,319,110.91054945054945C321.4166666666667,110.89201465201465,323.8333333333333,110.87347985347985,326.25,110.85494505494505C328.6666666666667,110.83641025641025,331.0833333333333,110.81787545787546,333.5,110.79934065934066C335.9166666666667,110.78080586080586,338.3333333333333,110.76227106227107,340.75,110.74373626373627C343.1666666666667,110.72520146520147,345.5833333333333,110.70666666666666,348,110.68813186813186C350.4166666666667,110.66959706959706,352.8333333333333,110.65106227106227,355.25,110.63252747252747C357.6666666666667,110.61399267399267,360.0833333333333,110.59545787545788,362.5,110.57692307692308C364.9166666666667,110.55838827838828,367.3333333333333,110.53985347985348,369.75,110.52131868131868C372.1666666666667,110.50278388278387,374.5833333333333,110.48424908424909,377,110.46571428571428C379.4166666666667,110.44717948717948,381.8333333333333,110.4286446886447,384.25,110.4101098901099C386.6666666666667,110.39157509157509,389.0833333333333,110.37304029304029,391.5,110.35450549450549C393.9166666666667,110.33597069597069,396.33333333333337,110.31743589743591,398.75000000000006,110.29890109890111C401.16666666666674,110.28036630036631,403.58333333333337,110.26183150183151,406.00000000000006,110.2432967032967C408.4166666666667,110.2247619047619,410.8333333333333,110.2062271062271,413.24999999999994,110.1876923076923C415.66666666666663,110.1691575091575,418.08333333333326,110.15062271062271,420.49999999999994,110.13208791208791C422.91666666666663,110.11355311355311,425.3333333333333,110.09501831501832,427.75,110.07648351648352C430.1666666666667,110.05794871794872,432.5833333333333,110.03941391941392,435,110.02087912087912C437.4166666666667,110.00234432234431,439.8333333333333,109.98380952380953,442.25,109.96527472527472C444.6666666666667,109.94673992673992,447.0833333333333,109.92820512820514,449.5,109.90967032967033C451.9166666666667,109.89113553113553,454.3333333333333,109.87260073260073,456.75,109.85406593406593C459.1666666666667,109.83553113553113,461.5833333333333,109.81699633699634,464,109.79846153846154C466.4166666666667,109.77992673992674,468.8333333333333,109.76139194139195,471.25,109.74285714285715C473.6666666666667,109.72432234432235,476.0833333333333,109.70578754578754,478.5,109.68725274725274C480.9166666666667,109.66871794871794,483.33333333333337,109.65018315018315,485.75000000000006,109.63164835164835C488.16666666666674,109.61311355311355,490.58333333333337,109.59457875457876,493.00000000000006,109.57604395604396C495.4166666666667,109.55750915750916,497.8333333333333,109.53897435897436,500.24999999999994,109.52043956043956C502.66666666666663,109.50190476190475,505.08333333333326,109.48336996336997,507.49999999999994,109.46483516483516C509.91666666666663,109.44630036630036,512.3333333333333,109.42776556776558,514.75,109.40923076923077C517.1666666666666,109.39069597069597,519.5833333333334,109.37216117216117,522,109.35362637362637C524.4166666666666,109.33509157509157,526.8333333333334,109.31655677655678,529.25,109.29802197802198C531.6666666666666,109.27948717948718,534.0833333333334,109.26095238095239,536.5,109.24241758241759C538.9166666666666,109.22388278388279,541.3333333333334,109.20534798534798,543.75,109.18681318681318C546.1666666666666,109.16827838827838,548.5833333333334,109.1497435897436,551,109.13120879120879C553.4166666666666,109.11267399267399,555.8333333333334,109.0941391941392,558.25,109.0756043956044C560.6666666666666,109.0570695970696,563.0833333333334,109.0385347985348,565.5,109.02C567.9166666666666,109.0014652014652,570.3333333333334,108.9829304029304,572.75,108.9643956043956C575.1666666666666,108.9458608058608,577.5833333333334,108.92732600732602,580,108.90879120879121C582.4166666666666,108.89025641025641,584.8333333333334,108.87172161172161,587.25,108.85318681318681C589.6666666666666,108.83465201465201,592.0833333333334,108.81611721611722,594.5,108.79758241758242C596.9166666666666,108.77904761904762,599.3333333333334,108.76051282051282,601.75,108.74197802197801C604.1666666666666,108.72344322344321,606.5833333333334,108.70490842490842,609,108.68637362637362C611.4166666666666,108.66783882783882,613.8333333333334,108.64930402930403,616.25,108.63076923076923C618.6666666666666,108.61223443223443,621.0833333333334,108.59369963369963,623.5,108.57516483516483C625.9166666666666,108.55663003663003,628.3333333333334,108.53809523809524,630.75,108.51956043956044C633.1666666666666,108.50102564102563,635.5833333333334,108.48249084249085,638,108.46395604395605C640.4166666666666,108.44542124542124,642.8333333333334,108.42688644688644,645.25,108.40835164835164C647.6666666666666,108.38981684981684,650.0833333333334,108.37128205128207,652.5,108.35274725274726C654.9166666666666,108.33421245421246,657.3333333333334,108.31567765567766,659.75,108.29714285714286C662.1666666666666,108.27860805860806,664.5833333333334,108.26007326007326,667,108.24153846153845C669.4166666666666,108.22300366300365,671.8333333333334,108.20446886446888,674.25,108.18593406593408C676.6666666666666,108.16739926739928,679.0833333333334,108.14886446886447,681.5,108.13032967032967C683.9166666666666,108.11179487179487,686.3333333333334,108.09326007326007,688.75,108.07472527472527C691.1666666666666,108.05619047619047,693.5833333333334,108.03765567765569,696,108.01912087912089C698.4166666666666,108.00058608058609,700.8333333333334,107.98205128205129,703.25,107.96351648351649C705.6666666666666,107.94498168498168,708.0833333333334,107.92644688644688,710.5,107.90791208791208C712.9166666666666,107.88937728937728,715.3333333333334,107.87084249084249,717.75,107.85230769230769C720.1666666666666,107.83377289377289,722.5833333333334,107.8152380952381,725,107.7967032967033C727.4166666666666,107.7781684981685,729.8333333333334,107.7596336996337,732.25,107.7410989010989C734.6666666666666,107.72256410256409,737.0833333333334,107.7040293040293,739.5,107.6854945054945C741.9166666666666,107.6669597069597,744.3333333333334,107.64842490842491,746.75,107.62989010989011C749.1666666666666,107.61135531135531,751.5833333333334,107.59282051282051,754,107.57428571428571C756.4166666666666,107.5557509157509,758.8333333333334,107.53721611721612,761.25,107.51868131868132C763.6666666666666,107.50014652014652,766.0833333333334,107.48161172161173,768.5,107.46307692307693C770.9166666666666,107.44454212454212,773.3333333333334,107.42600732600732,775.75,107.40747252747252C778.1666666666666,107.38893772893772,780.5833333333334,107.37040293040293,783,107.35186813186813C785.4166666666667,107.33333333333333,787.8333333333334,107.31479853479854,790.2500000000001,107.29626373626374C792.6666666666667,107.27772893772894,795.0833333333335,107.25919413919414,797.5000000000001,107.24065934065933C799.9166666666667,107.22212454212453,802.3333333333335,107.20358974358975,804.7500000000001,107.18505494505494C807.1666666666667,107.16652014652014,809.5833333333335,107.14798534798535,812.0000000000001,107.12945054945055C814.4166666666667,107.11091575091575,816.8333333333333,107.09238095238096,819.2499999999999,107.07384615384616C821.6666666666665,107.05531135531136,824.0833333333333,107.03677655677656,826.4999999999999,107.01824175824176C828.9166666666665,106.99970695970696,831.3333333333333,106.98117216117217,833.7499999999999,106.96263736263737C836.1666666666665,106.94410256410256,838.5833333333333,106.92556776556778,840.9999999999999,106.90703296703298C843.4166666666666,106.88849816849817,845.8333333333333,106.86996336996337,848.25,106.85142857142857C850.6666666666666,106.83289377289377,853.0833333333334,106.81435897435898,855.5,106.79582417582418C857.9166666666666,106.77728937728938,860.3333333333334,106.75875457875459,862.75,106.74021978021979C865.1666666666666,106.72168498168499,867.5833333333334,106.70315018315019,870,106.68461538461538C872.4166666666666,106.66608058608058,874.8333333333334,106.6475457875458,877.25,106.629010989011C879.6666666666666,106.61047619047619,882.0833333333334,106.5919413919414,884.5,106.5734065934066C886.9166666666666,106.5548717948718,889.3333333333334,106.536336996337,891.75,106.5178021978022C894.1666666666666,106.4992673992674,896.5833333333334,106.4807326007326,899,106.46219780219779C901.4166666666666,106.44366300366299,903.8333333333334,106.42512820512822,906.25,106.40659340659342C908.6666666666666,106.38805860805861,911.0833333333334,106.36952380952381,913.5,106.35098901098901C915.9166666666666,106.33245421245421,918.3333333333334,106.31391941391941,920.75,106.2953846153846C923.1666666666666,106.2768498168498,925.5833333333334,106.25831501831503,928,106.23978021978023C930.4166666666666,106.22124542124543,932.8333333333334,106.20271062271063,935.25,106.18417582417582C937.6666666666666,106.16564102564102,940.0833333333334,106.16564102564102,942.5,106.12857142857142C944.9166666666666,106.09150183150182,947.3333333333334,105.35877551020408,949.75,104.97387755102041C952.1666666666666,104.58897959183673,954.5833333333334,104.20408163265306,957,103.81918367346938C959.4166666666666,103.4342857142857,961.8333333333334,103.04938775510203,964.25,102.66448979591837C966.6666666666667,102.2795918367347,969.0833333333334,101.89469387755103,971.5000000000001,101.50979591836736C973.9166666666667,101.12489795918368,976.3333333333335,100.74000000000001,978.7500000000001,100.35510204081633C981.1666666666667,99.97020408163266,983.5833333333335,99.58530612244898,986.0000000000001,99.20040816326531C988.4166666666667,98.81551020408163,990.8333333333335,98.43061224489796,993.2500000000001,98.04571428571428C995.6666666666667,97.66081632653061,998.0833333333333,97.27591836734692,1000.4999999999999,96.89102040816326C1002.9166666666665,96.50612244897958,1005.3333333333333,96.12122448979592,1007.7499999999999,95.73632653061225C1010.1666666666665,95.35142857142857,1012.5833333333333,94.9665306122449,1014.9999999999999,94.58163265306122C1017.4166666666665,94.19673469387754,1019.8333333333333,93.81183673469388,1022.2499999999999,93.42693877551021C1024.6666666666665,93.04204081632653,1027.0833333333333,92.65714285714286,1029.5,92.27224489795918C1031.9166666666667,91.88734693877551,1034.3333333333333,91.50244897959183,1036.75,91.11755102040816C1039.1666666666667,90.73265306122448,1041.5833333333333,90.34775510204081,1044,89.96285714285713C1046.4166666666667,89.57795918367346,1048.8333333333333,89.1930612244898,1051.25,88.80816326530612C1053.6666666666667,88.42326530612245,1056.0833333333333,88.03836734693878,1058.5,87.65346938775511C1060.9166666666667,87.26857142857143,1063.3333333333333,86.88367346938776,1065.75,86.49877551020408C1068.1666666666667,86.11387755102041,1070.5833333333333,85.72897959183675,1073,85.34408163265307C1075.4166666666667,84.9591836734694,1077.8333333333333,84.57428571428572,1080.25,84.18938775510205C1082.6666666666667,83.80448979591837,1085.0833333333333,83.4195918367347,1087.5,83.03469387755102C1089.9166666666667,82.64979591836735,1092.3333333333333,82.26489795918367,1094.75,81.88C1097.1666666666667,81.49510204081632,1099.5833333333333,81.11020408163265,1102,80.72530612244897C1104.4166666666667,80.3404081632653,1106.8333333333333,79.95551020408163,1109.25,79.57061224489796C1111.6666666666667,79.18571428571428,1114.0833333333333,78.80081632653061,1116.5,78.41591836734693C1118.9166666666667,78.03102040816326,1121.3333333333333,77.6461224489796,1123.75,77.26122448979592C1126.1666666666667,76.87632653061225,1128.5833333333333,76.49142857142857,1131,76.1065306122449C1133.4166666666667,75.72163265306122,1135.8333333333333,75.33673469387755,1138.25,74.95183673469387C1140.6666666666667,74.5669387755102,1143.0833333333333,74.18204081632653,1145.5,73.79714285714286C1147.9166666666667,73.41224489795918,1150.3333333333333,73.02734693877551,1152.75,72.64244897959183C1155.1666666666667,72.25755102040816,1157.5833333333333,71.8726530612245,1160,71.48775510204082C1162.4166666666667,71.10285714285715,1164.8333333333333,70.71795918367347,1167.25,70.3330612244898C1169.6666666666667,69.94816326530612,1172.0833333333333,69.56326530612246,1174.5,69.17836734693878C1176.9166666666667,68.79346938775511,1179.3333333333333,68.40857142857143,1181.75,68.02367346938776C1184.1666666666667,67.63877551020408,1186.5833333333333,67.25387755102041,1189,66.86897959183673C1191.4166666666667,66.48408163265306,1193.8333333333333,66.09918367346938,1196.25,65.71428571428571C1198.6666666666667,65.32938775510203,1201.0833333333333,64.94448979591837,1203.5,64.5595918367347C1205.9166666666667,64.17469387755102,1208.3333333333333,63.78979591836734,1210.75,63.404897959183664C1213.1666666666667,63.01999999999999,1215.5833333333333,62.63510204081632,1218,62.25020408163265C1220.4166666666667,61.865306122448985,1222.8333333333333,61.48040816326532,1225.25,61.09551020408164C1227.6666666666667,60.710612244897966,1230.0833333333333,60.32571428571429,1232.5,59.940816326530616C1234.9166666666667,59.55591836734694,1237.3333333333333,59.171020408163265,1239.75,58.78612244897959C1242.1666666666667,58.401224489795915,1244.5833333333333,58.01632653061224,1247,57.631428571428565C1249.4166666666667,57.24653061224489,1251.8333333333333,56.86163265306122,1254.25,56.47673469387755C1256.6666666666667,56.091836734693885,1259.0833333333333,55.70693877551021,1261.5,55.322040816326535C1263.9166666666667,54.93714285714286,1266.3333333333333,54.552244897959184,1268.75,54.16734693877551C1271.1666666666667,53.782448979591834,1273.5833333333333,53.39755102040817,1276,53.0126530612245C1278.4166666666667,52.62775510204082,1280.8333333333333,52.24285714285715,1283.25,51.85795918367347C1285.6666666666667,51.4730612244898,1288.0833333333333,51.08816326530612,1290.5,50.70326530612245C1292.9166666666667,50.31836734693877,1295.3333333333333,49.93346938775511,1297.75,49.548571428571435C1300.1666666666667,49.16367346938776,1302.5833333333333,48.77877551020408,1305,48.3938775510204C1307.4166666666667,48.00897959183673,1309.8333333333333,47.624081632653066,1312.25,47.23918367346939C1314.6666666666667,46.854285714285716,1317.0833333333333,46.46938775510204,1319.5,46.084489795918365C1321.9166666666667,45.69959183673469,1324.3333333333333,45.314693877551015,1326.75,44.92979591836734C1329.1666666666667,44.544897959183665,1331.5833333333333,44.16,1334,43.77510204081633C1336.4166666666667,43.39020408163266,1338.8333333333333,43.005306122448985,1341.25,42.62040816326531C1343.6666666666667,42.235510204081635,1346.0833333333333,41.85061224489796,1348.5,41.465714285714284C1350.9166666666667,41.08081632653061,1353.3333333333333,40.695918367346934,1355.75,40.31102040816326C1358.1666666666667,39.926122448979584,1360.5833333333333,39.54122448979592,1363,39.15632653061225C1365.4166666666667,38.77142857142857,1367.8333333333333,38.3865306122449,1370.25,38.00163265306122C1372.6666666666667,37.61673469387755,1375.0833333333333,37.23183673469387,1377.5,36.846938775510196C1379.9166666666667,36.46204081632652,1382.3333333333333,36.07714285714286,1384.75,35.692244897959185C1387.1666666666667,35.30734693877551,1389.5833333333333,34.92244897959184,1392,34.537551020408166C1394.4166666666667,34.15265306122449,1396.8333333333333,33.767755102040816,1399.25,33.38285714285714C1401.6666666666667,32.997959183673466,1404.0833333333333,32.613061224489805,1406.5,32.22816326530613C1408.9166666666667,31.843265306122458,1411.3333333333333,31.458367346938775,1413.75,31.073469387755104C1416.1666666666667,30.688571428571432,1418.5833333333333,30.303673469387768,1421,29.918775510204092C1423.4166666666667,29.533877551020417,1425.8333333333333,29.14897959183673,1428.25,28.764081632653056C1430.6666666666667,28.37918367346938,1433.0833333333333,27.994285714285702,1435.5,27.60938775510203C1437.9166666666667,27.22448979591836,1440.3333333333333,26.839591836734694,1442.75,26.454693877551023C1445.1666666666667,26.06979591836735,1447.5833333333333,25.684897959183672,1450,25.299999999999997" fill="transparent" stroke-linecap="round" stroke="#B6509E" stroke-width="2"></path><path class="visx-linepath" d="M0,111.71428571417451C2.4166666666666665,111.69575091568605,4.833333333333334,111.67721611719757,7.25,111.65868131868132C9.666666666666666,111.64014652016506,12.083333333333334,111.62161172161173,14.5,111.60307692307693C16.916666666666668,111.58454212454212,19.333333333333332,111.56600732600732,21.75,111.54747252747252C24.166666666666668,111.52893772893772,26.583333333333332,111.51040293040293,29,111.49186813186813C31.416666666666668,111.47333333333333,33.833333333333336,111.45479853479854,36.25,111.43626373626374C38.666666666666664,111.41772893772894,41.083333333333336,111.39919413919414,43.5,111.38065934065934C45.91666666666667,111.36212454212453,48.333333333333336,111.34358974358975,50.75000000000001,111.32505494505494C53.16666666666667,111.30652014652014,55.583333333333336,111.28798534798536,58,111.26945054945055C60.416666666666664,111.25091575091575,62.833333333333336,111.23238095238095,65.25,111.21384615384615C67.66666666666667,111.19531135531135,70.08333333333333,111.17677655677656,72.5,111.15824175824176C74.91666666666667,111.13970695970696,77.33333333333333,111.12117216117217,79.75,111.10263736263737C82.16666666666667,111.08410256410257,84.58333333333333,111.06556776556776,87,111.04703296703296C89.41666666666667,111.02849816849816,91.83333333333333,111.00996336996337,94.25,110.99142857142857C96.66666666666667,110.97289377289377,99.08333333333334,110.95435897435898,101.50000000000001,110.93582417582418C103.91666666666667,110.91728937728938,106.33333333333334,110.89875457875458,108.75,110.88021978021978C111.16666666666667,110.86168498168497,113.58333333333333,110.84315018315019,116,110.82461538461538C118.41666666666667,110.80608058608058,120.83333333333334,110.7875457875458,123.25000000000001,110.769010989011C125.66666666666667,110.75047619047619,128.08333333333334,110.73194139194139,130.5,110.71340659340659C132.91666666666666,110.69487179487179,135.33333333333334,110.676336996337,137.75,110.6578021978022C140.16666666666666,110.6392673992674,142.58333333333334,110.62073260073261,145,110.60219780219781C147.41666666666666,110.583663003663,149.83333333333334,110.5651282051282,152.25,110.5465934065934C154.66666666666666,110.5280586080586,157.08333333333334,110.50952380952381,159.5,110.49098901098901C161.91666666666666,110.47245421245421,164.33333333333334,110.45391941391942,166.75,110.43538461538462C169.16666666666666,110.41684981684982,171.58333333333334,110.39831501831502,174,110.37978021978022C176.41666666666666,110.36124542124541,178.83333333333334,110.34271062271063,181.25,110.32417582417582C183.66666666666666,110.30564102564102,186.08333333333334,110.28710622710624,188.5,110.26857142857143C190.91666666666666,110.25003663003663,193.33333333333334,110.23150183150183,195.75,110.21296703296703C198.16666666666669,110.19443223443223,200.58333333333334,110.17589743589744,203.00000000000003,110.15736263736264C205.41666666666669,110.13882783882784,207.83333333333331,110.12029304029305,210.24999999999997,110.10175824175825C212.66666666666666,110.08322344322345,215.08333333333331,110.06468864468864,217.5,110.04615384615384C219.91666666666666,110.02761904761904,222.33333333333334,110.00908424908425,224.75,109.99054945054945C227.16666666666666,109.97201465201465,229.58333333333334,109.95347985347985,232,109.93494505494505C234.41666666666666,109.91641025641024,236.83333333333334,109.89787545787546,239.25,109.87934065934066C241.66666666666669,109.86080586080585,244.08333333333334,109.84227106227107,246.50000000000003,109.82373626373627C248.91666666666669,109.80520146520146,251.33333333333331,109.78666666666666,253.74999999999997,109.76813186813186C256.16666666666663,109.74959706959706,258.5833333333333,109.73106227106229,261,109.71252747252748C263.4166666666667,109.69399267399268,265.8333333333333,109.67545787545788,268.25,109.65692307692308C270.6666666666667,109.63838827838828,273.0833333333333,109.61985347985348,275.5,109.60131868131867C277.9166666666667,109.58278388278387,280.3333333333333,109.5642490842491,282.75,109.5457142857143C285.1666666666667,109.5271794871795,287.5833333333333,109.5086446886447,290,109.49010989010989C292.4166666666667,109.47157509157509,294.8333333333333,109.45304029304029,297.25,109.43450549450549C299.6666666666667,109.41597069597069,302.0833333333333,109.39743589743591,304.5,109.37890109890111C306.9166666666667,109.36036630036631,309.3333333333333,109.3418315018315,311.75,109.3232967032967C314.1666666666667,109.3047619047619,316.5833333333333,109.2862271062271,319,109.2676923076923C321.4166666666667,109.2491575091575,323.8333333333333,109.23062271062273,326.25,109.21208791208792C328.6666666666667,109.19355311355312,331.0833333333333,109.17501831501832,333.5,109.15648351648352C335.9166666666667,109.13794871794872,338.3333333333333,109.11941391941392,340.75,109.10087912087911C343.1666666666667,109.08234432234431,345.5833333333333,109.06380952380954,348,109.04527472527474C350.4166666666667,109.02673992673994,352.8333333333333,109.00820512820513,355.25,108.98967032967033C357.6666666666667,108.97113553113553,360.0833333333333,108.95260073260073,362.5,108.93406593406593C364.9166666666667,108.91553113553113,367.3333333333333,108.89699633699634,369.75,108.87846153846154C372.1666666666667,108.85992673992673,374.5833333333333,108.84139194139195,377,108.82285714285715C379.4166666666667,108.80432234432234,381.8333333333333,108.78578754578754,384.25,108.76725274725274C386.6666666666667,108.74871794871794,389.0833333333333,108.73018315018315,391.5,108.71164835164835C393.9166666666667,108.69311355311355,396.33333333333337,108.67457875457876,398.75000000000006,108.65604395604396C401.16666666666674,108.63750915750916,403.58333333333337,108.61897435897436,406.00000000000006,108.60043956043955C408.4166666666667,108.58190476190475,410.8333333333333,108.56336996336996,413.24999999999994,108.54483516483516C415.66666666666663,108.52630036630036,418.08333333333326,108.50776556776557,420.49999999999994,108.48923076923077C422.91666666666663,108.47069597069597,425.3333333333333,108.45216117216117,427.75,108.43362637362637C430.1666666666667,108.41509157509157,432.5833333333333,108.39655677655678,435,108.37802197802198C437.4166666666667,108.35948717948718,439.8333333333333,108.34095238095239,442.25,108.32241758241759C444.6666666666667,108.30388278388278,447.0833333333333,108.28534798534798,449.5,108.26681318681318C451.9166666666667,108.24827838827838,454.3333333333333,108.22974358974359,456.75,108.21120879120879C459.1666666666667,108.19267399267399,461.5833333333333,108.1741391941392,464,108.1556043956044C466.4166666666667,108.1370695970696,468.8333333333333,108.1185347985348,471.25,108.1C473.6666666666667,108.08146520146519,476.0833333333333,108.0629304029304,478.5,108.0443956043956C480.9166666666667,108.0258608058608,483.33333333333337,108.00732600732601,485.75000000000006,107.98879120879121C488.16666666666674,107.97025641025641,490.58333333333337,107.95172161172161,493.00000000000006,107.93318681318681C495.4166666666667,107.914652014652,497.8333333333333,107.89611721611722,500.24999999999994,107.87758241758242C502.66666666666663,107.85904761904762,505.08333333333326,107.84051282051283,507.49999999999994,107.82197802197803C509.91666666666663,107.80344322344322,512.3333333333333,107.78490842490842,514.75,107.76637362637362C517.1666666666666,107.74783882783882,519.5833333333334,107.72930402930403,522,107.71076923076923C524.4166666666666,107.69223443223443,526.8333333333334,107.67369963369963,529.25,107.65516483516483C531.6666666666666,107.63663003663002,534.0833333333334,107.61809523809524,536.5,107.59956043956043C538.9166666666666,107.58102564102563,541.3333333333334,107.56249084249085,543.75,107.54395604395604C546.1666666666666,107.52542124542124,548.5833333333334,107.50688644688644,551,107.48835164835164C553.4166666666666,107.46981684981684,555.8333333333334,107.45128205128206,558.25,107.43274725274726C560.6666666666666,107.41421245421246,563.0833333333334,107.39567765567766,565.5,107.37714285714286C567.9166666666666,107.35860805860806,570.3333333333334,107.34007326007325,572.75,107.32153846153845C575.1666666666666,107.30300366300365,577.5833333333334,107.28446886446888,580,107.26593406593408C582.4166666666666,107.24739926739927,584.8333333333334,107.22886446886447,587.25,107.21032967032967C589.6666666666666,107.19179487179487,592.0833333333334,107.17326007326007,594.5,107.15472527472527C596.9166666666666,107.13619047619046,599.3333333333334,107.11765567765569,601.75,107.09912087912089C604.1666666666666,107.08058608058609,606.5833333333334,107.06205128205129,609,107.04351648351648C611.4166666666666,107.02498168498168,613.8333333333334,107.00644688644688,616.25,106.98791208791208C618.6666666666666,106.96937728937728,621.0833333333334,106.9508424908425,623.5,106.9323076923077C625.9166666666666,106.9137728937729,628.3333333333334,106.8952380952381,630.75,106.8767032967033C633.1666666666666,106.8581684981685,635.5833333333334,106.8396336996337,638,106.82109890109889C640.4166666666666,106.80256410256409,642.8333333333334,106.7840293040293,645.25,106.7654945054945C647.6666666666666,106.7469597069597,650.0833333333334,106.72842490842491,652.5,106.70989010989011C654.9166666666666,106.69135531135531,657.3333333333334,106.67282051282052,659.75,106.65428571428572C662.1666666666666,106.63575091575092,664.5833333333334,106.61721611721612,667,106.59868131868132C669.4166666666666,106.58014652014651,671.8333333333334,106.56161172161173,674.25,106.54307692307692C676.6666666666666,106.52454212454212,679.0833333333334,106.50600732600734,681.5,106.48747252747253C683.9166666666666,106.46893772893773,686.3333333333334,106.45040293040293,688.75,106.43186813186813C691.1666666666666,106.41333333333333,693.5833333333334,106.39479853479854,696,106.37626373626374C698.4166666666666,106.35772893772894,700.8333333333334,106.33919413919415,703.25,106.32065934065935C705.6666666666666,106.30212454212455,708.0833333333334,106.28358974358974,710.5,106.26505494505494C712.9166666666666,106.24652014652014,715.3333333333334,106.22798534798535,717.75,106.20945054945055C720.1666666666666,106.19091575091575,722.5833333333334,106.17238095238096,725,106.15384615384616C727.4166666666666,106.13531135531136,729.8333333333334,106.11677655677656,732.25,106.09824175824176C734.6666666666666,106.07970695970695,737.0833333333334,106.06117216117217,739.5,106.04263736263736C741.9166666666666,106.02410256410256,744.3333333333334,106.00556776556778,746.75,105.98703296703297C749.1666666666666,105.96849816849817,751.5833333333334,105.94996336996337,754,105.93142857142857C756.4166666666666,105.91289377289377,758.8333333333334,105.89435897435898,761.25,105.87582417582418C763.6666666666666,105.85728937728938,766.0833333333334,105.83875457875459,768.5,105.82021978021979C770.9166666666666,105.80168498168499,773.3333333333334,105.78315018315018,775.75,105.76461538461538C778.1666666666666,105.74608058608058,780.5833333333334,105.7275457875458,783,105.70901098901099C785.4166666666667,105.69047619047619,787.8333333333334,105.6719413919414,790.2500000000001,105.6534065934066C792.6666666666667,105.6348717948718,795.0833333333335,105.616336996337,797.5000000000001,105.5978021978022C799.9166666666667,105.5792673992674,802.3333333333335,105.5607326007326,804.7500000000001,105.5421978021978C807.1666666666667,105.523663003663,809.5833333333335,105.50512820512822,812.0000000000001,105.48659340659341C814.4166666666667,105.46805860805861,816.8333333333333,105.44952380952381,819.2499999999999,105.43098901098901C821.6666666666665,105.41245421245421,824.0833333333333,105.3939194139194,826.4999999999999,105.3753846153846C828.9166666666665,105.3568498168498,831.3333333333333,105.33831501831503,833.7499999999999,105.31978021978023C836.1666666666665,105.30124542124543,838.5833333333333,105.28271062271062,840.9999999999999,105.26417582417582C843.4166666666666,105.24564102564102,845.8333333333333,105.22710622710622,848.25,105.20857142857142C850.6666666666666,105.19003663003662,853.0833333333334,105.17150183150184,855.5,105.15296703296704C857.9166666666666,105.13443223443224,860.3333333333334,105.11589743589744,862.75,105.09736263736264C865.1666666666666,105.07882783882783,867.5833333333334,105.06029304029303,870,105.04175824175823C872.4166666666666,105.02322344322343,874.8333333333334,105.00468864468866,877.25,104.98615384615385C879.6666666666666,104.96761904761905,882.0833333333334,104.94908424908425,884.5,104.93054945054945C886.9166666666666,104.91201465201465,889.3333333333334,104.89347985347985,891.75,104.87494505494504C894.1666666666666,104.85641025641024,896.5833333333334,104.83787545787547,899,104.81934065934067C901.4166666666666,104.80080586080587,903.8333333333334,104.78227106227106,906.25,104.76373626373626C908.6666666666666,104.74520146520146,911.0833333333334,104.72666666666666,913.5,104.70813186813186C915.9166666666666,104.68959706959706,918.3333333333334,104.67106227106228,920.75,104.65252747252748C923.1666666666666,104.63399267399268,925.5833333333334,104.61545787545788,928,104.59692307692308C930.4166666666666,104.57838827838827,932.8333333333334,104.55985347985349,935.25,104.54131868131869C937.6666666666666,104.52278388278388,940.0833333333334,104.52278388278388,942.5,104.48571428571428C944.9166666666666,104.44864468864468,947.3333333333334,103.71591836734694,949.75,103.33102040816327C952.1666666666666,102.9461224489796,954.5833333333334,102.56122448979592,957,102.17632653061224C959.4166666666666,101.79142857142857,961.8333333333334,101.40653061224491,964.25,101.02163265306123C966.6666666666667,100.63673469387756,969.0833333333334,100.25183673469388,971.5000000000001,99.8669387755102C973.9166666666667,99.48204081632653,976.3333333333335,99.09714285714286,978.7500000000001,98.71224489795918C981.1666666666667,98.3273469387755,983.5833333333335,97.94244897959184,986.0000000000001,97.55755102040817C988.4166666666667,97.1726530612245,990.8333333333335,96.78775510204082,993.2500000000001,96.40285714285714C995.6666666666667,96.01795918367347,998.0833333333333,95.6330612244898,1000.4999999999999,95.24816326530612C1002.9166666666665,94.86326530612244,1005.3333333333333,94.47836734693877,1007.7499999999999,94.09346938775509C1010.1666666666665,93.70857142857142,1012.5833333333333,93.32367346938776,1014.9999999999999,92.93877551020408C1017.4166666666665,92.5538775510204,1019.8333333333333,92.16897959183673,1022.2499999999999,91.78408163265306C1024.6666666666665,91.39918367346938,1027.0833333333333,91.01428571428572,1029.5,90.62938775510204C1031.9166666666667,90.24448979591838,1034.3333333333333,89.85959183673471,1036.75,89.47469387755103C1039.1666666666667,89.08979591836736,1041.5833333333333,88.70489795918368,1044,88.32000000000001C1046.4166666666667,87.93510204081633,1048.8333333333333,87.55020408163266,1051.25,87.16530612244898C1053.6666666666667,86.7804081632653,1056.0833333333333,86.39551020408163,1058.5,86.01061224489796C1060.9166666666667,85.62571428571428,1063.3333333333333,85.2408163265306,1065.75,84.85591836734693C1068.1666666666667,84.47102040816326,1070.5833333333333,84.08612244897958,1073,83.7012244897959C1075.4166666666667,83.31632653061223,1077.8333333333333,82.93142857142858,1080.25,82.54653061224491C1082.6666666666667,82.16163265306123,1085.0833333333333,81.77673469387756,1087.5,81.39183673469388C1089.9166666666667,81.0069387755102,1092.3333333333333,80.62204081632653,1094.75,80.23714285714286C1097.1666666666667,79.85224489795918,1099.5833333333333,79.4673469387755,1102,79.08244897959183C1104.4166666666667,78.69755102040816,1106.8333333333333,78.31265306122448,1109.25,77.9277551020408C1111.6666666666667,77.54285714285713,1114.0833333333333,77.15795918367347,1116.5,76.7730612244898C1118.9166666666667,76.38816326530612,1121.3333333333333,76.00326530612246,1123.75,75.61836734693878C1126.1666666666667,75.23346938775511,1128.5833333333333,74.84857142857143,1131,74.46367346938776C1133.4166666666667,74.07877551020408,1135.8333333333333,73.69387755102042,1138.25,73.30897959183675C1140.6666666666667,72.92408163265307,1143.0833333333333,72.5391836734694,1145.5,72.15428571428572C1147.9166666666667,71.76938775510204,1150.3333333333333,71.38448979591837,1152.75,70.9995918367347C1155.1666666666667,70.61469387755102,1157.5833333333333,70.22979591836734,1160,69.84489795918367C1162.4166666666667,69.46,1164.8333333333333,69.07510204081632,1167.25,68.69020408163264C1169.6666666666667,68.30530612244897,1172.0833333333333,67.92040816326531,1174.5,67.53551020408163C1176.9166666666667,67.15061224489796,1179.3333333333333,66.76571428571428,1181.75,66.3808163265306C1184.1666666666667,65.99591836734693,1186.5833333333333,65.61102040816327,1189,65.2261224489796C1191.4166666666667,64.84122448979592,1193.8333333333333,64.45632653061224,1196.25,64.07142857142857C1198.6666666666667,63.686530612244894,1201.0833333333333,63.301632653061226,1203.5,62.91673469387755C1205.9166666666667,62.531836734693876,1208.3333333333333,62.1469387755102,1210.75,61.762040816326525C1213.1666666666667,61.37714285714285,1215.5833333333333,60.992244897959175,1218,60.6073469387755C1220.4166666666667,60.222448979591825,1222.8333333333333,59.83755102040816,1225.25,59.45265306122449C1227.6666666666667,59.06775510204081,1230.0833333333333,58.68285714285714,1232.5,58.29795918367346C1234.9166666666667,57.91306122448979,1237.3333333333333,57.52816326530612,1239.75,57.143265306122444C1242.1666666666667,56.75836734693877,1244.5833333333333,56.37346938775511,1247,55.98857142857143C1249.4166666666667,55.60367346938776,1251.8333333333333,55.21877551020408,1254.25,54.83387755102041C1256.6666666666667,54.44897959183673,1259.0833333333333,54.06408163265306,1261.5,53.67918367346938C1263.9166666666667,53.29428571428571,1266.3333333333333,52.909387755102046,1268.75,52.52448979591837C1271.1666666666667,52.139591836734695,1273.5833333333333,51.75469387755102,1276,51.369795918367345C1278.4166666666667,50.98489795918367,1280.8333333333333,50.599999999999994,1283.25,50.215102040816326C1285.6666666666667,49.83020408163266,1288.0833333333333,49.44530612244899,1290.5,49.060408163265315C1292.9166666666667,48.67551020408164,1295.3333333333333,48.290612244897964,1297.75,47.90571428571429C1300.1666666666667,47.520816326530614,1302.5833333333333,47.13591836734695,1305,46.75102040816328C1307.4166666666667,46.3661224489796,1309.8333333333333,45.98122448979593,1312.25,45.59632653061225C1314.6666666666667,45.21142857142858,1317.0833333333333,44.8265306122449,1319.5,44.44163265306123C1321.9166666666667,44.05673469387755,1324.3333333333333,43.67183673469388,1326.75,43.28693877551021C1329.1666666666667,42.90204081632653,1331.5833333333333,42.51714285714287,1334,42.1322448979592C1336.4166666666667,41.74734693877552,1338.8333333333333,41.362448979591846,1341.25,40.97755102040817C1343.6666666666667,40.592653061224496,1346.0833333333333,40.20775510204082,1348.5,39.822857142857146C1350.9166666666667,39.43795918367347,1353.3333333333333,39.05306122448981,1355.75,38.668163265306134C1358.1666666666667,38.28326530612246,1360.5833333333333,37.898367346938784,1363,37.51346938775511C1365.4166666666667,37.12857142857143,1367.8333333333333,36.74367346938776,1370.25,36.35877551020408C1372.6666666666667,35.97387755102041,1375.0833333333333,35.58897959183675,1377.5,35.20408163265307C1379.9166666666667,34.8191836734694,1382.3333333333333,34.434285714285714,1384.75,34.04938775510204C1387.1666666666667,33.664489795918364,1389.5833333333333,33.2795918367347,1392,32.89469387755103C1394.4166666666667,32.50979591836735,1396.8333333333333,32.12489795918368,1399.25,31.740000000000002C1401.6666666666667,31.355102040816327,1404.0833333333333,30.97020408163265,1406.5,30.58530612244898C1408.9166666666667,30.20040816326531,1411.3333333333333,29.81551020408164,1413.75,29.43061224489797C1416.1666666666667,29.045714285714297,1418.5833333333333,28.660816326530618,1421,28.275918367346943C1423.4166666666667,27.891020408163268,1425.8333333333333,27.506122448979593,1428.25,27.12122448979592C1430.6666666666667,26.73632653061225,1433.0833333333333,26.35142857142858,1435.5,25.96653061224491C1437.9166666666667,25.581632653061238,1440.3333333333333,25.19673469387756,1442.75,24.811836734693884C1445.1666666666667,24.42693877551021,1447.5833333333333,24.042040816326534,1450,23.65714285714286" fill="transparent" stroke-linecap="round" stroke="#E7C6DF" stroke-width="2"></path><g class="visx-group visx-axis visx-axis-bottom" transform="translate(0, 115)"><g class="visx-group visx-axis-tick" transform="translate(0, 0)"><line class="visx-line" x1="0" y1="0" x2="0" y2="8" fill="transparent" shape-rendering="crispEdges" stroke="#000" stroke-width="0" stroke-linecap="square"></line><svg x="0" y="0" font-size="10" style="overflow:visible"><text transform="" x="0" y="18" fill="#000" font-size="10" text-anchor="middle"><tspan x="0" dy="0em">0%</tspan></text></svg></g><g class="visx-group visx-axis-tick" transform="translate(0, 0)"><line class="visx-line" x1="362.5" y1="0" x2="362.5" y2="8" fill="transparent" shape-rendering="crispEdges" stroke="#000" stroke-width="0" stroke-linecap="square"></line><svg x="0" y="0" font-size="10" style="overflow:visible"><text transform="" x="362.5" y="18" fill="#000" font-size="10" text-anchor="middle"><tspan x="362.5" dy="0em">25%</tspan></text></svg></g><g class="visx-group visx-axis-tick" transform="translate(0, 0)"><line class="visx-line" x1="725" y1="0" x2="725" y2="8" fill="transparent" shape-rendering="crispEdges" stroke="#000" stroke-width="0" stroke-linecap="square"></line><svg x="0" y="0" font-size="10" style="overflow:visible"><text transform="" x="725" y="18" fill="#000" font-size="10" text-anchor="middle"><tspan x="725" dy="0em">50%</tspan></text></svg></g><g class="visx-group visx-axis-tick" transform="translate(0, 0)"><line class="visx-line" x1="1087.5" y1="0" x2="1087.5" y2="8" fill="transparent" shape-rendering="crispEdges" stroke="#000" stroke-width="0" stroke-linecap="square"></line><svg x="0" y="0" font-size="10" style="overflow:visible"><text transform="" x="1087.5" y="18" fill="#000" font-size="10" text-anchor="middle"><tspan x="1087.5" dy="0em">75%</tspan></text></svg></g><g class="visx-group visx-axis-tick" transform="translate(0, 0)"><line class="visx-line" x1="1450" y1="0" x2="1450" y2="8" fill="transparent" shape-rendering="crispEdges" stroke="#000" stroke-width="0" stroke-linecap="square"></line><svg x="0" y="0" font-size="10" style="overflow:visible"><text transform="" x="1450" y="18" fill="#000" font-size="10" text-anchor="middle"><tspan x="1450" dy="0em">100%</tspan></text></svg></g><line class="visx-line visx-axis-line" x1="0.5" y1="0" x2="1450.5" y2="0" fill="transparent" shape-rendering="crispEdges" stroke="#222" stroke-width="0"></line></g><g class="visx-group visx-axis visx-axis-left" transform="translate(0, 0)"><g class="visx-group visx-axis-tick" transform="translate(0, 0)"><line class="visx-line" x1="0" y1="115" x2="-8" y2="115" fill="transparent" shape-rendering="crispEdges" stroke="#222" stroke-width="0" stroke-linecap="square"></line><svg x="-30" y="0" font-size="8" style="overflow:visible"><text transform="" x="-8" y="115" fill="#000" font-size="8" text-anchor="start"><tspan x="-8" dy="0em">0%</tspan></text></svg></g><g class="visx-group visx-axis-tick" transform="translate(0, 0)"><line class="visx-line" x1="0" y1="49.28571428571429" x2="-8" y2="49.28571428571429" fill="transparent" shape-rendering="crispEdges" stroke="#222" stroke-width="0" stroke-linecap="square"></line><svg x="-30" y="0" font-size="8" style="overflow:visible"><text transform="" x="-8" y="49.28571428571429" fill="#000" font-size="8" text-anchor="start"><tspan x="-8" dy="0em">200%</tspan></text></svg></g><line class="visx-line visx-axis-line" x1="0" y1="115.5" x2="0" y2="0.5" fill="transparent" shape-rendering="crispEdges" stroke="#222" stroke-width="0"></line></g><rect class="visx-bar" width="1450" height="115" fill="transparent"></rect><line class="visx-line" x1="942.5" y1="28" x2="942.5" y2="115" fill="transparent" shape-rendering="crispEdges" stroke="#0062D2" stroke-width="1" pointer-events="none" stroke-dasharray="5,2"></line><svg x="0" y="0" font-size="10px" style="overflow:visible"><text transform="" x="942.5" y="20" font-size="10px" fill="#fff" stroke="#fff" stroke-width="0.8em" text-anchor="middle"><tspan x="942.5" dy="0.355em">Optimal 65%</tspan></text></svg><svg x="0" y="0" font-size="10px" style="overflow:visible"><text transform="" x="942.5" y="20" font-size="10px" fill="#62677B" text-anchor="middle"><tspan x="942.5" dy="0.355em">Optimal 65%</tspan></text></svg></g></svg>