<?xml version="1.0"?><svg xmlns="http://www.w3.org/2000/svg" xmlns:xlink= "http://www.w3.org/1999/xlink" style="background: white;" width="1500" height="185"> <g style="color: black; font-size: 13px; font-family: sans-serif; transform: translate(18px, 25px);"><g><circle r="3" cx="-6" cy="-5" style="fill: #B6509E" /><text>Borrow APR, variable</text></g><g style="transform: translateX(150px);"><circle r="3" cx="-6" cy="-5" style="fill: rgb(231, 198, 223)" /><text>Borrow APR, stable</text></g><g style="transform: translateX(290px);"><circle r="3" cx="-6" cy="-5" style="fill: rgb(0, 98, 210)" /><text>Utilization Rate</text></g></g><g class="visx-group" transform="translate(40, 50)"><g class="visx-group visx-rows" transform="translate(0, 0)"><line class="visx-line" x1="0" y1="115" x2="1450" y2="115" fill="transparent" shape-rendering="crispEdges" stroke="#000" stroke-width="1" stroke-dasharray="3,3" pointer-events="none"></line><line class="visx-line" x1="0" y1="83.05555555555556" x2="1450" y2="83.05555555555556" fill="transparent" shape-rendering="crispEdges" stroke="#000" stroke-width="1" stroke-dasharray="3,3" pointer-events="none"></line><line class="visx-line" x1="0" y1="51.11111111111111" x2="1450" y2="51.11111111111111" fill="transparent" shape-rendering="crispEdges" stroke="#000" stroke-width="1" stroke-dasharray="3,3" pointer-events="none"></line><line class="visx-line" x1="0" y1="19.16666666666666" x2="1450" y2="19.16666666666666" fill="transparent" shape-rendering="crispEdges" stroke="#000" stroke-width="1" stroke-dasharray="3,3" pointer-events="none"></line></g><path class="visx-linepath" d="M0,114.99999999996349C2.4166666666666665,114.99391534389405,4.833333333333334,114.9878306878246,7.25,114.98174603174603C9.666666666666666,114.97566137566746,12.083333333333334,114.96957671957672,14.5,114.96349206349207C16.916666666666668,114.95740740740742,19.333333333333332,114.95132275132275,21.75,114.9452380952381C24.166666666666668,114.93915343915344,26.583333333333332,114.93306878306878,29,114.92698412698412C31.416666666666668,114.92089947089947,33.833333333333336,114.91481481481482,36.25,114.90873015873017C38.666666666666664,114.90264550264551,41.083333333333336,114.89656084656085,43.5,114.89047619047619C45.91666666666667,114.88439153439154,48.333333333333336,114.87830687830689,50.75000000000001,114.87222222222223C53.16666666666667,114.86613756613758,55.583333333333336,114.8600529100529,58,114.85396825396825C60.416666666666664,114.8478835978836,62.833333333333336,114.84179894179894,65.25,114.83571428571429C67.66666666666667,114.82962962962964,70.08333333333333,114.82354497354497,72.5,114.81746031746032C74.91666666666667,114.81137566137566,77.33333333333333,114.80529100529101,79.75,114.79920634920636C82.16666666666667,114.7931216931217,84.58333333333333,114.78703703703704,87,114.78095238095239C89.41666666666667,114.77486772486773,91.83333333333333,114.76878306878307,94.25,114.76269841269841C96.66666666666667,114.75661375661376,99.08333333333334,114.75052910052909,101.50000000000001,114.74444444444444C103.91666666666667,114.73835978835979,106.33333333333334,114.73227513227513,108.75,114.72619047619048C111.16666666666667,114.72010582010583,113.58333333333333,114.71402116402116,116,114.70793650793651C118.41666666666667,114.70185185185186,120.83333333333334,114.6957671957672,123.25000000000001,114.68968253968255C125.66666666666667,114.6835978835979,128.08333333333334,114.67751322751322,130.5,114.67142857142856C132.91666666666666,114.66534391534391,135.33333333333334,114.65925925925926,137.75,114.6531746031746C140.16666666666666,114.64708994708995,142.58333333333334,114.64100529100529,145,114.63492063492063C147.41666666666666,114.62883597883598,149.83333333333334,114.62275132275133,152.25,114.61666666666667C154.66666666666666,114.61058201058202,157.08333333333334,114.60449735449734,159.5,114.59841269841269C161.91666666666666,114.59232804232803,164.33333333333334,114.58624338624338,166.75,114.58015873015873C169.16666666666666,114.57407407407408,171.58333333333334,114.56798941798941,174,114.56190476190476C176.41666666666666,114.5558201058201,178.83333333333334,114.54973544973545,181.25,114.5436507936508C183.66666666666666,114.53756613756615,186.08333333333334,114.53148148148148,188.5,114.52539682539683C190.91666666666666,114.51931216931217,193.33333333333334,114.5132275132275,195.75,114.50714285714285C198.16666666666669,114.5010582010582,200.58333333333334,114.49497354497353,203.00000000000003,114.48888888888888C205.41666666666669,114.48280423280423,207.83333333333331,114.47671957671957,210.24999999999997,114.47063492063492C212.66666666666666,114.46455026455027,215.08333333333331,114.4584656084656,217.5,114.45238095238095C219.91666666666666,114.4462962962963,222.33333333333334,114.44021164021164,224.75,114.43412698412699C227.16666666666666,114.42804232804234,229.58333333333334,114.42195767195766,232,114.415873015873C234.41666666666666,114.40978835978835,236.83333333333334,114.4037037037037,239.25,114.39761904761905C241.66666666666669,114.39153439153439,244.08333333333334,114.38544973544973,246.50000000000003,114.37936507936507C248.91666666666669,114.37328042328042,251.33333333333331,114.36719576719577,253.74999999999997,114.36111111111111C256.16666666666663,114.35502645502646,258.5833333333333,114.3489417989418,261,114.34285714285714C263.4166666666667,114.33677248677249,265.8333333333333,114.33068783068782,268.25,114.32460317460317C270.6666666666667,114.31851851851852,273.0833333333333,114.31243386243386,275.5,114.30634920634921C277.9166666666667,114.30026455026456,280.3333333333333,114.29417989417989,282.75,114.28809523809524C285.1666666666667,114.28201058201059,287.5833333333333,114.27592592592592,290,114.26984126984127C292.4166666666667,114.26375661375661,294.8333333333333,114.25767195767196,297.25,114.2515873015873C299.6666666666667,114.24550264550265,302.0833333333333,114.23941798941799,304.5,114.23333333333333C306.9166666666667,114.22724867724868,309.3333333333333,114.22116402116401,311.75,114.21507936507936C314.1666666666667,114.20899470899471,316.5833333333333,114.20291005291006,319,114.1968253968254C321.4166666666667,114.19074074074075,323.8333333333333,114.18465608465608,326.25,114.17857142857143C328.6666666666667,114.17248677248678,331.0833333333333,114.16640211640212,333.5,114.16031746031747C335.9166666666667,114.15423280423282,338.3333333333333,114.14814814814814,340.75,114.14206349206349C343.1666666666667,114.13597883597883,345.5833333333333,114.12989417989418,348,114.12380952380953C350.4166666666667,114.11772486772487,352.8333333333333,114.1116402116402,355.25,114.10555555555555C357.6666666666667,114.0994708994709,360.0833333333333,114.09338624338625,362.5,114.0873015873016C364.9166666666667,114.08121693121694,367.3333333333333,114.07513227513228,369.75,114.06904761904762C372.1666666666667,114.06296296296297,374.5833333333333,114.0568783068783,377,114.05079365079365C379.4166666666667,114.044708994709,381.8333333333333,114.03862433862433,384.25,114.03253968253968C386.6666666666667,114.02645502645503,389.0833333333333,114.02037037037037,391.5,114.01428571428572C393.9166666666667,114.00820105820107,396.33333333333337,114.0021164021164,398.75000000000006,113.99603174603175C401.16666666666674,113.9899470899471,403.58333333333337,113.98386243386244,406.00000000000006,113.97777777777779C408.4166666666667,113.97169312169314,410.8333333333333,113.96560846560845,413.24999999999994,113.9595238095238C415.66666666666663,113.95343915343915,418.08333333333326,113.9473544973545,420.49999999999994,113.94126984126984C422.91666666666663,113.93518518518519,425.3333333333333,113.92910052910052,427.75,113.92301587301587C430.1666666666667,113.91693121693122,432.5833333333333,113.91084656084657,435,113.90476190476191C437.4166666666667,113.89867724867726,439.8333333333333,113.89259259259258,442.25,113.88650793650793C444.6666666666667,113.88042328042327,447.0833333333333,113.87433862433862,449.5,113.86825396825397C451.9166666666667,113.86216931216931,454.3333333333333,113.85608465608465,456.75,113.85C459.1666666666667,113.84391534391534,461.5833333333333,113.83783068783069,464,113.83174603174604C466.4166666666667,113.82566137566138,468.8333333333333,113.81957671957672,471.25,113.81349206349206C473.6666666666667,113.80740740740741,476.0833333333333,113.80132275132274,478.5,113.79523809523809C480.9166666666667,113.78915343915344,483.33333333333337,113.78306878306877,485.75000000000006,113.77698412698412C488.16666666666674,113.77089947089947,490.58333333333337,113.76481481481481,493.00000000000006,113.75873015873016C495.4166666666667,113.7526455026455,497.8333333333333,113.74656084656084,500.24999999999994,113.74047619047619C502.66666666666663,113.73439153439153,505.08333333333326,113.72830687830688,507.49999999999994,113.72222222222223C509.91666666666663,113.71613756613758,512.3333333333333,113.7100529100529,514.75,113.70396825396824C517.1666666666666,113.69788359788359,519.5833333333334,113.69179894179894,522,113.68571428571428C524.4166666666666,113.67962962962963,526.8333333333334,113.67354497354496,529.25,113.66746031746031C531.6666666666666,113.66137566137566,534.0833333333334,113.655291005291,536.5,113.64920634920635C538.9166666666666,113.6431216931217,541.3333333333334,113.63703703703703,543.75,113.63095238095238C546.1666666666666,113.62486772486773,548.5833333333334,113.61878306878306,551,113.6126984126984C553.4166666666666,113.60661375661375,555.8333333333334,113.6005291005291,558.25,113.59444444444445C560.6666666666666,113.5883597883598,563.0833333333334,113.58227513227513,565.5,113.57619047619048C567.9166666666666,113.57010582010582,570.3333333333334,113.56402116402117,572.75,113.55793650793652C575.1666666666666,113.55185185185186,577.5833333333334,113.5457671957672,580,113.53968253968254C582.4166666666666,113.53359788359789,584.8333333333334,113.52751322751323,587.25,113.52142857142857C589.6666666666666,113.51534391534392,592.0833333333334,113.50925925925925,594.5,113.5031746031746C596.9166666666666,113.49708994708995,599.3333333333334,113.4910052910053,601.75,113.48492063492064C604.1666666666666,113.47883597883599,606.5833333333334,113.47275132275132,609,113.46666666666667C611.4166666666666,113.46058201058202,613.8333333333334,113.45449735449736,616.25,113.44841269841271C618.6666666666666,113.44232804232806,621.0833333333334,113.43624338624338,623.5,113.43015873015872C625.9166666666666,113.42407407407407,628.3333333333334,113.41798941798942,630.75,113.41190476190476C633.1666666666666,113.40582010582011,635.5833333333334,113.39973544973545,638,113.39365079365079C640.4166666666666,113.38756613756614,642.8333333333334,113.38148148148149,645.25,113.37539682539683C647.6666666666666,113.36931216931218,650.0833333333334,113.36322751322751,652.5,113.35714285714286C654.9166666666666,113.35105820105821,657.3333333333334,113.34497354497354,659.75,113.33888888888889C662.1666666666666,113.33280423280424,664.5833333333334,113.32671957671957,667,113.32063492063492C669.4166666666666,113.31455026455026,671.8333333333334,113.30846560846561,674.25,113.30238095238096C676.6666666666666,113.2962962962963,679.0833333333334,113.29021164021164,681.5,113.28412698412698C683.9166666666666,113.27804232804233,686.3333333333334,113.27195767195768,688.75,113.26587301587303C691.1666666666666,113.25978835978837,693.5833333333334,113.25370370370369,696,113.24761904761904C698.4166666666666,113.24153439153439,700.8333333333334,113.23544973544973,703.25,113.22936507936508C705.6666666666666,113.22328042328043,708.0833333333334,113.21719576719576,710.5,113.21111111111111C712.9166666666666,113.20502645502646,715.3333333333334,113.1989417989418,717.75,113.19285714285715C720.1666666666666,113.1867724867725,722.5833333333334,113.18068783068783,725,113.17460317460318C727.4166666666666,113.16851851851852,729.8333333333334,113.16243386243386,732.25,113.1563492063492C734.6666666666666,113.15026455026455,737.0833333333334,113.14417989417989,739.5,113.13809523809523C741.9166666666666,113.13201058201058,744.3333333333334,113.12592592592593,746.75,113.11984126984127C749.1666666666666,113.11375661375662,751.5833333333334,113.10767195767195,754,113.1015873015873C756.4166666666666,113.09550264550265,758.8333333333334,113.08941798941798,761.25,113.08333333333333C763.6666666666666,113.07724867724868,766.0833333333334,113.07116402116401,768.5,113.06507936507936C770.9166666666666,113.0589947089947,773.3333333333334,113.05291005291005,775.75,113.0468253968254C778.1666666666666,113.04074074074074,780.5833333333334,113.03465608465608,783,113.02857142857142C785.4166666666667,113.02248677248677,787.8333333333334,113.01640211640212,790.2500000000001,113.01031746031747C792.6666666666667,113.00423280423281,795.0833333333335,112.99814814814813,797.5000000000001,112.99206349206348C799.9166666666667,112.98597883597883,802.3333333333335,112.97989417989417,804.7500000000001,112.97380952380952C807.1666666666667,112.96772486772487,809.5833333333335,112.9616402116402,812.0000000000001,112.95555555555555C814.4166666666667,112.9494708994709,816.8333333333333,112.94338624338624,819.2499999999999,112.93730158730159C821.6666666666665,112.93121693121694,824.0833333333333,112.92513227513227,826.4999999999999,112.91904761904762C828.9166666666665,112.91296296296296,831.3333333333333,112.9068783068783,833.7499999999999,112.90079365079364C836.1666666666665,112.89470899470899,838.5833333333333,112.88862433862434,840.9999999999999,112.88253968253969C843.4166666666666,112.87645502645503,845.8333333333333,112.87037037037037,848.25,112.86428571428571C850.6666666666666,112.85820105820106,853.0833333333334,112.85211640211641,855.5,112.84603174603176C857.9166666666666,112.8399470899471,860.3333333333334,112.83386243386244,862.75,112.82777777777778C865.1666666666666,112.82169312169313,867.5833333333334,112.81560846560846,870,112.80952380952381C872.4166666666666,112.80343915343916,874.8333333333334,112.79735449735449,877.25,112.79126984126984C879.6666666666666,112.78518518518518,882.0833333333334,112.77910052910053,884.5,112.77301587301588C886.9166666666666,112.76693121693123,889.3333333333334,112.76084656084656,891.75,112.7547619047619C894.1666666666666,112.74867724867725,896.5833333333334,112.7425925925926,899,112.73650793650795C901.4166666666666,112.7304232804233,903.8333333333334,112.72433862433861,906.25,112.71825396825396C908.6666666666666,112.71216931216931,911.0833333333334,112.70608465608466,913.5,112.7C915.9166666666666,112.69391534391535,918.3333333333334,112.68783068783068,920.75,112.68174603174603C923.1666666666666,112.67566137566138,925.5833333333334,112.66957671957672,928,112.66349206349207C930.4166666666666,112.65740740740742,932.8333333333334,112.65132275132275,935.25,112.6452380952381C937.6666666666666,112.63915343915345,940.0833333333334,112.63306878306878,942.5,112.62698412698413C944.9166666666666,112.62089947089947,947.3333333333334,112.6148148148148,949.75,112.60873015873015C952.1666666666666,112.6026455026455,954.5833333333334,112.59656084656085,957,112.5904761904762C959.4166666666666,112.58439153439154,961.8333333333334,112.57830687830688,964.25,112.57222222222222C966.6666666666667,112.56613756613757,969.0833333333334,112.56005291005292,971.5000000000001,112.55396825396826C973.9166666666667,112.54788359788361,976.3333333333335,112.54179894179893,978.7500000000001,112.53571428571428C981.1666666666667,112.52962962962962,983.5833333333335,112.52354497354497,986.0000000000001,112.51746031746032C988.4166666666667,112.51137566137567,990.8333333333335,112.505291005291,993.2500000000001,112.49920634920635C995.6666666666667,112.4931216931217,998.0833333333333,112.48703703703704,1000.4999999999999,112.48095238095239C1002.9166666666665,112.47486772486774,1005.3333333333333,112.46878306878305,1007.7499999999999,112.4626984126984C1010.1666666666665,112.45661375661375,1012.5833333333333,112.45661375661375,1014.9999999999999,112.44444444444444C1017.4166666666665,112.43227513227514,1019.8333333333333,111.37962962962963,1022.2499999999999,110.84722222222223C1024.6666666666665,110.31481481481482,1027.0833333333333,109.78240740740742,1029.5,109.25C1031.9166666666667,108.7175925925926,1034.3333333333333,108.18518518518518,1036.75,107.65277777777777C1039.1666666666667,107.12037037037037,1041.5833333333333,106.58796296296295,1044,106.05555555555554C1046.4166666666667,105.52314814814814,1048.8333333333333,104.99074074074073,1051.25,104.45833333333333C1053.6666666666667,103.92592592592592,1056.0833333333333,103.39351851851852,1058.5,102.86111111111111C1060.9166666666667,102.32870370370371,1063.3333333333333,101.79629629629629,1065.75,101.26388888888889C1068.1666666666667,100.73148148148148,1070.5833333333333,100.19907407407408,1073,99.66666666666667C1075.4166666666667,99.13425925925927,1077.8333333333333,98.60185185185185,1080.25,98.06944444444444C1082.6666666666667,97.53703703703704,1085.0833333333333,97.00462962962963,1087.5,96.47222222222223C1089.9166666666667,95.93981481481482,1092.3333333333333,95.4074074074074,1094.75,94.875C1097.1666666666667,94.3425925925926,1099.5833333333333,93.81018518518518,1102,93.27777777777777C1104.4166666666667,92.74537037037037,1106.8333333333333,92.21296296296296,1109.25,91.68055555555556C1111.6666666666667,91.14814814814815,1114.0833333333333,90.61574074074073,1116.5,90.08333333333333C1118.9166666666667,89.55092592592592,1121.3333333333333,89.0185185185185,1123.75,88.4861111111111C1126.1666666666667,87.9537037037037,1128.5833333333333,87.42129629629629,1131,86.88888888888889C1133.4166666666667,86.35648148148148,1135.8333333333333,85.82407407407408,1138.25,85.29166666666667C1140.6666666666667,84.75925925925927,1143.0833333333333,84.22685185185186,1145.5,83.69444444444446C1147.9166666666667,83.16203703703705,1150.3333333333333,82.62962962962963,1152.75,82.09722222222223C1155.1666666666667,81.56481481481482,1157.5833333333333,81.0324074074074,1160,80.5C1162.4166666666667,79.9675925925926,1164.8333333333333,79.43518518518518,1167.25,78.90277777777777C1169.6666666666667,78.37037037037037,1172.0833333333333,77.83796296296296,1174.5,77.30555555555556C1176.9166666666667,76.77314814814815,1179.3333333333333,76.24074074074073,1181.75,75.70833333333333C1184.1666666666667,75.17592592592592,1186.5833333333333,74.6435185185185,1189,74.1111111111111C1191.4166666666667,73.5787037037037,1193.8333333333333,73.04629629629629,1196.25,72.51388888888889C1198.6666666666667,71.98148148148148,1201.0833333333333,71.44907407407408,1203.5,70.91666666666667C1205.9166666666667,70.38425925925927,1208.3333333333333,69.85185185185186,1210.75,69.31944444444446C1213.1666666666667,68.78703703703705,1215.5833333333333,68.25462962962963,1218,67.72222222222223C1220.4166666666667,67.18981481481482,1222.8333333333333,66.6574074074074,1225.25,66.125C1227.6666666666667,65.5925925925926,1230.0833333333333,65.06018518518518,1232.5,64.52777777777777C1234.9166666666667,63.99537037037037,1237.3333333333333,63.46296296296297,1239.75,62.930555555555564C1242.1666666666667,62.39814814814816,1244.5833333333333,61.86574074074075,1247,61.333333333333336C1249.4166666666667,60.800925925925924,1251.8333333333333,60.268518518518505,1254.25,59.7361111111111C1256.6666666666667,59.203703703703695,1259.0833333333333,58.67129629629629,1261.5,58.138888888888886C1263.9166666666667,57.60648148148148,1266.3333333333333,57.074074074074076,1268.75,56.54166666666667C1271.1666666666667,56.00925925925927,1273.5833333333333,55.47685185185185,1276,54.94444444444444C1278.4166666666667,54.41203703703704,1280.8333333333333,53.87962962962963,1283.25,53.34722222222222C1285.6666666666667,52.81481481481481,1288.0833333333333,52.2824074074074,1290.5,51.74999999999999C1292.9166666666667,51.21759259259259,1295.3333333333333,50.6851851851852,1297.75,50.15277777777779C1300.1666666666667,49.62037037037039,1302.5833333333333,49.087962962962976,1305,48.555555555555564C1307.4166666666667,48.02314814814815,1309.8333333333333,47.49074074074075,1312.25,46.958333333333336C1314.6666666666667,46.425925925925924,1317.0833333333333,45.893518518518505,1319.5,45.3611111111111C1321.9166666666667,44.828703703703695,1324.3333333333333,44.29629629629629,1326.75,43.763888888888886C1329.1666666666667,43.23148148148148,1331.5833333333333,42.699074074074076,1334,42.16666666666667C1336.4166666666667,41.63425925925927,1338.8333333333333,41.10185185185185,1341.25,40.56944444444444C1343.6666666666667,40.03703703703704,1346.0833333333333,39.50462962962963,1348.5,38.97222222222222C1350.9166666666667,38.43981481481481,1353.3333333333333,37.9074074074074,1355.75,37.37499999999999C1358.1666666666667,36.84259259259259,1360.5833333333333,36.31018518518518,1363,35.77777777777778C1365.4166666666667,35.245370370370374,1367.8333333333333,34.71296296296297,1370.25,34.180555555555564C1372.6666666666667,33.64814814814816,1375.0833333333333,33.11574074074075,1377.5,32.583333333333336C1379.9166666666667,32.050925925925924,1382.3333333333333,31.518518518518523,1384.75,30.986111111111114C1387.1666666666667,30.453703703703706,1389.5833333333333,29.921296296296294,1392,29.388888888888886C1394.4166666666667,28.856481481481477,1396.8333333333333,28.32407407407408,1399.25,27.79166666666667C1401.6666666666667,27.259259259259263,1404.0833333333333,26.726851851851848,1406.5,26.19444444444444C1408.9166666666667,25.66203703703703,1411.3333333333333,25.129629629629633,1413.75,24.597222222222225C1416.1666666666667,24.064814814814817,1418.5833333333333,23.532407407407405,1421,22.999999999999996C1423.4166666666667,22.467592592592588,1425.8333333333333,21.935185185185183,1428.25,21.40277777777778C1430.6666666666667,20.870370370370374,1433.0833333333333,20.33796296296297,1435.5,19.80555555555556C1437.9166666666667,19.273148148148152,1440.3333333333333,18.74074074074074,1442.75,18.208333333333332C1445.1666666666667,17.675925925925924,1447.5833333333333,17.14351851851852,1450,16.611111111111114" fill="transparent" stroke-linecap="round" stroke="#B6509E" stroke-width="2"></path><path class="visx-linepath" d="M0,108.6111111110746C2.4166666666666665,108.60502645500516,4.833333333333334,108.59894179893571,7.25,108.59285714285714C9.666666666666666,108.58677248677857,12.083333333333334,108.58068783068784,14.5,108.57460317460318C16.916666666666668,108.56851851851853,19.333333333333332,108.56243386243386,21.75,108.55634920634921C24.166666666666668,108.55026455026456,26.583333333333332,108.54417989417989,29,108.53809523809524C31.416666666666668,108.53201058201059,33.833333333333336,108.52592592592592,36.25,108.51984126984127C38.666666666666664,108.51375661375661,41.083333333333336,108.50767195767196,43.5,108.5015873015873C45.91666666666667,108.49550264550265,48.333333333333336,108.48941798941799,50.75000000000001,108.48333333333333C53.16666666666667,108.47724867724868,55.583333333333336,108.47116402116403,58,108.46507936507938C60.416666666666664,108.45899470899472,62.833333333333336,108.45291005291004,65.25,108.44682539682539C67.66666666666667,108.44074074074074,70.08333333333333,108.43465608465608,72.5,108.42857142857143C74.91666666666667,108.42248677248678,77.33333333333333,108.41640211640211,79.75,108.41031746031746C82.16666666666667,108.4042328042328,84.58333333333333,108.39814814814815,87,108.3920634920635C89.41666666666667,108.38597883597885,91.83333333333333,108.37989417989418,94.25,108.37380952380953C96.66666666666667,108.36772486772487,99.08333333333334,108.3616402116402,101.50000000000001,108.35555555555555C103.91666666666667,108.3494708994709,106.33333333333334,108.34338624338623,108.75,108.33730158730158C111.16666666666667,108.33121693121693,113.58333333333333,108.32513227513228,116,108.31904761904762C118.41666666666667,108.31296296296297,120.83333333333334,108.3068783068783,123.25000000000001,108.30079365079365C125.66666666666667,108.294708994709,128.08333333333334,108.28862433862435,130.5,108.28253968253969C132.91666666666666,108.27645502645504,135.33333333333334,108.27037037037036,137.75,108.2642857142857C140.16666666666666,108.25820105820105,142.58333333333334,108.2521164021164,145,108.24603174603175C147.41666666666666,108.2399470899471,149.83333333333334,108.23386243386243,152.25,108.22777777777777C154.66666666666666,108.22169312169312,157.08333333333334,108.21560846560847,159.5,108.20952380952382C161.91666666666666,108.20343915343916,164.33333333333334,108.1973544973545,166.75,108.19126984126984C169.16666666666666,108.18518518518519,171.58333333333334,108.17910052910052,174,108.17301587301587C176.41666666666666,108.16693121693122,178.83333333333334,108.16084656084655,181.25,108.1547619047619C183.66666666666666,108.14867724867725,186.08333333333334,108.14259259259259,188.5,108.13650793650794C190.91666666666666,108.13042328042329,193.33333333333334,108.12433862433862,195.75,108.11825396825397C198.16666666666669,108.11216931216931,200.58333333333334,108.10608465608465,203.00000000000003,108.1C205.41666666666669,108.09391534391534,207.83333333333331,108.08783068783067,210.24999999999997,108.08174603174602C212.66666666666666,108.07566137566137,215.08333333333331,108.06957671957672,217.5,108.06349206349206C219.91666666666666,108.05740740740741,222.33333333333334,108.05132275132274,224.75,108.04523809523809C227.16666666666666,108.03915343915344,229.58333333333334,108.03306878306879,232,108.02698412698413C234.41666666666666,108.02089947089948,236.83333333333334,108.01481481481481,239.25,108.00873015873016C241.66666666666669,108.0026455026455,244.08333333333334,107.99656084656084,246.50000000000003,107.99047619047619C248.91666666666669,107.98439153439153,251.33333333333331,107.97830687830688,253.74999999999997,107.97222222222223C256.16666666666663,107.96613756613758,258.5833333333333,107.96005291005291,261,107.95396825396826C263.4166666666667,107.9478835978836,265.8333333333333,107.94179894179894,268.25,107.93571428571428C270.6666666666667,107.92962962962963,273.0833333333333,107.92354497354496,275.5,107.91746031746031C277.9166666666667,107.91137566137566,280.3333333333333,107.905291005291,282.75,107.89920634920635C285.1666666666667,107.8931216931217,287.5833333333333,107.88703703703703,290,107.88095238095238C292.4166666666667,107.87486772486773,294.8333333333333,107.86878306878307,297.25,107.86269841269842C299.6666666666667,107.85661375661377,302.0833333333333,107.8505291005291,304.5,107.84444444444445C306.9166666666667,107.8383597883598,309.3333333333333,107.83227513227513,311.75,107.82619047619048C314.1666666666667,107.82010582010582,316.5833333333333,107.81402116402116,319,107.8079365079365C321.4166666666667,107.80185185185185,323.8333333333333,107.7957671957672,326.25,107.78968253968254C328.6666666666667,107.78359788359789,331.0833333333333,107.77751322751323,333.5,107.77142857142857C335.9166666666667,107.76534391534392,338.3333333333333,107.75925925925927,340.75,107.75317460317461C343.1666666666667,107.74708994708996,345.5833333333333,107.74100529100528,348,107.73492063492063C350.4166666666667,107.72883597883597,352.8333333333333,107.72275132275132,355.25,107.71666666666667C357.6666666666667,107.71058201058202,360.0833333333333,107.70449735449735,362.5,107.6984126984127C364.9166666666667,107.69232804232804,367.3333333333333,107.68624338624339,369.75,107.68015873015874C372.1666666666667,107.67407407407408,374.5833333333333,107.66798941798942,377,107.66190476190476C379.4166666666667,107.65582010582011,381.8333333333333,107.64973544973545,384.25,107.64365079365079C386.6666666666667,107.63756613756614,389.0833333333333,107.63148148148147,391.5,107.62539682539682C393.9166666666667,107.61931216931217,396.33333333333337,107.61322751322751,398.75000000000006,107.60714285714286C401.16666666666674,107.60105820105821,403.58333333333337,107.59497354497354,406.00000000000006,107.58888888888889C408.4166666666667,107.58280423280424,410.8333333333333,107.57671957671958,413.24999999999994,107.57063492063493C415.66666666666663,107.56455026455028,418.08333333333326,107.5584656084656,420.49999999999994,107.55238095238094C422.91666666666663,107.54629629629629,425.3333333333333,107.54021164021164,427.75,107.53412698412698C430.1666666666667,107.52804232804233,432.5833333333333,107.52195767195767,435,107.51587301587301C437.4166666666667,107.50978835978836,439.8333333333333,107.5037037037037,442.25,107.49761904761905C444.6666666666667,107.4915343915344,447.0833333333333,107.48544973544973,449.5,107.47936507936508C451.9166666666667,107.47328042328043,454.3333333333333,107.46719576719576,456.75,107.46111111111111C459.1666666666667,107.45502645502646,461.5833333333333,107.44894179894179,464,107.44285714285714C466.4166666666667,107.43677248677248,468.8333333333333,107.43068783068783,471.25,107.42460317460318C473.6666666666667,107.41851851851852,476.0833333333333,107.41243386243386,478.5,107.4063492063492C480.9166666666667,107.40026455026455,483.33333333333337,107.3941798941799,485.75000000000006,107.38809523809525C488.16666666666674,107.3820105820106,490.58333333333337,107.37592592592591,493.00000000000006,107.36984126984126C495.4166666666667,107.3637566137566,497.8333333333333,107.35767195767195,500.24999999999994,107.3515873015873C502.66666666666663,107.34550264550265,505.08333333333326,107.33941798941798,507.49999999999994,107.33333333333333C509.91666666666663,107.32724867724868,512.3333333333333,107.32116402116402,514.75,107.31507936507937C517.1666666666666,107.30899470899472,519.5833333333334,107.30291005291005,522,107.2968253968254C524.4166666666666,107.29074074074074,526.8333333333334,107.28465608465608,529.25,107.27857142857142C531.6666666666666,107.27248677248677,534.0833333333334,107.26640211640212,536.5,107.26031746031747C538.9166666666666,107.25423280423281,541.3333333333334,107.24814814814815,543.75,107.2420634920635C546.1666666666666,107.23597883597884,548.5833333333334,107.22989417989419,551,107.22380952380954C553.4166666666666,107.21772486772488,555.8333333333334,107.21164021164022,558.25,107.20555555555556C560.6666666666666,107.19947089947091,563.0833333333334,107.19338624338624,565.5,107.18730158730159C567.9166666666666,107.18121693121694,570.3333333333334,107.17513227513227,572.75,107.16904761904762C575.1666666666666,107.16296296296296,577.5833333333334,107.15687830687831,580,107.15079365079366C582.4166666666666,107.144708994709,584.8333333333334,107.13862433862434,587.25,107.13253968253969C589.6666666666666,107.12645502645503,592.0833333333334,107.12037037037037,594.5,107.11428571428571C596.9166666666666,107.10820105820106,599.3333333333334,107.1021164021164,601.75,107.09603174603174C604.1666666666666,107.08994708994709,606.5833333333334,107.08386243386244,609,107.07777777777778C611.4166666666666,107.07169312169313,613.8333333333334,107.06560846560846,616.25,107.05952380952381C618.6666666666666,107.05343915343916,621.0833333333334,107.0473544973545,623.5,107.04126984126985C625.9166666666666,107.0351851851852,628.3333333333334,107.02910052910052,630.75,107.02301587301586C633.1666666666666,107.01693121693121,635.5833333333334,107.01084656084656,638,107.0047619047619C640.4166666666666,106.99867724867725,642.8333333333334,106.99259259259259,645.25,106.98650793650793C647.6666666666666,106.98042328042328,650.0833333333334,106.97433862433863,652.5,106.96825396825398C654.9166666666666,106.96216931216932,657.3333333333334,106.95608465608466,659.75,106.95C662.1666666666666,106.94391534391535,664.5833333333334,106.93783068783068,667,106.93174603174603C669.4166666666666,106.92566137566138,671.8333333333334,106.91957671957671,674.25,106.91349206349206C676.6666666666666,106.9074074074074,679.0833333333334,106.90132275132275,681.5,106.8952380952381C683.9166666666666,106.88915343915345,686.3333333333334,106.88306878306878,688.75,106.87698412698413C691.1666666666666,106.87089947089947,693.5833333333334,106.86481481481482,696,106.85873015873017C698.4166666666666,106.85264550264552,700.8333333333334,106.84656084656083,703.25,106.84047619047618C705.6666666666666,106.83439153439153,708.0833333333334,106.82830687830688,710.5,106.82222222222222C712.9166666666666,106.81613756613757,715.3333333333334,106.8100529100529,717.75,106.80396825396825C720.1666666666666,106.7978835978836,722.5833333333334,106.79179894179894,725,106.78571428571429C727.4166666666666,106.77962962962964,729.8333333333334,106.77354497354496,732.25,106.7674603174603C734.6666666666666,106.76137566137565,737.0833333333334,106.755291005291,739.5,106.74920634920635C741.9166666666666,106.7431216931217,744.3333333333334,106.73703703703703,746.75,106.73095238095237C749.1666666666666,106.72486772486772,751.5833333333334,106.71878306878307,754,106.71269841269842C756.4166666666666,106.70661375661376,758.8333333333334,106.7005291005291,761.25,106.69444444444444C763.6666666666666,106.68835978835979,766.0833333333334,106.68227513227512,768.5,106.67619047619047C770.9166666666666,106.67010582010582,773.3333333333334,106.66402116402115,775.75,106.6579365079365C778.1666666666666,106.65185185185184,780.5833333333334,106.64576719576719,783,106.63968253968254C785.4166666666667,106.63359788359789,787.8333333333334,106.62751322751322,790.2500000000001,106.62142857142857C792.6666666666667,106.61534391534391,795.0833333333335,106.60925925925926,797.5000000000001,106.60317460317461C799.9166666666667,106.59708994708996,802.3333333333335,106.59100529100529,804.7500000000001,106.58492063492064C807.1666666666667,106.57883597883598,809.5833333333335,106.57275132275132,812.0000000000001,106.56666666666666C814.4166666666667,106.56058201058201,816.8333333333333,106.55449735449736,819.2499999999999,106.5484126984127C821.6666666666665,106.54232804232805,824.0833333333333,106.53624338624338,826.4999999999999,106.53015873015873C828.9166666666665,106.52407407407408,831.3333333333333,106.51798941798943,833.7499999999999,106.51190476190477C836.1666666666665,106.50582010582012,838.5833333333333,106.49973544973544,840.9999999999999,106.49365079365079C843.4166666666666,106.48756613756613,845.8333333333333,106.48148148148148,848.25,106.47539682539683C850.6666666666666,106.46931216931218,853.0833333333334,106.46322751322751,855.5,106.45714285714286C857.9166666666666,106.4510582010582,860.3333333333334,106.44497354497355,862.75,106.4388888888889C865.1666666666666,106.43280423280424,867.5833333333334,106.42671957671958,870,106.42063492063492C872.4166666666666,106.41455026455027,874.8333333333334,106.4084656084656,877.25,106.40238095238095C879.6666666666666,106.3962962962963,882.0833333333334,106.39021164021163,884.5,106.38412698412698C886.9166666666666,106.37804232804233,889.3333333333334,106.37195767195767,891.75,106.36587301587302C894.1666666666666,106.35978835978837,896.5833333333334,106.3537037037037,899,106.34761904761905C901.4166666666666,106.3415343915344,903.8333333333334,106.33544973544974,906.25,106.32936507936509C908.6666666666666,106.32328042328044,911.0833333333334,106.31719576719576,913.5,106.3111111111111C915.9166666666666,106.30502645502645,918.3333333333334,106.2989417989418,920.75,106.29285714285714C923.1666666666666,106.28677248677249,925.5833333333334,106.28068783068782,928,106.27460317460317C930.4166666666666,106.26851851851852,932.8333333333334,106.26243386243387,935.25,106.25634920634921C937.6666666666666,106.25026455026456,940.0833333333334,106.2441798941799,942.5,106.23809523809524C944.9166666666666,106.23201058201059,947.3333333333334,106.22592592592592,949.75,106.21984126984127C952.1666666666666,106.21375661375662,954.5833333333334,106.20767195767195,957,106.2015873015873C959.4166666666666,106.19550264550264,961.8333333333334,106.18941798941799,964.25,106.18333333333334C966.6666666666667,106.17724867724868,969.0833333333334,106.17116402116402,971.5000000000001,106.16507936507936C973.9166666666667,106.15899470899471,976.3333333333335,106.15291005291006,978.7500000000001,106.1468253968254C981.1666666666667,106.14074074074075,983.5833333333335,106.13465608465607,986.0000000000001,106.12857142857142C988.4166666666667,106.12248677248677,990.8333333333335,106.11640211640211,993.2500000000001,106.11031746031746C995.6666666666667,106.10423280423281,998.0833333333333,106.09814814814814,1000.4999999999999,106.09206349206349C1002.9166666666665,106.08597883597884,1005.3333333333333,106.07989417989418,1007.7499999999999,106.07380952380953C1010.1666666666665,106.06772486772488,1012.5833333333333,106.06772486772486,1014.9999999999999,106.05555555555554C1017.4166666666665,106.04338624338622,1019.8333333333333,105.34567901234568,1022.2499999999999,104.99074074074075C1024.6666666666665,104.63580246913581,1027.0833333333333,104.28086419753086,1029.5,103.92592592592592C1031.9166666666667,103.57098765432099,1034.3333333333333,103.21604938271605,1036.75,102.86111111111111C1039.1666666666667,102.50617283950618,1041.5833333333333,102.15123456790123,1044,101.79629629629629C1046.4166666666667,101.44135802469135,1048.8333333333333,101.08641975308642,1051.25,100.73148148148148C1053.6666666666667,100.37654320987654,1056.0833333333333,100.02160493827161,1058.5,99.66666666666667C1060.9166666666667,99.31172839506173,1063.3333333333333,98.95679012345678,1065.75,98.60185185185185C1068.1666666666667,98.24691358024691,1070.5833333333333,97.89197530864197,1073,97.53703703703704C1075.4166666666667,97.1820987654321,1077.8333333333333,96.82716049382717,1080.25,96.47222222222223C1082.6666666666667,96.11728395061729,1085.0833333333333,95.76234567901234,1087.5,95.4074074074074C1089.9166666666667,95.05246913580247,1092.3333333333333,94.69753086419753,1094.75,94.3425925925926C1097.1666666666667,93.98765432098766,1099.5833333333333,93.63271604938271,1102,93.27777777777777C1104.4166666666667,92.92283950617283,1106.8333333333333,92.5679012345679,1109.25,92.21296296296296C1111.6666666666667,91.85802469135803,1114.0833333333333,91.50308641975307,1116.5,91.14814814814814C1118.9166666666667,90.7932098765432,1121.3333333333333,90.43827160493827,1123.75,90.08333333333333C1126.1666666666667,89.72839506172839,1128.5833333333333,89.37345679012346,1131,89.01851851851852C1133.4166666666667,88.66358024691358,1135.8333333333333,88.30864197530865,1138.25,87.95370370370371C1140.6666666666667,87.59876543209877,1143.0833333333333,87.24382716049382,1145.5,86.88888888888889C1147.9166666666667,86.53395061728395,1150.3333333333333,86.179012345679,1152.75,85.82407407407406C1155.1666666666667,85.46913580246913,1157.5833333333333,85.1141975308642,1160,84.75925925925927C1162.4166666666667,84.40432098765433,1164.8333333333333,84.0493827160494,1167.25,83.69444444444446C1169.6666666666667,83.33950617283952,1172.0833333333333,82.98456790123457,1174.5,82.62962962962963C1176.9166666666667,82.2746913580247,1179.3333333333333,81.91975308641975,1181.75,81.56481481481481C1184.1666666666667,81.20987654320987,1186.5833333333333,80.85493827160494,1189,80.5C1191.4166666666667,80.14506172839506,1193.8333333333333,79.79012345679013,1196.25,79.43518518518519C1198.6666666666667,79.08024691358025,1201.0833333333333,78.7253086419753,1203.5,78.37037037037037C1205.9166666666667,78.01543209876543,1208.3333333333333,77.6604938271605,1210.75,77.30555555555556C1213.1666666666667,76.95061728395062,1215.5833333333333,76.59567901234568,1218,76.24074074074075C1220.4166666666667,75.88580246913581,1222.8333333333333,75.53086419753086,1225.25,75.17592592592592C1227.6666666666667,74.82098765432099,1230.0833333333333,74.46604938271604,1232.5,74.1111111111111C1234.9166666666667,73.75617283950616,1237.3333333333333,73.40123456790124,1239.75,73.0462962962963C1242.1666666666667,72.69135802469137,1244.5833333333333,72.33641975308643,1247,71.9814814814815C1249.4166666666667,71.62654320987656,1251.8333333333333,71.27160493827161,1254.25,70.91666666666667C1256.6666666666667,70.56172839506173,1259.0833333333333,70.20679012345678,1261.5,69.85185185185185C1263.9166666666667,69.49691358024691,1266.3333333333333,69.14197530864197,1268.75,68.78703703703704C1271.1666666666667,68.4320987654321,1273.5833333333333,68.07716049382717,1276,67.72222222222223C1278.4166666666667,67.36728395061729,1280.8333333333333,67.01234567901234,1283.25,66.6574074074074C1285.6666666666667,66.30246913580247,1288.0833333333333,65.94753086419753,1290.5,65.5925925925926C1292.9166666666667,65.23765432098766,1295.3333333333333,64.88271604938271,1297.75,64.52777777777777C1300.1666666666667,64.17283950617283,1302.5833333333333,63.817901234567906,1305,63.46296296296297C1307.4166666666667,63.10802469135803,1309.8333333333333,62.753086419753075,1312.25,62.39814814814814C1314.6666666666667,62.0432098765432,1317.0833333333333,61.68827160493827,1319.5,61.333333333333336C1321.9166666666667,60.9783950617284,1324.3333333333333,60.62345679012345,1326.75,60.26851851851851C1329.1666666666667,59.913580246913575,1331.5833333333333,59.558641975308646,1334,59.20370370370371C1336.4166666666667,58.84876543209877,1338.8333333333333,58.49382716049382,1341.25,58.138888888888886C1343.6666666666667,57.78395061728395,1346.0833333333333,57.42901234567902,1348.5,57.07407407407408C1350.9166666666667,56.71913580246915,1353.3333333333333,56.3641975308642,1355.75,56.00925925925926C1358.1666666666667,55.654320987654316,1360.5833333333333,55.29938271604938,1363,54.94444444444444C1365.4166666666667,54.589506172839506,1367.8333333333333,54.234567901234556,1370.25,53.87962962962962C1372.6666666666667,53.52469135802468,1375.0833333333333,53.16975308641975,1377.5,52.81481481481482C1379.9166666666667,52.45987654320988,1382.3333333333333,52.10493827160493,1384.75,51.74999999999999C1387.1666666666667,51.395061728395056,1389.5833333333333,51.04012345679013,1392,50.68518518518519C1394.4166666666667,50.330246913580254,1396.8333333333333,49.9753086419753,1399.25,49.62037037037037C1401.6666666666667,49.26543209876543,1404.0833333333333,48.9104938271605,1406.5,48.555555555555564C1408.9166666666667,48.20061728395063,1411.3333333333333,47.845679012345684,1413.75,47.49074074074074C1416.1666666666667,47.1358024691358,1418.5833333333333,46.78086419753086,1421,46.425925925925924C1423.4166666666667,46.07098765432099,1425.8333333333333,45.71604938271604,1428.25,45.3611111111111C1430.6666666666667,45.00617283950616,1433.0833333333333,44.651234567901234,1435.5,44.2962962962963C1437.9166666666667,43.94135802469136,1440.3333333333333,43.586419753086425,1442.75,43.23148148148149C1445.1666666666667,42.87654320987655,1447.5833333333333,42.52160493827161,1450,42.16666666666667" fill="transparent" stroke-linecap="round" stroke="#E7C6DF" stroke-width="2"></path><g class="visx-group visx-axis visx-axis-bottom" transform="translate(0, 115)"><g class="visx-group visx-axis-tick" transform="translate(0, 0)"><line class="visx-line" x1="0" y1="0" x2="0" y2="8" fill="transparent" shape-rendering="crispEdges" stroke="#000" stroke-width="0" stroke-linecap="square"></line><svg x="0" y="0" font-size="10" style="overflow:visible"><text transform="" x="0" y="18" fill="#000" font-size="10" text-anchor="middle"><tspan x="0" dy="0em">0%</tspan></text></svg></g><g class="visx-group visx-axis-tick" transform="translate(0, 0)"><line class="visx-line" x1="362.5" y1="0" x2="362.5" y2="8" fill="transparent" shape-rendering="crispEdges" stroke="#000" stroke-width="0" stroke-linecap="square"></line><svg x="0" y="0" font-size="10" style="overflow:visible"><text transform="" x="362.5" y="18" fill="#000" font-size="10" text-anchor="middle"><tspan x="362.5" dy="0em">25%</tspan></text></svg></g><g class="visx-group visx-axis-tick" transform="translate(0, 0)"><line class="visx-line" x1="725" y1="0" x2="725" y2="8" fill="transparent" shape-rendering="crispEdges" stroke="#000" stroke-width="0" stroke-linecap="square"></line><svg x="0" y="0" font-size="10" style="overflow:visible"><text transform="" x="725" y="18" fill="#000" font-size="10" text-anchor="middle"><tspan x="725" dy="0em">50%</tspan></text></svg></g><g class="visx-group visx-axis-tick" transform="translate(0, 0)"><line class="visx-line" x1="1087.5" y1="0" x2="1087.5" y2="8" fill="transparent" shape-rendering="crispEdges" stroke="#000" stroke-width="0" stroke-linecap="square"></line><svg x="0" y="0" font-size="10" style="overflow:visible"><text transform="" x="1087.5" y="18" fill="#000" font-size="10" text-anchor="middle"><tspan x="1087.5" dy="0em">75%</tspan></text></svg></g><g class="visx-group visx-axis-tick" transform="translate(0, 0)"><line class="visx-line" x1="1450" y1="0" x2="1450" y2="8" fill="transparent" shape-rendering="crispEdges" stroke="#000" stroke-width="0" stroke-linecap="square"></line><svg x="0" y="0" font-size="10" style="overflow:visible"><text transform="" x="1450" y="18" fill="#000" font-size="10" text-anchor="middle"><tspan x="1450" dy="0em">100%</tspan></text></svg></g><line class="visx-line visx-axis-line" x1="0.5" y1="0" x2="1450.5" y2="0" fill="transparent" shape-rendering="crispEdges" stroke="#222" stroke-width="0"></line></g><g class="visx-group visx-axis visx-axis-left" transform="translate(0, 0)"><g class="visx-group visx-axis-tick" transform="translate(0, 0)"><line class="visx-line" x1="0" y1="115" x2="-8" y2="115" fill="transparent" shape-rendering="crispEdges" stroke="#222" stroke-width="0" stroke-linecap="square"></line><svg x="-30" y="0" font-size="8" style="overflow:visible"><text transform="" x="-8" y="115" fill="#000" font-size="8" text-anchor="start"><tspan x="-8" dy="0em">0%</tspan></text></svg></g><g class="visx-group visx-axis-tick" transform="translate(0, 0)"><line class="visx-line" x1="0" y1="51.11111111111111" x2="-8" y2="51.11111111111111" fill="transparent" shape-rendering="crispEdges" stroke="#222" stroke-width="0" stroke-linecap="square"></line><svg x="-30" y="0" font-size="8" style="overflow:visible"><text transform="" x="-8" y="51.11111111111111" fill="#000" font-size="8" text-anchor="start"><tspan x="-8" dy="0em">100%</tspan></text></svg></g><line class="visx-line visx-axis-line" x1="0" y1="115.5" x2="0" y2="0.5" fill="transparent" shape-rendering="crispEdges" stroke="#222" stroke-width="0"></line></g><rect class="visx-bar" width="1450" height="115" fill="transparent"></rect><line class="visx-line" x1="1014.9999999999999" y1="28" x2="1014.9999999999999" y2="115" fill="transparent" shape-rendering="crispEdges" stroke="#0062D2" stroke-width="1" pointer-events="none" stroke-dasharray="5,2"></line><svg x="0" y="0" font-size="10px" style="overflow:visible"><text transform="" x="1014.9999999999999" y="20" font-size="10px" fill="#fff" stroke="#fff" stroke-width="0.8em" text-anchor="middle"><tspan x="1014.9999999999999" dy="0.355em">Optimal 70%</tspan></text></svg><svg x="0" y="0" font-size="10px" style="overflow:visible"><text transform="" x="1014.9999999999999" y="20" font-size="10px" fill="#62677B" text-anchor="middle"><tspan x="1014.9999999999999" dy="0.355em">Optimal 70%</tspan></text></svg></g></svg>