<?xml version="1.0"?><svg xmlns="http://www.w3.org/2000/svg" xmlns:xlink= "http://www.w3.org/1999/xlink" style="background: white;" width="1500" height="185"> <g style="color: black; font-size: 13px; font-family: sans-serif; transform: translate(18px, 25px);"><g><circle r="3" cx="-6" cy="-5" style="fill: #B6509E" /><text>Borrow APR, variable</text></g><g style="transform: translateX(150px);"><circle r="3" cx="-6" cy="-5" style="fill: rgb(231, 198, 223)" /><text>Borrow APR, stable</text></g><g style="transform: translateX(290px);"><circle r="3" cx="-6" cy="-5" style="fill: rgb(0, 98, 210)" /><text>Utilization Rate</text></g></g><g class="visx-group" transform="translate(40, 50)"><g class="visx-group visx-rows" transform="translate(0, 0)"><line class="visx-line" x1="0" y1="115" x2="1450" y2="115" fill="transparent" shape-rendering="crispEdges" stroke="#000" stroke-width="1" stroke-dasharray="3,3" pointer-events="none"></line><line class="visx-line" x1="0" y1="86.25" x2="1450" y2="86.25" fill="transparent" shape-rendering="crispEdges" stroke="#000" stroke-width="1" stroke-dasharray="3,3" pointer-events="none"></line><line class="visx-line" x1="0" y1="57.5" x2="1450" y2="57.5" fill="transparent" shape-rendering="crispEdges" stroke="#000" stroke-width="1" stroke-dasharray="3,3" pointer-events="none"></line><line class="visx-line" x1="0" y1="28.75" x2="1450" y2="28.75" fill="transparent" shape-rendering="crispEdges" stroke="#000" stroke-width="1" stroke-dasharray="3,3" pointer-events="none"></line><line class="visx-line" x1="0" y1="0" x2="1450" y2="0" fill="transparent" shape-rendering="crispEdges" stroke="#000" stroke-width="1" stroke-dasharray="3,3" pointer-events="none"></line></g><path class="visx-linepath" d="M0,114.99999999998231C2.4166666666666665,114.99705128204097,4.833333333333334,114.99410256409962,7.25,114.99115384615385C9.666666666666666,114.98820512820808,12.083333333333334,114.9852564102564,14.5,114.98230769230769C16.916666666666668,114.97935897435897,19.333333333333332,114.97641025641025,21.75,114.97346153846154C24.166666666666668,114.97051282051282,26.583333333333332,114.9675641025641,29,114.96461538461539C31.416666666666668,114.96166666666667,33.833333333333336,114.95871794871793,36.25,114.95576923076922C38.666666666666664,114.95282051282051,41.083333333333336,114.94987179487178,43.5,114.94692307692307C45.91666666666667,114.94397435897436,48.333333333333336,114.94102564102565,50.75000000000001,114.93807692307693C53.16666666666667,114.93512820512822,55.583333333333336,114.93217948717948,58,114.92923076923077C60.416666666666664,114.92628205128204,62.833333333333336,114.92333333333333,65.25,114.92038461538462C67.66666666666667,114.91743589743591,70.08333333333333,114.91448717948718,72.5,114.91153846153847C74.91666666666667,114.90858974358976,77.33333333333333,114.90564102564102,79.75,114.9026923076923C82.16666666666667,114.8997435897436,84.58333333333333,114.89679487179487,87,114.89384615384616C89.41666666666667,114.89089743589744,91.83333333333333,114.88794871794872,94.25,114.885C96.66666666666667,114.88205128205128,99.08333333333334,114.87910256410257,101.50000000000001,114.87615384615384C103.91666666666667,114.87320512820513,106.33333333333334,114.8702564102564,108.75,114.86730769230769C111.16666666666667,114.86435897435898,113.58333333333333,114.86141025641025,116,114.85846153846154C118.41666666666667,114.85551282051281,120.83333333333334,114.8525641025641,123.25000000000001,114.84961538461538C125.66666666666667,114.84666666666666,128.08333333333334,114.84371794871794,130.5,114.84076923076923C132.91666666666666,114.83782051282051,135.33333333333334,114.83487179487179,137.75,114.83192307692308C140.16666666666666,114.82897435897436,142.58333333333334,114.82602564102564,145,114.82307692307693C147.41666666666666,114.82012820512821,149.83333333333334,114.81717948717949,152.25,114.81423076923078C154.66666666666666,114.81128205128206,157.08333333333334,114.80833333333334,159.5,114.80538461538463C161.91666666666666,114.80243589743591,164.33333333333334,114.79948717948717,166.75,114.79653846153846C169.16666666666666,114.79358974358975,171.58333333333334,114.79064102564102,174,114.78769230769231C176.41666666666666,114.7847435897436,178.83333333333334,114.78179487179487,181.25,114.77884615384616C183.66666666666666,114.77589743589745,186.08333333333334,114.77294871794871,188.5,114.77C190.91666666666666,114.76705128205128,193.33333333333334,114.76410256410256,195.75,114.76115384615385C198.16666666666669,114.75820512820513,200.58333333333334,114.75525641025642,203.00000000000003,114.7523076923077C205.41666666666669,114.74935897435898,207.83333333333331,114.74641025641024,210.24999999999997,114.74346153846153C212.66666666666666,114.7405128205128,215.08333333333331,114.7375641025641,217.5,114.73461538461538C219.91666666666666,114.73166666666667,222.33333333333334,114.72871794871794,224.75,114.72576923076923C227.16666666666666,114.72282051282052,229.58333333333334,114.71987179487178,232,114.71692307692307C234.41666666666666,114.71397435897435,236.83333333333334,114.71102564102564,239.25,114.70807692307693C241.66666666666669,114.70512820512822,244.08333333333334,114.7021794871795,246.50000000000003,114.69923076923078C248.91666666666669,114.69628205128207,251.33333333333331,114.69333333333333,253.74999999999997,114.69038461538462C256.16666666666663,114.68743589743589,258.5833333333333,114.68448717948718,261,114.68153846153847C263.4166666666667,114.67858974358975,265.8333333333333,114.67564102564103,268.25,114.67269230769232C270.6666666666667,114.6697435897436,273.0833333333333,114.66679487179486,275.5,114.66384615384615C277.9166666666667,114.66089743589744,280.3333333333333,114.65794871794871,282.75,114.655C285.1666666666667,114.65205128205129,287.5833333333333,114.64910256410256,290,114.64615384615385C292.4166666666667,114.64320512820514,294.8333333333333,114.6402564102564,297.25,114.63730769230769C299.6666666666667,114.63435897435897,302.0833333333333,114.63141025641025,304.5,114.62846153846154C306.9166666666667,114.62551282051282,309.3333333333333,114.6225641025641,311.75,114.61961538461539C314.1666666666667,114.61666666666667,316.5833333333333,114.61371794871793,319,114.61076923076922C321.4166666666667,114.60782051282051,323.8333333333333,114.60487179487178,326.25,114.60192307692307C328.6666666666667,114.59897435897436,331.0833333333333,114.59602564102563,333.5,114.59307692307692C335.9166666666667,114.59012820512821,338.3333333333333,114.58717948717948,340.75,114.58423076923077C343.1666666666667,114.58128205128206,345.5833333333333,114.57833333333333,348,114.57538461538462C350.4166666666667,114.57243589743591,352.8333333333333,114.56948717948718,355.25,114.56653846153847C357.6666666666667,114.56358974358976,360.0833333333333,114.56064102564102,362.5,114.5576923076923C364.9166666666667,114.5547435897436,367.3333333333333,114.55179487179487,369.75,114.54884615384616C372.1666666666667,114.54589743589744,374.5833333333333,114.54294871794872,377,114.54C379.4166666666667,114.5370512820513,381.8333333333333,114.53410256410255,384.25,114.53115384615384C386.6666666666667,114.52820512820513,389.0833333333333,114.5252564102564,391.5,114.52230769230769C393.9166666666667,114.51935897435898,396.33333333333337,114.51641025641027,398.75000000000006,114.51346153846154C401.16666666666674,114.51051282051283,403.58333333333337,114.5075641025641,406.00000000000006,114.50461538461538C408.4166666666667,114.50166666666667,410.8333333333333,114.49871794871794,413.24999999999994,114.49576923076923C415.66666666666663,114.49282051282051,418.08333333333326,114.48987179487179,420.49999999999994,114.48692307692308C422.91666666666663,114.48397435897436,425.3333333333333,114.48102564102564,427.75,114.47807692307693C430.1666666666667,114.47512820512821,432.5833333333333,114.47217948717949,435,114.46923076923078C437.4166666666667,114.46628205128206,439.8333333333333,114.46333333333332,442.25,114.46038461538461C444.6666666666667,114.4574358974359,447.0833333333333,114.45448717948717,449.5,114.45153846153846C451.9166666666667,114.44858974358975,454.3333333333333,114.44564102564102,456.75,114.44269230769231C459.1666666666667,114.4397435897436,461.5833333333333,114.43679487179486,464,114.43384615384615C466.4166666666667,114.43089743589744,468.8333333333333,114.42794871794871,471.25,114.425C473.6666666666667,114.42205128205129,476.0833333333333,114.41910256410256,478.5,114.41615384615385C480.9166666666667,114.41320512820513,483.33333333333337,114.41025641025642,485.75000000000006,114.4073076923077C488.16666666666674,114.40435897435898,490.58333333333337,114.40141025641026,493.00000000000006,114.39846153846153C495.4166666666667,114.39551282051282,497.8333333333333,114.3925641025641,500.24999999999994,114.38961538461538C502.66666666666663,114.38666666666667,505.08333333333326,114.38371794871794,507.49999999999994,114.38076923076923C509.91666666666663,114.37782051282052,512.3333333333333,114.3748717948718,514.75,114.37192307692308C517.1666666666666,114.36897435897437,519.5833333333334,114.36602564102564,522,114.36307692307693C524.4166666666666,114.36012820512822,526.8333333333334,114.35717948717948,529.25,114.35423076923077C531.6666666666666,114.35128205128206,534.0833333333334,114.34833333333333,536.5,114.34538461538462C538.9166666666666,114.3424358974359,541.3333333333334,114.33948717948718,543.75,114.33653846153847C546.1666666666666,114.33358974358976,548.5833333333334,114.33064102564101,551,114.3276923076923C553.4166666666666,114.32474358974359,555.8333333333334,114.32179487179486,558.25,114.31884615384615C560.6666666666666,114.31589743589744,563.0833333333334,114.31294871794871,565.5,114.31C567.9166666666666,114.30705128205129,570.3333333333334,114.30410256410255,572.75,114.30115384615384C575.1666666666666,114.29820512820513,577.5833333333334,114.2952564102564,580,114.29230769230769C582.4166666666666,114.28935897435898,584.8333333333334,114.28641025641025,587.25,114.28346153846154C589.6666666666666,114.28051282051283,592.0833333333334,114.27756410256409,594.5,114.27461538461537C596.9166666666666,114.27166666666666,599.3333333333334,114.26871794871793,601.75,114.26576923076922C604.1666666666666,114.26282051282051,606.5833333333334,114.2598717948718,609,114.25692307692309C611.4166666666666,114.25397435897438,613.8333333333334,114.25102564102563,616.25,114.24807692307692C618.6666666666666,114.24512820512821,621.0833333333334,114.24217948717948,623.5,114.23923076923077C625.9166666666666,114.23628205128206,628.3333333333334,114.23333333333333,630.75,114.23038461538462C633.1666666666666,114.22743589743591,635.5833333333334,114.22448717948717,638,114.22153846153846C640.4166666666666,114.21858974358975,642.8333333333334,114.21564102564102,645.25,114.21269230769231C647.6666666666666,114.2097435897436,650.0833333333334,114.20679487179487,652.5,114.20384615384616C654.9166666666666,114.20089743589745,657.3333333333334,114.1979487179487,659.75,114.195C662.1666666666666,114.19205128205128,664.5833333333334,114.18910256410255,667,114.18615384615384C669.4166666666666,114.18320512820513,671.8333333333334,114.1802564102564,674.25,114.17730769230769C676.6666666666666,114.17435897435898,679.0833333333334,114.17141025641024,681.5,114.16846153846153C683.9166666666666,114.16551282051282,686.3333333333334,114.16256410256409,688.75,114.15961538461538C691.1666666666666,114.15666666666667,693.5833333333334,114.15371794871794,696,114.15076923076923C698.4166666666666,114.14782051282052,700.8333333333334,114.14487179487179,703.25,114.14192307692308C705.6666666666666,114.13897435897437,708.0833333333334,114.13602564102564,710.5,114.13307692307693C712.9166666666666,114.13012820512822,715.3333333333334,114.12717948717949,717.75,114.12423076923078C720.1666666666666,114.12128205128207,722.5833333333334,114.11833333333333,725,114.11538461538461C727.4166666666666,114.1124358974359,729.8333333333334,114.10948717948718,732.25,114.10653846153846C734.6666666666666,114.10358974358975,737.0833333333334,114.10064102564102,739.5,114.09769230769231C741.9166666666666,114.0947435897436,744.3333333333334,114.09179487179486,746.75,114.08884615384615C749.1666666666666,114.08589743589744,751.5833333333334,114.08294871794871,754,114.08C756.4166666666666,114.07705128205129,758.8333333333334,114.07410256410256,761.25,114.07115384615385C763.6666666666666,114.06820512820514,766.0833333333334,114.0652564102564,768.5,114.06230769230768C770.9166666666666,114.05935897435897,773.3333333333334,114.05641025641025,775.75,114.05346153846153C778.1666666666666,114.05051282051282,780.5833333333334,114.0475641025641,783,114.04461538461538C785.4166666666667,114.04166666666666,787.8333333333334,114.03871794871793,790.2500000000001,114.03576923076922C792.6666666666667,114.0328205128205,795.0833333333335,114.0298717948718,797.5000000000001,114.02692307692308C799.9166666666667,114.02397435897437,802.3333333333335,114.02102564102564,804.7500000000001,114.01807692307693C807.1666666666667,114.01512820512822,809.5833333333335,114.0121794871795,812.0000000000001,114.00923076923077C814.4166666666667,114.00628205128206,816.8333333333333,114.00333333333333,819.2499999999999,114.00038461538462C821.6666666666665,113.9974358974359,824.0833333333333,113.99448717948718,826.4999999999999,113.99153846153847C828.9166666666665,113.98858974358976,831.3333333333333,113.98564102564102,833.7499999999999,113.9826923076923C836.1666666666665,113.97974358974359,838.5833333333333,113.97679487179487,840.9999999999999,113.97384615384615C843.4166666666666,113.97089743589744,845.8333333333333,113.96794871794873,848.25,113.965C850.6666666666666,113.96205128205129,853.0833333333334,113.95910256410255,855.5,113.95615384615384C857.9166666666666,113.95320512820513,860.3333333333334,113.9502564102564,862.75,113.94730769230769C865.1666666666666,113.94435897435898,867.5833333333334,113.94141025641025,870,113.93846153846154C872.4166666666666,113.93551282051283,874.8333333333334,113.93256410256409,877.25,113.92961538461537C879.6666666666666,113.92666666666666,882.0833333333334,113.92371794871794,884.5,113.92076923076922C886.9166666666666,113.91782051282051,889.3333333333334,113.9148717948718,891.75,113.91192307692309C894.1666666666666,113.90897435897438,896.5833333333334,113.90602564102564,899,113.90307692307692C901.4166666666666,113.90012820512821,903.8333333333334,113.89717948717949,906.25,113.89423076923077C908.6666666666666,113.89128205128206,911.0833333333334,113.88833333333334,913.5,113.88538461538462C915.9166666666666,113.88243589743591,918.3333333333334,113.87948717948717,920.75,113.87653846153846C923.1666666666666,113.87358974358975,925.5833333333334,113.87064102564102,928,113.86769230769231C930.4166666666666,113.8647435897436,932.8333333333334,113.86179487179487,935.25,113.85884615384616C937.6666666666666,113.85589743589745,940.0833333333334,113.85589743589743,942.5,113.85C944.9166666666666,113.84410256410256,947.3333333333334,113.02857142857142,949.75,112.61785714285715C952.1666666666666,112.20714285714287,954.5833333333334,111.79642857142858,957,111.38571428571429C959.4166666666666,110.975,961.8333333333334,110.5642857142857,964.25,110.15357142857142C966.6666666666667,109.74285714285713,969.0833333333334,109.33214285714287,971.5000000000001,108.92142857142858C973.9166666666667,108.5107142857143,976.3333333333335,108.10000000000001,978.7500000000001,107.68928571428572C981.1666666666667,107.27857142857142,983.5833333333335,106.86785714285713,986.0000000000001,106.45714285714286C988.4166666666667,106.04642857142858,990.8333333333335,105.6357142857143,993.2500000000001,105.22500000000001C995.6666666666667,104.81428571428573,998.0833333333333,104.40357142857141,1000.4999999999999,103.99285714285713C1002.9166666666665,103.58214285714284,1005.3333333333333,103.17142857142856,1007.7499999999999,102.76071428571429C1010.1666666666665,102.35000000000001,1012.5833333333333,101.93928571428572,1014.9999999999999,101.52857142857142C1017.4166666666665,101.11785714285713,1019.8333333333333,100.70714285714284,1022.2499999999999,100.29642857142856C1024.6666666666665,99.88571428571427,1027.0833333333333,99.47500000000001,1029.5,99.06428571428572C1031.9166666666667,98.65357142857144,1034.3333333333333,98.24285714285715,1036.75,97.83214285714286C1039.1666666666667,97.42142857142856,1041.5833333333333,97.01071428571427,1044,96.6C1046.4166666666667,96.18928571428572,1048.8333333333333,95.77857142857142,1051.25,95.36785714285715C1053.6666666666667,94.95714285714287,1056.0833333333333,94.54642857142858,1058.5,94.13571428571429C1060.9166666666667,93.725,1063.3333333333333,93.3142857142857,1065.75,92.90357142857142C1068.1666666666667,92.49285714285715,1070.5833333333333,92.08214285714286,1073,91.67142857142858C1075.4166666666667,91.2607142857143,1077.8333333333333,90.85000000000001,1080.25,90.43928571428572C1082.6666666666667,90.02857142857142,1085.0833333333333,89.61785714285713,1087.5,89.20714285714286C1089.9166666666667,88.79642857142858,1092.3333333333333,88.3857142857143,1094.75,87.97500000000001C1097.1666666666667,87.56428571428572,1099.5833333333333,87.15357142857142,1102,86.74285714285713C1104.4166666666667,86.33214285714284,1106.8333333333333,85.92142857142856,1109.25,85.51071428571429C1111.6666666666667,85.10000000000001,1114.0833333333333,84.6892857142857,1116.5,84.27857142857142C1118.9166666666667,83.86785714285715,1121.3333333333333,83.45714285714286,1123.75,83.04642857142858C1126.1666666666667,82.6357142857143,1128.5833333333333,82.22500000000001,1131,81.81428571428572C1133.4166666666667,81.40357142857142,1135.8333333333333,80.99285714285715,1138.25,80.58214285714286C1140.6666666666667,80.17142857142856,1143.0833333333333,79.76071428571427,1145.5,79.35C1147.9166666666667,78.93928571428572,1150.3333333333333,78.52857142857142,1152.75,78.11785714285715C1155.1666666666667,77.70714285714287,1157.5833333333333,77.29642857142856,1160,76.88571428571429C1162.4166666666667,76.47500000000001,1164.8333333333333,76.06428571428573,1167.25,75.65357142857144C1169.6666666666667,75.24285714285715,1172.0833333333333,74.83214285714286,1174.5,74.42142857142856C1176.9166666666667,74.01071428571427,1179.3333333333333,73.6,1181.75,73.18928571428572C1184.1666666666667,72.77857142857144,1186.5833333333333,72.36785714285715,1189,71.95714285714286C1191.4166666666667,71.54642857142856,1193.8333333333333,71.13571428571427,1196.25,70.725C1198.6666666666667,70.31428571428572,1201.0833333333333,69.90357142857142,1203.5,69.49285714285715C1205.9166666666667,69.08214285714287,1208.3333333333333,68.67142857142859,1210.75,68.2607142857143C1213.1666666666667,67.85000000000001,1215.5833333333333,67.43928571428572,1218,67.02857142857142C1220.4166666666667,66.61785714285713,1222.8333333333333,66.20714285714286,1225.25,65.79642857142858C1227.6666666666667,65.3857142857143,1230.0833333333333,64.97500000000001,1232.5,64.56428571428572C1234.9166666666667,64.15357142857142,1237.3333333333333,63.74285714285714,1239.75,63.332142857142856C1242.1666666666667,62.92142857142857,1244.5833333333333,62.510714285714286,1247,62.1C1249.4166666666667,61.68928571428572,1251.8333333333333,61.27857142857144,1254.25,60.867857142857154C1256.6666666666667,60.45714285714287,1259.0833333333333,60.046428571428564,1261.5,59.63571428571427C1263.9166666666667,59.22499999999998,1266.3333333333333,58.8142857142857,1268.75,58.40357142857142C1271.1666666666667,57.99285714285713,1273.5833333333333,57.582142857142856,1276,57.17142857142857C1278.4166666666667,56.760714285714286,1280.8333333333333,56.35,1283.25,55.93928571428572C1285.6666666666667,55.52857142857143,1288.0833333333333,55.11785714285715,1290.5,54.70714285714286C1292.9166666666667,54.29642857142858,1295.3333333333333,53.88571428571428,1297.75,53.474999999999994C1300.1666666666667,53.06428571428571,1302.5833333333333,52.653571428571425,1305,52.24285714285714C1307.4166666666667,51.832142857142856,1309.8333333333333,51.42142857142858,1312.25,51.01071428571429C1314.6666666666667,50.60000000000001,1317.0833333333333,50.18928571428571,1319.5,49.778571428571425C1321.9166666666667,49.36785714285714,1324.3333333333333,48.957142857142856,1326.75,48.54642857142857C1329.1666666666667,48.135714285714286,1331.5833333333333,47.725,1334,47.31428571428572C1336.4166666666667,46.90357142857143,1338.8333333333333,46.49285714285714,1341.25,46.082142857142856C1343.6666666666667,45.67142857142857,1346.0833333333333,45.260714285714286,1348.5,44.85C1350.9166666666667,44.43928571428572,1353.3333333333333,44.02857142857143,1355.75,43.61785714285715C1358.1666666666667,43.20714285714286,1360.5833333333333,42.79642857142857,1363,42.385714285714286C1365.4166666666667,41.975,1367.8333333333333,41.56428571428572,1370.25,41.15357142857143C1372.6666666666667,40.74285714285715,1375.0833333333333,40.33214285714286,1377.5,39.92142857142858C1379.9166666666667,39.51071428571429,1382.3333333333333,39.099999999999994,1384.75,38.68928571428571C1387.1666666666667,38.278571428571425,1389.5833333333333,37.86785714285715,1392,37.45714285714286C1394.4166666666667,37.04642857142858,1396.8333333333333,36.63571428571428,1399.25,36.224999999999994C1401.6666666666667,35.81428571428571,1404.0833333333333,35.403571428571425,1406.5,34.99285714285714C1408.9166666666667,34.582142857142856,1411.3333333333333,34.17142857142857,1413.75,33.760714285714286C1416.1666666666667,33.35,1418.5833333333333,32.93928571428571,1421,32.528571428571425C1423.4166666666667,32.11785714285714,1425.8333333333333,31.707142857142856,1428.25,31.29642857142857C1430.6666666666667,30.885714285714286,1433.0833333333333,30.474999999999994,1435.5,30.064285714285706C1437.9166666666667,29.653571428571418,1440.3333333333333,29.242857142857137,1442.75,28.832142857142852C1445.1666666666667,28.421428571428567,1447.5833333333333,28.010714285714283,1450,27.599999999999998" fill="transparent" stroke-linecap="round" stroke="#B6509E" stroke-width="2"></path><path class="visx-linepath" d="M0,112.12499999995578C2.4166666666666665,112.1176282051024,4.833333333333334,112.11025641024904,7.25,112.10288461538461C9.666666666666666,112.09551282052018,12.083333333333334,112.08814102564102,14.5,112.08076923076923C16.916666666666668,112.07339743589745,19.333333333333332,112.06602564102565,21.75,112.05865384615385C24.166666666666668,112.05128205128204,26.583333333333332,112.04391025641024,29,112.03653846153846C31.416666666666668,112.02916666666667,33.833333333333336,112.02179487179487,36.25,112.01442307692308C38.666666666666664,112.0070512820513,41.083333333333336,111.99967948717948,43.5,111.99230769230769C45.91666666666667,111.98493589743589,48.333333333333336,111.97756410256412,50.75000000000001,111.97019230769232C53.16666666666667,111.96282051282053,55.583333333333336,111.95544871794873,58,111.94807692307693C60.416666666666664,111.94070512820512,62.833333333333336,111.93333333333334,65.25,111.92596153846154C67.66666666666667,111.91858974358973,70.08333333333333,111.91121794871793,72.5,111.90384615384615C74.91666666666667,111.89647435897436,77.33333333333333,111.88910256410256,79.75,111.88173076923077C82.16666666666667,111.87435897435898,84.58333333333333,111.86698717948718,87,111.8596153846154C89.41666666666667,111.85224358974361,91.83333333333333,111.8448717948718,94.25,111.8375C96.66666666666667,111.8301282051282,99.08333333333334,111.82275641025642,101.50000000000001,111.81538461538462C103.91666666666667,111.80801282051281,106.33333333333334,111.80064102564103,108.75,111.79326923076923C111.16666666666667,111.78589743589743,113.58333333333333,111.77852564102562,116,111.77115384615384C118.41666666666667,111.76378205128204,120.83333333333334,111.75641025641025,123.25000000000001,111.74903846153846C125.66666666666667,111.74166666666667,128.08333333333334,111.73429487179487,130.5,111.72692307692309C132.91666666666666,111.71955128205128,135.33333333333334,111.7121794871795,137.75,111.7048076923077C140.16666666666666,111.6974358974359,142.58333333333334,111.69006410256411,145,111.6826923076923C147.41666666666666,111.6753205128205,149.83333333333334,111.66794871794872,152.25,111.66057692307692C154.66666666666666,111.65320512820512,157.08333333333334,111.64583333333331,159.5,111.63846153846153C161.91666666666666,111.63108974358974,164.33333333333334,111.62371794871794,166.75,111.61634615384615C169.16666666666666,111.60897435897436,171.58333333333334,111.60160256410256,174,111.59423076923078C176.41666666666666,111.58685897435899,178.83333333333334,111.57948717948719,181.25,111.57211538461539C183.66666666666666,111.56474358974359,186.08333333333334,111.5573717948718,188.5,111.55C190.91666666666666,111.5426282051282,193.33333333333334,111.5352564102564,195.75,111.52788461538461C198.16666666666669,111.5205128205128,200.58333333333334,111.51314102564103,203.00000000000003,111.50576923076923C205.41666666666669,111.49839743589745,207.83333333333331,111.49102564102563,210.24999999999997,111.48365384615384C212.66666666666666,111.47628205128204,215.08333333333331,111.46891025641027,217.5,111.46153846153847C219.91666666666666,111.45416666666668,222.33333333333334,111.44679487179488,224.75,111.43942307692308C227.16666666666666,111.43205128205128,229.58333333333334,111.42467948717947,232,111.41730769230769C234.41666666666666,111.4099358974359,236.83333333333334,111.4025641025641,239.25,111.39519230769231C241.66666666666669,111.38782051282051,244.08333333333334,111.38044871794872,246.50000000000003,111.37307692307692C248.91666666666669,111.36570512820512,251.33333333333331,111.35833333333332,253.74999999999997,111.35096153846153C256.16666666666663,111.34358974358973,258.5833333333333,111.33621794871796,261,111.32884615384616C263.4166666666667,111.32147435897437,265.8333333333333,111.31410256410255,268.25,111.30673076923077C270.6666666666667,111.29935897435898,273.0833333333333,111.29198717948718,275.5,111.28461538461539C277.9166666666667,111.2772435897436,280.3333333333333,111.2698717948718,282.75,111.2625C285.1666666666667,111.2551282051282,287.5833333333333,111.24775641025641,290,111.24038461538461C292.4166666666667,111.23301282051281,294.8333333333333,111.22564102564101,297.25,111.21826923076922C299.6666666666667,111.21089743589744,302.0833333333333,111.20352564102564,304.5,111.19615384615385C306.9166666666667,111.18878205128206,309.3333333333333,111.18141025641026,311.75,111.17403846153847C314.1666666666667,111.16666666666669,316.5833333333333,111.15929487179488,319,111.15192307692308C321.4166666666667,111.14455128205128,323.8333333333333,111.1371794871795,326.25,111.1298076923077C328.6666666666667,111.12243589743589,331.0833333333333,111.1150641025641,333.5,111.1076923076923C335.9166666666667,111.1003205128205,338.3333333333333,111.0929487179487,340.75,111.08557692307691C343.1666666666667,111.07820512820513,345.5833333333333,111.07083333333333,348,111.06346153846154C350.4166666666667,111.05608974358975,352.8333333333333,111.04871794871795,355.25,111.04134615384616C357.6666666666667,111.03397435897438,360.0833333333333,111.02660256410257,362.5,111.01923076923077C364.9166666666667,111.01185897435897,367.3333333333333,111.00448717948719,369.75,110.99711538461538C372.1666666666667,110.98974358974358,374.5833333333333,110.9823717948718,377,110.975C379.4166666666667,110.9676282051282,381.8333333333333,110.96025641025639,384.25,110.9528846153846C386.6666666666667,110.94551282051282,389.0833333333333,110.93814102564102,391.5,110.93076923076923C393.9166666666667,110.92339743589744,396.33333333333337,110.91602564102566,398.75000000000006,110.90865384615385C401.16666666666674,110.90128205128207,403.58333333333337,110.89391025641027,406.00000000000006,110.88653846153846C408.4166666666667,110.87916666666666,410.8333333333333,110.87179487179488,413.24999999999994,110.86442307692307C415.66666666666663,110.85705128205127,418.08333333333326,110.84967948717947,420.49999999999994,110.84230769230768C422.91666666666663,110.83493589743588,425.3333333333333,110.82756410256411,427.75,110.82019230769231C430.1666666666667,110.81282051282052,432.5833333333333,110.8054487179487,435,110.79807692307692C437.4166666666667,110.79070512820513,439.8333333333333,110.78333333333333,442.25,110.77596153846154C444.6666666666667,110.76858974358976,447.0833333333333,110.76121794871796,449.5,110.75384615384615C451.9166666666667,110.74647435897435,454.3333333333333,110.73910256410255,456.75,110.73173076923077C459.1666666666667,110.72435897435898,461.5833333333333,110.71698717948718,464,110.70961538461539C466.4166666666667,110.7022435897436,468.8333333333333,110.6948717948718,471.25,110.6875C473.6666666666667,110.6801282051282,476.0833333333333,110.6727564102564,478.5,110.66538461538461C480.9166666666667,110.65801282051281,483.33333333333337,110.65064102564104,485.75000000000006,110.64326923076923C488.16666666666674,110.63589743589745,490.58333333333337,110.62852564102565,493.00000000000006,110.62115384615385C495.4166666666667,110.61378205128206,497.8333333333333,110.60641025641026,500.24999999999994,110.59903846153847C502.66666666666663,110.59166666666667,505.08333333333326,110.58429487179488,507.49999999999994,110.57692307692308C509.91666666666663,110.56955128205128,512.3333333333333,110.56217948717949,514.75,110.55480769230769C517.1666666666666,110.54743589743589,519.5833333333334,110.54006410256409,522,110.5326923076923C524.4166666666666,110.52532051282051,526.8333333333334,110.51794871794871,529.25,110.51057692307693C531.6666666666666,110.50320512820514,534.0833333333334,110.49583333333334,536.5,110.48846153846155C538.9166666666666,110.48108974358976,541.3333333333334,110.47371794871796,543.75,110.46634615384616C546.1666666666666,110.45897435897436,548.5833333333334,110.45160256410257,551,110.44423076923077C553.4166666666666,110.43685897435897,555.8333333333334,110.42948717948718,558.25,110.42211538461538C560.6666666666666,110.41474358974358,563.0833333333334,110.40737179487178,565.5,110.39999999999999C567.9166666666666,110.3926282051282,570.3333333333334,110.3852564102564,572.75,110.37788461538462C575.1666666666666,110.37051282051283,577.5833333333334,110.36314102564103,580,110.35576923076924C582.4166666666666,110.34839743589745,584.8333333333334,110.34102564102565,587.25,110.33365384615385C589.6666666666666,110.32628205128205,592.0833333333334,110.31891025641026,594.5,110.31153846153846C596.9166666666666,110.30416666666666,599.3333333333334,110.29679487179486,601.75,110.28942307692307C604.1666666666666,110.28205128205128,606.5833333333334,110.27467948717948,609,110.2673076923077C611.4166666666666,110.25993589743591,613.8333333333334,110.2525641025641,616.25,110.2451923076923C618.6666666666666,110.23782051282052,621.0833333333334,110.23044871794872,623.5,110.22307692307693C625.9166666666666,110.21570512820514,628.3333333333334,110.20833333333334,630.75,110.20096153846154C633.1666666666666,110.19358974358974,635.5833333333334,110.18621794871795,638,110.17884615384615C640.4166666666666,110.17147435897435,642.8333333333334,110.16410256410255,645.25,110.15673076923076C647.6666666666666,110.14935897435898,650.0833333333334,110.14198717948717,652.5,110.13461538461539C654.9166666666666,110.1272435897436,657.3333333333334,110.11987179487178,659.75,110.1125C662.1666666666666,110.10512820512821,664.5833333333334,110.09775641025641,667,110.09038461538462C669.4166666666666,110.08301282051283,671.8333333333334,110.07564102564103,674.25,110.06826923076923C676.6666666666666,110.06089743589743,679.0833333333334,110.05352564102563,681.5,110.04615384615384C683.9166666666666,110.03878205128206,686.3333333333334,110.03141025641025,688.75,110.02403846153847C691.1666666666666,110.01666666666668,693.5833333333334,110.00929487179488,696,110.00192307692308C698.4166666666666,109.99455128205128,700.8333333333334,109.98717948717949,703.25,109.97980769230769C705.6666666666666,109.97243589743589,708.0833333333334,109.96506410256409,710.5,109.9576923076923C712.9166666666666,109.95032051282051,715.3333333333334,109.94294871794871,717.75,109.93557692307692C720.1666666666666,109.92820512820514,722.5833333333334,109.92083333333333,725,109.91346153846155C727.4166666666666,109.90608974358976,729.8333333333334,109.89871794871796,732.25,109.89134615384616C734.6666666666666,109.88397435897436,737.0833333333334,109.87660256410257,739.5,109.86923076923077C741.9166666666666,109.86185897435897,744.3333333333334,109.85448717948718,746.75,109.84711538461538C749.1666666666666,109.83974358974358,751.5833333333334,109.83237179487178,754,109.82499999999999C756.4166666666666,109.8176282051282,758.8333333333334,109.81025641025641,761.25,109.80288461538463C763.6666666666666,109.79551282051284,766.0833333333334,109.78814102564104,768.5,109.78076923076924C770.9166666666666,109.77339743589744,773.3333333333334,109.76602564102565,775.75,109.75865384615385C778.1666666666666,109.75128205128205,780.5833333333334,109.74391025641026,783,109.73653846153846C785.4166666666667,109.72916666666666,787.8333333333334,109.72179487179487,790.2500000000001,109.71442307692307C792.6666666666667,109.70705128205127,795.0833333333335,109.69967948717947,797.5000000000001,109.69230769230768C799.9166666666667,109.68493589743589,802.3333333333335,109.6775641025641,804.7500000000001,109.67019230769232C807.1666666666667,109.66282051282053,809.5833333333335,109.65544871794873,812.0000000000001,109.64807692307693C814.4166666666667,109.64070512820513,816.8333333333333,109.63333333333334,819.2499999999999,109.62596153846154C821.6666666666665,109.61858974358974,824.0833333333333,109.61121794871795,826.4999999999999,109.60384615384615C828.9166666666665,109.59647435897435,831.3333333333333,109.58910256410255,833.7499999999999,109.58173076923076C836.1666666666665,109.57435897435897,838.5833333333333,109.56698717948717,840.9999999999999,109.55961538461538C843.4166666666666,109.5522435897436,845.8333333333333,109.54487179487181,848.25,109.53750000000001C850.6666666666666,109.53012820512822,853.0833333333334,109.52275641025642,855.5,109.51538461538462C857.9166666666666,109.50801282051282,860.3333333333334,109.50064102564103,862.75,109.49326923076923C865.1666666666666,109.48589743589743,867.5833333333334,109.47852564102563,870,109.47115384615384C872.4166666666666,109.46378205128205,874.8333333333334,109.45641025641025,877.25,109.44903846153846C879.6666666666666,109.44166666666668,882.0833333333334,109.43429487179488,884.5,109.42692307692307C886.9166666666666,109.41955128205127,889.3333333333334,109.41217948717947,891.75,109.40480769230768C894.1666666666666,109.3974358974359,896.5833333333334,109.3900641025641,899,109.38269230769231C901.4166666666666,109.37532051282052,903.8333333333334,109.3679487179487,906.25,109.36057692307692C908.6666666666666,109.35320512820513,911.0833333333334,109.34583333333333,913.5,109.33846153846154C915.9166666666666,109.33108974358976,918.3333333333334,109.32371794871796,920.75,109.31634615384615C923.1666666666666,109.30897435897435,925.5833333333334,109.30160256410257,928,109.29423076923077C930.4166666666666,109.28685897435896,932.8333333333334,109.27948717948716,935.25,109.27211538461538C937.6666666666666,109.26474358974359,940.0833333333334,109.26474358974359,942.5,109.25C944.9166666666666,109.23525641025641,947.3333333333334,108.42857142857142,949.75,108.01785714285714C952.1666666666666,107.60714285714286,954.5833333333334,107.19642857142857,957,106.78571428571429C959.4166666666666,106.37500000000001,961.8333333333334,105.96428571428571,964.25,105.55357142857143C966.6666666666667,105.14285714285714,969.0833333333334,104.73214285714286,971.5000000000001,104.32142857142857C973.9166666666667,103.91071428571429,976.3333333333335,103.50000000000001,978.7500000000001,103.08928571428572C981.1666666666667,102.67857142857143,983.5833333333335,102.26785714285714,986.0000000000001,101.85714285714285C988.4166666666667,101.44642857142856,990.8333333333335,101.03571428571429,993.2500000000001,100.625C995.6666666666667,100.21428571428572,998.0833333333333,99.80357142857143,1000.4999999999999,99.39285714285715C1002.9166666666665,98.98214285714286,1005.3333333333333,98.57142857142857,1007.7499999999999,98.16071428571428C1010.1666666666665,97.74999999999999,1012.5833333333333,97.33928571428571,1014.9999999999999,96.92857142857143C1017.4166666666665,96.51785714285715,1019.8333333333333,96.10714285714285,1022.2499999999999,95.69642857142857C1024.6666666666665,95.28571428571428,1027.0833333333333,94.875,1029.5,94.46428571428571C1031.9166666666667,94.05357142857143,1034.3333333333333,93.64285714285714,1036.75,93.23214285714286C1039.1666666666667,92.82142857142858,1041.5833333333333,92.41071428571429,1044,92C1046.4166666666667,91.58928571428571,1048.8333333333333,91.17857142857142,1051.25,90.76785714285714C1053.6666666666667,90.35714285714286,1056.0833333333333,89.94642857142858,1058.5,89.53571428571429C1060.9166666666667,89.125,1063.3333333333333,88.71428571428571,1065.75,88.30357142857142C1068.1666666666667,87.89285714285712,1070.5833333333333,87.48214285714285,1073,87.07142857142857C1075.4166666666667,86.66071428571429,1077.8333333333333,86.25,1080.25,85.83928571428572C1082.6666666666667,85.42857142857144,1085.0833333333333,85.01785714285715,1087.5,84.60714285714286C1089.9166666666667,84.19642857142857,1092.3333333333333,83.78571428571429,1094.75,83.375C1097.1666666666667,82.96428571428571,1099.5833333333333,82.55357142857143,1102,82.14285714285714C1104.4166666666667,81.73214285714285,1106.8333333333333,81.32142857142856,1109.25,80.91071428571428C1111.6666666666667,80.5,1114.0833333333333,80.08928571428571,1116.5,79.67857142857143C1118.9166666666667,79.26785714285715,1121.3333333333333,78.85714285714285,1123.75,78.44642857142857C1126.1666666666667,78.03571428571429,1128.5833333333333,77.625,1131,77.21428571428572C1133.4166666666667,76.80357142857144,1135.8333333333333,76.39285714285715,1138.25,75.98214285714286C1140.6666666666667,75.57142857142857,1143.0833333333333,75.16071428571429,1145.5,74.75C1147.9166666666667,74.33928571428571,1150.3333333333333,73.92857142857143,1152.75,73.51785714285714C1155.1666666666667,73.10714285714285,1157.5833333333333,72.69642857142856,1160,72.28571428571428C1162.4166666666667,71.875,1164.8333333333333,71.46428571428571,1167.25,71.05357142857143C1169.6666666666667,70.64285714285715,1172.0833333333333,70.23214285714288,1174.5,69.82142857142858C1176.9166666666667,69.41071428571429,1179.3333333333333,68.99999999999999,1181.75,68.5892857142857C1184.1666666666667,68.1785714285714,1186.5833333333333,67.76785714285712,1189,67.35714285714285C1191.4166666666667,66.94642857142857,1193.8333333333333,66.53571428571428,1196.25,66.125C1198.6666666666667,65.71428571428572,1201.0833333333333,65.30357142857142,1203.5,64.89285714285714C1205.9166666666667,64.48214285714286,1208.3333333333333,64.07142857142857,1210.75,63.66071428571429C1213.1666666666667,63.25000000000001,1215.5833333333333,62.83928571428572,1218,62.42857142857144C1220.4166666666667,62.01785714285715,1222.8333333333333,61.607142857142854,1225.25,61.19642857142857C1227.6666666666667,60.785714285714285,1230.0833333333333,60.37499999999999,1232.5,59.96428571428571C1234.9166666666667,59.55357142857142,1237.3333333333333,59.14285714285715,1239.75,58.73214285714287C1242.1666666666667,58.321428571428584,1244.5833333333333,57.910714285714285,1247,57.5C1249.4166666666667,57.089285714285715,1251.8333333333333,56.67857142857143,1254.25,56.267857142857146C1256.6666666666667,55.85714285714286,1259.0833333333333,55.44642857142857,1261.5,55.035714285714285C1263.9166666666667,54.625,1266.3333333333333,54.214285714285715,1268.75,53.80357142857143C1271.1666666666667,53.392857142857146,1273.5833333333333,52.98214285714286,1276,52.57142857142858C1278.4166666666667,52.16071428571429,1280.8333333333333,51.74999999999999,1283.25,51.33928571428571C1285.6666666666667,50.92857142857142,1288.0833333333333,50.517857142857146,1290.5,50.10714285714286C1292.9166666666667,49.69642857142858,1295.3333333333333,49.28571428571429,1297.75,48.87500000000001C1300.1666666666667,48.46428571428572,1302.5833333333333,48.05357142857142,1305,47.64285714285714C1307.4166666666667,47.232142857142854,1309.8333333333333,46.82142857142857,1312.25,46.410714285714285C1314.6666666666667,46,1317.0833333333333,45.589285714285715,1319.5,45.17857142857143C1321.9166666666667,44.767857142857146,1324.3333333333333,44.357142857142854,1326.75,43.94642857142857C1329.1666666666667,43.535714285714285,1331.5833333333333,43.125,1334,42.714285714285715C1336.4166666666667,42.30357142857143,1338.8333333333333,41.892857142857146,1341.25,41.48214285714286C1343.6666666666667,41.07142857142858,1346.0833333333333,40.660714285714285,1348.5,40.25C1350.9166666666667,39.839285714285715,1353.3333333333333,39.42857142857143,1355.75,39.017857142857146C1358.1666666666667,38.60714285714286,1360.5833333333333,38.19642857142858,1363,37.78571428571429C1365.4166666666667,37.37500000000001,1367.8333333333333,36.9642857142857,1370.25,36.553571428571416C1372.6666666666667,36.14285714285713,1375.0833333333333,35.73214285714287,1377.5,35.321428571428584C1379.9166666666667,34.9107142857143,1382.3333333333333,34.49999999999999,1384.75,34.08928571428571C1387.1666666666667,33.67857142857142,1389.5833333333333,33.26785714285714,1392,32.857142857142854C1394.4166666666667,32.44642857142857,1396.8333333333333,32.03571428571429,1399.25,31.625000000000004C1401.6666666666667,31.214285714285715,1404.0833333333333,30.80357142857141,1406.5,30.392857142857125C1408.9166666666667,29.98214285714284,1411.3333333333333,29.571428571428566,1413.75,29.160714285714285C1416.1666666666667,28.750000000000004,1418.5833333333333,28.339285714285715,1421,27.92857142857143C1423.4166666666667,27.517857142857146,1425.8333333333333,27.107142857142854,1428.25,26.696428571428566C1430.6666666666667,26.285714285714278,1433.0833333333333,25.874999999999996,1435.5,25.46428571428571C1437.9166666666667,25.053571428571427,1440.3333333333333,24.642857142857146,1442.75,24.23214285714286C1445.1666666666667,23.821428571428577,1447.5833333333333,23.410714285714285,1450,22.999999999999996" fill="transparent" stroke-linecap="round" stroke="#E7C6DF" stroke-width="2"></path><g class="visx-group visx-axis visx-axis-bottom" transform="translate(0, 115)"><g class="visx-group visx-axis-tick" transform="translate(0, 0)"><line class="visx-line" x1="0" y1="0" x2="0" y2="8" fill="transparent" shape-rendering="crispEdges" stroke="#000" stroke-width="0" stroke-linecap="square"></line><svg x="0" y="0" font-size="10" style="overflow:visible"><text transform="" x="0" y="18" fill="#000" font-size="10" text-anchor="middle"><tspan x="0" dy="0em">0%</tspan></text></svg></g><g class="visx-group visx-axis-tick" transform="translate(0, 0)"><line class="visx-line" x1="362.5" y1="0" x2="362.5" y2="8" fill="transparent" shape-rendering="crispEdges" stroke="#000" stroke-width="0" stroke-linecap="square"></line><svg x="0" y="0" font-size="10" style="overflow:visible"><text transform="" x="362.5" y="18" fill="#000" font-size="10" text-anchor="middle"><tspan x="362.5" dy="0em">25%</tspan></text></svg></g><g class="visx-group visx-axis-tick" transform="translate(0, 0)"><line class="visx-line" x1="725" y1="0" x2="725" y2="8" fill="transparent" shape-rendering="crispEdges" stroke="#000" stroke-width="0" stroke-linecap="square"></line><svg x="0" y="0" font-size="10" style="overflow:visible"><text transform="" x="725" y="18" fill="#000" font-size="10" text-anchor="middle"><tspan x="725" dy="0em">50%</tspan></text></svg></g><g class="visx-group visx-axis-tick" transform="translate(0, 0)"><line class="visx-line" x1="1087.5" y1="0" x2="1087.5" y2="8" fill="transparent" shape-rendering="crispEdges" stroke="#000" stroke-width="0" stroke-linecap="square"></line><svg x="0" y="0" font-size="10" style="overflow:visible"><text transform="" x="1087.5" y="18" fill="#000" font-size="10" text-anchor="middle"><tspan x="1087.5" dy="0em">75%</tspan></text></svg></g><g class="visx-group visx-axis-tick" transform="translate(0, 0)"><line class="visx-line" x1="1450" y1="0" x2="1450" y2="8" fill="transparent" shape-rendering="crispEdges" stroke="#000" stroke-width="0" stroke-linecap="square"></line><svg x="0" y="0" font-size="10" style="overflow:visible"><text transform="" x="1450" y="18" fill="#000" font-size="10" text-anchor="middle"><tspan x="1450" dy="0em">100%</tspan></text></svg></g><line class="visx-line visx-axis-line" x1="0.5" y1="0" x2="1450.5" y2="0" fill="transparent" shape-rendering="crispEdges" stroke="#222" stroke-width="0"></line></g><g class="visx-group visx-axis visx-axis-left" transform="translate(0, 0)"><g class="visx-group visx-axis-tick" transform="translate(0, 0)"><line class="visx-line" x1="0" y1="115" x2="-8" y2="115" fill="transparent" shape-rendering="crispEdges" stroke="#222" stroke-width="0" stroke-linecap="square"></line><svg x="-30" y="0" font-size="8" style="overflow:visible"><text transform="" x="-8" y="115" fill="#000" font-size="8" text-anchor="start"><tspan x="-8" dy="0em">0%</tspan></text></svg></g><g class="visx-group visx-axis-tick" transform="translate(0, 0)"><line class="visx-line" x1="0" y1="57.5" x2="-8" y2="57.5" fill="transparent" shape-rendering="crispEdges" stroke="#222" stroke-width="0" stroke-linecap="square"></line><svg x="-30" y="0" font-size="8" style="overflow:visible"><text transform="" x="-8" y="57.5" fill="#000" font-size="8" text-anchor="start"><tspan x="-8" dy="0em">200%</tspan></text></svg></g><g class="visx-group visx-axis-tick" transform="translate(0, 0)"><line class="visx-line" x1="0" y1="0" x2="-8" y2="0" fill="transparent" shape-rendering="crispEdges" stroke="#222" stroke-width="0" stroke-linecap="square"></line><svg x="-30" y="0" font-size="8" style="overflow:visible"><text transform="" x="-8" y="0" fill="#000" font-size="8" text-anchor="start"><tspan x="-8" dy="0em">400%</tspan></text></svg></g><line class="visx-line visx-axis-line" x1="0" y1="115.5" x2="0" y2="0.5" fill="transparent" shape-rendering="crispEdges" stroke="#222" stroke-width="0"></line></g><rect class="visx-bar" width="1450" height="115" fill="transparent"></rect><line class="visx-line" x1="942.5" y1="28" x2="942.5" y2="115" fill="transparent" shape-rendering="crispEdges" stroke="#0062D2" stroke-width="1" pointer-events="none" stroke-dasharray="5,2"></line><svg x="0" y="0" font-size="10px" style="overflow:visible"><text transform="" x="942.5" y="20" font-size="10px" fill="#fff" stroke="#fff" stroke-width="0.8em" text-anchor="middle"><tspan x="942.5" dy="0.355em">Optimal 65%</tspan></text></svg><svg x="0" y="0" font-size="10px" style="overflow:visible"><text transform="" x="942.5" y="20" font-size="10px" fill="#62677B" text-anchor="middle"><tspan x="942.5" dy="0.355em">Optimal 65%</tspan></text></svg></g></svg>