<?xml version="1.0"?><svg xmlns="http://www.w3.org/2000/svg" xmlns:xlink= "http://www.w3.org/1999/xlink" style="background: white;" width="1500" height="185"> <g style="color: black; font-size: 13px; font-family: sans-serif; transform: translate(18px, 25px);"><g><circle r="3" cx="-6" cy="-5" style="fill: #B6509E" /><text>Borrow APR, variable</text></g><g style="transform: translateX(150px);"><circle r="3" cx="-6" cy="-5" style="fill: rgb(231, 198, 223)" /><text>Borrow APR, stable</text></g><g style="transform: translateX(290px);"><circle r="3" cx="-6" cy="-5" style="fill: rgb(0, 98, 210)" /><text>Utilization Rate</text></g></g><g class="visx-group" transform="translate(40, 50)"><g class="visx-group visx-rows" transform="translate(0, 0)"><line class="visx-line" x1="0" y1="115" x2="1450" y2="115" fill="transparent" shape-rendering="crispEdges" stroke="#000" stroke-width="1" stroke-dasharray="3,3" pointer-events="none"></line><line class="visx-line" x1="0" y1="62.72727272727272" x2="1450" y2="62.72727272727272" fill="transparent" shape-rendering="crispEdges" stroke="#000" stroke-width="1" stroke-dasharray="3,3" pointer-events="none"></line><line class="visx-line" x1="0" y1="10.454545454545459" x2="1450" y2="10.454545454545459" fill="transparent" shape-rendering="crispEdges" stroke="#000" stroke-width="1" stroke-dasharray="3,3" pointer-events="none"></line></g><path class="visx-linepath" d="M0,114.99999999994773C2.4166666666666665,114.99128787875739,4.833333333333334,114.98257575756705,7.25,114.97386363636363C9.666666666666666,114.96515151516022,12.083333333333334,114.95643939393938,14.5,114.94772727272726C16.916666666666668,114.93901515151515,19.333333333333332,114.93030303030302,21.75,114.92159090909091C24.166666666666668,114.9128787878788,26.583333333333332,114.90416666666667,29,114.89545454545456C31.416666666666668,114.88674242424244,33.833333333333336,114.87803030303031,36.25,114.86931818181819C38.666666666666664,114.86060606060606,41.083333333333336,114.85189393939395,43.5,114.84318181818182C45.91666666666667,114.83446969696969,48.333333333333336,114.82575757575758,50.75000000000001,114.81704545454545C53.16666666666667,114.80833333333334,55.583333333333336,114.79962121212121,58,114.7909090909091C60.416666666666664,114.78219696969697,62.833333333333336,114.77348484848486,65.25,114.76477272727273C67.66666666666667,114.7560606060606,70.08333333333333,114.74734848484847,72.5,114.73863636363636C74.91666666666667,114.72992424242425,77.33333333333333,114.72121212121212,79.75,114.7125C82.16666666666667,114.70378787878789,84.58333333333333,114.69507575757576,87,114.68636363636364C89.41666666666667,114.67765151515151,91.83333333333333,114.66893939393938,94.25,114.66022727272727C96.66666666666667,114.65151515151514,99.08333333333334,114.64280303030304,101.50000000000001,114.63409090909092C103.91666666666667,114.6253787878788,106.33333333333334,114.61666666666667,108.75,114.60795454545455C111.16666666666667,114.59924242424242,113.58333333333333,114.5905303030303,116,114.58181818181818C118.41666666666667,114.57310606060605,120.83333333333334,114.56439393939394,123.25000000000001,114.55568181818181C125.66666666666667,114.54696969696968,128.08333333333334,114.53825757575756,130.5,114.52954545454544C132.91666666666666,114.52083333333333,135.33333333333334,114.51212121212122,137.75,114.5034090909091C140.16666666666666,114.49469696969699,142.58333333333334,114.48598484848486,145,114.47727272727273C147.41666666666666,114.4685606060606,149.83333333333334,114.4598484848485,152.25,114.45113636363637C154.66666666666666,114.44242424242424,157.08333333333334,114.43371212121212,159.5,114.425C161.91666666666666,114.41628787878787,164.33333333333334,114.40757575757574,166.75,114.39886363636363C169.16666666666666,114.39015151515152,171.58333333333334,114.38143939393939,174,114.37272727272727C176.41666666666666,114.36401515151516,178.83333333333334,114.35530303030302,181.25,114.3465909090909C183.66666666666666,114.3378787878788,186.08333333333334,114.32916666666667,188.5,114.32045454545455C190.91666666666666,114.31174242424244,193.33333333333334,114.30303030303031,195.75,114.29431818181818C198.16666666666669,114.28560606060606,200.58333333333334,114.27689393939394,203.00000000000003,114.26818181818182C205.41666666666669,114.25946969696969,207.83333333333331,114.25075757575756,210.24999999999997,114.24204545454545C212.66666666666666,114.23333333333332,215.08333333333331,114.22462121212122,217.5,114.2159090909091C219.91666666666666,114.20719696969698,222.33333333333334,114.19848484848485,224.75,114.18977272727273C227.16666666666666,114.1810606060606,229.58333333333334,114.17234848484847,232,114.16363636363636C234.41666666666666,114.15492424242424,236.83333333333334,114.14621212121212,239.25,114.1375C241.66666666666669,114.12878787878788,244.08333333333334,114.12007575757576,246.50000000000003,114.11136363636363C248.91666666666669,114.10265151515152,251.33333333333331,114.0939393939394,253.74999999999997,114.08522727272728C256.16666666666663,114.07651515151515,258.5833333333333,114.06780303030304,261,114.05909090909091C263.4166666666667,114.05037878787878,265.8333333333333,114.04166666666667,268.25,114.03295454545454C270.6666666666667,114.02424242424242,273.0833333333333,114.0155303030303,275.5,114.00681818181818C277.9166666666667,113.99810606060605,280.3333333333333,113.98939393939392,282.75,113.98068181818181C285.1666666666667,113.9719696969697,287.5833333333333,113.96325757575758,290,113.95454545454547C292.4166666666667,113.94583333333335,294.8333333333333,113.93712121212123,297.25,113.9284090909091C299.6666666666667,113.91969696969697,302.0833333333333,113.91098484848486,304.5,113.90227272727273C306.9166666666667,113.8935606060606,309.3333333333333,113.88484848484849,311.75,113.87613636363636C314.1666666666667,113.86742424242424,316.5833333333333,113.85871212121211,319,113.85C321.4166666666667,113.84128787878788,323.8333333333333,113.83257575757575,326.25,113.82386363636364C328.6666666666667,113.81515151515153,331.0833333333333,113.8064393939394,333.5,113.79772727272727C335.9166666666667,113.78901515151514,338.3333333333333,113.78030303030302,340.75,113.7715909090909C343.1666666666667,113.76287878787879,345.5833333333333,113.75416666666666,348,113.74545454545455C350.4166666666667,113.73674242424244,352.8333333333333,113.72803030303031,355.25,113.71931818181818C357.6666666666667,113.71060606060605,360.0833333333333,113.70189393939393,362.5,113.69318181818181C364.9166666666667,113.6844696969697,367.3333333333333,113.67575757575757,369.75,113.66704545454546C372.1666666666667,113.65833333333335,374.5833333333333,113.64962121212122,377,113.64090909090909C379.4166666666667,113.63219696969696,381.8333333333333,113.62348484848485,384.25,113.61477272727272C386.6666666666667,113.6060606060606,389.0833333333333,113.59734848484847,391.5,113.58863636363635C393.9166666666667,113.57992424242423,396.33333333333337,113.57121212121211,398.75000000000006,113.5625C401.16666666666674,113.55378787878789,403.58333333333337,113.54507575757577,406.00000000000006,113.53636363636365C408.4166666666667,113.52765151515153,410.8333333333333,113.5189393939394,413.24999999999994,113.51022727272728C415.66666666666663,113.50151515151515,418.08333333333326,113.49280303030304,420.49999999999994,113.48409090909091C422.91666666666663,113.47537878787878,425.3333333333333,113.46666666666667,427.75,113.45795454545454C430.1666666666667,113.44924242424241,432.5833333333333,113.44053030303029,435,113.43181818181817C437.4166666666667,113.42310606060606,439.8333333333333,113.41439393939393,442.25,113.40568181818182C444.6666666666667,113.3969696969697,447.0833333333333,113.38825757575758,449.5,113.37954545454546C451.9166666666667,113.37083333333335,454.3333333333333,113.36212121212122,456.75,113.3534090909091C459.1666666666667,113.34469696969697,461.5833333333333,113.33598484848486,464,113.32727272727273C466.4166666666667,113.3185606060606,468.8333333333333,113.30984848484849,471.25,113.30113636363636C473.6666666666667,113.29242424242423,476.0833333333333,113.2837121212121,478.5,113.27499999999999C480.9166666666667,113.26628787878786,483.33333333333337,113.25757575757576,485.75000000000006,113.24886363636364C488.16666666666674,113.24015151515152,490.58333333333337,113.2314393939394,493.00000000000006,113.22272727272727C495.4166666666667,113.21401515151516,497.8333333333333,113.20530303030303,500.24999999999994,113.19659090909092C502.66666666666663,113.18787878787879,505.08333333333326,113.17916666666667,507.49999999999994,113.17045454545455C509.91666666666663,113.16174242424242,512.3333333333333,113.1530303030303,514.75,113.14431818181818C517.1666666666666,113.13560606060607,519.5833333333334,113.12689393939394,522,113.11818181818182C524.4166666666666,113.10946969696971,526.8333333333334,113.10075757575758,529.25,113.09204545454546C531.6666666666666,113.08333333333333,534.0833333333334,113.07462121212122,536.5,113.06590909090909C538.9166666666666,113.05719696969696,541.3333333333334,113.04848484848485,543.75,113.03977272727272C546.1666666666666,113.03106060606059,548.5833333333334,113.02234848484846,551,113.01363636363635C553.4166666666666,113.00492424242424,555.8333333333334,112.99621212121212,558.25,112.98750000000001C560.6666666666666,112.9787878787879,563.0833333333334,112.97007575757577,565.5,112.96136363636364C567.9166666666666,112.95265151515152,570.3333333333334,112.9439393939394,572.75,112.93522727272727C575.1666666666666,112.92651515151515,577.5833333333334,112.92651515151515,580,112.9090909090909C582.4166666666666,112.89166666666667,584.8333333333334,112.42411616161615,587.25,112.18162878787878C589.6666666666666,111.9391414141414,592.0833333333334,111.69665404040404,594.5,111.45416666666667C596.9166666666666,111.21167929292929,599.3333333333334,110.96919191919193,601.75,110.72670454545455C604.1666666666666,110.48421717171718,606.5833333333334,110.2417297979798,609,109.99924242424242C611.4166666666666,109.75675505050505,613.8333333333334,109.51426767676767,616.25,109.2717803030303C618.6666666666666,109.02929292929292,621.0833333333334,108.78680555555556,623.5,108.54431818181818C625.9166666666666,108.30183080808081,628.3333333333334,108.05934343434343,630.75,107.81685606060606C633.1666666666666,107.57436868686868,635.5833333333334,107.3318813131313,638,107.08939393939393C640.4166666666666,106.84690656565655,642.8333333333334,106.60441919191919,645.25,106.36193181818182C647.6666666666666,106.11944444444444,650.0833333333334,105.87695707070708,652.5,105.6344696969697C654.9166666666666,105.39198232323233,657.3333333333334,105.14949494949495,659.75,104.90700757575758C662.1666666666666,104.6645202020202,664.5833333333334,104.42203282828282,667,104.17954545454545C669.4166666666666,103.93705808080807,671.8333333333334,103.69457070707071,674.25,103.45208333333333C676.6666666666666,103.20959595959596,679.0833333333334,102.9671085858586,681.5,102.72462121212122C683.9166666666666,102.48213383838385,686.3333333333334,102.23964646464647,688.75,101.9971590909091C691.1666666666666,101.75467171717172,693.5833333333334,101.51218434343434,696,101.26969696969697C698.4166666666666,101.02720959595959,700.8333333333334,100.78472222222223,703.25,100.54223484848485C705.6666666666666,100.29974747474748,708.0833333333334,100.0572601010101,710.5,99.81477272727273C712.9166666666666,99.57228535353535,715.3333333333334,99.32979797979797,717.75,99.0873106060606C720.1666666666666,98.84482323232322,722.5833333333334,98.60233585858585,725,98.35984848484847C727.4166666666666,98.1173611111111,729.8333333333334,97.87487373737375,732.25,97.63238636363637C734.6666666666666,97.389898989899,737.0833333333334,97.14741161616162,739.5,96.90492424242424C741.9166666666666,96.66243686868687,744.3333333333334,96.41994949494949,746.75,96.17746212121212C749.1666666666666,95.93497474747474,751.5833333333334,95.69248737373738,754,95.45C756.4166666666666,95.20751262626263,758.8333333333334,94.96502525252525,761.25,94.72253787878788C763.6666666666666,94.4800505050505,766.0833333333334,94.23756313131314,768.5,93.99507575757576C770.9166666666666,93.75258838383839,773.3333333333334,93.51010101010101,775.75,93.26761363636363C778.1666666666666,93.02512626262626,780.5833333333334,92.78263888888888,783,92.5401515151515C785.4166666666667,92.29766414141413,787.8333333333334,92.05517676767677,790.2500000000001,91.8126893939394C792.6666666666667,91.57020202020202,795.0833333333335,91.32771464646464,797.5000000000001,91.08522727272727C799.9166666666667,90.84273989898989,802.3333333333335,90.60025252525253,804.7500000000001,90.35776515151515C807.1666666666667,90.11527777777778,809.5833333333335,89.87279040404042,812.0000000000001,89.63030303030304C814.4166666666667,89.38781565656566,816.8333333333333,89.14532828282829,819.2499999999999,88.90284090909091C821.6666666666665,88.66035353535354,824.0833333333333,88.41786616161616,826.4999999999999,88.17537878787878C828.9166666666665,87.93289141414141,831.3333333333333,87.69040404040403,833.7499999999999,87.44791666666666C836.1666666666665,87.20542929292928,838.5833333333333,86.96294191919193,840.9999999999999,86.72045454545456C843.4166666666666,86.47796717171718,845.8333333333333,86.2354797979798,848.25,85.99299242424243C850.6666666666666,85.75050505050505,853.0833333333334,85.50801767676768,855.5,85.2655303030303C857.9166666666666,85.02304292929293,860.3333333333334,84.78055555555555,862.75,84.53806818181818C865.1666666666666,84.2955808080808,867.5833333333334,84.05309343434344,870,83.81060606060606C872.4166666666666,83.56811868686869,874.8333333333334,83.32563131313131,877.25,83.08314393939393C879.6666666666666,82.84065656565656,882.0833333333334,82.59816919191918,884.5,82.35568181818181C886.9166666666666,82.11319444444443,889.3333333333334,81.87070707070707,891.75,81.6282196969697C894.1666666666666,81.38573232323232,896.5833333333334,81.14324494949496,899,80.90075757575758C901.4166666666666,80.6582702020202,903.8333333333334,80.41578282828283,906.25,80.17329545454545C908.6666666666666,79.93080808080808,911.0833333333334,79.68832070707072,913.5,79.44583333333334C915.9166666666666,79.20334595959596,918.3333333333334,78.96085858585859,920.75,78.71837121212121C923.1666666666666,78.47588383838384,925.5833333333334,78.23339646464648,928,77.9909090909091C930.4166666666666,77.74842171717172,932.8333333333334,77.50593434343435,935.25,77.26344696969697C937.6666666666666,77.0209595959596,940.0833333333334,76.77847222222222,942.5,76.53598484848484C944.9166666666666,76.29349747474747,947.3333333333334,76.0510101010101,949.75,75.80852272727273C952.1666666666666,75.56603535353536,954.5833333333334,75.32354797979798,957,75.0810606060606C959.4166666666666,74.83857323232323,961.8333333333334,74.59608585858587,964.25,74.35359848484849C966.6666666666667,74.11111111111111,969.0833333333334,73.86862373737374,971.5000000000001,73.62613636363636C973.9166666666667,73.38364898989899,976.3333333333335,73.14116161616161,978.7500000000001,72.89867424242424C981.1666666666667,72.65618686868686,983.5833333333335,72.4136994949495,986.0000000000001,72.17121212121212C988.4166666666667,71.92872474747475,990.8333333333335,71.68623737373737,993.2500000000001,71.44375C995.6666666666667,71.20126262626262,998.0833333333333,70.95877525252524,1000.4999999999999,70.71628787878788C1002.9166666666665,70.4738005050505,1005.3333333333333,70.23131313131314,1007.7499999999999,69.98882575757577C1010.1666666666665,69.74633838383839,1012.5833333333333,69.50385101010102,1014.9999999999999,69.26136363636364C1017.4166666666665,69.01887626262626,1019.8333333333333,68.77638888888889,1022.2499999999999,68.53390151515151C1024.6666666666665,68.29141414141414,1027.0833333333333,68.04892676767676,1029.5,67.80643939393939C1031.9166666666667,67.56395202020201,1034.3333333333333,67.32146464646465,1036.75,67.07897727272727C1039.1666666666667,66.8364898989899,1041.5833333333333,66.59400252525252,1044,66.35151515151514C1046.4166666666667,66.10902777777777,1048.8333333333333,65.8665404040404,1051.25,65.62405303030303C1053.6666666666667,65.38156565656566,1056.0833333333333,65.13907828282828,1058.5,64.8965909090909C1060.9166666666667,64.65410353535353,1063.3333333333333,64.41161616161617,1065.75,64.16912878787879C1068.1666666666667,63.92664141414142,1070.5833333333333,63.68415404040405,1073,63.44166666666668C1075.4166666666667,63.1991792929293,1077.8333333333333,62.95669191919192,1080.25,62.71420454545454C1082.6666666666667,62.47171717171717,1085.0833333333333,62.2292297979798,1087.5,61.98674242424243C1089.9166666666667,61.74425505050506,1092.3333333333333,61.501767676767685,1094.75,61.25928030303031C1097.1666666666667,61.01679292929293,1099.5833333333333,60.77430555555556,1102,60.53181818181818C1104.4166666666667,60.289330808080805,1106.8333333333333,60.04684343434344,1109.25,59.80435606060606C1111.6666666666667,59.561868686868685,1114.0833333333333,59.31938131313131,1116.5,59.07689393939393C1118.9166666666667,58.83440656565656,1121.3333333333333,58.59191919191918,1123.75,58.34943181818181C1126.1666666666667,58.106944444444444,1128.5833333333333,57.86445707070709,1131,57.621969696969714C1133.4166666666667,57.37948232323234,1135.8333333333333,57.136994949494955,1138.25,56.89450757575758C1140.6666666666667,56.6520202020202,1143.0833333333333,56.40953282828283,1145.5,56.16704545454545C1147.9166666666667,55.924558080808076,1150.3333333333333,55.68207070707071,1152.75,55.43958333333333C1155.1666666666667,55.197095959595956,1157.5833333333333,54.954608585858594,1160,54.71212121212122C1162.4166666666667,54.46963383838384,1164.8333333333333,54.227146464646474,1167.25,53.9846590909091C1169.6666666666667,53.74217171717172,1172.0833333333333,53.49968434343434,1174.5,53.25719696969696C1176.9166666666667,53.01470959595959,1179.3333333333333,52.772222222222226,1181.75,52.52973484848485C1184.1666666666667,52.287247474747474,1186.5833333333333,52.0447601010101,1189,51.80227272727272C1191.4166666666667,51.55978535353535,1193.8333333333333,51.31729797979797,1196.25,51.0748106060606C1198.6666666666667,50.83232323232323,1201.0833333333333,50.58983585858586,1203.5,50.34734848484849C1205.9166666666667,50.10486111111112,1208.3333333333333,49.862373737373744,1210.75,49.61988636363637C1213.1666666666667,49.37739898989899,1215.5833333333333,49.134911616161624,1218,48.89242424242425C1220.4166666666667,48.64993686868687,1222.8333333333333,48.407449494949496,1225.25,48.16496212121212C1227.6666666666667,47.922474747474745,1230.0833333333333,47.679987373737376,1232.5,47.4375C1234.9166666666667,47.195012626262624,1237.3333333333333,46.95252525252526,1239.75,46.71003787878789C1242.1666666666667,46.46755050505051,1244.5833333333333,46.22506313131314,1247,45.982575757575766C1249.4166666666667,45.74008838383839,1251.8333333333333,45.497601010101015,1254.25,45.25511363636364C1256.6666666666667,45.01262626262626,1259.0833333333333,44.770138888888894,1261.5,44.52765151515152C1263.9166666666667,44.28516414141414,1266.3333333333333,44.04267676767677,1268.75,43.80018939393939C1271.1666666666667,43.557702020202015,1273.5833333333333,43.31521464646466,1276,43.072727272727285C1278.4166666666667,42.83023989898991,1280.8333333333333,42.58775252525252,1283.25,42.34526515151514C1285.6666666666667,42.10277777777777,1288.0833333333333,41.86029040404041,1290.5,41.61780303030304C1292.9166666666667,41.37531565656566,1295.3333333333333,41.132828282828285,1297.75,40.89034090909091C1300.1666666666667,40.64785353535353,1302.5833333333333,40.405366161616165,1305,40.16287878787879C1307.4166666666667,39.92039141414141,1309.8333333333333,39.67790404040403,1312.25,39.43541666666666C1314.6666666666667,39.19292929292929,1317.0833333333333,38.95044191919193,1319.5,38.707954545454555C1321.9166666666667,38.46546717171718,1324.3333333333333,38.2229797979798,1326.75,37.98049242424242C1329.1666666666667,37.738005050505045,1331.5833333333333,37.49551767676767,1334,37.25303030303029C1336.4166666666667,37.01054292929292,1338.8333333333333,36.76805555555555,1341.25,36.52556818181818C1343.6666666666667,36.28308080808081,1346.0833333333333,36.040593434343435,1348.5,35.79810606060606C1350.9166666666667,35.555618686868684,1353.3333333333333,35.31313131313131,1355.75,35.07064393939394C1358.1666666666667,34.82815656565657,1360.5833333333333,34.585669191919195,1363,34.343181818181826C1365.4166666666667,34.10069444444446,1367.8333333333333,33.85820707070708,1370.25,33.615719696969705C1372.6666666666667,33.37323232323233,1375.0833333333333,33.13074494949494,1377.5,32.888257575757564C1379.9166666666667,32.64577020202019,1382.3333333333333,32.40328282828281,1384.75,32.16079545454544C1387.1666666666667,31.91830808080807,1389.5833333333333,31.6758207070707,1392,31.43333333333333C1394.4166666666667,31.19084595959596,1396.8333333333333,30.948358585858593,1399.25,30.70587121212122C1401.6666666666667,30.463383838383848,1404.0833333333333,30.22089646464646,1406.5,29.978409090909086C1408.9166666666667,29.73592171717171,1411.3333333333333,29.493434343434345,1413.75,29.250946969696972C1416.1666666666667,29.0084595959596,1418.5833333333333,28.76597222222222,1421,28.52348484848485C1423.4166666666667,28.280997474747476,1425.8333333333333,28.03851010101011,1428.25,27.79602272727274C1430.6666666666667,27.553535353535366,1433.0833333333333,27.31104797979798,1435.5,27.068560606060604C1437.9166666666667,26.82607323232323,1440.3333333333333,26.583585858585852,1442.75,26.34109848484848C1445.1666666666667,26.098611111111108,1447.5833333333333,25.85612373737374,1450,25.61363636363637" fill="transparent" stroke-linecap="round" stroke="#B6509E" stroke-width="2"></path><path class="visx-linepath" d="M0,109.77272727259658C2.4166666666666665,109.75094696962073,4.833333333333334,109.72916666664489,7.25,109.70738636363636C9.666666666666666,109.68560606062783,12.083333333333334,109.66382575757575,14.5,109.64204545454545C16.916666666666668,109.62026515151516,19.333333333333332,109.59848484848484,21.75,109.57670454545455C24.166666666666668,109.55492424242425,26.583333333333332,109.53314393939394,29,109.51136363636364C31.416666666666668,109.48958333333334,33.833333333333336,109.46780303030302,36.25,109.44602272727272C38.666666666666664,109.42424242424242,41.083333333333336,109.40246212121212,43.5,109.38068181818183C45.91666666666667,109.35890151515153,48.333333333333336,109.33712121212122,50.75000000000001,109.3153409090909C53.16666666666667,109.29356060606061,55.583333333333336,109.2717803030303,58,109.25C60.416666666666664,109.2282196969697,62.833333333333336,109.20643939393939,65.25,109.1846590909091C67.66666666666667,109.1628787878788,70.08333333333333,109.14109848484848,72.5,109.11931818181819C74.91666666666667,109.09753787878789,77.33333333333333,109.07575757575756,79.75,109.05397727272727C82.16666666666667,109.03219696969697,84.58333333333333,109.01041666666666,87,108.98863636363636C89.41666666666667,108.96685606060606,91.83333333333333,108.94507575757575,94.25,108.92329545454545C96.66666666666667,108.90151515151514,99.08333333333334,108.87973484848483,101.50000000000001,108.85795454545453C103.91666666666667,108.83617424242424,106.33333333333334,108.81439393939394,108.75,108.79261363636364C111.16666666666667,108.77083333333334,113.58333333333333,108.74905303030302,116,108.72727272727272C118.41666666666667,108.70549242424241,120.83333333333334,108.68371212121211,123.25000000000001,108.66193181818181C125.66666666666667,108.64015151515152,128.08333333333334,108.6183712121212,130.5,108.5965909090909C132.91666666666666,108.57481060606061,135.33333333333334,108.5530303030303,137.75,108.53125C140.16666666666666,108.5094696969697,142.58333333333334,108.48768939393939,145,108.4659090909091C147.41666666666666,108.4441287878788,149.83333333333334,108.42234848484848,152.25,108.40056818181819C154.66666666666666,108.37878787878789,157.08333333333334,108.35700757575756,159.5,108.33522727272727C161.91666666666666,108.31344696969697,164.33333333333334,108.29166666666667,166.75,108.26988636363637C169.16666666666666,108.24810606060608,171.58333333333334,108.22632575757575,174,108.20454545454545C176.41666666666666,108.18276515151516,178.83333333333334,108.16098484848484,181.25,108.13920454545455C183.66666666666666,108.11742424242425,186.08333333333334,108.09564393939394,188.5,108.07386363636364C190.91666666666666,108.05208333333334,193.33333333333334,108.03030303030303,195.75,108.00852272727273C198.16666666666669,107.98674242424242,200.58333333333334,107.96496212121212,203.00000000000003,107.94318181818181C205.41666666666669,107.92140151515152,207.83333333333331,107.8996212121212,210.24999999999997,107.8778409090909C212.66666666666666,107.85606060606061,215.08333333333331,107.8342803030303,217.5,107.8125C219.91666666666666,107.7907196969697,222.33333333333334,107.76893939393939,224.75,107.7471590909091C227.16666666666666,107.7253787878788,229.58333333333334,107.70359848484848,232,107.68181818181819C234.41666666666666,107.66003787878789,236.83333333333334,107.63825757575756,239.25,107.61647727272727C241.66666666666669,107.59469696969697,244.08333333333334,107.57291666666667,246.50000000000003,107.55113636363637C248.91666666666669,107.52935606060608,251.33333333333331,107.50757575757575,253.74999999999997,107.48579545454545C256.16666666666663,107.46401515151514,258.5833333333333,107.44223484848486,261,107.42045454545455C263.4166666666667,107.39867424242425,265.8333333333333,107.37689393939392,268.25,107.35511363636363C270.6666666666667,107.33333333333333,273.0833333333333,107.31155303030303,275.5,107.28977272727273C277.9166666666667,107.26799242424244,280.3333333333333,107.24621212121211,282.75,107.22443181818181C285.1666666666667,107.20265151515152,287.5833333333333,107.18087121212122,290,107.15909090909092C292.4166666666667,107.13731060606062,294.8333333333333,107.1155303030303,297.25,107.09375C299.6666666666667,107.0719696969697,302.0833333333333,107.05018939393939,304.5,107.0284090909091C306.9166666666667,107.0066287878788,309.3333333333333,106.98484848484848,311.75,106.96306818181819C314.1666666666667,106.94128787878789,316.5833333333333,106.91950757575758,319,106.89772727272728C321.4166666666667,106.87594696969698,323.8333333333333,106.85416666666666,326.25,106.83238636363636C328.6666666666667,106.81060606060606,331.0833333333333,106.78882575757576,333.5,106.76704545454547C335.9166666666667,106.74526515151517,338.3333333333333,106.72348484848484,340.75,106.70170454545455C343.1666666666667,106.67992424242425,345.5833333333333,106.65814393939394,348,106.63636363636364C350.4166666666667,106.61458333333334,352.8333333333333,106.59280303030303,355.25,106.57102272727273C357.6666666666667,106.54924242424244,360.0833333333333,106.52746212121211,362.5,106.50568181818181C364.9166666666667,106.48390151515152,367.3333333333333,106.4621212121212,369.75,106.4403409090909C372.1666666666667,106.41856060606061,374.5833333333333,106.3967803030303,377,106.375C379.4166666666667,106.3532196969697,381.8333333333333,106.33143939393939,384.25,106.3096590909091C386.6666666666667,106.2878787878788,389.0833333333333,106.26609848484847,391.5,106.24431818181817C393.9166666666667,106.22253787878788,396.33333333333337,106.20075757575758,398.75000000000006,106.17897727272728C401.16666666666674,106.15719696969698,403.58333333333337,106.13541666666667,406.00000000000006,106.11363636363636C408.4166666666667,106.09185606060606,410.8333333333333,106.07007575757575,413.24999999999994,106.04829545454545C415.66666666666663,106.02651515151516,418.08333333333326,106.00473484848484,420.49999999999994,105.98295454545455C422.91666666666663,105.96117424242425,425.3333333333333,105.93939393939395,427.75,105.91761363636364C430.1666666666667,105.89583333333334,432.5833333333333,105.87405303030302,435,105.85227272727272C437.4166666666667,105.83049242424242,439.8333333333333,105.80871212121212,442.25,105.78693181818183C444.6666666666667,105.76515151515153,447.0833333333333,105.7433712121212,449.5,105.7215909090909C451.9166666666667,105.69981060606061,454.3333333333333,105.6780303030303,456.75,105.65625C459.1666666666667,105.6344696969697,461.5833333333333,105.61268939393939,464,105.5909090909091C466.4166666666667,105.5691287878788,468.8333333333333,105.54734848484848,471.25,105.52556818181819C473.6666666666667,105.50378787878789,476.0833333333333,105.48200757575756,478.5,105.46022727272727C480.9166666666667,105.43844696969695,483.33333333333337,105.41666666666666,485.75000000000006,105.39488636363636C488.16666666666674,105.37310606060606,490.58333333333337,105.35132575757576,493.00000000000006,105.32954545454545C495.4166666666667,105.30776515151516,497.8333333333333,105.28598484848483,500.24999999999994,105.26420454545453C502.66666666666663,105.24242424242424,505.08333333333326,105.22064393939394,507.49999999999994,105.19886363636364C509.91666666666663,105.17708333333334,512.3333333333333,105.15530303030303,514.75,105.13352272727272C517.1666666666666,105.11174242424242,519.5833333333334,105.08996212121211,522,105.06818181818181C524.4166666666666,105.04640151515152,526.8333333333334,105.0246212121212,529.25,105.0028409090909C531.6666666666666,104.98106060606061,534.0833333333334,104.9592803030303,536.5,104.9375C538.9166666666666,104.9157196969697,541.3333333333334,104.89393939393938,543.75,104.87215909090908C546.1666666666666,104.85037878787878,548.5833333333334,104.82859848484848,551,104.80681818181819C553.4166666666666,104.78503787878789,555.8333333333334,104.76325757575756,558.25,104.74147727272727C560.6666666666666,104.71969696969697,563.0833333333334,104.69791666666667,565.5,104.67613636363637C567.9166666666666,104.65435606060608,570.3333333333334,104.63257575757575,572.75,104.61079545454545C575.1666666666666,104.58901515151516,577.5833333333334,104.58901515151516,580,104.54545454545455C582.4166666666666,104.50189393939394,584.8333333333334,104.06047979797981,587.25,103.81799242424243C589.6666666666666,103.57550505050506,592.0833333333334,103.33301767676768,594.5,103.0905303030303C596.9166666666666,102.84804292929293,599.3333333333334,102.60555555555555,601.75,102.36306818181818C604.1666666666666,102.1205808080808,606.5833333333334,101.87809343434344,609,101.63560606060607C611.4166666666666,101.39311868686869,613.8333333333334,101.15063131313131,616.25,100.90814393939394C618.6666666666666,100.66565656565656,621.0833333333334,100.42316919191919,623.5,100.18068181818181C625.9166666666666,99.93819444444443,628.3333333333334,99.69570707070707,630.75,99.4532196969697C633.1666666666666,99.21073232323232,635.5833333333334,98.96824494949495,638,98.72575757575757C640.4166666666666,98.4832702020202,642.8333333333334,98.24078282828283,645.25,97.99829545454546C647.6666666666666,97.75580808080808,650.0833333333334,97.5133207070707,652.5,97.27083333333333C654.9166666666666,97.02834595959595,657.3333333333334,96.78585858585859,659.75,96.54337121212122C662.1666666666666,96.30088383838384,664.5833333333334,96.05839646464646,667,95.81590909090909C669.4166666666666,95.57342171717171,671.8333333333334,95.33093434343435,674.25,95.08844696969697C676.6666666666666,94.8459595959596,679.0833333333334,94.60347222222222,681.5,94.36098484848485C683.9166666666666,94.11849747474747,686.3333333333334,93.87601010101011,688.75,93.63352272727273C691.1666666666666,93.39103535353536,693.5833333333334,93.14854797979798,696,92.9060606060606C698.4166666666666,92.66357323232323,700.8333333333334,92.42108585858585,703.25,92.17859848484848C705.6666666666666,91.9361111111111,708.0833333333334,91.69362373737373,710.5,91.45113636363635C712.9166666666666,91.20864898989898,715.3333333333334,90.96616161616163,717.75,90.72367424242425C720.1666666666666,90.48118686868688,722.5833333333334,90.2386994949495,725,89.99621212121212C727.4166666666666,89.75372474747475,729.8333333333334,89.51123737373737,732.25,89.26875C734.6666666666666,89.02626262626262,737.0833333333334,88.78377525252525,739.5,88.54128787878787C741.9166666666666,88.2988005050505,744.3333333333334,88.05631313131315,746.75,87.81382575757577C749.1666666666666,87.5713383838384,751.5833333333334,87.328851010101,754,87.08636363636363C756.4166666666666,86.84387626262625,758.8333333333334,86.60138888888889,761.25,86.35890151515152C763.6666666666666,86.11641414141414,766.0833333333334,85.87392676767676,768.5,85.63143939393939C770.9166666666666,85.38895202020201,773.3333333333334,85.14646464646465,775.75,84.90397727272727C778.1666666666666,84.6614898989899,780.5833333333334,84.41900252525252,783,84.17651515151515C785.4166666666667,83.93402777777777,787.8333333333334,83.6915404040404,790.2500000000001,83.44905303030302C792.6666666666667,83.20656565656564,795.0833333333335,82.96407828282828,797.5000000000001,82.7215909090909C799.9166666666667,82.47910353535353,802.3333333333335,82.23661616161617,804.7500000000001,81.9941287878788C807.1666666666667,81.75164141414142,809.5833333333335,81.50915404040404,812.0000000000001,81.26666666666667C814.4166666666667,81.02417929292929,816.8333333333333,80.78169191919191,819.2499999999999,80.53920454545455C821.6666666666665,80.29671717171718,824.0833333333333,80.05422979797981,826.4999999999999,79.81174242424244C828.9166666666665,79.56925505050506,831.3333333333333,79.32676767676767,833.7499999999999,79.0842803030303C836.1666666666665,78.84179292929292,838.5833333333333,78.59930555555556,840.9999999999999,78.35681818181818C843.4166666666666,78.11433080808081,845.8333333333333,77.87184343434343,848.25,77.62935606060606C850.6666666666666,77.38686868686868,853.0833333333334,77.14438131313132,855.5,76.90189393939394C857.9166666666666,76.65940656565657,860.3333333333334,76.41691919191919,862.75,76.17443181818182C865.1666666666666,75.93194444444444,867.5833333333334,75.68945707070706,870,75.44696969696969C872.4166666666666,75.20448232323231,874.8333333333334,74.96199494949495,877.25,74.71950757575758C879.6666666666666,74.4770202020202,882.0833333333334,74.23453282828282,884.5,73.99204545454545C886.9166666666666,73.74955808080807,889.3333333333334,73.50707070707071,891.75,73.26458333333333C894.1666666666666,73.02209595959596,896.5833333333334,72.77960858585858,899,72.5371212121212C901.4166666666666,72.29463383838383,903.8333333333334,72.05214646464647,906.25,71.8096590909091C908.6666666666666,71.56717171717172,911.0833333333334,71.32468434343436,913.5,71.08219696969698C915.9166666666666,70.8397095959596,918.3333333333334,70.59722222222223,920.75,70.35473484848485C923.1666666666666,70.11224747474748,925.5833333333334,69.8697601010101,928,69.62727272727273C930.4166666666666,69.38478535353535,932.8333333333334,69.14229797979799,935.25,68.89981060606061C937.6666666666666,68.65732323232324,940.0833333333334,68.41483585858586,942.5,68.17234848484848C944.9166666666666,67.92986111111111,947.3333333333334,67.68737373737373,949.75,67.44488636363636C952.1666666666666,67.20239898989898,954.5833333333334,66.95991161616162,957,66.71742424242424C959.4166666666666,66.47493686868687,961.8333333333334,66.2324494949495,964.25,65.98996212121213C966.6666666666667,65.74747474747475,969.0833333333334,65.50498737373736,971.5000000000001,65.26249999999999C973.9166666666667,65.02001262626261,976.3333333333335,64.77752525252525,978.7500000000001,64.53503787878788C981.1666666666667,64.2925505050505,983.5833333333335,64.05006313131314,986.0000000000001,63.80757575757577C988.4166666666667,63.5650883838384,990.8333333333335,63.322601010101025,993.2500000000001,63.08011363636364C995.6666666666667,62.837626262626266,998.0833333333333,62.595138888888876,1000.4999999999999,62.35265151515151C1002.9166666666665,62.11016414141413,1005.3333333333333,61.86767676767677,1007.7499999999999,61.625189393939394C1010.1666666666665,61.38270202020202,1012.5833333333333,61.14021464646465,1014.9999999999999,60.89772727272727C1017.4166666666665,60.6552398989899,1019.8333333333333,60.41275252525252,1022.2499999999999,60.170265151515146C1024.6666666666665,59.92777777777777,1027.0833333333333,59.6852904040404,1029.5,59.442803030303025C1031.9166666666667,59.20031565656566,1034.3333333333333,58.957828282828274,1036.75,58.715340909090905C1039.1666666666667,58.472853535353536,1041.5833333333333,58.23036616161617,1044,57.98787878787879C1046.4166666666667,57.745391414141416,1048.8333333333333,57.50290404040404,1051.25,57.260416666666664C1053.6666666666667,57.01792929292929,1056.0833333333333,56.77544191919192,1058.5,56.532954545454544C1060.9166666666667,56.29046717171717,1063.3333333333333,56.04797979797981,1065.75,55.80549242424243C1068.1666666666667,55.563005050505055,1070.5833333333333,55.32051767676767,1073,55.078030303030296C1075.4166666666667,54.83554292929292,1077.8333333333333,54.59305555555555,1080.25,54.350568181818176C1082.6666666666667,54.1080808080808,1085.0833333333333,53.86559343434344,1087.5,53.62310606060606C1089.9166666666667,53.38061868686869,1092.3333333333333,53.13813131313131,1094.75,52.89564393939394C1097.1666666666667,52.65315656565657,1099.5833333333333,52.410669191919204,1102,52.16818181818183C1104.4166666666667,51.92569444444445,1106.8333333333333,51.68320707070707,1109.25,51.440719696969694C1111.6666666666667,51.19823232323232,1114.0833333333333,50.95574494949496,1116.5,50.71325757575758C1118.9166666666667,50.470770202020205,1121.3333333333333,50.228282828282836,1123.75,49.98579545454546C1126.1666666666667,49.743308080808085,1128.5833333333333,49.50082070707071,1131,49.25833333333333C1133.4166666666667,49.01584595959596,1135.8333333333333,48.77335858585859,1138.25,48.53087121212121C1140.6666666666667,48.28838383838384,1143.0833333333333,48.04589646464646,1145.5,47.803409090909085C1147.9166666666667,47.56092171717171,1150.3333333333333,47.31843434343435,1152.75,47.07594696969698C1155.1666666666667,46.83345959595961,1157.5833333333333,46.59097222222223,1160,46.34848484848485C1162.4166666666667,46.105997474747475,1164.8333333333333,45.86351010101011,1167.25,45.62102272727273C1169.6666666666667,45.378535353535355,1172.0833333333333,45.13604797979798,1174.5,44.8935606060606C1176.9166666666667,44.65107323232323,1179.3333333333333,44.408585858585845,1181.75,44.16609848484847C1184.1666666666667,43.92361111111109,1186.5833333333333,43.68112373737373,1189,43.43863636363636C1191.4166666666667,43.196148989898994,1193.8333333333333,42.953661616161625,1196.25,42.71117424242425C1198.6666666666667,42.46868686868687,1201.0833333333333,42.2261994949495,1203.5,41.98371212121212C1205.9166666666667,41.741224747474746,1208.3333333333333,41.49873737373738,1210.75,41.25625C1213.1666666666667,41.013762626262626,1215.5833333333333,40.77127525252526,1218,40.52878787878788C1220.4166666666667,40.286300505050505,1222.8333333333333,40.043813131313144,1225.25,39.80132575757577C1227.6666666666667,39.55883838383839,1230.0833333333333,39.31635101010101,1232.5,39.07386363636363C1234.9166666666667,38.83137626262626,1237.3333333333333,38.588888888888874,1239.75,38.346401515151506C1242.1666666666667,38.10391414141414,1244.5833333333333,37.861426767676775,1247,37.6189393939394C1249.4166666666667,37.376452020202024,1251.8333333333333,37.133964646464634,1254.25,36.89147727272726C1256.6666666666667,36.64898989898988,1259.0833333333333,36.40650252525252,1261.5,36.16401515151515C1263.9166666666667,35.92152777777778,1266.3333333333333,35.67904040404041,1268.75,35.43655303030304C1271.1666666666667,35.19406565656567,1273.5833333333333,34.951578282828294,1276,34.70909090909092C1278.4166666666667,34.46660353535354,1280.8333333333333,34.22411616161615,1283.25,33.981628787878776C1285.6666666666667,33.7391414141414,1288.0833333333333,33.496654040404024,1290.5,33.254166666666656C1292.9166666666667,33.01167929292929,1295.3333333333333,32.76919191919191,1297.75,32.52670454545454C1300.1666666666667,32.284217171717174,1302.5833333333333,32.041729797979805,1305,31.799242424242433C1307.4166666666667,31.55675505050506,1309.8333333333333,31.31426767676767,1312.25,31.071780303030298C1314.6666666666667,30.829292929292926,1317.0833333333333,30.58680555555556,1319.5,30.34431818181819C1321.9166666666667,30.101830808080816,1324.3333333333333,29.85934343434344,1326.75,29.616856060606064C1329.1666666666667,29.37436868686869,1331.5833333333333,29.131881313131316,1334,28.88939393939394C1336.4166666666667,28.646906565656565,1338.8333333333333,28.404419191919192,1341.25,28.161931818181817C1343.6666666666667,27.91944444444444,1346.0833333333333,27.676957070707065,1348.5,27.434469696969693C1350.9166666666667,27.19198232323232,1353.3333333333333,26.94949494949496,1355.75,26.707007575757583C1358.1666666666667,26.464520202020207,1360.5833333333333,26.22203282828282,1363,25.979545454545445C1365.4166666666667,25.73705808080807,1367.8333333333333,25.494570707070704,1370.25,25.252083333333335C1372.6666666666667,25.009595959595966,1375.0833333333333,24.7671085858586,1377.5,24.524621212121225C1379.9166666666667,24.28213383838385,1382.3333333333333,24.039646464646463,1384.75,23.797159090909087C1387.1666666666667,23.55467171717171,1389.5833333333333,23.31218434343434,1392,23.069696969696967C1394.4166666666667,22.827209595959594,1396.8333333333333,22.58472222222223,1399.25,22.342234848484853C1401.6666666666667,22.099747474747478,1404.0833333333333,21.857260101010095,1406.5,21.61477272727272C1408.9166666666667,21.372285353535343,1411.3333333333333,21.129797979797967,1413.75,20.887310606060595C1416.1666666666667,20.644823232323223,1418.5833333333333,20.402335858585857,1421,20.159848484848485C1423.4166666666667,19.917361111111113,1425.8333333333333,19.674873737373748,1428.25,19.432386363636372C1430.6666666666667,19.189898989898996,1433.0833333333333,18.94741161616161,1435.5,18.704924242424237C1437.9166666666667,18.462436868686865,1440.3333333333333,18.2199494949495,1442.75,17.977462121212127C1445.1666666666667,17.734974747474755,1447.5833333333333,17.49248737373738,1450,17.250000000000004" fill="transparent" stroke-linecap="round" stroke="#E7C6DF" stroke-width="2"></path><g class="visx-group visx-axis visx-axis-bottom" transform="translate(0, 115)"><g class="visx-group visx-axis-tick" transform="translate(0, 0)"><line class="visx-line" x1="0" y1="0" x2="0" y2="8" fill="transparent" shape-rendering="crispEdges" stroke="#000" stroke-width="0" stroke-linecap="square"></line><svg x="0" y="0" font-size="10" style="overflow:visible"><text transform="" x="0" y="18" fill="#000" font-size="10" text-anchor="middle"><tspan x="0" dy="0em">0%</tspan></text></svg></g><g class="visx-group visx-axis-tick" transform="translate(0, 0)"><line class="visx-line" x1="362.5" y1="0" x2="362.5" y2="8" fill="transparent" shape-rendering="crispEdges" stroke="#000" stroke-width="0" stroke-linecap="square"></line><svg x="0" y="0" font-size="10" style="overflow:visible"><text transform="" x="362.5" y="18" fill="#000" font-size="10" text-anchor="middle"><tspan x="362.5" dy="0em">25%</tspan></text></svg></g><g class="visx-group visx-axis-tick" transform="translate(0, 0)"><line class="visx-line" x1="725" y1="0" x2="725" y2="8" fill="transparent" shape-rendering="crispEdges" stroke="#000" stroke-width="0" stroke-linecap="square"></line><svg x="0" y="0" font-size="10" style="overflow:visible"><text transform="" x="725" y="18" fill="#000" font-size="10" text-anchor="middle"><tspan x="725" dy="0em">50%</tspan></text></svg></g><g class="visx-group visx-axis-tick" transform="translate(0, 0)"><line class="visx-line" x1="1087.5" y1="0" x2="1087.5" y2="8" fill="transparent" shape-rendering="crispEdges" stroke="#000" stroke-width="0" stroke-linecap="square"></line><svg x="0" y="0" font-size="10" style="overflow:visible"><text transform="" x="1087.5" y="18" fill="#000" font-size="10" text-anchor="middle"><tspan x="1087.5" dy="0em">75%</tspan></text></svg></g><g class="visx-group visx-axis-tick" transform="translate(0, 0)"><line class="visx-line" x1="1450" y1="0" x2="1450" y2="8" fill="transparent" shape-rendering="crispEdges" stroke="#000" stroke-width="0" stroke-linecap="square"></line><svg x="0" y="0" font-size="10" style="overflow:visible"><text transform="" x="1450" y="18" fill="#000" font-size="10" text-anchor="middle"><tspan x="1450" dy="0em">100%</tspan></text></svg></g><line class="visx-line visx-axis-line" x1="0.5" y1="0" x2="1450.5" y2="0" fill="transparent" shape-rendering="crispEdges" stroke="#222" stroke-width="0"></line></g><g class="visx-group visx-axis visx-axis-left" transform="translate(0, 0)"><g class="visx-group visx-axis-tick" transform="translate(0, 0)"><line class="visx-line" x1="0" y1="115" x2="-8" y2="115" fill="transparent" shape-rendering="crispEdges" stroke="#222" stroke-width="0" stroke-linecap="square"></line><svg x="-30" y="0" font-size="8" style="overflow:visible"><text transform="" x="-8" y="115" fill="#000" font-size="8" text-anchor="start"><tspan x="-8" dy="0em">0%</tspan></text></svg></g><g class="visx-group visx-axis-tick" transform="translate(0, 0)"><line class="visx-line" x1="0" y1="62.72727272727272" x2="-8" y2="62.72727272727272" fill="transparent" shape-rendering="crispEdges" stroke="#222" stroke-width="0" stroke-linecap="square"></line><svg x="-30" y="0" font-size="8" style="overflow:visible"><text transform="" x="-8" y="62.72727272727272" fill="#000" font-size="8" text-anchor="start"><tspan x="-8" dy="0em">100%</tspan></text></svg></g><g class="visx-group visx-axis-tick" transform="translate(0, 0)"><line class="visx-line" x1="0" y1="10.454545454545459" x2="-8" y2="10.454545454545459" fill="transparent" shape-rendering="crispEdges" stroke="#222" stroke-width="0" stroke-linecap="square"></line><svg x="-30" y="0" font-size="8" style="overflow:visible"><text transform="" x="-8" y="10.454545454545459" fill="#000" font-size="8" text-anchor="start"><tspan x="-8" dy="0em">200%</tspan></text></svg></g><line class="visx-line visx-axis-line" x1="0" y1="115.5" x2="0" y2="0.5" fill="transparent" shape-rendering="crispEdges" stroke="#222" stroke-width="0"></line></g><rect class="visx-bar" width="1450" height="115" fill="transparent"></rect><line class="visx-line" x1="580" y1="28" x2="580" y2="115" fill="transparent" shape-rendering="crispEdges" stroke="#0062D2" stroke-width="1" pointer-events="none" stroke-dasharray="5,2"></line><svg x="0" y="0" font-size="10px" style="overflow:visible"><text transform="" x="580" y="20" font-size="10px" fill="#fff" stroke="#fff" stroke-width="0.8em" text-anchor="middle"><tspan x="580" dy="0.355em">Optimal 40%</tspan></text></svg><svg x="0" y="0" font-size="10px" style="overflow:visible"><text transform="" x="580" y="20" font-size="10px" fill="#62677B" text-anchor="middle"><tspan x="580" dy="0.355em">Optimal 40%</tspan></text></svg></g></svg>