<?xml version="1.0"?><svg xmlns="http://www.w3.org/2000/svg" xmlns:xlink= "http://www.w3.org/1999/xlink" style="background: white;" width="1500" height="185"> <g style="color: black; font-size: 13px; font-family: sans-serif; transform: translate(18px, 25px);"><g><circle r="3" cx="-6" cy="-5" style="fill: #B6509E" /><text>Borrow APR, variable</text></g><g style="transform: translateX(150px);"><circle r="3" cx="-6" cy="-5" style="fill: rgb(231, 198, 223)" /><text>Borrow APR, stable</text></g><g style="transform: translateX(290px);"><circle r="3" cx="-6" cy="-5" style="fill: rgb(0, 98, 210)" /><text>Utilization Rate</text></g></g><g class="visx-group" transform="translate(40, 50)"><g class="visx-group visx-rows" transform="translate(0, 0)"><line class="visx-line" x1="0" y1="115" x2="1450" y2="115" fill="transparent" shape-rendering="crispEdges" stroke="#000" stroke-width="1" stroke-dasharray="3,3" pointer-events="none"></line><line class="visx-line" x1="0" y1="73.18181818181819" x2="1450" y2="73.18181818181819" fill="transparent" shape-rendering="crispEdges" stroke="#000" stroke-width="1" stroke-dasharray="3,3" pointer-events="none"></line><line class="visx-line" x1="0" y1="31.36363636363636" x2="1450" y2="31.36363636363636" fill="transparent" shape-rendering="crispEdges" stroke="#000" stroke-width="1" stroke-dasharray="3,3" pointer-events="none"></line></g><path class="visx-linepath" d="M0,114.99999999997387C2.4166666666666665,114.9956439393787,4.833333333333334,114.99128787878352,7.25,114.98693181818182C9.666666666666666,114.98257575758011,12.083333333333334,114.97821969696969,14.5,114.97386363636363C16.916666666666668,114.96950757575758,19.333333333333332,114.9651515151515,21.75,114.96079545454545C24.166666666666668,114.95643939393939,26.583333333333332,114.95208333333332,29,114.94772727272726C31.416666666666668,114.9433712121212,33.833333333333336,114.93901515151515,36.25,114.9346590909091C38.666666666666664,114.93030303030304,41.083333333333336,114.92594696969697,43.5,114.92159090909091C45.91666666666667,114.91723484848485,48.333333333333336,114.91287878787878,50.75000000000001,114.90852272727273C53.16666666666667,114.90416666666667,55.583333333333336,114.89981060606061,58,114.89545454545456C60.416666666666664,114.8910984848485,62.833333333333336,114.88674242424243,65.25,114.88238636363637C67.66666666666667,114.87803030303031,70.08333333333333,114.87367424242424,72.5,114.86931818181819C74.91666666666667,114.86496212121213,77.33333333333333,114.86060606060606,79.75,114.85625C82.16666666666667,114.85189393939395,84.58333333333333,114.84753787878788,87,114.84318181818182C89.41666666666667,114.83882575757576,91.83333333333333,114.83446969696969,94.25,114.83011363636363C96.66666666666667,114.82575757575758,99.08333333333334,114.8214015151515,101.50000000000001,114.81704545454545C103.91666666666667,114.8126893939394,106.33333333333334,114.80833333333332,108.75,114.80397727272727C111.16666666666667,114.79962121212121,113.58333333333333,114.79526515151515,116,114.7909090909091C118.41666666666667,114.78655303030304,120.83333333333334,114.78219696969697,123.25000000000001,114.77784090909091C125.66666666666667,114.77348484848486,128.08333333333334,114.76912878787878,130.5,114.76477272727273C132.91666666666666,114.76041666666667,135.33333333333334,114.7560606060606,137.75,114.75170454545454C140.16666666666666,114.74734848484849,142.58333333333334,114.74299242424242,145,114.73863636363636C147.41666666666666,114.7342803030303,149.83333333333334,114.72992424242423,152.25,114.72556818181818C154.66666666666666,114.72121212121212,157.08333333333334,114.71685606060606,159.5,114.7125C161.91666666666666,114.70814393939395,164.33333333333334,114.70378787878788,166.75,114.69943181818182C169.16666666666666,114.69507575757576,171.58333333333334,114.6907196969697,174,114.68636363636364C176.41666666666666,114.68200757575758,178.83333333333334,114.67765151515151,181.25,114.67329545454545C183.66666666666666,114.6689393939394,186.08333333333334,114.66458333333333,188.5,114.66022727272727C190.91666666666666,114.65587121212121,193.33333333333334,114.65151515151516,195.75,114.6471590909091C198.16666666666669,114.64280303030304,200.58333333333334,114.63844696969697,203.00000000000003,114.63409090909092C205.41666666666669,114.62973484848486,207.83333333333331,114.62537878787879,210.24999999999997,114.62102272727273C212.66666666666666,114.61666666666667,215.08333333333331,114.6123106060606,217.5,114.60795454545455C219.91666666666666,114.60359848484849,222.33333333333334,114.59924242424242,224.75,114.59488636363636C227.16666666666666,114.5905303030303,229.58333333333334,114.58617424242424,232,114.58181818181818C234.41666666666666,114.57746212121212,236.83333333333334,114.57310606060605,239.25,114.56875C241.66666666666669,114.56439393939394,244.08333333333334,114.56003787878787,246.50000000000003,114.55568181818181C248.91666666666669,114.55132575757575,251.33333333333331,114.54696969696968,253.74999999999997,114.54261363636363C256.16666666666663,114.53825757575757,258.5833333333333,114.5339015151515,261,114.52954545454544C263.4166666666667,114.52518939393939,265.8333333333333,114.52083333333333,268.25,114.51647727272727C270.6666666666667,114.51212121212122,273.0833333333333,114.50776515151516,275.5,114.5034090909091C277.9166666666667,114.49905303030305,280.3333333333333,114.49469696969697,282.75,114.49034090909092C285.1666666666667,114.48598484848486,287.5833333333333,114.48162878787879,290,114.47727272727273C292.4166666666667,114.47291666666668,294.8333333333333,114.4685606060606,297.25,114.46420454545455C299.6666666666667,114.4598484848485,302.0833333333333,114.45549242424242,304.5,114.45113636363637C306.9166666666667,114.44678030303031,309.3333333333333,114.44242424242424,311.75,114.43806818181818C314.1666666666667,114.43371212121212,316.5833333333333,114.42935606060605,319,114.425C321.4166666666667,114.42064393939394,323.8333333333333,114.41628787878787,326.25,114.41193181818181C328.6666666666667,114.40757575757576,331.0833333333333,114.40321969696969,333.5,114.39886363636363C335.9166666666667,114.39450757575757,338.3333333333333,114.3901515151515,340.75,114.38579545454544C343.1666666666667,114.38143939393939,345.5833333333333,114.37708333333333,348,114.37272727272727C350.4166666666667,114.36837121212122,352.8333333333333,114.36401515151515,355.25,114.35965909090909C357.6666666666667,114.35530303030303,360.0833333333333,114.35094696969696,362.5,114.3465909090909C364.9166666666667,114.34223484848485,367.3333333333333,114.3378787878788,369.75,114.33352272727274C372.1666666666667,114.32916666666668,374.5833333333333,114.32481060606061,377,114.32045454545455C379.4166666666667,114.3160984848485,381.8333333333333,114.31174242424242,384.25,114.30738636363637C386.6666666666667,114.30303030303031,389.0833333333333,114.29867424242424,391.5,114.29431818181818C393.9166666666667,114.28996212121213,396.33333333333337,114.28560606060606,398.75000000000006,114.28125C401.16666666666674,114.27689393939394,403.58333333333337,114.27253787878787,406.00000000000006,114.26818181818182C408.4166666666667,114.26382575757576,410.8333333333333,114.25946969696969,413.24999999999994,114.25511363636363C415.66666666666663,114.25075757575758,418.08333333333326,114.2464015151515,420.49999999999994,114.24204545454545C422.91666666666663,114.23768939393939,425.3333333333333,114.23333333333333,427.75,114.22897727272728C430.1666666666667,114.22462121212122,432.5833333333333,114.22026515151515,435,114.2159090909091C437.4166666666667,114.21155303030304,439.8333333333333,114.20719696969697,442.25,114.20284090909091C444.6666666666667,114.19848484848485,447.0833333333333,114.19412878787878,449.5,114.18977272727273C451.9166666666667,114.18541666666667,454.3333333333333,114.1810606060606,456.75,114.17670454545454C459.1666666666667,114.17234848484848,461.5833333333333,114.16799242424241,464,114.16363636363636C466.4166666666667,114.1592803030303,468.8333333333333,114.15492424242423,471.25,114.15056818181817C473.6666666666667,114.14621212121212,476.0833333333333,114.14185606060606,478.5,114.1375C480.9166666666667,114.13314393939395,483.33333333333337,114.12878787878788,485.75000000000006,114.12443181818182C488.16666666666674,114.12007575757576,490.58333333333337,114.11571969696969,493.00000000000006,114.11136363636363C495.4166666666667,114.10700757575758,497.8333333333333,114.1026515151515,500.24999999999994,114.09829545454545C502.66666666666663,114.0939393939394,505.08333333333326,114.08958333333334,507.49999999999994,114.08522727272728C509.91666666666663,114.08087121212122,512.3333333333333,114.07651515151515,514.75,114.0721590909091C517.1666666666666,114.06780303030304,519.5833333333334,114.06344696969697,522,114.05909090909091C524.4166666666666,114.05473484848486,526.8333333333334,114.05037878787878,529.25,114.04602272727273C531.6666666666666,114.04166666666667,534.0833333333334,114.0373106060606,536.5,114.03295454545454C538.9166666666666,114.02859848484849,541.3333333333334,114.02424242424242,543.75,114.01988636363636C546.1666666666666,114.0155303030303,548.5833333333334,114.01117424242423,551,114.00681818181818C553.4166666666666,114.00246212121212,555.8333333333334,113.99810606060605,558.25,113.99374999999999C560.6666666666666,113.98939393939393,563.0833333333334,113.98503787878786,565.5,113.98068181818181C567.9166666666666,113.97632575757575,570.3333333333334,113.9719696969697,572.75,113.96761363636364C575.1666666666666,113.96325757575758,577.5833333333334,113.95890151515152,580,113.95454545454547C582.4166666666666,113.95018939393941,584.8333333333334,113.94583333333334,587.25,113.94147727272728C589.6666666666666,113.93712121212123,592.0833333333334,113.93276515151516,594.5,113.9284090909091C596.9166666666666,113.92405303030304,599.3333333333334,113.91969696969697,601.75,113.91534090909092C604.1666666666666,113.91098484848486,606.5833333333334,113.90662878787879,609,113.90227272727273C611.4166666666666,113.89791666666667,613.8333333333334,113.8935606060606,616.25,113.88920454545455C618.6666666666666,113.88484848484849,621.0833333333334,113.88049242424242,623.5,113.87613636363636C625.9166666666666,113.8717803030303,628.3333333333334,113.86742424242424,630.75,113.86306818181818C633.1666666666666,113.85871212121212,635.5833333333334,113.85435606060605,638,113.85C640.4166666666666,113.84564393939394,642.8333333333334,113.84128787878787,645.25,113.83693181818181C647.6666666666666,113.83257575757575,650.0833333333334,113.8282196969697,652.5,113.82386363636364C654.9166666666666,113.81950757575758,657.3333333333334,113.81515151515151,659.75,113.81079545454546C662.1666666666666,113.8064393939394,664.5833333333334,113.80208333333333,667,113.79772727272727C669.4166666666666,113.79337121212122,671.8333333333334,113.78901515151514,674.25,113.78465909090909C676.6666666666666,113.78030303030303,679.0833333333334,113.77594696969696,681.5,113.7715909090909C683.9166666666666,113.76723484848485,686.3333333333334,113.76287878787879,688.75,113.75852272727273C691.1666666666666,113.75416666666668,693.5833333333334,113.75416666666668,696,113.74545454545455C698.4166666666666,113.73674242424242,700.8333333333334,113.15571095571096,703.25,112.86083916083916C705.6666666666666,112.56596736596737,708.0833333333334,112.27109557109557,710.5,111.97622377622378C712.9166666666666,111.68135198135198,715.3333333333334,111.38648018648018,717.75,111.09160839160839C720.1666666666666,110.7967365967366,722.5833333333334,110.50186480186481,725,110.20699300699302C727.4166666666666,109.91212121212122,729.8333333333334,109.61724941724941,732.25,109.32237762237762C734.6666666666666,109.02750582750582,737.0833333333334,108.73263403263402,739.5,108.43776223776223C741.9166666666666,108.14289044289043,744.3333333333334,107.84801864801865,746.75,107.55314685314686C749.1666666666666,107.25827505827506,751.5833333333334,106.96340326340326,754,106.66853146853147C756.4166666666666,106.37365967365967,758.8333333333334,106.07878787878788,761.25,105.78391608391608C763.6666666666666,105.48904428904429,766.0833333333334,105.19417249417249,768.5,104.8993006993007C770.9166666666666,104.6044289044289,773.3333333333334,104.3095571095571,775.75,104.01468531468531C778.1666666666666,103.71981351981351,780.5833333333334,103.42494172494173,783,103.13006993006994C785.4166666666667,102.83519813519814,787.8333333333334,102.54032634032633,790.2500000000001,102.24545454545454C792.6666666666667,101.95058275058274,795.0833333333335,101.65571095571096,797.5000000000001,101.36083916083916C799.9166666666667,101.06596736596737,802.3333333333335,100.77109557109557,804.7500000000001,100.47622377622378C807.1666666666667,100.18135198135198,809.5833333333335,99.88648018648018,812.0000000000001,99.59160839160839C814.4166666666667,99.2967365967366,816.8333333333333,99.0018648018648,819.2499999999999,98.706993006993C821.6666666666665,98.4121212121212,824.0833333333333,98.11724941724941,826.4999999999999,97.82237762237762C828.9166666666665,97.52750582750582,831.3333333333333,97.23263403263404,833.7499999999999,96.93776223776224C836.1666666666665,96.64289044289045,838.5833333333333,96.34801864801865,840.9999999999999,96.05314685314686C843.4166666666666,95.75827505827506,845.8333333333333,95.46340326340326,848.25,95.16853146853147C850.6666666666666,94.87365967365967,853.0833333333334,94.57878787878788,855.5,94.28391608391608C857.9166666666666,93.98904428904429,860.3333333333334,93.69417249417249,862.75,93.3993006993007C865.1666666666666,93.1044289044289,867.5833333333334,92.80955710955712,870,92.51468531468532C872.4166666666666,92.21981351981353,874.8333333333334,91.92494172494172,877.25,91.63006993006992C879.6666666666666,91.33519813519813,882.0833333333334,91.04032634032635,884.5,90.74545454545455C886.9166666666666,90.45058275058275,889.3333333333334,90.15571095571096,891.75,89.86083916083916C894.1666666666666,89.56596736596737,896.5833333333334,89.27109557109557,899,88.97622377622378C901.4166666666666,88.68135198135198,903.8333333333334,88.3864801864802,906.25,88.0916083916084C908.6666666666666,87.79673659673661,911.0833333333334,87.5018648018648,913.5,87.206993006993C915.9166666666666,86.9121212121212,918.3333333333334,86.61724941724941,920.75,86.32237762237762C923.1666666666666,86.02750582750582,925.5833333333334,85.73263403263402,928,85.43776223776223C930.4166666666666,85.14289044289043,932.8333333333334,84.84801864801864,935.25,84.55314685314684C937.6666666666666,84.25827505827505,940.0833333333334,83.96340326340326,942.5,83.66853146853147C944.9166666666666,83.37365967365967,947.3333333333334,83.07878787878788,949.75,82.78391608391608C952.1666666666666,82.48904428904429,954.5833333333334,82.19417249417249,957,81.8993006993007C959.4166666666666,81.6044289044289,961.8333333333334,81.30955710955712,964.25,81.01468531468532C966.6666666666667,80.71981351981353,969.0833333333334,80.42494172494173,971.5000000000001,80.13006993006994C973.9166666666667,79.83519813519814,976.3333333333335,79.54032634032635,978.7500000000001,79.24545454545455C981.1666666666667,78.95058275058275,983.5833333333335,78.65571095571096,986.0000000000001,78.36083916083916C988.4166666666667,78.06596736596737,990.8333333333335,77.77109557109557,993.2500000000001,77.47622377622378C995.6666666666667,77.18135198135198,998.0833333333333,76.88648018648018,1000.4999999999999,76.59160839160839C1002.9166666666665,76.2967365967366,1005.3333333333333,76.0018648018648,1007.7499999999999,75.706993006993C1010.1666666666665,75.4121212121212,1012.5833333333333,75.11724941724943,1014.9999999999999,74.82237762237763C1017.4166666666665,74.52750582750583,1019.8333333333333,74.23263403263404,1022.2499999999999,73.93776223776224C1024.6666666666665,73.64289044289045,1027.0833333333333,73.34801864801865,1029.5,73.05314685314686C1031.9166666666667,72.75827505827506,1034.3333333333333,72.46340326340325,1036.75,72.16853146853146C1039.1666666666667,71.87365967365966,1041.5833333333333,71.57878787878788,1044,71.28391608391608C1046.4166666666667,70.98904428904429,1048.8333333333333,70.6941724941725,1051.25,70.39930069930071C1053.6666666666667,70.10442890442891,1056.0833333333333,69.8095571095571,1058.5,69.51468531468531C1060.9166666666667,69.21981351981351,1063.3333333333333,68.92494172494172,1065.75,68.63006993006992C1068.1666666666667,68.33519813519813,1070.5833333333333,68.04032634032635,1073,67.74545454545455C1075.4166666666667,67.45058275058275,1077.8333333333333,67.15571095571096,1080.25,66.86083916083916C1082.6666666666667,66.56596736596737,1085.0833333333333,66.27109557109559,1087.5,65.97622377622379C1089.9166666666667,65.681351981352,1092.3333333333333,65.3864801864802,1094.75,65.0916083916084C1097.1666666666667,64.79673659673661,1099.5833333333333,64.5018648018648,1102,64.206993006993C1104.4166666666667,63.91212121212121,1106.8333333333333,63.617249417249425,1109.25,63.32237762237763C1111.6666666666667,63.027505827505834,1114.0833333333333,62.73263403263403,1116.5,62.437762237762236C1118.9166666666667,62.14289044289044,1121.3333333333333,61.848018648018645,1123.75,61.55314685314685C1126.1666666666667,61.25827505827505,1128.5833333333333,60.963403263403265,1131,60.66853146853147C1133.4166666666667,60.373659673659674,1135.8333333333333,60.078787878787885,1138.25,59.78391608391609C1140.6666666666667,59.489044289044294,1143.0833333333333,59.19417249417249,1145.5,58.899300699300696C1147.9166666666667,58.6044289044289,1150.3333333333333,58.30955710955711,1152.75,58.014685314685316C1155.1666666666667,57.71981351981352,1157.5833333333333,57.424941724941725,1160,57.13006993006993C1162.4166666666667,56.835198135198134,1164.8333333333333,56.540326340326345,1167.25,56.24545454545455C1169.6666666666667,55.950582750582754,1172.0833333333333,55.65571095571095,1174.5,55.360839160839156C1176.9166666666667,55.06596736596736,1179.3333333333333,54.77109557109557,1181.75,54.476223776223776C1184.1666666666667,54.18135198135198,1186.5833333333333,53.88648018648019,1189,53.591608391608396C1191.4166666666667,53.2967365967366,1193.8333333333333,53.001864801864805,1196.25,52.70699300699301C1198.6666666666667,52.412121212121214,1201.0833333333333,52.11724941724941,1203.5,51.822377622377616C1205.9166666666667,51.52750582750582,1208.3333333333333,51.23263403263403,1210.75,50.937762237762236C1213.1666666666667,50.64289044289044,1215.5833333333333,50.34801864801865,1218,50.053146853146856C1220.4166666666667,49.75827505827506,1222.8333333333333,49.46340326340326,1225.25,49.16853146853146C1227.6666666666667,48.87365967365967,1230.0833333333333,48.57878787878787,1232.5,48.283916083916075C1234.9166666666667,47.98904428904428,1237.3333333333333,47.69417249417249,1239.75,47.399300699300696C1242.1666666666667,47.1044289044289,1244.5833333333333,46.80955710955711,1247,46.514685314685316C1249.4166666666667,46.21981351981352,1251.8333333333333,45.92494172494173,1254.25,45.630069930069936C1256.6666666666667,45.33519813519814,1259.0833333333333,45.04032634032634,1261.5,44.74545454545454C1263.9166666666667,44.45058275058275,1266.3333333333333,44.15571095571095,1268.75,43.860839160839156C1271.1666666666667,43.56596736596736,1273.5833333333333,43.27109557109557,1276,42.976223776223776C1278.4166666666667,42.68135198135198,1280.8333333333333,42.38648018648019,1283.25,42.091608391608396C1285.6666666666667,41.7967365967366,1288.0833333333333,41.5018648018648,1290.5,41.206993006993C1292.9166666666667,40.91212121212121,1295.3333333333333,40.617249417249425,1297.75,40.32237762237763C1300.1666666666667,40.027505827505834,1302.5833333333333,39.73263403263403,1305,39.437762237762236C1307.4166666666667,39.14289044289044,1309.8333333333333,38.84801864801864,1312.25,38.55314685314684C1314.6666666666667,38.258275058275046,1317.0833333333333,37.96340326340325,1319.5,37.66853146853146C1321.9166666666667,37.373659673659674,1324.3333333333333,37.07878787878789,1326.75,36.7839160839161C1329.1666666666667,36.4890442890443,1331.5833333333333,36.1941724941725,1334,35.8993006993007C1336.4166666666667,35.60442890442891,1338.8333333333333,35.30955710955711,1341.25,35.014685314685316C1343.6666666666667,34.71981351981352,1346.0833333333333,34.42494172494172,1348.5,34.13006993006992C1350.9166666666667,33.83519813519813,1353.3333333333333,33.54032634032634,1355.75,33.24545454545454C1358.1666666666667,32.95058275058275,1360.5833333333333,32.65571095571096,1363,32.36083916083916C1365.4166666666667,32.06596736596737,1367.8333333333333,31.771095571095575,1370.25,31.47622377622378C1372.6666666666667,31.181351981351984,1375.0833333333333,30.886480186480192,1377.5,30.591608391608396C1379.9166666666667,30.2967365967366,1382.3333333333333,30.0018648018648,1384.75,29.706993006993002C1387.1666666666667,29.412121212121203,1389.5833333333333,29.117249417249404,1392,28.82237762237761C1394.4166666666667,28.527505827505813,1396.8333333333333,28.232634032634024,1399.25,27.93776223776223C1401.6666666666667,27.642890442890433,1404.0833333333333,27.348018648018638,1406.5,27.053146853146846C1408.9166666666667,26.758275058275053,1411.3333333333333,26.46340326340327,1413.75,26.168531468531476C1416.1666666666667,25.873659673659684,1418.5833333333333,25.578787878787896,1421,25.283916083916097C1423.4166666666667,24.989044289044298,1425.8333333333333,24.694172494172488,1428.25,24.39930069930069C1430.6666666666667,24.10442890442889,1433.0833333333333,23.809557109557105,1435.5,23.51468531468531C1437.9166666666667,23.219813519813513,1440.3333333333333,22.924941724941718,1442.75,22.630069930069926C1445.1666666666667,22.335198135198134,1447.5833333333333,22.040326340326338,1450,21.745454545454546" fill="transparent" stroke-linecap="round" stroke="#B6509E" stroke-width="2"></path><path class="visx-linepath" d="M0,112.90909090904735C2.4166666666666665,112.9018308080554,4.833333333333334,112.89457070706345,7.25,112.88731060606061C9.666666666666666,112.88005050505777,12.083333333333334,112.8727904040404,14.5,112.8655303030303C16.916666666666668,112.8582702020202,19.333333333333332,112.8510101010101,21.75,112.84375C24.166666666666668,112.8364898989899,26.583333333333332,112.8292297979798,29,112.8219696969697C31.416666666666668,112.8147095959596,33.833333333333336,112.8074494949495,36.25,112.80018939393939C38.666666666666664,112.79292929292929,41.083333333333336,112.7856691919192,43.5,112.7784090909091C45.91666666666667,112.77114898989899,48.333333333333336,112.76388888888889,50.75000000000001,112.75662878787878C53.16666666666667,112.74936868686868,55.583333333333336,112.74210858585859,58,112.73484848484848C60.416666666666664,112.72758838383838,62.833333333333336,112.72032828282829,65.25,112.71306818181819C67.66666666666667,112.70580808080808,70.08333333333333,112.698547979798,72.5,112.69128787878789C74.91666666666667,112.68402777777779,77.33333333333333,112.67676767676768,79.75,112.66950757575758C82.16666666666667,112.66224747474747,84.58333333333333,112.65498737373737,87,112.64772727272727C89.41666666666667,112.64046717171716,91.83333333333333,112.63320707070707,94.25,112.62594696969697C96.66666666666667,112.61868686868686,99.08333333333334,112.61142676767676,101.50000000000001,112.60416666666666C103.91666666666667,112.59690656565655,106.33333333333334,112.58964646464646,108.75,112.58238636363636C111.16666666666667,112.57512626262626,113.58333333333333,112.56786616161617,116,112.56060606060606C118.41666666666667,112.55334595959596,120.83333333333334,112.54608585858587,123.25000000000001,112.53882575757576C125.66666666666667,112.53156565656566,128.08333333333334,112.52430555555556,130.5,112.51704545454545C132.91666666666666,112.50978535353535,135.33333333333334,112.50252525252526,137.75,112.49526515151516C140.16666666666666,112.48800505050505,142.58333333333334,112.48074494949495,145,112.47348484848484C147.41666666666666,112.46622474747474,149.83333333333334,112.45896464646464,152.25,112.45170454545453C154.66666666666666,112.44444444444443,157.08333333333334,112.43718434343435,159.5,112.42992424242425C161.91666666666666,112.42266414141415,164.33333333333334,112.41540404040404,166.75,112.40814393939394C169.16666666666666,112.40088383838383,171.58333333333334,112.39362373737374,174,112.38636363636364C176.41666666666666,112.37910353535354,178.83333333333334,112.37184343434343,181.25,112.36458333333333C183.66666666666666,112.35732323232322,186.08333333333334,112.35006313131314,188.5,112.34280303030303C190.91666666666666,112.33554292929293,193.33333333333334,112.32828282828282,195.75,112.32102272727272C198.16666666666669,112.31376262626262,200.58333333333334,112.30650252525254,203.00000000000003,112.29924242424244C205.41666666666669,112.29198232323233,207.83333333333331,112.28472222222223,210.24999999999997,112.27746212121212C212.66666666666666,112.27020202020202,215.08333333333331,112.26294191919192,217.5,112.25568181818181C219.91666666666666,112.24842171717171,222.33333333333334,112.24116161616162,224.75,112.23390151515152C227.16666666666666,112.22664141414141,229.58333333333334,112.21938131313131,232,112.2121212121212C234.41666666666666,112.2048611111111,236.83333333333334,112.19760101010101,239.25,112.1903409090909C241.66666666666669,112.1830808080808,244.08333333333334,112.17582070707071,246.50000000000003,112.16856060606061C248.91666666666669,112.1613005050505,251.33333333333331,112.15404040404042,253.74999999999997,112.14678030303031C256.16666666666663,112.13952020202021,258.5833333333333,112.1322601010101,261,112.125C263.4166666666667,112.1177398989899,265.8333333333333,112.1104797979798,268.25,112.1032196969697C270.6666666666667,112.0959595959596,273.0833333333333,112.0886994949495,275.5,112.08143939393939C277.9166666666667,112.07417929292929,280.3333333333333,112.0669191919192,282.75,112.0596590909091C285.1666666666667,112.05239898989899,287.5833333333333,112.04513888888889,290,112.03787878787878C292.4166666666667,112.03061868686868,294.8333333333333,112.02335858585859,297.25,112.01609848484848C299.6666666666667,112.00883838383838,302.0833333333333,112.00157828282829,304.5,111.99431818181819C306.9166666666667,111.98705808080808,309.3333333333333,111.97979797979798,311.75,111.97253787878788C314.1666666666667,111.96527777777777,316.5833333333333,111.95801767676768,319,111.95075757575758C321.4166666666667,111.94349747474747,323.8333333333333,111.93623737373737,326.25,111.92897727272727C328.6666666666667,111.92171717171716,331.0833333333333,111.91445707070707,333.5,111.90719696969697C335.9166666666667,111.89993686868686,338.3333333333333,111.89267676767678,340.75,111.88541666666667C343.1666666666667,111.87815656565657,345.5833333333333,111.87089646464648,348,111.86363636363637C350.4166666666667,111.85637626262627,352.8333333333333,111.84911616161617,355.25,111.84185606060606C357.6666666666667,111.83459595959596,360.0833333333333,111.82733585858587,362.5,111.82007575757576C364.9166666666667,111.81281565656566,367.3333333333333,111.80555555555556,369.75,111.79829545454545C372.1666666666667,111.79103535353535,374.5833333333333,111.78377525252525,377,111.77651515151514C379.4166666666667,111.76925505050504,381.8333333333333,111.76199494949495,384.25,111.75473484848484C386.6666666666667,111.74747474747474,389.0833333333333,111.74021464646465,391.5,111.73295454545455C393.9166666666667,111.72569444444444,396.33333333333337,111.71843434343435,398.75000000000006,111.71117424242425C401.16666666666674,111.70391414141415,403.58333333333337,111.69665404040404,406.00000000000006,111.68939393939394C408.4166666666667,111.68213383838383,410.8333333333333,111.67487373737374,413.24999999999994,111.66761363636364C415.66666666666663,111.66035353535354,418.08333333333326,111.65309343434343,420.49999999999994,111.64583333333333C422.91666666666663,111.63857323232322,425.3333333333333,111.63131313131312,427.75,111.62405303030302C430.1666666666667,111.61679292929291,432.5833333333333,111.60953282828284,435,111.60227272727273C437.4166666666667,111.59501262626263,439.8333333333333,111.58775252525253,442.25,111.58049242424242C444.6666666666667,111.57323232323232,447.0833333333333,111.56597222222223,449.5,111.55871212121212C451.9166666666667,111.55145202020202,454.3333333333333,111.54419191919192,456.75,111.53693181818181C459.1666666666667,111.52967171717171,461.5833333333333,111.52241161616162,464,111.51515151515152C466.4166666666667,111.50789141414141,468.8333333333333,111.50063131313131,471.25,111.4933712121212C473.6666666666667,111.4861111111111,476.0833333333333,111.47885101010101,478.5,111.4715909090909C480.9166666666667,111.4643308080808,483.33333333333337,111.45707070707071,485.75000000000006,111.44981060606061C488.16666666666674,111.4425505050505,490.58333333333337,111.43529040404042,493.00000000000006,111.42803030303031C495.4166666666667,111.42077020202021,497.8333333333333,111.4135101010101,500.24999999999994,111.40625C502.66666666666663,111.3989898989899,505.08333333333326,111.39172979797979,507.49999999999994,111.38446969696969C509.91666666666663,111.37720959595958,512.3333333333333,111.3699494949495,514.75,111.36268939393939C517.1666666666666,111.35542929292929,519.5833333333334,111.3481691919192,522,111.3409090909091C524.4166666666666,111.33364898989899,526.8333333333334,111.3263888888889,529.25,111.3191287878788C531.6666666666666,111.31186868686869,534.0833333333334,111.30460858585859,536.5,111.29734848484848C538.9166666666666,111.29008838383838,541.3333333333334,111.28282828282829,543.75,111.27556818181819C546.1666666666666,111.26830808080808,548.5833333333334,111.26104797979798,551,111.25378787878788C553.4166666666666,111.24652777777777,555.8333333333334,111.23926767676768,558.25,111.23200757575758C560.6666666666666,111.22474747474747,563.0833333333334,111.21748737373737,565.5,111.21022727272727C567.9166666666666,111.20296717171716,570.3333333333334,111.19570707070707,572.75,111.18844696969697C575.1666666666666,111.18118686868686,577.5833333333334,111.17392676767678,580,111.16666666666667C582.4166666666666,111.15940656565657,584.8333333333334,111.15214646464646,587.25,111.14488636363636C589.6666666666666,111.13762626262626,592.0833333333334,111.13036616161617,594.5,111.12310606060606C596.9166666666666,111.11584595959596,599.3333333333334,111.10858585858585,601.75,111.10132575757575C604.1666666666666,111.09406565656565,606.5833333333334,111.08680555555556,609,111.07954545454545C611.4166666666666,111.07228535353535,613.8333333333334,111.06502525252526,616.25,111.05776515151516C618.6666666666666,111.05050505050505,621.0833333333334,111.04324494949496,623.5,111.03598484848486C625.9166666666666,111.02872474747475,628.3333333333334,111.02146464646465,630.75,111.01420454545455C633.1666666666666,111.00694444444444,635.5833333333334,110.99968434343434,638,110.99242424242424C640.4166666666666,110.98516414141413,642.8333333333334,110.97790404040404,645.25,110.97064393939394C647.6666666666666,110.96338383838383,650.0833333333334,110.95612373737373,652.5,110.94886363636363C654.9166666666666,110.94160353535352,657.3333333333334,110.93434343434343,659.75,110.92708333333333C662.1666666666666,110.91982323232322,664.5833333333334,110.91256313131314,667,110.90530303030303C669.4166666666666,110.89804292929293,671.8333333333334,110.89078282828284,674.25,110.88352272727273C676.6666666666666,110.87626262626263,679.0833333333334,110.86900252525253,681.5,110.86174242424242C683.9166666666666,110.85448232323232,686.3333333333334,110.84722222222223,688.75,110.83996212121212C691.1666666666666,110.83270202020202,693.5833333333334,110.83270202020202,696,110.81818181818181C698.4166666666666,110.8036616161616,700.8333333333334,110.22843822843824,703.25,109.93356643356644C705.6666666666666,109.63869463869464,708.0833333333334,109.34382284382285,710.5,109.04895104895105C712.9166666666666,108.75407925407926,715.3333333333334,108.45920745920745,717.75,108.16433566433565C720.1666666666666,107.86946386946386,722.5833333333334,107.57459207459208,725,107.27972027972028C727.4166666666666,106.98484848484848,729.8333333333334,106.68997668997669,732.25,106.3951048951049C734.6666666666666,106.1002331002331,737.0833333333334,105.80536130536132,739.5,105.51048951048952C741.9166666666666,105.21561771561773,744.3333333333334,104.92074592074592,746.75,104.62587412587412C749.1666666666666,104.33100233100232,751.5833333333334,104.03613053613053,754,103.74125874125873C756.4166666666666,103.44638694638694,758.8333333333334,103.15151515151516,761.25,102.85664335664336C763.6666666666666,102.56177156177156,766.0833333333334,102.26689976689977,768.5,101.97202797202797C770.9166666666666,101.67715617715618,773.3333333333334,101.3822843822844,775.75,101.0874125874126C778.1666666666666,100.7925407925408,780.5833333333334,100.497668997669,783,100.2027972027972C785.4166666666667,99.9079254079254,787.8333333333334,99.61305361305361,790.2500000000001,99.31818181818181C792.6666666666667,99.02331002331002,795.0833333333335,98.72843822843824,797.5000000000001,98.43356643356644C799.9166666666667,98.13869463869464,802.3333333333335,97.84382284382284,804.7500000000001,97.54895104895104C807.1666666666667,97.25407925407924,809.5833333333335,96.95920745920746,812.0000000000001,96.66433566433567C814.4166666666667,96.36946386946387,816.8333333333333,96.07459207459208,819.2499999999999,95.77972027972028C821.6666666666665,95.48484848484848,824.0833333333333,95.18997668997669,826.4999999999999,94.8951048951049C828.9166666666665,94.6002331002331,831.3333333333333,94.30536130536132,833.7499999999999,94.01048951048952C836.1666666666665,93.71561771561773,838.5833333333333,93.42074592074592,840.9999999999999,93.12587412587412C843.4166666666666,92.83100233100232,845.8333333333333,92.53613053613054,848.25,92.24125874125875C850.6666666666666,91.94638694638695,853.0833333333334,91.65151515151516,855.5,91.35664335664336C857.9166666666666,91.06177156177156,860.3333333333334,90.76689976689977,862.75,90.47202797202797C865.1666666666666,90.17715617715618,867.5833333333334,89.88228438228438,870,89.58741258741259C872.4166666666666,89.29254079254079,874.8333333333334,88.997668997669,877.25,88.7027972027972C879.6666666666666,88.4079254079254,882.0833333333334,88.11305361305362,884.5,87.81818181818183C886.9166666666666,87.52331002331003,889.3333333333334,87.22843822843824,891.75,86.93356643356644C894.1666666666666,86.63869463869464,896.5833333333334,86.34382284382285,899,86.04895104895105C901.4166666666666,85.75407925407926,903.8333333333334,85.45920745920745,906.25,85.16433566433565C908.6666666666666,84.86946386946386,911.0833333333334,84.57459207459206,913.5,84.27972027972027C915.9166666666666,83.98484848484847,918.3333333333334,83.68997668997669,920.75,83.3951048951049C923.1666666666666,83.1002331002331,925.5833333333334,82.8053613053613,928,82.5104895104895C930.4166666666666,82.21561771561771,932.8333333333334,81.92074592074592,935.25,81.62587412587412C937.6666666666666,81.33100233100232,940.0833333333334,81.03613053613054,942.5,80.74125874125875C944.9166666666666,80.44638694638695,947.3333333333334,80.15151515151516,949.75,79.85664335664336C952.1666666666666,79.56177156177156,954.5833333333334,79.26689976689977,957,78.97202797202797C959.4166666666666,78.67715617715618,961.8333333333334,78.38228438228438,964.25,78.08741258741259C966.6666666666667,77.79254079254079,969.0833333333334,77.497668997669,971.5000000000001,77.2027972027972C973.9166666666667,76.9079254079254,976.3333333333335,76.61305361305361,978.7500000000001,76.31818181818181C981.1666666666667,76.02331002331002,983.5833333333335,75.72843822843822,986.0000000000001,75.43356643356643C988.4166666666667,75.13869463869463,990.8333333333335,74.84382284382285,993.2500000000001,74.54895104895105C995.6666666666667,74.25407925407926,998.0833333333333,73.95920745920746,1000.4999999999999,73.66433566433567C1002.9166666666665,73.36946386946387,1005.3333333333333,73.07459207459208,1007.7499999999999,72.77972027972028C1010.1666666666665,72.48484848484848,1012.5833333333333,72.1899766899767,1014.9999999999999,71.89510489510491C1017.4166666666665,71.60023310023311,1019.8333333333333,71.3053613053613,1022.2499999999999,71.0104895104895C1024.6666666666665,70.71561771561771,1027.0833333333333,70.42074592074593,1029.5,70.12587412587413C1031.9166666666667,69.83100233100234,1034.3333333333333,69.53613053613053,1036.75,69.24125874125873C1039.1666666666667,68.94638694638694,1041.5833333333333,68.65151515151514,1044,68.35664335664335C1046.4166666666667,68.06177156177155,1048.8333333333333,67.76689976689977,1051.25,67.47202797202797C1053.6666666666667,67.17715617715618,1056.0833333333333,66.88228438228438,1058.5,66.58741258741259C1060.9166666666667,66.29254079254079,1063.3333333333333,65.99766899766901,1065.75,65.70279720279721C1068.1666666666667,65.40792540792542,1070.5833333333333,65.11305361305362,1073,64.81818181818183C1075.4166666666667,64.52331002331003,1077.8333333333333,64.22843822843822,1080.25,63.93356643356642C1082.6666666666667,63.63869463869462,1085.0833333333333,63.34382284382285,1087.5,63.048951048951054C1089.9166666666667,62.75407925407926,1092.3333333333333,62.45920745920746,1094.75,62.16433566433567C1097.1666666666667,61.86946386946387,1099.5833333333333,61.57459207459207,1102,61.27972027972027C1104.4166666666667,60.98484848484848,1106.8333333333333,60.68997668997669,1109.25,60.39510489510489C1111.6666666666667,60.1002331002331,1114.0833333333333,59.80536130536131,1116.5,59.51048951048951C1118.9166666666667,59.21561771561772,1121.3333333333333,58.920745920745915,1123.75,58.62587412587412C1126.1666666666667,58.331002331002324,1128.5833333333333,58.036130536130536,1131,57.74125874125874C1133.4166666666667,57.446386946386944,1135.8333333333333,57.15151515151515,1138.25,56.85664335664335C1140.6666666666667,56.56177156177156,1143.0833333333333,56.26689976689977,1145.5,55.97202797202797C1147.9166666666667,55.67715617715618,1150.3333333333333,55.382284382284375,1152.75,55.08741258741258C1155.1666666666667,54.792540792540784,1157.5833333333333,54.497668997668995,1160,54.2027972027972C1162.4166666666667,53.907925407925404,1164.8333333333333,53.613053613053616,1167.25,53.31818181818182C1169.6666666666667,53.023310023310025,1172.0833333333333,52.72843822843823,1174.5,52.43356643356643C1176.9166666666667,52.13869463869464,1179.3333333333333,51.84382284382285,1181.75,51.548951048951054C1184.1666666666667,51.25407925407926,1186.5833333333333,50.959207459207455,1189,50.66433566433566C1191.4166666666667,50.369463869463864,1193.8333333333333,50.074592074592076,1196.25,49.77972027972028C1198.6666666666667,49.484848484848484,1201.0833333333333,49.18997668997669,1203.5,48.89510489510489C1205.9166666666667,48.6002331002331,1208.3333333333333,48.305361305361295,1210.75,48.0104895104895C1213.1666666666667,47.715617715617704,1215.5833333333333,47.42074592074591,1218,47.12587412587412C1220.4166666666667,46.83100233100233,1222.8333333333333,46.53613053613055,1225.25,46.241258741258754C1227.6666666666667,45.94638694638696,1230.0833333333333,45.651515151515156,1232.5,45.35664335664336C1234.9166666666667,45.061771561771565,1237.3333333333333,44.76689976689976,1239.75,44.472027972027966C1242.1666666666667,44.17715617715617,1244.5833333333333,43.882284382284375,1247,43.58741258741258C1249.4166666666667,43.292540792540784,1251.8333333333333,42.997668997668995,1254.25,42.7027972027972C1256.6666666666667,42.407925407925404,1259.0833333333333,42.113053613053616,1261.5,41.81818181818182C1263.9166666666667,41.523310023310025,1266.3333333333333,41.228438228438236,1268.75,40.93356643356644C1271.1666666666667,40.638694638694645,1273.5833333333333,40.34382284382285,1276,40.048951048951054C1278.4166666666667,39.75407925407926,1280.8333333333333,39.459207459207455,1283.25,39.16433566433566C1285.6666666666667,38.869463869463864,1288.0833333333333,38.574592074592076,1290.5,38.27972027972028C1292.9166666666667,37.984848484848484,1295.3333333333333,37.68997668997668,1297.75,37.395104895104886C1300.1666666666667,37.10023310023309,1302.5833333333333,36.805361305361316,1305,36.51048951048952C1307.4166666666667,36.215617715617725,1309.8333333333333,35.92074592074593,1312.25,35.625874125874134C1314.6666666666667,35.33100233100234,1317.0833333333333,35.036130536130536,1319.5,34.74125874125874C1321.9166666666667,34.446386946386944,1324.3333333333333,34.15151515151514,1326.75,33.856643356643346C1329.1666666666667,33.56177156177155,1331.5833333333333,33.266899766899776,1334,32.97202797202798C1336.4166666666667,32.677156177156185,1338.8333333333333,32.38228438228438,1341.25,32.08741258741259C1343.6666666666667,31.79254079254079,1346.0833333333333,31.497668997669,1348.5,31.202797202797203C1350.9166666666667,30.907925407925408,1353.3333333333333,30.613053613053616,1355.75,30.31818181818182C1358.1666666666667,30.023310023310025,1360.5833333333333,29.72843822843824,1363,29.43356643356644C1365.4166666666667,29.13869463869464,1367.8333333333333,28.84382284382283,1370.25,28.548951048951032C1372.6666666666667,28.254079254079233,1375.0833333333333,27.959207459207445,1377.5,27.664335664335653C1379.9166666666667,27.36946386946386,1382.3333333333333,27.074592074592076,1384.75,26.779720279720284C1387.1666666666667,26.48484848484849,1389.5833333333333,26.189976689976696,1392,25.8951048951049C1394.4166666666667,25.600233100233105,1396.8333333333333,25.305361305361316,1399.25,25.01048951048952C1401.6666666666667,24.715617715617725,1404.0833333333333,24.420745920745926,1406.5,24.125874125874127C1408.9166666666667,23.831002331002328,1411.3333333333333,23.53613053613053,1413.75,23.241258741258733C1416.1666666666667,22.946386946386937,1418.5833333333333,22.65151515151514,1421,22.35664335664335C1423.4166666666667,22.061771561771558,1425.8333333333333,21.766899766899762,1428.25,21.47202797202797C1430.6666666666667,21.177156177156178,1433.0833333333333,20.882284382284382,1435.5,20.587412587412587C1437.9166666666667,20.29254079254079,1440.3333333333333,19.997668997669003,1442.75,19.702797202797207C1445.1666666666667,19.40792540792541,1447.5833333333333,19.11305361305362,1450,18.818181818181824" fill="transparent" stroke-linecap="round" stroke="#E7C6DF" stroke-width="2"></path><g class="visx-group visx-axis visx-axis-bottom" transform="translate(0, 115)"><g class="visx-group visx-axis-tick" transform="translate(0, 0)"><line class="visx-line" x1="0" y1="0" x2="0" y2="8" fill="transparent" shape-rendering="crispEdges" stroke="#000" stroke-width="0" stroke-linecap="square"></line><svg x="0" y="0" font-size="10" style="overflow:visible"><text transform="" x="0" y="18" fill="#000" font-size="10" text-anchor="middle"><tspan x="0" dy="0em">0%</tspan></text></svg></g><g class="visx-group visx-axis-tick" transform="translate(0, 0)"><line class="visx-line" x1="362.5" y1="0" x2="362.5" y2="8" fill="transparent" shape-rendering="crispEdges" stroke="#000" stroke-width="0" stroke-linecap="square"></line><svg x="0" y="0" font-size="10" style="overflow:visible"><text transform="" x="362.5" y="18" fill="#000" font-size="10" text-anchor="middle"><tspan x="362.5" dy="0em">25%</tspan></text></svg></g><g class="visx-group visx-axis-tick" transform="translate(0, 0)"><line class="visx-line" x1="725" y1="0" x2="725" y2="8" fill="transparent" shape-rendering="crispEdges" stroke="#000" stroke-width="0" stroke-linecap="square"></line><svg x="0" y="0" font-size="10" style="overflow:visible"><text transform="" x="725" y="18" fill="#000" font-size="10" text-anchor="middle"><tspan x="725" dy="0em">50%</tspan></text></svg></g><g class="visx-group visx-axis-tick" transform="translate(0, 0)"><line class="visx-line" x1="1087.5" y1="0" x2="1087.5" y2="8" fill="transparent" shape-rendering="crispEdges" stroke="#000" stroke-width="0" stroke-linecap="square"></line><svg x="0" y="0" font-size="10" style="overflow:visible"><text transform="" x="1087.5" y="18" fill="#000" font-size="10" text-anchor="middle"><tspan x="1087.5" dy="0em">75%</tspan></text></svg></g><g class="visx-group visx-axis-tick" transform="translate(0, 0)"><line class="visx-line" x1="1450" y1="0" x2="1450" y2="8" fill="transparent" shape-rendering="crispEdges" stroke="#000" stroke-width="0" stroke-linecap="square"></line><svg x="0" y="0" font-size="10" style="overflow:visible"><text transform="" x="1450" y="18" fill="#000" font-size="10" text-anchor="middle"><tspan x="1450" dy="0em">100%</tspan></text></svg></g><line class="visx-line visx-axis-line" x1="0.5" y1="0" x2="1450.5" y2="0" fill="transparent" shape-rendering="crispEdges" stroke="#222" stroke-width="0"></line></g><g class="visx-group visx-axis visx-axis-left" transform="translate(0, 0)"><g class="visx-group visx-axis-tick" transform="translate(0, 0)"><line class="visx-line" x1="0" y1="115" x2="-8" y2="115" fill="transparent" shape-rendering="crispEdges" stroke="#222" stroke-width="0" stroke-linecap="square"></line><svg x="-30" y="0" font-size="8" style="overflow:visible"><text transform="" x="-8" y="115" fill="#000" font-size="8" text-anchor="start"><tspan x="-8" dy="0em">0%</tspan></text></svg></g><g class="visx-group visx-axis-tick" transform="translate(0, 0)"><line class="visx-line" x1="0" y1="73.18181818181819" x2="-8" y2="73.18181818181819" fill="transparent" shape-rendering="crispEdges" stroke="#222" stroke-width="0" stroke-linecap="square"></line><svg x="-30" y="0" font-size="8" style="overflow:visible"><text transform="" x="-8" y="73.18181818181819" fill="#000" font-size="8" text-anchor="start"><tspan x="-8" dy="0em">200%</tspan></text></svg></g><g class="visx-group visx-axis-tick" transform="translate(0, 0)"><line class="visx-line" x1="0" y1="31.36363636363636" x2="-8" y2="31.36363636363636" fill="transparent" shape-rendering="crispEdges" stroke="#222" stroke-width="0" stroke-linecap="square"></line><svg x="-30" y="0" font-size="8" style="overflow:visible"><text transform="" x="-8" y="31.36363636363636" fill="#000" font-size="8" text-anchor="start"><tspan x="-8" dy="0em">400%</tspan></text></svg></g><line class="visx-line visx-axis-line" x1="0" y1="115.5" x2="0" y2="0.5" fill="transparent" shape-rendering="crispEdges" stroke="#222" stroke-width="0"></line></g><rect class="visx-bar" width="1450" height="115" fill="transparent"></rect><line class="visx-line" x1="696" y1="28" x2="696" y2="115" fill="transparent" shape-rendering="crispEdges" stroke="#0062D2" stroke-width="1" pointer-events="none" stroke-dasharray="5,2"></line><svg x="0" y="0" font-size="10px" style="overflow:visible"><text transform="" x="696" y="20" font-size="10px" fill="#fff" stroke="#fff" stroke-width="0.8em" text-anchor="middle"><tspan x="696" dy="0.355em">Optimal 48%</tspan></text></svg><svg x="0" y="0" font-size="10px" style="overflow:visible"><text transform="" x="696" y="20" font-size="10px" fill="#62677B" text-anchor="middle"><tspan x="696" dy="0.355em">Optimal 48%</tspan></text></svg></g></svg>