<?xml version="1.0"?><svg xmlns="http://www.w3.org/2000/svg" xmlns:xlink= "http://www.w3.org/1999/xlink" style="background: white;" width="1500" height="185"> <g style="color: black; font-size: 13px; font-family: sans-serif; transform: translate(18px, 25px);"><g><circle r="3" cx="-6" cy="-5" style="fill: #B6509E" /><text>Borrow APR, variable</text></g><g style="transform: translateX(150px);"><circle r="3" cx="-6" cy="-5" style="fill: rgb(231, 198, 223)" /><text>Borrow APR, stable</text></g><g style="transform: translateX(290px);"><circle r="3" cx="-6" cy="-5" style="fill: rgb(0, 98, 210)" /><text>Utilization Rate</text></g></g><g class="visx-group" transform="translate(40, 50)"><g class="visx-group visx-rows" transform="translate(0, 0)"><line class="visx-line" x1="0" y1="115" x2="1450" y2="115" fill="transparent" shape-rendering="crispEdges" stroke="#000" stroke-width="1" stroke-dasharray="3,3" pointer-events="none"></line><line class="visx-line" x1="0" y1="62.72727272727272" x2="1450" y2="62.72727272727272" fill="transparent" shape-rendering="crispEdges" stroke="#000" stroke-width="1" stroke-dasharray="3,3" pointer-events="none"></line><line class="visx-line" x1="0" y1="10.454545454545459" x2="1450" y2="10.454545454545459" fill="transparent" shape-rendering="crispEdges" stroke="#000" stroke-width="1" stroke-dasharray="3,3" pointer-events="none"></line></g><path class="visx-linepath" d="M0,113.4318181817267C2.4166666666666665,113.41657196964361,4.833333333333334,113.40132575756051,7.25,113.38607954545455C9.666666666666666,113.37083333334859,12.083333333333334,113.35558712121212,14.5,113.34034090909091C16.916666666666668,113.3250946969697,19.333333333333332,113.30984848484849,21.75,113.29460227272727C24.166666666666668,113.27935606060606,26.583333333333332,113.26410984848485,29,113.24886363636364C31.416666666666668,113.23361742424242,33.833333333333336,113.21837121212121,36.25,113.203125C38.666666666666664,113.18787878787879,41.083333333333336,113.17263257575758,43.5,113.15738636363636C45.91666666666667,113.14214015151515,48.333333333333336,113.12689393939395,50.75000000000001,113.11164772727274C53.16666666666667,113.09640151515153,55.583333333333336,113.0811553030303,58,113.06590909090909C60.416666666666664,113.05066287878788,62.833333333333336,113.03541666666666,65.25,113.02017045454545C67.66666666666667,113.00492424242424,70.08333333333333,112.98967803030304,72.5,112.97443181818183C74.91666666666667,112.95918560606061,77.33333333333333,112.94393939393939,79.75,112.92869318181818C82.16666666666667,112.91344696969696,84.58333333333333,112.89820075757575,87,112.88295454545454C89.41666666666667,112.86770833333333,91.83333333333333,112.85246212121213,94.25,112.83721590909092C96.66666666666667,112.8219696969697,99.08333333333334,112.80672348484849,101.50000000000001,112.79147727272728C103.91666666666667,112.77623106060607,106.33333333333334,112.76098484848484,108.75,112.74573863636363C111.16666666666667,112.73049242424241,113.58333333333333,112.71524621212122,116,112.7C118.41666666666667,112.68475378787879,120.83333333333334,112.66950757575758,123.25000000000001,112.65426136363637C125.66666666666667,112.63901515151515,128.08333333333334,112.62376893939394,130.5,112.60852272727273C132.91666666666666,112.59327651515152,135.33333333333334,112.5780303030303,137.75,112.56278409090909C140.16666666666666,112.54753787878788,142.58333333333334,112.53229166666667,145,112.51704545454545C147.41666666666666,112.50179924242424,149.83333333333334,112.48655303030303,152.25,112.47130681818182C154.66666666666666,112.4560606060606,157.08333333333334,112.4408143939394,159.5,112.42556818181819C161.91666666666666,112.41032196969698,164.33333333333334,112.39507575757575,166.75,112.37982954545454C169.16666666666666,112.36458333333333,171.58333333333334,112.34933712121212,174,112.3340909090909C176.41666666666666,112.31884469696969,178.83333333333334,112.3035984848485,181.25,112.28835227272728C183.66666666666666,112.27310606060607,186.08333333333334,112.25785984848486,188.5,112.24261363636364C190.91666666666666,112.22736742424243,193.33333333333334,112.2121212121212,195.75,112.19687499999999C198.16666666666669,112.18162878787878,200.58333333333334,112.16638257575758,203.00000000000003,112.15113636363637C205.41666666666669,112.13589015151516,207.83333333333331,112.12064393939394,210.24999999999997,112.10539772727273C212.66666666666666,112.09015151515152,215.08333333333331,112.0749053030303,217.5,112.0596590909091C219.91666666666666,112.04441287878788,222.33333333333334,112.02916666666667,224.75,112.01392045454546C227.16666666666666,111.99867424242424,229.58333333333334,111.98342803030303,232,111.96818181818182C234.41666666666666,111.9529356060606,236.83333333333334,111.9376893939394,239.25,111.92244318181818C241.66666666666669,111.90719696969697,244.08333333333334,111.89195075757577,246.50000000000003,111.87670454545456C248.91666666666669,111.86145833333335,251.33333333333331,111.84621212121212,253.74999999999997,111.8309659090909C256.16666666666663,111.8157196969697,258.5833333333333,111.80047348484848,261,111.78522727272727C263.4166666666667,111.76998106060606,265.8333333333333,111.75473484848486,268.25,111.73948863636365C270.6666666666667,111.72424242424243,273.0833333333333,111.7089962121212,275.5,111.69375C277.9166666666667,111.67850378787878,280.3333333333333,111.66325757575757,282.75,111.64801136363636C285.1666666666667,111.63276515151514,287.5833333333333,111.61751893939395,290,111.60227272727273C292.4166666666667,111.58702651515152,294.8333333333333,111.57178030303031,297.25,111.5565340909091C299.6666666666667,111.54128787878788,302.0833333333333,111.52604166666666,304.5,111.51079545454544C306.9166666666667,111.49554924242423,309.3333333333333,111.48030303030303,311.75,111.46505681818182C314.1666666666667,111.44981060606061,316.5833333333333,111.4345643939394,319,111.41931818181818C321.4166666666667,111.40407196969697,323.8333333333333,111.38882575757576,326.25,111.37357954545455C328.6666666666667,111.35833333333333,331.0833333333333,111.34308712121212,333.5,111.32784090909091C335.9166666666667,111.3125946969697,338.3333333333333,111.29734848484848,340.75,111.28210227272727C343.1666666666667,111.26685606060606,345.5833333333333,111.25160984848485,348,111.23636363636363C350.4166666666667,111.22111742424242,352.8333333333333,111.20587121212122,355.25,111.19062500000001C357.6666666666667,111.1753787878788,360.0833333333333,111.16013257575757,362.5,111.14488636363636C364.9166666666667,111.12964015151515,367.3333333333333,111.11439393939393,369.75,111.09914772727272C372.1666666666667,111.08390151515151,374.5833333333333,111.06865530303031,377,111.0534090909091C379.4166666666667,111.03816287878789,381.8333333333333,111.02291666666667,384.25,111.00767045454546C386.6666666666667,110.99242424242425,389.0833333333333,110.97717803030302,391.5,110.96193181818181C393.9166666666667,110.9466856060606,396.33333333333337,110.9314393939394,398.75000000000006,110.91619318181819C401.16666666666674,110.90094696969697,403.58333333333337,110.88570075757576,406.00000000000006,110.87045454545455C408.4166666666667,110.85520833333334,410.8333333333333,110.83996212121212,413.24999999999994,110.82471590909091C415.66666666666663,110.8094696969697,418.08333333333326,110.79422348484849,420.49999999999994,110.77897727272727C422.91666666666663,110.76373106060606,425.3333333333333,110.74848484848485,427.75,110.73323863636364C430.1666666666667,110.71799242424242,432.5833333333333,110.70274621212121,435,110.6875C437.4166666666667,110.67225378787879,439.8333333333333,110.65700757575758,442.25,110.64176136363636C444.6666666666667,110.62651515151515,447.0833333333333,110.61126893939394,449.5,110.59602272727273C451.9166666666667,110.58077651515151,454.3333333333333,110.5655303030303,456.75,110.55028409090909C459.1666666666667,110.53503787878788,461.5833333333333,110.51979166666666,464,110.50454545454545C466.4166666666667,110.48929924242424,468.8333333333333,110.47405303030303,471.25,110.45880681818181C473.6666666666667,110.4435606060606,476.0833333333333,110.42831439393939,478.5,110.41306818181818C480.9166666666667,110.39782196969696,483.33333333333337,110.38257575757576,485.75000000000006,110.36732954545455C488.16666666666674,110.35208333333334,490.58333333333337,110.33683712121213,493.00000000000006,110.32159090909092C495.4166666666667,110.3063446969697,497.8333333333333,110.29109848484849,500.24999999999994,110.27585227272728C502.66666666666663,110.26060606060607,505.08333333333326,110.24535984848485,507.49999999999994,110.23011363636364C509.91666666666663,110.21486742424243,512.3333333333333,110.19962121212122,514.75,110.184375C517.1666666666666,110.16912878787879,519.5833333333334,110.15388257575758,522,110.13863636363637C524.4166666666666,110.12339015151515,526.8333333333334,110.10814393939394,529.25,110.09289772727273C531.6666666666666,110.07765151515152,534.0833333333334,110.0624053030303,536.5,110.04715909090909C538.9166666666666,110.03191287878788,541.3333333333334,110.01666666666667,543.75,110.00142045454545C546.1666666666666,109.98617424242424,548.5833333333334,109.97092803030303,551,109.95568181818182C553.4166666666666,109.9404356060606,555.8333333333334,109.92518939393939,558.25,109.90994318181818C560.6666666666666,109.89469696969697,563.0833333333334,109.87945075757575,565.5,109.86420454545454C567.9166666666666,109.84895833333333,570.3333333333334,109.83371212121212,572.75,109.8184659090909C575.1666666666666,109.80321969696969,577.5833333333334,109.7879734848485,580,109.77272727272728C582.4166666666666,109.75748106060607,584.8333333333334,109.74223484848484,587.25,109.72698863636363C589.6666666666666,109.71174242424242,592.0833333333334,109.6964962121212,594.5,109.68124999999999C596.9166666666666,109.66600378787878,599.3333333333334,109.65075757575758,601.75,109.63551136363637C604.1666666666666,109.62026515151516,606.5833333333334,109.60501893939394,609,109.58977272727273C611.4166666666666,109.57452651515152,613.8333333333334,109.5592803030303,616.25,109.5440340909091C618.6666666666666,109.52878787878788,621.0833333333334,109.51354166666667,623.5,109.49829545454546C625.9166666666666,109.48304924242424,628.3333333333334,109.46780303030303,630.75,109.45255681818182C633.1666666666666,109.4373106060606,635.5833333333334,109.4220643939394,638,109.40681818181818C640.4166666666666,109.39157196969697,642.8333333333334,109.37632575757576,645.25,109.36107954545454C647.6666666666666,109.34583333333333,650.0833333333334,109.33058712121212,652.5,109.3153409090909C654.9166666666666,109.3000946969697,657.3333333333334,109.28484848484848,659.75,109.26960227272727C662.1666666666666,109.25435606060606,664.5833333333334,109.23910984848484,667,109.22386363636363C669.4166666666666,109.20861742424242,671.8333333333334,109.1933712121212,674.25,109.178125C676.6666666666666,109.16287878787878,679.0833333333334,109.14763257575757,681.5,109.13238636363636C683.9166666666666,109.11714015151514,686.3333333333334,109.10189393939395,688.75,109.08664772727273C691.1666666666666,109.07140151515152,693.5833333333334,109.05615530303031,696,109.0409090909091C698.4166666666666,109.02566287878788,700.8333333333334,109.01041666666666,703.25,108.99517045454544C705.6666666666666,108.97992424242423,708.0833333333334,108.96467803030303,710.5,108.94943181818182C712.9166666666666,108.93418560606061,715.3333333333334,108.9189393939394,717.75,108.90369318181818C720.1666666666666,108.88844696969697,722.5833333333334,108.87320075757575,725,108.85795454545453C727.4166666666666,108.84270833333332,729.8333333333334,108.82746212121212,732.25,108.81221590909091C734.6666666666666,108.7969696969697,737.0833333333334,108.78172348484848,739.5,108.76647727272727C741.9166666666666,108.75123106060606,744.3333333333334,108.73598484848485,746.75,108.72073863636363C749.1666666666666,108.70549242424242,751.5833333333334,108.69024621212121,754,108.675C756.4166666666666,108.65975378787878,758.8333333333334,108.64450757575757,761.25,108.62926136363636C763.6666666666666,108.61401515151515,766.0833333333334,108.59876893939393,768.5,108.58352272727272C770.9166666666666,108.56827651515151,773.3333333333334,108.55303030303031,775.75,108.5377840909091C778.1666666666666,108.52253787878789,780.5833333333334,108.50729166666666,783,108.49204545454545C785.4166666666667,108.47679924242424,787.8333333333334,108.46155303030302,790.2500000000001,108.44630681818181C792.6666666666667,108.4310606060606,795.0833333333335,108.4158143939394,797.5000000000001,108.40056818181819C799.9166666666667,108.38532196969697,802.3333333333335,108.37007575757576,804.7500000000001,108.35482954545455C807.1666666666667,108.33958333333334,809.5833333333335,108.32433712121211,812.0000000000001,108.3090909090909C814.4166666666667,108.29384469696969,816.8333333333333,108.27859848484849,819.2499999999999,108.26335227272727C821.6666666666665,108.24810606060606,824.0833333333333,108.23285984848485,826.4999999999999,108.21761363636364C828.9166666666665,108.20236742424242,831.3333333333333,108.18712121212121,833.7499999999999,108.171875C836.1666666666665,108.15662878787879,838.5833333333333,108.14138257575758,840.9999999999999,108.12613636363636C843.4166666666666,108.11089015151515,845.8333333333333,108.09564393939394,848.25,108.08039772727273C850.6666666666666,108.06515151515151,853.0833333333334,108.0499053030303,855.5,108.03465909090909C857.9166666666666,108.01941287878788,860.3333333333334,108.00416666666668,862.75,107.98892045454546C865.1666666666666,107.97367424242425,867.5833333333334,107.95842803030303,870,107.94318181818181C872.4166666666666,107.9279356060606,874.8333333333334,107.91268939393939,877.25,107.89744318181818C879.6666666666666,107.88219696969696,882.0833333333334,107.86695075757576,884.5,107.85170454545455C886.9166666666666,107.83645833333334,889.3333333333334,107.82121212121213,891.75,107.80596590909092C894.1666666666666,107.7907196969697,896.5833333333334,107.77547348484848,899,107.76022727272726C901.4166666666666,107.74498106060605,903.8333333333334,107.72973484848485,906.25,107.71448863636364C908.6666666666666,107.69924242424243,911.0833333333334,107.68399621212122,913.5,107.66875C915.9166666666666,107.65350378787879,918.3333333333334,107.63825757575756,920.75,107.62301136363635C923.1666666666666,107.60776515151514,925.5833333333334,107.59251893939394,928,107.57727272727273C930.4166666666666,107.56202651515152,932.8333333333334,107.5467803030303,935.25,107.53153409090909C937.6666666666666,107.51628787878788,940.0833333333334,107.50104166666667,942.5,107.48579545454545C944.9166666666666,107.47054924242424,947.3333333333334,107.45530303030304,949.75,107.44005681818183C952.1666666666666,107.42481060606062,954.5833333333334,107.40956439393939,957,107.39431818181818C959.4166666666666,107.37907196969697,961.8333333333334,107.36382575757575,964.25,107.34857954545454C966.6666666666667,107.33333333333333,969.0833333333334,107.31808712121213,971.5000000000001,107.30284090909092C973.9166666666667,107.2875946969697,976.3333333333335,107.27234848484848,978.7500000000001,107.25710227272727C981.1666666666667,107.24185606060605,983.5833333333335,107.22660984848484,986.0000000000001,107.21136363636363C988.4166666666667,107.19611742424242,990.8333333333335,107.18087121212122,993.2500000000001,107.165625C995.6666666666667,107.1503787878788,998.0833333333333,107.13513257575758,1000.4999999999999,107.11988636363637C1002.9166666666665,107.10464015151516,1005.3333333333333,107.08939393939393,1007.7499999999999,107.07414772727272C1010.1666666666665,107.0589015151515,1012.5833333333333,107.0436553030303,1014.9999999999999,107.0284090909091C1017.4166666666665,107.01316287878788,1019.8333333333333,106.99791666666667,1022.2499999999999,106.98267045454546C1024.6666666666665,106.96742424242424,1027.0833333333333,106.95217803030303,1029.5,106.93693181818182C1031.9166666666667,106.9216856060606,1034.3333333333333,106.9064393939394,1036.75,106.89119318181818C1039.1666666666667,106.87594696969697,1041.5833333333333,106.86070075757576,1044,106.84545454545454C1046.4166666666667,106.83020833333333,1048.8333333333333,106.81496212121212,1051.25,106.7997159090909C1053.6666666666667,106.7844696969697,1056.0833333333333,106.7692234848485,1058.5,106.75397727272728C1060.9166666666667,106.73873106060607,1063.3333333333333,106.72348484848484,1065.75,106.70823863636363C1068.1666666666667,106.69299242424242,1070.5833333333333,106.6777462121212,1073,106.6625C1075.4166666666667,106.64725378787878,1077.8333333333333,106.63200757575758,1080.25,106.61676136363637C1082.6666666666667,106.60151515151516,1085.0833333333333,106.58626893939395,1087.5,106.57102272727273C1089.9166666666667,106.55577651515152,1092.3333333333333,106.5405303030303,1094.75,106.52528409090908C1097.1666666666667,106.51003787878787,1099.5833333333333,106.49479166666667,1102,106.47954545454546C1104.4166666666667,106.46429924242425,1106.8333333333333,106.44905303030303,1109.25,106.43380681818182C1111.6666666666667,106.41856060606061,1114.0833333333333,106.40331439393938,1116.5,106.38806818181817C1118.9166666666667,106.37282196969696,1121.3333333333333,106.35757575757576,1123.75,106.34232954545455C1126.1666666666667,106.32708333333333,1128.5833333333333,106.31183712121212,1131,106.29659090909091C1133.4166666666667,106.2813446969697,1135.8333333333333,106.26609848484848,1138.25,106.25085227272727C1140.6666666666667,106.23560606060606,1143.0833333333333,106.22035984848485,1145.5,106.20511363636363C1147.9166666666667,106.18986742424242,1150.3333333333333,106.17462121212121,1152.75,106.159375C1155.1666666666667,106.14412878787878,1157.5833333333333,106.14412878787878,1160,106.11363636363636C1162.4166666666667,106.08314393939393,1164.8333333333333,104.80681818181819,1167.25,104.1534090909091C1169.6666666666667,103.5,1172.0833333333333,102.84659090909092,1174.5,102.19318181818183C1176.9166666666667,101.53977272727273,1179.3333333333333,100.88636363636364,1181.75,100.23295454545455C1184.1666666666667,99.57954545454545,1186.5833333333333,98.92613636363636,1189,98.27272727272727C1191.4166666666667,97.61931818181817,1193.8333333333333,96.9659090909091,1196.25,96.3125C1198.6666666666667,95.6590909090909,1201.0833333333333,95.00568181818181,1203.5,94.35227272727272C1205.9166666666667,93.69886363636363,1208.3333333333333,93.04545454545456,1210.75,92.39204545454547C1213.1666666666667,91.73863636363637,1215.5833333333333,91.08522727272728,1218,90.43181818181819C1220.4166666666667,89.7784090909091,1222.8333333333333,89.125,1225.25,88.4715909090909C1227.6666666666667,87.81818181818181,1230.0833333333333,87.16477272727272,1232.5,86.51136363636363C1234.9166666666667,85.85795454545453,1237.3333333333333,85.20454545454545,1239.75,84.55113636363636C1242.1666666666667,83.89772727272727,1244.5833333333333,83.24431818181819,1247,82.5909090909091C1249.4166666666667,81.9375,1251.8333333333333,81.28409090909092,1254.25,80.63068181818183C1256.6666666666667,79.97727272727273,1259.0833333333333,79.32386363636364,1261.5,78.67045454545455C1263.9166666666667,78.01704545454545,1266.3333333333333,77.36363636363636,1268.75,76.71022727272727C1271.1666666666667,76.05681818181817,1273.5833333333333,75.4034090909091,1276,74.75C1278.4166666666667,74.0965909090909,1280.8333333333333,73.44318181818181,1283.25,72.78977272727272C1285.6666666666667,72.13636363636363,1288.0833333333333,71.48295454545456,1290.5,70.82954545454547C1292.9166666666667,70.17613636363637,1295.3333333333333,69.52272727272728,1297.75,68.86931818181819C1300.1666666666667,68.2159090909091,1302.5833333333333,67.5625,1305,66.9090909090909C1307.4166666666667,66.25568181818181,1309.8333333333333,65.60227272727272,1312.25,64.94886363636363C1314.6666666666667,64.29545454545453,1317.0833333333333,63.64204545454545,1319.5,62.98863636363637C1321.9166666666667,62.33522727272728,1324.3333333333333,61.681818181818194,1326.75,61.0284090909091C1329.1666666666667,60.37500000000001,1331.5833333333333,59.721590909090914,1334,59.06818181818182C1336.4166666666667,58.41477272727273,1338.8333333333333,57.76136363636364,1341.25,57.10795454545455C1343.6666666666667,56.45454545454545,1346.0833333333333,55.80113636363636,1348.5,55.147727272727266C1350.9166666666667,54.49431818181817,1353.3333333333333,53.84090909090908,1355.75,53.18749999999999C1358.1666666666667,52.53409090909091,1360.5833333333333,51.88068181818181,1363,51.22727272727273C1365.4166666666667,50.57386363636364,1367.8333333333333,49.920454545454554,1370.25,49.26704545454546C1372.6666666666667,48.61363636363637,1375.0833333333333,47.96022727272727,1377.5,47.30681818181818C1379.9166666666667,46.653409090909086,1382.3333333333333,46,1384.75,45.34659090909091C1387.1666666666667,44.69318181818181,1389.5833333333333,44.039772727272734,1392,43.38636363636364C1394.4166666666667,42.73295454545455,1396.8333333333333,42.07954545454546,1399.25,41.42613636363637C1401.6666666666667,40.77272727272727,1404.0833333333333,40.11931818181818,1406.5,39.465909090909086C1408.9166666666667,38.81249999999999,1411.3333333333333,38.15909090909091,1413.75,37.50568181818182C1416.1666666666667,36.852272727272734,1418.5833333333333,36.19886363636364,1421,35.54545454545455C1423.4166666666667,34.89204545454545,1425.8333333333333,34.23863636363636,1428.25,33.585227272727266C1430.6666666666667,32.93181818181817,1433.0833333333333,32.27840909090909,1435.5,31.625000000000004C1437.9166666666667,30.971590909090914,1440.3333333333333,30.318181818181817,1442.75,29.664772727272727C1445.1666666666667,29.011363636363637,1447.5833333333333,28.357954545454547,1450,27.70454545454546" fill="transparent" stroke-linecap="round" stroke="#B6509E" stroke-width="2"></path><path class="visx-linepath" d="M0,106.11363636350569C2.4166666666666665,106.09185606052984,4.833333333333334,106.07007575755398,7.25,106.04829545454545C9.666666666666666,106.02651515153693,12.083333333333334,106.00473484848484,14.5,105.98295454545455C16.916666666666668,105.96117424242425,19.333333333333332,105.93939393939394,21.75,105.91761363636364C24.166666666666668,105.89583333333334,26.583333333333332,105.87405303030302,29,105.85227272727272C31.416666666666668,105.83049242424242,33.833333333333336,105.80871212121212,36.25,105.78693181818183C38.666666666666664,105.76515151515153,41.083333333333336,105.7433712121212,43.5,105.7215909090909C45.91666666666667,105.6998106060606,48.333333333333336,105.6780303030303,50.75000000000001,105.65625C53.16666666666667,105.6344696969697,55.583333333333336,105.61268939393939,58,105.5909090909091C60.416666666666664,105.5691287878788,62.833333333333336,105.54734848484848,65.25,105.52556818181819C67.66666666666667,105.50378787878789,70.08333333333333,105.48200757575756,72.5,105.46022727272727C74.91666666666667,105.43844696969697,77.33333333333333,105.41666666666666,79.75,105.39488636363636C82.16666666666667,105.37310606060606,84.58333333333333,105.35132575757575,87,105.32954545454545C89.41666666666667,105.30776515151516,91.83333333333333,105.28598484848483,94.25,105.26420454545453C96.66666666666667,105.24242424242424,99.08333333333334,105.22064393939394,101.50000000000001,105.19886363636364C103.91666666666667,105.17708333333334,106.33333333333334,105.15530303030302,108.75,105.13352272727272C111.16666666666667,105.11174242424241,113.58333333333333,105.08996212121211,116,105.06818181818181C118.41666666666667,105.04640151515152,120.83333333333334,105.0246212121212,123.25000000000001,105.0028409090909C125.66666666666667,104.98106060606061,128.08333333333334,104.9592803030303,130.5,104.9375C132.91666666666666,104.91571969696969,135.33333333333334,104.89393939393938,137.75,104.87215909090908C140.16666666666666,104.85037878787878,142.58333333333334,104.82859848484848,145,104.80681818181819C147.41666666666666,104.78503787878789,149.83333333333334,104.76325757575756,152.25,104.74147727272727C154.66666666666666,104.71969696969697,157.08333333333334,104.69791666666667,159.5,104.67613636363637C161.91666666666666,104.65435606060608,164.33333333333334,104.63257575757575,166.75,104.61079545454545C169.16666666666666,104.58901515151516,171.58333333333334,104.56723484848484,174,104.54545454545455C176.41666666666666,104.52367424242425,178.83333333333334,104.50189393939394,181.25,104.48011363636364C183.66666666666666,104.45833333333334,186.08333333333334,104.43655303030303,188.5,104.41477272727273C190.91666666666666,104.39299242424244,193.33333333333334,104.37121212121211,195.75,104.34943181818181C198.16666666666669,104.3276515151515,200.58333333333334,104.3058712121212,203.00000000000003,104.2840909090909C205.41666666666669,104.26231060606061,207.83333333333331,104.2405303030303,210.24999999999997,104.21875C212.66666666666666,104.1969696969697,215.08333333333331,104.17518939393939,217.5,104.1534090909091C219.91666666666666,104.1316287878788,222.33333333333334,104.10984848484848,224.75,104.08806818181819C227.16666666666666,104.06628787878789,229.58333333333334,104.04450757575756,232,104.02272727272727C234.41666666666666,104.00094696969697,236.83333333333334,103.97916666666666,239.25,103.95738636363636C241.66666666666669,103.93560606060606,244.08333333333334,103.91382575757575,246.50000000000003,103.89204545454545C248.91666666666669,103.87026515151516,251.33333333333331,103.84848484848484,253.74999999999997,103.82670454545455C256.16666666666663,103.80492424242424,258.5833333333333,103.78314393939392,261,103.76136363636363C263.4166666666667,103.73958333333333,265.8333333333333,103.71780303030303,268.25,103.69602272727273C270.6666666666667,103.67424242424244,273.0833333333333,103.65246212121211,275.5,103.63068181818181C277.9166666666667,103.60890151515152,280.3333333333333,103.58712121212122,282.75,103.56534090909092C285.1666666666667,103.54356060606062,287.5833333333333,103.5217803030303,290,103.5C292.4166666666667,103.4782196969697,294.8333333333333,103.45643939393939,297.25,103.4346590909091C299.6666666666667,103.4128787878788,302.0833333333333,103.39109848484848,304.5,103.36931818181819C306.9166666666667,103.34753787878789,309.3333333333333,103.32575757575758,311.75,103.30397727272728C314.1666666666667,103.28219696969698,316.5833333333333,103.26041666666666,319,103.23863636363636C321.4166666666667,103.21685606060606,323.8333333333333,103.19507575757576,326.25,103.17329545454547C328.6666666666667,103.15151515151517,331.0833333333333,103.12973484848484,333.5,103.10795454545455C335.9166666666667,103.08617424242425,338.3333333333333,103.06439393939394,340.75,103.04261363636364C343.1666666666667,103.02083333333334,345.5833333333333,102.99905303030303,348,102.97727272727273C350.4166666666667,102.95549242424244,352.8333333333333,102.93371212121211,355.25,102.91193181818181C357.6666666666667,102.89015151515152,360.0833333333333,102.8683712121212,362.5,102.8465909090909C364.9166666666667,102.82481060606061,367.3333333333333,102.8030303030303,369.75,102.78125C372.1666666666667,102.7594696969697,374.5833333333333,102.73768939393939,377,102.7159090909091C379.4166666666667,102.6941287878788,381.8333333333333,102.67234848484847,384.25,102.65056818181817C386.6666666666667,102.62878787878788,389.0833333333333,102.60700757575758,391.5,102.58522727272728C393.9166666666667,102.56344696969698,396.33333333333337,102.54166666666667,398.75000000000006,102.51988636363636C401.16666666666674,102.49810606060606,403.58333333333337,102.47632575757575,406.00000000000006,102.45454545454545C408.4166666666667,102.43276515151516,410.8333333333333,102.41098484848484,413.24999999999994,102.38920454545455C415.66666666666663,102.36742424242425,418.08333333333326,102.34564393939394,420.49999999999994,102.32386363636364C422.91666666666663,102.30208333333333,425.3333333333333,102.28030303030302,427.75,102.25852272727272C430.1666666666667,102.23674242424242,432.5833333333333,102.21496212121212,435,102.19318181818183C437.4166666666667,102.17140151515153,439.8333333333333,102.1496212121212,442.25,102.1278409090909C444.6666666666667,102.10606060606061,447.0833333333333,102.0842803030303,449.5,102.0625C451.9166666666667,102.0407196969697,454.3333333333333,102.01893939393939,456.75,101.9971590909091C459.1666666666667,101.9753787878788,461.5833333333333,101.95359848484848,464,101.93181818181819C466.4166666666667,101.91003787878789,468.8333333333333,101.88825757575758,471.25,101.86647727272728C473.6666666666667,101.84469696969698,476.0833333333333,101.82291666666666,478.5,101.80113636363636C480.9166666666667,101.77935606060605,483.33333333333337,101.75757575757576,485.75000000000006,101.73579545454545C488.16666666666674,101.71401515151516,490.58333333333337,101.69223484848483,493.00000000000006,101.67045454545453C495.4166666666667,101.64867424242424,497.8333333333333,101.62689393939394,500.24999999999994,101.60511363636364C502.66666666666663,101.58333333333334,505.08333333333326,101.56155303030302,507.49999999999994,101.53977272727272C509.91666666666663,101.51799242424242,512.3333333333333,101.49621212121212,514.75,101.47443181818183C517.1666666666666,101.45265151515153,519.5833333333334,101.4308712121212,522,101.4090909090909C524.4166666666666,101.38731060606061,526.8333333333334,101.3655303030303,529.25,101.34375C531.6666666666666,101.3219696969697,534.0833333333334,101.30018939393938,536.5,101.27840909090908C538.9166666666666,101.25662878787878,541.3333333333334,101.23484848484848,543.75,101.21306818181819C546.1666666666666,101.19128787878789,548.5833333333334,101.16950757575756,551,101.14772727272727C553.4166666666666,101.12594696969697,555.8333333333334,101.10416666666667,558.25,101.08238636363637C560.6666666666666,101.06060606060608,563.0833333333334,101.03882575757575,565.5,101.01704545454545C567.9166666666666,100.99526515151516,570.3333333333334,100.97348484848484,572.75,100.95170454545455C575.1666666666666,100.92992424242425,577.5833333333334,100.90814393939394,580,100.88636363636364C582.4166666666666,100.86458333333334,584.8333333333334,100.84280303030303,587.25,100.82102272727273C589.6666666666666,100.79924242424244,592.0833333333334,100.77746212121211,594.5,100.75568181818181C596.9166666666666,100.73390151515152,599.3333333333334,100.7121212121212,601.75,100.6903409090909C604.1666666666666,100.66856060606061,606.5833333333334,100.6467803030303,609,100.625C611.4166666666666,100.6032196969697,613.8333333333334,100.58143939393939,616.25,100.5596590909091C618.6666666666666,100.5378787878788,621.0833333333334,100.51609848484847,623.5,100.49431818181817C625.9166666666666,100.47253787878788,628.3333333333334,100.45075757575756,630.75,100.42897727272727C633.1666666666666,100.40719696969697,635.5833333333334,100.38541666666666,638,100.36363636363636C640.4166666666666,100.34185606060606,642.8333333333334,100.32007575757575,645.25,100.29829545454545C647.6666666666666,100.27651515151516,650.0833333333334,100.25473484848484,652.5,100.23295454545455C654.9166666666666,100.21117424242425,657.3333333333334,100.18939393939394,659.75,100.16761363636364C662.1666666666666,100.14583333333334,664.5833333333334,100.12405303030303,667,100.10227272727273C669.4166666666666,100.08049242424244,671.8333333333334,100.05871212121211,674.25,100.03693181818181C676.6666666666666,100.01515151515152,679.0833333333334,99.99337121212122,681.5,99.97159090909092C683.9166666666666,99.94981060606062,686.3333333333334,99.9280303030303,688.75,99.90625C691.1666666666666,99.8844696969697,693.5833333333334,99.86268939393939,696,99.8409090909091C698.4166666666666,99.8191287878788,700.8333333333334,99.79734848484848,703.25,99.77556818181819C705.6666666666666,99.75378787878789,708.0833333333334,99.73200757575758,710.5,99.71022727272728C712.9166666666666,99.68844696969698,715.3333333333334,99.66666666666666,717.75,99.64488636363636C720.1666666666666,99.62310606060606,722.5833333333334,99.60132575757576,725,99.57954545454547C727.4166666666666,99.55776515151517,729.8333333333334,99.53598484848484,732.25,99.51420454545455C734.6666666666666,99.49242424242425,737.0833333333334,99.47064393939394,739.5,99.44886363636364C741.9166666666666,99.42708333333334,744.3333333333334,99.40530303030303,746.75,99.38352272727273C749.1666666666666,99.36174242424244,751.5833333333334,99.33996212121211,754,99.31818181818181C756.4166666666666,99.29640151515152,758.8333333333334,99.2746212121212,761.25,99.2528409090909C763.6666666666666,99.23106060606061,766.0833333333334,99.2092803030303,768.5,99.1875C770.9166666666666,99.1657196969697,773.3333333333334,99.14393939393939,775.75,99.1221590909091C778.1666666666666,99.1003787878788,780.5833333333334,99.07859848484847,783,99.05681818181817C785.4166666666667,99.03503787878788,787.8333333333334,99.01325757575758,790.2500000000001,98.99147727272728C792.6666666666667,98.96969696969698,795.0833333333335,98.94791666666666,797.5000000000001,98.92613636363636C799.9166666666667,98.90435606060606,802.3333333333335,98.88257575757575,804.7500000000001,98.86079545454545C807.1666666666667,98.83901515151516,809.5833333333335,98.81723484848484,812.0000000000001,98.79545454545455C814.4166666666667,98.77367424242425,816.8333333333333,98.75189393939394,819.2499999999999,98.73011363636364C821.6666666666665,98.70833333333333,824.0833333333333,98.68655303030302,826.4999999999999,98.66477272727272C828.9166666666665,98.64299242424242,831.3333333333333,98.62121212121212,833.7499999999999,98.59943181818183C836.1666666666665,98.57765151515153,838.5833333333333,98.5558712121212,840.9999999999999,98.5340909090909C843.4166666666666,98.5123106060606,845.8333333333333,98.4905303030303,848.25,98.46875C850.6666666666666,98.4469696969697,853.0833333333334,98.42518939393939,855.5,98.4034090909091C857.9166666666666,98.3816287878788,860.3333333333334,98.35984848484848,862.75,98.33806818181819C865.1666666666666,98.31628787878789,867.5833333333334,98.29450757575756,870,98.27272727272727C872.4166666666666,98.25094696969697,874.8333333333334,98.22916666666666,877.25,98.20738636363636C879.6666666666666,98.18560606060606,882.0833333333334,98.16382575757575,884.5,98.14204545454545C886.9166666666666,98.12026515151516,889.3333333333334,98.09848484848483,891.75,98.07670454545453C894.1666666666666,98.05492424242424,896.5833333333334,98.03314393939394,899,98.01136363636364C901.4166666666666,97.98958333333334,903.8333333333334,97.96780303030302,906.25,97.94602272727272C908.6666666666666,97.92424242424242,911.0833333333334,97.90246212121211,913.5,97.88068181818181C915.9166666666666,97.85890151515152,918.3333333333334,97.8371212121212,920.75,97.8153409090909C923.1666666666666,97.79356060606061,925.5833333333334,97.7717803030303,928,97.75C930.4166666666666,97.7282196969697,932.8333333333334,97.70643939393938,935.25,97.68465909090908C937.6666666666666,97.66287878787878,940.0833333333334,97.64109848484848,942.5,97.61931818181819C944.9166666666666,97.59753787878789,947.3333333333334,97.57575757575756,949.75,97.55397727272727C952.1666666666666,97.53219696969697,954.5833333333334,97.51041666666666,957,97.48863636363636C959.4166666666666,97.46685606060606,961.8333333333334,97.44507575757575,964.25,97.42329545454545C966.6666666666667,97.40151515151516,969.0833333333334,97.37973484848486,971.5000000000001,97.35795454545455C973.9166666666667,97.33617424242425,976.3333333333335,97.31439393939392,978.7500000000001,97.29261363636363C981.1666666666667,97.27083333333333,983.5833333333335,97.24905303030303,986.0000000000001,97.22727272727273C988.4166666666667,97.20549242424244,990.8333333333335,97.18371212121212,993.2500000000001,97.16193181818181C995.6666666666667,97.14015151515152,998.0833333333333,97.1183712121212,1000.4999999999999,97.0965909090909C1002.9166666666665,97.07481060606061,1005.3333333333333,97.0530303030303,1007.7499999999999,97.03125C1010.1666666666665,97.0094696969697,1012.5833333333333,96.98768939393939,1014.9999999999999,96.9659090909091C1017.4166666666665,96.9441287878788,1019.8333333333333,96.92234848484848,1022.2499999999999,96.90056818181819C1024.6666666666665,96.87878787878788,1027.0833333333333,96.85700757575756,1029.5,96.83522727272727C1031.9166666666667,96.81344696969697,1034.3333333333333,96.79166666666667,1036.75,96.76988636363637C1039.1666666666667,96.74810606060608,1041.5833333333333,96.72632575757575,1044,96.70454545454545C1046.4166666666667,96.68276515151516,1048.8333333333333,96.66098484848484,1051.25,96.63920454545455C1053.6666666666667,96.61742424242425,1056.0833333333333,96.59564393939394,1058.5,96.57386363636364C1060.9166666666667,96.55208333333334,1063.3333333333333,96.53030303030303,1065.75,96.50852272727273C1068.1666666666667,96.48674242424244,1070.5833333333333,96.46496212121211,1073,96.44318181818181C1075.4166666666667,96.42140151515152,1077.8333333333333,96.39962121212122,1080.25,96.37784090909092C1082.6666666666667,96.35606060606062,1085.0833333333333,96.3342803030303,1087.5,96.3125C1089.9166666666667,96.2907196969697,1092.3333333333333,96.26893939393939,1094.75,96.2471590909091C1097.1666666666667,96.2253787878788,1099.5833333333333,96.20359848484848,1102,96.18181818181819C1104.4166666666667,96.16003787878789,1106.8333333333333,96.13825757575758,1109.25,96.11647727272728C1111.6666666666667,96.09469696969698,1114.0833333333333,96.07291666666666,1116.5,96.05113636363636C1118.9166666666667,96.02935606060606,1121.3333333333333,96.00757575757576,1123.75,95.98579545454547C1126.1666666666667,95.96401515151517,1128.5833333333333,95.94223484848484,1131,95.92045454545455C1133.4166666666667,95.89867424242425,1135.8333333333333,95.87689393939394,1138.25,95.85511363636364C1140.6666666666667,95.83333333333334,1143.0833333333333,95.81155303030303,1145.5,95.78977272727273C1147.9166666666667,95.76799242424244,1150.3333333333333,95.74621212121211,1152.75,95.72443181818181C1155.1666666666667,95.70265151515152,1157.5833333333333,95.70265151515152,1160,95.6590909090909C1162.4166666666667,95.6155303030303,1164.8333333333333,94.35227272727272,1167.25,93.69886363636363C1169.6666666666667,93.04545454545453,1172.0833333333333,92.39204545454545,1174.5,91.73863636363636C1176.9166666666667,91.08522727272727,1179.3333333333333,90.43181818181819,1181.75,89.7784090909091C1184.1666666666667,89.125,1186.5833333333333,88.47159090909092,1189,87.81818181818183C1191.4166666666667,87.16477272727273,1193.8333333333333,86.51136363636364,1196.25,85.85795454545455C1198.6666666666667,85.20454545454545,1201.0833333333333,84.55113636363636,1203.5,83.89772727272727C1205.9166666666667,83.24431818181817,1208.3333333333333,82.5909090909091,1210.75,81.9375C1213.1666666666667,81.2840909090909,1215.5833333333333,80.63068181818181,1218,79.97727272727272C1220.4166666666667,79.32386363636363,1222.8333333333333,78.67045454545456,1225.25,78.01704545454547C1227.6666666666667,77.36363636363637,1230.0833333333333,76.71022727272728,1232.5,76.05681818181819C1234.9166666666667,75.4034090909091,1237.3333333333333,74.75,1239.75,74.0965909090909C1242.1666666666667,73.44318181818181,1244.5833333333333,72.78977272727272,1247,72.13636363636363C1249.4166666666667,71.48295454545453,1251.8333333333333,70.82954545454545,1254.25,70.17613636363636C1256.6666666666667,69.52272727272727,1259.0833333333333,68.86931818181819,1261.5,68.2159090909091C1263.9166666666667,67.5625,1266.3333333333333,66.90909090909092,1268.75,66.25568181818183C1271.1666666666667,65.60227272727273,1273.5833333333333,64.94886363636364,1276,64.29545454545455C1278.4166666666667,63.64204545454545,1280.8333333333333,62.98863636363636,1283.25,62.335227272727266C1285.6666666666667,61.68181818181817,1288.0833333333333,61.02840909090909,1290.5,60.375C1292.9166666666667,59.72159090909091,1295.3333333333333,59.06818181818182,1297.75,58.41477272727273C1300.1666666666667,57.76136363636363,1302.5833333333333,57.10795454545454,1305,56.454545454545446C1307.4166666666667,55.80113636363635,1309.8333333333333,55.147727272727266,1312.25,54.49431818181818C1314.6666666666667,53.84090909090909,1317.0833333333333,53.1875,1319.5,52.53409090909091C1321.9166666666667,51.88068181818181,1324.3333333333333,51.227272727272734,1326.75,50.57386363636364C1329.1666666666667,49.92045454545455,1331.5833333333333,49.26704545454546,1334,48.61363636363637C1336.4166666666667,47.96022727272727,1338.8333333333333,47.30681818181818,1341.25,46.653409090909086C1343.6666666666667,45.99999999999999,1346.0833333333333,45.34659090909091,1348.5,44.69318181818182C1350.9166666666667,44.039772727272734,1353.3333333333333,43.38636363636364,1355.75,42.73295454545455C1358.1666666666667,42.07954545454545,1360.5833333333333,41.42613636363636,1363,40.772727272727266C1365.4166666666667,40.11931818181817,1367.8333333333333,39.46590909090909,1370.25,38.8125C1372.6666666666667,38.15909090909091,1375.0833333333333,37.50568181818181,1377.5,36.85227272727273C1379.9166666666667,36.19886363636364,1382.3333333333333,35.545454545454554,1384.75,34.89204545454546C1387.1666666666667,34.23863636363637,1389.5833333333333,33.58522727272727,1392,32.93181818181818C1394.4166666666667,32.278409090909086,1396.8333333333333,31.624999999999996,1399.25,30.971590909090907C1401.6666666666667,30.318181818181817,1404.0833333333333,29.66477272727273,1406.5,29.01136363636364C1408.9166666666667,28.35795454545455,1411.3333333333333,27.704545454545457,1413.75,27.051136363636363C1416.1666666666667,26.39772727272727,1418.5833333333333,25.744318181818176,1421,25.090909090909086C1423.4166666666667,24.437499999999996,1425.8333333333333,23.78409090909091,1428.25,23.13068181818182C1430.6666666666667,22.47727272727273,1433.0833333333333,21.823863636363637,1435.5,21.170454545454543C1437.9166666666667,20.51704545454545,1440.3333333333333,19.863636363636356,1442.75,19.210227272727266C1445.1666666666667,18.556818181818176,1447.5833333333333,17.90340909090909,1450,17.250000000000004" fill="transparent" stroke-linecap="round" stroke="#E7C6DF" stroke-width="2"></path><g class="visx-group visx-axis visx-axis-bottom" transform="translate(0, 115)"><g class="visx-group visx-axis-tick" transform="translate(0, 0)"><line class="visx-line" x1="0" y1="0" x2="0" y2="8" fill="transparent" shape-rendering="crispEdges" stroke="#000" stroke-width="0" stroke-linecap="square"></line><svg x="0" y="0" font-size="10" style="overflow:visible"><text transform="" x="0" y="18" fill="#000" font-size="10" text-anchor="middle"><tspan x="0" dy="0em">0%</tspan></text></svg></g><g class="visx-group visx-axis-tick" transform="translate(0, 0)"><line class="visx-line" x1="362.5" y1="0" x2="362.5" y2="8" fill="transparent" shape-rendering="crispEdges" stroke="#000" stroke-width="0" stroke-linecap="square"></line><svg x="0" y="0" font-size="10" style="overflow:visible"><text transform="" x="362.5" y="18" fill="#000" font-size="10" text-anchor="middle"><tspan x="362.5" dy="0em">25%</tspan></text></svg></g><g class="visx-group visx-axis-tick" transform="translate(0, 0)"><line class="visx-line" x1="725" y1="0" x2="725" y2="8" fill="transparent" shape-rendering="crispEdges" stroke="#000" stroke-width="0" stroke-linecap="square"></line><svg x="0" y="0" font-size="10" style="overflow:visible"><text transform="" x="725" y="18" fill="#000" font-size="10" text-anchor="middle"><tspan x="725" dy="0em">50%</tspan></text></svg></g><g class="visx-group visx-axis-tick" transform="translate(0, 0)"><line class="visx-line" x1="1087.5" y1="0" x2="1087.5" y2="8" fill="transparent" shape-rendering="crispEdges" stroke="#000" stroke-width="0" stroke-linecap="square"></line><svg x="0" y="0" font-size="10" style="overflow:visible"><text transform="" x="1087.5" y="18" fill="#000" font-size="10" text-anchor="middle"><tspan x="1087.5" dy="0em">75%</tspan></text></svg></g><g class="visx-group visx-axis-tick" transform="translate(0, 0)"><line class="visx-line" x1="1450" y1="0" x2="1450" y2="8" fill="transparent" shape-rendering="crispEdges" stroke="#000" stroke-width="0" stroke-linecap="square"></line><svg x="0" y="0" font-size="10" style="overflow:visible"><text transform="" x="1450" y="18" fill="#000" font-size="10" text-anchor="middle"><tspan x="1450" dy="0em">100%</tspan></text></svg></g><line class="visx-line visx-axis-line" x1="0.5" y1="0" x2="1450.5" y2="0" fill="transparent" shape-rendering="crispEdges" stroke="#222" stroke-width="0"></line></g><g class="visx-group visx-axis visx-axis-left" transform="translate(0, 0)"><g class="visx-group visx-axis-tick" transform="translate(0, 0)"><line class="visx-line" x1="0" y1="115" x2="-8" y2="115" fill="transparent" shape-rendering="crispEdges" stroke="#222" stroke-width="0" stroke-linecap="square"></line><svg x="-30" y="0" font-size="8" style="overflow:visible"><text transform="" x="-8" y="115" fill="#000" font-size="8" text-anchor="start"><tspan x="-8" dy="0em">0%</tspan></text></svg></g><g class="visx-group visx-axis-tick" transform="translate(0, 0)"><line class="visx-line" x1="0" y1="62.72727272727272" x2="-8" y2="62.72727272727272" fill="transparent" shape-rendering="crispEdges" stroke="#222" stroke-width="0" stroke-linecap="square"></line><svg x="-30" y="0" font-size="8" style="overflow:visible"><text transform="" x="-8" y="62.72727272727272" fill="#000" font-size="8" text-anchor="start"><tspan x="-8" dy="0em">100%</tspan></text></svg></g><g class="visx-group visx-axis-tick" transform="translate(0, 0)"><line class="visx-line" x1="0" y1="10.454545454545459" x2="-8" y2="10.454545454545459" fill="transparent" shape-rendering="crispEdges" stroke="#222" stroke-width="0" stroke-linecap="square"></line><svg x="-30" y="0" font-size="8" style="overflow:visible"><text transform="" x="-8" y="10.454545454545459" fill="#000" font-size="8" text-anchor="start"><tspan x="-8" dy="0em">200%</tspan></text></svg></g><line class="visx-line visx-axis-line" x1="0" y1="115.5" x2="0" y2="0.5" fill="transparent" shape-rendering="crispEdges" stroke="#222" stroke-width="0"></line></g><rect class="visx-bar" width="1450" height="115" fill="transparent"></rect><line class="visx-line" x1="1160" y1="28" x2="1160" y2="115" fill="transparent" shape-rendering="crispEdges" stroke="#0062D2" stroke-width="1" pointer-events="none" stroke-dasharray="5,2"></line><svg x="0" y="0" font-size="10px" style="overflow:visible"><text transform="" x="1160" y="20" font-size="10px" fill="#fff" stroke="#fff" stroke-width="0.8em" text-anchor="middle"><tspan x="1160" dy="0.355em">Optimal 80%</tspan></text></svg><svg x="0" y="0" font-size="10px" style="overflow:visible"><text transform="" x="1160" y="20" font-size="10px" fill="#62677B" text-anchor="middle"><tspan x="1160" dy="0.355em">Optimal 80%</tspan></text></svg></g></svg>