<?xml version="1.0"?><svg xmlns="http://www.w3.org/2000/svg" xmlns:xlink= "http://www.w3.org/1999/xlink" style="background: white;" width="1500" height="185"> <g style="color: black; font-size: 13px; font-family: sans-serif; transform: translate(18px, 25px);"><g><circle r="3" cx="-6" cy="-5" style="fill: #B6509E" /><text>Borrow APR, variable</text></g><g style="transform: translateX(150px);"><circle r="3" cx="-6" cy="-5" style="fill: rgb(231, 198, 223)" /><text>Borrow APR, stable</text></g><g style="transform: translateX(290px);"><circle r="3" cx="-6" cy="-5" style="fill: rgb(0, 98, 210)" /><text>Utilization Rate</text></g></g><g class="visx-group" transform="translate(40, 50)"><g class="visx-group visx-rows" transform="translate(0, 0)"><line class="visx-line" x1="0" y1="115" x2="1450" y2="115" fill="transparent" shape-rendering="crispEdges" stroke="#000" stroke-width="1" stroke-dasharray="3,3" pointer-events="none"></line><line class="visx-line" x1="0" y1="70.76923076923077" x2="1450" y2="70.76923076923077" fill="transparent" shape-rendering="crispEdges" stroke="#000" stroke-width="1" stroke-dasharray="3,3" pointer-events="none"></line><line class="visx-line" x1="0" y1="26.538461538461533" x2="1450" y2="26.538461538461533" fill="transparent" shape-rendering="crispEdges" stroke="#000" stroke-width="1" stroke-dasharray="3,3" pointer-events="none"></line></g><path class="visx-linepath" d="M0,114.99999999995016C2.4166666666666665,114.99169375222806,4.833333333333334,114.98338750450597,7.25,114.9750812567714C9.666666666666666,114.96677500903684,12.083333333333334,114.95846876128566,14.5,114.9501625135428C16.916666666666668,114.94185626579993,19.333333333333332,114.93355001805706,21.75,114.9252437703142C24.166666666666668,114.91693752257133,26.583333333333332,114.90863127482845,29,114.90032502708559C31.416666666666668,114.89201877934272,33.833333333333336,114.88371253159985,36.25,114.87540628385699C38.666666666666664,114.86710003611412,41.083333333333336,114.85879378837126,43.5,114.8504875406284C45.91666666666667,114.84218129288553,48.333333333333336,114.83387504514265,50.75000000000001,114.82556879739978C53.16666666666667,114.81726254965692,55.583333333333336,114.80895630191405,58,114.80065005417119C60.416666666666664,114.79234380642832,62.833333333333336,114.78403755868545,65.25,114.77573131094259C67.66666666666667,114.76742506319972,70.08333333333333,114.75911881545684,72.5,114.75081256771398C74.91666666666667,114.74250631997111,77.33333333333333,114.73420007222825,79.75,114.72589382448538C82.16666666666667,114.71758757674252,84.58333333333333,114.70928132899964,87,114.70097508125677C89.41666666666667,114.6926688335139,91.83333333333333,114.68436258577104,94.25,114.67605633802818C96.66666666666667,114.66775009028531,99.08333333333334,114.65944384254244,101.50000000000001,114.65113759479958C103.91666666666667,114.64283134705671,106.33333333333334,114.63452509931383,108.75,114.62621885157097C111.16666666666667,114.6179126038281,113.58333333333333,114.60960635608522,116,114.60130010834236C118.41666666666667,114.59299386059949,120.83333333333334,114.58468761285663,123.25000000000001,114.57638136511376C125.66666666666667,114.5680751173709,128.08333333333334,114.55976886962802,130.5,114.55146262188515C132.91666666666666,114.54315637414228,135.33333333333334,114.53485012639942,137.75,114.52654387865655C140.16666666666666,114.51823763091369,142.58333333333334,114.50993138317081,145,114.50162513542794C147.41666666666666,114.49331888768508,149.83333333333334,114.48501263994221,152.25,114.47670639219935C154.66666666666666,114.46840014445648,157.08333333333334,114.4600938967136,159.5,114.45178764897074C161.91666666666666,114.44348140122787,164.33333333333334,114.435175153485,166.75,114.42686890574214C169.16666666666666,114.41856265799927,171.58333333333334,114.41025641025641,174,114.40195016251354C176.41666666666666,114.39364391477068,178.83333333333334,114.3853376670278,181.25,114.37703141928493C183.66666666666666,114.36872517154207,186.08333333333334,114.3604189237992,188.5,114.35211267605634C190.91666666666666,114.34380642831347,193.33333333333334,114.3355001805706,195.75,114.32719393282774C198.16666666666669,114.31888768508487,200.58333333333334,114.310581437342,203.00000000000003,114.30227518959913C205.41666666666669,114.29396894185626,207.83333333333331,114.2856626941134,210.24999999999997,114.27735644637053C212.66666666666666,114.26905019862767,215.08333333333331,114.26074395088479,217.5,114.25243770314192C219.91666666666666,114.24413145539906,222.33333333333334,114.23582520765619,224.75,114.22751895991333C227.16666666666666,114.21921271217046,229.58333333333334,114.2109064644276,232,114.20260021668473C234.41666666666666,114.19429396894186,236.83333333333334,114.18598772119898,239.25,114.17768147345612C241.66666666666669,114.16937522571325,244.08333333333334,114.16106897797039,246.50000000000003,114.15276273022752C248.91666666666669,114.14445648248466,251.33333333333331,114.13615023474178,253.74999999999997,114.12784398699891C256.16666666666663,114.11953773925605,258.5833333333333,114.11123149151318,261,114.10292524377031C263.4166666666667,114.09461899602745,265.8333333333333,114.08631274828458,268.25,114.07800650054172C270.6666666666667,114.06970025279885,273.0833333333333,114.06139400505597,275.5,114.05308775731311C277.9166666666667,114.04478150957024,280.3333333333333,114.03647526182738,282.75,114.02816901408451C285.1666666666667,114.01986276634165,287.5833333333333,114.01155651859877,290,114.0032502708559C292.4166666666667,113.99494402311304,294.8333333333333,113.98663777537017,297.25,113.9783315276273C299.6666666666667,113.97002527988444,302.0833333333333,113.96171903214157,304.5,113.95341278439871C306.9166666666667,113.94510653665584,309.3333333333333,113.93680028891296,311.75,113.9284940411701C314.1666666666667,113.92018779342723,316.5833333333333,113.91188154568437,319,113.9035752979415C321.4166666666667,113.89526905019864,323.8333333333333,113.88696280245577,326.25,113.8786565547129C328.6666666666667,113.87035030697004,331.0833333333333,113.86204405922716,333.5,113.8537378114843C335.9166666666667,113.84543156374143,338.3333333333333,113.83712531599856,340.75,113.8288190682557C343.1666666666667,113.82051282051283,345.5833333333333,113.81220657276995,348,113.80390032502709C350.4166666666667,113.79559407728422,352.8333333333333,113.78728782954134,355.25,113.77898158179848C357.6666666666667,113.77067533405561,360.0833333333333,113.76236908631275,362.5,113.75406283856988C364.9166666666667,113.74575659082701,367.3333333333333,113.73745034308413,369.75,113.72914409534127C372.1666666666667,113.7208378475984,374.5833333333333,113.71253159985554,377,113.70422535211267C379.4166666666667,113.6959191043698,381.8333333333333,113.68761285662693,384.25,113.67930660888406C386.6666666666667,113.6710003611412,389.0833333333333,113.66269411339833,391.5,113.65438786565547C393.9166666666667,113.6460816179126,396.33333333333337,113.63777537016973,398.75000000000006,113.62946912242687C401.16666666666674,113.621162874684,403.58333333333337,113.61285662694112,406.00000000000006,113.60455037919826C408.4166666666667,113.59624413145539,410.8333333333333,113.58793788371253,413.24999999999994,113.57963163596966C415.66666666666663,113.5713253882268,418.08333333333326,113.56301914048393,420.49999999999994,113.55471289274107C422.91666666666663,113.5464066449982,425.3333333333333,113.53810039725532,427.75,113.52979414951245C430.1666666666667,113.52148790176959,432.5833333333333,113.51318165402672,435,113.50487540628386C437.4166666666667,113.49656915854099,439.8333333333333,113.48826291079811,442.25,113.47995666305525C444.6666666666667,113.47165041531238,447.0833333333333,113.46334416756952,449.5,113.45503791982665C451.9166666666667,113.44673167208379,454.3333333333333,113.43842542434092,456.75,113.43011917659805C459.1666666666667,113.42181292885519,461.5833333333333,113.41350668111231,464,113.40520043336944C466.4166666666667,113.39689418562658,468.8333333333333,113.38858793788371,471.25,113.38028169014085C473.6666666666667,113.37197544239798,476.0833333333333,113.3636691946551,478.5,113.35536294691224C480.9166666666667,113.34705669916937,483.33333333333337,113.3387504514265,485.75000000000006,113.33044420368364C488.16666666666674,113.32213795594078,490.58333333333337,113.31383170819791,493.00000000000006,113.30552546045504C495.4166666666667,113.29721921271218,497.8333333333333,113.2889129649693,500.24999999999994,113.28060671722643C502.66666666666663,113.27230046948357,505.08333333333326,113.2639942217407,507.49999999999994,113.25568797399784C509.91666666666663,113.24738172625497,512.3333333333333,113.2390754785121,514.75,113.23076923076924C517.1666666666666,113.22246298302638,519.5833333333334,113.2141567352835,522,113.20585048754063C524.4166666666666,113.19754423979776,526.8333333333334,113.1892379920549,529.25,113.18093174431203C531.6666666666666,113.17262549656917,534.0833333333334,113.16431924882629,536.5,113.15601300108342C538.9166666666666,113.14770675334056,541.3333333333334,113.13940050559769,543.75,113.13109425785483C546.1666666666666,113.12278801011196,548.5833333333334,113.1144817623691,551,113.10617551462623C553.4166666666666,113.09786926688336,555.8333333333334,113.08956301914048,558.25,113.08125677139762C560.6666666666666,113.07295052365475,563.0833333333334,113.06464427591189,565.5,113.05633802816902C567.9166666666666,113.04803178042616,570.3333333333334,113.03972553268328,572.75,113.03141928494041C575.1666666666666,113.02311303719755,577.5833333333334,113.01480678945468,580,113.00650054171182C582.4166666666666,112.99819429396895,584.8333333333334,112.98988804622607,587.25,112.9815817984832C589.6666666666666,112.97327555074034,592.0833333333334,112.96496930299746,594.5,112.9566630552546C596.9166666666666,112.94835680751173,599.3333333333334,112.94005055976886,601.75,112.931744312026C604.1666666666666,112.92343806428313,606.5833333333334,112.91513181654025,609,112.90682556879739C611.4166666666666,112.89851932105452,613.8333333333334,112.89021307331166,616.25,112.88190682556879C618.6666666666666,112.87360057782593,621.0833333333334,112.86529433008306,623.5,112.8569880823402C625.9166666666666,112.84868183459733,628.3333333333334,112.84037558685445,630.75,112.83206933911158C633.1666666666666,112.82376309136872,635.5833333333334,112.81545684362585,638,112.80715059588299C640.4166666666666,112.79884434814012,642.8333333333334,112.79053810039726,645.25,112.78223185265439C647.6666666666666,112.77392560491153,650.0833333333334,112.76561935716865,652.5,112.75731310942578C654.9166666666666,112.74900686168291,657.3333333333334,112.74070061394005,659.75,112.73239436619718C662.1666666666666,112.72408811845432,664.5833333333334,112.71578187071144,667,112.70747562296857C669.4166666666666,112.69916937522571,671.8333333333334,112.69086312748284,674.25,112.68255687973998C676.6666666666666,112.67425063199711,679.0833333333334,112.66594438425425,681.5,112.65763813651138C683.9166666666666,112.64933188876851,686.3333333333334,112.64102564102564,688.75,112.63271939328277C691.1666666666666,112.6244131455399,693.5833333333334,112.61610689779704,696,112.60780065005417C698.4166666666666,112.59949440231131,700.8333333333334,112.59118815456843,703.25,112.58288190682556C705.6666666666666,112.5745756590827,708.0833333333334,112.56626941133983,710.5,112.55796316359697C712.9166666666666,112.5496569158541,715.3333333333334,112.54135066811124,717.75,112.53304442036837C720.1666666666666,112.5247381726255,722.5833333333334,112.51643192488262,725,112.50812567713976C727.4166666666666,112.4998194293969,729.8333333333334,112.49151318165403,732.25,112.48320693391116C734.6666666666666,112.4749006861683,737.0833333333334,112.46659443842543,739.5,112.45828819068257C741.9166666666666,112.4499819429397,744.3333333333334,112.44167569519682,746.75,112.43336944745396C749.1666666666666,112.42506319971109,751.5833333333334,112.41675695196822,754,112.40845070422536C756.4166666666666,112.4001444564825,758.8333333333334,112.39183820873961,761.25,112.38353196099675C763.6666666666666,112.37522571325388,766.0833333333334,112.36691946551102,768.5,112.35861321776815C770.9166666666666,112.35030697002529,773.3333333333334,112.34200072228242,775.75,112.33369447453956C778.1666666666666,112.32538822679669,780.5833333333334,112.31708197905381,783,112.30877573131094C785.4166666666667,112.30046948356808,787.8333333333334,112.29216323582521,790.2500000000001,112.28385698808235C792.6666666666667,112.27555074033948,795.0833333333335,112.2672444925966,797.5000000000001,112.25893824485374C799.9166666666667,112.25063199711087,802.3333333333335,112.242325749368,804.7500000000001,112.23401950162514C807.1666666666667,112.22571325388228,809.5833333333335,112.2174070061394,812.0000000000001,112.20910075839653C814.4166666666667,112.20079451065367,816.8333333333333,112.1924882629108,819.2499999999999,112.18418201516793C821.6666666666665,112.17587576742507,824.0833333333333,112.16756951968219,826.4999999999999,112.15926327193932C828.9166666666665,112.15095702419646,831.3333333333333,112.14265077645358,833.7499999999999,112.13434452871071C836.1666666666665,112.12603828096785,838.5833333333333,112.11773203322498,840.9999999999999,112.10942578548212C843.4166666666666,112.10111953773925,845.8333333333333,112.09281328999639,848.25,112.08450704225352C850.6666666666666,112.07620079451065,853.0833333333334,112.06789454676777,855.5,112.05958829902491C857.9166666666666,112.05128205128204,860.3333333333334,112.04297580353918,862.75,112.03466955579631C865.1666666666666,112.02636330805345,867.5833333333334,112.01805706031058,870,112.00975081256772C872.4166666666666,112.00144456482485,874.8333333333334,111.99313831708197,877.25,111.9848320693391C879.6666666666666,111.97652582159624,882.0833333333334,111.96821957385337,884.5,111.95991332611051C886.9166666666666,111.95160707836764,889.3333333333334,111.94330083062476,891.75,111.9349945828819C894.1666666666666,111.92668833513903,896.5833333333334,111.91838208739617,899,111.9100758396533C901.4166666666666,111.90176959191044,903.8333333333334,111.89346334416757,906.25,111.8851570964247C908.6666666666666,111.87685084868184,911.0833333333334,111.86854460093896,913.5,111.8602383531961C915.9166666666666,111.85193210545323,918.3333333333334,111.84362585771036,920.75,111.8353196099675C923.1666666666666,111.82701336222463,925.5833333333334,111.81870711448175,928,111.81040086673889C930.4166666666666,111.80209461899602,932.8333333333334,111.79378837125316,935.25,111.78548212351029C937.6666666666666,111.77717587576743,940.0833333333334,111.76886962802456,942.5,111.7605633802817C944.9166666666666,111.75225713253883,947.3333333333334,111.74395088479595,949.75,111.73564463705308C952.1666666666666,111.72733838931022,954.5833333333334,111.71903214156735,957,111.71072589382449C959.4166666666666,111.70241964608162,961.8333333333334,111.69411339833876,964.25,111.68580715059589C966.6666666666667,111.67750090285303,969.0833333333334,111.66919465511015,971.5000000000001,111.66088840736728C973.9166666666667,111.65258215962442,976.3333333333335,111.64427591188155,978.7500000000001,111.63596966413868C981.1666666666667,111.62766341639582,983.5833333333335,111.61935716865294,986.0000000000001,111.61105092091007C988.4166666666667,111.60274467316721,990.8333333333335,111.59443842542434,993.2500000000001,111.58613217768148C995.6666666666667,111.57782592993861,998.0833333333333,111.56951968219575,1000.4999999999999,111.56121343445288C1002.9166666666665,111.55290718671002,1005.3333333333333,111.54460093896714,1007.7499999999999,111.53629469122427C1010.1666666666665,111.5279884434814,1012.5833333333333,111.51968219573854,1014.9999999999999,111.51137594799567C1017.4166666666665,111.50306970025281,1019.8333333333333,111.49476345250993,1022.2499999999999,111.48645720476706C1024.6666666666665,111.4781509570242,1027.0833333333333,111.4781509570242,1029.5,111.46153846153847C1031.9166666666667,111.44492596605274,1034.3333333333333,110.39389920424404,1036.75,109.86007957559683C1039.1666666666667,109.32625994694962,1041.5833333333333,108.7924403183024,1044,108.25862068965517C1046.4166666666667,107.72480106100795,1048.8333333333333,107.19098143236073,1051.25,106.65716180371352C1053.6666666666667,106.12334217506631,1056.0833333333333,105.58952254641909,1058.5,105.05570291777188C1060.9166666666667,104.52188328912467,1063.3333333333333,103.98806366047745,1065.75,103.45424403183024C1068.1666666666667,102.92042440318303,1070.5833333333333,102.38660477453581,1073,101.85278514588859C1075.4166666666667,101.31896551724137,1077.8333333333333,100.78514588859417,1080.25,100.25132625994695C1082.6666666666667,99.71750663129973,1085.0833333333333,99.1836870026525,1087.5,98.6498673740053C1089.9166666666667,98.11604774535809,1092.3333333333333,97.58222811671088,1094.75,97.04840848806367C1097.1666666666667,96.51458885941646,1099.5833333333333,95.98076923076923,1102,95.44694960212202C1104.4166666666667,94.91312997347481,1106.8333333333333,94.37931034482759,1109.25,93.84549071618038C1111.6666666666667,93.31167108753317,1114.0833333333333,92.77785145888595,1116.5,92.24403183023873C1118.9166666666667,91.7102122015915,1121.3333333333333,91.17639257294431,1123.75,90.64257294429709C1126.1666666666667,90.10875331564986,1128.5833333333333,89.57493368700264,1131,89.04111405835543C1133.4166666666667,88.50729442970822,1135.8333333333333,87.973474801061,1138.25,87.4396551724138C1140.6666666666667,86.90583554376659,1143.0833333333333,86.37201591511936,1145.5,85.83819628647215C1147.9166666666667,85.30437665782495,1150.3333333333333,84.77055702917772,1152.75,84.2367374005305C1155.1666666666667,83.70291777188328,1157.5833333333333,83.16909814323607,1160,82.63527851458886C1162.4166666666667,82.10145888594165,1164.8333333333333,81.56763925729443,1167.25,81.03381962864722C1169.6666666666667,80.50000000000001,1172.0833333333333,79.9661803713528,1174.5,79.43236074270558C1176.9166666666667,78.89854111405836,1179.3333333333333,78.36472148541115,1181.75,77.83090185676393C1184.1666666666667,77.29708222811671,1186.5833333333333,76.7632625994695,1189,76.22944297082228C1191.4166666666667,75.69562334217505,1193.8333333333333,75.16180371352785,1196.25,74.62798408488064C1198.6666666666667,74.09416445623343,1201.0833333333333,73.56034482758622,1203.5,73.026525198939C1205.9166666666667,72.49270557029178,1208.3333333333333,71.95888594164457,1210.75,71.42506631299734C1213.1666666666667,70.89124668435012,1215.5833333333333,70.35742705570291,1218,69.82360742705569C1220.4166666666667,69.28978779840847,1222.8333333333333,68.75596816976126,1225.25,68.22214854111405C1227.6666666666667,67.68832891246684,1230.0833333333333,67.15450928381962,1232.5,66.62068965517241C1234.9166666666667,66.0868700265252,1237.3333333333333,65.55305039787798,1239.75,65.01923076923077C1242.1666666666667,64.48541114058357,1244.5833333333333,63.95159151193634,1247,63.41777188328913C1249.4166666666667,62.88395225464191,1251.8333333333333,62.350132625994696,1254.25,61.81631299734748C1256.6666666666667,61.282493368700266,1259.0833333333333,60.74867374005306,1261.5,60.21485411140584C1263.9166666666667,59.681034482758626,1266.3333333333333,59.147214854111404,1268.75,58.61339522546419C1271.1666666666667,58.07957559681697,1273.5833333333333,57.545755968169765,1276,57.01193633952255C1278.4166666666667,56.478116710875334,1280.8333333333333,55.94429708222811,1283.25,55.410477453580896C1285.6666666666667,54.87665782493368,1288.0833333333333,54.34283819628648,1290.5,53.809018567639264C1292.9166666666667,53.27519893899205,1295.3333333333333,52.74137931034484,1297.75,52.207559681697624C1300.1666666666667,51.67374005305041,1302.5833333333333,51.139920424403186,1305,50.60610079575597C1307.4166666666667,50.072281167108756,1309.8333333333333,49.53846153846153,1312.25,49.00464190981432C1314.6666666666667,48.4708222811671,1317.0833333333333,47.93700265251989,1319.5,47.40318302387267C1321.9166666666667,46.869363395225456,1324.3333333333333,46.33554376657825,1326.75,45.80172413793103C1329.1666666666667,45.26790450928382,1331.5833333333333,44.73408488063661,1334,44.20026525198939C1336.4166666666667,43.66644562334218,1338.8333333333333,43.13262599469497,1341.25,42.598806366047754C1343.6666666666667,42.06498673740054,1346.0833333333333,41.531167108753316,1348.5,40.9973474801061C1350.9166666666667,40.463527851458885,1353.3333333333333,39.929708222811676,1355.75,39.39588859416446C1358.1666666666667,38.862068965517246,1360.5833333333333,38.32824933687004,1363,37.79442970822282C1365.4166666666667,37.260610079575606,1367.8333333333333,36.72679045092838,1370.25,36.19297082228116C1372.6666666666667,35.659151193633946,1375.0833333333333,35.12533156498674,1377.5,34.59151193633952C1379.9166666666667,34.05769230769231,1382.3333333333333,33.523872679045084,1384.75,32.99005305039787C1387.1666666666667,32.45623342175065,1389.5833333333333,31.92241379310345,1392,31.388594164456233C1394.4166666666667,30.854774535809018,1396.8333333333333,30.3209549071618,1399.25,29.787135278514583C1401.6666666666667,29.253315649867368,1404.0833333333333,28.71949602122016,1406.5,28.185676392572944C1408.9166666666667,27.65185676392573,1411.3333333333333,27.11803713527851,1413.75,26.584217506631294C1416.1666666666667,26.05039787798408,1418.5833333333333,25.516578249336867,1421,24.982758620689655C1423.4166666666667,24.448938992042443,1425.8333333333333,23.91511936339523,1428.25,23.381299734748016C1430.6666666666667,22.8474801061008,1433.0833333333333,22.31366047745358,1435.5,21.779840848806366C1437.9166666666667,21.24602122015915,1440.3333333333333,20.712201591511942,1442.75,20.178381962864727C1445.1666666666667,19.64456233421751,1447.5833333333333,19.110742705570285,1450,18.576923076923062" fill="transparent" stroke-linecap="round" stroke="#B6509E" stroke-width="2"></path><path class="visx-linepath" d="M0,106.15384615382123C2.4166666666666665,106.14969302996018,4.833333333333334,106.14553990609913,7.25,106.14138678223185C9.666666666666666,106.13723365836456,12.083333333333334,106.13308053448898,14.5,106.12892741061755C16.916666666666668,106.12477428674612,19.333333333333332,106.12062116287468,21.75,106.11646803900325C24.166666666666668,106.11231491513182,26.583333333333332,106.10816179126039,29,106.10400866738895C31.416666666666668,106.09985554351752,33.833333333333336,106.09570241964607,36.25,106.09154929577464C38.666666666666664,106.08739617190321,41.083333333333336,106.08324304803179,43.5,106.07908992416036C45.91666666666667,106.07493680028892,48.333333333333336,106.07078367641748,50.75000000000001,106.06663055254604C53.16666666666667,106.06247742867461,55.583333333333336,106.05832430480318,58,106.05417118093175C60.416666666666664,106.05001805706031,62.833333333333336,106.04586493318887,65.25,106.04171180931743C67.66666666666667,106.037558685446,70.08333333333333,106.03340556157457,72.5,106.02925243770314C74.91666666666667,106.0250993138317,77.33333333333333,106.02094618996027,79.75,106.01679306608884C82.16666666666667,106.0126399422174,84.58333333333333,106.00848681834597,87,106.00433369447454C89.41666666666667,106.0001805706031,91.83333333333333,105.99602744673167,94.25,105.99187432286024C96.66666666666667,105.98772119898881,99.08333333333334,105.98356807511738,101.50000000000001,105.97941495124594C103.91666666666667,105.97526182737451,106.33333333333334,105.97110870350306,108.75,105.96695557963163C111.16666666666667,105.9628024557602,113.58333333333333,105.95864933188876,116,105.95449620801733C118.41666666666667,105.9503430841459,120.83333333333334,105.94618996027447,123.25000000000001,105.94203683640303C125.66666666666667,105.9378837125316,128.08333333333334,105.93373058866017,130.5,105.92957746478874C132.91666666666666,105.9254243409173,135.33333333333334,105.92127121704586,137.75,105.91711809317442C140.16666666666666,105.91296496930299,142.58333333333334,105.90881184543157,145,105.90465872156014C147.41666666666666,105.9005055976887,149.83333333333334,105.89635247381726,152.25,105.89219934994583C154.66666666666666,105.8880462260744,157.08333333333334,105.88389310220296,159.5,105.87973997833153C161.91666666666666,105.8755868544601,164.33333333333334,105.87143373058866,166.75,105.86728060671723C169.16666666666666,105.8631274828458,171.58333333333334,105.85897435897436,174,105.85482123510293C176.41666666666666,105.8506681112315,178.83333333333334,105.84651498736005,181.25,105.84236186348862C183.66666666666666,105.83820873961719,186.08333333333334,105.83405561574577,188.5,105.82990249187434C190.91666666666666,105.8257493680029,193.33333333333334,105.82159624413146,195.75,105.81744312026002C198.16666666666669,105.81328999638859,200.58333333333334,105.80913687251716,203.00000000000003,105.80498374864572C205.41666666666669,105.80083062477429,207.83333333333331,105.79667750090285,210.24999999999997,105.79252437703141C212.66666666666666,105.78837125315998,215.08333333333331,105.78421812928856,217.5,105.78006500541713C219.91666666666666,105.7759118815457,222.33333333333334,105.77175875767425,224.75,105.76760563380282C227.16666666666666,105.76345250993138,229.58333333333334,105.75929938605995,232,105.75514626218852C234.41666666666666,105.75099313831709,236.83333333333334,105.74684001444565,239.25,105.74268689057422C241.66666666666669,105.73853376670279,244.08333333333334,105.73438064283134,246.50000000000003,105.73022751895991C248.91666666666669,105.72607439508847,251.33333333333331,105.72192127121704,253.74999999999997,105.71776814734561C256.16666666666663,105.71361502347418,258.5833333333333,105.70946189960274,261,105.70530877573131C263.4166666666667,105.70115565185988,265.8333333333333,105.69700252798845,268.25,105.69284940411701C270.6666666666667,105.68869628024558,273.0833333333333,105.68454315637413,275.5,105.6803900325027C277.9166666666667,105.67623690863127,280.3333333333333,105.67208378475985,282.75,105.66793066088842C285.1666666666667,105.66377753701698,287.5833333333333,105.65962441314554,290,105.6554712892741C292.4166666666667,105.65131816540267,294.8333333333333,105.64716504153124,297.25,105.6430119176598C299.6666666666667,105.63885879378837,302.0833333333333,105.63470566991693,304.5,105.6305525460455C306.9166666666667,105.62639942217406,309.3333333333333,105.62224629830264,311.75,105.61809317443121C314.1666666666667,105.61394005055978,316.5833333333333,105.60978692668833,319,105.6056338028169C321.4166666666667,105.60148067894546,323.8333333333333,105.59732755507403,326.25,105.5931744312026C328.6666666666667,105.58902130733117,331.0833333333333,105.58486818345973,333.5,105.5807150595883C335.9166666666667,105.57656193571687,338.3333333333333,105.57240881184543,340.75,105.568255687974C343.1666666666667,105.56410256410257,345.5833333333333,105.55994944023112,348,105.55579631635969C350.4166666666667,105.55164319248826,352.8333333333333,105.54749006861684,355.25,105.5433369447454C357.6666666666667,105.53918382087397,360.0833333333333,105.53503069700253,362.5,105.5308775731311C364.9166666666667,105.52672444925966,367.3333333333333,105.52257132538823,369.75,105.5184182015168C372.1666666666667,105.51426507764536,374.5833333333333,105.51011195377393,377,105.5059588299025C379.4166666666667,105.50180570603106,381.8333333333333,105.49765258215963,384.25,105.4934994582882C386.6666666666667,105.48934633441677,389.0833333333333,105.48519321054532,391.5,105.48104008667389C393.9166666666667,105.47688696280245,396.33333333333337,105.47273383893102,398.75000000000006,105.46858071505959C401.16666666666674,105.46442759118816,403.58333333333337,105.46027446731672,406.00000000000006,105.45612134344529C408.4166666666667,105.45196821957386,410.8333333333333,105.44781509570242,413.24999999999994,105.44366197183099C415.66666666666663,105.43950884795956,418.08333333333326,105.43535572408811,420.49999999999994,105.43120260021668C422.91666666666663,105.42704947634525,425.3333333333333,105.42289635247383,427.75,105.4187432286024C430.1666666666667,105.41459010473096,432.5833333333333,105.41043698085952,435,105.40628385698808C437.4166666666667,105.40213073311665,439.8333333333333,105.39797760924522,442.25,105.39382448537378C444.6666666666667,105.38967136150235,447.0833333333333,105.3855182376309,449.5,105.38136511375947C451.9166666666667,105.37721198988804,454.3333333333333,105.37305886601662,456.75,105.36890574214519C459.1666666666667,105.36475261827376,461.5833333333333,105.36059949440231,464,105.35644637053088C466.4166666666667,105.35229324665944,468.8333333333333,105.34814012278801,471.25,105.34398699891658C473.6666666666667,105.33983387504514,476.0833333333333,105.33568075117371,478.5,105.33152762730228C480.9166666666667,105.32737450343085,483.33333333333337,105.3232213795594,485.75000000000006,105.31906825568797C488.16666666666674,105.31491513181653,490.58333333333337,105.3107620079451,493.00000000000006,105.30660888407367C495.4166666666667,105.30245576020224,497.8333333333333,105.2983026363308,500.24999999999994,105.29414951245937C502.66666666666663,105.28999638858794,505.08333333333326,105.2858432647165,507.49999999999994,105.28169014084507C509.91666666666663,105.27753701697364,512.3333333333333,105.27338389310219,514.75,105.26923076923076C517.1666666666666,105.26507764535933,519.5833333333334,105.26092452148791,522,105.25677139761648C524.4166666666666,105.25261827374504,526.8333333333334,105.2484651498736,529.25,105.24431202600216C531.6666666666666,105.24015890213073,534.0833333333334,105.2360057782593,536.5,105.23185265438786C538.9166666666666,105.22769953051643,541.3333333333334,105.22354640664499,543.75,105.21939328277355C546.1666666666666,105.21524015890212,548.5833333333334,105.2110870350307,551,105.20693391115927C553.4166666666666,105.20278078728784,555.8333333333334,105.19862766341639,558.25,105.19447453954496C560.6666666666666,105.19032141567352,563.0833333333334,105.1861682918021,565.5,105.18201516793067C567.9166666666666,105.17786204405924,570.3333333333334,105.17370892018779,572.75,105.16955579631636C575.1666666666666,105.16540267244493,577.5833333333334,105.1612495485735,580,105.15709642470206C582.4166666666666,105.15294330083063,584.8333333333334,105.14879017695918,587.25,105.14463705308775C589.6666666666666,105.14048392921632,592.0833333333334,105.1363308053449,594.5,105.13217768147346C596.9166666666666,105.12802455760203,599.3333333333334,105.12387143373059,601.75,105.11971830985915C604.1666666666666,105.11556518598772,606.5833333333334,105.11141206211629,609,105.10725893824485C611.4166666666666,105.10310581437342,613.8333333333334,105.09895269050199,616.25,105.09479956663056C618.6666666666666,105.09064644275912,621.0833333333334,105.08649331888769,623.5,105.08234019501626C625.9166666666666,105.07818707114482,628.3333333333334,105.07403394727338,630.75,105.06988082340195C633.1666666666666,105.06572769953051,635.5833333333334,105.06157457565908,638,105.05742145178765C640.4166666666666,105.05326832791621,642.8333333333334,105.04911520404478,645.25,105.04496208017335C647.6666666666666,105.04080895630192,650.0833333333334,105.03665583243048,652.5,105.03250270855905C654.9166666666666,105.02834958468762,657.3333333333334,105.02419646081619,659.75,105.02004333694475C662.1666666666666,105.01589021307332,664.5833333333334,105.01173708920189,667,105.00758396533045C669.4166666666666,105.00343084145902,671.8333333333334,104.99927771758757,674.25,104.99512459371614C676.6666666666666,104.99097146984471,679.0833333333334,104.98681834597328,681.5,104.98266522210184C683.9166666666666,104.97851209823041,686.3333333333334,104.97435897435898,688.75,104.97020585048755C691.1666666666666,104.96605272661611,693.5833333333334,104.96189960274468,696,104.95774647887325C698.4166666666666,104.95359335500181,700.8333333333334,104.94944023113037,703.25,104.94528710725893C705.6666666666666,104.9411339833875,708.0833333333334,104.93698085951607,710.5,104.93282773564464C712.9166666666666,104.9286746117732,715.3333333333334,104.92452148790177,717.75,104.92036836403034C720.1666666666666,104.9162152401589,722.5833333333334,104.91206211628746,725,104.90790899241603C727.4166666666666,104.9037558685446,729.8333333333334,104.89960274467316,732.25,104.89544962080173C734.6666666666666,104.8912964969303,737.0833333333334,104.88714337305886,739.5,104.88299024918743C741.9166666666666,104.878837125316,744.3333333333334,104.87468400144456,746.75,104.87053087757313C749.1666666666666,104.8663777537017,751.5833333333334,104.86222462983025,754,104.85807150595882C756.4166666666666,104.85391838208739,758.8333333333334,104.84976525821597,761.25,104.84561213434453C763.6666666666666,104.8414590104731,766.0833333333334,104.83730588660165,768.5,104.83315276273022C770.9166666666666,104.82899963885879,773.3333333333334,104.82484651498736,775.75,104.82069339111592C778.1666666666666,104.81654026724449,780.5833333333334,104.81238714337306,783,104.80823401950163C785.4166666666667,104.8040808956302,787.8333333333334,104.79992777175876,790.2500000000001,104.79577464788733C792.6666666666667,104.7916215240159,795.0833333333335,104.78746840014445,797.5000000000001,104.78331527627302C799.9166666666667,104.77916215240158,802.3333333333335,104.77500902853016,804.7500000000001,104.77085590465873C807.1666666666667,104.7667027807873,809.5833333333335,104.76254965691585,812.0000000000001,104.75839653304442C814.4166666666667,104.75424340917299,816.8333333333333,104.75009028530155,819.2499999999999,104.74593716143012C821.6666666666665,104.74178403755869,824.0833333333333,104.73763091368724,826.4999999999999,104.73347778981581C828.9166666666665,104.72932466594438,831.3333333333333,104.72517154207296,833.7499999999999,104.72101841820152C836.1666666666665,104.71686529433009,838.5833333333333,104.71271217045864,840.9999999999999,104.70855904658721C843.4166666666666,104.70440592271578,845.8333333333333,104.70025279884435,848.25,104.69609967497291C850.6666666666666,104.69194655110148,853.0833333333334,104.68779342723005,855.5,104.68364030335862C857.9166666666666,104.67948717948718,860.3333333333334,104.67533405561575,862.75,104.67118093174432C865.1666666666666,104.66702780787288,867.5833333333334,104.66287468400144,870,104.65872156013C872.4166666666666,104.65456843625857,874.8333333333334,104.65041531238715,877.25,104.64626218851572C879.6666666666666,104.64210906464429,882.0833333333334,104.63795594077284,884.5,104.63380281690141C886.9166666666666,104.62964969302998,889.3333333333334,104.62549656915854,891.75,104.62134344528711C894.1666666666666,104.61719032141568,896.5833333333334,104.61303719754424,899,104.60888407367281C901.4166666666666,104.60473094980138,903.8333333333334,104.60057782592995,906.25,104.59642470205851C908.6666666666666,104.59227157818708,911.0833333333334,104.58811845431563,913.5,104.5839653304442C915.9166666666666,104.57981220657277,918.3333333333334,104.57565908270134,920.75,104.5715059588299C923.1666666666666,104.56735283495847,925.5833333333334,104.56319971108704,928,104.5590465872156C930.4166666666666,104.55489346334417,932.8333333333334,104.55074033947274,935.25,104.5465872156013C937.6666666666666,104.54243409172987,940.0833333333334,104.53828096785843,942.5,104.534127843987C944.9166666666666,104.52997472011556,947.3333333333334,104.52582159624413,949.75,104.5216684723727C952.1666666666666,104.51751534850126,954.5833333333334,104.51336222462983,957,104.5092091007584C959.4166666666666,104.50505597688696,961.8333333333334,104.50090285301552,964.25,104.49674972914408C966.6666666666667,104.49259660527265,969.0833333333334,104.48844348140123,971.5000000000001,104.4842903575298C973.9166666666667,104.48013723365837,976.3333333333335,104.47598410978692,978.7500000000001,104.47183098591549C981.1666666666667,104.46767786204406,983.5833333333335,104.46352473817262,986.0000000000001,104.45937161430119C988.4166666666667,104.45521849042976,990.8333333333335,104.45106536655832,993.2500000000001,104.44691224268689C995.6666666666667,104.44275911881546,998.0833333333333,104.43860599494403,1000.4999999999999,104.4344528710726C1002.9166666666665,104.43029974720116,1005.3333333333333,104.42614662332971,1007.7499999999999,104.42199349945828C1010.1666666666665,104.41784037558685,1012.5833333333333,104.41368725171542,1014.9999999999999,104.40953412784398C1017.4166666666665,104.40538100397255,1019.8333333333333,104.40122788010112,1022.2499999999999,104.39707475622969C1024.6666666666665,104.39292163235825,1027.0833333333333,104.39292163235825,1029.5,104.38461538461539C1031.9166666666667,104.37630913687252,1034.3333333333333,103.31697612732097,1036.75,102.78315649867375C1039.1666666666667,102.24933687002653,1041.5833333333333,101.7155172413793,1044,101.1816976127321C1046.4166666666667,100.64787798408489,1048.8333333333333,100.11405835543766,1051.25,99.58023872679045C1053.6666666666667,99.04641909814325,1056.0833333333333,98.51259946949602,1058.5,97.9787798408488C1060.9166666666667,97.44496021220158,1063.3333333333333,96.91114058355438,1065.75,96.37732095490716C1068.1666666666667,95.84350132625994,1070.5833333333333,95.30968169761272,1073,94.77586206896551C1075.4166666666667,94.2420424403183,1077.8333333333333,93.70822281167108,1080.25,93.17440318302387C1082.6666666666667,92.64058355437666,1085.0833333333333,92.10676392572944,1087.5,91.57294429708223C1089.9166666666667,91.03912466843502,1092.3333333333333,90.5053050397878,1094.75,89.97148541114059C1097.1666666666667,89.43766578249338,1099.5833333333333,88.90384615384616,1102,88.37002652519894C1104.4166666666667,87.83620689655172,1106.8333333333333,87.30238726790452,1109.25,86.7685676392573C1111.6666666666667,86.23474801061008,1114.0833333333333,85.70092838196285,1116.5,85.16710875331565C1118.9166666666667,84.63328912466844,1121.3333333333333,84.09946949602121,1123.75,83.565649867374C1126.1666666666667,83.0318302387268,1128.5833333333333,82.49801061007958,1131,81.96419098143235C1133.4166666666667,81.43037135278513,1135.8333333333333,80.89655172413792,1138.25,80.36273209549071C1140.6666666666667,79.8289124668435,1143.0833333333333,79.29509283819628,1145.5,78.76127320954907C1147.9166666666667,78.22745358090187,1150.3333333333333,77.69363395225466,1152.75,77.15981432360743C1155.1666666666667,76.62599469496021,1157.5833333333333,76.09217506631299,1160,75.55835543766578C1162.4166666666667,75.02453580901857,1164.8333333333333,74.49071618037135,1167.25,73.95689655172414C1169.6666666666667,73.42307692307693,1172.0833333333333,72.88925729442971,1174.5,72.3554376657825C1176.9166666666667,71.8216180371353,1179.3333333333333,71.28779840848807,1181.75,70.75397877984085C1184.1666666666667,70.22015915119363,1186.5833333333333,69.6863395225464,1189,69.1525198938992C1191.4166666666667,68.61870026525199,1193.8333333333333,68.08488063660478,1196.25,67.55106100795757C1198.6666666666667,67.01724137931036,1201.0833333333333,66.48342175066314,1203.5,65.94960212201592C1205.9166666666667,65.4157824933687,1208.3333333333333,64.88196286472149,1210.75,64.34814323607426C1213.1666666666667,63.81432360742705,1215.5833333333333,63.280503978779834,1218,62.74668435013262C1220.4166666666667,62.2128647214854,1222.8333333333333,61.679045092838194,1225.25,61.14522546419098C1227.6666666666667,60.61140583554376,1230.0833333333333,60.077586206896555,1232.5,59.54376657824934C1234.9166666666667,59.009946949602124,1237.3333333333333,58.47612732095491,1239.75,57.94230769230769C1242.1666666666667,57.40848806366048,1244.5833333333333,56.87466843501327,1247,56.340848806366054C1249.4166666666667,55.80702917771884,1251.8333333333333,55.273209549071616,1254.25,54.7393899204244C1256.6666666666667,54.205570291777185,1259.0833333333333,53.67175066312998,1261.5,53.13793103448276C1263.9166666666667,52.604111405835546,1266.3333333333333,52.070291777188324,1268.75,51.53647214854111C1271.1666666666667,51.00265251989389,1273.5833333333333,50.46883289124669,1276,49.935013262599476C1278.4166666666667,49.40119363395226,1280.8333333333333,48.86737400530504,1283.25,48.33355437665782C1285.6666666666667,47.79973474801061,1288.0833333333333,47.2659151193634,1290.5,46.73209549071618C1292.9166666666667,46.19827586206897,1295.3333333333333,45.66445623342176,1297.75,45.130636604774544C1300.1666666666667,44.59681697612733,1302.5833333333333,44.062997347480106,1305,43.52917771883289C1307.4166666666667,42.995358090185675,1309.8333333333333,42.461538461538474,1312.25,41.92771883289126C1314.6666666666667,41.39389920424404,1317.0833333333333,40.86007957559682,1319.5,40.326259946949605C1321.9166666666667,39.79244031830239,1324.3333333333333,39.25862068965518,1326.75,38.724801061007966C1329.1666666666667,38.19098143236075,1331.5833333333333,37.657161803713514,1334,37.1233421750663C1336.4166666666667,36.58952254641908,1338.8333333333333,36.05570291777188,1341.25,35.521883289124666C1343.6666666666667,34.98806366047745,1346.0833333333333,34.45424403183023,1348.5,33.92042440318301C1350.9166666666667,33.3866047745358,1353.3333333333333,32.85278514588859,1355.75,32.318965517241374C1358.1666666666667,31.785145888594162,1360.5833333333333,31.251326259946946,1363,30.717506631299734C1365.4166666666667,30.183687002652523,1367.8333333333333,29.649867374005307,1370.25,29.116047745358095C1372.6666666666667,28.582228116710883,1375.0833333333333,28.048408488063675,1377.5,27.51458885941646C1379.9166666666667,26.980769230769244,1382.3333333333333,26.446949602122025,1384.75,25.913129973474806C1387.1666666666667,25.379310344827587,1389.5833333333333,24.84549071618037,1392,24.311671087533156C1394.4166666666667,23.77785145888594,1396.8333333333333,23.244031830238722,1399.25,22.710212201591506C1401.6666666666667,22.17639257294429,1404.0833333333333,21.642572944297083,1406.5,21.108753315649867C1408.9166666666667,20.574933687002652,1411.3333333333333,20.041114058355426,1413.75,19.507294429708214C1416.1666666666667,18.973474801061002,1418.5833333333333,18.4396551724138,1421,17.90583554376659C1423.4166666666667,17.372015915119377,1425.8333333333333,16.838196286472154,1428.25,16.30437665782494C1430.6666666666667,15.770557029177724,1433.0833333333333,15.236737400530515,1435.5,14.7029177718833C1437.9166666666667,14.169098143236084,1440.3333333333333,13.635278514588865,1442.75,13.101458885941648C1445.1666666666667,12.56763925729443,1447.5833333333333,12.033819628647215,1450,11.499999999999998" fill="transparent" stroke-linecap="round" stroke="#E7C6DF" stroke-width="2"></path><g class="visx-group visx-axis visx-axis-bottom" transform="translate(0, 115)"><g class="visx-group visx-axis-tick" transform="translate(0, 0)"><line class="visx-line" x1="0" y1="0" x2="0" y2="8" fill="transparent" shape-rendering="crispEdges" stroke="#000" stroke-width="0" stroke-linecap="square"></line><svg x="0" y="0" font-size="10" style="overflow:visible"><text transform="" x="0" y="18" fill="#000" font-size="10" text-anchor="middle"><tspan x="0" dy="0em">0%</tspan></text></svg></g><g class="visx-group visx-axis-tick" transform="translate(0, 0)"><line class="visx-line" x1="362.5" y1="0" x2="362.5" y2="8" fill="transparent" shape-rendering="crispEdges" stroke="#000" stroke-width="0" stroke-linecap="square"></line><svg x="0" y="0" font-size="10" style="overflow:visible"><text transform="" x="362.5" y="18" fill="#000" font-size="10" text-anchor="middle"><tspan x="362.5" dy="0em">25%</tspan></text></svg></g><g class="visx-group visx-axis-tick" transform="translate(0, 0)"><line class="visx-line" x1="725" y1="0" x2="725" y2="8" fill="transparent" shape-rendering="crispEdges" stroke="#000" stroke-width="0" stroke-linecap="square"></line><svg x="0" y="0" font-size="10" style="overflow:visible"><text transform="" x="725" y="18" fill="#000" font-size="10" text-anchor="middle"><tspan x="725" dy="0em">50%</tspan></text></svg></g><g class="visx-group visx-axis-tick" transform="translate(0, 0)"><line class="visx-line" x1="1087.5" y1="0" x2="1087.5" y2="8" fill="transparent" shape-rendering="crispEdges" stroke="#000" stroke-width="0" stroke-linecap="square"></line><svg x="0" y="0" font-size="10" style="overflow:visible"><text transform="" x="1087.5" y="18" fill="#000" font-size="10" text-anchor="middle"><tspan x="1087.5" dy="0em">75%</tspan></text></svg></g><g class="visx-group visx-axis-tick" transform="translate(0, 0)"><line class="visx-line" x1="1450" y1="0" x2="1450" y2="8" fill="transparent" shape-rendering="crispEdges" stroke="#000" stroke-width="0" stroke-linecap="square"></line><svg x="0" y="0" font-size="10" style="overflow:visible"><text transform="" x="1450" y="18" fill="#000" font-size="10" text-anchor="middle"><tspan x="1450" dy="0em">100%</tspan></text></svg></g><line class="visx-line visx-axis-line" x1="0.5" y1="0" x2="1450.5" y2="0" fill="transparent" shape-rendering="crispEdges" stroke="#222" stroke-width="0"></line></g><g class="visx-group visx-axis visx-axis-left" transform="translate(0, 0)"><g class="visx-group visx-axis-tick" transform="translate(0, 0)"><line class="visx-line" x1="0" y1="115" x2="-8" y2="115" fill="transparent" shape-rendering="crispEdges" stroke="#222" stroke-width="0" stroke-linecap="square"></line><svg x="-30" y="0" font-size="8" style="overflow:visible"><text transform="" x="-8" y="115" fill="#000" font-size="8" text-anchor="start"><tspan x="-8" dy="0em">0%</tspan></text></svg></g><g class="visx-group visx-axis-tick" transform="translate(0, 0)"><line class="visx-line" x1="0" y1="70.76923076923077" x2="-8" y2="70.76923076923077" fill="transparent" shape-rendering="crispEdges" stroke="#222" stroke-width="0" stroke-linecap="square"></line><svg x="-30" y="0" font-size="8" style="overflow:visible"><text transform="" x="-8" y="70.76923076923077" fill="#000" font-size="8" text-anchor="start"><tspan x="-8" dy="0em">50%</tspan></text></svg></g><g class="visx-group visx-axis-tick" transform="translate(0, 0)"><line class="visx-line" x1="0" y1="26.538461538461533" x2="-8" y2="26.538461538461533" fill="transparent" shape-rendering="crispEdges" stroke="#222" stroke-width="0" stroke-linecap="square"></line><svg x="-30" y="0" font-size="8" style="overflow:visible"><text transform="" x="-8" y="26.538461538461533" fill="#000" font-size="8" text-anchor="start"><tspan x="-8" dy="0em">100%</tspan></text></svg></g><line class="visx-line visx-axis-line" x1="0" y1="115.5" x2="0" y2="0.5" fill="transparent" shape-rendering="crispEdges" stroke="#222" stroke-width="0"></line></g><rect class="visx-bar" width="1450" height="115" fill="transparent"></rect><line class="visx-line" x1="1029.5" y1="28" x2="1029.5" y2="115" fill="transparent" shape-rendering="crispEdges" stroke="#0062D2" stroke-width="1" pointer-events="none" stroke-dasharray="5,2"></line><svg x="0" y="0" font-size="10px" style="overflow:visible"><text transform="" x="1029.5" y="20" font-size="10px" fill="#fff" stroke="#fff" stroke-width="0.8em" text-anchor="middle"><tspan x="1029.5" dy="0.355em">Optimal 71%</tspan></text></svg><svg x="0" y="0" font-size="10px" style="overflow:visible"><text transform="" x="1029.5" y="20" font-size="10px" fill="#62677B" text-anchor="middle"><tspan x="1029.5" dy="0.355em">Optimal 71%</tspan></text></svg></g></svg>