<?xml version="1.0"?><svg xmlns="http://www.w3.org/2000/svg" xmlns:xlink= "http://www.w3.org/1999/xlink" style="background: white;" width="1500" height="185"> <g style="color: black; font-size: 13px; font-family: sans-serif; transform: translate(18px, 25px);"><g><circle r="3" cx="-6" cy="-5" style="fill: #B6509E" /><text>Borrow APR, variable</text></g><g style="transform: translateX(150px);"><circle r="3" cx="-6" cy="-5" style="fill: rgb(231, 198, 223)" /><text>Borrow APR, stable</text></g><g style="transform: translateX(290px);"><circle r="3" cx="-6" cy="-5" style="fill: rgb(0, 98, 210)" /><text>Utilization Rate</text></g></g><g class="visx-group" transform="translate(40, 50)"><g class="visx-group visx-rows" transform="translate(0, 0)"><line class="visx-line" x1="0" y1="115" x2="1450" y2="115" fill="transparent" shape-rendering="crispEdges" stroke="#000" stroke-width="1" stroke-dasharray="3,3" pointer-events="none"></line><line class="visx-line" x1="0" y1="70.76923076923077" x2="1450" y2="70.76923076923077" fill="transparent" shape-rendering="crispEdges" stroke="#000" stroke-width="1" stroke-dasharray="3,3" pointer-events="none"></line><line class="visx-line" x1="0" y1="26.538461538461533" x2="1450" y2="26.538461538461533" fill="transparent" shape-rendering="crispEdges" stroke="#000" stroke-width="1" stroke-dasharray="3,3" pointer-events="none"></line></g><path class="visx-linepath" d="M0,114.99999999646154C2.4166666666666665,114.41025640819231,4.833333333333334,113.82051281992308,7.25,113.23076923076924C9.666666666666666,112.6410256416154,12.083333333333334,111.75938875938877,14.5,111.46153846153847C16.916666666666668,111.16368816368816,19.333333333333332,111.16368816368816,21.75,111.01476301476302C24.166666666666668,110.86583786583788,26.583333333333332,110.7169127169127,29,110.56798756798756C31.416666666666668,110.41906241906241,33.833333333333336,110.27013727013725,36.25,110.12121212121211C38.666666666666664,109.97228697228697,41.083333333333336,109.82336182336182,43.5,109.67443667443668C45.91666666666667,109.52551152551153,48.333333333333336,109.37658637658637,50.75000000000001,109.22766122766123C53.16666666666667,109.07873607873609,55.583333333333336,108.92981092981093,58,108.78088578088578C60.416666666666664,108.63196063196064,62.833333333333336,108.48303548303548,65.25,108.33411033411033C67.66666666666667,108.18518518518519,70.08333333333333,108.03626003626003,72.5,107.88733488733489C74.91666666666667,107.73840973840974,77.33333333333333,107.58948458948458,79.75,107.44055944055944C82.16666666666667,107.2916342916343,84.58333333333333,107.14270914270914,87,106.99378399378399C89.41666666666667,106.84485884485885,91.83333333333333,106.69593369593369,94.25,106.54700854700855C96.66666666666667,106.3980833980834,99.08333333333334,106.24915824915824,101.50000000000001,106.1002331002331C103.91666666666667,105.95130795130795,106.33333333333334,105.8023828023828,108.75,105.65345765345765C111.16666666666667,105.5045325045325,113.58333333333333,105.35560735560735,116,105.2066822066822C118.41666666666667,105.05775705775706,120.83333333333334,104.9088319088319,123.25000000000001,104.75990675990676C125.66666666666667,104.61098161098161,128.08333333333334,104.46205646205645,130.5,104.31313131313131C132.91666666666666,104.16420616420616,135.33333333333334,104.015281015281,137.75,103.86635586635586C140.16666666666666,103.71743071743072,142.58333333333334,103.56850556850557,145,103.41958041958043C147.41666666666666,103.27065527065528,149.83333333333334,103.12173012173012,152.25,102.97280497280498C154.66666666666666,102.82387982387984,157.08333333333334,102.67495467495468,159.5,102.52602952602953C161.91666666666666,102.37710437710439,164.33333333333334,102.22817922817921,166.75,102.07925407925407C169.16666666666666,101.93032893032893,171.58333333333334,101.78140378140377,174,101.63247863247862C176.41666666666666,101.48355348355348,178.83333333333334,101.33462833462833,181.25,101.18570318570319C183.66666666666666,101.03677803677805,186.08333333333334,100.88785288785289,188.5,100.73892773892774C190.91666666666666,100.5900025900026,193.33333333333334,100.44107744107744,195.75,100.2921522921523C198.16666666666669,100.14322714322715,200.58333333333334,99.99430199430199,203.00000000000003,99.84537684537685C205.41666666666669,99.6964516964517,207.83333333333331,99.54752654752654,210.24999999999997,99.3986013986014C212.66666666666666,99.24967624967626,215.08333333333331,99.1007511007511,217.5,98.95182595182595C219.91666666666666,98.80290080290081,222.33333333333334,98.65397565397565,224.75,98.5050505050505C227.16666666666666,98.35612535612536,229.58333333333334,98.20720020720022,232,98.05827505827507C234.41666666666666,97.90934990934993,236.83333333333334,97.76042476042475,239.25,97.61149961149961C241.66666666666669,97.46257446257445,244.08333333333334,97.31364931364931,246.50000000000003,97.16472416472416C248.91666666666669,97.01579901579902,251.33333333333331,96.86687386687386,253.74999999999997,96.71794871794872C256.16666666666663,96.56902356902357,258.5833333333333,96.42009842009841,261,96.27117327117327C263.4166666666667,96.12224812224812,265.8333333333333,95.97332297332296,268.25,95.82439782439782C270.6666666666667,95.67547267547268,273.0833333333333,95.52654752654752,275.5,95.37762237762237C277.9166666666667,95.22869722869723,280.3333333333333,95.07977207977208,282.75,94.93084693084694C285.1666666666667,94.7819217819218,287.5833333333333,94.63299663299664,290,94.48407148407149C292.4166666666667,94.33514633514635,294.8333333333333,94.18622118622119,297.25,94.03729603729604C299.6666666666667,93.8883708883709,302.0833333333333,93.73944573944576,304.5,93.5905205905206C306.9166666666667,93.44159544159544,309.3333333333333,93.2926702926703,311.75,93.14374514374514C314.1666666666667,92.99481999481998,316.5833333333333,92.84589484589483,319,92.69696969696969C321.4166666666667,92.54804454804454,323.8333333333333,92.39911939911939,326.25,92.25019425019424C328.6666666666667,92.1012691012691,331.0833333333333,91.95234395234394,333.5,91.8034188034188C335.9166666666667,91.65449365449365,338.3333333333333,91.5055685055685,340.75,91.35664335664336C343.1666666666667,91.20771820771822,345.5833333333333,91.05879305879306,348,90.90986790986791C350.4166666666667,90.76094276094277,352.8333333333333,90.61201761201761,355.25,90.46309246309247C357.6666666666667,90.31416731416732,360.0833333333333,90.16524216524216,362.5,90.01631701631702C364.9166666666667,89.86739186739187,367.3333333333333,89.71846671846671,369.75,89.56954156954157C372.1666666666667,89.42061642061643,374.5833333333333,89.27169127169127,377,89.12276612276612C379.4166666666667,88.97384097384098,381.8333333333333,88.82491582491582,384.25,88.67599067599068C386.6666666666667,88.52706552706553,389.0833333333333,88.37814037814037,391.5,88.22921522921523C393.9166666666667,88.08029008029008,396.33333333333337,87.93136493136493,398.75000000000006,87.78243978243978C401.16666666666674,87.63351463351464,403.58333333333337,87.48458948458948,406.00000000000006,87.33566433566433C408.4166666666667,87.18673918673919,410.8333333333333,87.03781403781403,413.24999999999994,86.88888888888889C415.66666666666663,86.73996373996374,418.08333333333326,86.59103859103858,420.49999999999994,86.44211344211344C422.91666666666663,86.2931882931883,425.3333333333333,86.14426314426314,427.75,85.99533799533799C430.1666666666667,85.84641284641285,432.5833333333333,85.6974876974877,435,85.54856254856256C437.4166666666667,85.39963739963741,439.8333333333333,85.25071225071224,442.25,85.1017871017871C444.6666666666667,84.95286195286195,447.0833333333333,84.80393680393681,449.5,84.65501165501166C451.9166666666667,84.50608650608652,454.3333333333333,84.35716135716135,456.75,84.2082362082362C459.1666666666667,84.05931105931106,461.5833333333333,83.9103859103859,464,83.76146076146075C466.4166666666667,83.61253561253561,468.8333333333333,83.46361046361046,471.25,83.31468531468532C473.6666666666667,83.16576016576018,476.0833333333333,83.016835016835,478.5,82.86790986790986C480.9166666666667,82.71898471898471,483.33333333333337,82.57005957005957,485.75000000000006,82.42113442113443C488.16666666666674,82.27220927220928,490.58333333333337,82.12328412328411,493.00000000000006,81.97435897435896C495.4166666666667,81.82543382543382,497.8333333333333,81.67650867650867,500.24999999999994,81.52758352758353C502.66666666666663,81.37865837865839,505.08333333333326,81.22973322973323,507.49999999999994,81.08080808080808C509.91666666666663,80.93188293188294,512.3333333333333,80.78295778295778,514.75,80.63403263403264C517.1666666666666,80.48510748510749,519.5833333333334,80.33618233618233,522,80.18725718725719C524.4166666666666,80.03833203833204,526.8333333333334,79.88940688940687,529.25,79.74048174048173C531.6666666666666,79.59155659155658,534.0833333333334,79.44263144263144,536.5,79.2937062937063C538.9166666666666,79.14478114478115,541.3333333333334,78.99585599585598,543.75,78.84693084693083C546.1666666666666,78.69800569800569,548.5833333333334,78.54908054908054,551,78.4001554001554C553.4166666666666,78.25123025123025,555.8333333333334,78.10230510230511,558.25,77.95337995337997C560.6666666666666,77.80445480445482,563.0833333333334,77.65552965552965,565.5,77.5066045066045C567.9166666666666,77.35767935767936,570.3333333333334,77.20875420875421,572.75,77.05982905982907C575.1666666666666,76.91090391090393,577.5833333333334,76.76197876197875,580,76.61305361305361C582.4166666666666,76.46412846412846,584.8333333333334,76.31520331520332,587.25,76.16627816627818C589.6666666666666,76.01735301735303,592.0833333333334,75.86842786842789,594.5,75.71950271950273C596.9166666666666,75.57057757057757,599.3333333333334,75.42165242165241,601.75,75.27272727272727C604.1666666666666,75.12380212380212,606.5833333333334,74.97487697487698,609,74.82595182595183C611.4166666666666,74.67702667702669,613.8333333333334,74.52810152810152,616.25,74.37917637917637C618.6666666666666,74.23025123025123,621.0833333333334,74.08132608132608,623.5,73.93240093240094C625.9166666666666,73.7834757834758,628.3333333333334,73.63455063455062,630.75,73.48562548562548C633.1666666666666,73.33670033670033,635.5833333333334,73.18777518777519,638,73.03885003885004C640.4166666666666,72.8899248899249,642.8333333333334,72.74099974099974,645.25,72.5920745920746C647.6666666666666,72.44314944314945,650.0833333333334,72.29422429422429,652.5,72.14529914529915C654.9166666666666,71.996373996374,657.3333333333334,71.84744884744886,659.75,71.69852369852372C662.1666666666666,71.54959854959857,664.5833333333334,71.40067340067341,667,71.25174825174825C669.4166666666666,71.1028231028231,671.8333333333334,70.95389795389795,674.25,70.8049728049728C676.6666666666666,70.65604765604766,679.0833333333334,70.50712250712249,681.5,70.35819735819734C683.9166666666666,70.2092722092722,686.3333333333334,70.06034706034706,688.75,69.91142191142191C691.1666666666666,69.76249676249677,693.5833333333334,69.61357161357161,696,69.46464646464646C698.4166666666666,69.31572131572132,700.8333333333334,69.16679616679616,703.25,69.01787101787102C705.6666666666666,68.86894586894587,708.0833333333334,68.72002072002071,710.5,68.57109557109557C712.9166666666666,68.42217042217042,715.3333333333334,68.27324527324527,717.75,68.12432012432012C720.1666666666666,67.97539497539498,722.5833333333334,67.82646982646983,725,67.67754467754469C727.4166666666666,67.52861952861954,729.8333333333334,67.37969437969437,732.25,67.23076923076923C734.6666666666666,67.08184408184408,737.0833333333334,66.93291893291892,739.5,66.78399378399378C741.9166666666666,66.63506863506863,744.3333333333334,66.48614348614348,746.75,66.33721833721833C749.1666666666666,66.18829318829319,751.5833333333334,66.03936803936803,754,65.89044289044288C756.4166666666666,65.74151774151774,758.8333333333334,65.59259259259258,761.25,65.44366744366744C763.6666666666666,65.29474229474229,766.0833333333334,65.14581714581713,768.5,64.99689199689199C770.9166666666666,64.84796684796684,773.3333333333334,64.6990416990417,775.75,64.55011655011656C778.1666666666666,64.40119140119141,780.5833333333334,64.25226625226624,783,64.1033411033411C785.4166666666667,63.95441595441594,787.8333333333334,63.80549080549081,790.2500000000001,63.65656565656566C792.6666666666667,63.50764050764052,795.0833333333335,63.35871535871536,797.5000000000001,63.20979020979021C799.9166666666667,63.060865060865055,802.3333333333335,62.9119399119399,804.7500000000001,62.76301476301476C807.1666666666667,62.614089614089615,809.5833333333335,62.46516446516448,812.0000000000001,62.316239316239326C814.4166666666667,62.16731416731418,816.8333333333333,62.018389018389016,819.2499999999999,61.869463869463864C821.6666666666665,61.72053872053871,824.0833333333333,61.571613571613575,826.4999999999999,61.422688422688424C828.9166666666665,61.27376327376327,831.3333333333333,61.12483812483812,833.7499999999999,60.97591297591297C836.1666666666665,60.82698782698782,838.5833333333333,60.67806267806267,840.9999999999999,60.52913752913753C843.4166666666666,60.38021238021238,845.8333333333333,60.23128723128723,848.25,60.08236208236208C850.6666666666666,59.93343693343694,853.0833333333334,59.78451178451178,855.5,59.635586635586634C857.9166666666666,59.48666148666149,860.3333333333334,59.337736337736345,862.75,59.188811188811194C865.1666666666666,59.03988603988604,867.5833333333334,58.8909608909609,870,58.742035742035746C872.4166666666666,58.593110593110595,874.8333333333334,58.44418544418545,877.25,58.2952602952603C879.6666666666666,58.14633514633515,882.0833333333334,57.99740999740999,884.5,57.84848484848484C886.9166666666666,57.699559699559686,889.3333333333334,57.55063455063455,891.75,57.401709401709404C894.1666666666666,57.25278425278426,896.5833333333334,57.10385910385911,899,56.954933954933956C901.4166666666666,56.806008806008805,903.8333333333334,56.657083657083646,906.25,56.5081585081585C908.6666666666666,56.35923335923336,911.0833333333334,56.21030821030822,913.5,56.06138306138307C915.9166666666666,55.91245791245792,918.3333333333334,55.76353276353276,920.75,55.61460761460761C923.1666666666666,55.465682465682455,925.5833333333334,55.316757316757304,928,55.16783216783216C930.4166666666666,55.018907018907015,932.8333333333334,54.869981869981885,935.25,54.72105672105673C937.6666666666666,54.57213157213158,940.0833333333334,54.42320642320642,942.5,54.27428127428127C944.9166666666666,54.12535612535612,947.3333333333334,53.976430976430976,949.75,53.827505827505824C952.1666666666666,53.67858067858067,954.5833333333334,53.52965552965552,957,53.38073038073038C959.4166666666666,53.23180523180523,961.8333333333334,53.082880082880095,964.25,52.933954933954944C966.6666666666667,52.78502978502979,969.0833333333334,52.63610463610463,971.5000000000001,52.48717948717948C973.9166666666667,52.33825433825433,976.3333333333335,52.18932918932917,978.7500000000001,52.04040404040403C981.1666666666667,51.89147889147888,983.5833333333335,51.74255374255375,986.0000000000001,51.59362859362861C988.4166666666667,51.444703444703464,990.8333333333335,51.2957782957783,993.2500000000001,51.14685314685315C995.6666666666667,50.997927997927995,998.0833333333333,50.849002849002844,1000.4999999999999,50.7000777000777C1002.9166666666665,50.55115255115255,1005.3333333333333,50.402227402227396,1007.7499999999999,50.25330225330225C1010.1666666666665,50.10437710437711,1012.5833333333333,49.95545195545196,1014.9999999999999,49.80652680652681C1017.4166666666665,49.65760165760166,1019.8333333333333,49.5086765086765,1022.2499999999999,49.35975135975135C1024.6666666666665,49.2108262108262,1027.0833333333333,49.06190106190105,1029.5,48.9129759129759C1031.9166666666667,48.76405076405076,1034.3333333333333,48.61512561512562,1036.75,48.466200466200476C1039.1666666666667,48.31727531727533,1041.5833333333333,48.16835016835018,1044,48.01942501942503C1046.4166666666667,47.87049987049988,1048.8333333333333,47.72157472157472,1051.25,47.57264957264957C1053.6666666666667,47.423724423724416,1056.0833333333333,47.27479927479928,1058.5,47.125874125874134C1060.9166666666667,46.97694897694899,1063.3333333333333,46.82802382802384,1065.75,46.679098679098686C1068.1666666666667,46.530173530173535,1070.5833333333333,46.381248381248376,1073,46.232323232323225C1075.4166666666667,46.08339808339807,1077.8333333333333,45.93447293447292,1080.25,45.78554778554778C1082.6666666666667,45.63662263662263,1085.0833333333333,45.48769748769748,1087.5,45.33877233877234C1089.9166666666667,45.18984718984719,1092.3333333333333,45.040922040922055,1094.75,44.891996891996904C1097.1666666666667,44.74307174307175,1099.5833333333333,44.59414659414659,1102,44.44522144522144C1104.4166666666667,44.29629629629629,1106.8333333333333,44.14737114737116,1109.25,43.99844599844601C1111.6666666666667,43.84952084952086,1114.0833333333333,43.700595700595706,1116.5,43.551670551670554C1118.9166666666667,43.4027454027454,1121.3333333333333,43.253820253820244,1123.75,43.10489510489509C1126.1666666666667,42.95596995596994,1128.5833333333333,42.80704480704479,1131,42.658119658119645C1133.4166666666667,42.5091945091945,1135.8333333333333,42.360269360269356,1138.25,42.21134421134421C1140.6666666666667,42.06241906241907,1143.0833333333333,41.91349391349393,1145.5,41.76456876456878C1147.9166666666667,41.61564361564363,1150.3333333333333,41.46671846671847,1152.75,41.31779331779332C1155.1666666666667,41.168868168868165,1157.5833333333333,41.01994301994303,1160,40.87101787101788C1162.4166666666667,40.722092722092725,1164.8333333333333,40.57316757316758,1167.25,40.42424242424243C1169.6666666666667,40.27531727531728,1172.0833333333333,40.12639212639212,1174.5,39.97746697746697C1176.9166666666667,39.828541828541816,1179.3333333333333,39.67961667961667,1181.75,39.53069153069152C1184.1666666666667,39.38176638176637,1186.5833333333333,39.232841232841224,1189,39.08391608391608C1191.4166666666667,38.934990934990935,1193.8333333333333,38.7860657860658,1196.25,38.63714063714065C1198.6666666666667,38.488215488215495,1201.0833333333333,38.339290339290336,1203.5,38.190365190365185C1205.9166666666667,38.04144004144003,1208.3333333333333,37.892514892514896,1210.75,37.74358974358975C1213.1666666666667,37.59466459466461,1215.5833333333333,37.445739445739456,1218,37.296814296814304C1220.4166666666667,37.14788914788915,1222.8333333333333,36.998963998963994,1225.25,36.85003885003884C1227.6666666666667,36.70111370111369,1230.0833333333333,36.552188552188554,1232.5,36.4032634032634C1234.9166666666667,36.25433825433825,1237.3333333333333,36.1054131054131,1239.75,35.956487956487955C1242.1666666666667,35.80756280756281,1244.5833333333333,35.65863765863767,1247,35.50971250971252C1249.4166666666667,35.36078736078737,1251.8333333333333,35.21186221186221,1254.25,35.06293706293706C1256.6666666666667,34.91401191401191,1259.0833333333333,34.765086765086764,1261.5,34.61616161616162C1263.9166666666667,34.467236467236475,1266.3333333333333,34.31831131831132,1268.75,34.16938616938617C1271.1666666666667,34.02046102046102,1273.5833333333333,33.871535871535876,1276,33.722610722610725C1278.4166666666667,33.57368557368557,1280.8333333333333,33.42476042476043,1283.25,33.27583527583528C1285.6666666666667,33.126910126910126,1288.0833333333333,32.97798497798498,1290.5,32.82905982905983C1292.9166666666667,32.68013468013468,1295.3333333333333,32.531209531209534,1297.75,32.38228438228438C1300.1666666666667,32.23335923335923,1302.5833333333333,32.08443408443408,1305,31.93550893550893C1307.4166666666667,31.786583786583783,1309.8333333333333,31.637658637658642,1312.25,31.488733488733494C1314.6666666666667,31.339808339808346,1317.0833333333333,31.1908831908832,1319.5,31.041958041958047C1321.9166666666667,30.893032893032895,1324.3333333333333,30.744107744107744,1326.75,30.595182595182596C1329.1666666666667,30.446257446257448,1331.5833333333333,30.297332297332296,1334,30.14840714840715C1336.4166666666667,29.999481999482,1338.8333333333333,29.85055685055685,1341.25,29.7016317016317C1343.6666666666667,29.552706552706553,1346.0833333333333,29.403781403781398,1348.5,29.25485625485625C1350.9166666666667,29.105931105931102,1353.3333333333333,28.95700595700596,1355.75,28.808080808080813C1358.1666666666667,28.659155659155665,1360.5833333333333,28.510230510230514,1363,28.361305361305366C1365.4166666666667,28.212380212380218,1367.8333333333333,28.063455063455066,1370.25,27.91452991452992C1372.6666666666667,27.76560476560477,1375.0833333333333,27.61667961667962,1377.5,27.467754467754467C1379.9166666666667,27.318829318829316,1382.3333333333333,27.169904169904168,1384.75,27.02097902097902C1387.1666666666667,26.872053872053872,1389.5833333333333,26.72312872312872,1392,26.574203574203572C1394.4166666666667,26.425278425278425,1396.8333333333333,26.276353276353284,1399.25,26.127428127428136C1401.6666666666667,25.978502978502988,1404.0833333333333,25.829577829577836,1406.5,25.68065268065269C1408.9166666666667,25.53172753172754,1411.3333333333333,25.382802382802385,1413.75,25.233877233877237C1416.1666666666667,25.08495208495209,1418.5833333333333,24.936026936026952,1421,24.787101787101804C1423.4166666666667,24.638176638176656,1425.8333333333333,24.489251489251494,1428.25,24.340326340326342C1430.6666666666667,24.19140119140119,1433.0833333333333,24.04247604247604,1435.5,23.89355089355089C1437.9166666666667,23.744625744625743,1440.3333333333333,23.595700595700603,1442.75,23.446775446775455C1445.1666666666667,23.297850297850307,1447.5833333333333,23.14892514892515,1450,22.999999999999996" fill="transparent" stroke-linecap="round" stroke="#B6509E" stroke-width="2"></path><path class="visx-linepath" d="M0,106.15384615207692C2.4166666666666665,105.8589743579423,4.833333333333334,105.56410256380768,7.25,105.26923076923076C9.666666666666666,104.97435897465384,12.083333333333334,104.60651385651386,14.5,104.38461538461539C16.916666666666668,104.16271691271692,19.333333333333332,104.08676508676508,21.75,103.93783993783994C24.166666666666668,103.7889147889148,26.583333333333332,103.63998963998964,29,103.49106449106449C31.416666666666668,103.34213934213935,33.833333333333336,103.19321419321419,36.25,103.04428904428904C38.666666666666664,102.8953638953639,41.083333333333336,102.74643874643874,43.5,102.5975135975136C45.91666666666667,102.44858844858845,48.333333333333336,102.2996632996633,50.75000000000001,102.15073815073815C53.16666666666667,102.001813001813,55.583333333333336,101.85288785288785,58,101.7039627039627C60.416666666666664,101.55503755503756,62.833333333333336,101.4061124061124,65.25,101.25718725718725C67.66666666666667,101.10826210826211,70.08333333333333,100.95933695933695,72.5,100.81041181041181C74.91666666666667,100.66148666148666,77.33333333333333,100.5125615125615,79.75,100.36363636363636C82.16666666666667,100.21471121471122,84.58333333333333,100.06578606578607,87,99.91686091686093C89.41666666666667,99.76793576793578,91.83333333333333,99.61901061901062,94.25,99.47008547008548C96.66666666666667,99.32116032116033,99.08333333333334,99.17223517223519,101.50000000000001,99.02331002331003C103.91666666666667,98.87438487438489,106.33333333333334,98.72545972545971,108.75,98.57653457653457C111.16666666666667,98.42760942760941,113.58333333333333,98.27868427868427,116,98.12975912975912C118.41666666666667,97.98083398083398,120.83333333333334,97.83190883190882,123.25000000000001,97.68298368298368C125.66666666666667,97.53405853405853,128.08333333333334,97.38513338513339,130.5,97.23620823620824C132.91666666666666,97.0872830872831,135.33333333333334,96.93835793835794,137.75,96.7894327894328C140.16666666666666,96.64050764050765,142.58333333333334,96.49158249158249,145,96.34265734265735C147.41666666666666,96.1937321937322,149.83333333333334,96.04480704480704,152.25,95.8958818958819C154.66666666666666,95.74695674695676,157.08333333333334,95.5980315980316,159.5,95.44910644910645C161.91666666666666,95.30018130018131,164.33333333333334,95.15125615125615,166.75,95.002331002331C169.16666666666666,94.85340585340586,171.58333333333334,94.7044807044807,174,94.55555555555556C176.41666666666666,94.40663040663041,178.83333333333334,94.25770525770525,181.25,94.10878010878011C183.66666666666666,93.95985495985497,186.08333333333334,93.81092981092979,188.5,93.66200466200465C190.91666666666666,93.5130795130795,193.33333333333334,93.36415436415436,195.75,93.21522921522921C198.16666666666669,93.06630406630407,200.58333333333334,92.91737891737891,203.00000000000003,92.76845376845377C205.41666666666669,92.61952861952862,207.83333333333331,92.47060347060346,210.24999999999997,92.32167832167832C212.66666666666666,92.17275317275318,215.08333333333331,92.02382802382802,217.5,91.87490287490287C219.91666666666666,91.72597772597773,222.33333333333334,91.57705257705257,224.75,91.42812742812742C227.16666666666666,91.27920227920228,229.58333333333334,91.13027713027712,232,90.98135198135198C234.41666666666666,90.83242683242683,236.83333333333334,90.68350168350167,239.25,90.53457653457653C241.66666666666669,90.38565138565139,244.08333333333334,90.23672623672624,246.50000000000003,90.0878010878011C248.91666666666669,89.93887593887595,251.33333333333331,89.78995078995078,253.74999999999997,89.64102564102564C256.16666666666663,89.49210049210048,258.5833333333333,89.34317534317533,261,89.19425019425019C263.4166666666667,89.04532504532504,265.8333333333333,88.89639989639988,268.25,88.74747474747474C270.6666666666667,88.5985495985496,273.0833333333333,88.44962444962444,275.5,88.30069930069929C277.9166666666667,88.15177415177415,280.3333333333333,88.002849002849,282.75,87.85392385392386C285.1666666666667,87.70499870499872,287.5833333333333,87.55607355607354,290,87.4071484071484C292.4166666666667,87.25822325822325,294.8333333333333,87.10929810929811,297.25,86.96037296037296C299.6666666666667,86.81144781144782,302.0833333333333,86.66252266252266,304.5,86.51359751359752C306.9166666666667,86.36467236467237,309.3333333333333,86.21574721574721,311.75,86.06682206682207C314.1666666666667,85.91789691789693,316.5833333333333,85.76897176897177,319,85.62004662004662C321.4166666666667,85.47112147112148,323.8333333333333,85.3221963221963,326.25,85.17327117327116C328.6666666666667,85.02434602434602,331.0833333333333,84.87542087542087,333.5,84.72649572649573C335.9166666666667,84.57757057757058,338.3333333333333,84.42864542864542,340.75,84.27972027972028C343.1666666666667,84.13079513079514,345.5833333333333,83.98186998186998,348,83.83294483294483C350.4166666666667,83.68401968401969,352.8333333333333,83.53509453509453,355.25,83.38616938616939C357.6666666666667,83.23724423724424,360.0833333333333,83.08831908831908,362.5,82.93939393939394C364.9166666666667,82.7904687904688,367.3333333333333,82.64154364154365,369.75,82.4926184926185C372.1666666666667,82.34369334369336,374.5833333333333,82.19476819476819,377,82.04584304584304C379.4166666666667,81.8969178969179,381.8333333333333,81.74799274799275,384.25,81.59906759906761C386.6666666666667,81.45014245014247,389.0833333333333,81.30121730121729,391.5,81.15229215229215C393.9166666666667,81.00336700336699,396.33333333333337,80.85444185444184,398.75000000000006,80.7055167055167C401.16666666666674,80.55659155659156,403.58333333333337,80.4076664076664,406.00000000000006,80.25874125874125C408.4166666666667,80.10981610981611,410.8333333333333,79.96089096089095,413.24999999999994,79.8119658119658C415.66666666666663,79.66304066304066,418.08333333333326,79.51411551411552,420.49999999999994,79.36519036519037C422.91666666666663,79.21626521626523,425.3333333333333,79.06734006734006,427.75,78.91841491841491C430.1666666666667,78.76948976948977,432.5833333333333,78.62056462056462,435,78.47163947163948C437.4166666666667,78.32271432271433,439.8333333333333,78.17378917378916,442.25,78.02486402486402C444.6666666666667,77.87593887593887,447.0833333333333,77.72701372701373,449.5,77.57808857808858C451.9166666666667,77.42916342916344,454.3333333333333,77.2802382802383,456.75,77.13131313131315C459.1666666666667,76.982387982388,461.5833333333333,76.83346283346285,464,76.68453768453769C466.4166666666667,76.53561253561253,468.8333333333333,76.38668738668738,471.25,76.23776223776224C473.6666666666667,76.0888370888371,476.0833333333333,75.93991193991192,478.5,75.79098679098678C480.9166666666667,75.64206164206163,483.33333333333337,75.49313649313649,485.75000000000006,75.34421134421135C488.16666666666674,75.1952861952862,490.58333333333337,75.04636104636104,493.00000000000006,74.8974358974359C495.4166666666667,74.74851074851075,497.8333333333333,74.5995855995856,500.24999999999994,74.45066045066045C502.66666666666663,74.3017353017353,505.08333333333326,74.15281015281016,507.49999999999994,74.00388500388502C509.91666666666663,73.85495985495987,512.3333333333333,73.70603470603471,514.75,73.55710955710956C517.1666666666666,73.40818440818441,519.5833333333334,73.25925925925925,522,73.11033411033411C524.4166666666666,72.96140896140896,526.8333333333334,72.81248381248382,529.25,72.66355866355867C531.6666666666666,72.51463351463353,534.0833333333334,72.36570836570837,536.5,72.21678321678323C538.9166666666666,72.06785806785808,541.3333333333334,71.91893291893291,543.75,71.77000777000777C546.1666666666666,71.62108262108262,548.5833333333334,71.47215747215746,551,71.32323232323232C553.4166666666666,71.17430717430717,555.8333333333334,71.02538202538203,558.25,70.87645687645688C560.6666666666666,70.72753172753174,563.0833333333334,70.57860657860657,565.5,70.42968142968142C567.9166666666666,70.28075628075628,570.3333333333334,70.13183113183113,572.75,69.98290598290599C575.1666666666666,69.83398083398085,577.5833333333334,69.68505568505569,580,69.53613053613054C582.4166666666666,69.3872053872054,584.8333333333334,69.23828023828025,587.25,69.0893550893551C589.6666666666666,68.94042994042994,592.0833333333334,68.79150479150478,594.5,68.64257964257963C596.9166666666666,68.49365449365449,599.3333333333334,68.34472934472934,601.75,68.1958041958042C604.1666666666666,68.04687904687906,606.5833333333334,67.8979538979539,609,67.74902874902875C611.4166666666666,67.60010360010361,613.8333333333334,67.45117845117844,616.25,67.30225330225329C618.6666666666666,67.15332815332815,621.0833333333334,67.004403004403,623.5,66.85547785547786C625.9166666666666,66.70655270655271,628.3333333333334,66.55762755762755,630.75,66.40870240870241C633.1666666666666,66.25977725977727,635.5833333333334,66.11085211085211,638,65.96192696192696C640.4166666666666,65.81300181300182,642.8333333333334,65.66407666407665,645.25,65.5151515151515C647.6666666666666,65.36622636622636,650.0833333333334,65.21730121730121,652.5,65.06837606837607C654.9166666666666,64.91945091945092,657.3333333333334,64.77052577052578,659.75,64.62160062160063C662.1666666666666,64.47267547267549,664.5833333333334,64.32375032375032,667,64.17482517482517C669.4166666666666,64.02590002590003,671.8333333333334,63.876974876974884,674.25,63.72804972804973C676.6666666666666,63.57912457912458,679.0833333333334,63.43019943019944,681.5,63.281274281274285C683.9166666666666,63.132349132349134,686.3333333333334,62.98342398342399,688.75,62.83449883449884C691.1666666666666,62.68557368557369,693.5833333333334,62.53664853664853,696,62.387723387723376C698.4166666666666,62.238798238798225,700.8333333333334,62.08987308987308,703.25,61.940947940947936C705.6666666666666,61.79202279202279,708.0833333333334,61.643097643097654,710.5,61.4941724941725C712.9166666666666,61.34524734524735,715.3333333333334,61.19632219632219,717.75,61.04739704739704C720.1666666666666,60.89847189847189,722.5833333333334,60.74954674954676,725,60.60062160062161C727.4166666666666,60.451696451696456,729.8333333333334,60.3027713027713,732.25,60.153846153846146C734.6666666666666,60.004921004920995,737.0833333333334,59.85599585599585,739.5,59.707070707070706C741.9166666666666,59.55814555814556,744.3333333333334,59.409220409220424,746.75,59.26029526029527C749.1666666666666,59.11137011137012,751.5833333333334,58.96244496244496,754,58.81351981351981C756.4166666666666,58.66459466459466,758.8333333333334,58.51566951566953,761.25,58.36674436674438C763.6666666666666,58.217819217819226,766.0833333333334,58.06889406889407,768.5,57.919968919968916C770.9166666666666,57.771043771043765,773.3333333333334,57.62211862211862,775.75,57.473193473193476C778.1666666666666,57.32426832426833,780.5833333333334,57.17534317534317,783,57.02641802641803C785.4166666666667,56.87749287749288,787.8333333333334,56.72856772856773,790.2500000000001,56.57964257964258C792.6666666666667,56.430717430717436,795.0833333333335,56.281792281792285,797.5000000000001,56.13286713286713C799.9166666666667,55.98394198394198,802.3333333333335,55.83501683501684,804.7500000000001,55.686091686091686C807.1666666666667,55.537166537166534,809.5833333333335,55.38824138824138,812.0000000000001,55.23931623931623C814.4166666666667,55.09039109039108,816.8333333333333,54.94146594146593,819.2499999999999,54.792540792540784C821.6666666666665,54.64361564361563,824.0833333333333,54.494690494690495,826.4999999999999,54.34576534576535C828.9166666666665,54.196840196840206,831.3333333333333,54.047915047915055,833.7499999999999,53.8989898989899C836.1666666666665,53.75006475006475,838.5833333333333,53.60113960113961,840.9999999999999,53.452214452214456C843.4166666666666,53.303289303289304,845.8333333333333,53.15436415436415,848.25,53.005439005439C850.6666666666666,52.85651385651385,853.0833333333334,52.707588707588705,855.5,52.558663558663554C857.9166666666666,52.4097384097384,860.3333333333334,52.26081326081325,862.75,52.111888111888106C865.1666666666666,51.96296296296296,867.5833333333334,51.81403781403782,870,51.66511266511267C872.4166666666666,51.51618751618753,874.8333333333334,51.36726236726238,877.25,51.218337218337226C879.6666666666666,51.069412069412074,882.0833333333334,50.92048692048692,884.5,50.77156177156177C886.9166666666666,50.62263662263662,889.3333333333334,50.473711473711475,891.75,50.324786324786324C894.1666666666666,50.17586117586117,896.5833333333334,50.02693602693603,899,49.878010878010876C901.4166666666666,49.729085729085725,903.8333333333334,49.58016058016058,906.25,49.43123543123543C908.6666666666666,49.28231028231028,911.0833333333334,49.13338513338513,913.5,48.98445998445998C915.9166666666666,48.83553483553483,918.3333333333334,48.68660968660969,920.75,48.53768453768454C923.1666666666666,48.38875938875939,925.5833333333334,48.23983423983423,928,48.09090909090908C930.4166666666666,47.94198394198393,932.8333333333334,47.79305879305879,935.25,47.644133644133646C937.6666666666666,47.4952084952085,940.0833333333334,47.34628334628335,942.5,47.1973581973582C944.9166666666666,47.04843304843305,947.3333333333334,46.8995078995079,949.75,46.75058275058275C952.1666666666666,46.6016576016576,954.5833333333334,46.45273245273245,957,46.3038073038073C959.4166666666666,46.154882154882145,961.8333333333334,46.005957005956994,964.25,45.85703185703185C966.6666666666667,45.7081067081067,969.0833333333334,45.55918155918157,971.5000000000001,45.410256410256416C973.9166666666667,45.261331261331264,976.3333333333335,45.112406112406106,978.7500000000001,44.963480963480954C981.1666666666667,44.8145558145558,983.5833333333335,44.665630665630665,986.0000000000001,44.51670551670552C988.4166666666667,44.36778036778038,990.8333333333335,44.21885521885523,993.2500000000001,44.06993006993008C995.6666666666667,43.921004921004936,998.0833333333333,43.772079772079785,1000.4999999999999,43.62315462315463C1002.9166666666665,43.47422947422948,1005.3333333333333,43.32530432530432,1007.7499999999999,43.17637917637917C1010.1666666666665,43.02745402745402,1012.5833333333333,42.87852887852887,1014.9999999999999,42.729603729603724C1017.4166666666665,42.58067858067858,1019.8333333333333,42.431753431753435,1022.2499999999999,42.282828282828284C1024.6666666666665,42.13390313390313,1027.0833333333333,41.984977984977974,1029.5,41.83605283605282C1031.9166666666667,41.68712768712767,1034.3333333333333,41.53820253820253,1036.75,41.38927738927739C1039.1666666666667,41.240352240352244,1041.5833333333333,41.0914270914271,1044,40.942501942501956C1046.4166666666667,40.79357679357681,1048.8333333333333,40.64465164465166,1051.25,40.49572649572651C1053.6666666666667,40.34680134680136,1056.0833333333333,40.1978761978762,1058.5,40.04895104895105C1060.9166666666667,39.900025900025895,1063.3333333333333,39.751100751100736,1065.75,39.60217560217559C1068.1666666666667,39.45325045325045,1070.5833333333333,39.30432530432531,1073,39.15540015540016C1075.4166666666667,39.00647500647501,1077.8333333333333,38.85754985754985,1080.25,38.7086247086247C1082.6666666666667,38.559699559699546,1085.0833333333333,38.41077441077441,1087.5,38.261849261849264C1089.9166666666667,38.11292411292412,1092.3333333333333,37.963998963998975,1094.75,37.81507381507382C1097.1666666666667,37.66614866614867,1099.5833333333333,37.51722351722353,1102,37.368298368298376C1104.4166666666667,37.219373219373225,1106.8333333333333,37.070448070448066,1109.25,36.921522921522914C1111.6666666666667,36.77259777259776,1114.0833333333333,36.62367262367261,1116.5,36.47474747474747C1118.9166666666667,36.32582232582232,1121.3333333333333,36.176897176897185,1123.75,36.027972027972034C1126.1666666666667,35.87904687904688,1128.5833333333333,35.73012173012173,1131,35.58119658119658C1133.4166666666667,35.43227143227143,1135.8333333333333,35.28334628334626,1138.25,35.13442113442112C1140.6666666666667,34.98549598549597,1143.0833333333333,34.83657083657084,1145.5,34.6876456876457C1147.9166666666667,34.538720538720554,1150.3333333333333,34.3897953897954,1152.75,34.24087024087025C1155.1666666666667,34.0919450919451,1157.5833333333333,33.94301994301994,1160,33.79409479409479C1162.4166666666667,33.64516964516964,1164.8333333333333,33.4962444962445,1167.25,33.34731934731935C1169.6666666666667,33.1983941983942,1172.0833333333333,33.04946904946905,1174.5,32.9005439005439C1176.9166666666667,32.75161875161875,1179.3333333333333,32.602693602693606,1181.75,32.453768453768454C1184.1666666666667,32.3048433048433,1186.5833333333333,32.15591815591814,1189,32.00699300699299C1191.4166666666667,31.858067858067844,1193.8333333333333,31.709142709142714,1196.25,31.56021756021757C1198.6666666666667,31.411292411292425,1201.0833333333333,31.262367262367274,1203.5,31.113442113442122C1205.9166666666667,30.96451696451697,1208.3333333333333,30.81559181559181,1210.75,30.66666666666666C1213.1666666666667,30.517741517741513,1215.5833333333333,30.368816368816372,1218,30.219891219891224C1220.4166666666667,30.070966070966076,1222.8333333333333,29.922040922040928,1225.25,29.773115773115777C1227.6666666666667,29.624190624190625,1230.0833333333333,29.475265475265477,1232.5,29.326340326340326C1234.9166666666667,29.177415177415174,1237.3333333333333,29.028490028490012,1239.75,28.879564879564864C1242.1666666666667,28.730639730639716,1244.5833333333333,28.581714581714586,1247,28.43278943278944C1249.4166666666667,28.283864283864297,1251.8333333333333,28.134939134939145,1254.25,27.986013986013994C1256.6666666666667,27.837088837088842,1259.0833333333333,27.688163688163684,1261.5,27.539238539238532C1263.9166666666667,27.39031339031338,1266.3333333333333,27.241388241388243,1268.75,27.092463092463095C1271.1666666666667,26.943537943537947,1273.5833333333333,26.794612794612796,1276,26.645687645687648C1278.4166666666667,26.4967624967625,1280.8333333333333,26.34783734783735,1283.25,26.198912198912197C1285.6666666666667,26.049987049987045,1288.0833333333333,25.901061901061887,1290.5,25.75213675213674C1292.9166666666667,25.60321160321159,1295.3333333333333,25.454286454286457,1297.75,25.305361305361313C1300.1666666666667,25.15643615643617,1302.5833333333333,25.007511007511017,1305,24.858585858585865C1307.4166666666667,24.709660709660714,1309.8333333333333,24.56073556073555,1312.25,24.411810411810404C1314.6666666666667,24.262885262885256,1317.0833333333333,24.11396011396012,1319.5,23.965034965034967C1321.9166666666667,23.816109816109815,1324.3333333333333,23.667184667184653,1326.75,23.518259518259505C1329.1666666666667,23.369334369334357,1331.5833333333333,23.22040922040922,1334,23.071484071484072C1336.4166666666667,22.922558922558924,1338.8333333333333,22.77363377363377,1341.25,22.62470862470862C1343.6666666666667,22.475783475783473,1346.0833333333333,22.32685832685832,1348.5,22.177933177933173C1350.9166666666667,22.029008029008025,1353.3333333333333,21.880082880082885,1355.75,21.731157731157737C1358.1666666666667,21.58223258223259,1360.5833333333333,21.43330743330744,1363,21.28438228438229C1365.4166666666667,21.135457135457138,1367.8333333333333,20.98653198653198,1370.25,20.837606837606828C1372.6666666666667,20.688681688681676,1375.0833333333333,20.53975653975654,1377.5,20.39083139083139C1379.9166666666667,20.241906241906243,1382.3333333333333,20.092981092981095,1384.75,19.944055944055943C1387.1666666666667,19.79513079513079,1389.5833333333333,19.64620564620563,1392,19.49728049728048C1394.4166666666667,19.348355348355334,1396.8333333333333,19.19943019943019,1399.25,19.050505050505045C1401.6666666666667,18.9015799015799,1404.0833333333333,18.75265475265477,1406.5,18.603729603729622C1408.9166666666667,18.454804454804474,1411.3333333333333,18.305879305879312,1413.75,18.15695415695416C1416.1666666666667,18.00802900802901,1418.5833333333333,17.85910385910386,1421,17.710178710178713C1423.4166666666667,17.561253561253565,1425.8333333333333,17.412328412328428,1428.25,17.263403263403276C1430.6666666666667,17.114478114478125,1433.0833333333333,16.965552965552966,1435.5,16.816627816627815C1437.9166666666667,16.667702667702663,1440.3333333333333,16.51877751877752,1442.75,16.369852369852367C1445.1666666666667,16.220927220927216,1447.5833333333333,16.07200207200206,1450,15.923076923076906" fill="transparent" stroke-linecap="round" stroke="#E7C6DF" stroke-width="2"></path><g class="visx-group visx-axis visx-axis-bottom" transform="translate(0, 115)"><g class="visx-group visx-axis-tick" transform="translate(0, 0)"><line class="visx-line" x1="0" y1="0" x2="0" y2="8" fill="transparent" shape-rendering="crispEdges" stroke="#000" stroke-width="0" stroke-linecap="square"></line><svg x="0" y="0" font-size="10" style="overflow:visible"><text transform="" x="0" y="18" fill="#000" font-size="10" text-anchor="middle"><tspan x="0" dy="0em">0%</tspan></text></svg></g><g class="visx-group visx-axis-tick" transform="translate(0, 0)"><line class="visx-line" x1="362.5" y1="0" x2="362.5" y2="8" fill="transparent" shape-rendering="crispEdges" stroke="#000" stroke-width="0" stroke-linecap="square"></line><svg x="0" y="0" font-size="10" style="overflow:visible"><text transform="" x="362.5" y="18" fill="#000" font-size="10" text-anchor="middle"><tspan x="362.5" dy="0em">25%</tspan></text></svg></g><g class="visx-group visx-axis-tick" transform="translate(0, 0)"><line class="visx-line" x1="725" y1="0" x2="725" y2="8" fill="transparent" shape-rendering="crispEdges" stroke="#000" stroke-width="0" stroke-linecap="square"></line><svg x="0" y="0" font-size="10" style="overflow:visible"><text transform="" x="725" y="18" fill="#000" font-size="10" text-anchor="middle"><tspan x="725" dy="0em">50%</tspan></text></svg></g><g class="visx-group visx-axis-tick" transform="translate(0, 0)"><line class="visx-line" x1="1087.5" y1="0" x2="1087.5" y2="8" fill="transparent" shape-rendering="crispEdges" stroke="#000" stroke-width="0" stroke-linecap="square"></line><svg x="0" y="0" font-size="10" style="overflow:visible"><text transform="" x="1087.5" y="18" fill="#000" font-size="10" text-anchor="middle"><tspan x="1087.5" dy="0em">75%</tspan></text></svg></g><g class="visx-group visx-axis-tick" transform="translate(0, 0)"><line class="visx-line" x1="1450" y1="0" x2="1450" y2="8" fill="transparent" shape-rendering="crispEdges" stroke="#000" stroke-width="0" stroke-linecap="square"></line><svg x="0" y="0" font-size="10" style="overflow:visible"><text transform="" x="1450" y="18" fill="#000" font-size="10" text-anchor="middle"><tspan x="1450" dy="0em">100%</tspan></text></svg></g><line class="visx-line visx-axis-line" x1="0.5" y1="0" x2="1450.5" y2="0" fill="transparent" shape-rendering="crispEdges" stroke="#222" stroke-width="0"></line></g><g class="visx-group visx-axis visx-axis-left" transform="translate(0, 0)"><g class="visx-group visx-axis-tick" transform="translate(0, 0)"><line class="visx-line" x1="0" y1="115" x2="-8" y2="115" fill="transparent" shape-rendering="crispEdges" stroke="#222" stroke-width="0" stroke-linecap="square"></line><svg x="-30" y="0" font-size="8" style="overflow:visible"><text transform="" x="-8" y="115" fill="#000" font-size="8" text-anchor="start"><tspan x="-8" dy="0em">0%</tspan></text></svg></g><g class="visx-group visx-axis-tick" transform="translate(0, 0)"><line class="visx-line" x1="0" y1="70.76923076923077" x2="-8" y2="70.76923076923077" fill="transparent" shape-rendering="crispEdges" stroke="#222" stroke-width="0" stroke-linecap="square"></line><svg x="-30" y="0" font-size="8" style="overflow:visible"><text transform="" x="-8" y="70.76923076923077" fill="#000" font-size="8" text-anchor="start"><tspan x="-8" dy="0em">50%</tspan></text></svg></g><g class="visx-group visx-axis-tick" transform="translate(0, 0)"><line class="visx-line" x1="0" y1="26.538461538461533" x2="-8" y2="26.538461538461533" fill="transparent" shape-rendering="crispEdges" stroke="#222" stroke-width="0" stroke-linecap="square"></line><svg x="-30" y="0" font-size="8" style="overflow:visible"><text transform="" x="-8" y="26.538461538461533" fill="#000" font-size="8" text-anchor="start"><tspan x="-8" dy="0em">100%</tspan></text></svg></g><line class="visx-line visx-axis-line" x1="0" y1="115.5" x2="0" y2="0.5" fill="transparent" shape-rendering="crispEdges" stroke="#222" stroke-width="0"></line></g><rect class="visx-bar" width="1450" height="115" fill="transparent"></rect><line class="visx-line" x1="14.5" y1="28" x2="14.5" y2="115" fill="transparent" shape-rendering="crispEdges" stroke="#0062D2" stroke-width="1" pointer-events="none" stroke-dasharray="5,2"></line><svg x="0" y="0" font-size="10px" style="overflow:visible"><text transform="" x="14.5" y="20" font-size="10px" fill="#fff" stroke="#fff" stroke-width="0.8em" text-anchor="middle"><tspan x="14.5" dy="0.355em">Optimal 1%</tspan></text></svg><svg x="0" y="0" font-size="10px" style="overflow:visible"><text transform="" x="14.5" y="20" font-size="10px" fill="#62677B" text-anchor="middle"><tspan x="14.5" dy="0.355em">Optimal 1%</tspan></text></svg></g></svg>