<?xml version="1.0"?><svg xmlns="http://www.w3.org/2000/svg" xmlns:xlink= "http://www.w3.org/1999/xlink" style="background: white;" width="1500" height="185"> <g style="color: black; font-size: 13px; font-family: sans-serif; transform: translate(18px, 25px);"><g><circle r="3" cx="-6" cy="-5" style="fill: #B6509E" /><text>Borrow APR, variable</text></g><g style="transform: translateX(150px);"><circle r="3" cx="-6" cy="-5" style="fill: rgb(231, 198, 223)" /><text>Borrow APR, stable</text></g><g style="transform: translateX(290px);"><circle r="3" cx="-6" cy="-5" style="fill: rgb(0, 98, 210)" /><text>Utilization Rate</text></g></g><g class="visx-group" transform="translate(40, 50)"><g class="visx-group visx-rows" transform="translate(0, 0)"><line class="visx-line" x1="0" y1="115" x2="1450" y2="115" fill="transparent" shape-rendering="crispEdges" stroke="#000" stroke-width="1" stroke-dasharray="3,3" pointer-events="none"></line><line class="visx-line" x1="0" y1="82.14285714285714" x2="1450" y2="82.14285714285714" fill="transparent" shape-rendering="crispEdges" stroke="#000" stroke-width="1" stroke-dasharray="3,3" pointer-events="none"></line><line class="visx-line" x1="0" y1="49.28571428571429" x2="1450" y2="49.28571428571429" fill="transparent" shape-rendering="crispEdges" stroke="#000" stroke-width="1" stroke-dasharray="3,3" pointer-events="none"></line><line class="visx-line" x1="0" y1="16.428571428571434" x2="1450" y2="16.428571428571434" fill="transparent" shape-rendering="crispEdges" stroke="#000" stroke-width="1" stroke-dasharray="3,3" pointer-events="none"></line></g><path class="visx-linepath" d="M0,111.71428571198571C2.4166666666666665,111.33095237961071,4.833333333333334,110.94761904723572,7.25,110.56428571428572C9.666666666666666,110.18095238133571,12.083333333333334,109.68892496392496,14.5,109.41428571428571C16.916666666666668,109.13964646464646,19.333333333333332,109.08239538239538,21.75,108.91645021645022C24.166666666666668,108.75050505050505,26.583333333333332,108.58455988455988,29,108.41861471861472C31.416666666666668,108.25266955266956,33.833333333333336,108.08672438672438,36.25,107.92077922077922C38.666666666666664,107.75483405483406,41.083333333333336,107.58888888888889,43.5,107.42294372294373C45.91666666666667,107.25699855699857,48.333333333333336,107.0910533910534,50.75000000000001,106.92510822510823C53.16666666666667,106.75916305916307,55.583333333333336,106.59321789321788,58,106.42727272727272C60.416666666666664,106.26132756132755,62.833333333333336,106.09538239538239,65.25,105.92943722943723C67.66666666666667,105.76349206349207,70.08333333333333,105.59754689754689,72.5,105.43160173160173C74.91666666666667,105.26565656565657,77.33333333333333,105.0997113997114,79.75,104.93376623376624C82.16666666666667,104.76782106782107,84.58333333333333,104.6018759018759,87,104.43593073593074C89.41666666666667,104.26998556998558,91.83333333333333,104.1040404040404,94.25,103.93809523809524C96.66666666666667,103.77215007215007,99.08333333333334,103.60620490620491,101.50000000000001,103.44025974025973C103.91666666666667,103.27431457431457,106.33333333333334,103.1083694083694,108.75,102.94242424242424C111.16666666666667,102.77647907647908,113.58333333333333,102.6105339105339,116,102.44458874458874C118.41666666666667,102.27864357864358,120.83333333333334,102.1126984126984,123.25000000000001,101.94675324675325C125.66666666666667,101.78080808080809,128.08333333333334,101.61486291486291,130.5,101.44891774891775C132.91666666666666,101.28297258297259,135.33333333333334,101.11702741702742,137.75,100.95108225108225C140.16666666666666,100.7851370851371,142.58333333333334,100.61919191919193,145,100.45324675324676C147.41666666666666,100.28730158730158,149.83333333333334,100.12135642135641,152.25,99.95541125541125C154.66666666666666,99.78946608946609,157.08333333333334,99.62352092352091,159.5,99.45757575757575C161.91666666666666,99.2916305916306,164.33333333333334,99.12568542568542,166.75,98.95974025974026C169.16666666666666,98.7937950937951,171.58333333333334,98.62784992784992,174,98.46190476190476C176.41666666666666,98.2959595959596,178.83333333333334,98.13001443001443,181.25,97.96406926406927C183.66666666666666,97.7981240981241,186.08333333333334,97.63217893217893,188.5,97.46623376623377C190.91666666666666,97.30028860028861,193.33333333333334,97.13434343434342,195.75,96.96839826839826C198.16666666666669,96.80245310245309,200.58333333333334,96.63650793650793,203.00000000000003,96.47056277056276C205.41666666666669,96.3046176046176,207.83333333333331,96.13867243867243,210.24999999999997,95.97272727272727C212.66666666666666,95.80678210678211,215.08333333333331,95.64083694083693,217.5,95.47489177489177C219.91666666666666,95.30894660894661,222.33333333333334,95.14300144300144,224.75,94.97705627705628C227.16666666666666,94.81111111111112,229.58333333333334,94.64516594516594,232,94.47922077922078C234.41666666666666,94.31327561327562,236.83333333333334,94.14733044733045,239.25,93.98138528138529C241.66666666666669,93.81544011544013,244.08333333333334,93.64949494949495,246.50000000000003,93.48354978354979C248.91666666666669,93.31760461760463,251.33333333333331,93.15165945165946,253.74999999999997,92.9857142857143C256.16666666666663,92.81976911976912,258.5833333333333,92.65382395382396,261,92.48787878787878C263.4166666666667,92.32193362193362,265.8333333333333,92.15598845598845,268.25,91.99004329004329C270.6666666666667,91.82409812409813,273.0833333333333,91.65815295815295,275.5,91.4922077922078C277.9166666666667,91.32626262626263,280.3333333333333,91.16031746031744,282.75,90.99437229437228C285.1666666666667,90.82842712842712,287.5833333333333,90.66248196248196,290,90.4965367965368C292.4166666666667,90.33059163059164,294.8333333333333,90.16464646464647,297.25,89.99870129870129C299.6666666666667,89.83275613275612,302.0833333333333,89.66681096681096,304.5,89.5008658008658C306.9166666666667,89.33492063492064,309.3333333333333,89.16897546897546,311.75,89.0030303030303C314.1666666666667,88.83708513708514,316.5833333333333,88.67113997113997,319,88.5051948051948C321.4166666666667,88.33924963924964,323.8333333333333,88.17330447330447,326.25,88.00735930735931C328.6666666666667,87.84141414141415,331.0833333333333,87.67546897546897,333.5,87.50952380952381C335.9166666666667,87.34357864357865,338.3333333333333,87.17763347763349,340.75,87.01168831168832C343.1666666666667,86.84574314574314,345.5833333333333,86.67979797979797,348,86.51385281385281C350.4166666666667,86.34790764790765,352.8333333333333,86.18196248196247,355.25,86.01601731601731C357.6666666666667,85.85007215007215,360.0833333333333,85.68412698412698,362.5,85.51818181818182C364.9166666666667,85.35223665223666,367.3333333333333,85.18629148629148,369.75,85.02034632034632C372.1666666666667,84.85440115440116,374.5833333333333,84.688455988456,377,84.52251082251084C379.4166666666667,84.35656565656568,381.8333333333333,84.19062049062049,384.25,84.02467532467533C386.6666666666667,83.85873015873017,389.0833333333333,83.692784992785,391.5,83.52683982683983C393.9166666666667,83.36089466089466,396.33333333333337,83.1949494949495,398.75000000000006,83.02900432900432C401.16666666666674,82.86305916305916,403.58333333333337,82.69711399711399,406.00000000000006,82.53116883116883C408.4166666666667,82.36522366522367,410.8333333333333,82.19927849927849,413.24999999999994,82.03333333333333C415.66666666666663,81.86738816738817,418.08333333333326,81.70144300144301,420.49999999999994,81.53549783549785C422.91666666666663,81.36955266955269,425.3333333333333,81.20360750360753,427.75,81.03766233766235C430.1666666666667,80.8717171717172,432.5833333333333,80.70577200577202,435,80.53982683982684C437.4166666666667,80.37388167388167,439.8333333333333,80.20793650793652,442.25,80.04199134199135C444.6666666666667,79.87604617604617,447.0833333333333,79.710101010101,449.5,79.54415584415584C451.9166666666667,79.37821067821068,454.3333333333333,79.21226551226552,456.75,79.04632034632036C459.1666666666667,78.8803751803752,461.5833333333333,78.71443001443001,464,78.54848484848485C466.4166666666667,78.38253968253969,468.8333333333333,78.21659451659451,471.25,78.05064935064935C473.6666666666667,77.88470418470419,476.0833333333333,77.718759018759,478.5,77.55281385281384C480.9166666666667,77.38686868686867,483.33333333333337,77.2209235209235,485.75000000000006,77.05497835497835C488.16666666666674,76.88903318903319,490.58333333333337,76.72308802308801,493.00000000000006,76.55714285714285C495.4166666666667,76.39119769119769,497.8333333333333,76.22525252525253,500.24999999999994,76.05930735930737C502.66666666666663,75.89336219336221,505.08333333333326,75.72741702741702,507.49999999999994,75.56147186147186C509.91666666666663,75.39552669552668,512.3333333333333,75.22958152958154,514.75,75.06363636363636C517.1666666666666,74.8976911976912,519.5833333333334,74.73174603174601,522,74.56580086580085C524.4166666666666,74.39985569985569,526.8333333333334,74.23391053391052,529.25,74.06796536796536C531.6666666666666,73.9020202020202,534.0833333333334,73.73607503607502,536.5,73.57012987012986C538.9166666666666,73.4041847041847,541.3333333333334,73.23823953823954,543.75,73.07229437229438C546.1666666666666,72.90634920634922,548.5833333333334,72.74040404040406,551,72.57445887445888C553.4166666666666,72.40851370851371,555.8333333333334,72.24256854256853,558.25,72.07662337662337C560.6666666666666,71.91067821067821,563.0833333333334,71.74473304473304,565.5,71.57878787878788C567.9166666666666,71.41284271284272,570.3333333333334,71.24689754689753,572.75,71.08095238095237C575.1666666666666,70.91500721500721,577.5833333333334,70.74906204906205,580,70.58311688311689C582.4166666666666,70.41717171717173,584.8333333333334,70.25122655122655,587.25,70.08528138528139C589.6666666666666,69.91933621933623,592.0833333333334,69.75339105339106,594.5,69.5874458874459C596.9166666666666,69.42150072150073,599.3333333333334,69.25555555555556,601.75,69.0896103896104C604.1666666666666,68.92366522366524,606.5833333333334,68.75772005772006,609,68.59177489177489C611.4166666666666,68.42582972582971,613.8333333333334,68.25988455988455,616.25,68.0939393939394C618.6666666666666,67.92799422799423,621.0833333333334,67.76204906204906,623.5,67.5961038961039C625.9166666666666,67.43015873015874,628.3333333333334,67.26421356421356,630.75,67.0982683982684C633.1666666666666,66.93232323232324,635.5833333333334,66.76637806637807,638,66.6004329004329C640.4166666666666,66.43448773448775,642.8333333333334,66.26854256854257,645.25,66.10259740259741C647.6666666666666,65.93665223665225,650.0833333333334,65.77070707070709,652.5,65.60476190476192C654.9166666666666,65.43881673881674,657.3333333333334,65.27287157287157,659.75,65.10692640692639C662.1666666666666,64.94098124098122,664.5833333333334,64.77503607503607,667,64.60909090909091C669.4166666666666,64.44314574314575,671.8333333333334,64.27720057720057,674.25,64.11125541125541C676.6666666666666,63.945310245310246,679.0833333333334,63.779365079365085,681.5,63.61341991341992C683.9166666666666,63.44747474747475,686.3333333333334,63.28152958152959,688.75,63.11558441558442C691.1666666666666,62.949639249639255,693.5833333333334,62.78369408369409,696,62.61774891774892C698.4166666666666,62.45180375180375,700.8333333333334,62.28585858585858,703.25,62.11991341991341C705.6666666666666,61.95396825396824,708.0833333333334,61.78802308802308,710.5,61.622077922077914C712.9166666666666,61.456132756132746,715.3333333333334,61.290187590187585,717.75,61.124242424242425C720.1666666666666,60.958297258297264,722.5833333333334,60.7923520923521,725,60.62640692640693C727.4166666666666,60.46046176046176,729.8333333333334,60.2945165945166,732.25,60.12857142857143C734.6666666666666,59.962626262626266,737.0833333333334,59.7966810966811,739.5,59.63073593073593C741.9166666666666,59.46479076479076,744.3333333333334,59.29884559884559,746.75,59.13290043290042C749.1666666666666,58.96695526695525,751.5833333333334,58.80101010101009,754,58.635064935064925C756.4166666666666,58.46911976911976,758.8333333333334,58.3031746031746,761.25,58.137229437229436C763.6666666666666,57.971284271284276,766.0833333333334,57.80533910533911,768.5,57.63939393939394C770.9166666666666,57.47344877344877,773.3333333333334,57.3075036075036,775.75,57.14155844155843C778.1666666666666,56.97561327561326,780.5833333333334,56.80966810966811,783,56.64372294372294C785.4166666666667,56.477777777777774,787.8333333333334,56.3118326118326,790.2500000000001,56.14588744588743C792.6666666666667,55.97994227994227,795.0833333333335,55.81399711399712,797.5000000000001,55.64805194805195C799.9166666666667,55.48210678210678,802.3333333333335,55.316161616161615,804.7500000000001,55.15021645021645C807.1666666666667,54.98427128427128,809.5833333333335,54.81832611832612,812.0000000000001,54.65238095238095C814.4166666666667,54.48643578643579,816.8333333333333,54.32049062049061,819.2499999999999,54.15454545454545C821.6666666666665,53.98860028860028,824.0833333333333,53.822655122655135,826.4999999999999,53.65670995670997C828.9166666666665,53.4907647907648,831.3333333333333,53.324819624819625,833.7499999999999,53.15887445887446C836.1666666666665,52.99292929292929,838.5833333333333,52.82698412698413,840.9999999999999,52.66103896103896C843.4166666666666,52.495093795093794,845.8333333333333,52.32914862914863,848.25,52.16320346320346C850.6666666666666,51.99725829725829,853.0833333333334,51.83131313131313,855.5,51.66536796536796C857.9166666666666,51.499422799422796,860.3333333333334,51.33347763347763,862.75,51.16753246753247C865.1666666666666,51.00158730158731,867.5833333333334,50.835642135642146,870,50.66969696969698C872.4166666666666,50.50375180375181,874.8333333333334,50.337806637806636,877.25,50.17186147186147C879.6666666666666,50.0059163059163,882.0833333333334,49.83997113997114,884.5,49.67402597402597C886.9166666666666,49.508080808080805,889.3333333333334,49.34213564213563,891.75,49.17619047619047C894.1666666666666,49.01024531024531,896.5833333333334,48.84430014430015,899,48.67835497835499C901.4166666666666,48.51240981240983,903.8333333333334,48.34646464646465,906.25,48.180519480519486C908.6666666666666,48.01457431457432,911.0833333333334,47.84862914862914,913.5,47.682683982683976C915.9166666666666,47.51673881673881,918.3333333333334,47.35079365079365,920.75,47.18484848484848C923.1666666666666,47.01890331890331,925.5833333333334,46.85295815295815,928,46.68701298701299C930.4166666666666,46.52106782106783,932.8333333333334,46.35512265512266,935.25,46.189177489177496C937.6666666666666,46.02323232323233,940.0833333333334,45.85728715728715,942.5,45.691341991341986C944.9166666666666,45.52539682539682,947.3333333333334,45.359451659451665,949.75,45.1935064935065C952.1666666666666,45.02756132756133,954.5833333333334,44.861616161616155,957,44.69567099567099C959.4166666666666,44.52972582972582,961.8333333333334,44.363780663780666,964.25,44.197835497835506C966.6666666666667,44.03189033189034,969.0833333333334,43.86594516594517,971.5000000000001,43.7C973.9166666666667,43.534054834054835,976.3333333333335,43.368109668109675,978.7500000000001,43.20216450216451C981.1666666666667,43.03621933621934,983.5833333333335,42.870274170274165,986.0000000000001,42.704329004329C988.4166666666667,42.53838383838383,990.8333333333335,42.372438672438676,993.2500000000001,42.20649350649351C995.6666666666667,42.04054834054835,998.0833333333333,41.87460317460317,1000.4999999999999,41.70865800865801C1002.9166666666665,41.542712842712845,1005.3333333333333,41.376767676767685,1007.7499999999999,41.21082251082252C1010.1666666666665,41.04487734487735,1012.5833333333333,40.87893217893218,1014.9999999999999,40.712987012987014C1017.4166666666665,40.54704184704185,1019.8333333333333,40.381096681096686,1022.2499999999999,40.21515151515152C1024.6666666666665,40.04920634920635,1027.0833333333333,39.88326118326118,1029.5,39.717316017316016C1031.9166666666667,39.551370851370855,1034.3333333333333,39.3854256854257,1036.75,39.219480519480534C1039.1666666666667,39.053535353535366,1041.5833333333333,38.88759018759019,1044,38.721645021645024C1046.4166666666667,38.55569985569986,1048.8333333333333,38.389754689754696,1051.25,38.22380952380953C1053.6666666666667,38.05786435786436,1056.0833333333333,37.89191919191919,1058.5,37.725974025974025C1060.9166666666667,37.56002886002886,1063.3333333333333,37.3940836940837,1065.75,37.22813852813853C1068.1666666666667,37.06219336219336,1070.5833333333333,36.8962481962482,1073,36.730303030303034C1075.4166666666667,36.564357864357866,1077.8333333333333,36.3984126984127,1080.25,36.23246753246753C1082.6666666666667,36.06652236652236,1085.0833333333333,35.9005772005772,1087.5,35.734632034632035C1089.9166666666667,35.56868686868687,1092.3333333333333,35.40274170274171,1094.75,35.23679653679654C1097.1666666666667,35.07085137085137,1099.5833333333333,34.90490620490622,1102,34.73896103896105C1104.4166666666667,34.57301587301588,1106.8333333333333,34.40707070707071,1109.25,34.24112554112554C1111.6666666666667,34.07518037518037,1114.0833333333333,33.90923520923522,1116.5,33.74329004329005C1118.9166666666667,33.577344877344885,1121.3333333333333,33.411399711399696,1123.75,33.24545454545453C1126.1666666666667,33.07950937950936,1128.5833333333333,32.91356421356421,1131,32.74761904761905C1133.4166666666667,32.581673881673886,1135.8333333333333,32.41572871572872,1138.25,32.24978354978356C1140.6666666666667,32.0838383838384,1143.0833333333333,31.91789321789323,1145.5,31.751948051948062C1147.9166666666667,31.586002886002895,1150.3333333333333,31.42005772005771,1152.75,31.25411255411254C1155.1666666666667,31.088167388167374,1157.5833333333333,30.92222222222221,1160,30.75627705627705C1162.4166666666667,30.59033189033189,1164.8333333333333,30.424386724386732,1167.25,30.258441558441568C1169.6666666666667,30.092496392496404,1172.0833333333333,29.92655122655124,1174.5,29.760606060606072C1176.9166666666667,29.594660894660905,1179.3333333333333,29.428715728715723,1181.75,29.262770562770555C1184.1666666666667,29.096825396825388,1186.5833333333333,28.930880230880227,1189,28.76493506493506C1191.4166666666667,28.598989898989892,1193.8333333333333,28.433044733044717,1196.25,28.267099567099553C1198.6666666666667,28.10115440115439,1201.0833333333333,27.93520923520925,1203.5,27.769264069264086C1205.9166666666667,27.60331890331892,1208.3333333333333,27.437373737373733,1210.75,27.271428571428565C1213.1666666666667,27.105483405483398,1215.5833333333333,26.93953823953824,1218,26.773593073593073C1220.4166666666667,26.607647907647905,1222.8333333333333,26.441702741702734,1225.25,26.275757575757567C1227.6666666666667,26.1098124098124,1230.0833333333333,25.943867243867235,1232.5,25.77792207792207C1234.9166666666667,25.611976911976907,1237.3333333333333,25.446031746031743,1239.75,25.28008658008658C1242.1666666666667,25.114141414141415,1244.5833333333333,24.948196248196254,1247,24.782251082251086C1249.4166666666667,24.61630591630592,1251.8333333333333,24.450360750360748,1254.25,24.28441558441558C1256.6666666666667,24.118470418470412,1259.0833333333333,23.952525252525252,1261.5,23.786580086580084C1263.9166666666667,23.620634920634917,1266.3333333333333,23.454689754689742,1268.75,23.288744588744578C1271.1666666666667,23.122799422799414,1273.5833333333333,22.95685425685426,1276,22.790909090909096C1278.4166666666667,22.624963924963932,1280.8333333333333,22.459018759018758,1283.25,22.29307359307359C1285.6666666666667,22.127128427128422,1288.0833333333333,21.961183261183265,1290.5,21.795238095238098C1292.9166666666667,21.62929292929293,1295.3333333333333,21.46334776334776,1297.75,21.29740259740259C1300.1666666666667,21.131457431457424,1302.5833333333333,20.96551226551226,1305,20.799567099567096C1307.4166666666667,20.63362193362193,1309.8333333333333,20.46767676767677,1312.25,20.301731601731603C1314.6666666666667,20.135786435786436,1317.0833333333333,19.969841269841265,1319.5,19.803896103896097C1321.9166666666667,19.63795093795093,1324.3333333333333,19.472005772005765,1326.75,19.3060606060606C1329.1666666666667,19.140115440115437,1331.5833333333333,18.974170274170273,1334,18.80822510822511C1336.4166666666667,18.642279942279945,1338.8333333333333,18.476334776334784,1341.25,18.310389610389617C1343.6666666666667,18.14444444444445,1346.0833333333333,17.978499278499278,1348.5,17.81255411255411C1350.9166666666667,17.646608946608943,1353.3333333333333,17.480663780663782,1355.75,17.314718614718615C1358.1666666666667,17.148773448773447,1360.5833333333333,16.982828282828276,1363,16.81688311688311C1365.4166666666667,16.65093795093794,1367.8333333333333,16.48499278499278,1370.25,16.319047619047616C1372.6666666666667,16.153102453102452,1375.0833333333333,15.987157287157284,1377.5,15.82121212121212C1379.9166666666667,15.655266955266956,1382.3333333333333,15.489321789321792,1384.75,15.323376623376626C1387.1666666666667,15.15743145743146,1389.5833333333333,14.991486291486286,1392,14.82554112554112C1394.4166666666667,14.659595959595954,1396.8333333333333,14.49365079365079,1399.25,14.327705627705626C1401.6666666666667,14.161760461760462,1404.0833333333333,13.995815295815298,1406.5,13.829870129870134C1408.9166666666667,13.66392496392497,1411.3333333333333,13.497979797979806,1413.75,13.33203463203464C1416.1666666666667,13.166089466089474,1418.5833333333333,13.0001443001443,1421,12.834199134199133C1423.4166666666667,12.668253968253968,1425.8333333333333,12.502308802308805,1428.25,12.33636363636364C1430.6666666666667,12.170418470418474,1433.0833333333333,12.004473304473297,1435.5,11.838528138528133C1437.9166666666667,11.672582972582969,1440.3333333333333,11.506637806637816,1442.75,11.340692640692652C1445.1666666666667,11.174747474747488,1447.5833333333333,11.008802308802316,1450,10.842857142857145" fill="transparent" stroke-linecap="round" stroke="#B6509E" stroke-width="2"></path><path class="visx-linepath" d="M0,114.67142856912857C2.4166666666666665,114.28809523675356,4.833333333333334,113.90476190437857,7.25,113.52142857142857C9.666666666666666,113.13809523847857,12.083333333333334,112.64606782106782,14.5,112.37142857142857C16.916666666666668,112.09678932178932,19.333333333333332,112.03953823953823,21.75,111.87359307359307C24.166666666666668,111.70764790764791,26.583333333333332,111.54170274170274,29,111.37575757575758C31.416666666666668,111.20981240981241,33.833333333333336,111.04386724386724,36.25,110.87792207792208C38.666666666666664,110.71197691197692,41.083333333333336,110.54603174603174,43.5,110.38008658008658C45.91666666666667,110.21414141414142,48.333333333333336,110.04819624819625,50.75000000000001,109.88225108225109C53.16666666666667,109.71630591630593,55.583333333333336,109.55036075036075,58,109.38441558441559C60.416666666666664,109.21847041847042,62.833333333333336,109.05252525252524,65.25,108.88658008658008C67.66666666666667,108.72063492063492,70.08333333333333,108.55468975468975,72.5,108.38874458874459C74.91666666666667,108.22279942279943,77.33333333333333,108.05685425685425,79.75,107.89090909090909C82.16666666666667,107.72496392496393,84.58333333333333,107.55901875901876,87,107.3930735930736C89.41666666666667,107.22712842712843,91.83333333333333,107.06118326118326,94.25,106.8952380952381C96.66666666666667,106.72929292929294,99.08333333333334,106.56334776334778,101.50000000000001,106.3974025974026C103.91666666666667,106.23145743145744,106.33333333333334,106.06551226551225,108.75,105.8995670995671C111.16666666666667,105.73362193362192,113.58333333333333,105.56767676767676,116,105.4017316017316C118.41666666666667,105.23578643578644,120.83333333333334,105.06984126984126,123.25000000000001,104.9038961038961C125.66666666666667,104.73795093795094,128.08333333333334,104.57200577200577,130.5,104.4060606060606C132.91666666666666,104.24011544011545,135.33333333333334,104.07417027417027,137.75,103.90822510822511C140.16666666666666,103.74227994227995,142.58333333333334,103.57633477633479,145,103.41038961038961C147.41666666666666,103.24444444444444,149.83333333333334,103.07849927849927,152.25,102.9125541125541C154.66666666666666,102.74660894660894,157.08333333333334,102.58066378066377,159.5,102.41471861471861C161.91666666666666,102.24877344877345,164.33333333333334,102.08282828282827,166.75,101.91688311688311C169.16666666666666,101.75093795093795,171.58333333333334,101.58499278499278,174,101.41904761904762C176.41666666666666,101.25310245310246,178.83333333333334,101.08715728715728,181.25,100.92121212121212C183.66666666666666,100.75526695526696,186.08333333333334,100.58932178932179,188.5,100.42337662337663C190.91666666666666,100.25743145743147,193.33333333333334,100.09148629148628,195.75,99.92554112554112C198.16666666666669,99.75959595959594,200.58333333333334,99.59365079365078,203.00000000000003,99.42770562770562C205.41666666666669,99.26176046176046,207.83333333333331,99.0958152958153,210.24999999999997,98.92987012987014C212.66666666666666,98.76392496392498,215.08333333333331,98.59797979797982,217.5,98.43203463203464C219.91666666666666,98.26608946608948,222.33333333333334,98.10014430014431,224.75,97.93419913419913C227.16666666666666,97.76825396825396,229.58333333333334,97.60230880230881,232,97.43636363636364C234.41666666666666,97.27041847041846,236.83333333333334,97.10447330447329,239.25,96.93852813852813C241.66666666666669,96.77258297258295,244.08333333333334,96.60663780663779,246.50000000000003,96.44069264069263C248.91666666666669,96.27474747474747,251.33333333333331,96.10880230880231,253.74999999999997,95.94285714285715C256.16666666666663,95.77691197691199,258.5833333333333,95.61096681096683,261,95.44502164502165C263.4166666666667,95.2790764790765,265.8333333333333,95.1131313131313,268.25,94.94718614718614C270.6666666666667,94.78124098124098,273.0833333333333,94.61529581529581,275.5,94.44935064935065C277.9166666666667,94.28340548340549,280.3333333333333,94.11746031746031,282.75,93.95151515151514C285.1666666666667,93.78556998556996,287.5833333333333,93.6196248196248,290,93.45367965367964C292.4166666666667,93.28773448773448,294.8333333333333,93.12178932178932,297.25,92.95584415584416C299.6666666666667,92.789898989899,302.0833333333333,92.62395382395383,304.5,92.45800865800867C306.9166666666667,92.2920634920635,309.3333333333333,92.12611832611833,311.75,91.96017316017317C314.1666666666667,91.79422799422801,316.5833333333333,91.62828282828283,319,91.46233766233766C321.4166666666667,91.29639249639249,323.8333333333333,91.13044733044732,326.25,90.96450216450216C328.6666666666667,90.798556998557,331.0833333333333,90.63261183261183,333.5,90.46666666666667C335.9166666666667,90.30072150072151,338.3333333333333,90.13477633477633,340.75,89.96883116883117C343.1666666666667,89.80288600288601,345.5833333333333,89.63694083694084,348,89.47099567099568C350.4166666666667,89.30505050505052,352.8333333333333,89.13910533910536,355.25,88.97316017316018C357.6666666666667,88.807215007215,360.0833333333333,88.64126984126985,362.5,88.47532467532467C364.9166666666667,88.3093795093795,367.3333333333333,88.14343434343432,369.75,87.97748917748916C372.1666666666667,87.811544011544,374.5833333333333,87.64559884559884,377,87.47965367965368C379.4166666666667,87.31370851370852,381.8333333333333,87.14776334776334,384.25,86.98181818181818C386.6666666666667,86.81587301587302,389.0833333333333,86.64992784992785,391.5,86.48398268398269C393.9166666666667,86.31803751803753,396.33333333333337,86.15209235209237,398.75000000000006,85.98614718614719C401.16666666666674,85.82020202020203,403.58333333333337,85.65425685425686,406.00000000000006,85.48831168831168C408.4166666666667,85.32236652236652,410.8333333333333,85.15642135642135,413.24999999999994,84.99047619047619C415.66666666666663,84.82453102453103,418.08333333333326,84.65858585858585,420.49999999999994,84.49264069264069C422.91666666666663,84.32669552669553,425.3333333333333,84.16075036075036,427.75,83.9948051948052C430.1666666666667,83.82886002886003,432.5833333333333,83.66291486291486,435,83.4969696969697C437.4166666666667,83.33102453102454,439.8333333333333,83.16507936507936,442.25,82.9991341991342C444.6666666666667,82.83318903318904,447.0833333333333,82.66724386724388,449.5,82.50129870129871C451.9166666666667,82.33535353535353,454.3333333333333,82.16940836940836,456.75,82.0034632034632C459.1666666666667,81.83751803751804,461.5833333333333,81.67157287157286,464,81.5056277056277C466.4166666666667,81.33968253968254,468.8333333333333,81.17373737373737,471.25,81.0077922077922C473.6666666666667,80.84184704184705,476.0833333333333,80.67590187590187,478.5,80.50995670995671C480.9166666666667,80.34401154401155,483.33333333333337,80.17806637806638,485.75000000000006,80.01212121212122C488.16666666666674,79.84617604617605,490.58333333333337,79.68023088023088,493.00000000000006,79.51428571428572C495.4166666666667,79.34834054834056,497.8333333333333,79.18239538239538,500.24999999999994,79.01645021645022C502.66666666666663,78.85050505050506,505.08333333333326,78.68455988455989,507.49999999999994,78.51861471861473C509.91666666666663,78.35266955266955,512.3333333333333,78.18672438672439,514.75,78.02077922077922C517.1666666666666,77.85483405483406,519.5833333333334,77.68888888888888,522,77.52294372294372C524.4166666666666,77.35699855699856,526.8333333333334,77.1910533910534,529.25,77.02510822510823C531.6666666666666,76.85916305916305,534.0833333333334,76.69321789321788,536.5,76.52727272727272C538.9166666666666,76.36132756132756,541.3333333333334,76.19538239538238,543.75,76.02943722943722C546.1666666666666,75.86349206349206,548.5833333333334,75.69754689754689,551,75.53160173160173C553.4166666666666,75.36565656565656,555.8333333333334,75.19971139971139,558.25,75.03376623376623C560.6666666666666,74.86782106782107,563.0833333333334,74.7018759018759,565.5,74.53593073593073C567.9166666666666,74.36998556998557,570.3333333333334,74.2040404040404,572.75,74.03809523809524C575.1666666666666,73.87215007215008,577.5833333333334,73.70620490620489,580,73.54025974025973C582.4166666666666,73.37431457431457,584.8333333333334,73.2083694083694,587.25,73.04242424242425C589.6666666666666,72.87647907647909,592.0833333333334,72.71053391053391,594.5,72.54458874458874C596.9166666666666,72.37864357864356,599.3333333333334,72.2126984126984,601.75,72.04675324675324C604.1666666666666,71.88080808080808,606.5833333333334,71.7148629148629,609,71.54891774891775C611.4166666666666,71.38297258297258,613.8333333333334,71.21702741702741,616.25,71.05108225108225C618.6666666666666,70.88513708513709,621.0833333333334,70.71919191919191,623.5,70.55324675324675C625.9166666666666,70.3873015873016,628.3333333333334,70.22135642135642,630.75,70.05541125541126C633.1666666666666,69.8894660894661,635.5833333333334,69.72352092352094,638,69.55757575757576C640.4166666666666,69.39163059163059,642.8333333333334,69.22568542568541,645.25,69.05974025974025C647.6666666666666,68.89379509379509,650.0833333333334,68.72784992784992,652.5,68.56190476190476C654.9166666666666,68.3959595959596,657.3333333333334,68.23001443001442,659.75,68.06406926406926C662.1666666666666,67.8981240981241,664.5833333333334,67.73217893217893,667,67.56623376623376C669.4166666666666,67.4002886002886,671.8333333333334,67.23434343434344,674.25,67.06839826839828C676.6666666666666,66.90245310245312,679.0833333333334,66.73650793650793,681.5,66.57056277056277C683.9166666666666,66.40461760461761,686.3333333333334,66.23867243867244,688.75,66.07272727272728C691.1666666666666,65.90678210678212,693.5833333333334,65.74083694083694,696,65.57489177489177C698.4166666666666,65.4089466089466,700.8333333333334,65.24300144300143,703.25,65.07705627705627C705.6666666666666,64.91111111111111,708.0833333333334,64.74516594516594,710.5,64.57922077922078C712.9166666666666,64.41327561327562,715.3333333333334,64.24733044733046,717.75,64.0813852813853C720.1666666666666,63.915440115440134,722.5833333333334,63.74949494949497,725,63.5835497835498C727.4166666666666,63.41760461760463,729.8333333333334,63.25165945165946,732.25,63.08571428571429C734.6666666666666,62.91976911976912,737.0833333333334,62.75382395382396,739.5,62.58787878787879C741.9166666666666,62.421933621933626,744.3333333333334,62.25598845598846,746.75,62.09004329004329C749.1666666666666,61.92409812409812,751.5833333333334,61.75815295815296,754,61.592207792207795C756.4166666666666,61.42626262626263,758.8333333333334,61.26031746031747,761.25,61.0943722943723C763.6666666666666,60.92842712842713,766.0833333333334,60.762481962481964,768.5,60.596536796536796C770.9166666666666,60.43059163059163,773.3333333333334,60.264646464646454,775.75,60.098701298701286C778.1666666666666,59.93275613275612,780.5833333333334,59.76681096681096,783,59.6008658008658C785.4166666666667,59.43492063492063,787.8333333333334,59.26897546897547,790.2500000000001,59.1030303030303C792.6666666666667,58.93708513708514,795.0833333333335,58.771139971139974,797.5000000000001,58.605194805194806C799.9166666666667,58.43924963924964,802.3333333333335,58.273304473304464,804.7500000000001,58.1073593073593C807.1666666666667,57.94141414141414,809.5833333333335,57.77546897546899,812.0000000000001,57.60952380952382C814.4166666666667,57.44357864357866,816.8333333333333,57.27763347763348,819.2499999999999,57.11168831168831C821.6666666666665,56.945743145743144,824.0833333333333,56.77979797979798,826.4999999999999,56.613852813852816C828.9166666666665,56.44790764790765,831.3333333333333,56.28196248196248,833.7499999999999,56.11601731601731C836.1666666666665,55.950072150072145,838.5833333333333,55.784126984126964,840.9999999999999,55.6181818181818C843.4166666666666,55.452236652236635,845.8333333333333,55.286291486291496,848.25,55.12034632034633C850.6666666666666,54.95440115440117,853.0833333333334,54.788455988455986,855.5,54.62251082251082C857.9166666666666,54.45656565656565,860.3333333333334,54.29062049062049,862.75,54.12467532467532C865.1666666666666,53.958730158730155,867.5833333333334,53.79278499278499,870,53.62683982683982C872.4166666666666,53.46089466089465,874.8333333333334,53.29494949494949,877.25,53.129004329004324C879.6666666666666,52.96305916305916,882.0833333333334,52.797113997113996,884.5,52.63116883116883C886.9166666666666,52.46522366522366,889.3333333333334,52.29927849927851,891.75,52.13333333333334C894.1666666666666,51.96738816738817,896.5833333333334,51.801443001443,899,51.63549783549783C901.4166666666666,51.46955266955266,903.8333333333334,51.303607503607495,906.25,51.137662337662334C908.6666666666666,50.971717171717174,911.0833333333334,50.80577200577201,913.5,50.639826839826846C915.9166666666666,50.47388167388168,918.3333333333334,50.30793650793652,920.75,50.14199134199135C923.1666666666666,49.97604617604618,925.5833333333334,49.81010101010101,928,49.64415584415584C930.4166666666666,49.47821067821067,932.8333333333334,49.31226551226552,935.25,49.14632034632035C937.6666666666666,48.980375180375184,940.0833333333334,48.81443001443001,942.5,48.64848484848484C944.9166666666666,48.482539682539674,947.3333333333334,48.316594516594506,949.75,48.150649350649346C952.1666666666666,47.984704184704185,954.5833333333334,47.818759018759025,957,47.65281385281386C959.4166666666666,47.48686868686869,961.8333333333334,47.320923520923515,964.25,47.15497835497835C966.6666666666667,46.98903318903318,969.0833333333334,46.823088023088026,971.5000000000001,46.65714285714286C973.9166666666667,46.49119769119769,976.3333333333335,46.325252525252516,978.7500000000001,46.15930735930735C981.1666666666667,45.99336219336218,983.5833333333335,45.82741702741703,986.0000000000001,45.66147186147187C988.4166666666667,45.495526695526706,990.8333333333335,45.32958152958153,993.2500000000001,45.163636363636364C995.6666666666667,44.9976911976912,998.0833333333333,44.831746031746036,1000.4999999999999,44.66580086580087C1002.9166666666665,44.4998556998557,1005.3333333333333,44.333910533910526,1007.7499999999999,44.16796536796536C1010.1666666666665,44.00202020202019,1012.5833333333333,43.83607503607503,1014.9999999999999,43.67012987012987C1017.4166666666665,43.50418470418471,1019.8333333333333,43.338239538239534,1022.2499999999999,43.172294372294374C1024.6666666666665,43.006349206349206,1027.0833333333333,42.840404040404046,1029.5,42.67445887445888C1031.9166666666667,42.50851370851371,1034.3333333333333,42.34256854256854,1036.75,42.176623376623375C1039.1666666666667,42.01067821067821,1041.5833333333333,41.84473304473305,1044,41.67878787878788C1046.4166666666667,41.51284271284271,1048.8333333333333,41.34689754689755,1051.25,41.180952380952384C1053.6666666666667,41.015007215007216,1056.0833333333333,40.849062049062056,1058.5,40.68311688311689C1060.9166666666667,40.51717171717172,1063.3333333333333,40.35122655122655,1065.75,40.185281385281385C1068.1666666666667,40.01933621933622,1070.5833333333333,39.85339105339106,1073,39.68744588744589C1075.4166666666667,39.52150072150072,1077.8333333333333,39.355555555555554,1080.25,39.18961038961039C1082.6666666666667,39.02366522366522,1085.0833333333333,38.85772005772006,1087.5,38.69177489177489C1089.9166666666667,38.52582972582972,1092.3333333333333,38.35988455988456,1094.75,38.193939393939395C1097.1666666666667,38.02799422799423,1099.5833333333333,37.862049062049074,1102,37.69610389610391C1104.4166666666667,37.53015873015874,1106.8333333333333,37.364213564213564,1109.25,37.1982683982684C1111.6666666666667,37.03232323232323,1114.0833333333333,36.86637806637806,1116.5,36.7004329004329C1118.9166666666667,36.53448773448774,1121.3333333333333,36.36854256854258,1123.75,36.20259740259741C1126.1666666666667,36.036652236652245,1128.5833333333333,35.87070707070707,1131,35.7047619047619C1133.4166666666667,35.538816738816735,1135.8333333333333,35.372871572871574,1138.25,35.20692640692641C1140.6666666666667,35.04098124098124,1143.0833333333333,34.875036075036064,1145.5,34.709090909090904C1147.9166666666667,34.54314574314574,1150.3333333333333,34.37720057720059,1152.75,34.21125541125542C1155.1666666666667,34.045310245310255,1157.5833333333333,33.87936507936508,1160,33.71341991341991C1162.4166666666667,33.547474747474745,1164.8333333333333,33.38152958152959,1167.25,33.21558441558442C1169.6666666666667,33.049639249639256,1172.0833333333333,32.88369408369408,1174.5,32.717748917748914C1176.9166666666667,32.551803751803746,1179.3333333333333,32.385858585858585,1181.75,32.21991341991342C1184.1666666666667,32.05396825396825,1186.5833333333333,31.888023088023093,1189,31.72207792207793C1191.4166666666667,31.556132756132765,1193.8333333333333,31.3901875901876,1196.25,31.224242424242433C1198.6666666666667,31.058297258297266,1201.0833333333333,30.892352092352095,1203.5,30.726406926406927C1205.9166666666667,30.56046176046176,1208.3333333333333,30.394516594516602,1210.75,30.228571428571435C1213.1666666666667,30.062626262626267,1215.5833333333333,29.89668109668108,1218,29.730735930735914C1220.4166666666667,29.56479076479075,1222.8333333333333,29.39884559884561,1225.25,29.232900432900447C1227.6666666666667,29.066955266955283,1230.0833333333333,28.901010101010108,1232.5,28.73506493506494C1234.9166666666667,28.569119769119773,1237.3333333333333,28.403174603174612,1239.75,28.237229437229445C1242.1666666666667,28.071284271284277,1244.5833333333333,27.905339105339095,1247,27.739393939393928C1249.4166666666667,27.57344877344876,1251.8333333333333,27.407503607503596,1254.25,27.241558441558432C1256.6666666666667,27.075613275613268,1259.0833333333333,26.90966810966811,1261.5,26.74372294372295C1263.9166666666667,26.57777777777779,1266.3333333333333,26.411832611832626,1268.75,26.24588744588746C1271.1666666666667,26.07994227994229,1273.5833333333333,25.913997113997105,1276,25.748051948051938C1278.4166666666667,25.58210678210677,1280.8333333333333,25.41616161616161,1283.25,25.250216450216445C1285.6666666666667,25.08427128427128,1288.0833333333333,24.918326118326114,1290.5,24.75238095238095C1292.9166666666667,24.586435786435786,1295.3333333333333,24.42049062049064,1297.75,24.25454545454547C1300.1666666666667,24.088600288600304,1302.5833333333333,23.92265512265512,1305,23.75670995670995C1307.4166666666667,23.590764790764783,1309.8333333333333,23.424819624819627,1312.25,23.25887445887446C1314.6666666666667,23.09292929292929,1317.0833333333333,22.926984126984117,1319.5,22.76103896103895C1321.9166666666667,22.59509379509378,1324.3333333333333,22.42914862914862,1326.75,22.263203463203457C1329.1666666666667,22.097258297258293,1331.5833333333333,21.93131313131313,1334,21.765367965367965C1336.4166666666667,21.5994227994228,1338.8333333333333,21.433477633477636,1341.25,21.26753246753247C1343.6666666666667,21.1015873015873,1346.0833333333333,20.93564213564213,1348.5,20.769696969696962C1350.9166666666667,20.603751803751795,1353.3333333333333,20.437806637806634,1355.75,20.27186147186147C1358.1666666666667,20.105916305916306,1360.5833333333333,19.939971139971142,1363,19.774025974025975C1365.4166666666667,19.608080808080807,1367.8333333333333,19.442135642135636,1370.25,19.276190476190468C1372.6666666666667,19.1102453102453,1375.0833333333333,18.944300144300144,1377.5,18.778354978354976C1379.9166666666667,18.61240981240981,1382.3333333333333,18.446464646464634,1384.75,18.28051948051947C1387.1666666666667,18.114574314574305,1389.5833333333333,17.948629148629152,1392,17.782683982683988C1394.4166666666667,17.616738816738824,1396.8333333333333,17.45079365079365,1399.25,17.28484848484848C1401.6666666666667,17.118903318903314,1404.0833333333333,16.952958152958153,1406.5,16.787012987012986C1408.9166666666667,16.621067821067818,1411.3333333333333,16.455122655122647,1413.75,16.28917748917748C1416.1666666666667,16.123232323232312,1418.5833333333333,15.957287157287151,1421,15.791341991341987C1423.4166666666667,15.625396825396823,1425.8333333333333,15.459451659451657,1428.25,15.293506493506493C1430.6666666666667,15.12756132756133,1433.0833333333333,14.961616161616165,1435.5,14.795670995671C1437.9166666666667,14.629725829725833,1440.3333333333333,14.463780663780659,1442.75,14.297835497835493C1445.1666666666667,14.131890331890327,1447.5833333333333,13.965945165945163,1450,13.799999999999999" fill="transparent" stroke-linecap="round" stroke="#E7C6DF" stroke-width="2"></path><g class="visx-group visx-axis visx-axis-bottom" transform="translate(0, 115)"><g class="visx-group visx-axis-tick" transform="translate(0, 0)"><line class="visx-line" x1="0" y1="0" x2="0" y2="8" fill="transparent" shape-rendering="crispEdges" stroke="#000" stroke-width="0" stroke-linecap="square"></line><svg x="0" y="0" font-size="10" style="overflow:visible"><text transform="" x="0" y="18" fill="#000" font-size="10" text-anchor="middle"><tspan x="0" dy="0em">0%</tspan></text></svg></g><g class="visx-group visx-axis-tick" transform="translate(0, 0)"><line class="visx-line" x1="362.5" y1="0" x2="362.5" y2="8" fill="transparent" shape-rendering="crispEdges" stroke="#000" stroke-width="0" stroke-linecap="square"></line><svg x="0" y="0" font-size="10" style="overflow:visible"><text transform="" x="362.5" y="18" fill="#000" font-size="10" text-anchor="middle"><tspan x="362.5" dy="0em">25%</tspan></text></svg></g><g class="visx-group visx-axis-tick" transform="translate(0, 0)"><line class="visx-line" x1="725" y1="0" x2="725" y2="8" fill="transparent" shape-rendering="crispEdges" stroke="#000" stroke-width="0" stroke-linecap="square"></line><svg x="0" y="0" font-size="10" style="overflow:visible"><text transform="" x="725" y="18" fill="#000" font-size="10" text-anchor="middle"><tspan x="725" dy="0em">50%</tspan></text></svg></g><g class="visx-group visx-axis-tick" transform="translate(0, 0)"><line class="visx-line" x1="1087.5" y1="0" x2="1087.5" y2="8" fill="transparent" shape-rendering="crispEdges" stroke="#000" stroke-width="0" stroke-linecap="square"></line><svg x="0" y="0" font-size="10" style="overflow:visible"><text transform="" x="1087.5" y="18" fill="#000" font-size="10" text-anchor="middle"><tspan x="1087.5" dy="0em">75%</tspan></text></svg></g><g class="visx-group visx-axis-tick" transform="translate(0, 0)"><line class="visx-line" x1="1450" y1="0" x2="1450" y2="8" fill="transparent" shape-rendering="crispEdges" stroke="#000" stroke-width="0" stroke-linecap="square"></line><svg x="0" y="0" font-size="10" style="overflow:visible"><text transform="" x="1450" y="18" fill="#000" font-size="10" text-anchor="middle"><tspan x="1450" dy="0em">100%</tspan></text></svg></g><line class="visx-line visx-axis-line" x1="0.5" y1="0" x2="1450.5" y2="0" fill="transparent" shape-rendering="crispEdges" stroke="#222" stroke-width="0"></line></g><g class="visx-group visx-axis visx-axis-left" transform="translate(0, 0)"><g class="visx-group visx-axis-tick" transform="translate(0, 0)"><line class="visx-line" x1="0" y1="115" x2="-8" y2="115" fill="transparent" shape-rendering="crispEdges" stroke="#222" stroke-width="0" stroke-linecap="square"></line><svg x="-30" y="0" font-size="8" style="overflow:visible"><text transform="" x="-8" y="115" fill="#000" font-size="8" text-anchor="start"><tspan x="-8" dy="0em">0%</tspan></text></svg></g><g class="visx-group visx-axis-tick" transform="translate(0, 0)"><line class="visx-line" x1="0" y1="49.28571428571429" x2="-8" y2="49.28571428571429" fill="transparent" shape-rendering="crispEdges" stroke="#222" stroke-width="0" stroke-linecap="square"></line><svg x="-30" y="0" font-size="8" style="overflow:visible"><text transform="" x="-8" y="49.28571428571429" fill="#000" font-size="8" text-anchor="start"><tspan x="-8" dy="0em">2000%</tspan></text></svg></g><line class="visx-line visx-axis-line" x1="0" y1="115.5" x2="0" y2="0.5" fill="transparent" shape-rendering="crispEdges" stroke="#222" stroke-width="0"></line></g><rect class="visx-bar" width="1450" height="115" fill="transparent"></rect><line class="visx-line" x1="14.5" y1="28" x2="14.5" y2="115" fill="transparent" shape-rendering="crispEdges" stroke="#0062D2" stroke-width="1" pointer-events="none" stroke-dasharray="5,2"></line><svg x="0" y="0" font-size="10px" style="overflow:visible"><text transform="" x="14.5" y="20" font-size="10px" fill="#fff" stroke="#fff" stroke-width="0.8em" text-anchor="middle"><tspan x="14.5" dy="0.355em">Optimal 1%</tspan></text></svg><svg x="0" y="0" font-size="10px" style="overflow:visible"><text transform="" x="14.5" y="20" font-size="10px" fill="#62677B" text-anchor="middle"><tspan x="14.5" dy="0.355em">Optimal 1%</tspan></text></svg></g></svg>