<?xml version="1.0"?><svg xmlns="http://www.w3.org/2000/svg" xmlns:xlink= "http://www.w3.org/1999/xlink" style="background: white;" width="1500" height="185"> <g style="color: black; font-size: 13px; font-family: sans-serif; transform: translate(18px, 25px);"><g><circle r="3" cx="-6" cy="-5" style="fill: #B6509E" /><text>Borrow APR, variable</text></g><g style="transform: translateX(150px);"><circle r="3" cx="-6" cy="-5" style="fill: rgb(231, 198, 223)" /><text>Borrow APR, stable</text></g><g style="transform: translateX(290px);"><circle r="3" cx="-6" cy="-5" style="fill: rgb(0, 98, 210)" /><text>Utilization Rate</text></g></g><g class="visx-group" transform="translate(40, 50)"><g class="visx-group visx-rows" transform="translate(0, 0)"><line class="visx-line" x1="0" y1="115" x2="1450" y2="115" fill="transparent" shape-rendering="crispEdges" stroke="#000" stroke-width="1" stroke-dasharray="3,3" pointer-events="none"></line><line class="visx-line" x1="0" y1="83.05555555555556" x2="1450" y2="83.05555555555556" fill="transparent" shape-rendering="crispEdges" stroke="#000" stroke-width="1" stroke-dasharray="3,3" pointer-events="none"></line><line class="visx-line" x1="0" y1="51.11111111111111" x2="1450" y2="51.11111111111111" fill="transparent" shape-rendering="crispEdges" stroke="#000" stroke-width="1" stroke-dasharray="3,3" pointer-events="none"></line><line class="visx-line" x1="0" y1="19.16666666666666" x2="1450" y2="19.16666666666666" fill="transparent" shape-rendering="crispEdges" stroke="#000" stroke-width="1" stroke-dasharray="3,3" pointer-events="none"></line></g><path class="visx-linepath" d="M0,114.99999999996682C2.4166666666666665,114.99446849444914,4.833333333333334,114.98893698893147,7.25,114.98340548340549C9.666666666666666,114.97787397787951,12.083333333333334,114.97234247234248,14.5,114.96681096681097C16.916666666666668,114.96127946127946,19.333333333333332,114.95574795574795,21.75,114.95021645021644C24.166666666666668,114.94468494468494,26.583333333333332,114.93915343915344,29,114.93362193362194C31.416666666666668,114.92809042809043,33.833333333333336,114.92255892255893,36.25,114.91702741702743C38.666666666666664,114.91149591149592,41.083333333333336,114.9059644059644,43.5,114.90043290043289C45.91666666666667,114.89490139490138,48.333333333333336,114.88936988936989,50.75000000000001,114.88383838383838C53.16666666666667,114.87830687830687,55.583333333333336,114.87277537277538,58,114.86724386724387C60.416666666666664,114.86171236171236,62.833333333333336,114.85618085618087,65.25,114.85064935064936C67.66666666666667,114.84511784511785,70.08333333333333,114.83958633958633,72.5,114.83405483405483C74.91666666666667,114.82852332852332,77.33333333333333,114.82299182299182,79.75,114.81746031746032C82.16666666666667,114.81192881192881,84.58333333333333,114.80639730639732,87,114.80086580086581C89.41666666666667,114.7953342953343,91.83333333333333,114.78980278980279,94.25,114.78427128427128C96.66666666666667,114.77873977873978,99.08333333333334,114.77320827320827,101.50000000000001,114.76767676767676C103.91666666666667,114.76214526214525,106.33333333333334,114.75661375661376,108.75,114.75108225108225C111.16666666666667,114.74555074555074,113.58333333333333,114.74001924001925,116,114.73448773448774C118.41666666666667,114.72895622895624,120.83333333333334,114.72342472342473,123.25000000000001,114.71789321789322C125.66666666666667,114.71236171236171,128.08333333333334,114.7068302068302,130.5,114.7012987012987C132.91666666666666,114.69576719576719,135.33333333333334,114.6902356902357,137.75,114.68470418470419C140.16666666666666,114.67917267917268,142.58333333333334,114.67364117364117,145,114.66810966810966C147.41666666666666,114.66257816257816,149.83333333333334,114.65704665704666,152.25,114.65151515151516C154.66666666666666,114.64598364598365,157.08333333333334,114.64045214045214,159.5,114.63492063492063C161.91666666666666,114.62938912938912,164.33333333333334,114.62385762385763,166.75,114.61832611832612C169.16666666666666,114.61279461279462,171.58333333333334,114.60726310726311,174,114.6017316017316C176.41666666666666,114.59620009620009,178.83333333333334,114.59066859066859,181.25,114.58513708513708C183.66666666666666,114.57960557960557,186.08333333333334,114.57407407407408,188.5,114.56854256854257C190.91666666666666,114.56301106301106,193.33333333333334,114.55747955747957,195.75,114.55194805194806C198.16666666666669,114.54641654641655,200.58333333333334,114.54088504088504,203.00000000000003,114.53535353535354C205.41666666666669,114.52982202982203,207.83333333333331,114.52429052429052,210.24999999999997,114.51875901875901C212.66666666666666,114.5132275132275,215.08333333333331,114.50769600769601,217.5,114.5021645021645C219.91666666666666,114.496632996633,222.33333333333334,114.49110149110149,224.75,114.48556998556998C227.16666666666666,114.48003848003847,229.58333333333334,114.47450697450698,232,114.46897546897547C234.41666666666666,114.46344396344396,236.83333333333334,114.45791245791246,239.25,114.45238095238095C241.66666666666669,114.44684944684944,244.08333333333334,114.44131794131795,246.50000000000003,114.43578643578644C248.91666666666669,114.43025493025493,251.33333333333331,114.42472342472342,253.74999999999997,114.41919191919192C256.16666666666663,114.41366041366041,258.5833333333333,114.40812890812892,261,114.40259740259741C263.4166666666667,114.3970658970659,265.8333333333333,114.39153439153439,268.25,114.38600288600288C270.6666666666667,114.38047138047138,273.0833333333333,114.37493987493987,275.5,114.36940836940836C277.9166666666667,114.36387686387685,280.3333333333333,114.35834535834536,282.75,114.35281385281385C285.1666666666667,114.34728234728234,287.5833333333333,114.34175084175085,290,114.33621933621934C292.4166666666667,114.33068783068784,294.8333333333333,114.32515632515633,297.25,114.31962481962482C299.6666666666667,114.31409331409331,302.0833333333333,114.3085618085618,304.5,114.3030303030303C306.9166666666667,114.29749879749879,309.3333333333333,114.2919672919673,311.75,114.28643578643579C314.1666666666667,114.28090428090428,316.5833333333333,114.27537277537277,319,114.26984126984127C321.4166666666667,114.26430976430976,323.8333333333333,114.25877825877826,326.25,114.25324675324676C328.6666666666667,114.24771524771525,331.0833333333333,114.24218374218374,333.5,114.23665223665223C335.9166666666667,114.23112073112073,338.3333333333333,114.22558922558923,340.75,114.22005772005772C343.1666666666667,114.21452621452622,345.5833333333333,114.20899470899471,348,114.2034632034632C350.4166666666667,114.1979316979317,352.8333333333333,114.19240019240019,355.25,114.18686868686868C357.6666666666667,114.18133718133717,360.0833333333333,114.17580567580568,362.5,114.17027417027417C364.9166666666667,114.16474266474266,367.3333333333333,114.15921115921117,369.75,114.15367965367966C372.1666666666667,114.14814814814815,374.5833333333333,114.14261664261664,377,114.13708513708514C379.4166666666667,114.13155363155363,381.8333333333333,114.12602212602212,384.25,114.12049062049061C386.6666666666667,114.1149591149591,389.0833333333333,114.10942760942761,391.5,114.1038961038961C393.9166666666667,114.0983645983646,396.33333333333337,114.0928330928331,398.75000000000006,114.0873015873016C401.16666666666674,114.08177008177009,403.58333333333337,114.07623857623857,406.00000000000006,114.07070707070706C408.4166666666667,114.06517556517555,410.8333333333333,114.05964405964406,413.24999999999994,114.05411255411255C415.66666666666663,114.04858104858104,418.08333333333326,114.04304954304955,420.49999999999994,114.03751803751804C422.91666666666663,114.03198653198653,425.3333333333333,114.02645502645504,427.75,114.02092352092353C430.1666666666667,114.01539201539202,432.5833333333333,114.0098605098605,435,114.004329004329C437.4166666666667,113.99879749879749,439.8333333333333,113.993265993266,442.25,113.98773448773449C444.6666666666667,113.98220298220298,447.0833333333333,113.97667147667148,449.5,113.97113997113998C451.9166666666667,113.96560846560847,454.3333333333333,113.96007696007698,456.75,113.95454545454547C459.1666666666667,113.94901394901396,461.5833333333333,113.94348244348244,464,113.93795093795093C466.4166666666667,113.93241943241942,468.8333333333333,113.92688792688793,471.25,113.92135642135642C473.6666666666667,113.91582491582491,476.0833333333333,113.91029341029342,478.5,113.90476190476191C480.9166666666667,113.8992303992304,483.33333333333337,113.8936988936989,485.75000000000006,113.88816738816739C488.16666666666674,113.88263588263588,490.58333333333337,113.87710437710437,493.00000000000006,113.87157287157287C495.4166666666667,113.86604136604136,497.8333333333333,113.86050986050986,500.24999999999994,113.85497835497836C502.66666666666663,113.84944684944685,505.08333333333326,113.84391534391536,507.49999999999994,113.83838383838385C509.91666666666663,113.83285233285234,512.3333333333333,113.82732082732083,514.75,113.82178932178932C517.1666666666666,113.81625781625782,519.5833333333334,113.81072631072631,522,113.8051948051948C524.4166666666666,113.7996632996633,526.8333333333334,113.7941317941318,529.25,113.78860028860029C531.6666666666666,113.78306878306879,534.0833333333334,113.77753727753728,536.5,113.77200577200577C538.9166666666666,113.76647426647426,541.3333333333334,113.76094276094275,543.75,113.75541125541125C546.1666666666666,113.74987974987974,548.5833333333334,113.74434824434825,551,113.73881673881674C553.4166666666666,113.73328523328523,555.8333333333334,113.72775372775374,558.25,113.72222222222223C560.6666666666666,113.71669071669072,563.0833333333334,113.71115921115921,565.5,113.7056277056277C567.9166666666666,113.7000962000962,570.3333333333334,113.69456469456469,572.75,113.68903318903318C575.1666666666666,113.68350168350167,577.5833333333334,113.67797017797018,580,113.67243867243867C582.4166666666666,113.66690716690717,584.8333333333334,113.66137566137567,587.25,113.65584415584416C589.6666666666666,113.65031265031266,592.0833333333334,113.64478114478115,594.5,113.63924963924964C596.9166666666666,113.63371813371813,599.3333333333334,113.62818662818663,601.75,113.62265512265512C604.1666666666666,113.61712361712361,606.5833333333334,113.61159211159212,609,113.60606060606061C611.4166666666666,113.6005291005291,613.8333333333334,113.5949975949976,616.25,113.58946608946609C618.6666666666666,113.58393458393458,621.0833333333334,113.57840307840308,623.5,113.57287157287158C625.9166666666666,113.56734006734007,628.3333333333334,113.56180856180856,630.75,113.55627705627705C633.1666666666666,113.55074555074555,635.5833333333334,113.54521404521405,638,113.53968253968254C640.4166666666666,113.53415103415104,642.8333333333334,113.52861952861953,645.25,113.52308802308802C647.6666666666666,113.51755651755651,650.0833333333334,113.51202501202502,652.5,113.50649350649351C654.9166666666666,113.500962000962,657.3333333333334,113.4954304954305,659.75,113.48989898989899C662.1666666666666,113.48436748436748,664.5833333333334,113.47883597883597,667,113.47330447330447C669.4166666666666,113.46777296777296,671.8333333333334,113.46224146224147,674.25,113.45670995670996C676.6666666666666,113.45117845117845,679.0833333333334,113.44564694564694,681.5,113.44011544011543C683.9166666666666,113.43458393458393,686.3333333333334,113.42905242905243,688.75,113.42352092352093C691.1666666666666,113.41798941798942,693.5833333333334,113.41245791245791,696,113.4069264069264C698.4166666666666,113.4013949013949,700.8333333333334,113.3958633958634,703.25,113.3903318903319C705.6666666666666,113.38480038480039,708.0833333333334,113.37926887926888,710.5,113.37373737373737C712.9166666666666,113.36820586820586,715.3333333333334,113.36267436267437,717.75,113.35714285714286C720.1666666666666,113.35161135161135,722.5833333333334,113.34607984607985,725,113.34054834054834C727.4166666666666,113.33501683501683,729.8333333333334,113.32948532948534,732.25,113.32395382395383C734.6666666666666,113.31842231842232,737.0833333333334,113.31289081289081,739.5,113.3073593073593C741.9166666666666,113.3018278018278,744.3333333333334,113.29629629629629,746.75,113.29076479076478C749.1666666666666,113.28523328523328,751.5833333333334,113.27970177970178,754,113.27417027417027C756.4166666666666,113.26863876863877,758.8333333333334,113.26310726310727,761.25,113.25757575757576C763.6666666666666,113.25204425204426,766.0833333333334,113.24651274651275,768.5,113.24098124098124C770.9166666666666,113.23544973544973,773.3333333333334,113.22991822991823,775.75,113.22438672438672C778.1666666666666,113.21885521885521,780.5833333333334,113.21332371332372,783,113.20779220779221C785.4166666666667,113.2022607022607,787.8333333333334,113.19672919672921,790.2500000000001,113.1911976911977C792.6666666666667,113.1856661856662,795.0833333333335,113.18013468013469,797.5000000000001,113.17460317460318C799.9166666666667,113.16907166907167,802.3333333333335,113.16354016354016,804.7500000000001,113.15800865800865C807.1666666666667,113.15247715247715,809.5833333333335,113.14694564694565,812.0000000000001,113.14141414141415C814.4166666666667,113.13588263588264,816.8333333333333,113.13035113035113,819.2499999999999,113.12481962481962C821.6666666666665,113.11928811928811,824.0833333333333,113.1137566137566,826.4999999999999,113.1082251082251C828.9166666666665,113.10269360269359,831.3333333333333,113.0971620971621,833.7499999999999,113.09163059163059C836.1666666666665,113.08609908609908,838.5833333333333,113.08056758056759,840.9999999999999,113.07503607503608C843.4166666666666,113.06950456950457,845.8333333333333,113.06397306397307,848.25,113.05844155844156C850.6666666666666,113.05291005291005,853.0833333333334,113.04737854737854,855.5,113.04184704184703C857.9166666666666,113.03631553631553,860.3333333333334,113.03078403078403,862.75,113.02525252525253C865.1666666666666,113.01972101972102,867.5833333333334,113.01418951418952,870,113.00865800865802C872.4166666666666,113.00312650312651,874.8333333333334,112.99759499759499,877.25,112.99206349206348C879.6666666666666,112.98653198653197,882.0833333333334,112.98100048100048,884.5,112.97546897546897C886.9166666666666,112.96993746993746,889.3333333333334,112.96440596440597,891.75,112.95887445887446C894.1666666666666,112.95334295334295,896.5833333333334,112.94781144781146,899,112.94227994227995C901.4166666666666,112.93674843674845,903.8333333333334,112.93121693121692,906.25,112.92568542568542C908.6666666666666,112.92015392015391,911.0833333333334,112.91462241462241,913.5,112.9090909090909C915.9166666666666,112.9035594035594,918.3333333333334,112.8980278980279,920.75,112.8924963924964C923.1666666666666,112.88696488696489,925.5833333333334,112.88143338143338,928,112.87590187590187C930.4166666666666,112.87037037037037,932.8333333333334,112.86483886483886,935.25,112.85930735930735C937.6666666666666,112.85377585377584,940.0833333333334,112.84824434824435,942.5,112.84271284271284C944.9166666666666,112.83718133718133,947.3333333333334,112.83164983164984,949.75,112.82611832611833C952.1666666666666,112.82058682058683,954.5833333333334,112.81505531505532,957,112.80952380952381C959.4166666666666,112.8039923039923,961.8333333333334,112.7984607984608,964.25,112.79292929292929C966.6666666666667,112.78739778739778,969.0833333333334,112.78186628186629,971.5000000000001,112.77633477633478C973.9166666666667,112.77080327080327,976.3333333333335,112.76527176527178,978.7500000000001,112.75974025974027C981.1666666666667,112.75420875420876,983.5833333333335,112.74867724867725,986.0000000000001,112.74314574314575C988.4166666666667,112.73761423761424,990.8333333333335,112.73208273208273,993.2500000000001,112.72655122655122C995.6666666666667,112.72101972101972,998.0833333333333,112.71548821548822,1000.4999999999999,112.70995670995671C1002.9166666666665,112.7044252044252,1005.3333333333333,112.6988936988937,1007.7499999999999,112.69336219336219C1010.1666666666665,112.68783068783068,1012.5833333333333,112.68229918229918,1014.9999999999999,112.67676767676767C1017.4166666666665,112.67123617123616,1019.8333333333333,112.66570466570467,1022.2499999999999,112.66017316017316C1024.6666666666665,112.65464165464165,1027.0833333333333,112.64911014911016,1029.5,112.64357864357865C1031.9166666666667,112.63804713804714,1034.3333333333333,112.63251563251563,1036.75,112.62698412698413C1039.1666666666667,112.62145262145262,1041.5833333333333,112.61592111592111,1044,112.6103896103896C1046.4166666666667,112.6048581048581,1048.8333333333333,112.5993265993266,1051.25,112.5937950937951C1053.6666666666667,112.58826358826359,1056.0833333333333,112.5827320827321,1058.5,112.57720057720059C1060.9166666666667,112.57166907166908,1063.3333333333333,112.56613756613757,1065.75,112.56060606060606C1068.1666666666667,112.55507455507455,1070.5833333333333,112.54954304954305,1073,112.54401154401154C1075.4166666666667,112.53848003848003,1077.8333333333333,112.53294853294854,1080.25,112.52741702741703C1082.6666666666667,112.52188552188552,1085.0833333333333,112.51635401635401,1087.5,112.5108225108225C1089.9166666666667,112.505291005291,1092.3333333333333,112.4997594997595,1094.75,112.494227994228C1097.1666666666667,112.48869648869649,1099.5833333333333,112.48316498316498,1102,112.47763347763347C1104.4166666666667,112.47210197210197,1106.8333333333333,112.46657046657047,1109.25,112.46103896103897C1111.6666666666667,112.45550745550746,1114.0833333333333,112.45550745550746,1116.5,112.44444444444444C1118.9166666666667,112.43338143338143,1121.3333333333333,111.2037037037037,1123.75,110.58333333333333C1126.1666666666667,109.96296296296296,1128.5833333333333,109.34259259259258,1131,108.72222222222221C1133.4166666666667,108.10185185185185,1135.8333333333333,107.48148148148147,1138.25,106.8611111111111C1140.6666666666667,106.24074074074073,1143.0833333333333,105.62037037037037,1145.5,105C1147.9166666666667,104.37962962962963,1150.3333333333333,103.75925925925925,1152.75,103.13888888888889C1155.1666666666667,102.51851851851852,1157.5833333333333,101.89814814814815,1160,101.27777777777779C1162.4166666666667,100.65740740740742,1164.8333333333333,100.03703703703704,1167.25,99.41666666666667C1169.6666666666667,98.7962962962963,1172.0833333333333,98.17592592592592,1174.5,97.55555555555556C1176.9166666666667,96.93518518518519,1179.3333333333333,96.31481481481481,1181.75,95.69444444444444C1184.1666666666667,95.07407407407408,1186.5833333333333,94.45370370370371,1189,93.83333333333334C1191.4166666666667,93.21296296296298,1193.8333333333333,92.5925925925926,1196.25,91.97222222222223C1198.6666666666667,91.35185185185186,1201.0833333333333,90.73148148148148,1203.5,90.11111111111111C1205.9166666666667,89.49074074074075,1208.3333333333333,88.87037037037037,1210.75,88.25C1213.1666666666667,87.62962962962963,1215.5833333333333,87.00925925925925,1218,86.38888888888889C1220.4166666666667,85.76851851851852,1222.8333333333333,85.14814814814814,1225.25,84.52777777777777C1227.6666666666667,83.9074074074074,1230.0833333333333,83.28703703703704,1232.5,82.66666666666667C1234.9166666666667,82.0462962962963,1237.3333333333333,81.42592592592592,1239.75,80.80555555555556C1242.1666666666667,80.18518518518519,1244.5833333333333,79.56481481481481,1247,78.94444444444444C1249.4166666666667,78.32407407407408,1251.8333333333333,77.7037037037037,1254.25,77.08333333333333C1256.6666666666667,76.46296296296296,1259.0833333333333,75.84259259259258,1261.5,75.22222222222221C1263.9166666666667,74.60185185185185,1266.3333333333333,73.98148148148148,1268.75,73.36111111111111C1271.1666666666667,72.74074074074075,1273.5833333333333,72.12037037037037,1276,71.5C1278.4166666666667,70.87962962962963,1280.8333333333333,70.25925925925927,1283.25,69.6388888888889C1285.6666666666667,69.01851851851853,1288.0833333333333,68.39814814814815,1290.5,67.77777777777779C1292.9166666666667,67.15740740740742,1295.3333333333333,66.53703703703702,1297.75,65.91666666666666C1300.1666666666667,65.29629629629629,1302.5833333333333,64.67592592592591,1305,64.05555555555554C1307.4166666666667,63.435185185185176,1309.8333333333333,62.81481481481482,1312.25,62.19444444444445C1314.6666666666667,61.57407407407408,1317.0833333333333,60.95370370370371,1319.5,60.333333333333336C1321.9166666666667,59.71296296296296,1324.3333333333333,59.092592592592595,1326.75,58.47222222222223C1329.1666666666667,57.85185185185186,1331.5833333333333,57.23148148148149,1334,56.611111111111114C1336.4166666666667,55.99074074074074,1338.8333333333333,55.37037037037037,1341.25,54.75C1343.6666666666667,54.12962962962963,1346.0833333333333,53.50925925925927,1348.5,52.88888888888889C1350.9166666666667,52.26851851851852,1353.3333333333333,51.64814814814815,1355.75,51.02777777777778C1358.1666666666667,50.407407407407405,1360.5833333333333,49.78703703703704,1363,49.16666666666667C1365.4166666666667,48.546296296296305,1367.8333333333333,47.92592592592593,1370.25,47.30555555555556C1372.6666666666667,46.68518518518518,1375.0833333333333,46.06481481481481,1377.5,45.44444444444444C1379.9166666666667,44.824074074074076,1382.3333333333333,44.20370370370371,1384.75,43.583333333333336C1387.1666666666667,42.96296296296296,1389.5833333333333,42.342592592592595,1392,41.72222222222222C1394.4166666666667,41.10185185185185,1396.8333333333333,40.48148148148148,1399.25,39.86111111111111C1401.6666666666667,39.24074074074073,1404.0833333333333,38.62037037037037,1406.5,38C1408.9166666666667,37.37962962962963,1411.3333333333333,36.75925925925927,1413.75,36.1388888888889C1416.1666666666667,35.51851851851853,1418.5833333333333,34.89814814814815,1421,34.277777777777786C1423.4166666666667,33.65740740740742,1425.8333333333333,33.03703703703705,1428.25,32.41666666666668C1430.6666666666667,31.79629629629631,1433.0833333333333,31.175925925925934,1435.5,30.555555555555564C1437.9166666666667,29.935185185185194,1440.3333333333333,29.314814814814827,1442.75,28.694444444444454C1445.1666666666667,28.07407407407408,1447.5833333333333,27.453703703703706,1450,26.83333333333333" fill="transparent" stroke-linecap="round" stroke="#B6509E" stroke-width="2"></path><path class="visx-linepath" d="M0,108.61111111109452C2.4166666666666665,108.60834535833568,4.833333333333334,108.60557960557684,7.25,108.60281385281385C9.666666666666666,108.60004810005087,12.083333333333334,108.59728234728234,14.5,108.59451659451659C16.916666666666668,108.59175084175084,19.333333333333332,108.58898508898508,21.75,108.58621933621933C24.166666666666668,108.58345358345358,26.583333333333332,108.58068783068784,29,108.57792207792208C31.416666666666668,108.57515632515633,33.833333333333336,108.57239057239057,36.25,108.56962481962482C38.666666666666664,108.56685906685907,41.083333333333336,108.56409331409331,43.5,108.56132756132756C45.91666666666667,108.5585618085618,48.333333333333336,108.55579605579607,50.75000000000001,108.55303030303031C53.16666666666667,108.55026455026456,55.583333333333336,108.5474987974988,58,108.54473304473305C60.416666666666664,108.5419672919673,62.833333333333336,108.53920153920153,65.25,108.53643578643577C67.66666666666667,108.53367003367002,70.08333333333333,108.53090428090428,72.5,108.52813852813853C74.91666666666667,108.52537277537277,77.33333333333333,108.52260702260702,79.75,108.51984126984127C82.16666666666667,108.51707551707551,84.58333333333333,108.51430976430977,87,108.51154401154402C89.41666666666667,108.50877825877826,91.83333333333333,108.50601250601251,94.25,108.50324675324676C96.66666666666667,108.500481000481,99.08333333333334,108.49771524771525,101.50000000000001,108.4949494949495C103.91666666666667,108.49218374218374,106.33333333333334,108.489417989418,108.75,108.48665223665225C111.16666666666667,108.4838864838865,113.58333333333333,108.48112073112073,116,108.47835497835497C118.41666666666667,108.47558922558922,120.83333333333334,108.47282347282346,123.25000000000001,108.47005772005771C125.66666666666667,108.46729196729196,128.08333333333334,108.46452621452622,130.5,108.46176046176046C132.91666666666666,108.45899470899471,135.33333333333334,108.45622895622895,137.75,108.4534632034632C140.16666666666666,108.45069745069745,142.58333333333334,108.4479316979317,145,108.44516594516594C147.41666666666666,108.44240019240019,149.83333333333334,108.43963443963445,152.25,108.43686868686869C154.66666666666666,108.43410293410294,157.08333333333334,108.43133718133718,159.5,108.42857142857143C161.91666666666666,108.42580567580568,164.33333333333334,108.42303992303992,166.75,108.42027417027417C169.16666666666666,108.41750841750842,171.58333333333334,108.41474266474266,174,108.41197691197691C176.41666666666666,108.40921115921115,178.83333333333334,108.4064454064454,181.25,108.40367965367965C183.66666666666666,108.40091390091389,186.08333333333334,108.39814814814815,188.5,108.3953823953824C190.91666666666666,108.39261664261664,193.33333333333334,108.38985088985089,195.75,108.38708513708514C198.16666666666669,108.38431938431938,200.58333333333334,108.38155363155363,203.00000000000003,108.37878787878788C205.41666666666669,108.37602212602212,207.83333333333331,108.37325637325638,210.24999999999997,108.37049062049063C212.66666666666666,108.36772486772487,215.08333333333331,108.36495911495912,217.5,108.36219336219337C219.91666666666666,108.35942760942761,222.33333333333334,108.35666185666186,224.75,108.3538961038961C227.16666666666666,108.35113035113035,229.58333333333334,108.3483645983646,232,108.34559884559884C234.41666666666666,108.34283309283309,236.83333333333334,108.34006734006734,239.25,108.33730158730158C241.66666666666669,108.33453583453583,244.08333333333334,108.33177008177007,246.50000000000003,108.32900432900432C248.91666666666669,108.32623857623857,251.33333333333331,108.32347282347283,253.74999999999997,108.32070707070707C256.16666666666663,108.31794131794132,258.5833333333333,108.31517556517556,261,108.31240981240981C263.4166666666667,108.30964405964406,265.8333333333333,108.30687830687832,268.25,108.30411255411256C270.6666666666667,108.30134680134681,273.0833333333333,108.29858104858106,275.5,108.2958152958153C277.9166666666667,108.29304954304955,280.3333333333333,108.29028379028378,282.75,108.28751803751803C285.1666666666667,108.28475228475227,287.5833333333333,108.28198653198653,290,108.27922077922078C292.4166666666667,108.27645502645503,294.8333333333333,108.27368927368927,297.25,108.27092352092352C299.6666666666667,108.26815776815776,302.0833333333333,108.26539201539201,304.5,108.26262626262626C306.9166666666667,108.2598605098605,309.3333333333333,108.25709475709476,311.75,108.25432900432901C314.1666666666667,108.25156325156325,316.5833333333333,108.2487974987975,319,108.24603174603175C321.4166666666667,108.243265993266,323.8333333333333,108.24050024050024,326.25,108.23773448773449C328.6666666666667,108.23496873496873,331.0833333333333,108.23220298220299,333.5,108.22943722943724C335.9166666666667,108.22667147667148,338.3333333333333,108.22390572390572,340.75,108.22113997113996C343.1666666666667,108.21837421837421,345.5833333333333,108.21560846560847,348,108.21284271284271C350.4166666666667,108.21007696007696,352.8333333333333,108.20731120731121,355.25,108.20454545454545C357.6666666666667,108.2017797017797,360.0833333333333,108.19901394901395,362.5,108.19624819624819C364.9166666666667,108.19348244348244,367.3333333333333,108.1907166907167,369.75,108.18795093795094C372.1666666666667,108.18518518518519,374.5833333333333,108.18241943241944,377,108.17965367965368C379.4166666666667,108.17688792688793,381.8333333333333,108.17412217412218,384.25,108.17135642135642C386.6666666666667,108.16859066859067,389.0833333333333,108.16582491582491,391.5,108.16305916305916C393.9166666666667,108.1602934102934,396.33333333333337,108.15752765752765,398.75000000000006,108.1547619047619C401.16666666666674,108.15199615199614,403.58333333333337,108.14923039923039,406.00000000000006,108.14646464646464C408.4166666666667,108.14369889369888,410.8333333333333,108.14093314093314,413.24999999999994,108.13816738816739C415.66666666666663,108.13540163540164,418.08333333333326,108.13263588263588,420.49999999999994,108.12987012987013C422.91666666666663,108.12710437710437,425.3333333333333,108.12433862433863,427.75,108.12157287157288C430.1666666666667,108.11880711880713,432.5833333333333,108.11604136604137,435,108.11327561327562C437.4166666666667,108.11050986050986,439.8333333333333,108.10774410774411,442.25,108.10497835497836C444.6666666666667,108.1022126022126,447.0833333333333,108.09944684944685,449.5,108.0966810966811C451.9166666666667,108.09391534391534,454.3333333333333,108.09114959114959,456.75,108.08838383838383C459.1666666666667,108.08561808561808,461.5833333333333,108.08285233285233,464,108.08008658008657C466.4166666666667,108.07732082732082,468.8333333333333,108.07455507455508,471.25,108.07178932178932C473.6666666666667,108.06902356902357,476.0833333333333,108.06625781625782,478.5,108.06349206349206C480.9166666666667,108.06072631072631,483.33333333333337,108.05796055796056,485.75000000000006,108.0551948051948C488.16666666666674,108.05242905242905,490.58333333333337,108.04966329966331,493.00000000000006,108.04689754689755C495.4166666666667,108.0441317941318,497.8333333333333,108.04136604136605,500.24999999999994,108.03860028860029C502.66666666666663,108.03583453583454,505.08333333333326,108.03306878306879,507.49999999999994,108.03030303030303C509.91666666666663,108.02753727753728,512.3333333333333,108.02477152477152,514.75,108.02200577200577C517.1666666666666,108.01924001924002,519.5833333333334,108.01647426647426,522,108.01370851370851C524.4166666666666,108.01094276094275,526.8333333333334,108.00817700817701,529.25,108.00541125541126C531.6666666666666,108.0026455026455,534.0833333333334,107.99987974987975,536.5,107.997113997114C538.9166666666666,107.99434824434825,541.3333333333334,107.99158249158249,543.75,107.98881673881674C546.1666666666666,107.98605098605098,548.5833333333334,107.98328523328524,551,107.98051948051949C553.4166666666666,107.97775372775374,555.8333333333334,107.97498797498798,558.25,107.97222222222223C560.6666666666666,107.96945646945647,563.0833333333334,107.9666907166907,565.5,107.96392496392495C567.9166666666666,107.9611592111592,570.3333333333334,107.95839345839346,572.75,107.9556277056277C575.1666666666666,107.95286195286195,577.5833333333334,107.9500962000962,580,107.94733044733044C582.4166666666666,107.94456469456469,584.8333333333334,107.94179894179894,587.25,107.93903318903318C589.6666666666666,107.93626743626743,592.0833333333334,107.93350168350169,594.5,107.93073593073593C596.9166666666666,107.92797017797018,599.3333333333334,107.92520442520443,601.75,107.92243867243867C604.1666666666666,107.91967291967292,606.5833333333334,107.91690716690718,609,107.91414141414143C611.4166666666666,107.91137566137567,613.8333333333334,107.9086099086099,616.25,107.90584415584415C618.6666666666666,107.9030784030784,621.0833333333334,107.90031265031264,623.5,107.89754689754689C625.9166666666666,107.89478114478113,628.3333333333334,107.8920153920154,630.75,107.88924963924964C633.1666666666666,107.88648388648389,635.5833333333334,107.88371813371813,638,107.88095238095238C640.4166666666666,107.87818662818663,642.8333333333334,107.87542087542087,645.25,107.87265512265512C647.6666666666666,107.86988936988936,650.0833333333334,107.86712361712362,652.5,107.86435786435787C654.9166666666666,107.86159211159212,657.3333333333334,107.85882635882636,659.75,107.85606060606061C662.1666666666666,107.85329485329486,664.5833333333334,107.8505291005291,667,107.84776334776335C669.4166666666666,107.8449975949976,671.8333333333334,107.84223184223184,674.25,107.83946608946609C676.6666666666666,107.83670033670033,679.0833333333334,107.83393458393458,681.5,107.83116883116882C683.9166666666666,107.82840307840307,686.3333333333334,107.82563732563733,688.75,107.82287157287158C691.1666666666666,107.82010582010582,693.5833333333334,107.81734006734007,696,107.81457431457432C698.4166666666666,107.81180856180856,700.8333333333334,107.80904280904281,703.25,107.80627705627705C705.6666666666666,107.8035113035113,708.0833333333334,107.80074555074556,710.5,107.7979797979798C712.9166666666666,107.79521404521405,715.3333333333334,107.7924482924483,717.75,107.78968253968254C720.1666666666666,107.78691678691679,722.5833333333334,107.78415103415104,725,107.78138528138528C727.4166666666666,107.77861952861953,729.8333333333334,107.77585377585378,732.25,107.77308802308802C734.6666666666666,107.77032227032227,737.0833333333334,107.76755651755651,739.5,107.76479076479076C741.9166666666666,107.762025012025,744.3333333333334,107.75925925925925,746.75,107.7564935064935C749.1666666666666,107.75372775372774,751.5833333333334,107.750962000962,754,107.74819624819625C756.4166666666666,107.7454304954305,758.8333333333334,107.74266474266474,761.25,107.73989898989899C763.6666666666666,107.73713323713324,766.0833333333334,107.73436748436748,768.5,107.73160173160173C770.9166666666666,107.72883597883597,773.3333333333334,107.72607022607023,775.75,107.72330447330448C778.1666666666666,107.72053872053873,780.5833333333334,107.71777296777296,783,107.7150072150072C785.4166666666667,107.71224146224145,787.8333333333334,107.70947570947571,790.2500000000001,107.70670995670996C792.6666666666667,107.7039442039442,795.0833333333335,107.70117845117845,797.5000000000001,107.6984126984127C799.9166666666667,107.69564694564694,802.3333333333335,107.69288119288119,804.7500000000001,107.69011544011543C807.1666666666667,107.68734968734968,809.5833333333335,107.68458393458394,812.0000000000001,107.68181818181819C814.4166666666667,107.67905242905243,816.8333333333333,107.67628667628668,819.2499999999999,107.67352092352093C821.6666666666665,107.67075517075517,824.0833333333333,107.66798941798943,826.4999999999999,107.66522366522368C828.9166666666665,107.66245791245792,831.3333333333333,107.65969215969217,833.7499999999999,107.65692640692642C836.1666666666665,107.65416065416066,838.5833333333333,107.6513949013949,840.9999999999999,107.64862914862914C843.4166666666666,107.64586339586339,845.8333333333333,107.64309764309763,848.25,107.64033189033188C850.6666666666666,107.63756613756613,853.0833333333334,107.63480038480039,855.5,107.63203463203463C857.9166666666666,107.62926887926888,860.3333333333334,107.62650312650312,862.75,107.62373737373737C865.1666666666666,107.62097162097162,867.5833333333334,107.61820586820588,870,107.61544011544012C872.4166666666666,107.61267436267437,874.8333333333334,107.60990860990862,877.25,107.60714285714286C879.6666666666666,107.60437710437711,882.0833333333334,107.60161135161135,884.5,107.5988455988456C886.9166666666666,107.59607984607985,889.3333333333334,107.59331409331409,891.75,107.59054834054834C894.1666666666666,107.58778258778258,896.5833333333334,107.58501683501683,899,107.58225108225108C901.4166666666666,107.57948532948532,903.8333333333334,107.57671957671957,906.25,107.57395382395381C908.6666666666666,107.57118807118806,911.0833333333334,107.56842231842232,913.5,107.56565656565657C915.9166666666666,107.56289081289081,918.3333333333334,107.56012506012506,920.75,107.5573593073593C923.1666666666666,107.55459355459355,925.5833333333334,107.5518278018278,928,107.54906204906204C930.4166666666666,107.54629629629629,932.8333333333334,107.54353054353055,935.25,107.5407647907648C937.6666666666666,107.53799903799904,940.0833333333334,107.53523328523329,942.5,107.53246753246754C944.9166666666666,107.52970177970178,947.3333333333334,107.52693602693603,949.75,107.52417027417027C952.1666666666666,107.52140452140452,954.5833333333334,107.51863876863877,957,107.51587301587301C959.4166666666666,107.51310726310726,961.8333333333334,107.5103415103415,964.25,107.50757575757575C966.6666666666667,107.50481000481,969.0833333333334,107.50204425204426,971.5000000000001,107.4992784992785C973.9166666666667,107.49651274651275,976.3333333333335,107.493746993747,978.7500000000001,107.49098124098124C981.1666666666667,107.48821548821549,983.5833333333335,107.48544973544973,986.0000000000001,107.48268398268398C988.4166666666667,107.47991822991823,990.8333333333335,107.47715247715249,993.2500000000001,107.47438672438673C995.6666666666667,107.47162097162098,998.0833333333333,107.46885521885523,1000.4999999999999,107.46608946608947C1002.9166666666665,107.46332371332372,1005.3333333333333,107.46055796055795,1007.7499999999999,107.4577922077922C1010.1666666666665,107.45502645502644,1012.5833333333333,107.4522607022607,1014.9999999999999,107.44949494949495C1017.4166666666665,107.4467291967292,1019.8333333333333,107.44396344396344,1022.2499999999999,107.44119769119769C1024.6666666666665,107.43843193843193,1027.0833333333333,107.4356661856662,1029.5,107.43290043290044C1031.9166666666667,107.43013468013469,1034.3333333333333,107.42736892736893,1036.75,107.42460317460318C1039.1666666666667,107.42183742183742,1041.5833333333333,107.41907166907167,1044,107.41630591630592C1046.4166666666667,107.41354016354016,1048.8333333333333,107.41077441077442,1051.25,107.40800865800867C1053.6666666666667,107.40524290524291,1056.0833333333333,107.40247715247716,1058.5,107.3997113997114C1060.9166666666667,107.39694564694565,1063.3333333333333,107.39417989417989,1065.75,107.39141414141413C1068.1666666666667,107.38864838864838,1070.5833333333333,107.38588263588264,1073,107.38311688311688C1075.4166666666667,107.38035113035113,1077.8333333333333,107.37758537758538,1080.25,107.37481962481962C1082.6666666666667,107.37205387205387,1085.0833333333333,107.36928811928811,1087.5,107.36652236652236C1089.9166666666667,107.3637566137566,1092.3333333333333,107.36099086099087,1094.75,107.35822510822511C1097.1666666666667,107.35545935545936,1099.5833333333333,107.3526936026936,1102,107.34992784992785C1104.4166666666667,107.3471620971621,1106.8333333333333,107.34439634439636,1109.25,107.3416305916306C1111.6666666666667,107.33886483886485,1114.0833333333333,107.33886483886485,1116.5,107.33333333333333C1118.9166666666667,107.3278018278018,1121.3333333333333,106.0925925925926,1123.75,105.47222222222223C1126.1666666666667,104.85185185185186,1128.5833333333333,104.23148148148148,1131,103.61111111111111C1133.4166666666667,102.99074074074075,1135.8333333333333,102.37037037037037,1138.25,101.75C1140.6666666666667,101.12962962962963,1143.0833333333333,100.50925925925925,1145.5,99.88888888888889C1147.9166666666667,99.26851851851852,1150.3333333333333,98.64814814814814,1152.75,98.02777777777777C1155.1666666666667,97.4074074074074,1157.5833333333333,96.78703703703704,1160,96.16666666666667C1162.4166666666667,95.5462962962963,1164.8333333333333,94.92592592592592,1167.25,94.30555555555556C1169.6666666666667,93.68518518518519,1172.0833333333333,93.06481481481481,1174.5,92.44444444444444C1176.9166666666667,91.82407407407408,1179.3333333333333,91.2037037037037,1181.75,90.58333333333333C1184.1666666666667,89.96296296296296,1186.5833333333333,89.34259259259258,1189,88.72222222222221C1191.4166666666667,88.10185185185185,1193.8333333333333,87.48148148148147,1196.25,86.8611111111111C1198.6666666666667,86.24074074074073,1201.0833333333333,85.62037037037037,1203.5,85C1205.9166666666667,84.37962962962963,1208.3333333333333,83.75925925925927,1210.75,83.1388888888889C1213.1666666666667,82.51851851851853,1215.5833333333333,81.89814814814814,1218,81.27777777777777C1220.4166666666667,80.6574074074074,1222.8333333333333,80.03703703703704,1225.25,79.41666666666667C1227.6666666666667,78.7962962962963,1230.0833333333333,78.17592592592591,1232.5,77.55555555555554C1234.9166666666667,76.93518518518518,1237.3333333333333,76.31481481481481,1239.75,75.69444444444444C1242.1666666666667,75.07407407407408,1244.5833333333333,74.4537037037037,1247,73.83333333333333C1249.4166666666667,73.21296296296296,1251.8333333333333,72.5925925925926,1254.25,71.97222222222223C1256.6666666666667,71.35185185185186,1259.0833333333333,70.73148148148148,1261.5,70.11111111111111C1263.9166666666667,69.49074074074075,1266.3333333333333,68.87037037037037,1268.75,68.25C1271.1666666666667,67.62962962962963,1273.5833333333333,67.00925925925924,1276,66.38888888888887C1278.4166666666667,65.7685185185185,1280.8333333333333,65.14814814814814,1283.25,64.52777777777777C1285.6666666666667,63.907407407407405,1288.0833333333333,63.28703703703703,1290.5,62.666666666666664C1292.9166666666667,62.0462962962963,1295.3333333333333,61.425925925925924,1297.75,60.80555555555556C1300.1666666666667,60.18518518518519,1302.5833333333333,59.56481481481481,1305,58.94444444444444C1307.4166666666667,58.324074074074076,1309.8333333333333,57.70370370370371,1312.25,57.08333333333334C1314.6666666666667,56.462962962962976,1317.0833333333333,55.842592592592595,1319.5,55.22222222222222C1321.9166666666667,54.60185185185185,1324.3333333333333,53.981481481481474,1326.75,53.36111111111111C1329.1666666666667,52.74074074074074,1331.5833333333333,52.12037037037038,1334,51.50000000000001C1336.4166666666667,50.87962962962963,1338.8333333333333,50.25925925925925,1341.25,49.638888888888886C1343.6666666666667,49.01851851851852,1346.0833333333333,48.39814814814815,1348.5,47.777777777777786C1350.9166666666667,47.15740740740742,1353.3333333333333,46.53703703703704,1355.75,45.91666666666667C1358.1666666666667,45.296296296296305,1360.5833333333333,44.67592592592594,1363,44.055555555555564C1365.4166666666667,43.43518518518519,1367.8333333333333,42.81481481481481,1370.25,42.194444444444436C1372.6666666666667,41.57407407407406,1375.0833333333333,40.953703703703695,1377.5,40.33333333333333C1379.9166666666667,39.71296296296296,1382.3333333333333,39.09259259259258,1384.75,38.472222222222214C1387.1666666666667,37.85185185185185,1389.5833333333333,37.23148148148148,1392,36.611111111111114C1394.4166666666667,35.99074074074075,1396.8333333333333,35.37037037037037,1399.25,34.74999999999999C1401.6666666666667,34.12962962962962,1404.0833333333333,33.50925925925926,1406.5,32.88888888888889C1408.9166666666667,32.268518518518526,1411.3333333333333,31.648148148148152,1413.75,31.02777777777778C1416.1666666666667,30.407407407407405,1418.5833333333333,29.78703703703703,1421,29.166666666666657C1423.4166666666667,28.546296296296283,1425.8333333333333,27.92592592592591,1428.25,27.305555555555543C1430.6666666666667,26.685185185185176,1433.0833333333333,26.064814814814817,1435.5,25.444444444444446C1437.9166666666667,24.824074074074076,1440.3333333333333,24.203703703703702,1442.75,23.583333333333332C1445.1666666666667,22.962962962962962,1447.5833333333333,22.34259259259259,1450,21.72222222222222" fill="transparent" stroke-linecap="round" stroke="#E7C6DF" stroke-width="2"></path><g class="visx-group visx-axis visx-axis-bottom" transform="translate(0, 115)"><g class="visx-group visx-axis-tick" transform="translate(0, 0)"><line class="visx-line" x1="0" y1="0" x2="0" y2="8" fill="transparent" shape-rendering="crispEdges" stroke="#000" stroke-width="0" stroke-linecap="square"></line><svg x="0" y="0" font-size="10" style="overflow:visible"><text transform="" x="0" y="18" fill="#000" font-size="10" text-anchor="middle"><tspan x="0" dy="0em">0%</tspan></text></svg></g><g class="visx-group visx-axis-tick" transform="translate(0, 0)"><line class="visx-line" x1="362.5" y1="0" x2="362.5" y2="8" fill="transparent" shape-rendering="crispEdges" stroke="#000" stroke-width="0" stroke-linecap="square"></line><svg x="0" y="0" font-size="10" style="overflow:visible"><text transform="" x="362.5" y="18" fill="#000" font-size="10" text-anchor="middle"><tspan x="362.5" dy="0em">25%</tspan></text></svg></g><g class="visx-group visx-axis-tick" transform="translate(0, 0)"><line class="visx-line" x1="725" y1="0" x2="725" y2="8" fill="transparent" shape-rendering="crispEdges" stroke="#000" stroke-width="0" stroke-linecap="square"></line><svg x="0" y="0" font-size="10" style="overflow:visible"><text transform="" x="725" y="18" fill="#000" font-size="10" text-anchor="middle"><tspan x="725" dy="0em">50%</tspan></text></svg></g><g class="visx-group visx-axis-tick" transform="translate(0, 0)"><line class="visx-line" x1="1087.5" y1="0" x2="1087.5" y2="8" fill="transparent" shape-rendering="crispEdges" stroke="#000" stroke-width="0" stroke-linecap="square"></line><svg x="0" y="0" font-size="10" style="overflow:visible"><text transform="" x="1087.5" y="18" fill="#000" font-size="10" text-anchor="middle"><tspan x="1087.5" dy="0em">75%</tspan></text></svg></g><g class="visx-group visx-axis-tick" transform="translate(0, 0)"><line class="visx-line" x1="1450" y1="0" x2="1450" y2="8" fill="transparent" shape-rendering="crispEdges" stroke="#000" stroke-width="0" stroke-linecap="square"></line><svg x="0" y="0" font-size="10" style="overflow:visible"><text transform="" x="1450" y="18" fill="#000" font-size="10" text-anchor="middle"><tspan x="1450" dy="0em">100%</tspan></text></svg></g><line class="visx-line visx-axis-line" x1="0.5" y1="0" x2="1450.5" y2="0" fill="transparent" shape-rendering="crispEdges" stroke="#222" stroke-width="0"></line></g><g class="visx-group visx-axis visx-axis-left" transform="translate(0, 0)"><g class="visx-group visx-axis-tick" transform="translate(0, 0)"><line class="visx-line" x1="0" y1="115" x2="-8" y2="115" fill="transparent" shape-rendering="crispEdges" stroke="#222" stroke-width="0" stroke-linecap="square"></line><svg x="-30" y="0" font-size="8" style="overflow:visible"><text transform="" x="-8" y="115" fill="#000" font-size="8" text-anchor="start"><tspan x="-8" dy="0em">0%</tspan></text></svg></g><g class="visx-group visx-axis-tick" transform="translate(0, 0)"><line class="visx-line" x1="0" y1="51.11111111111111" x2="-8" y2="51.11111111111111" fill="transparent" shape-rendering="crispEdges" stroke="#222" stroke-width="0" stroke-linecap="square"></line><svg x="-30" y="0" font-size="8" style="overflow:visible"><text transform="" x="-8" y="51.11111111111111" fill="#000" font-size="8" text-anchor="start"><tspan x="-8" dy="0em">100%</tspan></text></svg></g><line class="visx-line visx-axis-line" x1="0" y1="115.5" x2="0" y2="0.5" fill="transparent" shape-rendering="crispEdges" stroke="#222" stroke-width="0"></line></g><rect class="visx-bar" width="1450" height="115" fill="transparent"></rect><line class="visx-line" x1="1116.5" y1="28" x2="1116.5" y2="115" fill="transparent" shape-rendering="crispEdges" stroke="#0062D2" stroke-width="1" pointer-events="none" stroke-dasharray="5,2"></line><svg x="0" y="0" font-size="10px" style="overflow:visible"><text transform="" x="1116.5" y="20" font-size="10px" fill="#fff" stroke="#fff" stroke-width="0.8em" text-anchor="middle"><tspan x="1116.5" dy="0.355em">Optimal 77%</tspan></text></svg><svg x="0" y="0" font-size="10px" style="overflow:visible"><text transform="" x="1116.5" y="20" font-size="10px" fill="#62677B" text-anchor="middle"><tspan x="1116.5" dy="0.355em">Optimal 77%</tspan></text></svg></g></svg>