<?xml version="1.0"?><svg xmlns="http://www.w3.org/2000/svg" xmlns:xlink= "http://www.w3.org/1999/xlink" style="background: white;" width="1500" height="185"> <g style="color: black; font-size: 13px; font-family: sans-serif; transform: translate(18px, 25px);"><g><circle r="3" cx="-6" cy="-5" style="fill: #B6509E" /><text>Borrow APR, variable</text></g><g style="transform: translateX(150px);"><circle r="3" cx="-6" cy="-5" style="fill: rgb(231, 198, 223)" /><text>Borrow APR, stable</text></g><g style="transform: translateX(290px);"><circle r="3" cx="-6" cy="-5" style="fill: rgb(0, 98, 210)" /><text>Utilization Rate</text></g></g><g class="visx-group" transform="translate(40, 50)"><g class="visx-group visx-rows" transform="translate(0, 0)"><line class="visx-line" x1="0" y1="115" x2="1450" y2="115" fill="transparent" shape-rendering="crispEdges" stroke="#000" stroke-width="1" stroke-dasharray="3,3" pointer-events="none"></line><line class="visx-line" x1="0" y1="79.61538461538461" x2="1450" y2="79.61538461538461" fill="transparent" shape-rendering="crispEdges" stroke="#000" stroke-width="1" stroke-dasharray="3,3" pointer-events="none"></line><line class="visx-line" x1="0" y1="44.230769230769226" x2="1450" y2="44.230769230769226" fill="transparent" shape-rendering="crispEdges" stroke="#000" stroke-width="1" stroke-dasharray="3,3" pointer-events="none"></line><line class="visx-line" x1="0" y1="8.84615384615384" x2="1450" y2="8.84615384615384" fill="transparent" shape-rendering="crispEdges" stroke="#000" stroke-width="1" stroke-dasharray="3,3" pointer-events="none"></line></g><path class="visx-linepath" d="M0,114.99999999998087C2.4166666666666665,114.99681219680103,4.833333333333334,114.9936243936212,7.25,114.99043659043659C9.666666666666666,114.98724878725197,12.083333333333334,114.98406098406099,14.5,114.98087318087319C16.916666666666668,114.97768537768539,19.333333333333332,114.97449757449758,21.75,114.97130977130978C24.166666666666668,114.96812196812198,26.583333333333332,114.96493416493416,29,114.96174636174636C31.416666666666668,114.95855855855856,33.833333333333336,114.95537075537075,36.25,114.95218295218295C38.666666666666664,114.94899514899515,41.083333333333336,114.94580734580734,43.5,114.94261954261954C45.91666666666667,114.93943173943174,48.333333333333336,114.93624393624393,50.75000000000001,114.93305613305613C53.16666666666667,114.92986832986833,55.583333333333336,114.92668052668051,58,114.92349272349271C60.416666666666664,114.92030492030491,62.833333333333336,114.91711711711712,65.25,114.91392931392932C67.66666666666667,114.91074151074152,70.08333333333333,114.9075537075537,72.5,114.9043659043659C74.91666666666667,114.9011781011781,77.33333333333333,114.89799029799029,79.75,114.89480249480249C82.16666666666667,114.89161469161469,84.58333333333333,114.88842688842689,87,114.88523908523909C89.41666666666667,114.8820512820513,91.83333333333333,114.87886347886348,94.25,114.87567567567568C96.66666666666667,114.87248787248788,99.08333333333334,114.86930006930007,101.50000000000001,114.86611226611227C103.91666666666667,114.86292446292447,106.33333333333334,114.85973665973665,108.75,114.85654885654886C111.16666666666667,114.85336105336106,113.58333333333333,114.85017325017324,116,114.84698544698544C118.41666666666667,114.84379764379764,120.83333333333334,114.84060984060983,123.25000000000001,114.83742203742203C125.66666666666667,114.83423423423423,128.08333333333334,114.83104643104642,130.5,114.82785862785862C132.91666666666666,114.82467082467082,135.33333333333334,114.82148302148302,137.75,114.81829521829522C140.16666666666666,114.81510741510742,142.58333333333334,114.8119196119196,145,114.8087318087318C147.41666666666666,114.80554400554401,149.83333333333334,114.8023562023562,152.25,114.7991683991684C154.66666666666666,114.7959805959806,157.08333333333334,114.7927927927928,159.5,114.789604989605C161.91666666666666,114.7864171864172,164.33333333333334,114.78322938322938,166.75,114.78004158004158C169.16666666666666,114.77685377685378,171.58333333333334,114.77366597366597,174,114.77047817047817C176.41666666666666,114.76729036729037,178.83333333333334,114.76410256410257,181.25,114.76091476091477C183.66666666666666,114.75772695772697,186.08333333333334,114.75453915453916,188.5,114.75135135135136C190.91666666666666,114.74816354816356,193.33333333333334,114.74497574497575,195.75,114.74178794178795C198.16666666666669,114.73860013860013,200.58333333333334,114.73541233541232,203.00000000000003,114.73222453222452C205.41666666666669,114.72903672903672,207.83333333333331,114.72584892584892,210.24999999999997,114.72266112266112C212.66666666666666,114.71947331947332,215.08333333333331,114.71628551628551,217.5,114.71309771309771C219.91666666666666,114.70990990990991,222.33333333333334,114.7067221067221,224.75,114.7035343035343C227.16666666666666,114.7003465003465,229.58333333333334,114.6971586971587,232,114.6939708939709C234.41666666666666,114.6907830907831,236.83333333333334,114.68759528759529,239.25,114.68440748440749C241.66666666666669,114.68121968121969,244.08333333333334,114.67803187803187,246.50000000000003,114.67484407484407C248.91666666666669,114.67165627165627,251.33333333333331,114.66846846846846,253.74999999999997,114.66528066528066C256.16666666666663,114.66209286209286,258.5833333333333,114.65890505890506,261,114.65571725571726C263.4166666666667,114.65252945252946,265.8333333333333,114.64934164934165,268.25,114.64615384615385C270.6666666666667,114.64296604296605,273.0833333333333,114.63977823977824,275.5,114.63659043659044C277.9166666666667,114.63340263340264,280.3333333333333,114.63021483021483,282.75,114.62702702702703C285.1666666666667,114.62383922383923,287.5833333333333,114.62065142065141,290,114.61746361746361C292.4166666666667,114.61427581427581,294.8333333333333,114.611088011088,297.25,114.6079002079002C299.6666666666667,114.6047124047124,302.0833333333333,114.6015246015246,304.5,114.5983367983368C306.9166666666667,114.595148995149,309.3333333333333,114.59196119196119,311.75,114.58877338877339C314.1666666666667,114.58558558558559,316.5833333333333,114.58239778239778,319,114.57920997920998C321.4166666666667,114.57602217602218,323.8333333333333,114.57283437283438,326.25,114.56964656964658C328.6666666666667,114.56645876645878,331.0833333333333,114.56327096327097,333.5,114.56008316008317C335.9166666666667,114.55689535689537,338.3333333333333,114.55370755370755,340.75,114.55051975051975C343.1666666666667,114.54733194733195,345.5833333333333,114.54414414414414,348,114.54095634095634C350.4166666666667,114.53776853776854,352.8333333333333,114.53458073458073,355.25,114.53139293139293C357.6666666666667,114.52820512820513,360.0833333333333,114.52501732501732,362.5,114.52182952182952C364.9166666666667,114.51864171864172,367.3333333333333,114.5154539154539,369.75,114.5122661122661C372.1666666666667,114.5090783090783,374.5833333333333,114.5058905058905,377,114.5027027027027C379.4166666666667,114.4995148995149,381.8333333333333,114.4963270963271,384.25,114.4931392931393C386.6666666666667,114.4899514899515,389.0833333333333,114.48676368676368,391.5,114.48357588357588C393.9166666666667,114.48038808038808,396.33333333333337,114.47720027720027,398.75000000000006,114.47401247401247C401.16666666666674,114.47082467082467,403.58333333333337,114.46763686763687,406.00000000000006,114.46444906444907C408.4166666666667,114.46126126126127,410.8333333333333,114.45807345807346,413.24999999999994,114.45488565488566C415.66666666666663,114.45169785169786,418.08333333333326,114.44851004851004,420.49999999999994,114.44532224532225C422.91666666666663,114.44213444213445,425.3333333333333,114.43894663894663,427.75,114.43575883575883C430.1666666666667,114.43257103257103,432.5833333333333,114.42938322938322,435,114.42619542619542C437.4166666666667,114.42300762300762,439.8333333333333,114.4198198198198,442.25,114.41663201663201C444.6666666666667,114.41344421344421,447.0833333333333,114.41025641025641,449.5,114.40706860706861C451.9166666666667,114.40388080388081,454.3333333333333,114.400693000693,456.75,114.3975051975052C459.1666666666667,114.3943173943174,461.5833333333333,114.39112959112958,464,114.38794178794178C466.4166666666667,114.38475398475398,468.8333333333333,114.38156618156619,471.25,114.37837837837839C473.6666666666667,114.37519057519059,476.0833333333333,114.37200277200277,478.5,114.36881496881497C480.9166666666667,114.36562716562717,483.33333333333337,114.36243936243936,485.75000000000006,114.35925155925156C488.16666666666674,114.35606375606376,490.58333333333337,114.35287595287595,493.00000000000006,114.34968814968815C495.4166666666667,114.34650034650035,497.8333333333333,114.34331254331255,500.24999999999994,114.34012474012475C502.66666666666663,114.33693693693695,505.08333333333326,114.33374913374912,507.49999999999994,114.33056133056132C509.91666666666663,114.32737352737351,512.3333333333333,114.32418572418571,514.75,114.32099792099791C517.1666666666666,114.31781011781011,519.5833333333334,114.31462231462231,522,114.31143451143451C524.4166666666666,114.30824670824671,526.8333333333334,114.3050589050589,529.25,114.3018711018711C531.6666666666666,114.2986832986833,534.0833333333334,114.2986832986833,536.5,114.29230769230769C538.9166666666666,114.28593208593207,541.3333333333334,113.7905575905576,543.75,113.53968253968254C546.1666666666666,113.28880748880749,548.5833333333334,113.03793243793244,551,112.78705738705739C553.4166666666666,112.53618233618234,555.8333333333334,112.28530728530728,558.25,112.03443223443223C560.6666666666666,111.78355718355718,563.0833333333334,111.53268213268214,565.5,111.28180708180709C567.9166666666666,111.03093203093204,570.3333333333334,110.78005698005698,572.75,110.52918192918193C575.1666666666666,110.27830687830688,577.5833333333334,110.02743182743183,580,109.77655677655677C582.4166666666666,109.52568172568172,584.8333333333334,109.27480667480668,587.25,109.02393162393163C589.6666666666666,108.77305657305658,592.0833333333334,108.52218152218153,594.5,108.27130647130647C596.9166666666666,108.02043142043142,599.3333333333334,107.76955636955637,601.75,107.51868131868132C604.1666666666666,107.26780626780626,606.5833333333334,107.01693121693121,609,106.76605616605616C611.4166666666666,106.51518111518111,613.8333333333334,106.26430606430607,616.25,106.01343101343102C618.6666666666666,105.76255596255596,621.0833333333334,105.51168091168091,623.5,105.26080586080586C625.9166666666666,105.00993080993081,628.3333333333334,104.75905575905576,630.75,104.5081807081807C633.1666666666666,104.25730565730565,635.5833333333334,104.00643060643061,638,103.75555555555556C640.4166666666666,103.50468050468051,642.8333333333334,103.25380545380546,645.25,103.0029304029304C647.6666666666666,102.75205535205535,650.0833333333334,102.5011803011803,652.5,102.25030525030525C654.9166666666666,101.9994301994302,657.3333333333334,101.74855514855516,659.75,101.4976800976801C662.1666666666666,101.24680504680505,664.5833333333334,100.99592999593,667,100.74505494505495C669.4166666666666,100.4941798941799,671.8333333333334,100.24330484330486,674.25,99.9924297924298C676.6666666666666,99.74155474155475,679.0833333333334,99.4906796906797,681.5,99.23980463980465C683.9166666666666,98.9889295889296,686.3333333333334,98.73805453805454,688.75,98.48717948717949C691.1666666666666,98.23630443630444,693.5833333333334,97.98542938542938,696,97.73455433455433C698.4166666666666,97.48367928367928,700.8333333333334,97.23280423280423,703.25,96.98192918192917C705.6666666666666,96.73105413105412,708.0833333333334,96.48017908017908,710.5,96.22930402930403C712.9166666666666,95.97842897842898,715.3333333333334,95.72755392755393,717.75,95.47667887667887C720.1666666666666,95.22580382580382,722.5833333333334,94.97492877492877,725,94.72405372405372C727.4166666666666,94.47317867317867,729.8333333333334,94.22230362230363,732.25,93.97142857142858C734.6666666666666,93.72055352055352,737.0833333333334,93.46967846967847,739.5,93.21880341880342C741.9166666666666,92.96792836792837,744.3333333333334,92.71705331705331,746.75,92.46617826617826C749.1666666666666,92.21530321530321,751.5833333333334,91.96442816442817,754,91.71355311355312C756.4166666666666,91.46267806267807,758.8333333333334,91.21180301180301,761.25,90.96092796092796C763.6666666666666,90.71005291005291,766.0833333333334,90.45917785917787,768.5,90.20830280830282C770.9166666666666,89.95742775742777,773.3333333333334,89.70655270655271,775.75,89.45567765567766C778.1666666666666,89.20480260480261,780.5833333333334,88.95392755392756,783,88.7030525030525C785.4166666666667,88.45217745217745,787.8333333333334,88.2013024013024,790.2500000000001,87.95042735042735C792.6666666666667,87.6995522995523,795.0833333333335,87.44867724867724,797.5000000000001,87.19780219780219C799.9166666666667,86.94692714692714,802.3333333333335,86.6960520960521,804.7500000000001,86.44517704517705C807.1666666666667,86.194301994302,809.5833333333335,85.94342694342694,812.0000000000001,85.69255189255189C814.4166666666667,85.44167684167684,816.8333333333333,85.19080179080179,819.2499999999999,84.93992673992673C821.6666666666665,84.68905168905168,824.0833333333333,84.43817663817664,826.4999999999999,84.18730158730159C828.9166666666665,83.93642653642654,831.3333333333333,83.68555148555149,833.7499999999999,83.43467643467643C836.1666666666665,83.18380138380138,838.5833333333333,82.93292633292633,840.9999999999999,82.68205128205128C843.4166666666666,82.43117623117622,845.8333333333333,82.18030118030119,848.25,81.92942612942613C850.6666666666666,81.67855107855108,853.0833333333334,81.42767602767604,855.5,81.17680097680099C857.9166666666666,80.92592592592594,860.3333333333334,80.67505087505089,862.75,80.42417582417583C865.1666666666666,80.17330077330078,867.5833333333334,79.92242572242573,870,79.67155067155068C872.4166666666666,79.42067562067562,874.8333333333334,79.16980056980057,877.25,78.91892551892552C879.6666666666666,78.66805046805047,882.0833333333334,78.41717541717541,884.5,78.16630036630036C886.9166666666666,77.91542531542531,889.3333333333334,77.66455026455026,891.75,77.4136752136752C894.1666666666666,77.16280016280015,896.5833333333334,76.91192511192511,899,76.66105006105006C901.4166666666666,76.41017501017501,903.8333333333334,76.15929995929996,906.25,75.9084249084249C908.6666666666666,75.65754985754985,911.0833333333334,75.40667480667481,913.5,75.15579975579976C915.9166666666666,74.90492470492471,918.3333333333334,74.65404965404966,920.75,74.4031746031746C923.1666666666666,74.15229955229955,925.5833333333334,73.9014245014245,928,73.65054945054945C930.4166666666666,73.3996743996744,932.8333333333334,73.14879934879934,935.25,72.89792429792429C937.6666666666666,72.64704924704924,940.0833333333334,72.3961741961742,942.5,72.14529914529915C944.9166666666666,71.8944240944241,947.3333333333334,71.64354904354906,949.75,71.392673992674C952.1666666666666,71.14179894179895,954.5833333333334,70.8909238909239,957,70.64004884004885C959.4166666666666,70.3891737891738,961.8333333333334,70.13829873829873,964.25,69.88742368742368C966.6666666666667,69.63654863654862,969.0833333333334,69.38567358567359,971.5000000000001,69.13479853479853C973.9166666666667,68.88392348392348,976.3333333333335,68.63304843304843,978.7500000000001,68.38217338217338C981.1666666666667,68.13129833129832,983.5833333333335,67.88042328042327,986.0000000000001,67.62954822954822C988.4166666666667,67.37867317867317,990.8333333333335,67.12779812779813,993.2500000000001,66.87692307692308C995.6666666666667,66.62604802604803,998.0833333333333,66.37517297517297,1000.4999999999999,66.12429792429792C1002.9166666666665,65.87342287342287,1005.3333333333333,65.62254782254782,1007.7499999999999,65.37167277167276C1010.1666666666665,65.12079772079771,1012.5833333333333,64.86992266992267,1014.9999999999999,64.61904761904762C1017.4166666666665,64.36817256817257,1019.8333333333333,64.11729751729753,1022.2499999999999,63.86642246642248C1024.6666666666665,63.615547415547425,1027.0833333333333,63.364672364672366,1029.5,63.11379731379731C1031.9166666666667,62.86292226292226,1034.3333333333333,62.61204721204721,1036.75,62.361172161172156C1039.1666666666667,62.110297110297104,1041.5833333333333,61.859422059422066,1044,61.60854700854701C1046.4166666666667,61.35767195767196,1048.8333333333333,61.10679690679691,1051.25,60.855921855921856C1053.6666666666667,60.605046805046804,1056.0833333333333,60.35417175417175,1058.5,60.1032967032967C1060.9166666666667,59.85242165242165,1063.3333333333333,59.60154660154661,1065.75,59.35067155067156C1068.1666666666667,59.099796499796504,1070.5833333333333,58.84892144892145,1073,58.5980463980464C1075.4166666666667,58.34717134717135,1077.8333333333333,58.096296296296295,1080.25,57.84542124542124C1082.6666666666667,57.59454619454619,1085.0833333333333,57.343671143671145,1087.5,57.09279609279609C1089.9166666666667,56.84192104192104,1092.3333333333333,56.59104599104599,1094.75,56.340170940170935C1097.1666666666667,56.08929588929588,1099.5833333333333,55.83842083842083,1102,55.58754578754578C1104.4166666666667,55.336670736670726,1106.8333333333333,55.08579568579568,1109.25,54.834920634920636C1111.6666666666667,54.58404558404559,1114.0833333333333,54.333170533170545,1116.5,54.08229548229549C1118.9166666666667,53.83142043142044,1121.3333333333333,53.58054538054538,1123.75,53.32967032967033C1126.1666666666667,53.078795278795276,1128.5833333333333,52.827920227920224,1131,52.57704517704517C1133.4166666666667,52.32617012617012,1135.8333333333333,52.07529507529508,1138.25,51.82442002442003C1140.6666666666667,51.573544973544976,1143.0833333333333,51.322669922669924,1145.5,51.07179487179487C1147.9166666666667,50.82091982091982,1150.3333333333333,50.57004477004478,1152.75,50.31916971916973C1155.1666666666667,50.068294668294676,1157.5833333333333,49.81741961741961,1160,49.56654456654456C1162.4166666666667,49.315669515669505,1164.8333333333333,49.06479446479446,1167.25,48.813919413919415C1169.6666666666667,48.56304436304437,1172.0833333333333,48.31216931216932,1174.5,48.061294261294265C1176.9166666666667,47.81041921041921,1179.3333333333333,47.55954415954416,1181.75,47.30866910866911C1184.1666666666667,47.057794057794055,1186.5833333333333,46.806919006919,1189,46.55604395604395C1191.4166666666667,46.3051689051689,1193.8333333333333,46.05429385429386,1196.25,45.80341880341881C1198.6666666666667,45.552543752543755,1201.0833333333333,45.3016687016687,1203.5,45.05079365079365C1205.9166666666667,44.7999185999186,1208.3333333333333,44.549043549043546,1210.75,44.298168498168494C1213.1666666666667,44.04729344729344,1215.5833333333333,43.79641839641839,1218,43.545543345543344C1220.4166666666667,43.2946682946683,1222.8333333333333,43.04379324379325,1225.25,42.7929181929182C1227.6666666666667,42.54204314204315,1230.0833333333333,42.291168091168096,1232.5,42.040293040293044C1234.9166666666667,41.78941798941799,1237.3333333333333,41.53854293854294,1239.75,41.28766788766789C1242.1666666666667,41.036792836792834,1244.5833333333333,40.785917785917796,1247,40.535042735042744C1249.4166666666667,40.28416768416769,1251.8333333333333,40.03329263329264,1254.25,39.78241758241759C1256.6666666666667,39.531542531542534,1259.0833333333333,39.28066748066748,1261.5,39.02979242979243C1263.9166666666667,38.77891737891738,1266.3333333333333,38.52804232804233,1268.75,38.27716727716728C1271.1666666666667,38.02629222629223,1273.5833333333333,37.775417175417175,1276,37.52454212454212C1278.4166666666667,37.27366707366707,1280.8333333333333,37.02279202279203,1283.25,36.77191697191698C1285.6666666666667,36.52104192104193,1288.0833333333333,36.270166870166875,1290.5,36.01929181929182C1292.9166666666667,35.76841676841677,1295.3333333333333,35.51754171754172,1297.75,35.266666666666666C1300.1666666666667,35.01579161579161,1302.5833333333333,34.76491656491657,1305,34.514041514041516C1307.4166666666667,34.26316646316646,1309.8333333333333,34.01229141229141,1312.25,33.76141636141636C1314.6666666666667,33.510541310541306,1317.0833333333333,33.259666259666254,1319.5,33.0087912087912C1321.9166666666667,32.75791615791615,1324.3333333333333,32.50704110704111,1326.75,32.25616605616606C1329.1666666666667,32.00529100529101,1331.5833333333333,31.754415954415954,1334,31.5035409035409C1336.4166666666667,31.25266585266585,1338.8333333333333,31.001790801790793,1341.25,30.750915750915745C1343.6666666666667,30.500040700040696,1346.0833333333333,30.24916564916566,1348.5,29.998290598290613C1350.9166666666667,29.747415547415564,1353.3333333333333,29.496540496540494,1355.75,29.24566544566544C1358.1666666666667,28.99479039479039,1360.5833333333333,28.743915343915347,1363,28.493040293040295C1365.4166666666667,28.242165242165242,1367.8333333333333,27.99129019129018,1370.25,27.740415140415127C1372.6666666666667,27.489540089540075,1375.0833333333333,27.238665038665026,1377.5,26.98778998778998C1379.9166666666667,26.736914936914935,1382.3333333333333,26.486039886039897,1384.75,26.23516483516485C1387.1666666666667,25.9842897842898,1389.5833333333333,25.73341473341473,1392,25.482539682539677C1394.4166666666667,25.231664631664625,1396.8333333333333,24.980789580789583,1399.25,24.729914529914534C1401.6666666666667,24.479039479039486,1404.0833333333333,24.22816442816443,1406.5,23.977289377289377C1408.9166666666667,23.726414326414325,1411.3333333333333,23.47553927553927,1413.75,23.22466422466422C1416.1666666666667,22.97378917378917,1418.5833333333333,22.722914122914123,1421,22.472039072039074C1423.4166666666667,22.221164021164025,1425.8333333333333,21.970288970288976,1428.25,21.719413919413928C1430.6666666666667,21.46853886853888,1433.0833333333333,21.21766381766382,1435.5,20.96678876678877C1437.9166666666667,20.71591371591372,1440.3333333333333,20.46503866503868,1442.75,20.214163614163628C1445.1666666666667,19.963288563288575,1447.5833333333333,19.712413512413516,1450,19.461538461538456" fill="transparent" stroke-linecap="round" stroke="#B6509E" stroke-width="2"></path><path class="visx-linepath" d="M0,113.2307692307214C2.4166666666666665,113.22279972277182,4.833333333333334,113.21483021482224,7.25,113.20686070686071C9.666666666666666,113.19889119889918,12.083333333333334,113.19092169092168,14.5,113.18295218295218C16.916666666666668,113.17498267498267,19.333333333333332,113.16701316701317,21.75,113.15904365904366C24.166666666666668,113.15107415107416,26.583333333333332,113.14310464310464,29,113.13513513513513C31.416666666666668,113.12716562716562,33.833333333333336,113.11919611919612,36.25,113.11122661122661C38.666666666666664,113.1032571032571,41.083333333333336,113.09528759528759,43.5,113.08731808731808C45.91666666666667,113.07934857934858,48.333333333333336,113.07137907137907,50.75000000000001,113.06340956340956C53.16666666666667,113.05544005544006,55.583333333333336,113.04747054747055,58,113.03950103950105C60.416666666666664,113.03153153153154,62.833333333333336,113.02356202356202,65.25,113.01559251559252C67.66666666666667,113.00762300762301,70.08333333333333,112.99965349965349,72.5,112.99168399168398C74.91666666666667,112.98371448371448,77.33333333333333,112.97574497574497,79.75,112.96777546777547C82.16666666666667,112.95980595980596,84.58333333333333,112.95183645183644,87,112.94386694386694C89.41666666666667,112.93589743589743,91.83333333333333,112.92792792792793,94.25,112.91995841995842C96.66666666666667,112.91198891198891,99.08333333333334,112.90401940401941,101.50000000000001,112.8960498960499C103.91666666666667,112.8880803880804,106.33333333333334,112.88011088011088,108.75,112.87214137214137C111.16666666666667,112.86417186417187,113.58333333333333,112.85620235620236,116,112.84823284823285C118.41666666666667,112.84026334026335,120.83333333333334,112.83229383229383,123.25000000000001,112.82432432432432C125.66666666666667,112.81635481635482,128.08333333333334,112.80838530838531,130.5,112.8004158004158C132.91666666666666,112.7924462924463,135.33333333333334,112.78447678447678,137.75,112.77650727650727C140.16666666666666,112.76853776853777,142.58333333333334,112.76056826056825,145,112.75259875259874C147.41666666666666,112.74462924462924,149.83333333333334,112.73665973665973,152.25,112.72869022869023C154.66666666666666,112.72072072072072,157.08333333333334,112.71275121275121,159.5,112.70478170478171C161.91666666666666,112.6968121968122,164.33333333333334,112.68884268884268,166.75,112.68087318087318C169.16666666666666,112.67290367290367,171.58333333333334,112.66493416493417,174,112.65696465696466C176.41666666666666,112.64899514899516,178.83333333333334,112.64102564102564,181.25,112.63305613305613C183.66666666666666,112.62508662508662,186.08333333333334,112.61711711711712,188.5,112.60914760914761C190.91666666666666,112.6011781011781,193.33333333333334,112.5932085932086,195.75,112.5852390852391C198.16666666666669,112.57726957726959,200.58333333333334,112.56930006930006,203.00000000000003,112.56133056133055C205.41666666666669,112.55336105336104,207.83333333333331,112.54539154539154,210.24999999999997,112.53742203742203C212.66666666666666,112.52945252945253,215.08333333333331,112.52148302148302,217.5,112.51351351351352C219.91666666666666,112.50554400554401,222.33333333333334,112.4975744975745,224.75,112.489604989605C227.16666666666666,112.4816354816355,229.58333333333334,112.47366597366597,232,112.46569646569647C234.41666666666666,112.45772695772696,236.83333333333334,112.44975744975744,239.25,112.44178794178794C241.66666666666669,112.43381843381843,244.08333333333334,112.42584892584892,246.50000000000003,112.41787941787942C248.91666666666669,112.40990990990991,251.33333333333331,112.40194040194041,253.74999999999997,112.3939708939709C256.16666666666663,112.3860013860014,258.5833333333333,112.37803187803186,261,112.37006237006236C263.4166666666667,112.36209286209285,265.8333333333333,112.35412335412335,268.25,112.34615384615384C270.6666666666667,112.33818433818433,273.0833333333333,112.33021483021483,275.5,112.32224532224532C277.9166666666667,112.31427581427582,280.3333333333333,112.30630630630631,282.75,112.2983367983368C285.1666666666667,112.2903672903673,287.5833333333333,112.28239778239778,290,112.27442827442827C292.4166666666667,112.26645876645877,294.8333333333333,112.25848925848925,297.25,112.25051975051974C299.6666666666667,112.24255024255024,302.0833333333333,112.23458073458073,304.5,112.22661122661123C306.9166666666667,112.21864171864172,309.3333333333333,112.21067221067221,311.75,112.20270270270271C314.1666666666667,112.1947331947332,316.5833333333333,112.18676368676368,319,112.17879417879418C321.4166666666667,112.17082467082467,323.8333333333333,112.16285516285515,326.25,112.15488565488565C328.6666666666667,112.14691614691614,331.0833333333333,112.13894663894663,333.5,112.13097713097713C335.9166666666667,112.12300762300762,338.3333333333333,112.11503811503812,340.75,112.10706860706861C343.1666666666667,112.0990990990991,345.5833333333333,112.0911295911296,348,112.0831600831601C350.4166666666667,112.07519057519059,352.8333333333333,112.06722106722106,355.25,112.05925155925155C357.6666666666667,112.05128205128204,360.0833333333333,112.04331254331254,362.5,112.03534303534303C364.9166666666667,112.02737352737353,367.3333333333333,112.01940401940402,369.75,112.01143451143452C372.1666666666667,112.00346500346501,374.5833333333333,111.99549549549549,377,111.98752598752598C379.4166666666667,111.97955647955648,381.8333333333333,111.97158697158697,384.25,111.96361746361747C386.6666666666667,111.95564795564796,389.0833333333333,111.94767844767844,391.5,111.93970893970894C393.9166666666667,111.93173943173943,396.33333333333337,111.92376992376992,398.75000000000006,111.91580041580042C401.16666666666674,111.90783090783091,403.58333333333337,111.89986139986141,406.00000000000006,111.8918918918919C408.4166666666667,111.8839223839224,410.8333333333333,111.87595287595288,413.24999999999994,111.86798336798337C415.66666666666663,111.86001386001386,418.08333333333326,111.85204435204435,420.49999999999994,111.84407484407484C422.91666666666663,111.83610533610533,425.3333333333333,111.82813582813583,427.75,111.82016632016632C430.1666666666667,111.81219681219682,432.5833333333333,111.8042273042273,435,111.79625779625779C437.4166666666667,111.78828828828829,439.8333333333333,111.78031878031878,442.25,111.77234927234927C444.6666666666667,111.76437976437977,447.0833333333333,111.75641025641025,449.5,111.74844074844074C451.9166666666667,111.74047124047124,454.3333333333333,111.73250173250173,456.75,111.72453222453223C459.1666666666667,111.71656271656272,461.5833333333333,111.70859320859321,464,111.70062370062371C466.4166666666667,111.6926541926542,468.8333333333333,111.68468468468468,471.25,111.67671517671518C473.6666666666667,111.66874566874567,476.0833333333333,111.66077616077615,478.5,111.65280665280665C480.9166666666667,111.64483714483714,483.33333333333337,111.63686763686763,485.75000000000006,111.62889812889813C488.16666666666674,111.62092862092862,490.58333333333337,111.6129591129591,493.00000000000006,111.6049896049896C495.4166666666667,111.59702009702009,497.8333333333333,111.58905058905059,500.24999999999994,111.58108108108108C502.66666666666663,111.57311157311158,505.08333333333326,111.56514206514207,507.49999999999994,111.55717255717256C509.91666666666663,111.54920304920306,512.3333333333333,111.54123354123354,514.75,111.53326403326403C517.1666666666666,111.52529452529453,519.5833333333334,111.51732501732502,522,111.50935550935552C524.4166666666666,111.50138600138601,526.8333333333334,111.49341649341649,529.25,111.48544698544698C531.6666666666666,111.47747747747748,534.0833333333334,111.47747747747748,536.5,111.46153846153847C538.9166666666666,111.44559944559946,541.3333333333334,110.95978835978836,543.75,110.70891330891331C546.1666666666666,110.45803825803826,548.5833333333334,110.2071632071632,551,109.95628815628815C553.4166666666666,109.7054131054131,555.8333333333334,109.45453805453805,558.25,109.203663003663C560.6666666666666,108.95278795278794,563.0833333333334,108.7019129019129,565.5,108.45103785103785C567.9166666666666,108.2001628001628,570.3333333333334,107.94928774928775,572.75,107.6984126984127C575.1666666666666,107.44753764753764,577.5833333333334,107.19666259666259,580,106.94578754578754C582.4166666666666,106.69491249491249,584.8333333333334,106.44403744403745,587.25,106.1931623931624C589.6666666666666,105.94228734228734,592.0833333333334,105.69141229141229,594.5,105.44053724053724C596.9166666666666,105.18966218966219,599.3333333333334,104.93878713878715,601.75,104.6879120879121C604.1666666666666,104.43703703703704,606.5833333333334,104.18616198616199,609,103.93528693528694C611.4166666666666,103.68441188441189,613.8333333333334,103.43353683353683,616.25,103.18266178266178C618.6666666666666,102.93178673178673,621.0833333333334,102.68091168091169,623.5,102.43003663003664C625.9166666666666,102.17916157916159,628.3333333333334,101.92828652828653,630.75,101.67741147741148C633.1666666666666,101.42653642653643,635.5833333333334,101.17566137566138,638,100.92478632478633C640.4166666666666,100.67391127391127,642.8333333333334,100.42303622303622,645.25,100.17216117216117C647.6666666666666,99.92128612128612,650.0833333333334,99.67041107041106,652.5,99.41953601953601C654.9166666666666,99.16866096866096,657.3333333333334,98.91778591778592,659.75,98.66691086691087C662.1666666666666,98.41603581603582,664.5833333333334,98.16516076516076,667,97.91428571428571C669.4166666666666,97.66341066341066,671.8333333333334,97.41253561253562,674.25,97.16166056166057C676.6666666666666,96.91078551078552,679.0833333333334,96.65991045991046,681.5,96.40903540903541C683.9166666666666,96.15816035816036,686.3333333333334,95.9072853072853,688.75,95.65641025641025C691.1666666666666,95.4055352055352,693.5833333333334,95.15466015466016,696,94.90378510378511C698.4166666666666,94.65291005291006,700.8333333333334,94.402035002035,703.25,94.15115995115995C705.6666666666666,93.9002849002849,708.0833333333334,93.64940984940985,710.5,93.3985347985348C712.9166666666666,93.14765974765974,715.3333333333334,92.8967846967847,717.75,92.64590964590965C720.1666666666666,92.3950345950346,722.5833333333334,92.14415954415955,725,91.8932844932845C727.4166666666666,91.64240944240944,729.8333333333334,91.39153439153439,732.25,91.14065934065934C734.6666666666666,90.88978428978429,737.0833333333334,90.63890923890924,739.5,90.38803418803418C741.9166666666666,90.13715913715913,744.3333333333334,89.88628408628408,746.75,89.63540903540903C749.1666666666666,89.38453398453397,751.5833333333334,89.13365893365894,754,88.88278388278388C756.4166666666666,88.63190883190883,758.8333333333334,88.38103378103378,761.25,88.13015873015873C763.6666666666666,87.87928367928367,766.0833333333334,87.62840862840864,768.5,87.37753357753358C770.9166666666666,87.12665852665853,773.3333333333334,86.87578347578348,775.75,86.62490842490843C778.1666666666666,86.37403337403337,780.5833333333334,86.12315832315832,783,85.87228327228327C785.4166666666667,85.62140822140822,787.8333333333334,85.37053317053318,790.2500000000001,85.11965811965813C792.6666666666667,84.86878306878307,795.0833333333335,84.61790801790801,797.5000000000001,84.36703296703296C799.9166666666667,84.1161579161579,802.3333333333335,83.86528286528286,804.7500000000001,83.61440781440781C807.1666666666667,83.36353276353276,809.5833333333335,83.11265771265772,812.0000000000001,82.86178266178267C814.4166666666667,82.61090761090762,816.8333333333333,82.36003256003256,819.2499999999999,82.10915750915751C821.6666666666665,81.85828245828246,824.0833333333333,81.60740740740741,826.4999999999999,81.35653235653236C828.9166666666665,81.1056573056573,831.3333333333333,80.85478225478225,833.7499999999999,80.6039072039072C836.1666666666665,80.35303215303215,838.5833333333333,80.10215710215711,840.9999999999999,79.85128205128206C843.4166666666666,79.600407000407,845.8333333333333,79.34953194953195,848.25,79.0986568986569C850.6666666666666,78.84778184778185,853.0833333333334,78.5969067969068,855.5,78.34603174603174C857.9166666666666,78.09515669515669,860.3333333333334,77.84428164428165,862.75,77.5934065934066C865.1666666666666,77.34253154253155,867.5833333333334,77.0916564916565,870,76.84078144078144C872.4166666666666,76.58990638990639,874.8333333333334,76.33903133903134,877.25,76.08815628815628C879.6666666666666,75.83728123728123,882.0833333333334,75.5864061864062,884.5,75.33553113553114C886.9166666666666,75.08465608465609,889.3333333333334,74.83378103378104,891.75,74.58290598290598C894.1666666666666,74.33203093203093,896.5833333333334,74.08115588115588,899,73.83028083028083C901.4166666666666,73.57940577940577,903.8333333333334,73.32853072853074,906.25,73.07765567765568C908.6666666666666,72.82678062678063,911.0833333333334,72.57590557590558,913.5,72.32503052503053C915.9166666666666,72.07415547415548,918.3333333333334,71.82328042328042,920.75,71.57240537240537C923.1666666666666,71.32153032153032,925.5833333333334,71.07065527065527,928,70.81978021978021C930.4166666666666,70.56890516890516,932.8333333333334,70.31803011803012,935.25,70.06715506715507C937.6666666666666,69.81628001628002,940.0833333333334,69.56540496540497,942.5,69.31452991452991C944.9166666666666,69.06365486365486,947.3333333333334,68.81277981277981,949.75,68.56190476190476C952.1666666666666,68.3110297110297,954.5833333333334,68.06015466015467,957,67.80927960927961C959.4166666666666,67.55840455840456,961.8333333333334,67.30752950752951,964.25,67.05665445665446C966.6666666666667,66.8057794057794,969.0833333333334,66.55490435490435,971.5000000000001,66.3040293040293C973.9166666666667,66.05315425315425,976.3333333333335,65.80227920227921,978.7500000000001,65.55140415140416C981.1666666666667,65.3005291005291,983.5833333333335,65.04965404965405,986.0000000000001,64.798778998779C988.4166666666667,64.54790394790395,990.8333333333335,64.2970288970289,993.2500000000001,64.04615384615384C995.6666666666667,63.7952787952788,998.0833333333333,63.54440374440374,1000.4999999999999,63.29352869352869C1002.9166666666665,63.04265364265364,1005.3333333333333,62.7917785917786,1007.7499999999999,62.54090354090355C1010.1666666666665,62.2900284900285,1012.5833333333333,62.039153439153445,1014.9999999999999,61.78827838827839C1017.4166666666665,61.53740333740334,1019.8333333333333,61.28652828652829,1022.2499999999999,61.035653235653236C1024.6666666666665,60.78477818477818,1027.0833333333333,60.53390313390314,1029.5,60.283028083028086C1031.9166666666667,60.03215303215303,1034.3333333333333,59.78127798127798,1036.75,59.53040293040293C1039.1666666666667,59.279527879527876,1041.5833333333333,59.028652828652824,1044,58.77777777777777C1046.4166666666667,58.52690272690272,1048.8333333333333,58.27602767602768,1051.25,58.02515262515263C1053.6666666666667,57.774277574277576,1056.0833333333333,57.523402523402524,1058.5,57.27252747252747C1060.9166666666667,57.02165242165242,1063.3333333333333,56.77077737077738,1065.75,56.51990231990233C1068.1666666666667,56.269027269027276,1070.5833333333333,56.018152218152224,1073,55.76727716727717C1075.4166666666667,55.51640211640212,1077.8333333333333,55.26552706552706,1080.25,55.01465201465201C1082.6666666666667,54.763776963776955,1085.0833333333333,54.51290191290192,1087.5,54.262026862026865C1089.9166666666667,54.01115181115181,1092.3333333333333,53.760276760276746,1094.75,53.50940170940169C1097.1666666666667,53.25852665852664,1099.5833333333333,53.00765160765161,1102,52.756776556776565C1104.4166666666667,52.50590150590152,1106.8333333333333,52.25502645502646,1109.25,52.00415140415141C1111.6666666666667,51.753276353276355,1114.0833333333333,51.5024013024013,1116.5,51.25152625152625C1118.9166666666667,51.0006512006512,1121.3333333333333,50.749776149776146,1123.75,50.498901098901094C1126.1666666666667,50.24802604802604,1128.5833333333333,49.997150997150996,1131,49.746275946275944C1133.4166666666667,49.49540089540089,1135.8333333333333,49.24452584452585,1138.25,48.9936507936508C1140.6666666666667,48.74277574277575,1143.0833333333333,48.49190069190068,1145.5,48.24102564102563C1147.9166666666667,47.99015059015058,1150.3333333333333,47.73927553927553,1152.75,47.48840048840049C1155.1666666666667,47.23752543752544,1157.5833333333333,46.986650386650396,1160,46.735775335775344C1162.4166666666667,46.48490028490029,1164.8333333333333,46.23402523402524,1167.25,45.98315018315019C1169.6666666666667,45.732275132275134,1172.0833333333333,45.481400081400075,1174.5,45.23052503052502C1176.9166666666667,44.97964997964997,1179.3333333333333,44.728774928774925,1181.75,44.47789987789988C1184.1666666666667,44.227024827024835,1186.5833333333333,43.97614977614979,1189,43.72527472527474C1191.4166666666667,43.474399674399685,1193.8333333333333,43.22352462352463,1196.25,42.97264957264958C1198.6666666666667,42.72177452177453,1201.0833333333333,42.470899470899475,1203.5,42.22002442002442C1205.9166666666667,41.96914936914937,1208.3333333333333,41.718274318274325,1210.75,41.46739926739927C1213.1666666666667,41.21652421652422,1215.5833333333333,40.96564916564916,1218,40.71477411477411C1220.4166666666667,40.463899063899056,1222.8333333333333,40.21302401302401,1225.25,39.96214896214896C1227.6666666666667,39.711273911273906,1230.0833333333333,39.46039886039887,1232.5,39.209523809523816C1234.9166666666667,38.95864875864876,1237.3333333333333,38.70777370777371,1239.75,38.45689865689866C1242.1666666666667,38.20602360602361,1244.5833333333333,37.95514855514857,1247,37.704273504273516C1249.4166666666667,37.453398453398464,1251.8333333333333,37.20252340252341,1254.25,36.95164835164836C1256.6666666666667,36.70077330077331,1259.0833333333333,36.44989824989825,1261.5,36.199023199023195C1263.9166666666667,35.94814814814814,1266.3333333333333,35.697273097273104,1268.75,35.44639804639805C1271.1666666666667,35.195522995523,1273.5833333333333,34.94464794464795,1276,34.693772893772895C1278.4166666666667,34.44289784289784,1280.8333333333333,34.19202279202279,1283.25,33.94114774114774C1285.6666666666667,33.690272690272685,1288.0833333333333,33.43939763939765,1290.5,33.188522588522595C1292.9166666666667,32.93764753764754,1295.3333333333333,32.68677248677249,1297.75,32.43589743589744C1300.1666666666667,32.185022385022386,1302.5833333333333,31.934147334147326,1305,31.683272283272277C1307.4166666666667,31.43239723239723,1309.8333333333333,31.181522181522183,1312.25,30.930647130647134C1314.6666666666667,30.679772079772086,1317.0833333333333,30.428897028897026,1319.5,30.178021978021974C1321.9166666666667,29.92714692714692,1324.3333333333333,29.67627187627188,1326.75,29.42539682539683C1329.1666666666667,29.174521774521782,1331.5833333333333,28.923646723646726,1334,28.672771672771674C1336.4166666666667,28.42189662189662,1338.8333333333333,28.17102157102157,1341.25,27.920146520146517C1343.6666666666667,27.669271469271465,1346.0833333333333,27.41839641839642,1348.5,27.16752136752137C1350.9166666666667,26.91664631664632,1353.3333333333333,26.665771265771266,1355.75,26.414896214896213C1358.1666666666667,26.16402116402116,1360.5833333333333,25.913146113146105,1363,25.662271062271056C1365.4166666666667,25.411396011396008,1367.8333333333333,25.160520960520977,1370.25,24.909645909645924C1372.6666666666667,24.658770858770872,1375.0833333333333,24.407895807895805,1377.5,24.157020757020753C1379.9166666666667,23.9061457061457,1382.3333333333333,23.655270655270655,1384.75,23.404395604395607C1387.1666666666667,23.153520553520558,1389.5833333333333,22.902645502645502,1392,22.65177045177045C1394.4166666666667,22.400895400895397,1396.8333333333333,22.15002035002034,1399.25,21.899145299145292C1401.6666666666667,21.648270248270244,1404.0833333333333,21.397395197395202,1406.5,21.14652014652015C1408.9166666666667,20.895645095645097,1411.3333333333333,20.644770044770027,1413.75,20.39389499389498C1416.1666666666667,20.14301994301993,1418.5833333333333,19.89214489214489,1421,19.641269841269846C1423.4166666666667,19.3903947903948,1425.8333333333333,19.139519739519752,1428.25,18.8886446886447C1430.6666666666667,18.637769637769647,1433.0833333333333,18.38689458689458,1435.5,18.136019536019532C1437.9166666666667,17.885144485144483,1440.3333333333333,17.63426943426945,1442.75,17.3833943833944C1445.1666666666667,17.13251933251935,1447.5833333333333,16.881644281644288,1450,16.63076923076923" fill="transparent" stroke-linecap="round" stroke="#E7C6DF" stroke-width="2"></path><g class="visx-group visx-axis visx-axis-bottom" transform="translate(0, 115)"><g class="visx-group visx-axis-tick" transform="translate(0, 0)"><line class="visx-line" x1="0" y1="0" x2="0" y2="8" fill="transparent" shape-rendering="crispEdges" stroke="#000" stroke-width="0" stroke-linecap="square"></line><svg x="0" y="0" font-size="10" style="overflow:visible"><text transform="" x="0" y="18" fill="#000" font-size="10" text-anchor="middle"><tspan x="0" dy="0em">0%</tspan></text></svg></g><g class="visx-group visx-axis-tick" transform="translate(0, 0)"><line class="visx-line" x1="362.5" y1="0" x2="362.5" y2="8" fill="transparent" shape-rendering="crispEdges" stroke="#000" stroke-width="0" stroke-linecap="square"></line><svg x="0" y="0" font-size="10" style="overflow:visible"><text transform="" x="362.5" y="18" fill="#000" font-size="10" text-anchor="middle"><tspan x="362.5" dy="0em">25%</tspan></text></svg></g><g class="visx-group visx-axis-tick" transform="translate(0, 0)"><line class="visx-line" x1="725" y1="0" x2="725" y2="8" fill="transparent" shape-rendering="crispEdges" stroke="#000" stroke-width="0" stroke-linecap="square"></line><svg x="0" y="0" font-size="10" style="overflow:visible"><text transform="" x="725" y="18" fill="#000" font-size="10" text-anchor="middle"><tspan x="725" dy="0em">50%</tspan></text></svg></g><g class="visx-group visx-axis-tick" transform="translate(0, 0)"><line class="visx-line" x1="1087.5" y1="0" x2="1087.5" y2="8" fill="transparent" shape-rendering="crispEdges" stroke="#000" stroke-width="0" stroke-linecap="square"></line><svg x="0" y="0" font-size="10" style="overflow:visible"><text transform="" x="1087.5" y="18" fill="#000" font-size="10" text-anchor="middle"><tspan x="1087.5" dy="0em">75%</tspan></text></svg></g><g class="visx-group visx-axis-tick" transform="translate(0, 0)"><line class="visx-line" x1="1450" y1="0" x2="1450" y2="8" fill="transparent" shape-rendering="crispEdges" stroke="#000" stroke-width="0" stroke-linecap="square"></line><svg x="0" y="0" font-size="10" style="overflow:visible"><text transform="" x="1450" y="18" fill="#000" font-size="10" text-anchor="middle"><tspan x="1450" dy="0em">100%</tspan></text></svg></g><line class="visx-line visx-axis-line" x1="0.5" y1="0" x2="1450.5" y2="0" fill="transparent" shape-rendering="crispEdges" stroke="#222" stroke-width="0"></line></g><g class="visx-group visx-axis visx-axis-left" transform="translate(0, 0)"><g class="visx-group visx-axis-tick" transform="translate(0, 0)"><line class="visx-line" x1="0" y1="115" x2="-8" y2="115" fill="transparent" shape-rendering="crispEdges" stroke="#222" stroke-width="0" stroke-linecap="square"></line><svg x="-30" y="0" font-size="8" style="overflow:visible"><text transform="" x="-8" y="115" fill="#000" font-size="8" text-anchor="start"><tspan x="-8" dy="0em">0%</tspan></text></svg></g><g class="visx-group visx-axis-tick" transform="translate(0, 0)"><line class="visx-line" x1="0" y1="26.538461538461533" x2="-8" y2="26.538461538461533" fill="transparent" shape-rendering="crispEdges" stroke="#222" stroke-width="0" stroke-linecap="square"></line><svg x="-30" y="0" font-size="8" style="overflow:visible"><text transform="" x="-8" y="26.538461538461533" fill="#000" font-size="8" text-anchor="start"><tspan x="-8" dy="0em">500%</tspan></text></svg></g><line class="visx-line visx-axis-line" x1="0" y1="115.5" x2="0" y2="0.5" fill="transparent" shape-rendering="crispEdges" stroke="#222" stroke-width="0"></line></g><rect class="visx-bar" width="1450" height="115" fill="transparent"></rect><line class="visx-line" x1="536.5" y1="28" x2="536.5" y2="115" fill="transparent" shape-rendering="crispEdges" stroke="#0062D2" stroke-width="1" pointer-events="none" stroke-dasharray="5,2"></line><svg x="0" y="0" font-size="10px" style="overflow:visible"><text transform="" x="536.5" y="20" font-size="10px" fill="#fff" stroke="#fff" stroke-width="0.8em" text-anchor="middle"><tspan x="536.5" dy="0.355em">Optimal 37%</tspan></text></svg><svg x="0" y="0" font-size="10px" style="overflow:visible"><text transform="" x="536.5" y="20" font-size="10px" fill="#62677B" text-anchor="middle"><tspan x="536.5" dy="0.355em">Optimal 37%</tspan></text></svg></g></svg>