<?xml version="1.0"?><svg xmlns="http://www.w3.org/2000/svg" xmlns:xlink= "http://www.w3.org/1999/xlink" style="background: white;" width="1500" height="185"> <g style="color: black; font-size: 13px; font-family: sans-serif; transform: translate(18px, 25px);"><g><circle r="3" cx="-6" cy="-5" style="fill: #B6509E" /><text>Borrow APR, variable</text></g><g style="transform: translateX(150px);"><circle r="3" cx="-6" cy="-5" style="fill: rgb(231, 198, 223)" /><text>Borrow APR, stable</text></g><g style="transform: translateX(290px);"><circle r="3" cx="-6" cy="-5" style="fill: rgb(0, 98, 210)" /><text>Utilization Rate</text></g></g><g class="visx-group" transform="translate(40, 50)"><g class="visx-group visx-rows" transform="translate(0, 0)"><line class="visx-line" x1="0" y1="115" x2="1450" y2="115" fill="transparent" shape-rendering="crispEdges" stroke="#000" stroke-width="1" stroke-dasharray="3,3" pointer-events="none"></line><line class="visx-line" x1="0" y1="73.92857142857142" x2="1450" y2="73.92857142857142" fill="transparent" shape-rendering="crispEdges" stroke="#000" stroke-width="1" stroke-dasharray="3,3" pointer-events="none"></line><line class="visx-line" x1="0" y1="32.857142857142854" x2="1450" y2="32.857142857142854" fill="transparent" shape-rendering="crispEdges" stroke="#000" stroke-width="1" stroke-dasharray="3,3" pointer-events="none"></line></g><path class="visx-linepath" d="M0,114.9999999999684C2.4166666666666665,114.99473443221599,4.833333333333334,114.9894688644636,7.25,114.9842032967033C9.666666666666666,114.978937728943,12.083333333333334,114.97367216117217,14.5,114.9684065934066C16.916666666666668,114.96314102564102,19.333333333333332,114.95787545787545,21.75,114.95260989010988C24.166666666666668,114.94734432234432,26.583333333333332,114.94207875457874,29,114.93681318681318C31.416666666666668,114.93154761904762,33.833333333333336,114.92628205128204,36.25,114.92101648351648C38.666666666666664,114.91575091575092,41.083333333333336,114.91048534798534,43.5,114.90521978021978C45.91666666666667,114.89995421245422,48.333333333333336,114.89468864468864,50.75000000000001,114.88942307692308C53.16666666666667,114.88415750915752,55.583333333333336,114.87889194139194,58,114.87362637362638C60.416666666666664,114.8683608058608,62.833333333333336,114.86309523809524,65.25,114.85782967032966C67.66666666666667,114.85256410256409,70.08333333333333,114.84729853479853,72.5,114.84203296703296C74.91666666666667,114.8367673992674,77.33333333333333,114.83150183150182,79.75,114.82623626373626C82.16666666666667,114.8209706959707,84.58333333333333,114.81570512820512,87,114.81043956043956C89.41666666666667,114.805173992674,91.83333333333333,114.79990842490842,94.25,114.79464285714286C96.66666666666667,114.7893772893773,99.08333333333334,114.78411172161174,101.50000000000001,114.77884615384616C103.91666666666667,114.7735805860806,106.33333333333334,114.76831501831501,108.75,114.76304945054945C111.16666666666667,114.75778388278387,113.58333333333333,114.7525183150183,116,114.74725274725274C118.41666666666667,114.74198717948718,120.83333333333334,114.7367216117216,123.25000000000001,114.73145604395604C125.66666666666667,114.72619047619048,128.08333333333334,114.7209249084249,130.5,114.71565934065934C132.91666666666666,114.71039377289378,135.33333333333334,114.7051282051282,137.75,114.69986263736264C140.16666666666666,114.69459706959708,142.58333333333334,114.6893315018315,145,114.68406593406594C147.41666666666666,114.67880036630038,149.83333333333334,114.6735347985348,152.25,114.66826923076923C154.66666666666666,114.66300366300365,157.08333333333334,114.65773809523809,159.5,114.65247252747253C161.91666666666666,114.64720695970696,164.33333333333334,114.64194139194139,166.75,114.63667582417582C169.16666666666666,114.63141025641026,171.58333333333334,114.62614468864469,174,114.62087912087912C176.41666666666666,114.61561355311356,178.83333333333334,114.61034798534799,181.25,114.60508241758242C183.66666666666666,114.59981684981686,186.08333333333334,114.5945512820513,188.5,114.58928571428572C190.91666666666666,114.58402014652015,193.33333333333334,114.57875457875457,195.75,114.57348901098901C198.16666666666669,114.56822344322343,200.58333333333334,114.56295787545787,203.00000000000003,114.5576923076923C205.41666666666669,114.55242673992674,207.83333333333331,114.54716117216117,210.24999999999997,114.5418956043956C212.66666666666666,114.53663003663004,215.08333333333331,114.53136446886447,217.5,114.5260989010989C219.91666666666666,114.52083333333334,222.33333333333334,114.51556776556777,224.75,114.5103021978022C227.16666666666666,114.50503663003664,229.58333333333334,114.49977106227107,232,114.49450549450549C234.41666666666666,114.48923992673991,236.83333333333334,114.48397435897435,239.25,114.47870879120879C241.66666666666669,114.47344322344323,244.08333333333334,114.46817765567765,246.50000000000003,114.46291208791209C248.91666666666669,114.45764652014653,251.33333333333331,114.45238095238095,253.74999999999997,114.44711538461539C256.16666666666663,114.44184981684982,258.5833333333333,114.43658424908425,261,114.43131868131869C263.4166666666667,114.42605311355312,265.8333333333333,114.42078754578756,268.25,114.41552197802199C270.6666666666667,114.41025641025641,273.0833333333333,114.40499084249083,275.5,114.39972527472527C277.9166666666667,114.39445970695971,280.3333333333333,114.38919413919413,282.75,114.38392857142857C285.1666666666667,114.37866300366301,287.5833333333333,114.37339743589743,290,114.36813186813187C292.4166666666667,114.3628663003663,294.8333333333333,114.35760073260073,297.25,114.35233516483517C299.6666666666667,114.3470695970696,302.0833333333333,114.34180402930403,304.5,114.33653846153847C306.9166666666667,114.3312728937729,309.3333333333333,114.32600732600733,311.75,114.32074175824177C314.1666666666667,114.3154761904762,316.5833333333333,114.31021062271063,319,114.30494505494505C321.4166666666667,114.29967948717947,323.8333333333333,114.29441391941391,326.25,114.28914835164835C328.6666666666667,114.28388278388279,331.0833333333333,114.27861721611721,333.5,114.27335164835165C335.9166666666667,114.26808608058609,338.3333333333333,114.26282051282051,340.75,114.25755494505495C343.1666666666667,114.25228937728939,345.5833333333333,114.24702380952381,348,114.24175824175825C350.4166666666667,114.23649267399269,352.8333333333333,114.23122710622712,355.25,114.22596153846155C357.6666666666667,114.22069597069597,360.0833333333333,114.2154304029304,362.5,114.21016483516483C364.9166666666667,114.20489926739927,367.3333333333333,114.1996336996337,369.75,114.19436813186813C372.1666666666667,114.18910256410257,374.5833333333333,114.18383699633699,377,114.17857142857143C379.4166666666667,114.17330586080587,381.8333333333333,114.16804029304029,384.25,114.16277472527473C386.6666666666667,114.15750915750917,389.0833333333333,114.15224358974359,391.5,114.14697802197803C393.9166666666667,114.14171245421247,396.33333333333337,114.1364468864469,398.75000000000006,114.13118131868133C401.16666666666674,114.12591575091577,403.58333333333337,114.12065018315019,406.00000000000006,114.11538461538461C408.4166666666667,114.11011904761905,410.8333333333333,114.10485347985347,413.24999999999994,114.09958791208791C415.66666666666663,114.09432234432235,418.08333333333326,114.08905677655677,420.49999999999994,114.08379120879121C422.91666666666663,114.07852564102565,425.3333333333333,114.07326007326007,427.75,114.06799450549451C430.1666666666667,114.06272893772895,432.5833333333333,114.05746336996337,435,114.05219780219781C437.4166666666667,114.04693223443225,439.8333333333333,114.04166666666669,442.25,114.03640109890111C444.6666666666667,114.03113553113553,447.0833333333333,114.02586996336996,449.5,114.0206043956044C451.9166666666667,114.01533882783883,454.3333333333333,114.01007326007326,456.75,114.0048076923077C459.1666666666667,113.99954212454213,461.5833333333333,113.99427655677655,464,113.98901098901099C466.4166666666667,113.98374542124543,468.8333333333333,113.97847985347985,471.25,113.97321428571429C473.6666666666667,113.96794871794873,476.0833333333333,113.96268315018315,478.5,113.95741758241759C480.9166666666667,113.95215201465201,483.33333333333337,113.94688644688645,485.75000000000006,113.94162087912088C488.16666666666674,113.93635531135531,490.58333333333337,113.93108974358974,493.00000000000006,113.92582417582418C495.4166666666667,113.92055860805861,497.8333333333333,113.91529304029304,500.24999999999994,113.91002747252747C502.66666666666663,113.90476190476191,505.08333333333326,113.89949633699634,507.49999999999994,113.89423076923077C509.91666666666663,113.88896520146521,512.3333333333333,113.88369963369964,514.75,113.87843406593407C517.1666666666666,113.87316849816851,519.5833333333334,113.86790293040295,522,113.86263736263737C524.4166666666666,113.8573717948718,526.8333333333334,113.85210622710622,529.25,113.84684065934066C531.6666666666666,113.8415750915751,534.0833333333334,113.83630952380952,536.5,113.83104395604396C538.9166666666666,113.8257783882784,541.3333333333334,113.82051282051282,543.75,113.81524725274726C546.1666666666666,113.8099816849817,548.5833333333334,113.80471611721612,551,113.79945054945055C553.4166666666666,113.79418498168499,555.8333333333334,113.78891941391942,558.25,113.78365384615385C560.6666666666666,113.77838827838829,563.0833333333334,113.77312271062272,565.5,113.76785714285715C567.9166666666666,113.76259157509159,570.3333333333334,113.75732600732601,572.75,113.75206043956044C575.1666666666666,113.74679487179486,577.5833333333334,113.7415293040293,580,113.73626373626374C582.4166666666666,113.73099816849818,584.8333333333334,113.7257326007326,587.25,113.72046703296704C589.6666666666666,113.71520146520147,592.0833333333334,113.7099358974359,594.5,113.70467032967034C596.9166666666666,113.69940476190477,599.3333333333334,113.6941391941392,601.75,113.68887362637363C604.1666666666666,113.68360805860807,606.5833333333334,113.67834249084251,609,113.67307692307693C611.4166666666666,113.66781135531136,613.8333333333334,113.66254578754578,616.25,113.65728021978022C618.6666666666666,113.65201465201466,621.0833333333334,113.64674908424908,623.5,113.64148351648352C625.9166666666666,113.63621794871796,628.3333333333334,113.63095238095238,630.75,113.62568681318682C633.1666666666666,113.62042124542126,635.5833333333334,113.61515567765568,638,113.60989010989012C640.4166666666666,113.60462454212455,642.8333333333334,113.59935897435898,645.25,113.59409340659342C647.6666666666666,113.58882783882785,650.0833333333334,113.58356227106228,652.5,113.57829670329672C654.9166666666666,113.57303113553115,657.3333333333334,113.56776556776558,659.75,113.5625C662.1666666666666,113.55723443223442,664.5833333333334,113.55196886446886,667,113.5467032967033C669.4166666666666,113.54143772893774,671.8333333333334,113.53617216117216,674.25,113.5309065934066C676.6666666666666,113.52564102564104,679.0833333333334,113.52037545787546,681.5,113.5151098901099C683.9166666666666,113.50984432234434,686.3333333333334,113.50457875457876,688.75,113.4993131868132C691.1666666666666,113.49404761904763,693.5833333333334,113.48878205128207,696,113.4835164835165C698.4166666666666,113.47825091575092,700.8333333333334,113.47298534798534,703.25,113.46771978021978C705.6666666666666,113.46245421245422,708.0833333333334,113.45718864468864,710.5,113.45192307692308C712.9166666666666,113.44665750915752,715.3333333333334,113.44139194139194,717.75,113.43612637362638C720.1666666666666,113.43086080586082,722.5833333333334,113.42559523809524,725,113.42032967032968C727.4166666666666,113.41506410256412,729.8333333333334,113.40979853479854,732.25,113.40453296703298C734.6666666666666,113.39926739926742,737.0833333333334,113.39400183150184,739.5,113.38873626373626C741.9166666666666,113.38347069597069,744.3333333333334,113.37820512820512,746.75,113.37293956043956C749.1666666666666,113.367673992674,751.5833333333334,113.367673992674,754,113.35714285714286C756.4166666666666,113.34661172161172,758.8333333333334,112.68402777777779,761.25,112.34747023809524C763.6666666666666,112.0109126984127,766.0833333333334,111.67435515873017,768.5,111.33779761904762C770.9166666666666,111.00124007936508,773.3333333333334,110.66468253968254,775.75,110.328125C778.1666666666666,109.99156746031746,780.5833333333334,109.65500992063491,783,109.31845238095238C785.4166666666667,108.98189484126983,787.8333333333334,108.64533730158732,790.2500000000001,108.30877976190477C792.6666666666667,107.97222222222224,795.0833333333335,107.63566468253968,797.5000000000001,107.29910714285714C799.9166666666667,106.9625496031746,802.3333333333335,106.62599206349206,804.7500000000001,106.28943452380952C807.1666666666667,105.95287698412697,809.5833333333335,105.61631944444444,812.0000000000001,105.2797619047619C814.4166666666667,104.94320436507937,816.8333333333333,104.60664682539681,819.2499999999999,104.27008928571428C821.6666666666665,103.93353174603173,824.0833333333333,103.59697420634922,826.4999999999999,103.26041666666667C828.9166666666665,102.92385912698413,831.3333333333333,102.5873015873016,833.7499999999999,102.25074404761905C836.1666666666665,101.9141865079365,838.5833333333333,101.57762896825396,840.9999999999999,101.24107142857143C843.4166666666666,100.90451388888889,845.8333333333333,100.56795634920637,848.25,100.23139880952382C850.6666666666666,99.8948412698413,853.0833333333334,99.55828373015873,855.5,99.22172619047619C857.9166666666666,98.88516865079364,860.3333333333334,98.54861111111111,862.75,98.21205357142857C865.1666666666666,97.87549603174602,867.5833333333334,97.5389384920635,870,97.20238095238095C872.4166666666666,96.8658234126984,874.8333333333334,96.52926587301587,877.25,96.19270833333333C879.6666666666666,95.85615079365078,882.0833333333334,95.51959325396825,884.5,95.18303571428572C886.9166666666666,94.84647817460319,889.3333333333334,94.50992063492065,891.75,94.1733630952381C894.1666666666666,93.83680555555556,896.5833333333334,93.50024801587303,899,93.16369047619048C901.4166666666666,92.82713293650794,903.8333333333334,92.4905753968254,906.25,92.15401785714286C908.6666666666666,91.81746031746032,911.0833333333334,91.48090277777777,913.5,91.14434523809523C915.9166666666666,90.80778769841268,918.3333333333334,90.47123015873015,920.75,90.13467261904762C923.1666666666666,89.79811507936509,925.5833333333334,89.46155753968254,928,89.125C930.4166666666666,88.78844246031746,932.8333333333334,88.45188492063492,935.25,88.11532738095238C937.6666666666666,87.77876984126983,940.0833333333334,87.4422123015873,942.5,87.10565476190476C944.9166666666666,86.76909722222221,947.3333333333334,86.43253968253967,949.75,86.09598214285714C952.1666666666666,85.75942460317461,954.5833333333334,85.42286706349208,957,85.08630952380953C959.4166666666666,84.74975198412699,961.8333333333334,84.41319444444444,964.25,84.0766369047619C966.6666666666667,83.74007936507935,969.0833333333334,83.40352182539682,971.5000000000001,83.06696428571428C973.9166666666667,82.73040674603175,976.3333333333335,82.3938492063492,978.7500000000001,82.05729166666666C981.1666666666667,81.72073412698411,983.5833333333335,81.38417658730157,986.0000000000001,81.04761904761904C988.4166666666667,80.7110615079365,990.8333333333335,80.37450396825398,993.2500000000001,80.03794642857143C995.6666666666667,79.7013888888889,998.0833333333333,79.36483134920634,1000.4999999999999,79.02827380952381C1002.9166666666665,78.69171626984127,1005.3333333333333,78.35515873015873,1007.7499999999999,78.01860119047619C1010.1666666666665,77.68204365079364,1012.5833333333333,77.34548611111111,1014.9999999999999,77.00892857142858C1017.4166666666665,76.67237103174605,1019.8333333333333,76.33581349206351,1022.2499999999999,75.99925595238096C1024.6666666666665,75.66269841269842,1027.0833333333333,75.32614087301587,1029.5,74.98958333333333C1031.9166666666667,74.65302579365078,1034.3333333333333,74.31646825396825,1036.75,73.97991071428571C1039.1666666666667,73.64335317460316,1041.5833333333333,73.30679563492063,1044,72.97023809523809C1046.4166666666667,72.63368055555554,1048.8333333333333,72.29712301587303,1051.25,71.96056547619048C1053.6666666666667,71.62400793650794,1056.0833333333333,71.28745039682539,1058.5,70.95089285714285C1060.9166666666667,70.6143353174603,1063.3333333333333,70.27777777777777,1065.75,69.94122023809524C1068.1666666666667,69.60466269841271,1070.5833333333333,69.26810515873018,1073,68.93154761904763C1075.4166666666667,68.59499007936509,1077.8333333333333,68.25843253968254,1080.25,67.921875C1082.6666666666667,67.58531746031746,1085.0833333333333,67.24875992063492,1087.5,66.91220238095238C1089.9166666666667,66.57564484126983,1092.3333333333333,66.2390873015873,1094.75,65.90252976190476C1097.1666666666667,65.56597222222221,1099.5833333333333,65.22941468253968,1102,64.89285714285714C1104.4166666666667,64.5562996031746,1106.8333333333333,64.21974206349206,1109.25,63.88318452380952C1111.6666666666667,63.54662698412698,1114.0833333333333,63.210069444444436,1116.5,62.8735119047619C1118.9166666666667,62.53695436507936,1121.3333333333333,62.20039682539683,1123.75,61.86383928571429C1126.1666666666667,61.527281746031754,1128.5833333333333,61.1907242063492,1131,60.85416666666666C1133.4166666666667,60.51760912698411,1135.8333333333333,60.18105158730158,1138.25,59.844494047619044C1140.6666666666667,59.507936507936506,1143.0833333333333,59.171378968253975,1145.5,58.83482142857144C1147.9166666666667,58.4982638888889,1150.3333333333333,58.16170634920635,1152.75,57.8251488095238C1155.1666666666667,57.48859126984126,1157.5833333333333,57.15203373015872,1160,56.81547619047618C1162.4166666666667,56.478918650793645,1164.8333333333333,56.14236111111111,1167.25,55.80580357142857C1169.6666666666667,55.46924603174603,1172.0833333333333,55.13268849206349,1174.5,54.79613095238095C1176.9166666666667,54.45957341269841,1179.3333333333333,54.123015873015866,1181.75,53.78645833333333C1184.1666666666667,53.44990079365079,1186.5833333333333,53.11334325396825,1189,52.776785714285715C1191.4166666666667,52.44022817460318,1193.8333333333333,52.10367063492063,1196.25,51.767113095238095C1198.6666666666667,51.43055555555556,1201.0833333333333,51.09399801587301,1203.5,50.757440476190474C1205.9166666666667,50.42088293650794,1208.3333333333333,50.08432539682539,1210.75,49.747767857142854C1213.1666666666667,49.411210317460316,1215.5833333333333,49.07465277777778,1218,48.73809523809524C1220.4166666666667,48.4015376984127,1222.8333333333333,48.06498015873016,1225.25,47.72842261904762C1227.6666666666667,47.39186507936508,1230.0833333333333,47.05530753968254,1232.5,46.71875C1234.9166666666667,46.38219246031746,1237.3333333333333,46.04563492063493,1239.75,45.709077380952394C1242.1666666666667,45.372519841269856,1244.5833333333333,45.035962301587304,1247,44.699404761904766C1249.4166666666667,44.36284722222223,1251.8333333333333,44.026289682539684,1254.25,43.689732142857146C1256.6666666666667,43.35317460317461,1259.0833333333333,43.01661706349206,1261.5,42.680059523809526C1263.9166666666667,42.34350198412699,1266.3333333333333,42.00694444444444,1268.75,41.670386904761905C1271.1666666666667,41.33382936507937,1273.5833333333333,40.99727182539682,1276,40.660714285714285C1278.4166666666667,40.32415674603175,1280.8333333333333,39.98759920634921,1283.25,39.65104166666667C1285.6666666666667,39.314484126984134,1288.0833333333333,38.97792658730159,1290.5,38.64136904761905C1292.9166666666667,38.30481150793651,1295.3333333333333,37.96825396825397,1297.75,37.63169642857143C1300.1666666666667,37.29513888888889,1302.5833333333333,36.95858134920635,1305,36.62202380952381C1307.4166666666667,36.28546626984127,1309.8333333333333,35.948908730158735,1312.25,35.6123511904762C1314.6666666666667,35.27579365079366,1317.0833333333333,34.939236111111114,1319.5,34.60267857142858C1321.9166666666667,34.26612103174604,1324.3333333333333,33.9295634920635,1326.75,33.593005952380956C1329.1666666666667,33.25644841269841,1331.5833333333333,32.91989087301586,1334,32.58333333333332C1336.4166666666667,32.246775793650784,1338.8333333333333,31.91021825396825,1341.25,31.57366071428571C1343.6666666666667,31.237103174603174,1346.0833333333333,30.900545634920643,1348.5,30.563988095238102C1350.9166666666667,30.22743055555556,1353.3333333333333,29.89087301587301,1355.75,29.554315476190467C1358.1666666666667,29.217757936507926,1360.5833333333333,28.881200396825395,1363,28.544642857142858C1365.4166666666667,28.20808531746032,1367.8333333333333,27.87152777777779,1370.25,27.534970238095248C1372.6666666666667,27.198412698412707,1375.0833333333333,26.861855158730155,1377.5,26.525297619047613C1379.9166666666667,26.188740079365072,1382.3333333333333,25.85218253968254,1384.75,25.515625000000004C1387.1666666666667,25.179067460317466,1389.5833333333333,24.842509920634924,1392,24.505952380952383C1394.4166666666667,24.169394841269842,1396.8333333333333,23.83283730158729,1399.25,23.49627976190475C1401.6666666666667,23.159722222222207,1404.0833333333333,22.823164682539677,1406.5,22.48660714285714C1408.9166666666667,22.1500496031746,1411.3333333333333,21.81349206349207,1413.75,21.47693452380953C1416.1666666666667,21.140376984126988,1418.5833333333333,20.803819444444436,1421,20.467261904761894C1423.4166666666667,20.130704365079353,1425.8333333333333,19.794146825396826,1428.25,19.45758928571429C1430.6666666666667,19.12103174603175,1433.0833333333333,18.784474206349206,1435.5,18.447916666666664C1437.9166666666667,18.111359126984123,1440.3333333333333,17.77480158730158,1442.75,17.438244047619044C1445.1666666666667,17.101686507936506,1447.5833333333333,16.76512896825397,1450,16.428571428571434" fill="transparent" stroke-linecap="round" stroke="#B6509E" stroke-width="2"></path><path class="visx-linepath" d="M0,110.89285714284135C2.4166666666666665,110.89022435896514,4.833333333333334,110.88759157508893,7.25,110.88495879120879C9.666666666666666,110.88232600732864,12.083333333333334,110.87969322344323,14.5,110.87706043956044C16.916666666666668,110.87442765567765,19.333333333333332,110.87179487179488,21.75,110.86916208791209C24.166666666666668,110.8665293040293,26.583333333333332,110.86389652014653,29,110.86126373626374C31.416666666666668,110.85863095238095,33.833333333333336,110.85599816849818,36.25,110.85336538461539C38.666666666666664,110.8507326007326,41.083333333333336,110.84809981684982,43.5,110.84546703296704C45.91666666666667,110.84283424908425,48.333333333333336,110.84020146520147,50.75000000000001,110.83756868131869C53.16666666666667,110.8349358974359,55.583333333333336,110.83230311355312,58,110.82967032967034C60.416666666666664,110.82703754578755,62.833333333333336,110.82440476190477,65.25,110.82177197802199C67.66666666666667,110.8191391941392,70.08333333333333,110.81650641025642,72.5,110.81387362637363C74.91666666666667,110.81124084249085,77.33333333333333,110.80860805860806,79.75,110.80597527472527C82.16666666666667,110.80334249084248,84.58333333333333,110.80070970695971,87,110.79807692307692C89.41666666666667,110.79544413919413,91.83333333333333,110.79281135531136,94.25,110.79017857142857C96.66666666666667,110.78754578754578,99.08333333333334,110.78491300366301,101.50000000000001,110.78228021978022C103.91666666666667,110.77964743589743,106.33333333333334,110.77701465201466,108.75,110.77438186813187C111.16666666666667,110.77174908424908,113.58333333333333,110.7691163003663,116,110.76648351648352C118.41666666666667,110.76385073260073,120.83333333333334,110.76121794871796,123.25000000000001,110.75858516483517C125.66666666666667,110.75595238095238,128.08333333333334,110.7533195970696,130.5,110.75068681318682C132.91666666666666,110.74805402930403,135.33333333333334,110.74542124542126,137.75,110.74278846153847C140.16666666666666,110.74015567765568,142.58333333333334,110.7375228937729,145,110.73489010989012C147.41666666666666,110.73225732600733,149.83333333333334,110.72962454212455,152.25,110.72699175824177C154.66666666666666,110.72435897435898,157.08333333333334,110.7217261904762,159.5,110.71909340659342C161.91666666666666,110.71646062271063,164.33333333333334,110.71382783882784,166.75,110.71119505494505C169.16666666666666,110.70856227106226,171.58333333333334,110.70592948717949,174,110.7032967032967C176.41666666666666,110.70066391941391,178.83333333333334,110.69803113553114,181.25,110.69539835164835C183.66666666666666,110.69276556776556,186.08333333333334,110.69013278388279,188.5,110.6875C190.91666666666666,110.68486721611721,193.33333333333334,110.68223443223444,195.75,110.67960164835165C198.16666666666669,110.67696886446886,200.58333333333334,110.67433608058609,203.00000000000003,110.6717032967033C205.41666666666669,110.66907051282051,207.83333333333331,110.66643772893774,210.24999999999997,110.66380494505495C212.66666666666666,110.66117216117216,215.08333333333331,110.65853937728939,217.5,110.6559065934066C219.91666666666666,110.65327380952381,222.33333333333334,110.65064102564104,224.75,110.64800824175825C227.16666666666666,110.64537545787546,229.58333333333334,110.64274267399269,232,110.6401098901099C234.41666666666666,110.63747710622711,236.83333333333334,110.63484432234434,239.25,110.63221153846155C241.66666666666669,110.62957875457876,244.08333333333334,110.62694597069597,246.50000000000003,110.62431318681318C248.91666666666669,110.6216804029304,251.33333333333331,110.61904761904762,253.74999999999997,110.61641483516483C256.16666666666663,110.61378205128204,258.5833333333333,110.61114926739927,261,110.60851648351648C263.4166666666667,110.6058836996337,265.8333333333333,110.60325091575092,268.25,110.60061813186813C270.6666666666667,110.59798534798534,273.0833333333333,110.59535256410257,275.5,110.59271978021978C277.9166666666667,110.59008699633699,280.3333333333333,110.58745421245422,282.75,110.58482142857143C285.1666666666667,110.58218864468864,287.5833333333333,110.57955586080587,290,110.57692307692308C292.4166666666667,110.57429029304029,294.8333333333333,110.57165750915752,297.25,110.56902472527473C299.6666666666667,110.56639194139194,302.0833333333333,110.56375915750917,304.5,110.56112637362638C306.9166666666667,110.55849358974359,309.3333333333333,110.55586080586082,311.75,110.55322802197803C314.1666666666667,110.55059523809524,316.5833333333333,110.54796245421247,319,110.54532967032968C321.4166666666667,110.54269688644689,323.8333333333333,110.54006410256412,326.25,110.53743131868133C328.6666666666667,110.53479853479854,331.0833333333333,110.53216575091575,333.5,110.52953296703296C335.9166666666667,110.52690018315018,338.3333333333333,110.5242673992674,340.75,110.52163461538461C343.1666666666667,110.51900183150182,345.5833333333333,110.51636904761905,348,110.51373626373626C350.4166666666667,110.51110347985347,352.8333333333333,110.5084706959707,355.25,110.50583791208791C357.6666666666667,110.50320512820512,360.0833333333333,110.50057234432235,362.5,110.49793956043956C364.9166666666667,110.49530677655677,367.3333333333333,110.492673992674,369.75,110.49004120879121C372.1666666666667,110.48740842490842,374.5833333333333,110.48477564102565,377,110.48214285714286C379.4166666666667,110.47951007326007,381.8333333333333,110.4768772893773,384.25,110.47424450549451C386.6666666666667,110.47161172161172,389.0833333333333,110.46897893772895,391.5,110.46634615384616C393.9166666666667,110.46371336996337,396.33333333333337,110.4610805860806,398.75000000000006,110.45844780219781C401.16666666666674,110.45581501831502,403.58333333333337,110.45318223443225,406.00000000000006,110.45054945054946C408.4166666666667,110.44791666666667,410.8333333333333,110.4452838827839,413.24999999999994,110.44265109890111C415.66666666666663,110.44001831501832,418.08333333333326,110.43738553113553,420.49999999999994,110.43475274725274C422.91666666666663,110.43211996336996,425.3333333333333,110.42948717948718,427.75,110.4268543956044C430.1666666666667,110.4242216117216,432.5833333333333,110.42158882783883,435,110.41895604395604C437.4166666666667,110.41632326007326,439.8333333333333,110.41369047619048,442.25,110.4110576923077C444.6666666666667,110.4084249084249,447.0833333333333,110.40579212454213,449.5,110.40315934065934C451.9166666666667,110.40052655677655,454.3333333333333,110.39789377289378,456.75,110.39526098901099C459.1666666666667,110.3926282051282,461.5833333333333,110.38999542124543,464,110.38736263736264C466.4166666666667,110.38472985347985,468.8333333333333,110.38209706959708,471.25,110.37946428571429C473.6666666666667,110.3768315018315,476.0833333333333,110.37419871794873,478.5,110.37156593406594C480.9166666666667,110.36893315018315,483.33333333333337,110.36630036630038,485.75000000000006,110.36366758241759C488.16666666666674,110.3610347985348,490.58333333333337,110.35840201465203,493.00000000000006,110.35576923076924C495.4166666666667,110.35313644688645,497.8333333333333,110.35050366300366,500.24999999999994,110.34787087912088C502.66666666666663,110.34523809523809,505.08333333333326,110.34260531135531,507.49999999999994,110.33997252747253C509.91666666666663,110.33733974358974,512.3333333333333,110.33470695970696,514.75,110.33207417582418C517.1666666666666,110.32944139194139,519.5833333333334,110.32680860805861,522,110.32417582417582C524.4166666666666,110.32154304029304,526.8333333333334,110.31891025641026,529.25,110.31627747252747C531.6666666666666,110.31364468864469,534.0833333333334,110.31101190476191,536.5,110.30837912087912C538.9166666666666,110.30574633699634,541.3333333333334,110.30311355311356,543.75,110.30048076923077C546.1666666666666,110.29784798534799,548.5833333333334,110.29521520146521,551,110.29258241758242C553.4166666666666,110.28994963369964,555.8333333333334,110.28731684981686,558.25,110.28468406593407C560.6666666666666,110.28205128205128,563.0833333333334,110.27941849816851,565.5,110.27678571428572C567.9166666666666,110.27415293040293,570.3333333333334,110.27152014652016,572.75,110.26888736263737C575.1666666666666,110.26625457875458,577.5833333333334,110.26362179487181,580,110.26098901098902C582.4166666666666,110.25835622710623,584.8333333333334,110.25572344322345,587.25,110.25309065934066C589.6666666666666,110.25045787545787,592.0833333333334,110.2478250915751,594.5,110.2451923076923C596.9166666666666,110.24255952380952,599.3333333333334,110.23992673992674,601.75,110.23729395604396C604.1666666666666,110.23466117216117,606.5833333333334,110.2320283882784,609,110.2293956043956C611.4166666666666,110.22676282051282,613.8333333333334,110.22413003663004,616.25,110.22149725274726C618.6666666666666,110.21886446886447,621.0833333333334,110.2162316849817,623.5,110.2135989010989C625.9166666666666,110.21096611721612,628.3333333333334,110.20833333333334,630.75,110.20570054945055C633.1666666666666,110.20306776556777,635.5833333333334,110.20043498168499,638,110.1978021978022C640.4166666666666,110.19516941391942,642.8333333333334,110.19253663003664,645.25,110.18990384615385C647.6666666666666,110.18727106227107,650.0833333333334,110.18463827838829,652.5,110.1820054945055C654.9166666666666,110.17937271062272,657.3333333333334,110.17673992673994,659.75,110.17410714285715C662.1666666666666,110.17147435897436,664.5833333333334,110.16884157509159,667,110.1662087912088C669.4166666666666,110.16357600732601,671.8333333333334,110.16094322344323,674.25,110.15831043956044C676.6666666666666,110.15567765567765,679.0833333333334,110.15304487179488,681.5,110.15041208791209C683.9166666666666,110.1477793040293,686.3333333333334,110.14514652014653,688.75,110.14251373626374C691.1666666666666,110.13988095238095,693.5833333333334,110.13724816849818,696,110.13461538461539C698.4166666666666,110.1319826007326,700.8333333333334,110.12934981684982,703.25,110.12671703296704C705.6666666666666,110.12408424908425,708.0833333333334,110.12145146520147,710.5,110.11881868131869C712.9166666666666,110.1161858974359,715.3333333333334,110.11355311355312,717.75,110.11092032967034C720.1666666666666,110.10828754578755,722.5833333333334,110.10565476190477,725,110.10302197802199C727.4166666666666,110.1003891941392,729.8333333333334,110.09775641025642,732.25,110.09512362637363C734.6666666666666,110.09249084249085,737.0833333333334,110.08985805860807,739.5,110.08722527472528C741.9166666666666,110.0845924908425,744.3333333333334,110.08195970695972,746.75,110.07932692307693C749.1666666666666,110.07669413919415,751.5833333333334,110.07669413919415,754,110.07142857142857C756.4166666666666,110.066163003663,758.8333333333334,109.3983134920635,761.25,109.06175595238095C763.6666666666666,108.7251984126984,766.0833333333334,108.38864087301587,768.5,108.05208333333333C770.9166666666666,107.71552579365078,773.3333333333334,107.37896825396825,775.75,107.04241071428571C778.1666666666666,106.70585317460316,780.5833333333334,106.36929563492063,783,106.0327380952381C785.4166666666667,105.69618055555556,787.8333333333334,105.35962301587303,790.2500000000001,105.02306547619048C792.6666666666667,104.68650793650795,795.0833333333335,104.3499503968254,797.5000000000001,104.01339285714286C799.9166666666667,103.67683531746032,802.3333333333335,103.34027777777779,804.7500000000001,103.00372023809524C807.1666666666667,102.6671626984127,809.5833333333335,102.33060515873017,812.0000000000001,101.99404761904762C814.4166666666667,101.65749007936509,816.8333333333333,101.32093253968253,819.2499999999999,100.984375C821.6666666666665,100.64781746031746,824.0833333333333,100.31125992063492,826.4999999999999,99.97470238095238C828.9166666666665,99.63814484126983,831.3333333333333,99.3015873015873,833.7499999999999,98.96502976190476C836.1666666666665,98.62847222222221,838.5833333333333,98.29191468253967,840.9999999999999,97.95535714285714C843.4166666666666,97.6187996031746,845.8333333333333,97.28224206349206,848.25,96.94568452380952C850.6666666666666,96.60912698412699,853.0833333333334,96.27256944444446,855.5,95.93601190476191C857.9166666666666,95.59945436507937,860.3333333333334,95.26289682539684,862.75,94.92633928571429C865.1666666666666,94.58978174603175,867.5833333333334,94.25322420634922,870,93.91666666666667C872.4166666666666,93.58010912698413,874.8333333333334,93.24355158730158,877.25,92.90699404761904C879.6666666666666,92.57043650793649,882.0833333333334,92.23387896825395,884.5,91.89732142857142C886.9166666666666,91.56076388888889,889.3333333333334,91.22420634920636,891.75,90.88764880952381C894.1666666666666,90.55109126984127,896.5833333333334,90.21453373015873,899,89.87797619047619C901.4166666666666,89.54141865079364,903.8333333333334,89.20486111111111,906.25,88.86830357142857C908.6666666666666,88.53174603174602,911.0833333333334,88.1951884920635,913.5,87.85863095238095C915.9166666666666,87.5220734126984,918.3333333333334,87.18551587301587,920.75,86.84895833333333C923.1666666666666,86.51240079365078,925.5833333333334,86.17584325396827,928,85.83928571428572C930.4166666666666,85.50272817460318,932.8333333333334,85.16617063492063,935.25,84.82961309523809C937.6666666666666,84.49305555555554,940.0833333333334,84.15649801587301,942.5,83.81994047619047C944.9166666666666,83.48338293650792,947.3333333333334,83.14682539682539,949.75,82.81026785714286C952.1666666666666,82.47371031746033,954.5833333333334,82.13715277777779,957,81.80059523809524C959.4166666666666,81.4640376984127,961.8333333333334,81.12748015873015,964.25,80.79092261904762C966.6666666666667,80.45436507936508,969.0833333333334,80.11780753968254,971.5000000000001,79.78125C973.9166666666667,79.44469246031747,976.3333333333335,79.10813492063491,978.7500000000001,78.77157738095238C981.1666666666667,78.43501984126985,983.5833333333335,78.09846230158732,986.0000000000001,77.76190476190477C988.4166666666667,77.42534722222223,990.8333333333335,77.08878968253968,993.2500000000001,76.75223214285714C995.6666666666667,76.41567460317461,998.0833333333333,76.07911706349205,1000.4999999999999,75.74255952380952C1002.9166666666665,75.40600198412697,1005.3333333333333,75.06944444444443,1007.7499999999999,74.7328869047619C1010.1666666666665,74.39632936507937,1012.5833333333333,74.05977182539684,1014.9999999999999,73.72321428571429C1017.4166666666665,73.38665674603175,1019.8333333333333,73.0500992063492,1022.2499999999999,72.71354166666667C1024.6666666666665,72.37698412698413,1027.0833333333333,72.0404265873016,1029.5,71.70386904761905C1031.9166666666667,71.36731150793652,1034.3333333333333,71.03075396825398,1036.75,70.69419642857143C1039.1666666666667,70.35763888888889,1041.5833333333333,70.02108134920637,1044,69.68452380952382C1046.4166666666667,69.34796626984128,1048.8333333333333,69.01140873015872,1051.25,68.67485119047618C1053.6666666666667,68.33829365079363,1056.0833333333333,68.00173611111111,1058.5,67.66517857142857C1060.9166666666667,67.32862103174602,1063.3333333333333,66.9920634920635,1065.75,66.65550595238095C1068.1666666666667,66.3189484126984,1070.5833333333333,65.98239087301587,1073,65.64583333333333C1075.4166666666667,65.30927579365078,1077.8333333333333,64.97271825396825,1080.25,64.63616071428572C1082.6666666666667,64.29960317460319,1085.0833333333333,63.96304563492065,1087.5,63.6264880952381C1089.9166666666667,63.28993055555556,1092.3333333333333,62.95337301587301,1094.75,62.616815476190474C1097.1666666666667,62.28025793650794,1099.5833333333333,61.94370039682539,1102,61.607142857142854C1104.4166666666667,61.270585317460316,1106.8333333333333,60.934027777777786,1109.25,60.59747023809525C1111.6666666666667,60.26091269841271,1114.0833333333333,59.924355158730165,1116.5,59.58779761904763C1118.9166666666667,59.25124007936509,1121.3333333333333,58.914682539682545,1123.75,58.578125C1126.1666666666667,58.241567460317455,1128.5833333333333,57.90500992063492,1131,57.56845238095238C1133.4166666666667,57.23189484126984,1135.8333333333333,56.89533730158731,1138.25,56.55877976190477C1140.6666666666667,56.222222222222236,1143.0833333333333,55.885664682539684,1145.5,55.54910714285714C1147.9166666666667,55.212549603174594,1150.3333333333333,54.875992063492056,1152.75,54.53943452380952C1155.1666666666667,54.20287698412698,1157.5833333333333,53.86631944444444,1160,53.529761904761905C1162.4166666666667,53.19320436507937,1164.8333333333333,52.85664682539682,1167.25,52.520089285714285C1169.6666666666667,52.18353174603175,1172.0833333333333,51.8469742063492,1174.5,51.510416666666664C1176.9166666666667,51.17385912698413,1179.3333333333333,50.83730158730159,1181.75,50.50074404761905C1184.1666666666667,50.16418650793651,1186.5833333333333,49.82762896825397,1189,49.49107142857143C1191.4166666666667,49.15451388888889,1193.8333333333333,48.81795634920635,1196.25,48.48139880952381C1198.6666666666667,48.14484126984127,1201.0833333333333,47.80828373015873,1203.5,47.47172619047619C1205.9166666666667,47.13516865079365,1208.3333333333333,46.798611111111114,1210.75,46.46205357142857C1213.1666666666667,46.125496031746025,1215.5833333333333,45.78893849206348,1218,45.45238095238094C1220.4166666666667,45.115823412698404,1222.8333333333333,44.77926587301586,1225.25,44.44270833333332C1227.6666666666667,44.106150793650784,1230.0833333333333,43.76959325396825,1232.5,43.433035714285715C1234.9166666666667,43.09647817460318,1237.3333333333333,42.75992063492063,1239.75,42.42336309523809C1242.1666666666667,42.08680555555554,1244.5833333333333,41.750248015873005,1247,41.41369047619047C1249.4166666666667,41.07713293650793,1251.8333333333333,40.7405753968254,1254.25,40.40401785714286C1256.6666666666667,40.06746031746032,1259.0833333333333,39.730902777777786,1261.5,39.39434523809524C1263.9166666666667,39.057787698412696,1266.3333333333333,38.72123015873015,1268.75,38.38467261904761C1271.1666666666667,38.048115079365076,1273.5833333333333,37.71155753968253,1276,37.37499999999999C1278.4166666666667,37.038442460317455,1280.8333333333333,36.70188492063491,1283.25,36.36532738095237C1285.6666666666667,36.028769841269835,1288.0833333333333,35.692212301587304,1290.5,35.355654761904766C1292.9166666666667,35.01909722222223,1295.3333333333333,34.68253968253968,1297.75,34.34598214285714C1300.1666666666667,34.0094246031746,1302.5833333333333,33.67286706349207,1305,33.33630952380953C1307.4166666666667,32.999751984126995,1309.8333333333333,32.66319444444445,1312.25,32.32663690476191C1314.6666666666667,31.99007936507937,1317.0833333333333,31.653521825396826,1319.5,31.31696428571429C1321.9166666666667,30.98040674603175,1324.3333333333333,30.64384920634922,1326.75,30.30729166666668C1329.1666666666667,29.970734126984137,1331.5833333333333,29.634176587301585,1334,29.297619047619044C1336.4166666666667,28.961061507936503,1338.8333333333333,28.62450396825396,1341.25,28.287946428571423C1343.6666666666667,27.951388888888886,1346.0833333333333,27.614831349206355,1348.5,27.278273809523814C1350.9166666666667,26.941716269841272,1353.3333333333333,26.60515873015872,1355.75,26.26860119047618C1358.1666666666667,25.932043650793638,1360.5833333333333,25.595486111111104,1363,25.25892857142857C1365.4166666666667,24.922371031746035,1367.8333333333333,24.585813492063505,1370.25,24.249255952380963C1372.6666666666667,23.912698412698422,1375.0833333333333,23.57614087301587,1377.5,23.23958333333333C1379.9166666666667,22.903025793650787,1382.3333333333333,22.566468253968257,1384.75,22.22991071428572C1387.1666666666667,21.89335317460318,1389.5833333333333,21.55679563492065,1392,21.22023809523811C1394.4166666666667,20.883680555555568,1396.8333333333333,20.547123015873016,1399.25,20.210565476190474C1401.6666666666667,19.874007936507933,1404.0833333333333,19.537450396825392,1406.5,19.200892857142854C1408.9166666666667,18.864335317460316,1411.3333333333333,18.527777777777786,1413.75,18.191220238095244C1416.1666666666667,17.854662698412703,1418.5833333333333,17.51810515873015,1421,17.18154761904761C1423.4166666666667,16.84499007936507,1425.8333333333333,16.508432539682538,1428.25,16.171875C1430.6666666666667,15.835317460317464,1433.0833333333333,15.498759920634932,1435.5,15.16220238095239C1437.9166666666667,14.825644841269849,1440.3333333333333,14.489087301587297,1442.75,14.152529761904756C1445.1666666666667,13.815972222222214,1447.5833333333333,13.479414682539682,1450,13.142857142857148" fill="transparent" stroke-linecap="round" stroke="#E7C6DF" stroke-width="2"></path><g class="visx-group visx-axis visx-axis-bottom" transform="translate(0, 115)"><g class="visx-group visx-axis-tick" transform="translate(0, 0)"><line class="visx-line" x1="0" y1="0" x2="0" y2="8" fill="transparent" shape-rendering="crispEdges" stroke="#000" stroke-width="0" stroke-linecap="square"></line><svg x="0" y="0" font-size="10" style="overflow:visible"><text transform="" x="0" y="18" fill="#000" font-size="10" text-anchor="middle"><tspan x="0" dy="0em">0%</tspan></text></svg></g><g class="visx-group visx-axis-tick" transform="translate(0, 0)"><line class="visx-line" x1="362.5" y1="0" x2="362.5" y2="8" fill="transparent" shape-rendering="crispEdges" stroke="#000" stroke-width="0" stroke-linecap="square"></line><svg x="0" y="0" font-size="10" style="overflow:visible"><text transform="" x="362.5" y="18" fill="#000" font-size="10" text-anchor="middle"><tspan x="362.5" dy="0em">25%</tspan></text></svg></g><g class="visx-group visx-axis-tick" transform="translate(0, 0)"><line class="visx-line" x1="725" y1="0" x2="725" y2="8" fill="transparent" shape-rendering="crispEdges" stroke="#000" stroke-width="0" stroke-linecap="square"></line><svg x="0" y="0" font-size="10" style="overflow:visible"><text transform="" x="725" y="18" fill="#000" font-size="10" text-anchor="middle"><tspan x="725" dy="0em">50%</tspan></text></svg></g><g class="visx-group visx-axis-tick" transform="translate(0, 0)"><line class="visx-line" x1="1087.5" y1="0" x2="1087.5" y2="8" fill="transparent" shape-rendering="crispEdges" stroke="#000" stroke-width="0" stroke-linecap="square"></line><svg x="0" y="0" font-size="10" style="overflow:visible"><text transform="" x="1087.5" y="18" fill="#000" font-size="10" text-anchor="middle"><tspan x="1087.5" dy="0em">75%</tspan></text></svg></g><g class="visx-group visx-axis-tick" transform="translate(0, 0)"><line class="visx-line" x1="1450" y1="0" x2="1450" y2="8" fill="transparent" shape-rendering="crispEdges" stroke="#000" stroke-width="0" stroke-linecap="square"></line><svg x="0" y="0" font-size="10" style="overflow:visible"><text transform="" x="1450" y="18" fill="#000" font-size="10" text-anchor="middle"><tspan x="1450" dy="0em">100%</tspan></text></svg></g><line class="visx-line visx-axis-line" x1="0.5" y1="0" x2="1450.5" y2="0" fill="transparent" shape-rendering="crispEdges" stroke="#222" stroke-width="0"></line></g><g class="visx-group visx-axis visx-axis-left" transform="translate(0, 0)"><g class="visx-group visx-axis-tick" transform="translate(0, 0)"><line class="visx-line" x1="0" y1="115" x2="-8" y2="115" fill="transparent" shape-rendering="crispEdges" stroke="#222" stroke-width="0" stroke-linecap="square"></line><svg x="-30" y="0" font-size="8" style="overflow:visible"><text transform="" x="-8" y="115" fill="#000" font-size="8" text-anchor="start"><tspan x="-8" dy="0em">0%</tspan></text></svg></g><g class="visx-group visx-axis-tick" transform="translate(0, 0)"><line class="visx-line" x1="0" y1="73.92857142857142" x2="-8" y2="73.92857142857142" fill="transparent" shape-rendering="crispEdges" stroke="#222" stroke-width="0" stroke-linecap="square"></line><svg x="-30" y="0" font-size="8" style="overflow:visible"><text transform="" x="-8" y="73.92857142857142" fill="#000" font-size="8" text-anchor="start"><tspan x="-8" dy="0em">100%</tspan></text></svg></g><g class="visx-group visx-axis-tick" transform="translate(0, 0)"><line class="visx-line" x1="0" y1="32.857142857142854" x2="-8" y2="32.857142857142854" fill="transparent" shape-rendering="crispEdges" stroke="#222" stroke-width="0" stroke-linecap="square"></line><svg x="-30" y="0" font-size="8" style="overflow:visible"><text transform="" x="-8" y="32.857142857142854" fill="#000" font-size="8" text-anchor="start"><tspan x="-8" dy="0em">200%</tspan></text></svg></g><line class="visx-line visx-axis-line" x1="0" y1="115.5" x2="0" y2="0.5" fill="transparent" shape-rendering="crispEdges" stroke="#222" stroke-width="0"></line></g><rect class="visx-bar" width="1450" height="115" fill="transparent"></rect><line class="visx-line" x1="754" y1="28" x2="754" y2="115" fill="transparent" shape-rendering="crispEdges" stroke="#0062D2" stroke-width="1" pointer-events="none" stroke-dasharray="5,2"></line><svg x="0" y="0" font-size="10px" style="overflow:visible"><text transform="" x="754" y="20" font-size="10px" fill="#fff" stroke="#fff" stroke-width="0.8em" text-anchor="middle"><tspan x="754" dy="0.355em">Optimal 52%</tspan></text></svg><svg x="0" y="0" font-size="10px" style="overflow:visible"><text transform="" x="754" y="20" font-size="10px" fill="#62677B" text-anchor="middle"><tspan x="754" dy="0.355em">Optimal 52%</tspan></text></svg></g></svg>