<?xml version="1.0"?><svg xmlns="http://www.w3.org/2000/svg" xmlns:xlink= "http://www.w3.org/1999/xlink" style="background: white;" width="1500" height="185"> <g style="color: black; font-size: 13px; font-family: sans-serif; transform: translate(18px, 25px);"><g><circle r="3" cx="-6" cy="-5" style="fill: #B6509E" /><text>Borrow APR, variable</text></g><g style="transform: translateX(150px);"><circle r="3" cx="-6" cy="-5" style="fill: rgb(231, 198, 223)" /><text>Borrow APR, stable</text></g><g style="transform: translateX(290px);"><circle r="3" cx="-6" cy="-5" style="fill: rgb(0, 98, 210)" /><text>Utilization Rate</text></g></g><g class="visx-group" transform="translate(40, 50)"><g class="visx-group visx-rows" transform="translate(0, 0)"><line class="visx-line" x1="0" y1="115" x2="1450" y2="115" fill="transparent" shape-rendering="crispEdges" stroke="#000" stroke-width="1" stroke-dasharray="3,3" pointer-events="none"></line><line class="visx-line" x1="0" y1="67.08333333333333" x2="1450" y2="67.08333333333333" fill="transparent" shape-rendering="crispEdges" stroke="#000" stroke-width="1" stroke-dasharray="3,3" pointer-events="none"></line><line class="visx-line" x1="0" y1="19.16666666666666" x2="1450" y2="19.16666666666666" fill="transparent" shape-rendering="crispEdges" stroke="#000" stroke-width="1" stroke-dasharray="3,3" pointer-events="none"></line></g><path class="visx-linepath" d="M0,114.99999999997605C2.4166666666666665,114.99600694443048,4.833333333333334,114.9920138888849,7.25,114.98802083333334C9.666666666666666,114.98402777778178,12.083333333333334,114.98003472222221,14.5,114.97604166666666C16.916666666666668,114.9720486111111,19.333333333333332,114.96805555555555,21.75,114.9640625C24.166666666666668,114.96006944444444,26.583333333333332,114.95607638888889,29,114.95208333333333C31.416666666666668,114.94809027777778,33.833333333333336,114.94409722222223,36.25,114.94010416666667C38.666666666666664,114.93611111111112,41.083333333333336,114.93211805555556,43.5,114.92812500000001C45.91666666666667,114.92413194444445,48.333333333333336,114.92013888888889,50.75000000000001,114.91614583333333C53.16666666666667,114.91215277777778,55.583333333333336,114.90815972222222,58,114.90416666666667C60.416666666666664,114.90017361111111,62.833333333333336,114.89618055555555,65.25,114.89218749999999C67.66666666666667,114.88819444444444,70.08333333333333,114.88420138888888,72.5,114.88020833333333C74.91666666666667,114.87621527777777,77.33333333333333,114.87222222222222,79.75,114.86822916666667C82.16666666666667,114.86423611111111,84.58333333333333,114.86024305555556,87,114.85625C89.41666666666667,114.85225694444445,91.83333333333333,114.8482638888889,94.25,114.84427083333334C96.66666666666667,114.84027777777779,99.08333333333334,114.83628472222222,101.50000000000001,114.83229166666666C103.91666666666667,114.82829861111111,106.33333333333334,114.82430555555555,108.75,114.8203125C111.16666666666667,114.81631944444445,113.58333333333333,114.81232638888888,116,114.80833333333332C118.41666666666667,114.80434027777777,120.83333333333334,114.80034722222221,123.25000000000001,114.79635416666666C125.66666666666667,114.7923611111111,128.08333333333334,114.78836805555557,130.5,114.78437500000001C132.91666666666666,114.78038194444446,135.33333333333334,114.77638888888889,137.75,114.77239583333333C140.16666666666666,114.76840277777778,142.58333333333334,114.76440972222223,145,114.76041666666667C147.41666666666666,114.75642361111112,149.83333333333334,114.75243055555555,152.25,114.7484375C154.66666666666666,114.74444444444444,157.08333333333334,114.74045138888889,159.5,114.73645833333333C161.91666666666666,114.73246527777778,164.33333333333334,114.72847222222222,166.75,114.72447916666667C169.16666666666666,114.72048611111111,171.58333333333334,114.71649305555556,174,114.7125C176.41666666666666,114.70850694444445,178.83333333333334,114.7045138888889,181.25,114.70052083333334C183.66666666666666,114.69652777777779,186.08333333333334,114.69253472222222,188.5,114.68854166666667C190.91666666666666,114.68454861111111,193.33333333333334,114.68055555555556,195.75,114.6765625C198.16666666666669,114.67256944444445,200.58333333333334,114.66857638888888,203.00000000000003,114.66458333333333C205.41666666666669,114.66059027777777,207.83333333333331,114.65659722222222,210.24999999999997,114.65260416666666C212.66666666666666,114.64861111111111,215.08333333333331,114.64461805555555,217.5,114.640625C219.91666666666666,114.63663194444445,222.33333333333334,114.63263888888889,224.75,114.62864583333334C227.16666666666666,114.62465277777778,229.58333333333334,114.62065972222223,232,114.61666666666667C234.41666666666666,114.61267361111112,236.83333333333334,114.60868055555555,239.25,114.6046875C241.66666666666669,114.60069444444444,244.08333333333334,114.59670138888889,246.50000000000003,114.59270833333333C248.91666666666669,114.58871527777778,251.33333333333331,114.58472222222223,253.74999999999997,114.58072916666667C256.16666666666663,114.57673611111112,258.5833333333333,114.57274305555555,261,114.56875C263.4166666666667,114.56475694444444,265.8333333333333,114.56076388888889,268.25,114.55677083333333C270.6666666666667,114.55277777777778,273.0833333333333,114.54878472222222,275.5,114.54479166666667C277.9166666666667,114.54079861111111,280.3333333333333,114.53680555555556,282.75,114.5328125C285.1666666666667,114.52881944444445,287.5833333333333,114.52482638888888,290,114.52083333333333C292.4166666666667,114.51684027777777,294.8333333333333,114.51284722222222,297.25,114.50885416666667C299.6666666666667,114.50486111111111,302.0833333333333,114.50086805555556,304.5,114.496875C306.9166666666667,114.49288194444445,309.3333333333333,114.48888888888888,311.75,114.48489583333333C314.1666666666667,114.48090277777777,316.5833333333333,114.47690972222222,319,114.47291666666666C321.4166666666667,114.46892361111111,323.8333333333333,114.46493055555555,326.25,114.4609375C328.6666666666667,114.45694444444445,331.0833333333333,114.45295138888889,333.5,114.44895833333334C335.9166666666667,114.44496527777778,338.3333333333333,114.44097222222223,340.75,114.43697916666667C343.1666666666667,114.43298611111112,345.5833333333333,114.42899305555555,348,114.425C350.4166666666667,114.42100694444444,352.8333333333333,114.41701388888889,355.25,114.41302083333333C357.6666666666667,114.40902777777778,360.0833333333333,114.40503472222221,362.5,114.40104166666666C364.9166666666667,114.3970486111111,367.3333333333333,114.39305555555555,369.75,114.3890625C372.1666666666667,114.38506944444444,374.5833333333333,114.38107638888889,377,114.37708333333333C379.4166666666667,114.37309027777778,381.8333333333333,114.36909722222222,384.25,114.36510416666667C386.6666666666667,114.36111111111111,389.0833333333333,114.35711805555556,391.5,114.353125C393.9166666666667,114.34913194444445,396.33333333333337,114.34513888888888,398.75000000000006,114.34114583333333C401.16666666666674,114.33715277777777,403.58333333333337,114.33315972222222,406.00000000000006,114.32916666666667C408.4166666666667,114.32517361111111,410.8333333333333,114.32118055555554,413.24999999999994,114.31718749999999C415.66666666666663,114.31319444444443,418.08333333333326,114.30920138888888,420.49999999999994,114.30520833333333C422.91666666666663,114.30121527777777,425.3333333333333,114.29722222222223,427.75,114.29322916666668C430.1666666666667,114.28923611111112,432.5833333333333,114.28524305555555,435,114.28125C437.4166666666667,114.27725694444445,439.8333333333333,114.27326388888889,442.25,114.26927083333334C444.6666666666667,114.26527777777778,447.0833333333333,114.26128472222221,449.5,114.25729166666666C451.9166666666667,114.2532986111111,454.3333333333333,114.24930555555555,456.75,114.2453125C459.1666666666667,114.24131944444444,461.5833333333333,114.23732638888889,464,114.23333333333333C466.4166666666667,114.22934027777778,468.8333333333333,114.22534722222223,471.25,114.22135416666667C473.6666666666667,114.21736111111112,476.0833333333333,114.21336805555556,478.5,114.20937500000001C480.9166666666667,114.20538194444445,483.33333333333337,114.20138888888889,485.75000000000006,114.19739583333333C488.16666666666674,114.19340277777778,490.58333333333337,114.18940972222222,493.00000000000006,114.18541666666667C495.4166666666667,114.18142361111111,497.8333333333333,114.17743055555555,500.24999999999994,114.17343749999999C502.66666666666663,114.16944444444444,505.08333333333326,114.16545138888888,507.49999999999994,114.16145833333333C509.91666666666663,114.15746527777777,512.3333333333333,114.15347222222222,514.75,114.14947916666667C517.1666666666666,114.14548611111111,519.5833333333334,114.14149305555556,522,114.1375C524.4166666666666,114.13350694444445,526.8333333333334,114.1295138888889,529.25,114.12552083333334C531.6666666666666,114.12152777777779,534.0833333333334,114.11753472222222,536.5,114.11354166666666C538.9166666666666,114.10954861111111,541.3333333333334,114.10555555555555,543.75,114.1015625C546.1666666666666,114.09756944444445,548.5833333333334,114.09357638888889,551,114.08958333333334C553.4166666666666,114.08559027777778,555.8333333333334,114.08159722222221,558.25,114.07760416666666C560.6666666666666,114.0736111111111,563.0833333333334,114.06961805555555,565.5,114.065625C567.9166666666666,114.06163194444444,570.3333333333334,114.05763888888889,572.75,114.05364583333333C575.1666666666666,114.04965277777778,577.5833333333334,114.04565972222223,580,114.04166666666667C582.4166666666666,114.03767361111112,584.8333333333334,114.03368055555556,587.25,114.02968750000001C589.6666666666666,114.02569444444445,592.0833333333334,114.02170138888889,594.5,114.01770833333333C596.9166666666666,114.01371527777778,599.3333333333334,114.00972222222222,601.75,114.00572916666667C604.1666666666666,114.00173611111111,606.5833333333334,113.99774305555555,609,113.99374999999999C611.4166666666666,113.98975694444444,613.8333333333334,113.98576388888888,616.25,113.98177083333333C618.6666666666666,113.97777777777777,621.0833333333334,113.97378472222222,623.5,113.96979166666667C625.9166666666666,113.96579861111111,628.3333333333334,113.96180555555556,630.75,113.9578125C633.1666666666666,113.95381944444445,635.5833333333334,113.9498263888889,638,113.94583333333334C640.4166666666666,113.94184027777779,642.8333333333334,113.93784722222222,645.25,113.93385416666666C647.6666666666666,113.92986111111111,650.0833333333334,113.92586805555555,652.5,113.921875C654.9166666666666,113.91788194444445,657.3333333333334,113.91388888888888,659.75,113.90989583333332C662.1666666666666,113.90590277777777,664.5833333333334,113.90190972222223,667,113.89791666666667C669.4166666666666,113.89392361111112,671.8333333333334,113.88993055555557,674.25,113.88593750000001C676.6666666666666,113.88194444444446,679.0833333333334,113.87795138888889,681.5,113.87395833333333C683.9166666666666,113.86996527777778,686.3333333333334,113.86597222222223,688.75,113.86197916666667C691.1666666666666,113.85798611111112,693.5833333333334,113.85399305555555,696,113.85C698.4166666666666,113.84600694444444,700.8333333333334,113.84201388888889,703.25,113.83802083333333C705.6666666666666,113.83402777777778,708.0833333333334,113.83003472222222,710.5,113.82604166666667C712.9166666666666,113.82204861111111,715.3333333333334,113.81805555555556,717.75,113.8140625C720.1666666666666,113.81006944444445,722.5833333333334,113.8060763888889,725,113.80208333333334C727.4166666666666,113.79809027777779,729.8333333333334,113.79409722222222,732.25,113.79010416666667C734.6666666666666,113.78611111111111,737.0833333333334,113.78211805555556,739.5,113.778125C741.9166666666666,113.77413194444445,744.3333333333334,113.77013888888888,746.75,113.76614583333333C749.1666666666666,113.76215277777777,751.5833333333334,113.75815972222222,754,113.75416666666666C756.4166666666666,113.75017361111111,758.8333333333334,113.74618055555555,761.25,113.7421875C763.6666666666666,113.73819444444445,766.0833333333334,113.73420138888889,768.5,113.73020833333334C770.9166666666666,113.72621527777778,773.3333333333334,113.72222222222223,775.75,113.71822916666667C778.1666666666666,113.71423611111112,780.5833333333334,113.71024305555555,783,113.70625C785.4166666666667,113.70225694444444,787.8333333333334,113.69826388888889,790.2500000000001,113.69427083333333C792.6666666666667,113.69027777777778,795.0833333333335,113.68628472222223,797.5000000000001,113.68229166666667C799.9166666666667,113.67829861111112,802.3333333333335,113.67430555555555,804.7500000000001,113.6703125C807.1666666666667,113.66631944444444,809.5833333333335,113.66232638888889,812.0000000000001,113.65833333333333C814.4166666666667,113.65434027777778,816.8333333333333,113.65034722222222,819.2499999999999,113.64635416666667C821.6666666666665,113.64236111111111,824.0833333333333,113.63836805555556,826.4999999999999,113.634375C828.9166666666665,113.63038194444445,831.3333333333333,113.62638888888888,833.7499999999999,113.62239583333333C836.1666666666665,113.61840277777777,838.5833333333333,113.61440972222222,840.9999999999999,113.61041666666667C843.4166666666666,113.60642361111111,845.8333333333333,113.60243055555556,848.25,113.5984375C850.6666666666666,113.59444444444445,853.0833333333334,113.59045138888888,855.5,113.58645833333333C857.9166666666666,113.58246527777777,860.3333333333334,113.57847222222222,862.75,113.57447916666666C865.1666666666666,113.57048611111111,867.5833333333334,113.56649305555555,870,113.5625C872.4166666666666,113.55850694444445,874.8333333333334,113.55451388888889,877.25,113.55052083333334C879.6666666666666,113.54652777777778,882.0833333333334,113.54253472222223,884.5,113.53854166666667C886.9166666666666,113.53454861111112,889.3333333333334,113.53055555555555,891.75,113.5265625C894.1666666666666,113.52256944444444,896.5833333333334,113.51857638888889,899,113.51458333333333C901.4166666666666,113.51059027777778,903.8333333333334,113.50659722222221,906.25,113.50260416666666C908.6666666666666,113.4986111111111,911.0833333333334,113.49461805555555,913.5,113.490625C915.9166666666666,113.48663194444444,918.3333333333334,113.48263888888889,920.75,113.47864583333333C923.1666666666666,113.47465277777778,925.5833333333334,113.47065972222222,928,113.46666666666667C930.4166666666666,113.46267361111111,932.8333333333334,113.45868055555556,935.25,113.4546875C937.6666666666666,113.45069444444445,940.0833333333334,113.44670138888888,942.5,113.44270833333333C944.9166666666666,113.43871527777777,947.3333333333334,113.43472222222222,949.75,113.43072916666667C952.1666666666666,113.42673611111111,954.5833333333334,113.42274305555554,957,113.41874999999999C959.4166666666666,113.41475694444443,961.8333333333334,113.41076388888888,964.25,113.40677083333333C966.6666666666667,113.40277777777777,969.0833333333334,113.39878472222223,971.5000000000001,113.39479166666668C973.9166666666667,113.39079861111112,976.3333333333335,113.38680555555555,978.7500000000001,113.3828125C981.1666666666667,113.37881944444445,983.5833333333335,113.37482638888889,986.0000000000001,113.37083333333334C988.4166666666667,113.36684027777778,990.8333333333335,113.36284722222221,993.2500000000001,113.35885416666666C995.6666666666667,113.3548611111111,998.0833333333333,113.35086805555555,1000.4999999999999,113.346875C1002.9166666666665,113.34288194444444,1005.3333333333333,113.33888888888889,1007.7499999999999,113.33489583333333C1010.1666666666665,113.33090277777778,1012.5833333333333,113.32690972222223,1014.9999999999999,113.32291666666667C1017.4166666666665,113.31892361111112,1019.8333333333333,113.31493055555556,1022.2499999999999,113.31093750000001C1024.6666666666665,113.30694444444445,1027.0833333333333,113.30295138888889,1029.5,113.29895833333333C1031.9166666666667,113.29496527777778,1034.3333333333333,113.29097222222222,1036.75,113.28697916666667C1039.1666666666667,113.28298611111111,1041.5833333333333,113.27899305555555,1044,113.27499999999999C1046.4166666666667,113.27100694444444,1048.8333333333333,113.26701388888888,1051.25,113.26302083333333C1053.6666666666667,113.25902777777777,1056.0833333333333,113.25503472222222,1058.5,113.25104166666667C1060.9166666666667,113.24704861111111,1063.3333333333333,113.24305555555556,1065.75,113.2390625C1068.1666666666667,113.23506944444445,1070.5833333333333,113.2310763888889,1073,113.22708333333334C1075.4166666666667,113.22309027777779,1077.8333333333333,113.21909722222222,1080.25,113.21510416666666C1082.6666666666667,113.21111111111111,1085.0833333333333,113.20711805555555,1087.5,113.203125C1089.9166666666667,113.19913194444445,1092.3333333333333,113.19513888888889,1094.75,113.19114583333334C1097.1666666666667,113.18715277777778,1099.5833333333333,113.18315972222221,1102,113.17916666666666C1104.4166666666667,113.1751736111111,1106.8333333333333,113.17118055555555,1109.25,113.1671875C1111.6666666666667,113.16319444444444,1114.0833333333333,113.15920138888889,1116.5,113.15520833333333C1118.9166666666667,113.15121527777778,1121.3333333333333,113.14722222222223,1123.75,113.14322916666667C1126.1666666666667,113.13923611111112,1128.5833333333333,113.13524305555556,1131,113.13125000000001C1133.4166666666667,113.12725694444445,1135.8333333333333,113.12326388888889,1138.25,113.11927083333333C1140.6666666666667,113.11527777777778,1143.0833333333333,113.11128472222222,1145.5,113.10729166666667C1147.9166666666667,113.10329861111111,1150.3333333333333,113.09930555555555,1152.75,113.09531249999999C1155.1666666666667,113.09131944444444,1157.5833333333333,113.09131944444444,1160,113.08333333333333C1162.4166666666667,113.07534722222222,1164.8333333333333,112.28472222222223,1167.25,111.88541666666667C1169.6666666666667,111.48611111111111,1172.0833333333333,111.08680555555556,1174.5,110.6875C1176.9166666666667,110.28819444444444,1179.3333333333333,109.88888888888889,1181.75,109.48958333333333C1184.1666666666667,109.09027777777777,1186.5833333333333,108.69097222222223,1189,108.29166666666667C1191.4166666666667,107.89236111111111,1193.8333333333333,107.49305555555556,1196.25,107.09375C1198.6666666666667,106.69444444444444,1201.0833333333333,106.2951388888889,1203.5,105.89583333333334C1205.9166666666667,105.49652777777779,1208.3333333333333,105.09722222222223,1210.75,104.69791666666667C1213.1666666666667,104.29861111111111,1215.5833333333333,103.89930555555556,1218,103.5C1220.4166666666667,103.10069444444444,1222.8333333333333,102.7013888888889,1225.25,102.30208333333334C1227.6666666666667,101.90277777777779,1230.0833333333333,101.50347222222223,1232.5,101.10416666666667C1234.9166666666667,100.70486111111111,1237.3333333333333,100.30555555555556,1239.75,99.90625C1242.1666666666667,99.50694444444444,1244.5833333333333,99.1076388888889,1247,98.70833333333334C1249.4166666666667,98.30902777777779,1251.8333333333333,97.90972222222223,1254.25,97.51041666666667C1256.6666666666667,97.11111111111111,1259.0833333333333,96.71180555555556,1261.5,96.3125C1263.9166666666667,95.91319444444444,1266.3333333333333,95.5138888888889,1268.75,95.11458333333334C1271.1666666666667,94.71527777777779,1273.5833333333333,94.31597222222223,1276,93.91666666666667C1278.4166666666667,93.51736111111111,1280.8333333333333,93.11805555555556,1283.25,92.71875C1285.6666666666667,92.31944444444444,1288.0833333333333,91.9201388888889,1290.5,91.52083333333334C1292.9166666666667,91.12152777777779,1295.3333333333333,90.72222222222223,1297.75,90.32291666666667C1300.1666666666667,89.92361111111111,1302.5833333333333,89.52430555555556,1305,89.125C1307.4166666666667,88.72569444444444,1309.8333333333333,88.3263888888889,1312.25,87.92708333333334C1314.6666666666667,87.52777777777779,1317.0833333333333,87.12847222222223,1319.5,86.72916666666667C1321.9166666666667,86.32986111111111,1324.3333333333333,85.93055555555556,1326.75,85.53125C1329.1666666666667,85.13194444444444,1331.5833333333333,84.7326388888889,1334,84.33333333333334C1336.4166666666667,83.93402777777779,1338.8333333333333,83.53472222222223,1341.25,83.13541666666667C1343.6666666666667,82.73611111111111,1346.0833333333333,82.33680555555556,1348.5,81.9375C1350.9166666666667,81.53819444444444,1353.3333333333333,81.1388888888889,1355.75,80.73958333333334C1358.1666666666667,80.34027777777779,1360.5833333333333,79.94097222222223,1363,79.54166666666667C1365.4166666666667,79.14236111111111,1367.8333333333333,78.74305555555556,1370.25,78.34375C1372.6666666666667,77.94444444444444,1375.0833333333333,77.5451388888889,1377.5,77.14583333333334C1379.9166666666667,76.74652777777779,1382.3333333333333,76.34722222222223,1384.75,75.94791666666667C1387.1666666666667,75.54861111111111,1389.5833333333333,75.14930555555556,1392,74.75C1394.4166666666667,74.35069444444444,1396.8333333333333,73.9513888888889,1399.25,73.55208333333334C1401.6666666666667,73.15277777777779,1404.0833333333333,72.75347222222223,1406.5,72.35416666666667C1408.9166666666667,71.95486111111111,1411.3333333333333,71.55555555555556,1413.75,71.15625C1416.1666666666667,70.75694444444444,1418.5833333333333,70.3576388888889,1421,69.95833333333334C1423.4166666666667,69.55902777777779,1425.8333333333333,69.15972222222223,1428.25,68.76041666666667C1430.6666666666667,68.36111111111111,1433.0833333333333,67.96180555555556,1435.5,67.5625C1437.9166666666667,67.16319444444444,1440.3333333333333,66.7638888888889,1442.75,66.36458333333334C1445.1666666666667,65.96527777777779,1447.5833333333333,65.56597222222223,1450,65.16666666666667" fill="transparent" stroke-linecap="round" stroke="#B6509E" stroke-width="2"></path><path class="visx-linepath" d="M0,110.20833333332135C2.4166666666666665,110.20633680554856,4.833333333333334,110.20434027777577,7.25,110.20234375C9.666666666666666,110.20034722222422,12.083333333333334,110.19835069444444,14.5,110.19635416666667C16.916666666666668,110.19435763888889,19.333333333333332,110.19236111111111,21.75,110.19036458333333C24.166666666666668,110.18836805555556,26.583333333333332,110.18637152777778,29,110.184375C31.416666666666668,110.18237847222223,33.833333333333336,110.18038194444445,36.25,110.17838541666667C38.666666666666664,110.1763888888889,41.083333333333336,110.1743923611111,43.5,110.17239583333333C45.91666666666667,110.17039930555555,48.333333333333336,110.16840277777779,50.75000000000001,110.16640625000001C53.16666666666667,110.16440972222223,55.583333333333336,110.16241319444444,58,110.16041666666666C60.416666666666664,110.15842013888889,62.833333333333336,110.15642361111111,65.25,110.15442708333333C67.66666666666667,110.15243055555555,70.08333333333333,110.15043402777778,72.5,110.1484375C74.91666666666667,110.14644097222222,77.33333333333333,110.14444444444445,79.75,110.14244791666667C82.16666666666667,110.14045138888889,84.58333333333333,110.13845486111111,87,110.13645833333334C89.41666666666667,110.13446180555556,91.83333333333333,110.13246527777777,94.25,110.13046874999999C96.66666666666667,110.12847222222221,99.08333333333334,110.12647569444445,101.50000000000001,110.12447916666667C103.91666666666667,110.1224826388889,106.33333333333334,110.1204861111111,108.75,110.11848958333333C111.16666666666667,110.11649305555555,113.58333333333333,110.11449652777777,116,110.1125C118.41666666666667,110.11050347222222,120.83333333333334,110.10850694444444,123.25000000000001,110.10651041666667C125.66666666666667,110.10451388888889,128.08333333333334,110.10251736111111,130.5,110.10052083333333C132.91666666666666,110.09852430555556,135.33333333333334,110.09652777777778,137.75,110.09453125C140.16666666666666,110.09253472222223,142.58333333333334,110.09053819444445,145,110.08854166666667C147.41666666666666,110.0865451388889,149.83333333333334,110.08454861111112,152.25,110.08255208333334C154.66666666666666,110.08055555555556,157.08333333333334,110.07855902777777,159.5,110.0765625C161.91666666666666,110.07456597222222,164.33333333333334,110.07256944444444,166.75,110.07057291666666C169.16666666666666,110.06857638888889,171.58333333333334,110.06657986111111,174,110.06458333333333C176.41666666666666,110.06258680555555,178.83333333333334,110.06059027777778,181.25,110.05859375C183.66666666666666,110.05659722222222,186.08333333333334,110.05460069444445,188.5,110.05260416666667C190.91666666666666,110.05060763888889,193.33333333333334,110.04861111111111,195.75,110.04661458333334C198.16666666666669,110.04461805555556,200.58333333333334,110.04262152777778,203.00000000000003,110.040625C205.41666666666669,110.03862847222223,207.83333333333331,110.03663194444444,210.24999999999997,110.03463541666666C212.66666666666666,110.03263888888888,215.08333333333331,110.0306423611111,217.5,110.02864583333333C219.91666666666666,110.02664930555555,222.33333333333334,110.02465277777777,224.75,110.02265625C227.16666666666666,110.02065972222222,229.58333333333334,110.01866319444444,232,110.01666666666667C234.41666666666666,110.01467013888889,236.83333333333334,110.01267361111111,239.25,110.01067708333333C241.66666666666669,110.00868055555556,244.08333333333334,110.00668402777778,246.50000000000003,110.0046875C248.91666666666669,110.00269097222223,251.33333333333331,110.00069444444445,253.74999999999997,109.99869791666667C256.16666666666663,109.9967013888889,258.5833333333333,109.9947048611111,261,109.99270833333333C263.4166666666667,109.99071180555555,265.8333333333333,109.98871527777779,268.25,109.98671875000001C270.6666666666667,109.98472222222223,273.0833333333333,109.98272569444444,275.5,109.98072916666666C277.9166666666667,109.97873263888889,280.3333333333333,109.97673611111111,282.75,109.97473958333333C285.1666666666667,109.97274305555555,287.5833333333333,109.97074652777778,290,109.96875C292.4166666666667,109.96675347222222,294.8333333333333,109.96475694444445,297.25,109.96276041666667C299.6666666666667,109.96076388888889,302.0833333333333,109.95876736111111,304.5,109.95677083333334C306.9166666666667,109.95477430555556,309.3333333333333,109.95277777777777,311.75,109.95078124999999C314.1666666666667,109.94878472222221,316.5833333333333,109.94678819444445,319,109.94479166666667C321.4166666666667,109.9427951388889,323.8333333333333,109.9407986111111,326.25,109.93880208333333C328.6666666666667,109.93680555555555,331.0833333333333,109.93480902777777,333.5,109.9328125C335.9166666666667,109.93081597222222,338.3333333333333,109.92881944444444,340.75,109.92682291666667C343.1666666666667,109.92482638888889,345.5833333333333,109.92282986111111,348,109.92083333333333C350.4166666666667,109.91883680555556,352.8333333333333,109.91684027777778,355.25,109.91484375C357.6666666666667,109.91284722222223,360.0833333333333,109.91085069444443,362.5,109.90885416666666C364.9166666666667,109.90685763888888,367.3333333333333,109.90486111111112,369.75,109.90286458333334C372.1666666666667,109.90086805555556,374.5833333333333,109.89887152777777,377,109.896875C379.4166666666667,109.89487847222222,381.8333333333333,109.89288194444444,384.25,109.89088541666666C386.6666666666667,109.88888888888889,389.0833333333333,109.88689236111111,391.5,109.88489583333333C393.9166666666667,109.88289930555555,396.33333333333337,109.88090277777778,398.75000000000006,109.87890625C401.16666666666674,109.87690972222222,403.58333333333337,109.87491319444445,406.00000000000006,109.87291666666667C408.4166666666667,109.87092013888889,410.8333333333333,109.8689236111111,413.24999999999994,109.86692708333332C415.66666666666663,109.86493055555555,418.08333333333326,109.86293402777778,420.49999999999994,109.8609375C422.91666666666663,109.85894097222223,425.3333333333333,109.85694444444444,427.75,109.85494791666666C430.1666666666667,109.85295138888888,432.5833333333333,109.8509548611111,435,109.84895833333333C437.4166666666667,109.84696180555555,439.8333333333333,109.84496527777779,442.25,109.84296875000001C444.6666666666667,109.84097222222223,447.0833333333333,109.83897569444444,449.5,109.83697916666667C451.9166666666667,109.83498263888889,454.3333333333333,109.83298611111111,456.75,109.83098958333333C459.1666666666667,109.82899305555556,461.5833333333333,109.82699652777777,464,109.82499999999999C466.4166666666667,109.82300347222221,468.8333333333333,109.82100694444445,471.25,109.81901041666667C473.6666666666667,109.8170138888889,476.0833333333333,109.81501736111112,478.5,109.81302083333334C480.9166666666667,109.81102430555556,483.33333333333337,109.80902777777777,485.75000000000006,109.80703125C488.16666666666674,109.80503472222222,490.58333333333337,109.80303819444445,493.00000000000006,109.80104166666668C495.4166666666667,109.7990451388889,497.8333333333333,109.79704861111111,500.24999999999994,109.79505208333333C502.66666666666663,109.79305555555555,505.08333333333326,109.79105902777778,507.49999999999994,109.7890625C509.91666666666663,109.78706597222222,512.3333333333333,109.78506944444445,514.75,109.78307291666667C517.1666666666666,109.78107638888889,519.5833333333334,109.77907986111111,522,109.77708333333334C524.4166666666666,109.77508680555556,526.8333333333334,109.77309027777778,529.25,109.77109375C531.6666666666666,109.76909722222223,534.0833333333334,109.76710069444444,536.5,109.76510416666666C538.9166666666666,109.76310763888888,541.3333333333334,109.76111111111112,543.75,109.75911458333334C546.1666666666666,109.75711805555557,548.5833333333334,109.75512152777777,551,109.753125C553.4166666666666,109.75112847222222,555.8333333333334,109.74913194444444,558.25,109.74713541666667C560.6666666666666,109.74513888888889,563.0833333333334,109.74314236111111,565.5,109.74114583333333C567.9166666666666,109.73914930555556,570.3333333333334,109.73715277777778,572.75,109.73515625C575.1666666666666,109.73315972222223,577.5833333333334,109.73116319444445,580,109.72916666666667C582.4166666666666,109.7271701388889,584.8333333333334,109.7251736111111,587.25,109.72317708333333C589.6666666666666,109.72118055555555,592.0833333333334,109.71918402777779,594.5,109.71718750000001C596.9166666666666,109.71519097222223,599.3333333333334,109.71319444444444,601.75,109.71119791666666C604.1666666666666,109.70920138888889,606.5833333333334,109.70720486111111,609,109.70520833333333C611.4166666666666,109.70321180555555,613.8333333333334,109.70121527777778,616.25,109.69921875C618.6666666666666,109.69722222222222,621.0833333333334,109.69522569444445,623.5,109.69322916666667C625.9166666666666,109.69123263888889,628.3333333333334,109.68923611111111,630.75,109.68723958333334C633.1666666666666,109.68524305555556,635.5833333333334,109.68324652777777,638,109.68124999999999C640.4166666666666,109.67925347222221,642.8333333333334,109.67725694444445,645.25,109.67526041666667C647.6666666666666,109.6732638888889,650.0833333333334,109.6712673611111,652.5,109.66927083333333C654.9166666666666,109.66727430555555,657.3333333333334,109.66527777777777,659.75,109.66328125C662.1666666666666,109.66128472222222,664.5833333333334,109.65928819444444,667,109.65729166666667C669.4166666666666,109.65529513888889,671.8333333333334,109.65329861111111,674.25,109.65130208333333C676.6666666666666,109.64930555555556,679.0833333333334,109.64730902777778,681.5,109.6453125C683.9166666666666,109.64331597222223,686.3333333333334,109.64131944444445,688.75,109.63932291666667C691.1666666666666,109.6373263888889,693.5833333333334,109.63532986111112,696,109.63333333333334C698.4166666666666,109.63133680555556,700.8333333333334,109.62934027777777,703.25,109.62734375C705.6666666666666,109.62534722222222,708.0833333333334,109.62335069444444,710.5,109.62135416666666C712.9166666666666,109.61935763888889,715.3333333333334,109.61736111111111,717.75,109.61536458333333C720.1666666666666,109.61336805555555,722.5833333333334,109.61137152777778,725,109.609375C727.4166666666666,109.60737847222222,729.8333333333334,109.60538194444445,732.25,109.60338541666667C734.6666666666666,109.60138888888889,737.0833333333334,109.59939236111111,739.5,109.59739583333334C741.9166666666666,109.59539930555556,744.3333333333334,109.59340277777778,746.75,109.59140625C749.1666666666666,109.58940972222223,751.5833333333334,109.58741319444444,754,109.58541666666666C756.4166666666666,109.58342013888888,758.8333333333334,109.5814236111111,761.25,109.57942708333333C763.6666666666666,109.57743055555555,766.0833333333334,109.57543402777777,768.5,109.5734375C770.9166666666666,109.57144097222222,773.3333333333334,109.56944444444444,775.75,109.56744791666667C778.1666666666666,109.56545138888889,780.5833333333334,109.56345486111111,783,109.56145833333333C785.4166666666667,109.55946180555556,787.8333333333334,109.55746527777778,790.2500000000001,109.55546875C792.6666666666667,109.55347222222223,795.0833333333335,109.55147569444445,797.5000000000001,109.54947916666667C799.9166666666667,109.5474826388889,802.3333333333335,109.5454861111111,804.7500000000001,109.54348958333333C807.1666666666667,109.54149305555555,809.5833333333335,109.53949652777779,812.0000000000001,109.53750000000001C814.4166666666667,109.53550347222223,816.8333333333333,109.53350694444444,819.2499999999999,109.53151041666666C821.6666666666665,109.52951388888889,824.0833333333333,109.52751736111111,826.4999999999999,109.52552083333333C828.9166666666665,109.52352430555555,831.3333333333333,109.52152777777778,833.7499999999999,109.51953125C836.1666666666665,109.51753472222222,838.5833333333333,109.51553819444445,840.9999999999999,109.51354166666667C843.4166666666666,109.51154513888889,845.8333333333333,109.50954861111111,848.25,109.50755208333334C850.6666666666666,109.50555555555556,853.0833333333334,109.50355902777777,855.5,109.50156249999999C857.9166666666666,109.49956597222221,860.3333333333334,109.49756944444445,862.75,109.49557291666667C865.1666666666666,109.4935763888889,867.5833333333334,109.4915798611111,870,109.48958333333333C872.4166666666666,109.48758680555555,874.8333333333334,109.48559027777777,877.25,109.48359375C879.6666666666666,109.48159722222222,882.0833333333334,109.47960069444444,884.5,109.47760416666667C886.9166666666666,109.47560763888889,889.3333333333334,109.47361111111111,891.75,109.47161458333333C894.1666666666666,109.46961805555556,896.5833333333334,109.46762152777778,899,109.465625C901.4166666666666,109.46362847222223,903.8333333333334,109.46163194444443,906.25,109.45963541666666C908.6666666666666,109.45763888888888,911.0833333333334,109.45564236111112,913.5,109.45364583333334C915.9166666666666,109.45164930555556,918.3333333333334,109.44965277777777,920.75,109.44765625C923.1666666666666,109.44565972222222,925.5833333333334,109.44366319444444,928,109.44166666666666C930.4166666666666,109.43967013888889,932.8333333333334,109.43767361111111,935.25,109.43567708333333C937.6666666666666,109.43368055555555,940.0833333333334,109.43168402777778,942.5,109.4296875C944.9166666666666,109.42769097222222,947.3333333333334,109.42569444444445,949.75,109.42369791666667C952.1666666666666,109.42170138888889,954.5833333333334,109.4197048611111,957,109.41770833333332C959.4166666666666,109.41571180555555,961.8333333333334,109.41371527777778,964.25,109.41171875C966.6666666666667,109.40972222222223,969.0833333333334,109.40772569444444,971.5000000000001,109.40572916666666C973.9166666666667,109.40373263888888,976.3333333333335,109.4017361111111,978.7500000000001,109.39973958333333C981.1666666666667,109.39774305555555,983.5833333333335,109.39574652777779,986.0000000000001,109.39375000000001C988.4166666666667,109.39175347222223,990.8333333333335,109.38975694444444,993.2500000000001,109.38776041666667C995.6666666666667,109.38576388888889,998.0833333333333,109.38376736111111,1000.4999999999999,109.38177083333333C1002.9166666666665,109.37977430555556,1005.3333333333333,109.37777777777777,1007.7499999999999,109.37578124999999C1010.1666666666665,109.37378472222221,1012.5833333333333,109.37178819444445,1014.9999999999999,109.36979166666667C1017.4166666666665,109.3677951388889,1019.8333333333333,109.36579861111112,1022.2499999999999,109.36380208333334C1024.6666666666665,109.36180555555556,1027.0833333333333,109.35980902777777,1029.5,109.3578125C1031.9166666666667,109.35581597222222,1034.3333333333333,109.35381944444445,1036.75,109.35182291666668C1039.1666666666667,109.3498263888889,1041.5833333333333,109.34782986111111,1044,109.34583333333333C1046.4166666666667,109.34383680555555,1048.8333333333333,109.34184027777778,1051.25,109.33984375C1053.6666666666667,109.33784722222222,1056.0833333333333,109.33585069444445,1058.5,109.33385416666667C1060.9166666666667,109.33185763888889,1063.3333333333333,109.32986111111111,1065.75,109.32786458333334C1068.1666666666667,109.32586805555556,1070.5833333333333,109.32387152777778,1073,109.321875C1075.4166666666667,109.31987847222223,1077.8333333333333,109.31788194444444,1080.25,109.31588541666666C1082.6666666666667,109.31388888888888,1085.0833333333333,109.31189236111112,1087.5,109.30989583333334C1089.9166666666667,109.30789930555557,1092.3333333333333,109.30590277777777,1094.75,109.30390625C1097.1666666666667,109.30190972222222,1099.5833333333333,109.29991319444444,1102,109.29791666666667C1104.4166666666667,109.29592013888889,1106.8333333333333,109.29392361111111,1109.25,109.29192708333333C1111.6666666666667,109.28993055555556,1114.0833333333333,109.28793402777778,1116.5,109.2859375C1118.9166666666667,109.28394097222223,1121.3333333333333,109.28194444444445,1123.75,109.27994791666667C1126.1666666666667,109.2779513888889,1128.5833333333333,109.2759548611111,1131,109.27395833333333C1133.4166666666667,109.27196180555555,1135.8333333333333,109.26996527777779,1138.25,109.26796875000001C1140.6666666666667,109.26597222222223,1143.0833333333333,109.26397569444444,1145.5,109.26197916666666C1147.9166666666667,109.25998263888889,1150.3333333333333,109.25798611111111,1152.75,109.25598958333333C1155.1666666666667,109.25399305555555,1157.5833333333333,109.25399305555555,1160,109.25C1162.4166666666667,109.24600694444445,1164.8333333333333,107.65277777777779,1167.25,106.85416666666667C1169.6666666666667,106.05555555555556,1172.0833333333333,105.25694444444444,1174.5,104.45833333333333C1176.9166666666667,103.65972222222221,1179.3333333333333,102.86111111111111,1181.75,102.0625C1184.1666666666667,101.26388888888889,1186.5833333333333,100.46527777777779,1189,99.66666666666667C1191.4166666666667,98.86805555555556,1193.8333333333333,98.06944444444444,1196.25,97.27083333333333C1198.6666666666667,96.47222222222221,1201.0833333333333,95.67361111111111,1203.5,94.875C1205.9166666666667,94.07638888888889,1208.3333333333333,93.27777777777779,1210.75,92.47916666666667C1213.1666666666667,91.68055555555556,1215.5833333333333,90.88194444444444,1218,90.08333333333333C1220.4166666666667,89.28472222222221,1222.8333333333333,88.48611111111113,1225.25,87.68750000000001C1227.6666666666667,86.8888888888889,1230.0833333333333,86.09027777777779,1232.5,85.29166666666667C1234.9166666666667,84.49305555555556,1237.3333333333333,83.69444444444444,1239.75,82.89583333333333C1242.1666666666667,82.09722222222221,1244.5833333333333,81.29861111111111,1247,80.5C1249.4166666666667,79.70138888888889,1251.8333333333333,78.90277777777779,1254.25,78.10416666666667C1256.6666666666667,77.30555555555556,1259.0833333333333,76.50694444444444,1261.5,75.70833333333333C1263.9166666666667,74.90972222222221,1266.3333333333333,74.11111111111111,1268.75,73.3125C1271.1666666666667,72.51388888888889,1273.5833333333333,71.71527777777779,1276,70.91666666666667C1278.4166666666667,70.11805555555556,1280.8333333333333,69.31944444444444,1283.25,68.52083333333333C1285.6666666666667,67.72222222222221,1288.0833333333333,66.92361111111111,1290.5,66.125C1292.9166666666667,65.32638888888889,1295.3333333333333,64.52777777777779,1297.75,63.72916666666667C1300.1666666666667,62.93055555555556,1302.5833333333333,62.131944444444436,1305,61.33333333333332C1307.4166666666667,60.53472222222221,1309.8333333333333,59.7361111111111,1312.25,58.93749999999999C1314.6666666666667,58.138888888888886,1317.0833333333333,57.34027777777778,1319.5,56.54166666666667C1321.9166666666667,55.743055555555564,1324.3333333333333,54.94444444444445,1326.75,54.145833333333336C1329.1666666666667,53.34722222222222,1331.5833333333333,52.5486111111111,1334,51.74999999999999C1336.4166666666667,50.951388888888886,1338.8333333333333,50.15277777777778,1341.25,49.35416666666667C1343.6666666666667,48.555555555555564,1346.0833333333333,47.75694444444445,1348.5,46.958333333333336C1350.9166666666667,46.15972222222222,1353.3333333333333,45.3611111111111,1355.75,44.56249999999999C1358.1666666666667,43.763888888888886,1360.5833333333333,42.96527777777778,1363,42.16666666666667C1365.4166666666667,41.368055555555564,1367.8333333333333,40.56944444444445,1370.25,39.770833333333336C1372.6666666666667,38.97222222222222,1375.0833333333333,38.1736111111111,1377.5,37.37499999999999C1379.9166666666667,36.576388888888886,1382.3333333333333,35.77777777777778,1384.75,34.97916666666667C1387.1666666666667,34.180555555555564,1389.5833333333333,33.38194444444445,1392,32.583333333333336C1394.4166666666667,31.784722222222225,1396.8333333333333,30.986111111111107,1399.25,30.187499999999996C1401.6666666666667,29.388888888888886,1404.0833333333333,28.590277777777782,1406.5,27.79166666666667C1408.9166666666667,26.99305555555556,1411.3333333333333,26.194444444444443,1413.75,25.395833333333332C1416.1666666666667,24.59722222222222,1418.5833333333333,23.798611111111107,1421,22.999999999999996C1423.4166666666667,22.201388888888886,1425.8333333333333,21.402777777777782,1428.25,20.60416666666667C1430.6666666666667,19.80555555555556,1433.0833333333333,19.006944444444443,1435.5,18.208333333333332C1437.9166666666667,17.40972222222222,1440.3333333333333,16.611111111111118,1442.75,15.812500000000007C1445.1666666666667,15.013888888888896,1447.5833333333333,14.215277777777784,1450,13.41666666666667" fill="transparent" stroke-linecap="round" stroke="#E7C6DF" stroke-width="2"></path><g class="visx-group visx-axis visx-axis-bottom" transform="translate(0, 115)"><g class="visx-group visx-axis-tick" transform="translate(0, 0)"><line class="visx-line" x1="0" y1="0" x2="0" y2="8" fill="transparent" shape-rendering="crispEdges" stroke="#000" stroke-width="0" stroke-linecap="square"></line><svg x="0" y="0" font-size="10" style="overflow:visible"><text transform="" x="0" y="18" fill="#000" font-size="10" text-anchor="middle"><tspan x="0" dy="0em">0%</tspan></text></svg></g><g class="visx-group visx-axis-tick" transform="translate(0, 0)"><line class="visx-line" x1="362.5" y1="0" x2="362.5" y2="8" fill="transparent" shape-rendering="crispEdges" stroke="#000" stroke-width="0" stroke-linecap="square"></line><svg x="0" y="0" font-size="10" style="overflow:visible"><text transform="" x="362.5" y="18" fill="#000" font-size="10" text-anchor="middle"><tspan x="362.5" dy="0em">25%</tspan></text></svg></g><g class="visx-group visx-axis-tick" transform="translate(0, 0)"><line class="visx-line" x1="725" y1="0" x2="725" y2="8" fill="transparent" shape-rendering="crispEdges" stroke="#000" stroke-width="0" stroke-linecap="square"></line><svg x="0" y="0" font-size="10" style="overflow:visible"><text transform="" x="725" y="18" fill="#000" font-size="10" text-anchor="middle"><tspan x="725" dy="0em">50%</tspan></text></svg></g><g class="visx-group visx-axis-tick" transform="translate(0, 0)"><line class="visx-line" x1="1087.5" y1="0" x2="1087.5" y2="8" fill="transparent" shape-rendering="crispEdges" stroke="#000" stroke-width="0" stroke-linecap="square"></line><svg x="0" y="0" font-size="10" style="overflow:visible"><text transform="" x="1087.5" y="18" fill="#000" font-size="10" text-anchor="middle"><tspan x="1087.5" dy="0em">75%</tspan></text></svg></g><g class="visx-group visx-axis-tick" transform="translate(0, 0)"><line class="visx-line" x1="1450" y1="0" x2="1450" y2="8" fill="transparent" shape-rendering="crispEdges" stroke="#000" stroke-width="0" stroke-linecap="square"></line><svg x="0" y="0" font-size="10" style="overflow:visible"><text transform="" x="1450" y="18" fill="#000" font-size="10" text-anchor="middle"><tspan x="1450" dy="0em">100%</tspan></text></svg></g><line class="visx-line visx-axis-line" x1="0.5" y1="0" x2="1450.5" y2="0" fill="transparent" shape-rendering="crispEdges" stroke="#222" stroke-width="0"></line></g><g class="visx-group visx-axis visx-axis-left" transform="translate(0, 0)"><g class="visx-group visx-axis-tick" transform="translate(0, 0)"><line class="visx-line" x1="0" y1="115" x2="-8" y2="115" fill="transparent" shape-rendering="crispEdges" stroke="#222" stroke-width="0" stroke-linecap="square"></line><svg x="-30" y="0" font-size="8" style="overflow:visible"><text transform="" x="-8" y="115" fill="#000" font-size="8" text-anchor="start"><tspan x="-8" dy="0em">0%</tspan></text></svg></g><g class="visx-group visx-axis-tick" transform="translate(0, 0)"><line class="visx-line" x1="0" y1="67.08333333333333" x2="-8" y2="67.08333333333333" fill="transparent" shape-rendering="crispEdges" stroke="#222" stroke-width="0" stroke-linecap="square"></line><svg x="-30" y="0" font-size="8" style="overflow:visible"><text transform="" x="-8" y="67.08333333333333" fill="#000" font-size="8" text-anchor="start"><tspan x="-8" dy="0em">100%</tspan></text></svg></g><g class="visx-group visx-axis-tick" transform="translate(0, 0)"><line class="visx-line" x1="0" y1="19.16666666666666" x2="-8" y2="19.16666666666666" fill="transparent" shape-rendering="crispEdges" stroke="#222" stroke-width="0" stroke-linecap="square"></line><svg x="-30" y="0" font-size="8" style="overflow:visible"><text transform="" x="-8" y="19.16666666666666" fill="#000" font-size="8" text-anchor="start"><tspan x="-8" dy="0em">200%</tspan></text></svg></g><line class="visx-line visx-axis-line" x1="0" y1="115.5" x2="0" y2="0.5" fill="transparent" shape-rendering="crispEdges" stroke="#222" stroke-width="0"></line></g><rect class="visx-bar" width="1450" height="115" fill="transparent"></rect><line class="visx-line" x1="1160" y1="28" x2="1160" y2="115" fill="transparent" shape-rendering="crispEdges" stroke="#0062D2" stroke-width="1" pointer-events="none" stroke-dasharray="5,2"></line><svg x="0" y="0" font-size="10px" style="overflow:visible"><text transform="" x="1160" y="20" font-size="10px" fill="#fff" stroke="#fff" stroke-width="0.8em" text-anchor="middle"><tspan x="1160" dy="0.355em">Optimal 80%</tspan></text></svg><svg x="0" y="0" font-size="10px" style="overflow:visible"><text transform="" x="1160" y="20" font-size="10px" fill="#62677B" text-anchor="middle"><tspan x="1160" dy="0.355em">Optimal 80%</tspan></text></svg></g></svg>