<?xml version="1.0"?><svg xmlns="http://www.w3.org/2000/svg" xmlns:xlink= "http://www.w3.org/1999/xlink" style="background: white;" width="1500" height="185"> <g style="color: black; font-size: 13px; font-family: sans-serif; transform: translate(18px, 25px);"><g><circle r="3" cx="-6" cy="-5" style="fill: #B6509E" /><text>Borrow APR, variable</text></g><g style="transform: translateX(150px);"><circle r="3" cx="-6" cy="-5" style="fill: rgb(231, 198, 223)" /><text>Borrow APR, stable</text></g><g style="transform: translateX(290px);"><circle r="3" cx="-6" cy="-5" style="fill: rgb(0, 98, 210)" /><text>Utilization Rate</text></g></g><g class="visx-group" transform="translate(40, 50)"><g class="visx-group visx-rows" transform="translate(0, 0)"><line class="visx-line" x1="0" y1="115" x2="1450" y2="115" fill="transparent" shape-rendering="crispEdges" stroke="#000" stroke-width="1" stroke-dasharray="3,3" pointer-events="none"></line><line class="visx-line" x1="0" y1="83.05555555555556" x2="1450" y2="83.05555555555556" fill="transparent" shape-rendering="crispEdges" stroke="#000" stroke-width="1" stroke-dasharray="3,3" pointer-events="none"></line><line class="visx-line" x1="0" y1="51.11111111111111" x2="1450" y2="51.11111111111111" fill="transparent" shape-rendering="crispEdges" stroke="#000" stroke-width="1" stroke-dasharray="3,3" pointer-events="none"></line><line class="visx-line" x1="0" y1="19.166666666666675" x2="1450" y2="19.166666666666675" fill="transparent" shape-rendering="crispEdges" stroke="#000" stroke-width="1" stroke-dasharray="3,3" pointer-events="none"></line></g><path class="visx-linepath" d="M0,0C2.4166666666666665,9.583333333333337,4.833333333333334,19.166666666666675,7.25,19.166666666666675C9.666666666666666,19.166666666666675,12.083333333333334,19.166666666666675,14.5,19.166666666666675C16.916666666666668,19.166666666666675,19.333333333333332,19.166666666666675,21.75,19.166666666666675C24.166666666666668,19.166666666666675,26.583333333333332,19.166666666666675,29,19.166666666666675C31.416666666666668,19.166666666666675,33.833333333333336,19.166666666666675,36.25,19.166666666666675C38.666666666666664,19.166666666666675,41.083333333333336,19.166666666666675,43.5,19.166666666666675C45.91666666666667,19.166666666666675,48.333333333333336,19.166666666666675,50.75000000000001,19.166666666666675C53.16666666666667,19.166666666666675,55.583333333333336,19.166666666666675,58,19.166666666666675C60.416666666666664,19.166666666666675,62.833333333333336,19.166666666666675,65.25,19.166666666666675C67.66666666666667,19.166666666666675,70.08333333333333,19.166666666666675,72.5,19.166666666666675C74.91666666666667,19.166666666666675,77.33333333333333,19.166666666666675,79.75,19.166666666666675C82.16666666666667,19.166666666666675,84.58333333333333,19.166666666666675,87,19.166666666666675C89.41666666666667,19.166666666666675,91.83333333333333,19.166666666666675,94.25,19.166666666666675C96.66666666666667,19.166666666666675,99.08333333333334,19.166666666666675,101.50000000000001,19.166666666666675C103.91666666666667,19.166666666666675,106.33333333333334,19.166666666666675,108.75,19.166666666666675C111.16666666666667,19.166666666666675,113.58333333333333,19.166666666666675,116,19.166666666666675C118.41666666666667,19.166666666666675,120.83333333333334,19.166666666666675,123.25000000000001,19.166666666666675C125.66666666666667,19.166666666666675,128.08333333333334,19.166666666666675,130.5,19.166666666666675C132.91666666666666,19.166666666666675,135.33333333333334,19.166666666666675,137.75,19.166666666666675C140.16666666666666,19.166666666666675,142.58333333333334,19.166666666666675,145,19.166666666666675C147.41666666666666,19.166666666666675,149.83333333333334,19.166666666666675,152.25,19.166666666666675C154.66666666666666,19.166666666666675,157.08333333333334,19.166666666666675,159.5,19.166666666666675C161.91666666666666,19.166666666666675,164.33333333333334,19.166666666666675,166.75,19.166666666666675C169.16666666666666,19.166666666666675,171.58333333333334,19.166666666666675,174,19.166666666666675C176.41666666666666,19.166666666666675,178.83333333333334,19.166666666666675,181.25,19.166666666666675C183.66666666666666,19.166666666666675,186.08333333333334,19.166666666666675,188.5,19.166666666666675C190.91666666666666,19.166666666666675,193.33333333333334,19.166666666666675,195.75,19.166666666666675C198.16666666666669,19.166666666666675,200.58333333333334,19.166666666666675,203.00000000000003,19.166666666666675C205.41666666666669,19.166666666666675,207.83333333333331,19.166666666666675,210.24999999999997,19.166666666666675C212.66666666666666,19.166666666666675,215.08333333333331,19.166666666666675,217.5,19.166666666666675C219.91666666666666,19.166666666666675,222.33333333333334,19.166666666666675,224.75,19.166666666666675C227.16666666666666,19.166666666666675,229.58333333333334,19.166666666666675,232,19.166666666666675C234.41666666666666,19.166666666666675,236.83333333333334,19.166666666666675,239.25,19.166666666666675C241.66666666666669,19.166666666666675,244.08333333333334,19.166666666666675,246.50000000000003,19.166666666666675C248.91666666666669,19.166666666666675,251.33333333333331,19.166666666666675,253.74999999999997,19.166666666666675C256.16666666666663,19.166666666666675,258.5833333333333,19.166666666666675,261,19.166666666666675C263.4166666666667,19.166666666666675,265.8333333333333,19.166666666666675,268.25,19.166666666666675C270.6666666666667,19.166666666666675,273.0833333333333,19.166666666666675,275.5,19.166666666666675C277.9166666666667,19.166666666666675,280.3333333333333,19.166666666666675,282.75,19.166666666666675C285.1666666666667,19.166666666666675,287.5833333333333,19.166666666666675,290,19.166666666666675C292.4166666666667,19.166666666666675,294.8333333333333,19.166666666666675,297.25,19.166666666666675C299.6666666666667,19.166666666666675,302.0833333333333,19.166666666666675,304.5,19.166666666666675C306.9166666666667,19.166666666666675,309.3333333333333,19.166666666666675,311.75,19.166666666666675C314.1666666666667,19.166666666666675,316.5833333333333,19.166666666666675,319,19.166666666666675C321.4166666666667,19.166666666666675,323.8333333333333,19.166666666666675,326.25,19.166666666666675C328.6666666666667,19.166666666666675,331.0833333333333,19.166666666666675,333.5,19.166666666666675C335.9166666666667,19.166666666666675,338.3333333333333,19.166666666666675,340.75,19.166666666666675C343.1666666666667,19.166666666666675,345.5833333333333,19.166666666666675,348,19.166666666666675C350.4166666666667,19.166666666666675,352.8333333333333,19.166666666666675,355.25,19.166666666666675C357.6666666666667,19.166666666666675,360.0833333333333,19.166666666666675,362.5,19.166666666666675C364.9166666666667,19.166666666666675,367.3333333333333,19.166666666666675,369.75,19.166666666666675C372.1666666666667,19.166666666666675,374.5833333333333,19.166666666666675,377,19.166666666666675C379.4166666666667,19.166666666666675,381.8333333333333,19.166666666666675,384.25,19.166666666666675C386.6666666666667,19.166666666666675,389.0833333333333,19.166666666666675,391.5,19.166666666666675C393.9166666666667,19.166666666666675,396.33333333333337,19.166666666666675,398.75000000000006,19.166666666666675C401.16666666666674,19.166666666666675,403.58333333333337,19.166666666666675,406.00000000000006,19.166666666666675C408.4166666666667,19.166666666666675,410.8333333333333,19.166666666666675,413.24999999999994,19.166666666666675C415.66666666666663,19.166666666666675,418.08333333333326,19.166666666666675,420.49999999999994,19.166666666666675C422.91666666666663,19.166666666666675,425.3333333333333,19.166666666666675,427.75,19.166666666666675C430.1666666666667,19.166666666666675,432.5833333333333,19.166666666666675,435,19.166666666666675C437.4166666666667,19.166666666666675,439.8333333333333,19.166666666666675,442.25,19.166666666666675C444.6666666666667,19.166666666666675,447.0833333333333,19.166666666666675,449.5,19.166666666666675C451.9166666666667,19.166666666666675,454.3333333333333,19.166666666666675,456.75,19.166666666666675C459.1666666666667,19.166666666666675,461.5833333333333,19.166666666666675,464,19.166666666666675C466.4166666666667,19.166666666666675,468.8333333333333,19.166666666666675,471.25,19.166666666666675C473.6666666666667,19.166666666666675,476.0833333333333,19.166666666666675,478.5,19.166666666666675C480.9166666666667,19.166666666666675,483.33333333333337,19.166666666666675,485.75000000000006,19.166666666666675C488.16666666666674,19.166666666666675,490.58333333333337,19.166666666666675,493.00000000000006,19.166666666666675C495.4166666666667,19.166666666666675,497.8333333333333,19.166666666666675,500.24999999999994,19.166666666666675C502.66666666666663,19.166666666666675,505.08333333333326,19.166666666666675,507.49999999999994,19.166666666666675C509.91666666666663,19.166666666666675,512.3333333333333,19.166666666666675,514.75,19.166666666666675C517.1666666666666,19.166666666666675,519.5833333333334,19.166666666666675,522,19.166666666666675C524.4166666666666,19.166666666666675,526.8333333333334,19.166666666666675,529.25,19.166666666666675C531.6666666666666,19.166666666666675,534.0833333333334,19.166666666666675,536.5,19.166666666666675C538.9166666666666,19.166666666666675,541.3333333333334,19.166666666666675,543.75,19.166666666666675C546.1666666666666,19.166666666666675,548.5833333333334,19.166666666666675,551,19.166666666666675C553.4166666666666,19.166666666666675,555.8333333333334,19.166666666666675,558.25,19.166666666666675C560.6666666666666,19.166666666666675,563.0833333333334,19.166666666666675,565.5,19.166666666666675C567.9166666666666,19.166666666666675,570.3333333333334,19.166666666666675,572.75,19.166666666666675C575.1666666666666,19.166666666666675,577.5833333333334,19.166666666666675,580,19.166666666666675C582.4166666666666,19.166666666666675,584.8333333333334,19.166666666666675,587.25,19.166666666666675C589.6666666666666,19.166666666666675,592.0833333333334,19.166666666666675,594.5,19.166666666666675C596.9166666666666,19.166666666666675,599.3333333333334,19.166666666666675,601.75,19.166666666666675C604.1666666666666,19.166666666666675,606.5833333333334,19.166666666666675,609,19.166666666666675C611.4166666666666,19.166666666666675,613.8333333333334,19.166666666666675,616.25,19.166666666666675C618.6666666666666,19.166666666666675,621.0833333333334,19.166666666666675,623.5,19.166666666666675C625.9166666666666,19.166666666666675,628.3333333333334,19.166666666666675,630.75,19.166666666666675C633.1666666666666,19.166666666666675,635.5833333333334,19.166666666666675,638,19.166666666666675C640.4166666666666,19.166666666666675,642.8333333333334,19.166666666666675,645.25,19.166666666666675C647.6666666666666,19.166666666666675,650.0833333333334,19.166666666666675,652.5,19.166666666666675C654.9166666666666,19.166666666666675,657.3333333333334,19.166666666666675,659.75,19.166666666666675C662.1666666666666,19.166666666666675,664.5833333333334,19.166666666666675,667,19.166666666666675C669.4166666666666,19.166666666666675,671.8333333333334,19.166666666666675,674.25,19.166666666666675C676.6666666666666,19.166666666666675,679.0833333333334,19.166666666666675,681.5,19.166666666666675C683.9166666666666,19.166666666666675,686.3333333333334,19.166666666666675,688.75,19.166666666666675C691.1666666666666,19.166666666666675,693.5833333333334,19.166666666666675,696,19.166666666666675C698.4166666666666,19.166666666666675,700.8333333333334,19.166666666666675,703.25,19.166666666666675C705.6666666666666,19.166666666666675,708.0833333333334,19.166666666666675,710.5,19.166666666666675C712.9166666666666,19.166666666666675,715.3333333333334,19.166666666666675,717.75,19.166666666666675C720.1666666666666,19.166666666666675,722.5833333333334,19.166666666666675,725,19.166666666666675C727.4166666666666,19.166666666666675,729.8333333333334,19.166666666666675,732.25,19.166666666666675C734.6666666666666,19.166666666666675,737.0833333333334,19.166666666666675,739.5,19.166666666666675C741.9166666666666,19.166666666666675,744.3333333333334,19.166666666666675,746.75,19.166666666666675C749.1666666666666,19.166666666666675,751.5833333333334,19.166666666666675,754,19.166666666666675C756.4166666666666,19.166666666666675,758.8333333333334,19.166666666666675,761.25,19.166666666666675C763.6666666666666,19.166666666666675,766.0833333333334,19.166666666666675,768.5,19.166666666666675C770.9166666666666,19.166666666666675,773.3333333333334,19.166666666666675,775.75,19.166666666666675C778.1666666666666,19.166666666666675,780.5833333333334,19.166666666666675,783,19.166666666666675C785.4166666666667,19.166666666666675,787.8333333333334,19.166666666666675,790.2500000000001,19.166666666666675C792.6666666666667,19.166666666666675,795.0833333333335,19.166666666666675,797.5000000000001,19.166666666666675C799.9166666666667,19.166666666666675,802.3333333333335,19.166666666666675,804.7500000000001,19.166666666666675C807.1666666666667,19.166666666666675,809.5833333333335,19.166666666666675,812.0000000000001,19.166666666666675C814.4166666666667,19.166666666666675,816.8333333333333,19.166666666666675,819.2499999999999,19.166666666666675C821.6666666666665,19.166666666666675,824.0833333333333,19.166666666666675,826.4999999999999,19.166666666666675C828.9166666666665,19.166666666666675,831.3333333333333,19.166666666666675,833.7499999999999,19.166666666666675C836.1666666666665,19.166666666666675,838.5833333333333,19.166666666666675,840.9999999999999,19.166666666666675C843.4166666666666,19.166666666666675,845.8333333333333,19.166666666666675,848.25,19.166666666666675C850.6666666666666,19.166666666666675,853.0833333333334,19.166666666666675,855.5,19.166666666666675C857.9166666666666,19.166666666666675,860.3333333333334,19.166666666666675,862.75,19.166666666666675C865.1666666666666,19.166666666666675,867.5833333333334,19.166666666666675,870,19.166666666666675C872.4166666666666,19.166666666666675,874.8333333333334,19.166666666666675,877.25,19.166666666666675C879.6666666666666,19.166666666666675,882.0833333333334,19.166666666666675,884.5,19.166666666666675C886.9166666666666,19.166666666666675,889.3333333333334,19.166666666666675,891.75,19.166666666666675C894.1666666666666,19.166666666666675,896.5833333333334,19.166666666666675,899,19.166666666666675C901.4166666666666,19.166666666666675,903.8333333333334,19.166666666666675,906.25,19.166666666666675C908.6666666666666,19.166666666666675,911.0833333333334,19.166666666666675,913.5,19.166666666666675C915.9166666666666,19.166666666666675,918.3333333333334,19.166666666666675,920.75,19.166666666666675C923.1666666666666,19.166666666666675,925.5833333333334,19.166666666666675,928,19.166666666666675C930.4166666666666,19.166666666666675,932.8333333333334,19.166666666666675,935.25,19.166666666666675C937.6666666666666,19.166666666666675,940.0833333333334,19.166666666666675,942.5,19.166666666666675C944.9166666666666,19.166666666666675,947.3333333333334,19.166666666666675,949.75,19.166666666666675C952.1666666666666,19.166666666666675,954.5833333333334,19.166666666666675,957,19.166666666666675C959.4166666666666,19.166666666666675,961.8333333333334,19.166666666666675,964.25,19.166666666666675C966.6666666666667,19.166666666666675,969.0833333333334,19.166666666666675,971.5000000000001,19.166666666666675C973.9166666666667,19.166666666666675,976.3333333333335,19.166666666666675,978.7500000000001,19.166666666666675C981.1666666666667,19.166666666666675,983.5833333333335,19.166666666666675,986.0000000000001,19.166666666666675C988.4166666666667,19.166666666666675,990.8333333333335,19.166666666666675,993.2500000000001,19.166666666666675C995.6666666666667,19.166666666666675,998.0833333333333,19.166666666666675,1000.4999999999999,19.166666666666675C1002.9166666666665,19.166666666666675,1005.3333333333333,19.166666666666675,1007.7499999999999,19.166666666666675C1010.1666666666665,19.166666666666675,1012.5833333333333,19.166666666666675,1014.9999999999999,19.166666666666675C1017.4166666666665,19.166666666666675,1019.8333333333333,19.166666666666675,1022.2499999999999,19.166666666666675C1024.6666666666665,19.166666666666675,1027.0833333333333,19.166666666666675,1029.5,19.166666666666675C1031.9166666666667,19.166666666666675,1034.3333333333333,19.166666666666675,1036.75,19.166666666666675C1039.1666666666667,19.166666666666675,1041.5833333333333,19.166666666666675,1044,19.166666666666675C1046.4166666666667,19.166666666666675,1048.8333333333333,19.166666666666675,1051.25,19.166666666666675C1053.6666666666667,19.166666666666675,1056.0833333333333,19.166666666666675,1058.5,19.166666666666675C1060.9166666666667,19.166666666666675,1063.3333333333333,19.166666666666675,1065.75,19.166666666666675C1068.1666666666667,19.166666666666675,1070.5833333333333,19.166666666666675,1073,19.166666666666675C1075.4166666666667,19.166666666666675,1077.8333333333333,19.166666666666675,1080.25,19.166666666666675C1082.6666666666667,19.166666666666675,1085.0833333333333,19.166666666666675,1087.5,19.166666666666675C1089.9166666666667,19.166666666666675,1092.3333333333333,19.166666666666675,1094.75,19.166666666666675C1097.1666666666667,19.166666666666675,1099.5833333333333,19.166666666666675,1102,19.166666666666675C1104.4166666666667,19.166666666666675,1106.8333333333333,19.166666666666675,1109.25,19.166666666666675C1111.6666666666667,19.166666666666675,1114.0833333333333,19.166666666666675,1116.5,19.166666666666675C1118.9166666666667,19.166666666666675,1121.3333333333333,19.166666666666675,1123.75,19.166666666666675C1126.1666666666667,19.166666666666675,1128.5833333333333,19.166666666666675,1131,19.166666666666675C1133.4166666666667,19.166666666666675,1135.8333333333333,19.166666666666675,1138.25,19.166666666666675C1140.6666666666667,19.166666666666675,1143.0833333333333,19.166666666666675,1145.5,19.166666666666675C1147.9166666666667,19.166666666666675,1150.3333333333333,19.166666666666675,1152.75,19.166666666666675C1155.1666666666667,19.166666666666675,1157.5833333333333,19.166666666666675,1160,19.166666666666675C1162.4166666666667,19.166666666666675,1164.8333333333333,19.166666666666675,1167.25,19.166666666666675C1169.6666666666667,19.166666666666675,1172.0833333333333,19.166666666666675,1174.5,19.166666666666675C1176.9166666666667,19.166666666666675,1179.3333333333333,19.166666666666675,1181.75,19.166666666666675C1184.1666666666667,19.166666666666675,1186.5833333333333,19.166666666666675,1189,19.166666666666675C1191.4166666666667,19.166666666666675,1193.8333333333333,19.166666666666675,1196.25,19.166666666666675C1198.6666666666667,19.166666666666675,1201.0833333333333,19.166666666666675,1203.5,19.166666666666675C1205.9166666666667,19.166666666666675,1208.3333333333333,19.166666666666675,1210.75,19.166666666666675C1213.1666666666667,19.166666666666675,1215.5833333333333,19.166666666666675,1218,19.166666666666675C1220.4166666666667,19.166666666666675,1222.8333333333333,19.166666666666675,1225.25,19.166666666666675C1227.6666666666667,19.166666666666675,1230.0833333333333,19.166666666666675,1232.5,19.166666666666675C1234.9166666666667,19.166666666666675,1237.3333333333333,19.166666666666675,1239.75,19.166666666666675C1242.1666666666667,19.166666666666675,1244.5833333333333,19.166666666666675,1247,19.166666666666675C1249.4166666666667,19.166666666666675,1251.8333333333333,19.166666666666675,1254.25,19.166666666666675C1256.6666666666667,19.166666666666675,1259.0833333333333,19.166666666666675,1261.5,19.166666666666675C1263.9166666666667,19.166666666666675,1266.3333333333333,19.166666666666675,1268.75,19.166666666666675C1271.1666666666667,19.166666666666675,1273.5833333333333,19.166666666666675,1276,19.166666666666675C1278.4166666666667,19.166666666666675,1280.8333333333333,19.166666666666675,1283.25,19.166666666666675C1285.6666666666667,19.166666666666675,1288.0833333333333,19.166666666666675,1290.5,19.166666666666675C1292.9166666666667,19.166666666666675,1295.3333333333333,19.166666666666675,1297.75,19.166666666666675C1300.1666666666667,19.166666666666675,1302.5833333333333,19.166666666666675,1305,19.166666666666675C1307.4166666666667,19.166666666666675,1309.8333333333333,19.166666666666675,1312.25,19.166666666666675C1314.6666666666667,19.166666666666675,1317.0833333333333,19.166666666666675,1319.5,19.166666666666675C1321.9166666666667,19.166666666666675,1324.3333333333333,19.166666666666675,1326.75,19.166666666666675C1329.1666666666667,19.166666666666675,1331.5833333333333,19.166666666666675,1334,19.166666666666675C1336.4166666666667,19.166666666666675,1338.8333333333333,19.166666666666675,1341.25,19.166666666666675C1343.6666666666667,19.166666666666675,1346.0833333333333,19.166666666666675,1348.5,19.166666666666675C1350.9166666666667,19.166666666666675,1353.3333333333333,19.166666666666675,1355.75,19.166666666666675C1358.1666666666667,19.166666666666675,1360.5833333333333,19.166666666666675,1363,19.166666666666675C1365.4166666666667,19.166666666666675,1367.8333333333333,19.166666666666675,1370.25,19.166666666666675C1372.6666666666667,19.166666666666675,1375.0833333333333,19.166666666666675,1377.5,19.166666666666675C1379.9166666666667,19.166666666666675,1382.3333333333333,19.166666666666675,1384.75,19.166666666666675C1387.1666666666667,19.166666666666675,1389.5833333333333,19.166666666666675,1392,19.166666666666675C1394.4166666666667,19.166666666666675,1396.8333333333333,19.166666666666675,1399.25,19.166666666666675C1401.6666666666667,19.166666666666675,1404.0833333333333,19.166666666666675,1406.5,19.166666666666675C1408.9166666666667,19.166666666666675,1411.3333333333333,19.166666666666675,1413.75,19.166666666666675C1416.1666666666667,19.166666666666675,1418.5833333333333,19.166666666666675,1421,19.166666666666675C1423.4166666666667,19.166666666666675,1425.8333333333333,19.166666666666675,1428.25,19.166666666666675C1430.6666666666667,19.166666666666675,1433.0833333333333,19.166666666666675,1435.5,19.166666666666675C1437.9166666666667,19.166666666666675,1440.3333333333333,19.166666666666675,1442.75,19.166666666666675C1445.1666666666667,19.166666666666675,1447.5833333333333,19.166666666666675,1450,19.166666666666675" fill="transparent" stroke-linecap="round" stroke="#B6509E" stroke-width="2"></path><path class="visx-linepath" d="M0,0C2.4166666666666665,57.49999999999999,4.833333333333334,115,7.25,115C9.666666666666666,115,12.083333333333334,115,14.5,115C16.916666666666668,115,19.333333333333332,115,21.75,115C24.166666666666668,115,26.583333333333332,115,29,115C31.416666666666668,115,33.833333333333336,115,36.25,115C38.666666666666664,115,41.083333333333336,115,43.5,115C45.91666666666667,115,48.333333333333336,115,50.75000000000001,115C53.16666666666667,115,55.583333333333336,115,58,115C60.416666666666664,115,62.833333333333336,115,65.25,115C67.66666666666667,115,70.08333333333333,115,72.5,115C74.91666666666667,115,77.33333333333333,115,79.75,115C82.16666666666667,115,84.58333333333333,115,87,115C89.41666666666667,115,91.83333333333333,115,94.25,115C96.66666666666667,115,99.08333333333334,115,101.50000000000001,115C103.91666666666667,115,106.33333333333334,115,108.75,115C111.16666666666667,115,113.58333333333333,115,116,115C118.41666666666667,115,120.83333333333334,115,123.25000000000001,115C125.66666666666667,115,128.08333333333334,115,130.5,115C132.91666666666666,115,135.33333333333334,115,137.75,115C140.16666666666666,115,142.58333333333334,115,145,115C147.41666666666666,115,149.83333333333334,115,152.25,115C154.66666666666666,115,157.08333333333334,115,159.5,115C161.91666666666666,115,164.33333333333334,115,166.75,115C169.16666666666666,115,171.58333333333334,115,174,115C176.41666666666666,115,178.83333333333334,115,181.25,115C183.66666666666666,115,186.08333333333334,115,188.5,115C190.91666666666666,115,193.33333333333334,115,195.75,115C198.16666666666669,115,200.58333333333334,115,203.00000000000003,115C205.41666666666669,115,207.83333333333331,115,210.24999999999997,115C212.66666666666666,115,215.08333333333331,115,217.5,115C219.91666666666666,115,222.33333333333334,115,224.75,115C227.16666666666666,115,229.58333333333334,115,232,115C234.41666666666666,115,236.83333333333334,115,239.25,115C241.66666666666669,115,244.08333333333334,115,246.50000000000003,115C248.91666666666669,115,251.33333333333331,115,253.74999999999997,115C256.16666666666663,115,258.5833333333333,115,261,115C263.4166666666667,115,265.8333333333333,115,268.25,115C270.6666666666667,115,273.0833333333333,115,275.5,115C277.9166666666667,115,280.3333333333333,115,282.75,115C285.1666666666667,115,287.5833333333333,115,290,115C292.4166666666667,115,294.8333333333333,115,297.25,115C299.6666666666667,115,302.0833333333333,115,304.5,115C306.9166666666667,115,309.3333333333333,115,311.75,115C314.1666666666667,115,316.5833333333333,115,319,115C321.4166666666667,115,323.8333333333333,115,326.25,115C328.6666666666667,115,331.0833333333333,115,333.5,115C335.9166666666667,115,338.3333333333333,115,340.75,115C343.1666666666667,115,345.5833333333333,115,348,115C350.4166666666667,115,352.8333333333333,115,355.25,115C357.6666666666667,115,360.0833333333333,115,362.5,115C364.9166666666667,115,367.3333333333333,115,369.75,115C372.1666666666667,115,374.5833333333333,115,377,115C379.4166666666667,115,381.8333333333333,115,384.25,115C386.6666666666667,115,389.0833333333333,115,391.5,115C393.9166666666667,115,396.33333333333337,115,398.75000000000006,115C401.16666666666674,115,403.58333333333337,115,406.00000000000006,115C408.4166666666667,115,410.8333333333333,115,413.24999999999994,115C415.66666666666663,115,418.08333333333326,115,420.49999999999994,115C422.91666666666663,115,425.3333333333333,115,427.75,115C430.1666666666667,115,432.5833333333333,115,435,115C437.4166666666667,115,439.8333333333333,115,442.25,115C444.6666666666667,115,447.0833333333333,115,449.5,115C451.9166666666667,115,454.3333333333333,115,456.75,115C459.1666666666667,115,461.5833333333333,115,464,115C466.4166666666667,115,468.8333333333333,115,471.25,115C473.6666666666667,115,476.0833333333333,115,478.5,115C480.9166666666667,115,483.33333333333337,115,485.75000000000006,115C488.16666666666674,115,490.58333333333337,115,493.00000000000006,115C495.4166666666667,115,497.8333333333333,115,500.24999999999994,115C502.66666666666663,115,505.08333333333326,115,507.49999999999994,115C509.91666666666663,115,512.3333333333333,115,514.75,115C517.1666666666666,115,519.5833333333334,115,522,115C524.4166666666666,115,526.8333333333334,115,529.25,115C531.6666666666666,115,534.0833333333334,115,536.5,115C538.9166666666666,115,541.3333333333334,115,543.75,115C546.1666666666666,115,548.5833333333334,115,551,115C553.4166666666666,115,555.8333333333334,115,558.25,115C560.6666666666666,115,563.0833333333334,115,565.5,115C567.9166666666666,115,570.3333333333334,115,572.75,115C575.1666666666666,115,577.5833333333334,115,580,115C582.4166666666666,115,584.8333333333334,115,587.25,115C589.6666666666666,115,592.0833333333334,115,594.5,115C596.9166666666666,115,599.3333333333334,115,601.75,115C604.1666666666666,115,606.5833333333334,115,609,115C611.4166666666666,115,613.8333333333334,115,616.25,115C618.6666666666666,115,621.0833333333334,115,623.5,115C625.9166666666666,115,628.3333333333334,115,630.75,115C633.1666666666666,115,635.5833333333334,115,638,115C640.4166666666666,115,642.8333333333334,115,645.25,115C647.6666666666666,115,650.0833333333334,115,652.5,115C654.9166666666666,115,657.3333333333334,115,659.75,115C662.1666666666666,115,664.5833333333334,115,667,115C669.4166666666666,115,671.8333333333334,115,674.25,115C676.6666666666666,115,679.0833333333334,115,681.5,115C683.9166666666666,115,686.3333333333334,115,688.75,115C691.1666666666666,115,693.5833333333334,115,696,115C698.4166666666666,115,700.8333333333334,115,703.25,115C705.6666666666666,115,708.0833333333334,115,710.5,115C712.9166666666666,115,715.3333333333334,115,717.75,115C720.1666666666666,115,722.5833333333334,115,725,115C727.4166666666666,115,729.8333333333334,115,732.25,115C734.6666666666666,115,737.0833333333334,115,739.5,115C741.9166666666666,115,744.3333333333334,115,746.75,115C749.1666666666666,115,751.5833333333334,115,754,115C756.4166666666666,115,758.8333333333334,115,761.25,115C763.6666666666666,115,766.0833333333334,115,768.5,115C770.9166666666666,115,773.3333333333334,115,775.75,115C778.1666666666666,115,780.5833333333334,115,783,115C785.4166666666667,115,787.8333333333334,115,790.2500000000001,115C792.6666666666667,115,795.0833333333335,115,797.5000000000001,115C799.9166666666667,115,802.3333333333335,115,804.7500000000001,115C807.1666666666667,115,809.5833333333335,115,812.0000000000001,115C814.4166666666667,115,816.8333333333333,115,819.2499999999999,115C821.6666666666665,115,824.0833333333333,115,826.4999999999999,115C828.9166666666665,115,831.3333333333333,115,833.7499999999999,115C836.1666666666665,115,838.5833333333333,115,840.9999999999999,115C843.4166666666666,115,845.8333333333333,115,848.25,115C850.6666666666666,115,853.0833333333334,115,855.5,115C857.9166666666666,115,860.3333333333334,115,862.75,115C865.1666666666666,115,867.5833333333334,115,870,115C872.4166666666666,115,874.8333333333334,115,877.25,115C879.6666666666666,115,882.0833333333334,115,884.5,115C886.9166666666666,115,889.3333333333334,115,891.75,115C894.1666666666666,115,896.5833333333334,115,899,115C901.4166666666666,115,903.8333333333334,115,906.25,115C908.6666666666666,115,911.0833333333334,115,913.5,115C915.9166666666666,115,918.3333333333334,115,920.75,115C923.1666666666666,115,925.5833333333334,115,928,115C930.4166666666666,115,932.8333333333334,115,935.25,115C937.6666666666666,115,940.0833333333334,115,942.5,115C944.9166666666666,115,947.3333333333334,115,949.75,115C952.1666666666666,115,954.5833333333334,115,957,115C959.4166666666666,115,961.8333333333334,115,964.25,115C966.6666666666667,115,969.0833333333334,115,971.5000000000001,115C973.9166666666667,115,976.3333333333335,115,978.7500000000001,115C981.1666666666667,115,983.5833333333335,115,986.0000000000001,115C988.4166666666667,115,990.8333333333335,115,993.2500000000001,115C995.6666666666667,115,998.0833333333333,115,1000.4999999999999,115C1002.9166666666665,115,1005.3333333333333,115,1007.7499999999999,115C1010.1666666666665,115,1012.5833333333333,115,1014.9999999999999,115C1017.4166666666665,115,1019.8333333333333,115,1022.2499999999999,115C1024.6666666666665,115,1027.0833333333333,115,1029.5,115C1031.9166666666667,115,1034.3333333333333,115,1036.75,115C1039.1666666666667,115,1041.5833333333333,115,1044,115C1046.4166666666667,115,1048.8333333333333,115,1051.25,115C1053.6666666666667,115,1056.0833333333333,115,1058.5,115C1060.9166666666667,115,1063.3333333333333,115,1065.75,115C1068.1666666666667,115,1070.5833333333333,115,1073,115C1075.4166666666667,115,1077.8333333333333,115,1080.25,115C1082.6666666666667,115,1085.0833333333333,115,1087.5,115C1089.9166666666667,115,1092.3333333333333,115,1094.75,115C1097.1666666666667,115,1099.5833333333333,115,1102,115C1104.4166666666667,115,1106.8333333333333,115,1109.25,115C1111.6666666666667,115,1114.0833333333333,115,1116.5,115C1118.9166666666667,115,1121.3333333333333,115,1123.75,115C1126.1666666666667,115,1128.5833333333333,115,1131,115C1133.4166666666667,115,1135.8333333333333,115,1138.25,115C1140.6666666666667,115,1143.0833333333333,115,1145.5,115C1147.9166666666667,115,1150.3333333333333,115,1152.75,115C1155.1666666666667,115,1157.5833333333333,115,1160,115C1162.4166666666667,115,1164.8333333333333,115,1167.25,115C1169.6666666666667,115,1172.0833333333333,115,1174.5,115C1176.9166666666667,115,1179.3333333333333,115,1181.75,115C1184.1666666666667,115,1186.5833333333333,115,1189,115C1191.4166666666667,115,1193.8333333333333,115,1196.25,115C1198.6666666666667,115,1201.0833333333333,115,1203.5,115C1205.9166666666667,115,1208.3333333333333,115,1210.75,115C1213.1666666666667,115,1215.5833333333333,115,1218,115C1220.4166666666667,115,1222.8333333333333,115,1225.25,115C1227.6666666666667,115,1230.0833333333333,115,1232.5,115C1234.9166666666667,115,1237.3333333333333,115,1239.75,115C1242.1666666666667,115,1244.5833333333333,115,1247,115C1249.4166666666667,115,1251.8333333333333,115,1254.25,115C1256.6666666666667,115,1259.0833333333333,115,1261.5,115C1263.9166666666667,115,1266.3333333333333,115,1268.75,115C1271.1666666666667,115,1273.5833333333333,115,1276,115C1278.4166666666667,115,1280.8333333333333,115,1283.25,115C1285.6666666666667,115,1288.0833333333333,115,1290.5,115C1292.9166666666667,115,1295.3333333333333,115,1297.75,115C1300.1666666666667,115,1302.5833333333333,115,1305,115C1307.4166666666667,115,1309.8333333333333,115,1312.25,115C1314.6666666666667,115,1317.0833333333333,115,1319.5,115C1321.9166666666667,115,1324.3333333333333,115,1326.75,115C1329.1666666666667,115,1331.5833333333333,115,1334,115C1336.4166666666667,115,1338.8333333333333,115,1341.25,115C1343.6666666666667,115,1346.0833333333333,115,1348.5,115C1350.9166666666667,115,1353.3333333333333,115,1355.75,115C1358.1666666666667,115,1360.5833333333333,115,1363,115C1365.4166666666667,115,1367.8333333333333,115,1370.25,115C1372.6666666666667,115,1375.0833333333333,115,1377.5,115C1379.9166666666667,115,1382.3333333333333,115,1384.75,115C1387.1666666666667,115,1389.5833333333333,115,1392,115C1394.4166666666667,115,1396.8333333333333,115,1399.25,115C1401.6666666666667,115,1404.0833333333333,115,1406.5,115C1408.9166666666667,115,1411.3333333333333,115,1413.75,115C1416.1666666666667,115,1418.5833333333333,115,1421,115C1423.4166666666667,115,1425.8333333333333,115,1428.25,115C1430.6666666666667,115,1433.0833333333333,115,1435.5,115C1437.9166666666667,115,1440.3333333333333,115,1442.75,115C1445.1666666666667,115,1447.5833333333333,115,1450,115" fill="transparent" stroke-linecap="round" stroke="#E7C6DF" stroke-width="2"></path><g class="visx-group visx-axis visx-axis-bottom" transform="translate(0, 115)"><g class="visx-group visx-axis-tick" transform="translate(0, 0)"><line class="visx-line" x1="0" y1="0" x2="0" y2="8" fill="transparent" shape-rendering="crispEdges" stroke="#000" stroke-width="0" stroke-linecap="square"></line><svg x="0" y="0" font-size="10" style="overflow:visible"><text transform="" x="0" y="18" fill="#000" font-size="10" text-anchor="middle"><tspan x="0" dy="0em">0%</tspan></text></svg></g><g class="visx-group visx-axis-tick" transform="translate(0, 0)"><line class="visx-line" x1="362.5" y1="0" x2="362.5" y2="8" fill="transparent" shape-rendering="crispEdges" stroke="#000" stroke-width="0" stroke-linecap="square"></line><svg x="0" y="0" font-size="10" style="overflow:visible"><text transform="" x="362.5" y="18" fill="#000" font-size="10" text-anchor="middle"><tspan x="362.5" dy="0em">25%</tspan></text></svg></g><g class="visx-group visx-axis-tick" transform="translate(0, 0)"><line class="visx-line" x1="725" y1="0" x2="725" y2="8" fill="transparent" shape-rendering="crispEdges" stroke="#000" stroke-width="0" stroke-linecap="square"></line><svg x="0" y="0" font-size="10" style="overflow:visible"><text transform="" x="725" y="18" fill="#000" font-size="10" text-anchor="middle"><tspan x="725" dy="0em">50%</tspan></text></svg></g><g class="visx-group visx-axis-tick" transform="translate(0, 0)"><line class="visx-line" x1="1087.5" y1="0" x2="1087.5" y2="8" fill="transparent" shape-rendering="crispEdges" stroke="#000" stroke-width="0" stroke-linecap="square"></line><svg x="0" y="0" font-size="10" style="overflow:visible"><text transform="" x="1087.5" y="18" fill="#000" font-size="10" text-anchor="middle"><tspan x="1087.5" dy="0em">75%</tspan></text></svg></g><g class="visx-group visx-axis-tick" transform="translate(0, 0)"><line class="visx-line" x1="1450" y1="0" x2="1450" y2="8" fill="transparent" shape-rendering="crispEdges" stroke="#000" stroke-width="0" stroke-linecap="square"></line><svg x="0" y="0" font-size="10" style="overflow:visible"><text transform="" x="1450" y="18" fill="#000" font-size="10" text-anchor="middle"><tspan x="1450" dy="0em">100%</tspan></text></svg></g><line class="visx-line visx-axis-line" x1="0.5" y1="0" x2="1450.5" y2="0" fill="transparent" shape-rendering="crispEdges" stroke="#222" stroke-width="0"></line></g><g class="visx-group visx-axis visx-axis-left" transform="translate(0, 0)"><g class="visx-group visx-axis-tick" transform="translate(0, 0)"><line class="visx-line" x1="0" y1="115" x2="-8" y2="115" fill="transparent" shape-rendering="crispEdges" stroke="#222" stroke-width="0" stroke-linecap="square"></line><svg x="-30" y="0" font-size="8" style="overflow:visible"><text transform="" x="-8" y="115" fill="#000" font-size="8" text-anchor="start"><tspan x="-8" dy="0em">0%</tspan></text></svg></g><g class="visx-group visx-axis-tick" transform="translate(0, 0)"><line class="visx-line" x1="0" y1="51.11111111111111" x2="-8" y2="51.11111111111111" fill="transparent" shape-rendering="crispEdges" stroke="#222" stroke-width="0" stroke-linecap="square"></line><svg x="-30" y="0" font-size="8" style="overflow:visible"><text transform="" x="-8" y="51.11111111111111" fill="#000" font-size="8" text-anchor="start"><tspan x="-8" dy="0em">1%</tspan></text></svg></g><line class="visx-line visx-axis-line" x1="0" y1="115.5" x2="0" y2="0.5" fill="transparent" shape-rendering="crispEdges" stroke="#222" stroke-width="0"></line></g><rect class="visx-bar" width="1450" height="115" fill="transparent"></rect><line class="visx-line" x1="0" y1="28" x2="0" y2="115" fill="transparent" shape-rendering="crispEdges" stroke="#0062D2" stroke-width="1" pointer-events="none" stroke-dasharray="5,2"></line><svg x="0" y="0" font-size="10px" style="overflow:visible"><text transform="" x="0" y="20" font-size="10px" fill="#fff" stroke="#fff" stroke-width="0.8em" text-anchor="middle"><tspan x="0" dy="0.355em">Optimal 0%</tspan></text></svg><svg x="0" y="0" font-size="10px" style="overflow:visible"><text transform="" x="0" y="20" font-size="10px" fill="#62677B" text-anchor="middle"><tspan x="0" dy="0.355em">Optimal 0%</tspan></text></svg></g></svg>