<?xml version="1.0"?><svg xmlns="http://www.w3.org/2000/svg" xmlns:xlink= "http://www.w3.org/1999/xlink" style="background: white;" width="1500" height="185"> <g style="color: black; font-size: 13px; font-family: sans-serif; transform: translate(18px, 25px);"><g><circle r="3" cx="-6" cy="-5" style="fill: #B6509E" /><text>Borrow APR, variable</text></g><g style="transform: translateX(150px);"><circle r="3" cx="-6" cy="-5" style="fill: rgb(231, 198, 223)" /><text>Borrow APR, stable</text></g><g style="transform: translateX(290px);"><circle r="3" cx="-6" cy="-5" style="fill: rgb(0, 98, 210)" /><text>Utilization Rate</text></g></g><g class="visx-group" transform="translate(40, 50)"><g class="visx-group visx-rows" transform="translate(0, 0)"><line class="visx-line" x1="0" y1="115" x2="1450" y2="115" fill="transparent" shape-rendering="crispEdges" stroke="#000" stroke-width="1" stroke-dasharray="3,3" pointer-events="none"></line><line class="visx-line" x1="0" y1="79.0625" x2="1450" y2="79.0625" fill="transparent" shape-rendering="crispEdges" stroke="#000" stroke-width="1" stroke-dasharray="3,3" pointer-events="none"></line><line class="visx-line" x1="0" y1="43.125" x2="1450" y2="43.125" fill="transparent" shape-rendering="crispEdges" stroke="#000" stroke-width="1" stroke-dasharray="3,3" pointer-events="none"></line><line class="visx-line" x1="0" y1="7.1875" x2="1450" y2="7.1875" fill="transparent" shape-rendering="crispEdges" stroke="#000" stroke-width="1" stroke-dasharray="3,3" pointer-events="none"></line></g><path class="visx-linepath" d="M0,114.9999999999636C2.4166666666666665,114.99393459913489,4.833333333333334,114.98786919830617,7.25,114.98180379746836C9.666666666666666,114.97573839663055,12.083333333333334,114.96967299578058,14.5,114.9636075949367C16.916666666666668,114.95754219409282,19.333333333333332,114.95147679324894,21.75,114.94541139240506C24.166666666666668,114.93934599156118,26.583333333333332,114.9332805907173,29,114.92721518987342C31.416666666666668,114.92114978902954,33.833333333333336,114.91508438818565,36.25,114.90901898734177C38.666666666666664,114.90295358649789,41.083333333333336,114.896888185654,43.5,114.89082278481013C45.91666666666667,114.88475738396625,48.333333333333336,114.87869198312237,50.75000000000001,114.87262658227849C53.16666666666667,114.8665611814346,55.583333333333336,114.86049578059071,58,114.85443037974683C60.416666666666664,114.84836497890295,62.833333333333336,114.84229957805907,65.25,114.83623417721519C67.66666666666667,114.83016877637131,70.08333333333333,114.82410337552743,72.5,114.81803797468355C74.91666666666667,114.81197257383967,77.33333333333333,114.80590717299577,79.75,114.7998417721519C82.16666666666667,114.79377637130801,84.58333333333333,114.78771097046413,87,114.78164556962025C89.41666666666667,114.77558016877637,91.83333333333333,114.76951476793249,94.25,114.76344936708861C96.66666666666667,114.75738396624473,99.08333333333334,114.75131856540084,101.50000000000001,114.74525316455696C103.91666666666667,114.73918776371308,106.33333333333334,114.7331223628692,108.75,114.72705696202532C111.16666666666667,114.72099156118144,113.58333333333333,114.71492616033755,116,114.70886075949367C118.41666666666667,114.7027953586498,120.83333333333334,114.6967299578059,123.25000000000001,114.69066455696202C125.66666666666667,114.68459915611814,128.08333333333334,114.67853375527426,130.5,114.67246835443038C132.91666666666666,114.6664029535865,135.33333333333334,114.66033755274262,137.75,114.65427215189874C140.16666666666666,114.64820675105486,142.58333333333334,114.64214135021096,145,114.63607594936708C147.41666666666666,114.6300105485232,149.83333333333334,114.62394514767932,152.25,114.61787974683544C154.66666666666666,114.61181434599156,157.08333333333334,114.60574894514768,159.5,114.5996835443038C161.91666666666666,114.59361814345992,164.33333333333334,114.58755274261603,166.75,114.58148734177215C169.16666666666666,114.57542194092827,171.58333333333334,114.56935654008439,174,114.5632911392405C176.41666666666666,114.55722573839662,178.83333333333334,114.55116033755274,181.25,114.54509493670886C183.66666666666666,114.53902953586498,186.08333333333334,114.53296413502109,188.5,114.52689873417721C190.91666666666666,114.52083333333333,193.33333333333334,114.51476793248945,195.75,114.50870253164557C198.16666666666669,114.50263713080169,200.58333333333334,114.49657172995781,203.00000000000003,114.49050632911393C205.41666666666669,114.48444092827005,207.83333333333331,114.47837552742615,210.24999999999997,114.47231012658227C212.66666666666666,114.46624472573839,215.08333333333331,114.46017932489451,217.5,114.45411392405063C219.91666666666666,114.44804852320675,222.33333333333334,114.44198312236287,224.75,114.43591772151899C227.16666666666666,114.42985232067511,229.58333333333334,114.42378691983122,232,114.41772151898734C234.41666666666666,114.41165611814345,236.83333333333334,114.40559071729957,239.25,114.3995253164557C241.66666666666669,114.39345991561181,244.08333333333334,114.38739451476793,246.50000000000003,114.38132911392405C248.91666666666669,114.37526371308017,251.33333333333331,114.36919831223628,253.74999999999997,114.3631329113924C256.16666666666663,114.35706751054852,258.5833333333333,114.35100210970464,261,114.34493670886076C263.4166666666667,114.33887130801688,265.8333333333333,114.332805907173,268.25,114.32674050632912C270.6666666666667,114.32067510548524,273.0833333333333,114.31460970464134,275.5,114.30854430379746C277.9166666666667,114.30247890295358,280.3333333333333,114.2964135021097,282.75,114.29034810126582C285.1666666666667,114.28428270042194,287.5833333333333,114.27821729957806,290,114.27215189873418C292.4166666666667,114.2660864978903,294.8333333333333,114.2600210970464,297.25,114.25395569620252C299.6666666666667,114.24789029535864,302.0833333333333,114.24182489451476,304.5,114.23575949367088C306.9166666666667,114.229694092827,309.3333333333333,114.22362869198312,311.75,114.21756329113924C314.1666666666667,114.21149789029536,316.5833333333333,114.20543248945147,319,114.19936708860759C321.4166666666667,114.19330168776371,323.8333333333333,114.18723628691983,326.25,114.18117088607595C328.6666666666667,114.17510548523207,331.0833333333333,114.16904008438819,333.5,114.1629746835443C335.9166666666667,114.15690928270043,338.3333333333333,114.15084388185653,340.75,114.14477848101265C343.1666666666667,114.13871308016877,345.5833333333333,114.13264767932489,348,114.12658227848101C350.4166666666667,114.12051687763713,352.8333333333333,114.11445147679325,355.25,114.10838607594937C357.6666666666667,114.10232067510549,360.0833333333333,114.0962552742616,362.5,114.09018987341771C364.9166666666667,114.08412447257383,367.3333333333333,114.07805907172995,369.75,114.07199367088607C372.1666666666667,114.06592827004219,374.5833333333333,114.05986286919831,377,114.05379746835443C379.4166666666667,114.04773206751055,381.8333333333333,114.04166666666666,384.25,114.03560126582278C386.6666666666667,114.0295358649789,389.0833333333333,114.02347046413502,391.5,114.01740506329114C393.9166666666667,114.01133966244726,396.33333333333337,114.00527426160338,398.75000000000006,113.9992088607595C401.16666666666674,113.99314345991561,403.58333333333337,113.98707805907172,406.00000000000006,113.98101265822784C408.4166666666667,113.97494725738396,410.8333333333333,113.96888185654008,413.24999999999994,113.9628164556962C415.66666666666663,113.95675105485232,418.08333333333326,113.95068565400844,420.49999999999994,113.94462025316456C422.91666666666663,113.93855485232068,425.3333333333333,113.93248945147678,427.75,113.9264240506329C430.1666666666667,113.92035864978902,432.5833333333333,113.91429324894514,435,113.90822784810126C437.4166666666667,113.90216244725738,439.8333333333333,113.8960970464135,442.25,113.89003164556962C444.6666666666667,113.88396624472574,447.0833333333333,113.87790084388185,449.5,113.87183544303797C451.9166666666667,113.86577004219409,454.3333333333333,113.8597046413502,456.75,113.85363924050633C459.1666666666667,113.84757383966245,461.5833333333333,113.84150843881855,464,113.83544303797467C466.4166666666667,113.82937763713079,468.8333333333333,113.82331223628691,471.25,113.81724683544303C473.6666666666667,113.81118143459915,476.0833333333333,113.80511603375527,478.5,113.79905063291139C480.9166666666667,113.79298523206751,483.33333333333337,113.78691983122363,485.75000000000006,113.78085443037975C488.16666666666674,113.77478902953587,490.58333333333337,113.76872362869199,493.00000000000006,113.7626582278481C495.4166666666667,113.75659282700423,497.8333333333333,113.75052742616035,500.24999999999994,113.74446202531647C502.66666666666663,113.73839662447259,505.08333333333326,113.73233122362869,507.49999999999994,113.72626582278481C509.91666666666663,113.72020042194093,512.3333333333333,113.71413502109705,514.75,113.70806962025317C517.1666666666666,113.70200421940929,519.5833333333334,113.69593881856541,522,113.68987341772153C524.4166666666666,113.68380801687765,526.8333333333334,113.67774261603375,529.25,113.67167721518987C531.6666666666666,113.665611814346,534.0833333333334,113.65954641350211,536.5,113.65348101265823C538.9166666666666,113.64741561181435,541.3333333333334,113.64135021097047,543.75,113.63528481012659C546.1666666666666,113.62921940928271,548.5833333333334,113.62315400843882,551,113.61708860759494C553.4166666666666,113.61102320675106,555.8333333333334,113.60495780590718,558.25,113.5988924050633C560.6666666666666,113.59282700421942,563.0833333333334,113.58676160337554,565.5,113.58069620253166C567.9166666666666,113.57463080168777,570.3333333333334,113.56856540084388,572.75,113.5625C575.1666666666666,113.55643459915612,577.5833333333334,113.55036919831224,580,113.54430379746836C582.4166666666666,113.53823839662448,584.8333333333334,113.5321729957806,587.25,113.52610759493672C589.6666666666666,113.52004219409284,592.0833333333334,113.51397679324894,594.5,113.50791139240506C596.9166666666666,113.50184599156118,599.3333333333334,113.4957805907173,601.75,113.48971518987342C604.1666666666666,113.48364978902954,606.5833333333334,113.47758438818566,609,113.47151898734178C611.4166666666666,113.4654535864979,613.8333333333334,113.459388185654,616.25,113.45332278481013C618.6666666666666,113.44725738396625,621.0833333333334,113.44119198312237,623.5,113.43512658227849C625.9166666666666,113.4290611814346,628.3333333333334,113.42299578059072,630.75,113.41693037974684C633.1666666666666,113.41086497890296,635.5833333333334,113.40479957805907,638,113.39873417721519C640.4166666666666,113.39266877637131,642.8333333333334,113.38660337552743,645.25,113.38053797468355C647.6666666666666,113.37447257383967,650.0833333333334,113.36840717299579,652.5,113.36234177215191C654.9166666666666,113.35627637130803,657.3333333333334,113.35021097046413,659.75,113.34414556962025C662.1666666666666,113.33808016877637,664.5833333333334,113.33201476793249,667,113.32594936708861C669.4166666666666,113.31988396624473,671.8333333333334,113.31381856540085,674.25,113.30775316455697C676.6666666666666,113.30168776371309,679.0833333333334,113.2956223628692,681.5,113.28955696202532C683.9166666666666,113.28349156118144,686.3333333333334,113.27742616033755,688.75,113.27136075949367C691.1666666666666,113.2652953586498,693.5833333333334,113.25922995780591,696,113.25316455696203C698.4166666666666,113.24709915611815,700.8333333333334,113.24103375527426,703.25,113.23496835443038C705.6666666666666,113.2289029535865,708.0833333333334,113.22283755274262,710.5,113.21677215189874C712.9166666666666,113.21070675105486,715.3333333333334,113.20464135021098,717.75,113.1985759493671C720.1666666666666,113.19251054852322,722.5833333333334,113.18644514767932,725,113.18037974683544C727.4166666666666,113.17431434599156,729.8333333333334,113.16824894514768,732.25,113.1621835443038C734.6666666666666,113.15611814345992,737.0833333333334,113.15005274261604,739.5,113.14398734177216C741.9166666666666,113.13792194092828,744.3333333333334,113.13185654008439,746.75,113.1257911392405C749.1666666666666,113.11972573839662,751.5833333333334,113.11366033755274,754,113.10759493670886C756.4166666666666,113.10152953586498,758.8333333333334,113.0954641350211,761.25,113.08939873417722C763.6666666666666,113.08333333333334,766.0833333333334,113.07726793248945,768.5,113.07120253164557C770.9166666666666,113.06513713080169,773.3333333333334,113.05907172995781,775.75,113.05300632911393C778.1666666666666,113.04694092827005,780.5833333333334,113.04087552742617,783,113.03481012658229C785.4166666666667,113.0287447257384,787.8333333333334,113.02267932489451,790.2500000000001,113.01661392405063C792.6666666666667,113.01054852320675,795.0833333333335,113.00448312236287,797.5000000000001,112.99841772151899C799.9166666666667,112.99235232067511,802.3333333333335,112.98628691983123,804.7500000000001,112.98022151898735C807.1666666666667,112.97415611814347,809.5833333333335,112.96809071729957,812.0000000000001,112.9620253164557C814.4166666666667,112.95595991561181,816.8333333333333,112.94989451476793,819.2499999999999,112.94382911392405C821.6666666666665,112.93776371308017,824.0833333333333,112.93169831223629,826.4999999999999,112.92563291139241C828.9166666666665,112.91956751054853,831.3333333333333,112.91350210970464,833.7499999999999,112.90743670886076C836.1666666666665,112.90137130801688,838.5833333333333,112.895305907173,840.9999999999999,112.88924050632912C843.4166666666666,112.88317510548524,845.8333333333333,112.87710970464136,848.25,112.87104430379748C850.6666666666666,112.8649789029536,853.0833333333334,112.8589135021097,855.5,112.85284810126582C857.9166666666666,112.84678270042194,860.3333333333334,112.84071729957806,862.75,112.83465189873418C865.1666666666666,112.8285864978903,867.5833333333334,112.82252109704642,870,112.81645569620254C872.4166666666666,112.81039029535866,874.8333333333334,112.80432489451476,877.25,112.79825949367088C879.6666666666666,112.792194092827,882.0833333333334,112.78612869198312,884.5,112.78006329113924C886.9166666666666,112.77399789029536,889.3333333333334,112.76793248945148,891.75,112.7618670886076C894.1666666666666,112.75580168776372,896.5833333333334,112.74973628691983,899,112.74367088607595C901.4166666666666,112.73760548523207,903.8333333333334,112.73154008438819,906.25,112.7254746835443C908.6666666666666,112.71940928270043,911.0833333333334,112.71334388185655,913.5,112.70727848101266C915.9166666666666,112.70121308016878,918.3333333333334,112.69514767932489,920.75,112.68908227848101C923.1666666666666,112.68301687763713,925.5833333333334,112.67695147679325,928,112.67088607594937C930.4166666666666,112.66482067510549,932.8333333333334,112.65875527426161,935.25,112.65268987341773C937.6666666666666,112.64662447257385,940.0833333333334,112.64055907172995,942.5,112.63449367088607C944.9166666666666,112.62842827004219,947.3333333333334,112.62236286919831,949.75,112.61629746835443C952.1666666666666,112.61023206751055,954.5833333333334,112.60416666666667,957,112.59810126582279C959.4166666666666,112.59203586497891,961.8333333333334,112.58597046413502,964.25,112.57990506329114C966.6666666666667,112.57383966244726,969.0833333333334,112.56777426160338,971.5000000000001,112.5617088607595C973.9166666666667,112.55564345991561,976.3333333333335,112.54957805907173,978.7500000000001,112.54351265822785C981.1666666666667,112.53744725738397,983.5833333333335,112.53138185654008,986.0000000000001,112.5253164556962C988.4166666666667,112.51925105485232,990.8333333333335,112.51318565400844,993.2500000000001,112.50712025316456C995.6666666666667,112.50105485232068,998.0833333333333,112.4949894514768,1000.4999999999999,112.48892405063292C1002.9166666666665,112.48285864978904,1005.3333333333333,112.47679324894514,1007.7499999999999,112.47072784810126C1010.1666666666665,112.46466244725738,1012.5833333333333,112.4585970464135,1014.9999999999999,112.45253164556962C1017.4166666666665,112.44646624472574,1019.8333333333333,112.44040084388186,1022.2499999999999,112.43433544303798C1024.6666666666665,112.4282700421941,1027.0833333333333,112.4222046413502,1029.5,112.41613924050633C1031.9166666666667,112.41007383966245,1034.3333333333333,112.40400843881856,1036.75,112.39794303797468C1039.1666666666667,112.3918776371308,1041.5833333333333,112.38581223628692,1044,112.37974683544304C1046.4166666666667,112.37368143459916,1048.8333333333333,112.36761603375527,1051.25,112.36155063291139C1053.6666666666667,112.35548523206751,1056.0833333333333,112.34941983122363,1058.5,112.34335443037975C1060.9166666666667,112.33728902953587,1063.3333333333333,112.33122362869199,1065.75,112.3251582278481C1068.1666666666667,112.31909282700423,1070.5833333333333,112.31302742616033,1073,112.30696202531645C1075.4166666666667,112.30089662447257,1077.8333333333333,112.29483122362869,1080.25,112.28876582278481C1082.6666666666667,112.28270042194093,1085.0833333333333,112.27663502109705,1087.5,112.27056962025317C1089.9166666666667,112.26450421940929,1092.3333333333333,112.2584388185654,1094.75,112.25237341772151C1097.1666666666667,112.24630801687763,1099.5833333333333,112.24024261603375,1102,112.23417721518987C1104.4166666666667,112.228111814346,1106.8333333333333,112.22204641350211,1109.25,112.21598101265823C1111.6666666666667,112.20991561181435,1114.0833333333333,112.20385021097046,1116.5,112.19778481012658C1118.9166666666667,112.1917194092827,1121.3333333333333,112.18565400843882,1123.75,112.17958860759494C1126.1666666666667,112.17352320675106,1128.5833333333333,112.16745780590716,1131,112.16139240506328C1133.4166666666667,112.1553270042194,1135.8333333333333,112.14926160337552,1138.25,112.14319620253164C1140.6666666666667,112.13713080168776,1143.0833333333333,112.13713080168776,1145.5,112.125C1147.9166666666667,112.11286919831224,1150.3333333333333,110.73313492063492,1152.75,110.03720238095238C1155.1666666666667,109.34126984126983,1157.5833333333333,108.6453373015873,1160,107.94940476190476C1162.4166666666667,107.25347222222221,1164.8333333333333,106.55753968253968,1167.25,105.86160714285714C1169.6666666666667,105.1656746031746,1172.0833333333333,104.46974206349206,1174.5,103.77380952380952C1176.9166666666667,103.07787698412697,1179.3333333333333,102.38194444444443,1181.75,101.6860119047619C1184.1666666666667,100.99007936507937,1186.5833333333333,100.29414682539684,1189,99.59821428571429C1191.4166666666667,98.90228174603175,1193.8333333333333,98.20634920634922,1196.25,97.51041666666667C1198.6666666666667,96.81448412698413,1201.0833333333333,96.11855158730158,1203.5,95.42261904761904C1205.9166666666667,94.72668650793649,1208.3333333333333,94.03075396825398,1210.75,93.33482142857143C1213.1666666666667,92.63888888888889,1215.5833333333333,91.94295634920636,1218,91.24702380952381C1220.4166666666667,90.55109126984127,1222.8333333333333,89.85515873015873,1225.25,89.15922619047619C1227.6666666666667,88.46329365079364,1230.0833333333333,87.76736111111111,1232.5,87.07142857142857C1234.9166666666667,86.37549603174602,1237.3333333333333,85.67956349206351,1239.75,84.98363095238096C1242.1666666666667,84.28769841269842,1244.5833333333333,83.59176587301587,1247,82.89583333333333C1249.4166666666667,82.19990079365078,1251.8333333333333,81.50396825396825,1254.25,80.80803571428572C1256.6666666666667,80.11210317460319,1259.0833333333333,79.41617063492065,1261.5,78.7202380952381C1263.9166666666667,78.02430555555556,1266.3333333333333,77.32837301587301,1268.75,76.63244047619047C1271.1666666666667,75.93650793650792,1273.5833333333333,75.24057539682539,1276,74.54464285714286C1278.4166666666667,73.84871031746033,1280.8333333333333,73.15277777777779,1283.25,72.45684523809524C1285.6666666666667,71.7609126984127,1288.0833333333333,71.06498015873017,1290.5,70.36904761904762C1292.9166666666667,69.67311507936508,1295.3333333333333,68.97718253968253,1297.75,68.28125C1300.1666666666667,67.58531746031747,1302.5833333333333,66.88938492063494,1305,66.1934523809524C1307.4166666666667,65.49751984126985,1309.8333333333333,64.8015873015873,1312.25,64.10565476190476C1314.6666666666667,63.40972222222222,1317.0833333333333,62.71378968253969,1319.5,62.01785714285715C1321.9166666666667,61.321924603174615,1324.3333333333333,60.62599206349206,1326.75,59.930059523809526C1329.1666666666667,59.23412698412699,1331.5833333333333,58.53819444444444,1334,57.842261904761905C1336.4166666666667,57.14632936507937,1338.8333333333333,56.450396825396815,1341.25,55.75446428571428C1343.6666666666667,55.05853174603174,1346.0833333333333,54.362599206349195,1348.5,53.66666666666666C1350.9166666666667,52.97073412698412,1353.3333333333333,52.27480158730158,1355.75,51.578869047619044C1358.1666666666667,50.882936507936506,1360.5833333333333,50.187003968253954,1363,49.491071428571416C1365.4166666666667,48.79513888888888,1367.8333333333333,48.09920634920635,1370.25,47.40327380952381C1372.6666666666667,46.70734126984127,1375.0833333333333,46.01140873015872,1377.5,45.31547619047618C1379.9166666666667,44.619543650793645,1382.3333333333333,43.92361111111111,1384.75,43.22767857142857C1387.1666666666667,42.53174603174603,1389.5833333333333,41.835813492063494,1392,41.139880952380956C1394.4166666666667,40.44394841269842,1396.8333333333333,39.74801587301587,1399.25,39.052083333333336C1401.6666666666667,38.3561507936508,1404.0833333333333,37.660218253968246,1406.5,36.96428571428571C1408.9166666666667,36.26835317460317,1411.3333333333333,35.572420634920626,1413.75,34.87648809523809C1416.1666666666667,34.18055555555555,1418.5833333333333,33.48462301587301,1421,32.788690476190474C1423.4166666666667,32.09275793650794,1425.8333333333333,31.3968253968254,1428.25,30.70089285714286C1430.6666666666667,30.004960317460323,1433.0833333333333,29.309027777777793,1435.5,28.61309523809525C1437.9166666666667,27.91716269841271,1440.3333333333333,27.221230158730155,1442.75,26.525297619047613C1445.1666666666667,25.829365079365072,1447.5833333333333,25.133432539682538,1450,24.437500000000004" fill="transparent" stroke-linecap="round" stroke="#B6509E" stroke-width="2"></path><path class="visx-linepath" d="M0,107.81249999998181C2.4166666666666665,107.80946729956744,4.833333333333334,107.80643459915309,7.25,107.80340189873418C9.666666666666666,107.80036919831527,12.083333333333334,107.7973364978903,14.5,107.79430379746836C16.916666666666668,107.79127109704642,19.333333333333332,107.78823839662446,21.75,107.78520569620252C24.166666666666668,107.78217299578058,26.583333333333332,107.77914029535864,29,107.7761075949367C31.416666666666668,107.77307489451476,33.833333333333336,107.77004219409284,36.25,107.7670094936709C38.666666666666664,107.76397679324896,41.083333333333336,107.760944092827,43.5,107.75791139240506C45.91666666666667,107.75487869198312,48.333333333333336,107.75184599156117,50.75000000000001,107.74881329113923C53.16666666666667,107.74578059071729,55.583333333333336,107.74274789029536,58,107.73971518987342C60.416666666666664,107.73668248945148,62.833333333333336,107.73364978902954,65.25,107.7306170886076C67.66666666666667,107.72758438818566,70.08333333333333,107.72455168776371,72.5,107.72151898734177C74.91666666666667,107.71848628691983,77.33333333333333,107.71545358649789,79.75,107.71242088607595C82.16666666666667,107.709388185654,84.58333333333333,107.70635548523207,87,107.70332278481013C89.41666666666667,107.70029008438819,91.83333333333333,107.69725738396625,94.25,107.6942246835443C96.66666666666667,107.69119198312237,99.08333333333334,107.68815928270043,101.50000000000001,107.68512658227849C103.91666666666667,107.68209388185655,106.33333333333334,107.67906118143459,108.75,107.67602848101265C111.16666666666667,107.67299578059071,113.58333333333333,107.66996308016877,116,107.66693037974683C118.41666666666667,107.66389767932489,120.83333333333334,107.66086497890296,123.25000000000001,107.65783227848102C125.66666666666667,107.65479957805908,128.08333333333334,107.65176687763713,130.5,107.64873417721519C132.91666666666666,107.64570147679325,135.33333333333334,107.64266877637131,137.75,107.63963607594937C140.16666666666666,107.63660337552743,142.58333333333334,107.63357067510549,145,107.63053797468355C147.41666666666666,107.62750527426161,149.83333333333334,107.62447257383967,152.25,107.62143987341773C154.66666666666666,107.61840717299579,157.08333333333334,107.61537447257383,159.5,107.6123417721519C161.91666666666666,107.60930907172995,164.33333333333334,107.60627637130803,166.75,107.60324367088609C169.16666666666666,107.60021097046415,171.58333333333334,107.59717827004219,174,107.59414556962025C176.41666666666666,107.59111286919831,178.83333333333334,107.58808016877637,181.25,107.58504746835443C183.66666666666666,107.58201476793249,186.08333333333334,107.57898206751055,188.5,107.57594936708861C190.91666666666666,107.57291666666667,193.33333333333334,107.56988396624473,195.75,107.56685126582279C198.16666666666669,107.56381856540085,200.58333333333334,107.5607858649789,203.00000000000003,107.55775316455696C205.41666666666669,107.55472046413502,207.83333333333331,107.55168776371309,210.24999999999997,107.54865506329115C212.66666666666666,107.54562236286921,215.08333333333331,107.54258966244726,217.5,107.53955696202532C219.91666666666666,107.53652426160338,222.33333333333334,107.53349156118144,224.75,107.5304588607595C227.16666666666666,107.52742616033755,229.58333333333334,107.52439345991561,232,107.52136075949367C234.41666666666666,107.51832805907173,236.83333333333334,107.5152953586498,239.25,107.51226265822785C241.66666666666669,107.50922995780591,244.08333333333334,107.50619725738396,246.50000000000003,107.50316455696202C248.91666666666669,107.50013185654008,251.33333333333331,107.49709915611815,253.74999999999997,107.49406645569621C256.16666666666663,107.49103375527427,258.5833333333333,107.48800105485232,261,107.48496835443038C263.4166666666667,107.48193565400844,265.8333333333333,107.4789029535865,268.25,107.47587025316456C270.6666666666667,107.47283755274262,273.0833333333333,107.46980485232068,275.5,107.46677215189874C277.9166666666667,107.4637394514768,280.3333333333333,107.46070675105486,282.75,107.45767405063292C285.1666666666667,107.45464135021098,287.5833333333333,107.45160864978902,290,107.44857594936708C292.4166666666667,107.44554324894514,294.8333333333333,107.44251054852322,297.25,107.43947784810128C299.6666666666667,107.43644514767934,302.0833333333333,107.43341244725738,304.5,107.43037974683544C306.9166666666667,107.4273470464135,309.3333333333333,107.42431434599156,311.75,107.42128164556962C314.1666666666667,107.41824894514768,316.5833333333333,107.41521624472574,319,107.4121835443038C321.4166666666667,107.40915084388186,323.8333333333333,107.40611814345992,326.25,107.40308544303798C328.6666666666667,107.40005274261604,331.0833333333333,107.39702004219409,333.5,107.39398734177215C335.9166666666667,107.3909546413502,338.3333333333333,107.38792194092828,340.75,107.38488924050634C343.1666666666667,107.3818565400844,345.5833333333333,107.37882383966245,348,107.3757911392405C350.4166666666667,107.37275843881856,352.8333333333333,107.36972573839662,355.25,107.36669303797468C357.6666666666667,107.36366033755274,360.0833333333333,107.3606276371308,362.5,107.35759493670886C364.9166666666667,107.35456223628692,367.3333333333333,107.35152953586498,369.75,107.34849683544304C372.1666666666667,107.3454641350211,374.5833333333333,107.34243143459915,377,107.33939873417721C379.4166666666667,107.33636603375527,381.8333333333333,107.33333333333334,384.25,107.3303006329114C386.6666666666667,107.32726793248946,389.0833333333333,107.32423523206751,391.5,107.32120253164557C393.9166666666667,107.31816983122363,396.33333333333337,107.31513713080169,398.75000000000006,107.31210443037975C401.16666666666674,107.30907172995781,403.58333333333337,107.30603902953587,406.00000000000006,107.30300632911393C408.4166666666667,107.29997362869199,410.8333333333333,107.29694092827005,413.24999999999994,107.2939082278481C415.66666666666663,107.29087552742617,418.08333333333326,107.28784282700421,420.49999999999994,107.28481012658227C422.91666666666663,107.28177742616033,425.3333333333333,107.2787447257384,427.75,107.27571202531647C430.1666666666667,107.27267932489453,432.5833333333333,107.26964662447257,435,107.26661392405063C437.4166666666667,107.26358122362869,439.8333333333333,107.26054852320675,442.25,107.25751582278481C444.6666666666667,107.25448312236287,447.0833333333333,107.25145042194093,449.5,107.24841772151899C451.9166666666667,107.24538502109705,454.3333333333333,107.24235232067511,456.75,107.23931962025317C459.1666666666667,107.23628691983123,461.5833333333333,107.23325421940928,464,107.23022151898734C466.4166666666667,107.2271888185654,468.8333333333333,107.22415611814347,471.25,107.22112341772153C473.6666666666667,107.21809071729959,476.0833333333333,107.21505801687763,478.5,107.2120253164557C480.9166666666667,107.20899261603375,483.33333333333337,107.20595991561181,485.75000000000006,107.20292721518987C488.16666666666674,107.19989451476793,490.58333333333337,107.196861814346,493.00000000000006,107.19382911392405C495.4166666666667,107.19079641350211,497.8333333333333,107.18776371308017,500.24999999999994,107.18473101265823C502.66666666666663,107.18169831223629,505.08333333333326,107.17866561181434,507.49999999999994,107.1756329113924C509.91666666666663,107.17260021097046,512.3333333333333,107.16956751054853,514.75,107.16653481012659C517.1666666666666,107.16350210970465,519.5833333333334,107.1604694092827,522,107.15743670886076C524.4166666666666,107.15440400843882,526.8333333333334,107.15137130801688,529.25,107.14833860759494C531.6666666666666,107.145305907173,534.0833333333334,107.14227320675106,536.5,107.13924050632912C538.9166666666666,107.13620780590718,541.3333333333334,107.13317510548524,543.75,107.1301424050633C546.1666666666666,107.12710970464136,548.5833333333334,107.1240770042194,551,107.12104430379746C553.4166666666666,107.11801160337552,555.8333333333334,107.1149789029536,558.25,107.11194620253166C560.6666666666666,107.10891350210971,563.0833333333334,107.10588080168776,565.5,107.10284810126582C567.9166666666666,107.09981540084388,570.3333333333334,107.09678270042194,572.75,107.09375C575.1666666666666,107.09071729957806,577.5833333333334,107.08768459915612,580,107.08465189873418C582.4166666666666,107.08161919831224,584.8333333333334,107.0785864978903,587.25,107.07555379746836C589.6666666666666,107.07252109704642,592.0833333333334,107.06948839662446,594.5,107.06645569620252C596.9166666666666,107.06342299578058,599.3333333333334,107.06039029535866,601.75,107.05735759493672C604.1666666666666,107.05432489451478,606.5833333333334,107.05129219409282,609,107.04825949367088C611.4166666666666,107.04522679324894,613.8333333333334,107.042194092827,616.25,107.03916139240506C618.6666666666666,107.03612869198312,621.0833333333334,107.03309599156118,623.5,107.03006329113924C625.9166666666666,107.0270305907173,628.3333333333334,107.02399789029536,630.75,107.02096518987342C633.1666666666666,107.01793248945148,635.5833333333334,107.01489978902953,638,107.01186708860759C640.4166666666666,107.00883438818565,642.8333333333334,107.00580168776371,645.25,107.00276898734177C647.6666666666666,106.99973628691983,650.0833333333334,106.99670358649789,652.5,106.99367088607595C654.9166666666666,106.990638185654,657.3333333333334,106.98760548523207,659.75,106.98457278481013C662.1666666666666,106.98154008438819,664.5833333333334,106.97850738396625,667,106.9754746835443C669.4166666666666,106.97244198312237,671.8333333333334,106.96940928270043,674.25,106.96637658227849C676.6666666666666,106.96334388185655,679.0833333333334,106.96031118143459,681.5,106.95727848101265C683.9166666666666,106.95424578059071,686.3333333333334,106.95121308016877,688.75,106.94818037974683C691.1666666666666,106.94514767932489,693.5833333333334,106.94211497890295,696,106.93908227848101C698.4166666666666,106.93604957805907,700.8333333333334,106.93301687763713,703.25,106.92998417721519C705.6666666666666,106.92695147679325,708.0833333333334,106.92391877637131,710.5,106.92088607594937C712.9166666666666,106.91785337552743,715.3333333333334,106.91482067510549,717.75,106.91178797468355C720.1666666666666,106.90875527426161,722.5833333333334,106.90572257383965,725,106.90268987341771C727.4166666666666,106.89965717299577,729.8333333333334,106.89662447257383,732.25,106.8935917721519C734.6666666666666,106.89055907172995,737.0833333333334,106.88752637130801,739.5,106.88449367088607C741.9166666666666,106.88146097046413,744.3333333333334,106.87842827004219,746.75,106.87539556962025C749.1666666666666,106.87236286919831,751.5833333333334,106.86933016877637,754,106.86629746835443C756.4166666666666,106.86326476793249,758.8333333333334,106.86023206751055,761.25,106.85719936708861C763.6666666666666,106.85416666666667,766.0833333333334,106.85113396624472,768.5,106.84810126582278C770.9166666666666,106.84506856540084,773.3333333333334,106.8420358649789,775.75,106.83900316455696C778.1666666666666,106.83597046413502,780.5833333333334,106.83293776371308,783,106.82990506329114C785.4166666666667,106.8268723628692,787.8333333333334,106.82383966244726,790.2500000000001,106.82080696202532C792.6666666666667,106.81777426160338,795.0833333333335,106.81474156118144,797.5000000000001,106.8117088607595C799.9166666666667,106.80867616033755,802.3333333333335,106.80564345991561,804.7500000000001,106.80261075949367C807.1666666666667,106.79957805907173,809.5833333333335,106.79654535864978,812.0000000000001,106.79351265822784C814.4166666666667,106.7904799578059,816.8333333333333,106.78744725738396,819.2499999999999,106.78441455696202C821.6666666666665,106.78138185654008,824.0833333333333,106.77834915611815,826.4999999999999,106.77531645569621C828.9166666666665,106.77228375527427,831.3333333333333,106.76925105485232,833.7499999999999,106.76621835443038C836.1666666666665,106.76318565400844,838.5833333333333,106.7601529535865,840.9999999999999,106.75712025316456C843.4166666666666,106.75408755274262,845.8333333333333,106.75105485232068,848.25,106.74802215189874C850.6666666666666,106.7449894514768,853.0833333333334,106.74195675105486,855.5,106.73892405063292C857.9166666666666,106.73589135021098,860.3333333333334,106.73285864978902,862.75,106.72982594936708C865.1666666666666,106.72679324894514,867.5833333333334,106.7237605485232,870,106.72072784810126C872.4166666666666,106.71769514767932,874.8333333333334,106.71466244725738,877.25,106.71162974683544C879.6666666666666,106.7085970464135,882.0833333333334,106.70556434599156,884.5,106.70253164556962C886.9166666666666,106.69949894514768,889.3333333333334,106.69646624472574,891.75,106.6934335443038C894.1666666666666,106.69040084388186,896.5833333333334,106.6873681434599,899,106.68433544303797C901.4166666666666,106.68130274261603,903.8333333333334,106.67827004219409,906.25,106.67523734177215C908.6666666666666,106.6722046413502,911.0833333333334,106.66917194092828,913.5,106.66613924050634C915.9166666666666,106.6631065400844,918.3333333333334,106.66007383966245,920.75,106.6570411392405C923.1666666666666,106.65400843881856,925.5833333333334,106.65097573839661,928,106.64794303797467C930.4166666666666,106.64491033755273,932.8333333333334,106.6418776371308,935.25,106.63884493670886C937.6666666666666,106.63581223628692,940.0833333333334,106.63277953586498,942.5,106.62974683544304C944.9166666666666,106.6267141350211,947.3333333333334,106.62368143459915,949.75,106.62064873417721C952.1666666666666,106.61761603375527,954.5833333333334,106.61458333333333,957,106.61155063291139C959.4166666666666,106.60851793248945,961.8333333333334,106.60548523206751,964.25,106.60245253164557C966.6666666666667,106.59941983122363,969.0833333333334,106.59638713080169,971.5000000000001,106.59335443037975C973.9166666666667,106.59032172995781,976.3333333333335,106.58728902953587,978.7500000000001,106.58425632911393C981.1666666666667,106.58122362869199,983.5833333333335,106.57819092827003,986.0000000000001,106.57515822784809C988.4166666666667,106.57212552742615,990.8333333333335,106.56909282700421,993.2500000000001,106.56606012658227C995.6666666666667,106.56302742616033,998.0833333333333,106.5599947257384,1000.4999999999999,106.55696202531647C1002.9166666666665,106.55392932489453,1005.3333333333333,106.55089662447257,1007.7499999999999,106.54786392405063C1010.1666666666665,106.54483122362869,1012.5833333333333,106.54179852320674,1014.9999999999999,106.5387658227848C1017.4166666666665,106.53573312236286,1019.8333333333333,106.53270042194093,1022.2499999999999,106.52966772151899C1024.6666666666665,106.52663502109705,1027.0833333333333,106.52360232067511,1029.5,106.52056962025317C1031.9166666666667,106.51753691983123,1034.3333333333333,106.51450421940928,1036.75,106.51147151898734C1039.1666666666667,106.5084388185654,1041.5833333333333,106.50540611814345,1044,106.50237341772151C1046.4166666666667,106.49934071729957,1048.8333333333333,106.49630801687763,1051.25,106.4932753164557C1053.6666666666667,106.49024261603375,1056.0833333333333,106.48720991561181,1058.5,106.48417721518987C1060.9166666666667,106.48114451476793,1063.3333333333333,106.478111814346,1065.75,106.47507911392405C1068.1666666666667,106.47204641350211,1070.5833333333333,106.46901371308016,1073,106.46598101265822C1075.4166666666667,106.46294831223628,1077.8333333333333,106.45991561181434,1080.25,106.4568829113924C1082.6666666666667,106.45385021097046,1085.0833333333333,106.45081751054853,1087.5,106.44778481012659C1089.9166666666667,106.44475210970465,1092.3333333333333,106.4417194092827,1094.75,106.43868670886076C1097.1666666666667,106.43565400843882,1099.5833333333333,106.43262130801688,1102,106.42958860759494C1104.4166666666667,106.426555907173,1106.8333333333333,106.42352320675106,1109.25,106.42049050632912C1111.6666666666667,106.41745780590718,1114.0833333333333,106.41442510548524,1116.5,106.4113924050633C1118.9166666666667,106.40835970464136,1121.3333333333333,106.4053270042194,1123.75,106.40229430379746C1126.1666666666667,106.39926160337552,1128.5833333333333,106.3962289029536,1131,106.39319620253166C1133.4166666666667,106.39016350210971,1135.8333333333333,106.38713080168776,1138.25,106.38409810126582C1140.6666666666667,106.38106540084388,1143.0833333333333,106.38106540084388,1145.5,106.375C1147.9166666666667,106.36893459915612,1150.3333333333333,104.98313492063492,1152.75,104.28720238095238C1155.1666666666667,103.59126984126983,1157.5833333333333,102.8953373015873,1160,102.19940476190476C1162.4166666666667,101.50347222222221,1164.8333333333333,100.80753968253968,1167.25,100.11160714285714C1169.6666666666667,99.4156746031746,1172.0833333333333,98.71974206349205,1174.5,98.02380952380952C1176.9166666666667,97.32787698412699,1179.3333333333333,96.63194444444446,1181.75,95.93601190476191C1184.1666666666667,95.24007936507937,1186.5833333333333,94.54414682539682,1189,93.84821428571428C1191.4166666666667,93.15228174603173,1193.8333333333333,92.45634920634922,1196.25,91.76041666666667C1198.6666666666667,91.06448412698413,1201.0833333333333,90.3685515873016,1203.5,89.67261904761905C1205.9166666666667,88.9766865079365,1208.3333333333333,88.28075396825398,1210.75,87.58482142857143C1213.1666666666667,86.88888888888889,1215.5833333333333,86.19295634920636,1218,85.49702380952381C1220.4166666666667,84.80109126984127,1222.8333333333333,84.10515873015873,1225.25,83.40922619047619C1227.6666666666667,82.71329365079364,1230.0833333333333,82.01736111111111,1232.5,81.32142857142857C1234.9166666666667,80.62549603174602,1237.3333333333333,79.9295634920635,1239.75,79.23363095238095C1242.1666666666667,78.5376984126984,1244.5833333333333,77.84176587301587,1247,77.14583333333334C1249.4166666666667,76.44990079365081,1251.8333333333333,75.75396825396827,1254.25,75.05803571428572C1256.6666666666667,74.36210317460318,1259.0833333333333,73.66617063492063,1261.5,72.97023809523809C1263.9166666666667,72.27430555555554,1266.3333333333333,71.57837301587301,1268.75,70.88244047619048C1271.1666666666667,70.18650793650795,1273.5833333333333,69.4905753968254,1276,68.79464285714286C1278.4166666666667,68.09871031746032,1280.8333333333333,67.40277777777779,1283.25,66.70684523809524C1285.6666666666667,66.0109126984127,1288.0833333333333,65.31498015873017,1290.5,64.61904761904762C1292.9166666666667,63.92311507936508,1295.3333333333333,63.22718253968253,1297.75,62.53124999999999C1300.1666666666667,61.835317460317455,1302.5833333333333,61.13938492063491,1305,60.44345238095237C1307.4166666666667,59.747519841269835,1309.8333333333333,59.0515873015873,1312.25,58.35565476190476C1314.6666666666667,57.65972222222222,1317.0833333333333,56.96378968253967,1319.5,56.26785714285713C1321.9166666666667,55.571924603174594,1324.3333333333333,54.87599206349206,1326.75,54.180059523809526C1329.1666666666667,53.48412698412699,1331.5833333333333,52.788194444444436,1334,52.0922619047619C1336.4166666666667,51.39632936507936,1338.8333333333333,50.70039682539682,1341.25,50.004464285714285C1343.6666666666667,49.30853174603175,1346.0833333333333,48.612599206349216,1348.5,47.91666666666668C1350.9166666666667,47.22073412698414,1353.3333333333333,46.524801587301596,1355.75,45.82886904761905C1358.1666666666667,45.132936507936506,1360.5833333333333,44.43700396825396,1363,43.74107142857142C1365.4166666666667,43.045138888888886,1367.8333333333333,42.34920634920634,1370.25,41.6532738095238C1372.6666666666667,40.957341269841265,1375.0833333333333,40.26140873015873,1377.5,39.56547619047619C1379.9166666666667,38.86954365079365,1382.3333333333333,38.173611111111114,1384.75,37.47767857142858C1387.1666666666667,36.78174603174604,1389.5833333333333,36.08581349206348,1392,35.38988095238094C1394.4166666666667,34.693948412698404,1396.8333333333333,33.998015873015866,1399.25,33.30208333333333C1401.6666666666667,32.60615079365079,1404.0833333333333,31.910218253968257,1406.5,31.21428571428572C1408.9166666666667,30.51835317460318,1411.3333333333333,29.822420634920647,1413.75,29.126488095238106C1416.1666666666667,28.430555555555564,1418.5833333333333,27.734623015873012,1421,27.03869047619047C1423.4166666666667,26.34275793650793,1425.8333333333333,25.646825396825395,1428.25,24.950892857142858C1430.6666666666667,24.25496031746032,1433.0833333333333,23.559027777777786,1435.5,22.863095238095248C1437.9166666666667,22.16716269841271,1440.3333333333333,21.471230158730176,1442.75,20.775297619047635C1445.1666666666667,20.079365079365093,1447.5833333333333,19.383432539682545,1450,18.687499999999996" fill="transparent" stroke-linecap="round" stroke="#E7C6DF" stroke-width="2"></path><g class="visx-group visx-axis visx-axis-bottom" transform="translate(0, 115)"><g class="visx-group visx-axis-tick" transform="translate(0, 0)"><line class="visx-line" x1="0" y1="0" x2="0" y2="8" fill="transparent" shape-rendering="crispEdges" stroke="#000" stroke-width="0" stroke-linecap="square"></line><svg x="0" y="0" font-size="10" style="overflow:visible"><text transform="" x="0" y="18" fill="#000" font-size="10" text-anchor="middle"><tspan x="0" dy="0em">0%</tspan></text></svg></g><g class="visx-group visx-axis-tick" transform="translate(0, 0)"><line class="visx-line" x1="362.5" y1="0" x2="362.5" y2="8" fill="transparent" shape-rendering="crispEdges" stroke="#000" stroke-width="0" stroke-linecap="square"></line><svg x="0" y="0" font-size="10" style="overflow:visible"><text transform="" x="362.5" y="18" fill="#000" font-size="10" text-anchor="middle"><tspan x="362.5" dy="0em">25%</tspan></text></svg></g><g class="visx-group visx-axis-tick" transform="translate(0, 0)"><line class="visx-line" x1="725" y1="0" x2="725" y2="8" fill="transparent" shape-rendering="crispEdges" stroke="#000" stroke-width="0" stroke-linecap="square"></line><svg x="0" y="0" font-size="10" style="overflow:visible"><text transform="" x="725" y="18" fill="#000" font-size="10" text-anchor="middle"><tspan x="725" dy="0em">50%</tspan></text></svg></g><g class="visx-group visx-axis-tick" transform="translate(0, 0)"><line class="visx-line" x1="1087.5" y1="0" x2="1087.5" y2="8" fill="transparent" shape-rendering="crispEdges" stroke="#000" stroke-width="0" stroke-linecap="square"></line><svg x="0" y="0" font-size="10" style="overflow:visible"><text transform="" x="1087.5" y="18" fill="#000" font-size="10" text-anchor="middle"><tspan x="1087.5" dy="0em">75%</tspan></text></svg></g><g class="visx-group visx-axis-tick" transform="translate(0, 0)"><line class="visx-line" x1="1450" y1="0" x2="1450" y2="8" fill="transparent" shape-rendering="crispEdges" stroke="#000" stroke-width="0" stroke-linecap="square"></line><svg x="0" y="0" font-size="10" style="overflow:visible"><text transform="" x="1450" y="18" fill="#000" font-size="10" text-anchor="middle"><tspan x="1450" dy="0em">100%</tspan></text></svg></g><line class="visx-line visx-axis-line" x1="0.5" y1="0" x2="1450.5" y2="0" fill="transparent" shape-rendering="crispEdges" stroke="#222" stroke-width="0"></line></g><g class="visx-group visx-axis visx-axis-left" transform="translate(0, 0)"><g class="visx-group visx-axis-tick" transform="translate(0, 0)"><line class="visx-line" x1="0" y1="115" x2="-8" y2="115" fill="transparent" shape-rendering="crispEdges" stroke="#222" stroke-width="0" stroke-linecap="square"></line><svg x="-30" y="0" font-size="8" style="overflow:visible"><text transform="" x="-8" y="115" fill="#000" font-size="8" text-anchor="start"><tspan x="-8" dy="0em">0%</tspan></text></svg></g><g class="visx-group visx-axis-tick" transform="translate(0, 0)"><line class="visx-line" x1="0" y1="43.125" x2="-8" y2="43.125" fill="transparent" shape-rendering="crispEdges" stroke="#222" stroke-width="0" stroke-linecap="square"></line><svg x="-30" y="0" font-size="8" style="overflow:visible"><text transform="" x="-8" y="43.125" fill="#000" font-size="8" text-anchor="start"><tspan x="-8" dy="0em">100%</tspan></text></svg></g><line class="visx-line visx-axis-line" x1="0" y1="115.5" x2="0" y2="0.5" fill="transparent" shape-rendering="crispEdges" stroke="#222" stroke-width="0"></line></g><rect class="visx-bar" width="1450" height="115" fill="transparent"></rect><line class="visx-line" x1="1145.5" y1="28" x2="1145.5" y2="115" fill="transparent" shape-rendering="crispEdges" stroke="#0062D2" stroke-width="1" pointer-events="none" stroke-dasharray="5,2"></line><svg x="0" y="0" font-size="10px" style="overflow:visible"><text transform="" x="1145.5" y="20" font-size="10px" fill="#fff" stroke="#fff" stroke-width="0.8em" text-anchor="middle"><tspan x="1145.5" dy="0.355em">Optimal 79%</tspan></text></svg><svg x="0" y="0" font-size="10px" style="overflow:visible"><text transform="" x="1145.5" y="20" font-size="10px" fill="#62677B" text-anchor="middle"><tspan x="1145.5" dy="0.355em">Optimal 79%</tspan></text></svg></g></svg>