<?xml version="1.0"?><svg xmlns="http://www.w3.org/2000/svg" xmlns:xlink= "http://www.w3.org/1999/xlink" style="background: white;" width="1500" height="185"> <g style="color: black; font-size: 13px; font-family: sans-serif; transform: translate(18px, 25px);"><g><circle r="3" cx="-6" cy="-5" style="fill: #B6509E" /><text>Borrow APR, variable</text></g><g style="transform: translateX(150px);"><circle r="3" cx="-6" cy="-5" style="fill: rgb(231, 198, 223)" /><text>Borrow APR, stable</text></g><g style="transform: translateX(290px);"><circle r="3" cx="-6" cy="-5" style="fill: rgb(0, 98, 210)" /><text>Utilization Rate</text></g></g><g class="visx-group" transform="translate(40, 50)"><g class="visx-group visx-rows" transform="translate(0, 0)"><line class="visx-line" x1="0" y1="115" x2="1450" y2="115" fill="transparent" shape-rendering="crispEdges" stroke="#000" stroke-width="1" stroke-dasharray="3,3" pointer-events="none"></line><line class="visx-line" x1="0" y1="82.14285714285714" x2="1450" y2="82.14285714285714" fill="transparent" shape-rendering="crispEdges" stroke="#000" stroke-width="1" stroke-dasharray="3,3" pointer-events="none"></line><line class="visx-line" x1="0" y1="49.28571428571429" x2="1450" y2="49.28571428571429" fill="transparent" shape-rendering="crispEdges" stroke="#000" stroke-width="1" stroke-dasharray="3,3" pointer-events="none"></line><line class="visx-line" x1="0" y1="16.428571428571434" x2="1450" y2="16.428571428571434" fill="transparent" shape-rendering="crispEdges" stroke="#000" stroke-width="1" stroke-dasharray="3,3" pointer-events="none"></line></g><path class="visx-linepath" d="M0,114.90142857131357C2.4166666666666665,114.88226190469483,4.833333333333334,114.86309523807607,7.25,114.84392857142858C9.666666666666666,114.82476190478108,12.083333333333334,114.80559523809524,14.5,114.78642857142857C16.916666666666668,114.76726190476191,19.333333333333332,114.74809523809523,21.75,114.72892857142857C24.166666666666668,114.7097619047619,26.583333333333332,114.68939382896015,29,114.67142857142856C31.416666666666668,114.65346331389698,33.833333333333336,114.63790087463556,36.25,114.62113702623907C38.666666666666664,114.60437317784258,41.083333333333336,114.58760932944607,43.5,114.57084548104956C45.91666666666667,114.55408163265305,48.333333333333336,114.53731778425656,50.75000000000001,114.52055393586005C53.16666666666667,114.50379008746356,55.583333333333336,114.48702623906705,58,114.47026239067056C60.416666666666664,114.45349854227405,62.833333333333336,114.43673469387755,65.25,114.41997084548105C67.66666666666667,114.40320699708454,70.08333333333333,114.38644314868804,72.5,114.36967930029154C74.91666666666667,114.35291545189503,77.33333333333333,114.33615160349854,79.75,114.31938775510204C82.16666666666667,114.30262390670555,84.58333333333333,114.28586005830904,87,114.26909620991253C89.41666666666667,114.25233236151603,91.83333333333333,114.23556851311952,94.25,114.21880466472302C96.66666666666667,114.20204081632652,99.08333333333334,114.18527696793004,101.50000000000001,114.16851311953353C103.91666666666667,114.15174927113704,106.33333333333334,114.13498542274053,108.75,114.11822157434402C111.16666666666667,114.10145772594751,113.58333333333333,114.084693877551,116,114.06793002915451C118.41666666666667,114.051166180758,120.83333333333334,114.03440233236152,123.25000000000001,114.01763848396502C125.66666666666667,114.00087463556852,128.08333333333334,113.98411078717201,130.5,113.9673469387755C132.91666666666666,113.950583090379,135.33333333333334,113.93381924198249,137.75,113.917055393586C140.16666666666666,113.9002915451895,142.58333333333334,113.88352769679301,145,113.8667638483965C147.41666666666666,113.85,149.83333333333334,113.8332361516035,152.25,113.816472303207C154.66666666666666,113.79970845481049,157.08333333333334,113.78294460641399,159.5,113.76618075801748C161.91666666666666,113.74941690962098,164.33333333333334,113.73265306122448,166.75,113.71588921282799C169.16666666666666,113.6991253644315,171.58333333333334,113.68236151603499,174,113.66559766763848C176.41666666666666,113.64883381924197,178.83333333333334,113.63206997084546,181.25,113.61530612244897C183.66666666666666,113.59854227405248,186.08333333333334,113.58177842565598,188.5,113.56501457725948C190.91666666666666,113.54825072886297,193.33333333333334,113.53148688046647,195.75,113.51472303206997C198.16666666666669,113.49795918367346,200.58333333333334,113.48119533527696,203.00000000000003,113.46443148688046C205.41666666666669,113.44766763848396,207.83333333333331,113.43090379008746,210.24999999999997,113.41413994169096C212.66666666666666,113.39737609329445,215.08333333333331,113.38061224489796,217.5,113.36384839650145C219.91666666666666,113.34708454810495,222.33333333333334,113.33032069970844,224.75,113.31355685131194C227.16666666666666,113.29679300291545,229.58333333333334,113.28002915451896,232,113.26326530612245C234.41666666666666,113.24650145772594,236.83333333333334,113.22973760932945,239.25,113.21297376093294C241.66666666666669,113.19620991253643,244.08333333333334,113.17944606413994,246.50000000000003,113.16268221574343C248.91666666666669,113.14591836734694,251.33333333333331,113.12915451895043,253.74999999999997,113.11239067055394C256.16666666666663,113.09562682215743,258.5833333333333,113.07886297376093,261,113.06209912536443C263.4166666666667,113.04533527696792,265.8333333333333,113.02857142857141,268.25,113.01180758017492C270.6666666666667,112.99504373177842,273.0833333333333,112.97827988338193,275.5,112.96151603498542C277.9166666666667,112.94475218658891,280.3333333333333,112.92798833819242,282.75,112.91122448979591C285.1666666666667,112.8944606413994,287.5833333333333,112.87769679300291,290,112.8609329446064C292.4166666666667,112.8441690962099,294.8333333333333,112.8274052478134,297.25,112.81064139941691C299.6666666666667,112.79387755102042,302.0833333333333,112.77711370262391,304.5,112.7603498542274C306.9166666666667,112.74358600583089,309.3333333333333,112.72682215743438,311.75,112.71005830903789C314.1666666666667,112.6932944606414,316.5833333333333,112.6765306122449,319,112.6597667638484C321.4166666666667,112.64300291545189,323.8333333333333,112.6262390670554,326.25,112.60947521865889C328.6666666666667,112.59271137026238,331.0833333333333,112.57594752186588,333.5,112.55918367346938C335.9166666666667,112.54241982507287,338.3333333333333,112.52565597667638,340.75,112.50889212827988C343.1666666666667,112.49212827988339,345.5833333333333,112.47536443148688,348,112.45860058309037C350.4166666666667,112.44183673469387,352.8333333333333,112.42507288629736,355.25,112.40830903790086C357.6666666666667,112.39154518950437,360.0833333333333,112.37478134110788,362.5,112.35801749271137C364.9166666666667,112.34125364431486,367.3333333333333,112.32448979591837,369.75,112.30772594752186C372.1666666666667,112.29096209912535,374.5833333333333,112.27419825072886,377,112.25743440233236C379.4166666666667,112.24067055393587,381.8333333333333,112.22390670553936,384.25,112.20714285714286C386.6666666666667,112.19037900874635,389.0833333333333,112.17361516034984,391.5,112.15685131195335C393.9166666666667,112.14008746355684,396.33333333333337,112.12332361516036,398.75000000000006,112.10655976676385C401.16666666666674,112.08979591836736,403.58333333333337,112.07303206997085,406.00000000000006,112.05626822157434C408.4166666666667,112.03950437317785,410.8333333333333,112.02274052478134,413.24999999999994,112.00597667638485C415.66666666666663,111.98921282798834,418.08333333333326,111.97244897959185,420.49999999999994,111.95568513119534C422.91666666666663,111.93892128279883,425.3333333333333,111.92215743440234,427.75,111.90539358600583C430.1666666666667,111.88862973760934,432.5833333333333,111.87186588921284,435,111.85510204081633C437.4166666666667,111.83833819241983,439.8333333333333,111.82157434402333,442.25,111.80481049562682C444.6666666666667,111.78804664723032,447.0833333333333,111.77128279883382,449.5,111.75451895043733C451.9166666666667,111.73775510204084,454.3333333333333,111.72099125364433,456.75,111.70422740524782C459.1666666666667,111.68746355685131,461.5833333333333,111.6706997084548,464,111.65393586005831C466.4166666666667,111.63717201166182,468.8333333333333,111.62040816326532,471.25,111.60364431486882C473.6666666666667,111.58688046647231,476.0833333333333,111.57011661807582,478.5,111.55335276967931C480.9166666666667,111.5365889212828,483.33333333333337,111.5198250728863,485.75000000000006,111.5030612244898C488.16666666666674,111.4862973760933,490.58333333333337,111.46953352769681,493.00000000000006,111.4527696793003C495.4166666666667,111.43600583090381,497.8333333333333,111.4192419825073,500.24999999999994,111.4024781341108C502.66666666666663,111.38571428571429,505.08333333333326,111.36895043731778,507.49999999999994,111.35218658892128C509.91666666666663,111.33542274052478,512.3333333333333,111.3186588921283,514.75,111.30189504373179C517.1666666666666,111.2851311953353,519.5833333333334,111.26836734693879,522,111.25160349854228C524.4166666666666,111.23483965014577,526.8333333333334,111.21807580174928,529.25,111.20131195335277C531.6666666666666,111.18454810495626,534.0833333333334,111.16778425655977,536.5,111.15102040816328C538.9166666666666,111.13425655976678,541.3333333333334,111.11749271137028,543.75,111.10072886297377C546.1666666666666,111.08396501457726,548.5833333333334,111.06720116618075,551,111.05043731778426C553.4166666666666,111.03367346938776,555.8333333333334,111.01690962099127,558.25,111.00014577259476C560.6666666666666,110.98338192419826,563.0833333333334,110.96661807580176,565.5,110.94985422740525C567.9166666666666,110.93309037900875,570.3333333333334,110.91632653061225,572.75,110.89956268221574C575.1666666666666,110.88279883381924,577.5833333333334,110.86603498542274,580,110.84927113702625C582.4166666666666,110.83250728862976,584.8333333333334,110.81574344023325,587.25,110.79897959183674C589.6666666666666,110.78221574344023,592.0833333333334,110.76545189504373,594.5,110.74868804664723C596.9166666666666,110.73192419825074,599.3333333333334,110.71516034985424,601.75,110.69839650145774C604.1666666666666,110.68163265306123,606.5833333333334,110.66486880466474,609,110.64810495626823C611.4166666666666,110.63134110787172,613.8333333333334,110.61457725947523,616.25,110.59781341107872C618.6666666666666,110.58104956268221,621.0833333333334,110.56428571428572,623.5,110.54752186588922C625.9166666666666,110.53075801749273,628.3333333333334,110.51399416909622,630.75,110.49723032069971C633.1666666666666,110.4804664723032,635.5833333333334,110.4637026239067,638,110.4469387755102C640.4166666666666,110.43017492711371,642.8333333333334,110.41341107871722,645.25,110.39664723032071C647.6666666666666,110.3798833819242,650.0833333333334,110.36311953352771,652.5,110.3463556851312C654.9166666666666,110.32959183673469,657.3333333333334,110.3128279883382,659.75,110.29606413994169C662.1666666666666,110.27930029154518,664.5833333333334,110.26253644314869,667,110.2457725947522C669.4166666666666,110.2290087463557,671.8333333333334,110.2122448979592,674.25,110.19548104956269C676.6666666666666,110.17871720116618,679.0833333333334,110.16195335276967,681.5,110.14518950437318C683.9166666666666,110.12842565597668,686.3333333333334,110.11166180758019,688.75,110.09489795918368C691.1666666666666,110.07813411078718,693.5833333333334,110.06137026239068,696,110.04460641399417C698.4166666666666,110.02784256559767,700.8333333333334,110.01107871720117,703.25,109.99431486880466C705.6666666666666,109.97755102040816,708.0833333333334,109.96078717201166,710.5,109.94402332361517C712.9166666666666,109.92725947521868,715.3333333333334,109.91049562682217,717.75,109.89373177842566C720.1666666666666,109.87696793002915,722.5833333333334,109.86020408163265,725,109.84344023323615C727.4166666666666,109.82667638483966,729.8333333333334,109.80991253644316,732.25,109.79314868804666C734.6666666666666,109.77638483965015,737.0833333333334,109.75962099125366,739.5,109.74285714285715C741.9166666666666,109.72609329446064,744.3333333333334,109.70932944606415,746.75,109.69256559766764C749.1666666666666,109.67580174927113,751.5833333333334,109.65903790087464,754,109.64227405247814C756.4166666666666,109.62551020408165,758.8333333333334,109.60874635568514,761.25,109.59198250728863C763.6666666666666,109.57521865889213,766.0833333333334,109.55845481049562,768.5,109.54169096209912C770.9166666666666,109.52492711370263,773.3333333333334,109.50816326530614,775.75,109.49139941690963C778.1666666666666,109.47463556851312,780.5833333333334,109.45787172011663,783,109.44110787172012C785.4166666666667,109.42434402332361,787.8333333333334,109.40758017492712,790.2500000000001,109.39081632653061C792.6666666666667,109.37405247813412,795.0833333333335,109.35728862973761,797.5000000000001,109.34052478134112C799.9166666666667,109.32376093294462,802.3333333333335,109.30699708454812,804.7500000000001,109.29023323615161C807.1666666666667,109.2734693877551,809.5833333333335,109.2567055393586,812.0000000000001,109.2399416909621C814.4166666666667,109.2231778425656,816.8333333333333,109.2064139941691,819.2499999999999,109.1896501457726C821.6666666666665,109.1728862973761,824.0833333333333,109.1561224489796,826.4999999999999,109.1393586005831C828.9166666666665,109.12259475218659,831.3333333333333,109.10583090379009,833.7499999999999,109.08906705539358C836.1666666666665,109.07230320699708,838.5833333333333,109.05553935860058,840.9999999999999,109.03877551020409C843.4166666666666,109.02201166180758,845.8333333333333,109.00524781341109,848.25,108.98848396501458C850.6666666666666,108.97172011661807,853.0833333333334,108.95495626822157,855.5,108.93819241982507C857.9166666666666,108.92142857142858,860.3333333333334,108.90466472303208,862.75,108.88790087463558C865.1666666666666,108.87113702623907,867.5833333333334,108.85437317784258,870,108.83760932944607C872.4166666666666,108.82084548104956,874.8333333333334,108.80408163265307,877.25,108.78731778425656C879.6666666666666,108.77055393586005,882.0833333333334,108.75379008746356,884.5,108.73702623906706C886.9166666666666,108.72026239067057,889.3333333333334,108.70349854227406,891.75,108.68673469387755C894.1666666666666,108.66997084548105,896.5833333333334,108.65320699708454,899,108.63644314868804C901.4166666666666,108.61967930029155,903.8333333333334,108.60291545189506,906.25,108.58615160349855C908.6666666666666,108.56938775510204,911.0833333333334,108.55262390670555,913.5,108.53586005830904C915.9166666666666,108.51909620991253,918.3333333333334,108.50233236151604,920.75,108.48556851311953C923.1666666666666,108.46880466472302,925.5833333333334,108.45204081632653,928,108.43527696793004C930.4166666666666,108.41851311953354,932.8333333333334,108.40174927113704,935.25,108.38498542274053C937.6666666666666,108.36822157434402,940.0833333333334,108.35145772594751,942.5,108.33469387755102C944.9166666666666,108.31793002915452,947.3333333333334,108.30116618075803,949.75,108.28440233236152C952.1666666666666,108.26763848396502,954.5833333333334,108.25087463556852,957,108.23411078717201C959.4166666666666,108.2173469387755,961.8333333333334,108.200583090379,964.25,108.1838192419825C966.6666666666667,108.167055393586,969.0833333333334,108.15029154518952,971.5000000000001,108.13352769679301C973.9166666666667,108.11676384839652,976.3333333333335,108.10000000000001,978.7500000000001,108.0832361516035C981.1666666666667,108.066472303207,983.5833333333335,108.04970845481049,986.0000000000001,108.03294460641399C988.4166666666667,108.0161807580175,990.8333333333335,107.999416909621,993.2500000000001,107.9826530612245C995.6666666666667,107.965889212828,998.0833333333333,107.9491253644315,1000.4999999999999,107.93236151603499C1002.9166666666665,107.91559766763848,1005.3333333333333,107.89883381924199,1007.7499999999999,107.88206997084548C1010.1666666666665,107.86530612244897,1012.5833333333333,107.84854227405248,1014.9999999999999,107.83177842565598C1017.4166666666665,107.81501457725949,1019.8333333333333,107.79825072886298,1022.2499999999999,107.78148688046647C1024.6666666666665,107.76472303206997,1027.0833333333333,107.74795918367347,1029.5,107.73119533527696C1031.9166666666667,107.71443148688047,1034.3333333333333,107.69766763848398,1036.75,107.68090379008747C1039.1666666666667,107.66413994169096,1041.5833333333333,107.64737609329447,1044,107.63061224489796C1046.4166666666667,107.61384839650145,1048.8333333333333,107.59708454810496,1051.25,107.58032069970845C1053.6666666666667,107.56355685131194,1056.0833333333333,107.54679300291545,1058.5,107.53002915451896C1060.9166666666667,107.51326530612246,1063.3333333333333,107.49650145772596,1065.75,107.47973760932945C1068.1666666666667,107.46297376093294,1070.5833333333333,107.44620991253643,1073,107.42944606413994C1075.4166666666667,107.41268221574344,1077.8333333333333,107.39591836734695,1080.25,107.37915451895044C1082.6666666666667,107.36239067055394,1085.0833333333333,107.34562682215744,1087.5,107.32886297376093C1089.9166666666667,107.31209912536443,1092.3333333333333,107.29533527696793,1094.75,107.27857142857142C1097.1666666666667,107.26180758017492,1099.5833333333333,107.24504373177842,1102,107.22827988338193C1104.4166666666667,107.21151603498544,1106.8333333333333,107.19475218658893,1109.25,107.17798833819242C1111.6666666666667,107.16122448979591,1114.0833333333333,107.1444606413994,1116.5,107.12769679300291C1118.9166666666667,107.11093294460642,1121.3333333333333,107.09416909620992,1123.75,107.07740524781342C1126.1666666666667,107.06064139941691,1128.5833333333333,107.04387755102042,1131,107.02711370262391C1133.4166666666667,107.0103498542274,1135.8333333333333,106.9935860058309,1138.25,106.9768221574344C1140.6666666666667,106.96005830903789,1143.0833333333333,106.9432944606414,1145.5,106.9265306122449C1147.9166666666667,106.90976676384841,1150.3333333333333,106.8930029154519,1152.75,106.8762390670554C1155.1666666666667,106.85947521865889,1157.5833333333333,106.84271137026238,1160,106.82594752186588C1162.4166666666667,106.80918367346939,1164.8333333333333,106.7924198250729,1167.25,106.77565597667639C1169.6666666666667,106.75889212827988,1172.0833333333333,106.74212827988339,1174.5,106.72536443148688C1176.9166666666667,106.70860058309037,1179.3333333333333,106.69183673469388,1181.75,106.67507288629737C1184.1666666666667,106.65830903790086,1186.5833333333333,106.64154518950437,1189,106.62478134110788C1191.4166666666667,106.60801749271138,1193.8333333333333,106.59125364431488,1196.25,106.57448979591837C1198.6666666666667,106.55772594752186,1201.0833333333333,106.54096209912535,1203.5,106.52419825072886C1205.9166666666667,106.50743440233236,1208.3333333333333,106.49067055393587,1210.75,106.47390670553936C1213.1666666666667,106.45714285714286,1215.5833333333333,106.44037900874636,1218,106.42361516034985C1220.4166666666667,106.40685131195335,1222.8333333333333,106.39008746355685,1225.25,106.37332361516034C1227.6666666666667,106.35655976676384,1230.0833333333333,106.33979591836734,1232.5,106.32303206997085C1234.9166666666667,106.30626822157436,1237.3333333333333,106.28950437317785,1239.75,106.27274052478134C1242.1666666666667,106.25597667638483,1244.5833333333333,106.23921282798833,1247,106.22244897959183C1249.4166666666667,106.20568513119534,1251.8333333333333,106.18892128279884,1254.25,106.17215743440234C1256.6666666666667,106.15539358600583,1259.0833333333333,106.13862973760934,1261.5,106.12186588921283C1263.9166666666667,106.10510204081632,1266.3333333333333,106.08833819241983,1268.75,106.07157434402332C1271.1666666666667,106.05481049562681,1273.5833333333333,106.03804664723032,1276,106.02128279883382C1278.4166666666667,106.00451895043733,1280.8333333333333,105.98775510204082,1283.25,105.97099125364431C1285.6666666666667,105.9542274052478,1288.0833333333333,105.9374635568513,1290.5,105.9206997084548C1292.9166666666667,105.90393586005831,1295.3333333333333,105.88717201166182,1297.75,105.87040816326531C1300.1666666666667,105.8536443148688,1302.5833333333333,105.83688046647231,1305,105.8201166180758C1307.4166666666667,105.8033527696793,1309.8333333333333,105.7865889212828,1312.25,105.76982507288629C1314.6666666666667,105.75306122448978,1317.0833333333333,105.73629737609329,1319.5,105.7195335276968C1321.9166666666667,105.7027696793003,1324.3333333333333,105.6860058309038,1326.75,105.66924198250729C1329.1666666666667,105.65247813411078,1331.5833333333333,105.63571428571427,1334,105.61895043731778C1336.4166666666667,105.60218658892128,1338.8333333333333,105.58542274052479,1341.25,105.56865889212828C1343.6666666666667,105.55189504373178,1346.0833333333333,105.53513119533528,1348.5,105.51836734693877C1350.9166666666667,105.50160349854227,1353.3333333333333,105.48483965014577,1355.75,105.46807580174926C1358.1666666666667,105.45131195335276,1360.5833333333333,105.43454810495626,1363,105.41778425655977C1365.4166666666667,105.40102040816328,1367.8333333333333,105.38425655976677,1370.25,105.36749271137026C1372.6666666666667,105.35072886297375,1375.0833333333333,105.33396501457725,1377.5,105.31720116618075C1379.9166666666667,105.30043731778426,1382.3333333333333,105.28367346938776,1384.75,105.26690962099126C1387.1666666666667,105.25014577259475,1389.5833333333333,105.23338192419826,1392,105.21661807580175C1394.4166666666667,105.19985422740524,1396.8333333333333,105.18309037900875,1399.25,105.16632653061224C1401.6666666666667,105.14956268221573,1404.0833333333333,105.13279883381924,1406.5,105.11603498542274C1408.9166666666667,105.09927113702625,1411.3333333333333,105.08250728862974,1413.75,105.06574344023323C1416.1666666666667,105.04897959183673,1418.5833333333333,105.03221574344022,1421,105.01545189504373C1423.4166666666667,104.99868804664723,1425.8333333333333,104.98192419825074,1428.25,104.96516034985423C1430.6666666666667,104.94839650145772,1433.0833333333333,104.93163265306123,1435.5,104.91486880466472C1437.9166666666667,104.89810495626821,1440.3333333333333,104.88134110787172,1442.75,104.86457725947521C1445.1666666666667,104.8478134110787,1447.5833333333333,104.83104956268221,1450,104.81428571428572" fill="transparent" stroke-linecap="round" stroke="#B6509E" stroke-width="2"></path><path class="visx-linepath" d="M0,114.67142857131357C2.4166666666666665,114.65226190469483,4.833333333333334,114.63309523807607,7.25,114.61392857142857C9.666666666666666,114.59476190478108,12.083333333333334,114.57559523809523,14.5,114.55642857142857C16.916666666666668,114.5372619047619,19.333333333333332,114.51809523809524,21.75,114.49892857142858C24.166666666666668,114.47976190476192,26.583333333333332,114.47976190476192,29,114.44142857142857C31.416666666666668,114.40309523809523,33.833333333333336,114.10615160349855,36.25,113.93851311953354C38.666666666666664,113.77087463556853,41.083333333333336,113.60323615160351,43.5,113.43559766763849C45.91666666666667,113.26795918367347,48.333333333333336,113.10032069970846,50.75000000000001,112.93268221574344C53.16666666666667,112.76504373177843,55.583333333333336,112.59740524781341,58,112.4297667638484C60.416666666666664,112.26212827988338,62.833333333333336,112.09448979591838,65.25,111.92685131195336C67.66666666666667,111.75921282798834,70.08333333333333,111.59157434402331,72.5,111.42393586005831C74.91666666666667,111.2562973760933,77.33333333333333,111.08865889212828,79.75,110.92102040816327C82.16666666666667,110.75338192419827,84.58333333333333,110.58574344023324,87,110.41810495626822C89.41666666666667,110.2504664723032,91.83333333333333,110.08282798833818,94.25,109.91518950437317C96.66666666666667,109.74755102040815,99.08333333333334,109.57991253644316,101.50000000000001,109.41227405247814C103.91666666666667,109.24463556851313,106.33333333333334,109.07699708454811,108.75,108.90935860058309C111.16666666666667,108.74172011661807,113.58333333333333,108.57408163265305,116,108.40644314868804C118.41666666666667,108.23880466472302,120.83333333333334,108.07116618075803,123.25000000000001,107.903527696793C125.66666666666667,107.735889212828,128.08333333333334,107.56825072886298,130.5,107.40061224489796C132.91666666666666,107.23297376093294,135.33333333333334,107.06533527696791,137.75,106.89769679300291C140.16666666666666,106.7300583090379,142.58333333333334,106.56241982507288,145,106.39478134110787C147.41666666666666,106.22714285714287,149.83333333333334,106.05950437317784,152.25,105.89186588921282C154.66666666666666,105.7242274052478,157.08333333333334,105.55658892128278,159.5,105.38895043731777C161.91666666666666,105.22131195335277,164.33333333333334,105.05367346938775,166.75,104.88603498542274C169.16666666666666,104.71839650145773,171.58333333333334,104.55075801749271,174,104.3831195335277C176.41666666666666,104.2154810495627,178.83333333333334,104.04784256559768,181.25,103.88020408163266C183.66666666666666,103.71256559766763,186.08333333333334,103.54492711370264,188.5,103.37728862973762C190.91666666666666,103.2096501457726,193.33333333333334,103.04201166180759,195.75,102.87437317784257C198.16666666666669,102.70673469387755,200.58333333333334,102.53909620991254,203.00000000000003,102.37145772594752C205.41666666666669,102.20381924198252,207.83333333333331,102.0361807580175,210.24999999999997,101.86854227405249C212.66666666666666,101.70090379008747,215.08333333333331,101.53326530612246,217.5,101.36562682215744C219.91666666666666,101.19798833819242,222.33333333333334,101.03034985422741,224.75,100.86271137026239C227.16666666666666,100.69507288629737,229.58333333333334,100.52743440233237,232,100.35979591836735C234.41666666666666,100.19215743440233,236.83333333333334,100.02451895043733,239.25,99.8568804664723C241.66666666666669,99.68924198250728,244.08333333333334,99.52160349854228,246.50000000000003,99.35396501457726C248.91666666666669,99.18632653061225,251.33333333333331,99.01868804664723,253.74999999999997,98.85104956268222C256.16666666666663,98.6834110787172,258.5833333333333,98.51577259475219,261,98.34813411078717C263.4166666666667,98.18049562682215,265.8333333333333,98.01285714285714,268.25,97.84521865889212C270.6666666666667,97.6775801749271,273.0833333333333,97.50994169096211,275.5,97.34230320699709C277.9166666666667,97.17466472303207,280.3333333333333,97.00702623906706,282.75,96.83938775510204C285.1666666666667,96.67174927113702,287.5833333333333,96.50411078717201,290,96.33647230320699C292.4166666666667,96.16883381924197,294.8333333333333,96.00119533527698,297.25,95.83355685131195C299.6666666666667,95.66591836734693,302.0833333333333,95.49827988338191,304.5,95.3306413994169C306.9166666666667,95.1630029154519,309.3333333333333,94.99536443148688,311.75,94.82772594752187C314.1666666666667,94.66008746355686,316.5833333333333,94.49244897959184,319,94.32481049562683C321.4166666666667,94.15717201166183,323.8333333333333,93.9895335276968,326.25,93.82189504373179C328.6666666666667,93.65425655976676,331.0833333333333,93.48661807580174,333.5,93.31897959183674C335.9166666666667,93.15134110787173,338.3333333333333,92.98370262390671,340.75,92.8160641399417C343.1666666666667,92.6484256559767,345.5833333333333,92.48078717201167,348,92.31314868804665C350.4166666666667,92.14551020408163,352.8333333333333,91.97787172011662,355.25,91.8102332361516C357.6666666666667,91.64259475218658,360.0833333333333,91.47495626822158,362.5,91.30731778425655C364.9166666666667,91.13967930029153,367.3333333333333,90.97204081632654,369.75,90.80440233236152C372.1666666666667,90.6367638483965,374.5833333333333,90.46912536443148,377,90.30148688046647C379.4166666666667,90.13384839650146,381.8333333333333,89.96620991253644,384.25,89.79857142857144C386.6666666666667,89.63093294460643,389.0833333333333,89.46329446064141,391.5,89.29565597667639C393.9166666666667,89.12801749271136,396.33333333333337,88.96037900874636,398.75000000000006,88.79274052478134C401.16666666666674,88.62510204081633,403.58333333333337,88.45746355685132,406.00000000000006,88.2898250728863C408.4166666666667,88.1221865889213,410.8333333333333,87.95454810495627,413.24999999999994,87.78690962099125C415.66666666666663,87.61927113702623,418.08333333333326,87.45163265306122,420.49999999999994,87.2839941690962C422.91666666666663,87.11635568513118,425.3333333333333,86.94871720116618,427.75,86.78107871720115C430.1666666666667,86.61344023323615,432.5833333333333,86.44580174927113,435,86.27816326530612C437.4166666666667,86.11052478134111,439.8333333333333,85.9428862973761,442.25,85.77524781341108C444.6666666666667,85.60760932944606,447.0833333333333,85.43997084548104,449.5,85.27233236151604C451.9166666666667,85.10469387755103,454.3333333333333,84.93705539358601,456.75,84.769416909621C459.1666666666667,84.601778425656,461.5833333333333,84.43413994169097,464,84.26650145772595C466.4166666666667,84.09886297376093,468.8333333333333,83.93122448979594,471.25,83.76358600583092C473.6666666666667,83.5959475218659,476.0833333333333,83.42830903790087,478.5,83.26067055393585C480.9166666666667,83.09303206997083,483.33333333333337,82.92539358600582,485.75000000000006,82.75775510204082C488.16666666666674,82.59011661807581,490.58333333333337,82.4224781341108,493.00000000000006,82.25483965014578C495.4166666666667,82.08720116618076,497.8333333333333,81.91956268221574,500.24999999999994,81.75192419825072C502.66666666666663,81.5842857142857,505.08333333333326,81.41664723032069,507.49999999999994,81.24900874635568C509.91666666666663,81.08137026239066,512.3333333333333,80.91373177842566,514.75,80.74609329446064C517.1666666666666,80.57845481049561,519.5833333333334,80.41081632653061,522,80.24317784256559C524.4166666666666,80.07553935860057,526.8333333333334,79.90790087463556,529.25,79.74026239067055C531.6666666666666,79.57262390670554,534.0833333333334,79.40498542274054,536.5,79.23734693877552C538.9166666666666,79.0697084548105,541.3333333333334,78.90206997084547,543.75,78.73443148688045C546.1666666666666,78.56679300291543,548.5833333333334,78.39915451895043,551,78.23151603498542C553.4166666666666,78.06387755102041,555.8333333333334,77.8962390670554,558.25,77.72860058309038C560.6666666666666,77.56096209912536,563.0833333333334,77.39332361516034,565.5,77.22568513119532C567.9166666666666,77.0580466472303,570.3333333333334,76.89040816326529,572.75,76.72276967930028C575.1666666666666,76.55513119533528,577.5833333333334,76.38749271137027,580,76.21985422740525C582.4166666666666,76.05221574344023,584.8333333333334,75.88457725947521,587.25,75.7169387755102C589.6666666666666,75.5493002915452,592.0833333333334,75.38166180758017,594.5,75.21402332361517C596.9166666666666,75.04638483965016,599.3333333333334,74.87874635568514,601.75,74.71110787172013C604.1666666666666,74.54346938775512,606.5833333333334,74.3758309037901,609,74.20819241982508C611.4166666666666,74.04055393586006,613.8333333333334,73.87291545189504,616.25,73.70527696793003C618.6666666666666,73.53763848396503,621.0833333333334,73.37,623.5,73.202361516035C625.9166666666666,73.03472303206999,628.3333333333334,72.86708454810497,630.75,72.69944606413995C633.1666666666666,72.53180758017493,635.5833333333334,72.3641690962099,638,72.1965306122449C640.4166666666666,72.02889212827989,642.8333333333334,71.86125364431487,645.25,71.69361516034986C647.6666666666666,71.52597667638486,650.0833333333334,71.35833819241984,652.5,71.19069970845482C654.9166666666666,71.0230612244898,657.3333333333334,70.85542274052477,659.75,70.68778425655977C662.1666666666666,70.52014577259476,664.5833333333334,70.35250728862974,667,70.18486880466473C669.4166666666666,70.01723032069972,671.8333333333334,69.8495918367347,674.25,69.68195335276968C676.6666666666666,69.51431486880466,679.0833333333334,69.34667638483965,681.5,69.17903790087463C683.9166666666666,69.01139941690961,686.3333333333334,68.8437609329446,688.75,68.67612244897958C691.1666666666666,68.50848396501456,693.5833333333334,68.34084548104954,696,68.17320699708453C698.4166666666666,68.00556851311953,700.8333333333334,67.8379300291545,703.25,67.6702915451895C705.6666666666666,67.50265306122449,708.0833333333334,67.33501457725947,710.5,67.16737609329445C712.9166666666666,66.99973760932943,715.3333333333334,66.83209912536442,717.75,66.66446064139942C720.1666666666666,66.49682215743441,722.5833333333334,66.32918367346939,725,66.16154518950438C727.4166666666666,65.99390670553937,729.8333333333334,65.82626822157437,732.25,65.65862973760935C734.6666666666666,65.49099125364432,737.0833333333334,65.3233527696793,739.5,65.15571428571428C741.9166666666666,64.98807580174926,744.3333333333334,64.82043731778425,746.75,64.65279883381925C749.1666666666666,64.48516034985424,751.5833333333334,64.31752186588923,754,64.14988338192421C756.4166666666666,63.9822448979592,758.8333333333334,63.81460641399416,761.25,63.64696793002915C763.6666666666666,63.479329446064135,766.0833333333334,63.31169096209913,768.5,63.144052478134114C770.9166666666666,62.9764139941691,773.3333333333334,62.80877551020408,775.75,62.641137026239065C778.1666666666666,62.47349854227405,780.5833333333334,62.305860058309044,783,62.13822157434403C785.4166666666667,61.970583090379016,787.8333333333334,61.802944606414,790.2500000000001,61.63530612244898C792.6666666666667,61.46766763848397,795.0833333333335,61.300029154518946,797.5000000000001,61.13239067055393C799.9166666666667,60.96475218658892,802.3333333333335,60.797113702623896,804.7500000000001,60.62947521865888C807.1666666666667,60.46183673469387,809.5833333333335,60.29419825072886,812.0000000000001,60.12655976676385C814.4166666666667,59.95892128279884,816.8333333333333,59.79128279883383,819.2499999999999,59.62364431486881C821.6666666666665,59.45600583090379,824.0833333333333,59.28836734693877,826.4999999999999,59.120728862973756C828.9166666666665,58.95309037900874,831.3333333333333,58.785451895043735,833.7499999999999,58.61781341107872C836.1666666666665,58.45017492711371,838.5833333333333,58.282536443148686,840.9999999999999,58.11489795918367C843.4166666666666,57.94725947521866,845.8333333333333,57.77962099125365,848.25,57.61198250728864C850.6666666666666,57.44434402332362,853.0833333333334,57.2767055393586,855.5,57.10906705539359C857.9166666666666,56.941428571428574,860.3333333333334,56.77379008746355,862.75,56.60615160349854C865.1666666666666,56.438513119533525,867.5833333333334,56.270874635568504,870,56.10323615160349C872.4166666666666,55.935597667638476,874.8333333333334,55.76795918367347,877.25,55.600320699708455C879.6666666666666,55.43268221574344,882.0833333333334,55.265043731778434,884.5,55.09740524781342C886.9166666666666,54.929766763848406,889.3333333333334,54.762128279883385,891.75,54.59448979591837C894.1666666666666,54.42685131195336,896.5833333333334,54.25921282798834,899,54.09157434402333C901.4166666666666,53.923935860058315,903.8333333333334,53.75629737609329,906.25,53.58865889212828C908.6666666666666,53.421020408163265,911.0833333333334,53.253381924198244,913.5,53.08574344023323C915.9166666666666,52.918104956268216,918.3333333333334,52.75046647230321,920.75,52.582827988338195C923.1666666666666,52.41518950437318,925.5833333333334,52.24755102040816,928,52.079912536443146C930.4166666666666,51.91227405247813,932.8333333333334,51.744635568513125,935.25,51.57699708454811C937.6666666666666,51.4093586005831,940.0833333333334,51.241720116618076,942.5,51.07408163265306C944.9166666666666,50.90644314868805,947.3333333333334,50.73880466472303,949.75,50.57116618075801C952.1666666666666,50.403527696793,954.5833333333334,50.23588921282799,957,50.06825072886298C959.4166666666666,49.900612244897964,961.8333333333334,49.73297376093294,964.25,49.56533527696793C966.6666666666667,49.397696793002915,969.0833333333334,49.2300583090379,971.5000000000001,49.06241982507289C973.9166666666667,48.89478134110787,976.3333333333335,48.727142857142866,978.7500000000001,48.55950437317785C981.1666666666667,48.39186588921284,983.5833333333335,48.2242274052478,986.0000000000001,48.05658892128279C988.4166666666667,47.888950437317774,990.8333333333335,47.72131195335277,993.2500000000001,47.55367346938775C995.6666666666667,47.38603498542275,998.0833333333333,47.21839650145773,1000.4999999999999,47.05075801749272C1002.9166666666665,46.883119533527704,1005.3333333333333,46.71548104956268,1007.7499999999999,46.54784256559767C1010.1666666666665,46.380204081632655,1012.5833333333333,46.212565597667634,1014.9999999999999,46.04492711370262C1017.4166666666665,45.877288629737606,1019.8333333333333,45.709650145772585,1022.2499999999999,45.54201166180757C1024.6666666666665,45.37437317784256,1027.0833333333333,45.20673469387755,1029.5,45.039096209912536C1031.9166666666667,44.87145772594752,1034.3333333333333,44.70381924198251,1036.75,44.536180758017494C1039.1666666666667,44.36854227405248,1041.5833333333333,44.20090379008747,1044,44.03326530612246C1046.4166666666667,43.865626822157445,1048.8333333333333,43.697988338192424,1051.25,43.53034985422741C1053.6666666666667,43.362711370262396,1056.0833333333333,43.195072886297375,1058.5,43.02743440233236C1060.9166666666667,42.85979591836735,1063.3333333333333,42.69215743440234,1065.75,42.524518950437326C1068.1666666666667,42.35688046647231,1070.5833333333333,42.18924198250729,1073,42.02160349854228C1075.4166666666667,41.85396501457726,1077.8333333333333,41.68632653061224,1080.25,41.51868804664723C1082.6666666666667,41.35104956268221,1085.0833333333333,41.18341107871719,1087.5,41.01577259475218C1089.9166666666667,40.848134110787164,1092.3333333333333,40.68049562682216,1094.75,40.51285714285714C1097.1666666666667,40.34521865889213,1099.5833333333333,40.17758017492712,1102,40.00994169096211C1104.4166666666667,39.842303206997094,1106.8333333333333,39.67466472303208,1109.25,39.507026239067066C1111.6666666666667,39.33938775510205,1114.0833333333333,39.17174927113703,1116.5,39.00411078717202C1118.9166666666667,38.836472303207,1121.3333333333333,38.66883381924198,1123.75,38.50119533527697C1126.1666666666667,38.333556851311954,1128.5833333333333,38.16591836734695,1131,37.99827988338193C1133.4166666666667,37.83064139941692,1135.8333333333333,37.6630029154519,1138.25,37.495364431486884C1140.6666666666667,37.32772594752187,1143.0833333333333,37.16008746355686,1145.5,36.99244897959185C1147.9166666666667,36.824810495626835,1150.3333333333333,36.657172011661814,1152.75,36.4895335276968C1155.1666666666667,36.321895043731786,1157.5833333333333,36.154256559766765,1160,35.98661807580175C1162.4166666666667,35.81897959183674,1164.8333333333333,35.65134110787173,1167.25,35.483702623906716C1169.6666666666667,35.3160641399417,1172.0833333333333,35.14842565597668,1174.5,34.98078717201167C1176.9166666666667,34.81314868804665,1179.3333333333333,34.645510204081646,1181.75,34.477871720116624C1184.1666666666667,34.3102332361516,1186.5833333333333,34.142594752186575,1189,33.97495626822156C1191.4166666666667,33.80731778425655,1193.8333333333333,33.63967930029155,1196.25,33.47204081632654C1198.6666666666667,33.30440233236153,1201.0833333333333,33.13676384839652,1203.5,32.969125364431505C1205.9166666666667,32.80148688046649,1208.3333333333333,32.63384839650148,1210.75,32.466209912536456C1213.1666666666667,32.298571428571435,1215.5833333333333,32.130932944606414,1218,31.963294460641396C1220.4166666666667,31.79565597667638,1222.8333333333333,31.628017492711365,1225.25,31.460379008746347C1227.6666666666667,31.29274052478133,1230.0833333333333,31.125102040816312,1232.5,30.957463556851298C1234.9166666666667,30.789825072886284,1237.3333333333333,30.622186588921277,1239.75,30.454548104956263C1242.1666666666667,30.28690962099125,1244.5833333333333,30.11927113702623,1247,29.951632653061218C1249.4166666666667,29.783994169096204,1251.8333333333333,29.616355685131193,1254.25,29.44871720116618C1256.6666666666667,29.281078717201165,1259.0833333333333,29.113440233236147,1261.5,28.945801749271133C1263.9166666666667,28.77816326530612,1266.3333333333333,28.6105247813411,1268.75,28.442886297376084C1271.1666666666667,28.27524781341107,1273.5833333333333,28.107609329446063,1276,27.93997084548105C1278.4166666666667,27.772332361516035,1280.8333333333333,27.604693877551014,1283.25,27.437055393586C1285.6666666666667,27.269416909620986,1288.0833333333333,27.10177842565597,1290.5,26.934139941690955C1292.9166666666667,26.76650145772594,1295.3333333333333,26.598862973760934,1297.75,26.43122448979592C1300.1666666666667,26.263586005830906,1302.5833333333333,26.095947521865885,1305,25.92830903790087C1307.4166666666667,25.760670553935856,1309.8333333333333,25.59303206997085,1312.25,25.425393586005836C1314.6666666666667,25.25775510204082,1317.0833333333333,25.090116618075804,1319.5,24.922478134110786C1321.9166666666667,24.75483965014577,1324.3333333333333,24.587201166180755,1326.75,24.41956268221574C1329.1666666666667,24.251924198250727,1331.5833333333333,24.08428571428571,1334,23.91664723032069C1336.4166666666667,23.749008746355674,1338.8333333333333,23.581370262390656,1341.25,23.413731778425642C1343.6666666666667,23.24609329446063,1346.0833333333333,23.078454810495618,1348.5,22.910816326530608C1350.9166666666667,22.743177842565597,1353.3333333333333,22.575539358600587,1355.75,22.407900874635573C1358.1666666666667,22.24026239067056,1360.5833333333333,22.072623906705545,1363,21.904985422740527C1365.4166666666667,21.73734693877551,1367.8333333333333,21.569708454810495,1370.25,21.402069970845478C1372.6666666666667,21.23443148688046,1375.0833333333333,21.066793002915443,1377.5,20.89915451895043C1379.9166666666667,20.731516034985415,1382.3333333333333,20.563877551020408,1384.75,20.396239067055394C1387.1666666666667,20.22860058309038,1389.5833333333333,20.060962099125362,1392,19.893323615160348C1394.4166666666667,19.725685131195334,1396.8333333333333,19.558046647230327,1399.25,19.390408163265313C1401.6666666666667,19.2227696793003,1404.0833333333333,19.05513119533528,1406.5,18.887492711370264C1408.9166666666667,18.719854227405246,1411.3333333333333,18.55221574344023,1413.75,18.384577259475215C1416.1666666666667,18.2169387755102,1418.5833333333333,18.049300291545194,1421,17.88166180758018C1423.4166666666667,17.714023323615166,1425.8333333333333,17.546384839650145,1428.25,17.37874635568513C1430.6666666666667,17.211107871720117,1433.0833333333333,17.043469387755103,1435.5,16.875830903790085C1437.9166666666667,16.708192419825068,1440.3333333333333,16.54055393586005,1442.75,16.372915451895036C1445.1666666666667,16.205276967930022,1447.5833333333333,16.03763848396501,1450,15.870000000000001" fill="transparent" stroke-linecap="round" stroke="#E7C6DF" stroke-width="2"></path><g class="visx-group visx-axis visx-axis-bottom" transform="translate(0, 115)"><g class="visx-group visx-axis-tick" transform="translate(0, 0)"><line class="visx-line" x1="0" y1="0" x2="0" y2="8" fill="transparent" shape-rendering="crispEdges" stroke="#000" stroke-width="0" stroke-linecap="square"></line><svg x="0" y="0" font-size="10" style="overflow:visible"><text transform="" x="0" y="18" fill="#000" font-size="10" text-anchor="middle"><tspan x="0" dy="0em">0%</tspan></text></svg></g><g class="visx-group visx-axis-tick" transform="translate(0, 0)"><line class="visx-line" x1="362.5" y1="0" x2="362.5" y2="8" fill="transparent" shape-rendering="crispEdges" stroke="#000" stroke-width="0" stroke-linecap="square"></line><svg x="0" y="0" font-size="10" style="overflow:visible"><text transform="" x="362.5" y="18" fill="#000" font-size="10" text-anchor="middle"><tspan x="362.5" dy="0em">25%</tspan></text></svg></g><g class="visx-group visx-axis-tick" transform="translate(0, 0)"><line class="visx-line" x1="725" y1="0" x2="725" y2="8" fill="transparent" shape-rendering="crispEdges" stroke="#000" stroke-width="0" stroke-linecap="square"></line><svg x="0" y="0" font-size="10" style="overflow:visible"><text transform="" x="725" y="18" fill="#000" font-size="10" text-anchor="middle"><tspan x="725" dy="0em">50%</tspan></text></svg></g><g class="visx-group visx-axis-tick" transform="translate(0, 0)"><line class="visx-line" x1="1087.5" y1="0" x2="1087.5" y2="8" fill="transparent" shape-rendering="crispEdges" stroke="#000" stroke-width="0" stroke-linecap="square"></line><svg x="0" y="0" font-size="10" style="overflow:visible"><text transform="" x="1087.5" y="18" fill="#000" font-size="10" text-anchor="middle"><tspan x="1087.5" dy="0em">75%</tspan></text></svg></g><g class="visx-group visx-axis-tick" transform="translate(0, 0)"><line class="visx-line" x1="1450" y1="0" x2="1450" y2="8" fill="transparent" shape-rendering="crispEdges" stroke="#000" stroke-width="0" stroke-linecap="square"></line><svg x="0" y="0" font-size="10" style="overflow:visible"><text transform="" x="1450" y="18" fill="#000" font-size="10" text-anchor="middle"><tspan x="1450" dy="0em">100%</tspan></text></svg></g><line class="visx-line visx-axis-line" x1="0.5" y1="0" x2="1450.5" y2="0" fill="transparent" shape-rendering="crispEdges" stroke="#222" stroke-width="0"></line></g><g class="visx-group visx-axis visx-axis-left" transform="translate(0, 0)"><g class="visx-group visx-axis-tick" transform="translate(0, 0)"><line class="visx-line" x1="0" y1="115" x2="-8" y2="115" fill="transparent" shape-rendering="crispEdges" stroke="#222" stroke-width="0" stroke-linecap="square"></line><svg x="-30" y="0" font-size="8" style="overflow:visible"><text transform="" x="-8" y="115" fill="#000" font-size="8" text-anchor="start"><tspan x="-8" dy="0em">0%</tspan></text></svg></g><g class="visx-group visx-axis-tick" transform="translate(0, 0)"><line class="visx-line" x1="0" y1="49.28571428571429" x2="-8" y2="49.28571428571429" fill="transparent" shape-rendering="crispEdges" stroke="#222" stroke-width="0" stroke-linecap="square"></line><svg x="-30" y="0" font-size="8" style="overflow:visible"><text transform="" x="-8" y="49.28571428571429" fill="#000" font-size="8" text-anchor="start"><tspan x="-8" dy="0em">2000%</tspan></text></svg></g><line class="visx-line visx-axis-line" x1="0" y1="115.5" x2="0" y2="0.5" fill="transparent" shape-rendering="crispEdges" stroke="#222" stroke-width="0"></line></g><rect class="visx-bar" width="1450" height="115" fill="transparent"></rect><line class="visx-line" x1="29" y1="28" x2="29" y2="115" fill="transparent" shape-rendering="crispEdges" stroke="#0062D2" stroke-width="1" pointer-events="none" stroke-dasharray="5,2"></line><svg x="0" y="0" font-size="10px" style="overflow:visible"><text transform="" x="29" y="20" font-size="10px" fill="#fff" stroke="#fff" stroke-width="0.8em" text-anchor="middle"><tspan x="29" dy="0.355em">Optimal 2%</tspan></text></svg><svg x="0" y="0" font-size="10px" style="overflow:visible"><text transform="" x="29" y="20" font-size="10px" fill="#62677B" text-anchor="middle"><tspan x="29" dy="0.355em">Optimal 2%</tspan></text></svg></g></svg>