<?xml version="1.0"?><svg xmlns="http://www.w3.org/2000/svg" xmlns:xlink= "http://www.w3.org/1999/xlink" style="background: white;" width="1500" height="185"> <g style="color: black; font-size: 13px; font-family: sans-serif; transform: translate(18px, 25px);"><g><circle r="3" cx="-6" cy="-5" style="fill: #B6509E" /><text>Borrow APR, variable</text></g><g style="transform: translateX(150px);"><circle r="3" cx="-6" cy="-5" style="fill: rgb(231, 198, 223)" /><text>Borrow APR, stable</text></g><g style="transform: translateX(290px);"><circle r="3" cx="-6" cy="-5" style="fill: rgb(0, 98, 210)" /><text>Utilization Rate</text></g></g><g class="visx-group" transform="translate(40, 50)"><g class="visx-group visx-rows" transform="translate(0, 0)"><line class="visx-line" x1="0" y1="115" x2="1450" y2="115" fill="transparent" shape-rendering="crispEdges" stroke="#000" stroke-width="1" stroke-dasharray="3,3" pointer-events="none"></line><line class="visx-line" x1="0" y1="57.5" x2="1450" y2="57.5" fill="transparent" shape-rendering="crispEdges" stroke="#000" stroke-width="1" stroke-dasharray="3,3" pointer-events="none"></line><line class="visx-line" x1="0" y1="0" x2="1450" y2="0" fill="transparent" shape-rendering="crispEdges" stroke="#000" stroke-width="1" stroke-dasharray="3,3" pointer-events="none"></line></g><path class="visx-linepath" d="M0,113.84999999994538C2.4166666666666665,113.84089583330147,4.833333333333334,113.83179166665757,7.25,113.8226875C9.666666666666666,113.81358333334244,12.083333333333334,113.80447916666665,14.5,113.79537499999999C16.916666666666668,113.78627083333333,19.333333333333332,113.77716666666666,21.75,113.7680625C24.166666666666668,113.75895833333334,26.583333333333332,113.74985416666667,29,113.74074999999999C31.416666666666668,113.73164583333332,33.833333333333336,113.72254166666666,36.25,113.7134375C38.666666666666664,113.70433333333334,41.083333333333336,113.69522916666666,43.5,113.686125C45.91666666666667,113.67702083333333,48.333333333333336,113.66791666666667,50.75000000000001,113.6588125C53.16666666666667,113.64970833333334,55.583333333333336,113.64060416666666,58,113.6315C60.416666666666664,113.62239583333333,62.833333333333336,113.61329166666667,65.25,113.6041875C67.66666666666667,113.59508333333332,70.08333333333333,113.58597916666668,72.5,113.576875C74.91666666666667,113.56777083333333,77.33333333333333,113.55866666666665,79.75,113.5495625C82.16666666666667,113.54045833333333,84.58333333333333,113.53135416666666,87,113.52225C89.41666666666667,113.51314583333334,91.83333333333333,113.50404166666665,94.25,113.49493749999999C96.66666666666667,113.48583333333332,99.08333333333334,113.47672916666667,101.50000000000001,113.467625C103.91666666666667,113.45852083333334,106.33333333333334,113.44941666666665,108.75,113.44031249999999C111.16666666666667,113.43120833333332,113.58333333333333,113.42210416666666,116,113.413C118.41666666666667,113.40389583333332,120.83333333333334,113.39479166666666,123.25000000000001,113.38568749999999C125.66666666666667,113.37658333333333,128.08333333333334,113.36747916666666,130.5,113.358375C132.91666666666666,113.34927083333334,135.33333333333334,113.34016666666668,137.75,113.3310625C140.16666666666666,113.32195833333333,142.58333333333334,113.31285416666665,145,113.30375C147.41666666666666,113.29464583333333,149.83333333333334,113.28554166666666,152.25,113.2764375C154.66666666666666,113.26733333333334,157.08333333333334,113.25822916666667,159.5,113.24912499999999C161.91666666666666,113.24002083333332,164.33333333333334,113.23091666666667,166.75,113.2218125C169.16666666666666,113.21270833333332,171.58333333333334,113.20360416666665,174,113.19449999999999C176.41666666666666,113.18539583333333,178.83333333333334,113.17629166666666,181.25,113.1671875C183.66666666666666,113.15808333333334,186.08333333333334,113.14897916666666,188.5,113.13987499999999C190.91666666666666,113.13077083333332,193.33333333333334,113.12166666666666,195.75,113.1125625C198.16666666666669,113.10345833333332,200.58333333333334,113.09435416666665,203.00000000000003,113.08524999999999C205.41666666666669,113.07614583333333,207.83333333333331,113.06704166666667,210.24999999999997,113.05793750000001C212.66666666666666,113.04883333333333,215.08333333333331,113.03972916666666,217.5,113.03062499999999C219.91666666666666,113.02152083333333,222.33333333333334,113.01241666666667,224.75,113.0033125C227.16666666666666,112.99420833333335,229.58333333333334,112.98510416666667,232,112.976C234.41666666666666,112.96689583333333,236.83333333333334,112.95779166666667,239.25,112.9486875C241.66666666666669,112.93958333333335,244.08333333333334,112.93047916666669,246.50000000000003,112.92137500000001C248.91666666666669,112.91227083333335,251.33333333333331,112.90316666666666,253.74999999999997,112.8940625C256.16666666666663,112.88495833333333,258.5833333333333,112.87585416666668,261,112.86675000000001C263.4166666666667,112.85764583333335,265.8333333333333,112.84854166666668,268.25,112.8394375C270.6666666666667,112.83033333333333,273.0833333333333,112.82122916666668,275.5,112.81212500000001C277.9166666666667,112.80302083333333,280.3333333333333,112.79391666666666,282.75,112.7848125C285.1666666666667,112.77570833333334,287.5833333333333,112.76660416666667,290,112.75750000000001C292.4166666666667,112.74839583333335,294.8333333333333,112.73929166666667,297.25,112.7301875C299.6666666666667,112.72108333333333,302.0833333333333,112.71197916666668,304.5,112.702875C306.9166666666667,112.69377083333333,309.3333333333333,112.68466666666666,311.75,112.6755625C314.1666666666667,112.66645833333334,316.5833333333333,112.65735416666666,319,112.64825C321.4166666666667,112.63914583333334,323.8333333333333,112.63004166666667,326.25,112.6209375C328.6666666666667,112.61183333333332,331.0833333333333,112.60272916666666,333.5,112.593625C335.9166666666667,112.58452083333334,338.3333333333333,112.57541666666668,340.75,112.56631250000001C343.1666666666667,112.55720833333334,345.5833333333333,112.54810416666666,348,112.539C350.4166666666667,112.52989583333334,352.8333333333333,112.52079166666667,355.25,112.51168750000001C357.6666666666667,112.50258333333335,360.0833333333333,112.49347916666667,362.5,112.484375C364.9166666666667,112.47527083333333,367.3333333333333,112.46616666666668,369.75,112.4570625C372.1666666666667,112.44795833333333,374.5833333333333,112.43885416666666,377,112.42975C379.4166666666667,112.42064583333334,381.8333333333333,112.41154166666666,384.25,112.4024375C386.6666666666667,112.39333333333335,389.0833333333333,112.38422916666666,391.5,112.375125C393.9166666666667,112.36602083333332,396.33333333333337,112.35691666666668,398.75000000000006,112.3478125C401.16666666666674,112.33870833333334,403.58333333333337,112.32960416666667,406.00000000000006,112.3205C408.4166666666667,112.31139583333334,410.8333333333333,112.30229166666666,413.24999999999994,112.2931875C415.66666666666663,112.28408333333333,418.08333333333326,112.27497916666665,420.49999999999994,112.265875C422.91666666666663,112.25677083333332,425.3333333333333,112.24766666666666,427.75,112.2385625C430.1666666666667,112.22945833333334,432.5833333333333,112.22035416666668,435,112.21125C437.4166666666667,112.20214583333333,439.8333333333333,112.19304166666666,442.25,112.1839375C444.6666666666667,112.17483333333334,447.0833333333333,112.16572916666667,449.5,112.156625C451.9166666666667,112.14752083333335,454.3333333333333,112.13841666666667,456.75,112.1293125C459.1666666666667,112.12020833333332,461.5833333333333,112.11110416666668,464,112.102C466.4166666666667,112.09289583333333,468.8333333333333,112.08379166666666,471.25,112.0746875C473.6666666666667,112.06558333333334,476.0833333333333,112.05647916666666,478.5,112.047375C480.9166666666667,112.03827083333333,483.33333333333337,112.02916666666667,485.75000000000006,112.0200625C488.16666666666674,112.01095833333333,490.58333333333337,112.00185416666667,493.00000000000006,111.99275C495.4166666666667,111.98364583333334,497.8333333333333,111.97454166666665,500.24999999999994,111.9654375C502.66666666666663,111.95633333333332,505.08333333333326,111.94722916666666,507.49999999999994,111.938125C509.91666666666663,111.92902083333333,512.3333333333333,111.91991666666667,514.75,111.91081249999999C517.1666666666666,111.90170833333333,519.5833333333334,111.89260416666666,522,111.8835C524.4166666666666,111.87439583333334,526.8333333333334,111.86529166666668,529.25,111.8561875C531.6666666666666,111.84708333333333,534.0833333333334,111.83797916666666,536.5,111.828875C538.9166666666666,111.81977083333334,541.3333333333334,111.81066666666666,543.75,111.8015625C546.1666666666666,111.79245833333334,548.5833333333334,111.78335416666667,551,111.77425C553.4166666666666,111.76514583333332,555.8333333333334,111.75604166666668,558.25,111.7469375C560.6666666666666,111.73783333333333,563.0833333333334,111.72872916666665,565.5,111.719625C567.9166666666666,111.71052083333333,570.3333333333334,111.70141666666666,572.75,111.6923125C575.1666666666666,111.68320833333334,577.5833333333334,111.67410416666667,580,111.66499999999999C582.4166666666666,111.65589583333332,584.8333333333334,111.64679166666667,587.25,111.6376875C589.6666666666666,111.62858333333332,592.0833333333334,111.61947916666665,594.5,111.61037499999999C596.9166666666666,111.60127083333333,599.3333333333334,111.59216666666666,601.75,111.5830625C604.1666666666666,111.57395833333334,606.5833333333334,111.56485416666666,609,111.55575C611.4166666666666,111.54664583333334,613.8333333333334,111.53754166666667,616.25,111.5284375C618.6666666666666,111.51933333333332,621.0833333333334,111.51022916666668,623.5,111.501125C625.9166666666666,111.49202083333333,628.3333333333334,111.48291666666665,630.75,111.4738125C633.1666666666666,111.46470833333333,635.5833333333334,111.45560416666666,638,111.4465C640.4166666666666,111.43739583333334,642.8333333333334,111.42829166666667,645.25,111.41918749999999C647.6666666666666,111.41008333333332,650.0833333333334,111.40097916666667,652.5,111.391875C654.9166666666666,111.38277083333332,657.3333333333334,111.37366666666665,659.75,111.36456249999999C662.1666666666666,111.35545833333333,664.5833333333334,111.34635416666666,667,111.33725C669.4166666666666,111.32814583333334,671.8333333333334,111.31904166666666,674.25,111.30993749999999C676.6666666666666,111.30083333333332,679.0833333333334,111.29172916666667,681.5,111.282625C683.9166666666666,111.27352083333332,686.3333333333334,111.26441666666665,688.75,111.25531249999999C691.1666666666666,111.24620833333333,693.5833333333334,111.23710416666665,696,111.228C698.4166666666666,111.21889583333333,700.8333333333334,111.20979166666666,703.25,111.2006875C705.6666666666666,111.19158333333334,708.0833333333334,111.18247916666667,710.5,111.17337500000001C712.9166666666666,111.16427083333335,715.3333333333334,111.15516666666667,717.75,111.1460625C720.1666666666666,111.13695833333333,722.5833333333334,111.12785416666667,725,111.11875C727.4166666666666,111.10964583333335,729.8333333333334,111.10054166666669,732.25,111.09143750000001C734.6666666666666,111.08233333333334,737.0833333333334,111.07322916666666,739.5,111.064125C741.9166666666666,111.05502083333334,744.3333333333334,111.04591666666667,746.75,111.03681250000001C749.1666666666666,111.02770833333335,751.5833333333334,111.01860416666668,754,111.0095C756.4166666666666,111.00039583333333,758.8333333333334,110.99129166666668,761.25,110.98218750000001C763.6666666666666,110.97308333333334,766.0833333333334,110.96397916666666,768.5,110.954875C770.9166666666666,110.94577083333334,773.3333333333334,110.93666666666667,775.75,110.92756250000001C778.1666666666666,110.91845833333335,780.5833333333334,110.90935416666666,783,110.90025C785.4166666666667,110.89114583333333,787.8333333333334,110.88204166666668,790.2500000000001,110.8729375C792.6666666666667,110.86383333333335,795.0833333333335,110.85472916666666,797.5000000000001,110.845625C799.9166666666667,110.83652083333334,802.3333333333335,110.82741666666666,804.7500000000001,110.8183125C807.1666666666667,110.80920833333334,809.5833333333335,110.80010416666667,812.0000000000001,110.791C814.4166666666667,110.78189583333334,816.8333333333333,110.77279166666666,819.2499999999999,110.7636875C821.6666666666665,110.75458333333334,824.0833333333333,110.74547916666668,826.4999999999999,110.73637500000001C828.9166666666665,110.72727083333334,831.3333333333333,110.71816666666666,833.7499999999999,110.7090625C836.1666666666665,110.69995833333334,838.5833333333333,110.69085416666667,840.9999999999999,110.68175000000001C843.4166666666666,110.67264583333333,845.8333333333333,110.66354166666667,848.25,110.6544375C850.6666666666666,110.64533333333334,853.0833333333334,110.63622916666668,855.5,110.627125C857.9166666666666,110.61802083333333,860.3333333333334,110.60891666666666,862.75,110.5998125C865.1666666666666,110.59070833333334,867.5833333333334,110.58160416666666,870,110.5725C872.4166666666666,110.56339583333335,874.8333333333334,110.55429166666667,877.25,110.5451875C879.6666666666666,110.53608333333332,882.0833333333334,110.52697916666668,884.5,110.517875C886.9166666666666,110.50877083333333,889.3333333333334,110.49966666666666,891.75,110.4905625C894.1666666666666,110.48145833333334,896.5833333333334,110.47235416666666,899,110.46325C901.4166666666666,110.45414583333334,903.8333333333334,110.44504166666667,906.25,110.43593750000001C908.6666666666666,110.42683333333335,911.0833333333334,110.41772916666667,913.5,110.408625C915.9166666666666,110.39952083333333,918.3333333333334,110.39041666666668,920.75,110.3813125C923.1666666666666,110.37220833333333,925.5833333333334,110.36310416666666,928,110.354C930.4166666666666,110.34489583333334,932.8333333333334,110.33579166666667,935.25,110.3266875C937.6666666666666,110.31758333333335,940.0833333333334,110.30847916666667,942.5,110.299375C944.9166666666666,110.29027083333332,947.3333333333334,110.28116666666668,949.75,110.2720625C952.1666666666666,110.26295833333333,954.5833333333334,110.25385416666666,957,110.24475C959.4166666666666,110.23564583333334,961.8333333333334,110.22654166666666,964.25,110.2174375C966.6666666666667,110.20833333333333,969.0833333333334,110.19922916666667,971.5000000000001,110.190125C973.9166666666667,110.18102083333333,976.3333333333335,110.17191666666668,978.7500000000001,110.1628125C981.1666666666667,110.15370833333333,983.5833333333335,110.14460416666665,986.0000000000001,110.1355C988.4166666666667,110.12639583333333,990.8333333333335,110.11729166666666,993.2500000000001,110.1081875C995.6666666666667,110.09908333333334,998.0833333333333,110.08997916666667,1000.4999999999999,110.080875C1002.9166666666665,110.07177083333333,1005.3333333333333,110.06266666666667,1007.7499999999999,110.0535625C1010.1666666666665,110.04445833333332,1012.5833333333333,110.03535416666668,1014.9999999999999,110.02625C1017.4166666666665,110.01714583333333,1019.8333333333333,110.00804166666666,1022.2499999999999,109.9989375C1024.6666666666665,109.98983333333332,1027.0833333333333,109.98072916666668,1029.5,109.971625C1031.9166666666667,109.96252083333334,1034.3333333333333,109.95341666666667,1036.75,109.9443125C1039.1666666666667,109.93520833333332,1041.5833333333333,109.92610416666668,1044,109.917C1046.4166666666667,109.90789583333333,1048.8333333333333,109.89879166666665,1051.25,109.8896875C1053.6666666666667,109.88058333333333,1056.0833333333333,109.87147916666666,1058.5,109.862375C1060.9166666666667,109.85327083333334,1063.3333333333333,109.84416666666667,1065.75,109.83506249999999C1068.1666666666667,109.82595833333332,1070.5833333333333,109.81685416666667,1073,109.80775C1075.4166666666667,109.79864583333332,1077.8333333333333,109.78954166666665,1080.25,109.78043749999999C1082.6666666666667,109.77133333333333,1085.0833333333333,109.76222916666666,1087.5,109.753125C1089.9166666666667,109.74402083333334,1092.3333333333333,109.73491666666666,1094.75,109.7258125C1097.1666666666667,109.71670833333334,1099.5833333333333,109.70760416666667,1102,109.6985C1104.4166666666667,109.68939583333332,1106.8333333333333,109.68029166666668,1109.25,109.6711875C1111.6666666666667,109.66208333333333,1114.0833333333333,109.65297916666665,1116.5,109.643875C1118.9166666666667,109.63477083333333,1121.3333333333333,109.62566666666666,1123.75,109.6165625C1126.1666666666667,109.60745833333334,1128.5833333333333,109.59835416666667,1131,109.58924999999999C1133.4166666666667,109.58014583333332,1135.8333333333333,109.57104166666667,1138.25,109.5619375C1140.6666666666667,109.55283333333333,1143.0833333333333,109.54372916666665,1145.5,109.53462499999999C1147.9166666666667,109.52552083333333,1150.3333333333333,109.51641666666666,1152.75,109.5073125C1155.1666666666667,109.49820833333334,1157.5833333333333,109.49820833333332,1160,109.47999999999999C1162.4166666666667,109.46179166666666,1164.8333333333333,107.94666666666666,1167.25,107.17999999999999C1169.6666666666667,106.41333333333333,1172.0833333333333,105.64666666666668,1174.5,104.88000000000001C1176.9166666666667,104.11333333333334,1179.3333333333333,103.34666666666666,1181.75,102.58C1184.1666666666667,101.81333333333333,1186.5833333333333,101.04666666666667,1189,100.28C1191.4166666666667,99.51333333333334,1193.8333333333333,98.74666666666667,1196.25,97.98C1198.6666666666667,97.21333333333334,1201.0833333333333,96.44666666666666,1203.5,95.67999999999999C1205.9166666666667,94.91333333333333,1208.3333333333333,94.14666666666668,1210.75,93.38000000000001C1213.1666666666667,92.61333333333334,1215.5833333333333,91.84666666666666,1218,91.08C1220.4166666666667,90.31333333333333,1222.8333333333333,89.54666666666667,1225.25,88.78C1227.6666666666667,88.01333333333334,1230.0833333333333,87.24666666666667,1232.5,86.48C1234.9166666666667,85.71333333333334,1237.3333333333333,84.94666666666666,1239.75,84.17999999999999C1242.1666666666667,83.41333333333333,1244.5833333333333,82.64666666666666,1247,81.88C1249.4166666666667,81.11333333333333,1251.8333333333333,80.34666666666666,1254.25,79.58C1256.6666666666667,78.81333333333333,1259.0833333333333,78.04666666666665,1261.5,77.27999999999999C1263.9166666666667,76.51333333333332,1266.3333333333333,75.74666666666667,1268.75,74.98C1271.1666666666667,74.21333333333334,1273.5833333333333,73.44666666666667,1276,72.68C1278.4166666666667,71.91333333333334,1280.8333333333333,71.14666666666665,1283.25,70.37999999999998C1285.6666666666667,69.61333333333332,1288.0833333333333,68.84666666666668,1290.5,68.08000000000001C1292.9166666666667,67.31333333333335,1295.3333333333333,66.54666666666667,1297.75,65.78C1300.1666666666667,65.01333333333334,1302.5833333333333,64.24666666666666,1305,63.47999999999999C1307.4166666666667,62.713333333333324,1309.8333333333333,61.94666666666667,1312.25,61.18000000000001C1314.6666666666667,60.41333333333334,1317.0833333333333,59.64666666666667,1319.5,58.88C1321.9166666666667,58.11333333333334,1324.3333333333333,57.346666666666664,1326.75,56.58C1329.1666666666667,55.81333333333333,1331.5833333333333,55.04666666666666,1334,54.279999999999994C1336.4166666666667,53.51333333333333,1338.8333333333333,52.74666666666666,1341.25,51.98C1343.6666666666667,51.21333333333333,1346.0833333333333,50.44666666666667,1348.5,49.68000000000001C1350.9166666666667,48.91333333333334,1353.3333333333333,48.14666666666667,1355.75,47.38C1358.1666666666667,46.61333333333334,1360.5833333333333,45.846666666666664,1363,45.08C1365.4166666666667,44.31333333333333,1367.8333333333333,43.54666666666667,1370.25,42.78C1372.6666666666667,42.013333333333335,1375.0833333333333,41.24666666666666,1377.5,40.48C1379.9166666666667,39.71333333333333,1382.3333333333333,38.94666666666667,1384.75,38.18000000000001C1387.1666666666667,37.41333333333334,1389.5833333333333,36.646666666666675,1392,35.88000000000001C1394.4166666666667,35.113333333333344,1396.8333333333333,34.34666666666667,1399.25,33.580000000000005C1401.6666666666667,32.81333333333334,1404.0833333333333,32.04666666666667,1406.5,31.28C1408.9166666666667,30.513333333333335,1411.3333333333333,29.746666666666666,1413.75,28.98C1416.1666666666667,28.213333333333335,1418.5833333333333,27.446666666666665,1421,26.68C1423.4166666666667,25.913333333333334,1425.8333333333333,25.14666666666668,1428.25,24.38000000000001C1430.6666666666667,23.61333333333334,1433.0833333333333,22.84666666666665,1435.5,22.07999999999998C1437.9166666666667,21.31333333333331,1440.3333333333333,20.546666666666667,1442.75,19.780000000000005C1445.1666666666667,19.013333333333343,1447.5833333333333,18.246666666666673,1450,17.480000000000004" fill="transparent" stroke-linecap="round" stroke="#B6509E" stroke-width="2"></path><path class="visx-linepath" d="M0,107.17999999994538C2.4166666666666665,107.17089583330147,4.833333333333334,107.16179166665756,7.25,107.1526875C9.666666666666666,107.14358333334243,12.083333333333334,107.13447916666667,14.5,107.125375C16.916666666666668,107.11627083333335,19.333333333333332,107.10716666666667,21.75,107.09806250000001C24.166666666666668,107.08895833333335,26.583333333333332,107.07985416666668,29,107.07075C31.416666666666668,107.06164583333333,33.833333333333336,107.05254166666668,36.25,107.04343750000001C38.666666666666664,107.03433333333334,41.083333333333336,107.02522916666666,43.5,107.016125C45.91666666666667,107.00702083333333,48.333333333333336,106.99791666666668,50.75000000000001,106.98881250000001C53.16666666666667,106.97970833333335,55.583333333333336,106.97060416666666,58,106.9615C60.416666666666664,106.95239583333333,62.833333333333336,106.94329166666668,65.25,106.93418750000001C67.66666666666667,106.92508333333333,70.08333333333333,106.91597916666666,72.5,106.906875C74.91666666666667,106.89777083333334,77.33333333333333,106.88866666666667,79.75,106.8795625C82.16666666666667,106.87045833333335,84.58333333333333,106.86135416666667,87,106.85225C89.41666666666667,106.84314583333332,91.83333333333333,106.83404166666666,94.25,106.8249375C96.66666666666667,106.81583333333333,99.08333333333334,106.80672916666667,101.50000000000001,106.797625C103.91666666666667,106.78852083333334,106.33333333333334,106.77941666666666,108.75,106.7703125C111.16666666666667,106.76120833333334,113.58333333333333,106.75210416666667,116,106.74300000000001C118.41666666666667,106.73389583333334,120.83333333333334,106.72479166666668,123.25000000000001,106.7156875C125.66666666666667,106.70658333333334,128.08333333333334,106.69747916666667,130.5,106.68837500000001C132.91666666666666,106.67927083333333,135.33333333333334,106.67016666666666,137.75,106.6610625C140.16666666666666,106.65195833333334,142.58333333333334,106.64285416666667,145,106.63375C147.41666666666666,106.62464583333335,149.83333333333334,106.61554166666667,152.25,106.6064375C154.66666666666666,106.59733333333332,157.08333333333334,106.58822916666668,159.5,106.579125C161.91666666666666,106.57002083333333,164.33333333333334,106.56091666666666,166.75,106.5518125C169.16666666666666,106.54270833333334,171.58333333333334,106.53360416666666,174,106.5245C176.41666666666666,106.51539583333334,178.83333333333334,106.50629166666667,181.25,106.4971875C183.66666666666666,106.48808333333332,186.08333333333334,106.47897916666668,188.5,106.469875C190.91666666666666,106.46077083333333,193.33333333333334,106.45166666666665,195.75,106.4425625C198.16666666666669,106.43345833333332,200.58333333333334,106.42435416666666,203.00000000000003,106.41525C205.41666666666669,106.40614583333334,207.83333333333331,106.39704166666667,210.24999999999997,106.3879375C212.66666666666666,106.37883333333333,215.08333333333331,106.36972916666667,217.5,106.360625C219.91666666666666,106.35152083333334,222.33333333333334,106.34241666666668,224.75,106.3333125C227.16666666666666,106.32420833333333,229.58333333333334,106.31510416666666,232,106.306C234.41666666666666,106.29689583333334,236.83333333333334,106.28779166666666,239.25,106.2786875C241.66666666666669,106.26958333333333,244.08333333333334,106.26047916666667,246.50000000000003,106.251375C248.91666666666669,106.24227083333334,251.33333333333331,106.23316666666666,253.74999999999997,106.2240625C256.16666666666663,106.21495833333333,258.5833333333333,106.20585416666667,261,106.19675C263.4166666666667,106.18764583333333,265.8333333333333,106.17854166666666,268.25,106.1694375C270.6666666666667,106.16033333333334,273.0833333333333,106.15122916666667,275.5,106.142125C277.9166666666667,106.13302083333332,280.3333333333333,106.12391666666667,282.75,106.1148125C285.1666666666667,106.10570833333333,287.5833333333333,106.09660416666665,290,106.08749999999999C292.4166666666667,106.07839583333333,294.8333333333333,106.06929166666666,297.25,106.0601875C299.6666666666667,106.05108333333334,302.0833333333333,106.04197916666666,304.5,106.032875C306.9166666666667,106.02377083333334,309.3333333333333,106.01466666666667,311.75,106.0055625C314.1666666666667,105.99645833333332,316.5833333333333,105.98735416666668,319,105.97825C321.4166666666667,105.96914583333333,323.8333333333333,105.96004166666665,326.25,105.9509375C328.6666666666667,105.94183333333334,331.0833333333333,105.93272916666666,333.5,105.923625C335.9166666666667,105.91452083333334,338.3333333333333,105.90541666666667,340.75,105.8963125C343.1666666666667,105.88720833333332,345.5833333333333,105.87810416666667,348,105.869C350.4166666666667,105.85989583333333,352.8333333333333,105.85079166666665,355.25,105.84168749999999C357.6666666666667,105.83258333333333,360.0833333333333,105.82347916666666,362.5,105.814375C364.9166666666667,105.80527083333334,367.3333333333333,105.79616666666666,369.75,105.78706249999999C372.1666666666667,105.77795833333332,374.5833333333333,105.76885416666666,377,105.75975C379.4166666666667,105.75064583333334,381.8333333333333,105.74154166666668,384.25,105.7324375C386.6666666666667,105.72333333333333,389.0833333333333,105.71422916666666,391.5,105.705125C393.9166666666667,105.69602083333332,396.33333333333337,105.68691666666666,398.75000000000006,105.6778125C401.16666666666674,105.66870833333334,403.58333333333337,105.65960416666668,406.00000000000006,105.65050000000001C408.4166666666667,105.64139583333335,410.8333333333333,105.63229166666667,413.24999999999994,105.6231875C415.66666666666663,105.61408333333333,418.08333333333326,105.60497916666665,420.49999999999994,105.59587499999999C422.91666666666663,105.58677083333332,425.3333333333333,105.57766666666666,427.75,105.5685625C430.1666666666667,105.55945833333334,432.5833333333333,105.55035416666666,435,105.54125C437.4166666666667,105.53214583333335,439.8333333333333,105.52304166666667,442.25,105.5139375C444.6666666666667,105.50483333333332,447.0833333333333,105.49572916666665,449.5,105.48662499999999C451.9166666666667,105.47752083333333,454.3333333333333,105.46841666666666,456.75,105.4593125C459.1666666666667,105.45020833333334,461.5833333333333,105.44110416666666,464,105.432C466.4166666666667,105.42289583333334,468.8333333333333,105.41379166666667,471.25,105.4046875C473.6666666666667,105.39558333333332,476.0833333333333,105.38647916666666,478.5,105.377375C480.9166666666667,105.36827083333333,483.33333333333337,105.35916666666667,485.75000000000006,105.35006249999999C488.16666666666674,105.34095833333333,490.58333333333337,105.33185416666667,493.00000000000006,105.32275C495.4166666666667,105.31364583333334,497.8333333333333,105.30454166666665,500.24999999999994,105.29543749999999C502.66666666666663,105.28633333333333,505.08333333333326,105.27722916666667,507.49999999999994,105.26812500000001C509.91666666666663,105.25902083333334,512.3333333333333,105.24991666666666,514.75,105.24081249999999C517.1666666666666,105.23170833333333,519.5833333333334,105.22260416666667,522,105.21350000000001C524.4166666666666,105.20439583333335,526.8333333333334,105.19529166666666,529.25,105.1861875C531.6666666666666,105.17708333333334,534.0833333333334,105.16797916666668,536.5,105.15887500000001C538.9166666666666,105.14977083333333,541.3333333333334,105.14066666666665,543.75,105.13156249999999C546.1666666666666,105.12245833333333,548.5833333333334,105.11335416666667,551,105.10425000000001C553.4166666666666,105.09514583333335,555.8333333333334,105.08604166666666,558.25,105.0769375C560.6666666666666,105.06783333333334,563.0833333333334,105.05872916666667,565.5,105.049625C567.9166666666666,105.04052083333335,570.3333333333334,105.03141666666667,572.75,105.0223125C575.1666666666666,105.01320833333332,577.5833333333334,105.00410416666668,580,104.995C582.4166666666666,104.98589583333333,584.8333333333334,104.97679166666666,587.25,104.9676875C589.6666666666666,104.95858333333334,592.0833333333334,104.94947916666666,594.5,104.940375C596.9166666666666,104.93127083333334,599.3333333333334,104.92216666666667,601.75,104.91306250000001C604.1666666666666,104.90395833333335,606.5833333333334,104.89485416666668,609,104.88575C611.4166666666666,104.87664583333333,613.8333333333334,104.86754166666668,616.25,104.85843750000001C618.6666666666666,104.84933333333333,621.0833333333334,104.84022916666666,623.5,104.831125C625.9166666666666,104.82202083333334,628.3333333333334,104.81291666666667,630.75,104.8038125C633.1666666666666,104.79470833333335,635.5833333333334,104.78560416666667,638,104.7765C640.4166666666666,104.76739583333332,642.8333333333334,104.75829166666668,645.25,104.7491875C647.6666666666666,104.74008333333333,650.0833333333334,104.73097916666666,652.5,104.721875C654.9166666666666,104.71277083333334,657.3333333333334,104.70366666666666,659.75,104.6945625C662.1666666666666,104.68545833333334,664.5833333333334,104.67635416666667,667,104.66725C669.4166666666666,104.65814583333332,671.8333333333334,104.64904166666666,674.25,104.6399375C676.6666666666666,104.63083333333334,679.0833333333334,104.62172916666668,681.5,104.61262500000001C683.9166666666666,104.60352083333333,686.3333333333334,104.59441666666666,688.75,104.5853125C691.1666666666666,104.57620833333334,693.5833333333334,104.56710416666667,696,104.558C698.4166666666666,104.54889583333335,700.8333333333334,104.53979166666667,703.25,104.5306875C705.6666666666666,104.52158333333333,708.0833333333334,104.51247916666668,710.5,104.503375C712.9166666666666,104.49427083333333,715.3333333333334,104.48516666666666,717.75,104.4760625C720.1666666666666,104.46695833333334,722.5833333333334,104.45785416666666,725,104.44875C727.4166666666666,104.43964583333334,729.8333333333334,104.43054166666667,732.25,104.4214375C734.6666666666666,104.41233333333332,737.0833333333334,104.40322916666668,739.5,104.394125C741.9166666666666,104.38502083333333,744.3333333333334,104.37591666666665,746.75,104.3668125C749.1666666666666,104.35770833333333,751.5833333333334,104.34860416666666,754,104.3395C756.4166666666666,104.33039583333334,758.8333333333334,104.32129166666667,761.25,104.3121875C763.6666666666666,104.30308333333332,766.0833333333334,104.29397916666666,768.5,104.284875C770.9166666666666,104.27577083333334,773.3333333333334,104.26666666666668,775.75,104.2575625C778.1666666666666,104.24845833333333,780.5833333333334,104.23935416666666,783,104.23025C785.4166666666667,104.22114583333332,787.8333333333334,104.21204166666668,790.2500000000001,104.2029375C792.6666666666667,104.19383333333334,795.0833333333335,104.18472916666667,797.5000000000001,104.175625C799.9166666666667,104.16652083333332,802.3333333333335,104.15741666666668,804.7500000000001,104.1483125C807.1666666666667,104.13920833333333,809.5833333333335,104.13010416666667,812.0000000000001,104.121C814.4166666666667,104.11189583333334,816.8333333333333,104.10279166666666,819.2499999999999,104.0936875C821.6666666666665,104.08458333333333,824.0833333333333,104.07547916666667,826.4999999999999,104.066375C828.9166666666665,104.05727083333332,831.3333333333333,104.04816666666667,833.7499999999999,104.0390625C836.1666666666665,104.02995833333333,838.5833333333333,104.02085416666665,840.9999999999999,104.01174999999999C843.4166666666666,104.00264583333332,845.8333333333333,103.99354166666667,848.25,103.9844375C850.6666666666666,103.97533333333334,853.0833333333334,103.96622916666666,855.5,103.95712499999999C857.9166666666666,103.94802083333332,860.3333333333334,103.93891666666666,862.75,103.9298125C865.1666666666666,103.92070833333334,867.5833333333334,103.91160416666668,870,103.9025C872.4166666666666,103.89339583333333,874.8333333333334,103.88429166666666,877.25,103.8751875C879.6666666666666,103.86608333333334,882.0833333333334,103.85697916666666,884.5,103.847875C886.9166666666666,103.83877083333334,889.3333333333334,103.82966666666667,891.75,103.8205625C894.1666666666666,103.81145833333332,896.5833333333334,103.80235416666666,899,103.79325C901.4166666666666,103.78414583333334,903.8333333333334,103.77504166666668,906.25,103.7659375C908.6666666666666,103.75683333333333,911.0833333333334,103.74772916666667,913.5,103.738625C915.9166666666666,103.72952083333332,918.3333333333334,103.72041666666667,920.75,103.71131249999999C923.1666666666666,103.70220833333332,925.5833333333334,103.69310416666666,928,103.684C930.4166666666666,103.67489583333334,932.8333333333334,103.66579166666668,935.25,103.6566875C937.6666666666666,103.64758333333333,940.0833333333334,103.63847916666667,942.5,103.629375C944.9166666666666,103.62027083333332,947.3333333333334,103.61116666666666,949.75,103.60206249999999C952.1666666666666,103.59295833333331,954.5833333333334,103.58385416666665,957,103.57475C959.4166666666666,103.56564583333333,961.8333333333334,103.55654166666666,964.25,103.5474375C966.6666666666667,103.53833333333333,969.0833333333334,103.52922916666665,971.5000000000001,103.520125C973.9166666666667,103.51102083333333,976.3333333333335,103.50191666666669,978.7500000000001,103.49281250000001C981.1666666666667,103.48370833333334,983.5833333333335,103.47460416666667,986.0000000000001,103.46549999999999C988.4166666666667,103.45639583333332,990.8333333333335,103.44729166666669,993.2500000000001,103.43818750000001C995.6666666666667,103.42908333333335,998.0833333333333,103.41997916666665,1000.4999999999999,103.41087499999999C1002.9166666666665,103.40177083333332,1005.3333333333333,103.39266666666668,1007.7499999999999,103.38356250000001C1010.1666666666665,103.37445833333334,1012.5833333333333,103.36535416666666,1014.9999999999999,103.35624999999999C1017.4166666666665,103.34714583333331,1019.8333333333333,103.33804166666667,1022.2499999999999,103.32893750000001C1024.6666666666665,103.31983333333335,1027.0833333333333,103.31072916666668,1029.5,103.301625C1031.9166666666667,103.29252083333334,1034.3333333333333,103.28341666666668,1036.75,103.27431250000001C1039.1666666666667,103.26520833333333,1041.5833333333333,103.25610416666666,1044,103.24699999999999C1046.4166666666667,103.23789583333331,1048.8333333333333,103.22879166666667,1051.25,103.2196875C1053.6666666666667,103.21058333333335,1056.0833333333333,103.20147916666667,1058.5,103.192375C1060.9166666666667,103.18327083333332,1063.3333333333333,103.17416666666668,1065.75,103.1650625C1068.1666666666667,103.15595833333333,1070.5833333333333,103.14685416666666,1073,103.13775C1075.4166666666667,103.12864583333334,1077.8333333333333,103.11954166666666,1080.25,103.1104375C1082.6666666666667,103.10133333333334,1085.0833333333333,103.09222916666667,1087.5,103.08312500000001C1089.9166666666667,103.07402083333335,1092.3333333333333,103.06491666666668,1094.75,103.0558125C1097.1666666666667,103.04670833333333,1099.5833333333333,103.03760416666668,1102,103.02850000000001C1104.4166666666667,103.01939583333333,1106.8333333333333,103.01029166666666,1109.25,103.0011875C1111.6666666666667,102.99208333333334,1114.0833333333333,102.98297916666667,1116.5,102.973875C1118.9166666666667,102.96477083333335,1121.3333333333333,102.95566666666667,1123.75,102.9465625C1126.1666666666667,102.93745833333332,1128.5833333333333,102.92835416666668,1131,102.91925C1133.4166666666667,102.91014583333333,1135.8333333333333,102.90104166666666,1138.25,102.8919375C1140.6666666666667,102.88283333333334,1143.0833333333333,102.87372916666666,1145.5,102.864625C1147.9166666666667,102.85552083333334,1150.3333333333333,102.84641666666667,1152.75,102.8373125C1155.1666666666667,102.82820833333332,1157.5833333333333,102.82820833333334,1160,102.81C1162.4166666666667,102.79179166666667,1164.8333333333333,101.27666666666667,1167.25,100.51C1169.6666666666667,99.74333333333334,1172.0833333333333,98.97666666666666,1174.5,98.21C1176.9166666666667,97.44333333333333,1179.3333333333333,96.67666666666666,1181.75,95.91C1184.1666666666667,95.14333333333333,1186.5833333333333,94.37666666666667,1189,93.61C1191.4166666666667,92.84333333333333,1193.8333333333333,92.07666666666667,1196.25,91.31C1198.6666666666667,90.54333333333334,1201.0833333333333,89.77666666666667,1203.5,89.01C1205.9166666666667,88.24333333333334,1208.3333333333333,87.47666666666666,1210.75,86.71C1213.1666666666667,85.94333333333333,1215.5833333333333,85.17666666666666,1218,84.41C1220.4166666666667,83.64333333333333,1222.8333333333333,82.87666666666667,1225.25,82.11C1227.6666666666667,81.34333333333333,1230.0833333333333,80.57666666666665,1232.5,79.80999999999999C1234.9166666666667,79.04333333333332,1237.3333333333333,78.27666666666666,1239.75,77.50999999999999C1242.1666666666667,76.74333333333333,1244.5833333333333,75.97666666666669,1247,75.21000000000002C1249.4166666666667,74.44333333333336,1251.8333333333333,73.67666666666666,1254.25,72.91C1256.6666666666667,72.14333333333333,1259.0833333333333,71.37666666666667,1261.5,70.61C1263.9166666666667,69.84333333333333,1266.3333333333333,69.07666666666667,1268.75,68.31C1271.1666666666667,67.54333333333334,1273.5833333333333,66.77666666666667,1276,66.01C1278.4166666666667,65.24333333333334,1280.8333333333333,64.47666666666667,1283.25,63.71000000000001C1285.6666666666667,62.94333333333334,1288.0833333333333,62.17666666666667,1290.5,61.410000000000004C1292.9166666666667,60.64333333333334,1295.3333333333333,59.876666666666665,1297.75,59.11C1300.1666666666667,58.343333333333334,1302.5833333333333,57.57666666666667,1305,56.81C1307.4166666666667,56.04333333333334,1309.8333333333333,55.276666666666664,1312.25,54.51C1314.6666666666667,53.74333333333333,1317.0833333333333,52.97666666666666,1319.5,52.209999999999994C1321.9166666666667,51.44333333333333,1324.3333333333333,50.67666666666667,1326.75,49.910000000000004C1329.1666666666667,49.14333333333334,1331.5833333333333,48.37666666666667,1334,47.61000000000001C1336.4166666666667,46.84333333333334,1338.8333333333333,46.07666666666667,1341.25,45.31C1343.6666666666667,44.54333333333334,1346.0833333333333,43.77666666666667,1348.5,43.01C1350.9166666666667,42.243333333333325,1353.3333333333333,41.47666666666665,1355.75,40.70999999999999C1358.1666666666667,39.94333333333332,1360.5833333333333,39.17666666666666,1363,38.41C1365.4166666666667,37.64333333333333,1367.8333333333333,36.87666666666666,1370.25,36.10999999999999C1372.6666666666667,35.34333333333333,1375.0833333333333,34.57666666666667,1377.5,33.81C1379.9166666666667,33.04333333333334,1382.3333333333333,32.27666666666667,1384.75,31.51C1387.1666666666667,30.743333333333336,1389.5833333333333,29.976666666666667,1392,29.21C1394.4166666666667,28.443333333333335,1396.8333333333333,27.676666666666677,1399.25,26.91000000000001C1401.6666666666667,26.143333333333345,1404.0833333333333,25.376666666666665,1406.5,24.609999999999996C1408.9166666666667,23.843333333333327,1411.3333333333333,23.07666666666666,1413.75,22.309999999999995C1416.1666666666667,21.54333333333333,1418.5833333333333,20.77666666666667,1421,20.010000000000005C1423.4166666666667,19.24333333333334,1425.8333333333333,18.476666666666674,1428.25,17.710000000000004C1430.6666666666667,16.943333333333335,1433.0833333333333,16.176666666666666,1435.5,15.41C1437.9166666666667,14.643333333333334,1440.3333333333333,13.876666666666681,1442.75,13.110000000000012C1445.1666666666667,12.343333333333343,1447.5833333333333,11.576666666666664,1450,10.809999999999985" fill="transparent" stroke-linecap="round" stroke="#E7C6DF" stroke-width="2"></path><g class="visx-group visx-axis visx-axis-bottom" transform="translate(0, 115)"><g class="visx-group visx-axis-tick" transform="translate(0, 0)"><line class="visx-line" x1="0" y1="0" x2="0" y2="8" fill="transparent" shape-rendering="crispEdges" stroke="#000" stroke-width="0" stroke-linecap="square"></line><svg x="0" y="0" font-size="10" style="overflow:visible"><text transform="" x="0" y="18" fill="#000" font-size="10" text-anchor="middle"><tspan x="0" dy="0em">0%</tspan></text></svg></g><g class="visx-group visx-axis-tick" transform="translate(0, 0)"><line class="visx-line" x1="362.5" y1="0" x2="362.5" y2="8" fill="transparent" shape-rendering="crispEdges" stroke="#000" stroke-width="0" stroke-linecap="square"></line><svg x="0" y="0" font-size="10" style="overflow:visible"><text transform="" x="362.5" y="18" fill="#000" font-size="10" text-anchor="middle"><tspan x="362.5" dy="0em">25%</tspan></text></svg></g><g class="visx-group visx-axis-tick" transform="translate(0, 0)"><line class="visx-line" x1="725" y1="0" x2="725" y2="8" fill="transparent" shape-rendering="crispEdges" stroke="#000" stroke-width="0" stroke-linecap="square"></line><svg x="0" y="0" font-size="10" style="overflow:visible"><text transform="" x="725" y="18" fill="#000" font-size="10" text-anchor="middle"><tspan x="725" dy="0em">50%</tspan></text></svg></g><g class="visx-group visx-axis-tick" transform="translate(0, 0)"><line class="visx-line" x1="1087.5" y1="0" x2="1087.5" y2="8" fill="transparent" shape-rendering="crispEdges" stroke="#000" stroke-width="0" stroke-linecap="square"></line><svg x="0" y="0" font-size="10" style="overflow:visible"><text transform="" x="1087.5" y="18" fill="#000" font-size="10" text-anchor="middle"><tspan x="1087.5" dy="0em">75%</tspan></text></svg></g><g class="visx-group visx-axis-tick" transform="translate(0, 0)"><line class="visx-line" x1="1450" y1="0" x2="1450" y2="8" fill="transparent" shape-rendering="crispEdges" stroke="#000" stroke-width="0" stroke-linecap="square"></line><svg x="0" y="0" font-size="10" style="overflow:visible"><text transform="" x="1450" y="18" fill="#000" font-size="10" text-anchor="middle"><tspan x="1450" dy="0em">100%</tspan></text></svg></g><line class="visx-line visx-axis-line" x1="0.5" y1="0" x2="1450.5" y2="0" fill="transparent" shape-rendering="crispEdges" stroke="#222" stroke-width="0"></line></g><g class="visx-group visx-axis visx-axis-left" transform="translate(0, 0)"><g class="visx-group visx-axis-tick" transform="translate(0, 0)"><line class="visx-line" x1="0" y1="115" x2="-8" y2="115" fill="transparent" shape-rendering="crispEdges" stroke="#222" stroke-width="0" stroke-linecap="square"></line><svg x="-30" y="0" font-size="8" style="overflow:visible"><text transform="" x="-8" y="115" fill="#000" font-size="8" text-anchor="start"><tspan x="-8" dy="0em">0%</tspan></text></svg></g><g class="visx-group visx-axis-tick" transform="translate(0, 0)"><line class="visx-line" x1="0" y1="57.5" x2="-8" y2="57.5" fill="transparent" shape-rendering="crispEdges" stroke="#222" stroke-width="0" stroke-linecap="square"></line><svg x="-30" y="0" font-size="8" style="overflow:visible"><text transform="" x="-8" y="57.5" fill="#000" font-size="8" text-anchor="start"><tspan x="-8" dy="0em">50%</tspan></text></svg></g><g class="visx-group visx-axis-tick" transform="translate(0, 0)"><line class="visx-line" x1="0" y1="0" x2="-8" y2="0" fill="transparent" shape-rendering="crispEdges" stroke="#222" stroke-width="0" stroke-linecap="square"></line><svg x="-30" y="0" font-size="8" style="overflow:visible"><text transform="" x="-8" y="0" fill="#000" font-size="8" text-anchor="start"><tspan x="-8" dy="0em">100%</tspan></text></svg></g><line class="visx-line visx-axis-line" x1="0" y1="115.5" x2="0" y2="0.5" fill="transparent" shape-rendering="crispEdges" stroke="#222" stroke-width="0"></line></g><rect class="visx-bar" width="1450" height="115" fill="transparent"></rect><line class="visx-line" x1="1160" y1="28" x2="1160" y2="115" fill="transparent" shape-rendering="crispEdges" stroke="#0062D2" stroke-width="1" pointer-events="none" stroke-dasharray="5,2"></line><svg x="0" y="0" font-size="10px" style="overflow:visible"><text transform="" x="1160" y="20" font-size="10px" fill="#fff" stroke="#fff" stroke-width="0.8em" text-anchor="middle"><tspan x="1160" dy="0.355em">Optimal 80%</tspan></text></svg><svg x="0" y="0" font-size="10px" style="overflow:visible"><text transform="" x="1160" y="20" font-size="10px" fill="#62677B" text-anchor="middle"><tspan x="1160" dy="0.355em">Optimal 80%</tspan></text></svg></g></svg>