<?xml version="1.0"?><svg xmlns="http://www.w3.org/2000/svg" xmlns:xlink= "http://www.w3.org/1999/xlink" style="background: white;" width="1500" height="185"> <g style="color: black; font-size: 13px; font-family: sans-serif; transform: translate(18px, 25px);"><g><circle r="3" cx="-6" cy="-5" style="fill: #B6509E" /><text>Borrow APR, variable</text></g><g style="transform: translateX(150px);"><circle r="3" cx="-6" cy="-5" style="fill: rgb(231, 198, 223)" /><text>Borrow APR, stable</text></g><g style="transform: translateX(290px);"><circle r="3" cx="-6" cy="-5" style="fill: rgb(0, 98, 210)" /><text>Utilization Rate</text></g></g><g class="visx-group" transform="translate(40, 50)"><g class="visx-group visx-rows" transform="translate(0, 0)"><line class="visx-line" x1="0" y1="115" x2="1450" y2="115" fill="transparent" shape-rendering="crispEdges" stroke="#000" stroke-width="1" stroke-dasharray="3,3" pointer-events="none"></line><line class="visx-line" x1="0" y1="57.5" x2="1450" y2="57.5" fill="transparent" shape-rendering="crispEdges" stroke="#000" stroke-width="1" stroke-dasharray="3,3" pointer-events="none"></line><line class="visx-line" x1="0" y1="0" x2="1450" y2="0" fill="transparent" shape-rendering="crispEdges" stroke="#000" stroke-width="1" stroke-dasharray="3,3" pointer-events="none"></line></g><path class="visx-linepath" d="M0,114.99999999993611C2.4166666666666665,114.98935185181458,4.833333333333334,114.97870370369304,7.25,114.96805555555555C9.666666666666666,114.95740740741806,12.083333333333334,114.94675925925927,14.5,114.93611111111112C16.916666666666668,114.92546296296297,19.333333333333332,114.91481481481482,21.75,114.90416666666667C24.166666666666668,114.89351851851852,26.583333333333332,114.88287037037038,29,114.87222222222223C31.416666666666668,114.86157407407408,33.833333333333336,114.85092592592592,36.25,114.84027777777777C38.666666666666664,114.82962962962962,41.083333333333336,114.81898148148147,43.5,114.80833333333332C45.91666666666667,114.79768518518517,48.333333333333336,114.78703703703704,50.75000000000001,114.77638888888889C53.16666666666667,114.76574074074074,55.583333333333336,114.75509259259259,58,114.74444444444444C60.416666666666664,114.73379629629629,62.833333333333336,114.72314814814816,65.25,114.7125C67.66666666666667,114.70185185185186,70.08333333333333,114.6912037037037,72.5,114.68055555555556C74.91666666666667,114.66990740740741,77.33333333333333,114.65925925925926,79.75,114.64861111111111C82.16666666666667,114.63796296296296,84.58333333333333,114.62731481481482,87,114.61666666666667C89.41666666666667,114.60601851851852,91.83333333333333,114.59537037037038,94.25,114.58472222222223C96.66666666666667,114.57407407407408,99.08333333333334,114.56342592592593,101.50000000000001,114.55277777777778C103.91666666666667,114.54212962962963,106.33333333333334,114.53148148148148,108.75,114.52083333333333C111.16666666666667,114.51018518518518,113.58333333333333,114.49953703703703,116,114.48888888888888C118.41666666666667,114.47824074074073,120.83333333333334,114.4675925925926,123.25000000000001,114.45694444444445C125.66666666666667,114.4462962962963,128.08333333333334,114.43564814814815,130.5,114.425C132.91666666666666,114.41435185185185,135.33333333333334,114.4037037037037,137.75,114.39305555555555C140.16666666666666,114.3824074074074,142.58333333333334,114.37175925925926,145,114.36111111111111C147.41666666666666,114.35046296296296,149.83333333333334,114.33981481481482,152.25,114.32916666666667C154.66666666666666,114.31851851851852,157.08333333333334,114.30787037037038,159.5,114.29722222222223C161.91666666666666,114.28657407407408,164.33333333333334,114.27592592592593,166.75,114.26527777777778C169.16666666666666,114.25462962962963,171.58333333333334,114.24398148148148,174,114.23333333333333C176.41666666666666,114.22268518518518,178.83333333333334,114.21203703703704,181.25,114.20138888888889C183.66666666666666,114.19074074074074,186.08333333333334,114.18009259259259,188.5,114.16944444444444C190.91666666666666,114.15879629629629,193.33333333333334,114.14814814814815,195.75,114.1375C198.16666666666669,114.12685185185185,200.58333333333334,114.1162037037037,203.00000000000003,114.10555555555555C205.41666666666669,114.0949074074074,207.83333333333331,114.08425925925926,210.24999999999997,114.0736111111111C212.66666666666666,114.06296296296296,215.08333333333331,114.05231481481482,217.5,114.04166666666667C219.91666666666666,114.03101851851852,222.33333333333334,114.02037037037037,224.75,114.00972222222222C227.16666666666666,113.99907407407407,229.58333333333334,113.98842592592594,232,113.97777777777779C234.41666666666666,113.96712962962964,236.83333333333334,113.95648148148149,239.25,113.94583333333334C241.66666666666669,113.93518518518519,244.08333333333334,113.92453703703704,246.50000000000003,113.91388888888889C248.91666666666669,113.90324074074074,251.33333333333331,113.89259259259259,253.74999999999997,113.88194444444444C256.16666666666663,113.8712962962963,258.5833333333333,113.86064814814814,261,113.85C263.4166666666667,113.83935185185184,265.8333333333333,113.8287037037037,268.25,113.81805555555555C270.6666666666667,113.8074074074074,273.0833333333333,113.79675925925926,275.5,113.78611111111111C277.9166666666667,113.77546296296296,280.3333333333333,113.76481481481481,282.75,113.75416666666666C285.1666666666667,113.74351851851851,287.5833333333333,113.73287037037038,290,113.72222222222223C292.4166666666667,113.71157407407408,294.8333333333333,113.70092592592593,297.25,113.69027777777778C299.6666666666667,113.67962962962963,302.0833333333333,113.66898148148148,304.5,113.65833333333333C306.9166666666667,113.64768518518518,309.3333333333333,113.63703703703705,311.75,113.6263888888889C314.1666666666667,113.61574074074075,316.5833333333333,113.6050925925926,319,113.59444444444445C321.4166666666667,113.5837962962963,323.8333333333333,113.57314814814815,326.25,113.5625C328.6666666666667,113.55185185185185,331.0833333333333,113.5412037037037,333.5,113.53055555555555C335.9166666666667,113.5199074074074,338.3333333333333,113.50925925925925,340.75,113.4986111111111C343.1666666666667,113.48796296296295,345.5833333333333,113.47731481481482,348,113.46666666666667C350.4166666666667,113.45601851851852,352.8333333333333,113.44537037037037,355.25,113.43472222222222C357.6666666666667,113.42407407407407,360.0833333333333,113.41342592592594,362.5,113.40277777777779C364.9166666666667,113.39212962962964,367.3333333333333,113.38148148148149,369.75,113.37083333333334C372.1666666666667,113.36018518518519,374.5833333333333,113.34953703703704,377,113.33888888888889C379.4166666666667,113.32824074074074,381.8333333333333,113.3175925925926,384.25,113.30694444444445C386.6666666666667,113.2962962962963,389.0833333333333,113.28564814814814,391.5,113.27499999999999C393.9166666666667,113.26435185185184,396.33333333333337,113.2537037037037,398.75000000000006,113.24305555555556C401.16666666666674,113.23240740740741,403.58333333333337,113.22175925925926,406.00000000000006,113.21111111111111C408.4166666666667,113.20046296296296,410.8333333333333,113.18981481481481,413.24999999999994,113.17916666666666C415.66666666666663,113.16851851851851,418.08333333333326,113.15787037037038,420.49999999999994,113.14722222222223C422.91666666666663,113.13657407407408,425.3333333333333,113.12592592592593,427.75,113.11527777777778C430.1666666666667,113.10462962962963,432.5833333333333,113.09398148148148,435,113.08333333333333C437.4166666666667,113.07268518518518,439.8333333333333,113.06203703703704,442.25,113.0513888888889C444.6666666666667,113.04074074074074,447.0833333333333,113.0300925925926,449.5,113.01944444444445C451.9166666666667,113.0087962962963,454.3333333333333,112.99814814814816,456.75,112.98750000000001C459.1666666666667,112.97685185185186,461.5833333333333,112.9662037037037,464,112.95555555555555C466.4166666666667,112.9449074074074,468.8333333333333,112.93425925925925,471.25,112.9236111111111C473.6666666666667,112.91296296296295,476.0833333333333,112.90231481481482,478.5,112.89166666666667C480.9166666666667,112.88101851851852,483.33333333333337,112.87037037037037,485.75000000000006,112.85972222222222C488.16666666666674,112.84907407407407,490.58333333333337,112.83842592592593,493.00000000000006,112.82777777777778C495.4166666666667,112.81712962962963,497.8333333333333,112.80648148148148,500.24999999999994,112.79583333333333C502.66666666666663,112.78518518518518,505.08333333333326,112.77453703703704,507.49999999999994,112.76388888888889C509.91666666666663,112.75324074074074,512.3333333333333,112.7425925925926,514.75,112.73194444444445C517.1666666666666,112.7212962962963,519.5833333333334,112.71064814814815,522,112.7C524.4166666666666,112.68935185185185,526.8333333333334,112.6787037037037,529.25,112.66805555555555C531.6666666666666,112.6574074074074,534.0833333333334,112.64675925925926,536.5,112.6361111111111C538.9166666666666,112.62546296296296,541.3333333333334,112.6148148148148,543.75,112.60416666666666C546.1666666666666,112.59351851851851,548.5833333333334,112.58287037037037,551,112.57222222222222C553.4166666666666,112.56157407407407,555.8333333333334,112.55092592592592,558.25,112.54027777777777C560.6666666666666,112.52962962962962,563.0833333333334,112.51898148148148,565.5,112.50833333333333C567.9166666666666,112.49768518518518,570.3333333333334,112.48703703703704,572.75,112.47638888888889C575.1666666666666,112.46574074074074,577.5833333333334,112.45509259259259,580,112.44444444444444C582.4166666666666,112.4337962962963,584.8333333333334,112.42314814814816,587.25,112.41250000000001C589.6666666666666,112.40185185185186,592.0833333333334,112.39120370370371,594.5,112.38055555555556C596.9166666666666,112.36990740740741,599.3333333333334,112.35925925925926,601.75,112.34861111111111C604.1666666666666,112.33796296296296,606.5833333333334,112.32731481481481,609,112.31666666666666C611.4166666666666,112.30601851851851,613.8333333333334,112.29537037037036,616.25,112.28472222222221C618.6666666666666,112.27407407407406,621.0833333333334,112.26342592592593,623.5,112.25277777777778C625.9166666666666,112.24212962962963,628.3333333333334,112.23148148148148,630.75,112.22083333333333C633.1666666666666,112.21018518518518,635.5833333333334,112.19953703703703,638,112.18888888888888C640.4166666666666,112.17824074074073,642.8333333333334,112.1675925925926,645.25,112.15694444444445C647.6666666666666,112.1462962962963,650.0833333333334,112.13564814814815,652.5,112.125C654.9166666666666,112.11435185185185,657.3333333333334,112.10370370370372,659.75,112.09305555555557C662.1666666666666,112.08240740740742,664.5833333333334,112.07175925925927,667,112.06111111111112C669.4166666666666,112.05046296296297,671.8333333333334,112.03981481481482,674.25,112.02916666666667C676.6666666666666,112.01851851851852,679.0833333333334,112.00787037037037,681.5,111.99722222222222C683.9166666666666,111.98657407407407,686.3333333333334,111.97592592592592,688.75,111.96527777777777C691.1666666666666,111.95462962962962,693.5833333333334,111.94398148148149,696,111.93333333333334C698.4166666666666,111.92268518518519,700.8333333333334,111.91203703703704,703.25,111.90138888888889C705.6666666666666,111.89074074074074,708.0833333333334,111.88009259259259,710.5,111.86944444444444C712.9166666666666,111.85879629629629,715.3333333333334,111.84814814814816,717.75,111.8375C720.1666666666666,111.82685185185186,722.5833333333334,111.8162037037037,725,111.80555555555556C727.4166666666666,111.79490740740741,729.8333333333334,111.78425925925927,732.25,111.77361111111112C734.6666666666666,111.76296296296297,737.0833333333334,111.75231481481482,739.5,111.74166666666667C741.9166666666666,111.73101851851852,744.3333333333334,111.72037037037036,746.75,111.70972222222221C749.1666666666666,111.69907407407406,751.5833333333334,111.68842592592593,754,111.67777777777778C756.4166666666666,111.66712962962963,758.8333333333334,111.65648148148148,761.25,111.64583333333333C763.6666666666666,111.63518518518518,766.0833333333334,111.62453703703703,768.5,111.61388888888888C770.9166666666666,111.60324074074073,773.3333333333334,111.5925925925926,775.75,111.58194444444445C778.1666666666666,111.5712962962963,780.5833333333334,111.56064814814815,783,111.55C785.4166666666667,111.53935185185185,787.8333333333334,111.52870370370371,790.2500000000001,111.51805555555556C792.6666666666667,111.50740740740741,795.0833333333335,111.49675925925926,797.5000000000001,111.48611111111111C799.9166666666667,111.47546296296296,802.3333333333335,111.46481481481482,804.7500000000001,111.45416666666667C807.1666666666667,111.44351851851852,809.5833333333335,111.43287037037038,812.0000000000001,111.42222222222223C814.4166666666667,111.41157407407408,816.8333333333333,111.40092592592592,819.2499999999999,111.39027777777777C821.6666666666665,111.37962962962962,824.0833333333333,111.36898148148148,826.4999999999999,111.35833333333333C828.9166666666665,111.34768518518518,831.3333333333333,111.33703703703704,833.7499999999999,111.32638888888889C836.1666666666665,111.31574074074074,838.5833333333333,111.30509259259259,840.9999999999999,111.29444444444444C843.4166666666666,111.28379629629629,845.8333333333333,111.27314814814815,848.25,111.2625C850.6666666666666,111.25185185185185,853.0833333333334,111.2412037037037,855.5,111.23055555555555C857.9166666666666,111.2199074074074,860.3333333333334,111.20925925925927,862.75,111.19861111111112C865.1666666666666,111.18796296296297,867.5833333333334,111.17731481481482,870,111.16666666666667C872.4166666666666,111.15601851851852,874.8333333333334,111.14537037037037,877.25,111.13472222222222C879.6666666666666,111.12407407407407,882.0833333333334,111.11342592592594,884.5,111.10277777777779C886.9166666666666,111.09212962962964,889.3333333333334,111.08148148148148,891.75,111.07083333333333C894.1666666666666,111.06018518518518,896.5833333333334,111.04953703703703,899,111.03888888888888C901.4166666666666,111.02824074074073,903.8333333333334,111.01759259259259,906.25,111.00694444444444C908.6666666666666,110.9962962962963,911.0833333333334,110.98564814814814,913.5,110.975C915.9166666666666,110.96435185185184,918.3333333333334,110.95370370370371,920.75,110.94305555555556C923.1666666666666,110.93240740740741,925.5833333333334,110.92175925925926,928,110.91111111111111C930.4166666666666,110.90046296296296,932.8333333333334,110.88981481481481,935.25,110.87916666666666C937.6666666666666,110.86851851851851,940.0833333333334,110.85787037037038,942.5,110.84722222222223C944.9166666666666,110.83657407407408,947.3333333333334,110.82592592592593,949.75,110.81527777777778C952.1666666666666,110.80462962962963,954.5833333333334,110.79398148148148,957,110.78333333333333C959.4166666666666,110.77268518518518,961.8333333333334,110.76203703703703,964.25,110.75138888888888C966.6666666666667,110.74074074074073,969.0833333333334,110.73009259259258,971.5000000000001,110.71944444444443C973.9166666666667,110.70879629629628,976.3333333333335,110.69814814814815,978.7500000000001,110.6875C981.1666666666667,110.67685185185185,983.5833333333335,110.6662037037037,986.0000000000001,110.65555555555555C988.4166666666667,110.6449074074074,990.8333333333335,110.63425925925927,993.2500000000001,110.62361111111112C995.6666666666667,110.61296296296297,998.0833333333333,110.60231481481482,1000.4999999999999,110.59166666666667C1002.9166666666665,110.58101851851852,1005.3333333333333,110.57037037037037,1007.7499999999999,110.55972222222222C1010.1666666666665,110.54907407407407,1012.5833333333333,110.53842592592594,1014.9999999999999,110.52777777777779C1017.4166666666665,110.51712962962964,1019.8333333333333,110.50648148148149,1022.2499999999999,110.49583333333334C1024.6666666666665,110.48518518518519,1027.0833333333333,110.47453703703704,1029.5,110.46388888888889C1031.9166666666667,110.45324074074074,1034.3333333333333,110.44259259259259,1036.75,110.43194444444444C1039.1666666666667,110.42129629629629,1041.5833333333333,110.41064814814814,1044,110.39999999999999C1046.4166666666667,110.38935185185184,1048.8333333333333,110.3787037037037,1051.25,110.36805555555556C1053.6666666666667,110.35740740740741,1056.0833333333333,110.34675925925926,1058.5,110.33611111111111C1060.9166666666667,110.32546296296296,1063.3333333333333,110.31481481481482,1065.75,110.30416666666667C1068.1666666666667,110.29351851851852,1070.5833333333333,110.28287037037038,1073,110.27222222222223C1075.4166666666667,110.26157407407408,1077.8333333333333,110.25092592592593,1080.25,110.24027777777778C1082.6666666666667,110.22962962962963,1085.0833333333333,110.21898148148149,1087.5,110.20833333333334C1089.9166666666667,110.1976851851852,1092.3333333333333,110.18703703703704,1094.75,110.1763888888889C1097.1666666666667,110.16574074074074,1099.5833333333333,110.1550925925926,1102,110.14444444444445C1104.4166666666667,110.1337962962963,1106.8333333333333,110.12314814814815,1109.25,110.1125C1111.6666666666667,110.10185185185185,1114.0833333333333,110.0912037037037,1116.5,110.08055555555555C1118.9166666666667,110.0699074074074,1121.3333333333333,110.05925925925926,1123.75,110.04861111111111C1126.1666666666667,110.03796296296296,1128.5833333333333,110.02731481481482,1131,110.01666666666667C1133.4166666666667,110.00601851851852,1135.8333333333333,109.99537037037037,1138.25,109.98472222222222C1140.6666666666667,109.97407407407407,1143.0833333333333,109.96342592592593,1145.5,109.95277777777778C1147.9166666666667,109.94212962962963,1150.3333333333333,109.93148148148148,1152.75,109.92083333333333C1155.1666666666667,109.91018518518518,1157.5833333333333,109.89953703703705,1160,109.8888888888889C1162.4166666666667,109.87824074074075,1164.8333333333333,109.8675925925926,1167.25,109.85694444444445C1169.6666666666667,109.8462962962963,1172.0833333333333,109.83564814814814,1174.5,109.82499999999999C1176.9166666666667,109.81435185185184,1179.3333333333333,109.8037037037037,1181.75,109.79305555555555C1184.1666666666667,109.7824074074074,1186.5833333333333,109.77175925925926,1189,109.7611111111111C1191.4166666666667,109.75046296296296,1193.8333333333333,109.73981481481482,1196.25,109.72916666666667C1198.6666666666667,109.71851851851852,1201.0833333333333,109.70787037037037,1203.5,109.69722222222222C1205.9166666666667,109.68657407407407,1208.3333333333333,109.67592592592592,1210.75,109.66527777777777C1213.1666666666667,109.65462962962962,1215.5833333333333,109.64398148148149,1218,109.63333333333334C1220.4166666666667,109.62268518518519,1222.8333333333333,109.61203703703704,1225.25,109.60138888888889C1227.6666666666667,109.59074074074074,1230.0833333333333,109.58009259259259,1232.5,109.56944444444444C1234.9166666666667,109.5587962962963,1237.3333333333333,109.54814814814816,1239.75,109.53750000000001C1242.1666666666667,109.52685185185186,1244.5833333333333,109.5162037037037,1247,109.50555555555555C1249.4166666666667,109.4949074074074,1251.8333333333333,109.48425925925926,1254.25,109.47361111111111C1256.6666666666667,109.46296296296296,1259.0833333333333,109.45231481481481,1261.5,109.44166666666666C1263.9166666666667,109.43101851851851,1266.3333333333333,109.42037037037036,1268.75,109.40972222222221C1271.1666666666667,109.39907407407406,1273.5833333333333,109.38842592592593,1276,109.37777777777778C1278.4166666666667,109.36712962962963,1280.8333333333333,109.35648148148148,1283.25,109.34583333333333C1285.6666666666667,109.33518518518518,1288.0833333333333,109.32453703703705,1290.5,109.3138888888889C1292.9166666666667,109.30324074074075,1295.3333333333333,109.2925925925926,1297.75,109.28194444444445C1300.1666666666667,109.2712962962963,1302.5833333333333,109.2712962962963,1305,109.25C1307.4166666666667,109.2287037037037,1309.8333333333333,106.375,1312.25,104.9375C1314.6666666666667,103.5,1317.0833333333333,102.0625,1319.5,100.625C1321.9166666666667,99.1875,1324.3333333333333,97.75,1326.75,96.3125C1329.1666666666667,94.875,1331.5833333333333,93.4375,1334,92C1336.4166666666667,90.5625,1338.8333333333333,89.125,1341.25,87.6875C1343.6666666666667,86.25,1346.0833333333333,84.8125,1348.5,83.375C1350.9166666666667,81.9375,1353.3333333333333,80.5,1355.75,79.0625C1358.1666666666667,77.625,1360.5833333333333,76.1875,1363,74.75C1365.4166666666667,73.3125,1367.8333333333333,71.875,1370.25,70.4375C1372.6666666666667,69,1375.0833333333333,67.5625,1377.5,66.125C1379.9166666666667,64.6875,1382.3333333333333,63.25,1384.75,61.8125C1387.1666666666667,60.375,1389.5833333333333,58.9375,1392,57.5C1394.4166666666667,56.0625,1396.8333333333333,54.625,1399.25,53.1875C1401.6666666666667,51.75,1404.0833333333333,50.31250000000001,1406.5,48.87500000000001C1408.9166666666667,47.43750000000001,1411.3333333333333,45.99999999999999,1413.75,44.56249999999999C1416.1666666666667,43.12499999999999,1418.5833333333333,41.6875,1421,40.25C1423.4166666666667,38.8125,1425.8333333333333,37.375,1428.25,35.9375C1430.6666666666667,34.5,1433.0833333333333,33.0625,1435.5,31.625000000000004C1437.9166666666667,30.187500000000004,1440.3333333333333,28.750000000000004,1442.75,27.312500000000004C1445.1666666666667,25.875000000000004,1447.5833333333333,24.4375,1450,22.999999999999996" fill="transparent" stroke-linecap="round" stroke="#B6509E" stroke-width="2"></path><path class="visx-linepath" d="M0,103.49999999997445C2.4166666666666665,103.49574074072584,4.833333333333334,103.49148148147722,7.25,103.48722222222221C9.666666666666666,103.4829629629672,12.083333333333334,103.4787037037037,14.5,103.47444444444444C16.916666666666668,103.47018518518519,19.333333333333332,103.46592592592592,21.75,103.46166666666666C24.166666666666668,103.4574074074074,26.583333333333332,103.45314814814814,29,103.44888888888889C31.416666666666668,103.44462962962963,33.833333333333336,103.44037037037037,36.25,103.43611111111112C38.666666666666664,103.43185185185186,41.083333333333336,103.42759259259259,43.5,103.42333333333333C45.91666666666667,103.41907407407408,48.333333333333336,103.41481481481482,50.75000000000001,103.41055555555556C53.16666666666667,103.4062962962963,55.583333333333336,103.40203703703703,58,103.39777777777778C60.416666666666664,103.39351851851852,62.833333333333336,103.38925925925926,65.25,103.385C67.66666666666667,103.38074074074075,70.08333333333333,103.37648148148148,72.5,103.37222222222222C74.91666666666667,103.36796296296296,77.33333333333333,103.3637037037037,79.75,103.35944444444445C82.16666666666667,103.35518518518519,84.58333333333333,103.35092592592594,87,103.34666666666668C89.41666666666667,103.34240740740742,91.83333333333333,103.33814814814815,94.25,103.3338888888889C96.66666666666667,103.32962962962964,99.08333333333334,103.32537037037038,101.50000000000001,103.32111111111112C103.91666666666667,103.31685185185187,106.33333333333334,103.3125925925926,108.75,103.30833333333334C111.16666666666667,103.30407407407408,113.58333333333333,103.29981481481482,116,103.29555555555557C118.41666666666667,103.29129629629631,120.83333333333334,103.28703703703704,123.25000000000001,103.28277777777778C125.66666666666667,103.27851851851852,128.08333333333334,103.27425925925925,130.5,103.27C132.91666666666666,103.26574074074074,135.33333333333334,103.26148148148148,137.75,103.25722222222223C140.16666666666666,103.25296296296297,142.58333333333334,103.2487037037037,145,103.24444444444444C147.41666666666666,103.24018518518518,149.83333333333334,103.23592592592591,152.25,103.23166666666665C154.66666666666666,103.2274074074074,157.08333333333334,103.22314814814814,159.5,103.21888888888888C161.91666666666666,103.21462962962963,164.33333333333334,103.21037037037037,166.75,103.20611111111111C169.16666666666666,103.20185185185186,171.58333333333334,103.19759259259258,174,103.19333333333333C176.41666666666666,103.18907407407407,178.83333333333334,103.18481481481481,181.25,103.18055555555556C183.66666666666666,103.1762962962963,186.08333333333334,103.17203703703703,188.5,103.16777777777777C190.91666666666666,103.16351851851852,193.33333333333334,103.15925925925926,195.75,103.155C198.16666666666669,103.15074074074074,200.58333333333334,103.14648148148147,203.00000000000003,103.14222222222222C205.41666666666669,103.13796296296296,207.83333333333331,103.1337037037037,210.24999999999997,103.12944444444445C212.66666666666666,103.12518518518519,215.08333333333331,103.12092592592593,217.5,103.11666666666667C219.91666666666666,103.11240740740742,222.33333333333334,103.10814814814815,224.75,103.10388888888889C227.16666666666666,103.09962962962963,229.58333333333334,103.09537037037036,232,103.0911111111111C234.41666666666666,103.08685185185185,236.83333333333334,103.08259259259259,239.25,103.07833333333333C241.66666666666669,103.07407407407408,244.08333333333334,103.06981481481482,246.50000000000003,103.06555555555556C248.91666666666669,103.0612962962963,251.33333333333331,103.05703703703703,253.74999999999997,103.05277777777778C256.16666666666663,103.04851851851852,258.5833333333333,103.04425925925926,261,103.04C263.4166666666667,103.03574074074075,265.8333333333333,103.03148148148148,268.25,103.02722222222222C270.6666666666667,103.02296296296296,273.0833333333333,103.01870370370371,275.5,103.01444444444445C277.9166666666667,103.0101851851852,280.3333333333333,103.00592592592592,282.75,103.00166666666667C285.1666666666667,102.99740740740741,287.5833333333333,102.99314814814815,290,102.9888888888889C292.4166666666667,102.98462962962964,294.8333333333333,102.98037037037037,297.25,102.97611111111111C299.6666666666667,102.97185185185185,302.0833333333333,102.9675925925926,304.5,102.96333333333334C306.9166666666667,102.95907407407408,309.3333333333333,102.95481481481481,311.75,102.95055555555555C314.1666666666667,102.9462962962963,316.5833333333333,102.94203703703703,319,102.93777777777777C321.4166666666667,102.93351851851851,323.8333333333333,102.92925925925925,326.25,102.925C328.6666666666667,102.92074074074074,331.0833333333333,102.91648148148147,333.5,102.91222222222221C335.9166666666667,102.90796296296296,338.3333333333333,102.9037037037037,340.75,102.89944444444444C343.1666666666667,102.89518518518518,345.5833333333333,102.89092592592593,348,102.88666666666667C350.4166666666667,102.88240740740741,352.8333333333333,102.87814814814814,355.25,102.87388888888889C357.6666666666667,102.86962962962963,360.0833333333333,102.86537037037037,362.5,102.86111111111111C364.9166666666667,102.85685185185186,367.3333333333333,102.85259259259259,369.75,102.84833333333333C372.1666666666667,102.84407407407407,374.5833333333333,102.83981481481482,377,102.83555555555556C379.4166666666667,102.8312962962963,381.8333333333333,102.82703703703703,384.25,102.82277777777777C386.6666666666667,102.81851851851852,389.0833333333333,102.81425925925926,391.5,102.81C393.9166666666667,102.80574074074075,396.33333333333337,102.80148148148149,398.75000000000006,102.79722222222223C401.16666666666674,102.79296296296297,403.58333333333337,102.7887037037037,406.00000000000006,102.78444444444445C408.4166666666667,102.78018518518519,410.8333333333333,102.77592592592592,413.24999999999994,102.77166666666666C415.66666666666663,102.7674074074074,418.08333333333326,102.76314814814815,420.49999999999994,102.75888888888889C422.91666666666663,102.75462962962963,425.3333333333333,102.75037037037038,427.75,102.74611111111112C430.1666666666667,102.74185185185186,432.5833333333333,102.73759259259259,435,102.73333333333333C437.4166666666667,102.72907407407408,439.8333333333333,102.72481481481482,442.25,102.72055555555556C444.6666666666667,102.7162962962963,447.0833333333333,102.71203703703704,449.5,102.70777777777778C451.9166666666667,102.70351851851852,454.3333333333333,102.69925925925926,456.75,102.69500000000001C459.1666666666667,102.69074074074075,461.5833333333333,102.68648148148148,464,102.68222222222222C466.4166666666667,102.67796296296297,468.8333333333333,102.67370370370371,471.25,102.66944444444445C473.6666666666667,102.6651851851852,476.0833333333333,102.66092592592592,478.5,102.65666666666667C480.9166666666667,102.65240740740741,483.33333333333337,102.64814814814814,485.75000000000006,102.64388888888888C488.16666666666674,102.63962962962962,490.58333333333337,102.63537037037035,493.00000000000006,102.6311111111111C495.4166666666667,102.62685185185184,497.8333333333333,102.62259259259258,500.24999999999994,102.61833333333333C502.66666666666663,102.61407407407407,505.08333333333326,102.60981481481481,507.49999999999994,102.60555555555555C509.91666666666663,102.6012962962963,512.3333333333333,102.59703703703703,514.75,102.59277777777777C517.1666666666666,102.58851851851851,519.5833333333334,102.58425925925926,522,102.58C524.4166666666666,102.57574074074074,526.8333333333334,102.57148148148147,529.25,102.56722222222221C531.6666666666666,102.56296296296296,534.0833333333334,102.5587037037037,536.5,102.55444444444444C538.9166666666666,102.55018518518519,541.3333333333334,102.54592592592591,543.75,102.54166666666666C546.1666666666666,102.5374074074074,548.5833333333334,102.53314814814814,551,102.52888888888889C553.4166666666666,102.52462962962963,555.8333333333334,102.52037037037037,558.25,102.51611111111112C560.6666666666666,102.51185185185186,563.0833333333334,102.50759259259259,565.5,102.50333333333333C567.9166666666666,102.49907407407407,570.3333333333334,102.49481481481482,572.75,102.49055555555556C575.1666666666666,102.4862962962963,577.5833333333334,102.48203703703705,580,102.47777777777779C582.4166666666666,102.47351851851853,584.8333333333334,102.46925925925926,587.25,102.465C589.6666666666666,102.46074074074075,592.0833333333334,102.45648148148148,594.5,102.45222222222222C596.9166666666666,102.44796296296296,599.3333333333334,102.4437037037037,601.75,102.43944444444445C604.1666666666666,102.43518518518519,606.5833333333334,102.43092592592593,609,102.42666666666668C611.4166666666666,102.42240740740742,613.8333333333334,102.41814814814815,616.25,102.41388888888889C618.6666666666666,102.40962962962963,621.0833333333334,102.40537037037038,623.5,102.40111111111112C625.9166666666666,102.39685185185186,628.3333333333334,102.39259259259259,630.75,102.38833333333334C633.1666666666666,102.38407407407408,635.5833333333334,102.37981481481482,638,102.37555555555556C640.4166666666666,102.37129629629631,642.8333333333334,102.36703703703704,645.25,102.36277777777778C647.6666666666666,102.35851851851852,650.0833333333334,102.35425925925927,652.5,102.35000000000001C654.9166666666666,102.34574074074075,657.3333333333334,102.34148148148148,659.75,102.33722222222222C662.1666666666666,102.33296296296297,664.5833333333334,102.3287037037037,667,102.32444444444444C669.4166666666666,102.32018518518518,671.8333333333334,102.31592592592591,674.25,102.31166666666665C676.6666666666666,102.3074074074074,679.0833333333334,102.30314814814814,681.5,102.29888888888888C683.9166666666666,102.29462962962963,686.3333333333334,102.29037037037037,688.75,102.28611111111111C691.1666666666666,102.28185185185185,693.5833333333334,102.27759259259258,696,102.27333333333333C698.4166666666666,102.26907407407407,700.8333333333334,102.26481481481481,703.25,102.26055555555556C705.6666666666666,102.2562962962963,708.0833333333334,102.25203703703703,710.5,102.24777777777777C712.9166666666666,102.24351851851851,715.3333333333334,102.23925925925926,717.75,102.235C720.1666666666666,102.23074074074074,722.5833333333334,102.22648148148147,725,102.22222222222221C727.4166666666666,102.21796296296296,729.8333333333334,102.2137037037037,732.25,102.20944444444444C734.6666666666666,102.20518518518519,737.0833333333334,102.20092592592593,739.5,102.19666666666667C741.9166666666666,102.19240740740742,744.3333333333334,102.18814814814814,746.75,102.18388888888889C749.1666666666666,102.17962962962963,751.5833333333334,102.17537037037036,754,102.1711111111111C756.4166666666666,102.16685185185185,758.8333333333334,102.16259259259259,761.25,102.15833333333333C763.6666666666666,102.15407407407407,766.0833333333334,102.14981481481482,768.5,102.14555555555556C770.9166666666666,102.1412962962963,773.3333333333334,102.13703703703703,775.75,102.13277777777778C778.1666666666666,102.12851851851852,780.5833333333334,102.12425925925926,783,102.12C785.4166666666667,102.11574074074075,787.8333333333334,102.11148148148149,790.2500000000001,102.10722222222223C792.6666666666667,102.10296296296298,795.0833333333335,102.0987037037037,797.5000000000001,102.09444444444445C799.9166666666667,102.09018518518519,802.3333333333335,102.08592592592593,804.7500000000001,102.08166666666668C807.1666666666667,102.07740740740742,809.5833333333335,102.07314814814815,812.0000000000001,102.06888888888889C814.4166666666667,102.06462962962964,816.8333333333333,102.06037037037038,819.2499999999999,102.05611111111112C821.6666666666665,102.05185185185186,824.0833333333333,102.0475925925926,826.4999999999999,102.04333333333334C828.9166666666665,102.03907407407408,831.3333333333333,102.03481481481481,833.7499999999999,102.03055555555555C836.1666666666665,102.0262962962963,838.5833333333333,102.02203703703704,840.9999999999999,102.01777777777778C843.4166666666666,102.01351851851852,845.8333333333333,102.00925925925925,848.25,102.005C850.6666666666666,102.00074074074074,853.0833333333334,101.99648148148147,855.5,101.99222222222221C857.9166666666666,101.98796296296295,860.3333333333334,101.9837037037037,862.75,101.97944444444444C865.1666666666666,101.97518518518518,867.5833333333334,101.97092592592593,870,101.96666666666667C872.4166666666666,101.96240740740741,874.8333333333334,101.95814814814814,877.25,101.95388888888888C879.6666666666666,101.94962962962963,882.0833333333334,101.94537037037037,884.5,101.94111111111111C886.9166666666666,101.93685185185186,889.3333333333334,101.93259259259258,891.75,101.92833333333333C894.1666666666666,101.92407407407407,896.5833333333334,101.91981481481481,899,101.91555555555556C901.4166666666666,101.9112962962963,903.8333333333334,101.90703703703703,906.25,101.90277777777777C908.6666666666666,101.89851851851851,911.0833333333334,101.89425925925926,913.5,101.89C915.9166666666666,101.88574074074074,918.3333333333334,101.88148148148149,920.75,101.87722222222223C923.1666666666666,101.87296296296297,925.5833333333334,101.8687037037037,928,101.86444444444444C930.4166666666666,101.86018518518519,932.8333333333334,101.85592592592592,935.25,101.85166666666666C937.6666666666666,101.8474074074074,940.0833333333334,101.84314814814815,942.5,101.83888888888889C944.9166666666666,101.83462962962963,947.3333333333334,101.83037037037037,949.75,101.82611111111112C952.1666666666666,101.82185185185186,954.5833333333334,101.81759259259259,957,101.81333333333333C959.4166666666666,101.80907407407408,961.8333333333334,101.80481481481482,964.25,101.80055555555556C966.6666666666667,101.7962962962963,969.0833333333334,101.79203703703703,971.5000000000001,101.78777777777778C973.9166666666667,101.78351851851852,976.3333333333335,101.77925925925926,978.7500000000001,101.775C981.1666666666667,101.77074074074075,983.5833333333335,101.76648148148148,986.0000000000001,101.76222222222222C988.4166666666667,101.75796296296296,990.8333333333335,101.7537037037037,993.2500000000001,101.74944444444445C995.6666666666667,101.74518518518519,998.0833333333333,101.74092592592594,1000.4999999999999,101.73666666666668C1002.9166666666665,101.73240740740742,1005.3333333333333,101.72814814814815,1007.7499999999999,101.7238888888889C1010.1666666666665,101.71962962962964,1012.5833333333333,101.71537037037037,1014.9999999999999,101.71111111111111C1017.4166666666665,101.70685185185185,1019.8333333333333,101.70259259259258,1022.2499999999999,101.69833333333332C1024.6666666666665,101.69407407407407,1027.0833333333333,101.68981481481481,1029.5,101.68555555555555C1031.9166666666667,101.6812962962963,1034.3333333333333,101.67703703703702,1036.75,101.67277777777777C1039.1666666666667,101.66851851851851,1041.5833333333333,101.66425925925925,1044,101.66C1046.4166666666667,101.65574074074074,1048.8333333333333,101.65148148148148,1051.25,101.64722222222223C1053.6666666666667,101.64296296296297,1056.0833333333333,101.6387037037037,1058.5,101.63444444444444C1060.9166666666667,101.63018518518518,1063.3333333333333,101.62592592592593,1065.75,101.62166666666667C1068.1666666666667,101.61740740740741,1070.5833333333333,101.61314814814814,1073,101.60888888888888C1075.4166666666667,101.60462962962963,1077.8333333333333,101.60037037037037,1080.25,101.59611111111111C1082.6666666666667,101.59185185185186,1085.0833333333333,101.58759259259259,1087.5,101.58333333333333C1089.9166666666667,101.57907407407407,1092.3333333333333,101.57481481481481,1094.75,101.57055555555556C1097.1666666666667,101.5662962962963,1099.5833333333333,101.56203703703704,1102,101.55777777777779C1104.4166666666667,101.55351851851853,1106.8333333333333,101.54925925925926,1109.25,101.545C1111.6666666666667,101.54074074074074,1114.0833333333333,101.53648148148147,1116.5,101.53222222222222C1118.9166666666667,101.52796296296296,1121.3333333333333,101.5237037037037,1123.75,101.51944444444445C1126.1666666666667,101.51518518518519,1128.5833333333333,101.51092592592593,1131,101.50666666666667C1133.4166666666667,101.50240740740742,1135.8333333333333,101.49814814814815,1138.25,101.49388888888889C1140.6666666666667,101.48962962962963,1143.0833333333333,101.48537037037038,1145.5,101.48111111111112C1147.9166666666667,101.47685185185186,1150.3333333333333,101.47259259259259,1152.75,101.46833333333333C1155.1666666666667,101.46407407407408,1157.5833333333333,101.45981481481482,1160,101.45555555555556C1162.4166666666667,101.4512962962963,1164.8333333333333,101.44703703703703,1167.25,101.44277777777778C1169.6666666666667,101.43851851851852,1172.0833333333333,101.43425925925926,1174.5,101.43C1176.9166666666667,101.42574074074075,1179.3333333333333,101.42148148148148,1181.75,101.41722222222222C1184.1666666666667,101.41296296296296,1186.5833333333333,101.4087037037037,1189,101.40444444444444C1191.4166666666667,101.40018518518518,1193.8333333333333,101.39592592592592,1196.25,101.39166666666667C1198.6666666666667,101.38740740740741,1201.0833333333333,101.38314814814814,1203.5,101.37888888888888C1205.9166666666667,101.37462962962962,1208.3333333333333,101.37037037037037,1210.75,101.36611111111111C1213.1666666666667,101.36185185185185,1215.5833333333333,101.35759259259258,1218,101.35333333333332C1220.4166666666667,101.34907407407407,1222.8333333333333,101.34481481481481,1225.25,101.34055555555555C1227.6666666666667,101.3362962962963,1230.0833333333333,101.33203703703703,1232.5,101.32777777777777C1234.9166666666667,101.32351851851851,1237.3333333333333,101.31925925925925,1239.75,101.315C1242.1666666666667,101.31074074074074,1244.5833333333333,101.30648148148147,1247,101.30222222222221C1249.4166666666667,101.29796296296296,1251.8333333333333,101.2937037037037,1254.25,101.28944444444444C1256.6666666666667,101.28518518518518,1259.0833333333333,101.28092592592593,1261.5,101.27666666666667C1263.9166666666667,101.27240740740741,1266.3333333333333,101.26814814814814,1268.75,101.26388888888889C1271.1666666666667,101.25962962962963,1273.5833333333333,101.25537037037037,1276,101.25111111111111C1278.4166666666667,101.24685185185186,1280.8333333333333,101.24259259259259,1283.25,101.23833333333333C1285.6666666666667,101.23407407407407,1288.0833333333333,101.22981481481482,1290.5,101.22555555555556C1292.9166666666667,101.2212962962963,1295.3333333333333,101.21703703703703,1297.75,101.21277777777777C1300.1666666666667,101.20851851851852,1302.5833333333333,101.20851851851852,1305,101.2C1307.4166666666667,101.19148148148149,1309.8333333333333,98.325,1312.25,96.8875C1314.6666666666667,95.45,1317.0833333333333,94.01249999999999,1319.5,92.57499999999999C1321.9166666666667,91.13749999999999,1324.3333333333333,89.69999999999999,1326.75,88.26249999999999C1329.1666666666667,86.82499999999999,1331.5833333333333,85.3875,1334,83.95C1336.4166666666667,82.5125,1338.8333333333333,81.075,1341.25,79.6375C1343.6666666666667,78.2,1346.0833333333333,76.7625,1348.5,75.325C1350.9166666666667,73.8875,1353.3333333333333,72.44999999999999,1355.75,71.01249999999999C1358.1666666666667,69.57499999999999,1360.5833333333333,68.1375,1363,66.7C1365.4166666666667,65.2625,1367.8333333333333,63.824999999999996,1370.25,62.387499999999996C1372.6666666666667,60.949999999999996,1375.0833333333333,59.5125,1377.5,58.075C1379.9166666666667,56.6375,1382.3333333333333,55.2,1384.75,53.7625C1387.1666666666667,52.325,1389.5833333333333,50.8875,1392,49.45C1394.4166666666667,48.0125,1396.8333333333333,46.574999999999996,1399.25,45.137499999999996C1401.6666666666667,43.699999999999996,1404.0833333333333,42.262499999999996,1406.5,40.824999999999996C1408.9166666666667,39.387499999999996,1411.3333333333333,37.95,1413.75,36.5125C1416.1666666666667,35.075,1418.5833333333333,33.6375,1421,32.2C1423.4166666666667,30.762500000000003,1425.8333333333333,29.325000000000006,1428.25,27.887500000000006C1430.6666666666667,26.450000000000006,1433.0833333333333,25.012499999999996,1435.5,23.574999999999996C1437.9166666666667,22.137499999999996,1440.3333333333333,20.7,1442.75,19.2625C1445.1666666666667,17.825,1447.5833333333333,16.3875,1450,14.950000000000001" fill="transparent" stroke-linecap="round" stroke="#E7C6DF" stroke-width="2"></path><g class="visx-group visx-axis visx-axis-bottom" transform="translate(0, 115)"><g class="visx-group visx-axis-tick" transform="translate(0, 0)"><line class="visx-line" x1="0" y1="0" x2="0" y2="8" fill="transparent" shape-rendering="crispEdges" stroke="#000" stroke-width="0" stroke-linecap="square"></line><svg x="0" y="0" font-size="10" style="overflow:visible"><text transform="" x="0" y="18" fill="#000" font-size="10" text-anchor="middle"><tspan x="0" dy="0em">0%</tspan></text></svg></g><g class="visx-group visx-axis-tick" transform="translate(0, 0)"><line class="visx-line" x1="362.5" y1="0" x2="362.5" y2="8" fill="transparent" shape-rendering="crispEdges" stroke="#000" stroke-width="0" stroke-linecap="square"></line><svg x="0" y="0" font-size="10" style="overflow:visible"><text transform="" x="362.5" y="18" fill="#000" font-size="10" text-anchor="middle"><tspan x="362.5" dy="0em">25%</tspan></text></svg></g><g class="visx-group visx-axis-tick" transform="translate(0, 0)"><line class="visx-line" x1="725" y1="0" x2="725" y2="8" fill="transparent" shape-rendering="crispEdges" stroke="#000" stroke-width="0" stroke-linecap="square"></line><svg x="0" y="0" font-size="10" style="overflow:visible"><text transform="" x="725" y="18" fill="#000" font-size="10" text-anchor="middle"><tspan x="725" dy="0em">50%</tspan></text></svg></g><g class="visx-group visx-axis-tick" transform="translate(0, 0)"><line class="visx-line" x1="1087.5" y1="0" x2="1087.5" y2="8" fill="transparent" shape-rendering="crispEdges" stroke="#000" stroke-width="0" stroke-linecap="square"></line><svg x="0" y="0" font-size="10" style="overflow:visible"><text transform="" x="1087.5" y="18" fill="#000" font-size="10" text-anchor="middle"><tspan x="1087.5" dy="0em">75%</tspan></text></svg></g><g class="visx-group visx-axis-tick" transform="translate(0, 0)"><line class="visx-line" x1="1450" y1="0" x2="1450" y2="8" fill="transparent" shape-rendering="crispEdges" stroke="#000" stroke-width="0" stroke-linecap="square"></line><svg x="0" y="0" font-size="10" style="overflow:visible"><text transform="" x="1450" y="18" fill="#000" font-size="10" text-anchor="middle"><tspan x="1450" dy="0em">100%</tspan></text></svg></g><line class="visx-line visx-axis-line" x1="0.5" y1="0" x2="1450.5" y2="0" fill="transparent" shape-rendering="crispEdges" stroke="#222" stroke-width="0"></line></g><g class="visx-group visx-axis visx-axis-left" transform="translate(0, 0)"><g class="visx-group visx-axis-tick" transform="translate(0, 0)"><line class="visx-line" x1="0" y1="115" x2="-8" y2="115" fill="transparent" shape-rendering="crispEdges" stroke="#222" stroke-width="0" stroke-linecap="square"></line><svg x="-30" y="0" font-size="8" style="overflow:visible"><text transform="" x="-8" y="115" fill="#000" font-size="8" text-anchor="start"><tspan x="-8" dy="0em">0%</tspan></text></svg></g><g class="visx-group visx-axis-tick" transform="translate(0, 0)"><line class="visx-line" x1="0" y1="57.5" x2="-8" y2="57.5" fill="transparent" shape-rendering="crispEdges" stroke="#222" stroke-width="0" stroke-linecap="square"></line><svg x="-30" y="0" font-size="8" style="overflow:visible"><text transform="" x="-8" y="57.5" fill="#000" font-size="8" text-anchor="start"><tspan x="-8" dy="0em">50%</tspan></text></svg></g><g class="visx-group visx-axis-tick" transform="translate(0, 0)"><line class="visx-line" x1="0" y1="0" x2="-8" y2="0" fill="transparent" shape-rendering="crispEdges" stroke="#222" stroke-width="0" stroke-linecap="square"></line><svg x="-30" y="0" font-size="8" style="overflow:visible"><text transform="" x="-8" y="0" fill="#000" font-size="8" text-anchor="start"><tspan x="-8" dy="0em">100%</tspan></text></svg></g><line class="visx-line visx-axis-line" x1="0" y1="115.5" x2="0" y2="0.5" fill="transparent" shape-rendering="crispEdges" stroke="#222" stroke-width="0"></line></g><rect class="visx-bar" width="1450" height="115" fill="transparent"></rect><line class="visx-line" x1="1305" y1="28" x2="1305" y2="115" fill="transparent" shape-rendering="crispEdges" stroke="#0062D2" stroke-width="1" pointer-events="none" stroke-dasharray="5,2"></line><svg x="0" y="0" font-size="10px" style="overflow:visible"><text transform="" x="1305" y="20" font-size="10px" fill="#fff" stroke="#fff" stroke-width="0.8em" text-anchor="middle"><tspan x="1305" dy="0.355em">Optimal 90%</tspan></text></svg><svg x="0" y="0" font-size="10px" style="overflow:visible"><text transform="" x="1305" y="20" font-size="10px" fill="#62677B" text-anchor="middle"><tspan x="1305" dy="0.355em">Optimal 90%</tspan></text></svg></g></svg>