<?xml version="1.0"?><svg xmlns="http://www.w3.org/2000/svg" xmlns:xlink= "http://www.w3.org/1999/xlink" style="background: white;" width="1500" height="185"> <g style="color: black; font-size: 13px; font-family: sans-serif; transform: translate(18px, 25px);"><g><circle r="3" cx="-6" cy="-5" style="fill: #B6509E" /><text>Borrow APR, variable</text></g><g style="transform: translateX(150px);"><circle r="3" cx="-6" cy="-5" style="fill: rgb(231, 198, 223)" /><text>Borrow APR, stable</text></g><g style="transform: translateX(290px);"><circle r="3" cx="-6" cy="-5" style="fill: rgb(0, 98, 210)" /><text>Utilization Rate</text></g></g><g class="visx-group" transform="translate(40, 50)"><g class="visx-group visx-rows" transform="translate(0, 0)"><line class="visx-line" x1="0" y1="115" x2="1450" y2="115" fill="transparent" shape-rendering="crispEdges" stroke="#000" stroke-width="1" stroke-dasharray="3,3" pointer-events="none"></line><line class="visx-line" x1="0" y1="69" x2="1450" y2="69" fill="transparent" shape-rendering="crispEdges" stroke="#000" stroke-width="1" stroke-dasharray="3,3" pointer-events="none"></line><line class="visx-line" x1="0" y1="22.999999999999996" x2="1450" y2="22.999999999999996" fill="transparent" shape-rendering="crispEdges" stroke="#000" stroke-width="1" stroke-dasharray="3,3" pointer-events="none"></line></g><path class="visx-linepath" d="M0,114.3099999998712C2.4166666666666665,114.2885333332582,4.833333333333334,114.26706666664519,7.25,114.2456C9.666666666666666,114.2241333333548,12.083333333333334,114.20266666666667,14.5,114.1812C16.916666666666668,114.15973333333334,19.333333333333332,114.13826666666667,21.75,114.1168C24.166666666666668,114.09533333333333,26.583333333333332,114.07386666666666,29,114.05239999999999C31.416666666666668,114.03093333333332,33.833333333333336,114.00946666666667,36.25,113.988C38.666666666666664,113.96653333333333,41.083333333333336,113.94506666666666,43.5,113.9236C45.91666666666667,113.90213333333332,48.333333333333336,113.88066666666667,50.75000000000001,113.8592C53.16666666666667,113.83773333333333,55.583333333333336,113.81626666666666,58,113.7948C60.416666666666664,113.77333333333333,62.833333333333336,113.75186666666666,65.25,113.73039999999999C67.66666666666667,113.70893333333332,70.08333333333333,113.68746666666667,72.5,113.666C74.91666666666667,113.64453333333333,77.33333333333333,113.62306666666667,79.75,113.6016C82.16666666666667,113.58013333333334,84.58333333333333,113.55866666666667,87,113.5372C89.41666666666667,113.51573333333333,91.83333333333333,113.49426666666668,94.25,113.4728C96.66666666666667,113.45133333333334,99.08333333333334,113.42986666666667,101.50000000000001,113.4084C103.91666666666667,113.38693333333333,106.33333333333334,113.36546666666668,108.75,113.34400000000001C111.16666666666667,113.32253333333334,113.58333333333333,113.30106666666667,116,113.2796C118.41666666666667,113.25813333333333,120.83333333333334,113.23666666666666,123.25000000000001,113.2152C125.66666666666667,113.19373333333333,128.08333333333334,113.17226666666667,130.5,113.1508C132.91666666666666,113.12933333333334,135.33333333333334,113.10786666666667,137.75,113.0864C140.16666666666666,113.06493333333333,142.58333333333334,113.04346666666667,145,113.022C147.41666666666666,113.00053333333334,149.83333333333334,112.97906666666667,152.25,112.9576C154.66666666666666,112.93613333333333,157.08333333333334,112.91466666666666,159.5,112.8932C161.91666666666666,112.87173333333332,164.33333333333334,112.85026666666667,166.75,112.8288C169.16666666666666,112.80733333333333,171.58333333333334,112.78586666666666,174,112.7644C176.41666666666666,112.74293333333333,178.83333333333334,112.72146666666667,181.25,112.7C183.66666666666666,112.67853333333333,186.08333333333334,112.65706666666667,188.5,112.6356C190.91666666666666,112.61413333333333,193.33333333333334,112.59266666666666,195.75,112.57119999999999C198.16666666666669,112.54973333333332,200.58333333333334,112.52826666666667,203.00000000000003,112.5068C205.41666666666669,112.48533333333333,207.83333333333331,112.46386666666666,210.24999999999997,112.44239999999999C212.66666666666666,112.42093333333332,215.08333333333331,112.39946666666667,217.5,112.378C219.91666666666666,112.35653333333333,222.33333333333334,112.33506666666666,224.75,112.3136C227.16666666666666,112.29213333333333,229.58333333333334,112.27066666666667,232,112.2492C234.41666666666666,112.22773333333333,236.83333333333334,112.20626666666666,239.25,112.1848C241.66666666666669,112.16333333333333,244.08333333333334,112.14186666666667,246.50000000000003,112.1204C248.91666666666669,112.09893333333333,251.33333333333331,112.07746666666668,253.74999999999997,112.05600000000001C256.16666666666663,112.03453333333334,258.5833333333333,112.01306666666667,261,111.9916C263.4166666666667,111.97013333333334,265.8333333333333,111.94866666666667,268.25,111.9272C270.6666666666667,111.90573333333333,273.0833333333333,111.88426666666668,275.5,111.86280000000001C277.9166666666667,111.84133333333334,280.3333333333333,111.81986666666667,282.75,111.7984C285.1666666666667,111.77693333333333,287.5833333333333,111.75546666666668,290,111.73400000000001C292.4166666666667,111.71253333333334,294.8333333333333,111.69106666666667,297.25,111.6696C299.6666666666667,111.64813333333333,302.0833333333333,111.62666666666667,304.5,111.6052C306.9166666666667,111.58373333333333,309.3333333333333,111.56226666666667,311.75,111.5408C314.1666666666667,111.51933333333334,316.5833333333333,111.49786666666667,319,111.4764C321.4166666666667,111.45493333333333,323.8333333333333,111.43346666666667,326.25,111.412C328.6666666666667,111.39053333333334,331.0833333333333,111.36906666666667,333.5,111.3476C335.9166666666667,111.32613333333333,338.3333333333333,111.30466666666666,340.75,111.2832C343.1666666666667,111.26173333333332,345.5833333333333,111.24026666666667,348,111.2188C350.4166666666667,111.19733333333333,352.8333333333333,111.17586666666666,355.25,111.1544C357.6666666666667,111.13293333333333,360.0833333333333,111.13293333333333,362.5,111.09C364.9166666666667,111.04706666666668,367.3333333333333,110.6892888888889,369.75,110.48893333333334C372.1666666666667,110.28857777777777,374.5833333333333,110.08822222222223,377,109.88786666666667C379.4166666666667,109.6875111111111,381.8333333333333,109.48715555555556,384.25,109.2868C386.6666666666667,109.08644444444444,389.0833333333333,108.88608888888889,391.5,108.68573333333333C393.9166666666667,108.48537777777777,396.33333333333337,108.28502222222222,398.75000000000006,108.08466666666666C401.16666666666674,107.88431111111112,403.58333333333337,107.68395555555557,406.00000000000006,107.48360000000001C408.4166666666667,107.28324444444445,410.8333333333333,107.08288888888889,413.24999999999994,106.88253333333333C415.66666666666663,106.68217777777777,418.08333333333326,106.48182222222222,420.49999999999994,106.28146666666667C422.91666666666663,106.08111111111111,425.3333333333333,105.88075555555557,427.75,105.6804C430.1666666666667,105.48004444444445,432.5833333333333,105.27968888888888,435,105.07933333333332C437.4166666666667,104.87897777777776,439.8333333333333,104.67862222222222,442.25,104.47826666666667C444.6666666666667,104.27791111111112,447.0833333333333,104.07755555555556,449.5,103.8772C451.9166666666667,103.67684444444444,454.3333333333333,103.4764888888889,456.75,103.27613333333333C459.1666666666667,103.07577777777777,461.5833333333333,102.87542222222223,464,102.67506666666667C466.4166666666667,102.4747111111111,468.8333333333333,102.27435555555556,471.25,102.074C473.6666666666667,101.87364444444444,476.0833333333333,101.67328888888889,478.5,101.47293333333333C480.9166666666667,101.27257777777777,483.33333333333337,101.07222222222222,485.75000000000006,100.87186666666666C488.16666666666674,100.67151111111112,490.58333333333337,100.47115555555557,493.00000000000006,100.27080000000001C495.4166666666667,100.07044444444445,497.8333333333333,99.87008888888889,500.24999999999994,99.66973333333333C502.66666666666663,99.46937777777777,505.08333333333326,99.2690222222222,507.49999999999994,99.06866666666666C509.91666666666663,98.8683111111111,512.3333333333333,98.66795555555557,514.75,98.4676C517.1666666666666,98.26724444444444,519.5833333333334,98.06688888888888,522,97.86653333333332C524.4166666666666,97.66617777777776,526.8333333333334,97.46582222222222,529.25,97.26546666666667C531.6666666666666,97.06511111111112,534.0833333333334,96.86475555555556,536.5,96.6644C538.9166666666666,96.46404444444444,541.3333333333334,96.26368888888888,543.75,96.06333333333332C546.1666666666666,95.86297777777776,548.5833333333334,95.66262222222221,551,95.46226666666666C553.4166666666666,95.26191111111112,555.8333333333334,95.06155555555557,558.25,94.86120000000001C560.6666666666666,94.66084444444445,563.0833333333334,94.46048888888889,565.5,94.26013333333333C567.9166666666666,94.05977777777777,570.3333333333334,93.85942222222221,572.75,93.65906666666666C575.1666666666666,93.45871111111111,577.5833333333334,93.25835555555557,580,93.058C582.4166666666666,92.85764444444445,584.8333333333334,92.65728888888889,587.25,92.45693333333332C589.6666666666666,92.25657777777776,592.0833333333334,92.05622222222222,594.5,91.85586666666667C596.9166666666666,91.65551111111112,599.3333333333334,91.45515555555556,601.75,91.2548C604.1666666666666,91.05444444444444,606.5833333333334,90.8540888888889,609,90.65373333333334C611.4166666666666,90.45337777777777,613.8333333333334,90.25302222222223,616.25,90.05266666666667C618.6666666666666,89.8523111111111,621.0833333333334,89.65195555555556,623.5,89.4516C625.9166666666666,89.25124444444444,628.3333333333334,89.05088888888889,630.75,88.85053333333333C633.1666666666666,88.65017777777777,635.5833333333334,88.44982222222222,638,88.24946666666666C640.4166666666666,88.0491111111111,642.8333333333334,87.84875555555554,645.25,87.6484C647.6666666666666,87.44804444444445,650.0833333333334,87.2476888888889,652.5,87.04733333333334C654.9166666666666,86.84697777777778,657.3333333333334,86.64662222222222,659.75,86.44626666666666C662.1666666666666,86.2459111111111,664.5833333333334,86.04555555555555,667,85.8452C669.4166666666666,85.64484444444446,671.8333333333334,85.4444888888889,674.25,85.24413333333334C676.6666666666666,85.04377777777778,679.0833333333334,84.84342222222222,681.5,84.64306666666666C683.9166666666666,84.4427111111111,686.3333333333334,84.24235555555553,688.75,84.04199999999999C691.1666666666666,83.84164444444444,693.5833333333334,83.6412888888889,696,83.44093333333335C698.4166666666666,83.2405777777778,700.8333333333334,83.04022222222223,703.25,82.83986666666667C705.6666666666666,82.6395111111111,708.0833333333334,82.43915555555554,710.5,82.2388C712.9166666666666,82.03844444444445,715.3333333333334,81.8380888888889,717.75,81.63773333333334C720.1666666666666,81.43737777777778,722.5833333333334,81.23702222222222,725,81.03666666666666C727.4166666666666,80.8363111111111,729.8333333333334,80.63595555555555,732.25,80.43560000000001C734.6666666666666,80.23524444444446,737.0833333333334,80.0348888888889,739.5,79.83453333333334C741.9166666666666,79.63417777777778,744.3333333333334,79.43382222222222,746.75,79.23346666666666C749.1666666666666,79.0331111111111,751.5833333333334,78.83275555555554,754,78.63239999999999C756.4166666666666,78.43204444444444,758.8333333333334,78.2316888888889,761.25,78.03133333333335C763.6666666666666,77.8309777777778,766.0833333333334,77.63062222222223,768.5,77.43026666666667C770.9166666666666,77.22991111111111,773.3333333333334,77.02955555555556,775.75,76.8292C778.1666666666666,76.62884444444444,780.5833333333334,76.4284888888889,783,76.22813333333333C785.4166666666667,76.02777777777777,787.8333333333334,75.82742222222222,790.2500000000001,75.62706666666666C792.6666666666667,75.4267111111111,795.0833333333335,75.22635555555554,797.5000000000001,75.026C799.9166666666667,74.82564444444445,802.3333333333335,74.6252888888889,804.7500000000001,74.42493333333334C807.1666666666667,74.22457777777778,809.5833333333335,74.02422222222222,812.0000000000001,73.82386666666666C814.4166666666667,73.6235111111111,816.8333333333333,73.42315555555554,819.2499999999999,73.22279999999999C821.6666666666665,73.02244444444443,824.0833333333333,72.8220888888889,826.4999999999999,72.62173333333334C828.9166666666665,72.42137777777778,831.3333333333333,72.22102222222222,833.7499999999999,72.02066666666666C836.1666666666665,71.8203111111111,838.5833333333333,71.61995555555555,840.9999999999999,71.4196C843.4166666666666,71.21924444444444,845.8333333333333,71.0188888888889,848.25,70.81853333333333C850.6666666666666,70.61817777777777,853.0833333333334,70.41782222222223,855.5,70.21746666666667C857.9166666666666,70.0171111111111,860.3333333333334,69.81675555555555,862.75,69.6164C865.1666666666666,69.41604444444445,867.5833333333334,69.2156888888889,870,69.01533333333334C872.4166666666666,68.81497777777778,874.8333333333334,68.61462222222222,877.25,68.41426666666666C879.6666666666666,68.2139111111111,882.0833333333334,68.01355555555554,884.5,67.8132C886.9166666666666,67.61284444444445,889.3333333333334,67.4124888888889,891.75,67.21213333333334C894.1666666666666,67.01177777777778,896.5833333333334,66.81142222222222,899,66.61106666666666C901.4166666666666,66.4107111111111,903.8333333333334,66.21035555555555,906.25,66.01C908.6666666666666,65.80964444444446,911.0833333333334,65.6092888888889,913.5,65.40893333333334C915.9166666666666,65.20857777777778,918.3333333333334,65.00822222222223,920.75,64.80786666666667C923.1666666666666,64.60751111111111,925.5833333333334,64.40715555555553,928,64.20679999999999C930.4166666666666,64.00644444444444,932.8333333333334,63.8060888888889,935.25,63.60573333333335C937.6666666666666,63.405377777777794,940.0833333333334,63.20502222222221,942.5,63.00466666666666C944.9166666666666,62.804311111111105,947.3333333333334,62.60395555555556,949.75,62.403600000000004C952.1666666666666,62.20324444444445,954.5833333333334,62.00288888888889,957,61.80253333333333C959.4166666666666,61.60217777777777,961.8333333333334,61.40182222222221,964.25,61.201466666666654C966.6666666666667,61.0011111111111,969.0833333333334,60.800755555555554,971.5000000000001,60.6004C973.9166666666667,60.40004444444445,976.3333333333335,60.19968888888889,978.7500000000001,59.99933333333334C981.1666666666667,59.798977777777786,983.5833333333335,59.59862222222222,986.0000000000001,59.398266666666665C988.4166666666667,59.19791111111111,990.8333333333335,58.99755555555555,993.2500000000001,58.7972C995.6666666666667,58.59684444444445,998.0833333333333,58.3964888888889,1000.4999999999999,58.19613333333335C1002.9166666666665,57.99577777777779,1005.3333333333333,57.795422222222214,1007.7499999999999,57.59506666666666C1010.1666666666665,57.39471111111111,1012.5833333333333,57.19435555555556,1014.9999999999999,56.99400000000001C1017.4166666666665,56.79364444444445,1019.8333333333333,56.593288888888885,1022.2499999999999,56.39293333333333C1024.6666666666665,56.19257777777777,1027.0833333333333,55.992222222222225,1029.5,55.79186666666667C1031.9166666666667,55.59151111111112,1034.3333333333333,55.39115555555556,1036.75,55.1908C1039.1666666666667,54.99044444444445,1041.5833333333333,54.790088888888896,1044,54.58973333333334C1046.4166666666667,54.38937777777779,1048.8333333333333,54.18902222222222,1051.25,53.98866666666667C1053.6666666666667,53.78831111111111,1056.0833333333333,53.58795555555555,1058.5,53.3876C1060.9166666666667,53.187244444444445,1063.3333333333333,52.98688888888888,1065.75,52.786533333333324C1068.1666666666667,52.58617777777777,1070.5833333333333,52.38582222222223,1073,52.18546666666668C1075.4166666666667,51.985111111111124,1077.8333333333333,51.78475555555555,1080.25,51.584399999999995C1082.6666666666667,51.38404444444444,1085.0833333333333,51.18368888888889,1087.5,50.983333333333334C1089.9166666666667,50.78297777777778,1092.3333333333333,50.58262222222222,1094.75,50.382266666666666C1097.1666666666667,50.18191111111111,1099.5833333333333,49.98155555555556,1102,49.781200000000005C1104.4166666666667,49.58084444444445,1106.8333333333333,49.380488888888884,1109.25,49.18013333333333C1111.6666666666667,48.97977777777778,1114.0833333333333,48.77942222222223,1116.5,48.57906666666668C1118.9166666666667,48.37871111111112,1121.3333333333333,48.17835555555555,1123.75,47.97799999999999C1126.1666666666667,47.77764444444443,1128.5833333333333,47.57728888888888,1131,47.37693333333333C1133.4166666666667,47.17657777777777,1135.8333333333333,46.976222222222226,1138.25,46.77586666666667C1140.6666666666667,46.57551111111112,1143.0833333333333,46.37515555555555,1145.5,46.1748C1147.9166666666667,45.974444444444444,1150.3333333333333,45.77408888888888,1152.75,45.57373333333333C1155.1666666666667,45.373377777777776,1157.5833333333333,45.17302222222222,1160,44.97266666666667C1162.4166666666667,44.772311111111115,1164.8333333333333,44.57195555555555,1167.25,44.371599999999994C1169.6666666666667,44.17124444444444,1172.0833333333333,43.97088888888889,1174.5,43.77053333333333C1176.9166666666667,43.57017777777778,1179.3333333333333,43.36982222222222,1181.75,43.169466666666665C1184.1666666666667,42.96911111111111,1186.5833333333333,42.76875555555554,1189,42.56839999999999C1191.4166666666667,42.368044444444436,1193.8333333333333,42.1676888888889,1196.25,41.96733333333334C1198.6666666666667,41.76697777777779,1201.0833333333333,41.56662222222223,1203.5,41.366266666666675C1205.9166666666667,41.16591111111112,1208.3333333333333,40.965555555555554,1210.75,40.7652C1213.1666666666667,40.56484444444445,1215.5833333333333,40.364488888888886,1218,40.16413333333333C1220.4166666666667,39.96377777777778,1222.8333333333333,39.763422222222225,1225.25,39.56306666666667C1227.6666666666667,39.36271111111112,1230.0833333333333,39.16235555555555,1232.5,38.961999999999996C1234.9166666666667,38.76164444444444,1237.3333333333333,38.561288888888896,1239.75,38.36093333333334C1242.1666666666667,38.16057777777779,1244.5833333333333,37.96022222222223,1247,37.75986666666667C1249.4166666666667,37.55951111111111,1251.8333333333333,37.359155555555546,1254.25,37.15879999999999C1256.6666666666667,36.95844444444444,1259.0833333333333,36.75808888888889,1261.5,36.55773333333334C1263.9166666666667,36.357377777777785,1266.3333333333333,36.15702222222223,1268.75,35.95666666666668C1271.1666666666667,35.756311111111124,1273.5833333333333,35.55595555555555,1276,35.355599999999995C1278.4166666666667,35.15524444444444,1280.8333333333333,34.95488888888889,1283.25,34.754533333333335C1285.6666666666667,34.55417777777778,1288.0833333333333,34.35382222222223,1290.5,34.153466666666674C1292.9166666666667,33.95311111111112,1295.3333333333333,33.75275555555556,1297.75,33.552400000000006C1300.1666666666667,33.35204444444445,1302.5833333333333,33.151688888888884,1305,32.95133333333333C1307.4166666666667,32.75097777777778,1309.8333333333333,32.55062222222222,1312.25,32.35026666666667C1314.6666666666667,32.149911111111116,1317.0833333333333,31.94955555555554,1319.5,31.749199999999988C1321.9166666666667,31.548844444444434,1324.3333333333333,31.348488888888895,1326.75,31.14813333333334C1329.1666666666667,30.947777777777787,1331.5833333333333,30.747422222222227,1334,30.54706666666667C1336.4166666666667,30.346711111111112,1338.8333333333333,30.14635555555555,1341.25,29.945999999999994C1343.6666666666667,29.745644444444437,1346.0833333333333,29.545288888888876,1348.5,29.344933333333323C1350.9166666666667,29.14457777777777,1353.3333333333333,28.94422222222223,1355.75,28.743866666666676C1358.1666666666667,28.543511111111123,1360.5833333333333,28.34315555555555,1363,28.142799999999994C1365.4166666666667,27.942444444444437,1367.8333333333333,27.742088888888887,1370.25,27.541733333333333C1372.6666666666667,27.34137777777778,1375.0833333333333,27.14102222222222,1377.5,26.94066666666666C1379.9166666666667,26.740311111111104,1382.3333333333333,26.539955555555544,1384.75,26.33959999999999C1387.1666666666667,26.139244444444437,1389.5833333333333,25.938888888888897,1392,25.738533333333343C1394.4166666666667,25.53817777777779,1396.8333333333333,25.33782222222223,1399.25,25.137466666666672C1401.6666666666667,24.937111111111115,1404.0833333333333,24.736755555555558,1406.5,24.5364C1408.9166666666667,24.336044444444443,1411.3333333333333,24.135688888888883,1413.75,23.93533333333333C1416.1666666666667,23.734977777777775,1418.5833333333333,23.534622222222236,1421,23.334266666666682C1423.4166666666667,23.13391111111113,1425.8333333333333,22.93355555555557,1428.25,22.73320000000001C1430.6666666666667,22.53284444444445,1433.0833333333333,22.332488888888882,1435.5,22.132133333333325C1437.9166666666667,21.931777777777768,1440.3333333333333,21.731422222222218,1442.75,21.531066666666664C1445.1666666666667,21.33071111111111,1447.5833333333333,21.13035555555556,1450,20.930000000000007" fill="transparent" stroke-linecap="round" stroke="#B6509E" stroke-width="2"></path><path class="visx-linepath" d="M0,112.6999999998436C2.4166666666666665,112.67393333324209,4.833333333333334,112.6478666666406,7.25,112.6218C9.666666666666666,112.59573333335939,12.083333333333334,112.56966666666666,14.5,112.5436C16.916666666666668,112.51753333333333,19.333333333333332,112.49146666666665,21.75,112.46539999999999C24.166666666666668,112.43933333333332,26.583333333333332,112.41326666666667,29,112.3872C31.416666666666668,112.36113333333334,33.833333333333336,112.33506666666666,36.25,112.309C38.666666666666664,112.28293333333333,41.083333333333336,112.25686666666667,43.5,112.2308C45.91666666666667,112.20473333333334,48.333333333333336,112.17866666666666,50.75000000000001,112.15259999999999C53.16666666666667,112.12653333333333,55.583333333333336,112.10046666666666,58,112.0744C60.416666666666664,112.04833333333333,62.833333333333336,112.02226666666667,65.25,111.9962C67.66666666666667,111.97013333333334,70.08333333333333,111.94406666666666,72.5,111.91799999999999C74.91666666666667,111.89193333333333,77.33333333333333,111.86586666666668,79.75,111.83980000000001C82.16666666666667,111.81373333333335,84.58333333333333,111.78766666666667,87,111.7616C89.41666666666667,111.73553333333334,91.83333333333333,111.70946666666667,94.25,111.6834C96.66666666666667,111.65733333333334,99.08333333333334,111.63126666666666,101.50000000000001,111.6052C103.91666666666667,111.57913333333333,106.33333333333334,111.55306666666667,108.75,111.527C111.16666666666667,111.50093333333334,113.58333333333333,111.47486666666666,116,111.44879999999999C118.41666666666667,111.42273333333333,120.83333333333334,111.39666666666666,123.25000000000001,111.3706C125.66666666666667,111.34453333333333,128.08333333333334,111.31846666666667,130.5,111.2924C132.91666666666666,111.26633333333334,135.33333333333334,111.24026666666666,137.75,111.21419999999999C140.16666666666666,111.18813333333333,142.58333333333334,111.16206666666668,145,111.13600000000001C147.41666666666666,111.10993333333334,149.83333333333334,111.08386666666667,152.25,111.0578C154.66666666666666,111.03173333333334,157.08333333333334,111.00566666666667,159.5,110.9796C161.91666666666666,110.95353333333334,164.33333333333334,110.92746666666666,166.75,110.9014C169.16666666666666,110.87533333333333,171.58333333333334,110.84926666666667,174,110.8232C176.41666666666666,110.79713333333333,178.83333333333334,110.77106666666666,181.25,110.74499999999999C183.66666666666666,110.71893333333333,186.08333333333334,110.69286666666666,188.5,110.6668C190.91666666666666,110.64073333333333,193.33333333333334,110.61466666666666,195.75,110.5886C198.16666666666669,110.56253333333333,200.58333333333334,110.53646666666667,203.00000000000003,110.5104C205.41666666666669,110.48433333333334,207.83333333333331,110.45826666666667,210.24999999999997,110.43220000000001C212.66666666666666,110.40613333333334,215.08333333333331,110.38006666666666,217.5,110.354C219.91666666666666,110.32793333333333,222.33333333333334,110.30186666666667,224.75,110.2758C227.16666666666666,110.24973333333334,229.58333333333334,110.22366666666666,232,110.1976C234.41666666666666,110.17153333333333,236.83333333333334,110.14546666666666,239.25,110.1194C241.66666666666669,110.09333333333333,244.08333333333334,110.06726666666665,246.50000000000003,110.04119999999999C248.91666666666669,110.01513333333332,251.33333333333331,109.98906666666667,253.74999999999997,109.96300000000001C256.16666666666663,109.93693333333334,258.5833333333333,109.91086666666666,261,109.8848C263.4166666666667,109.85873333333333,265.8333333333333,109.83266666666667,268.25,109.8066C270.6666666666667,109.78053333333334,273.0833333333333,109.75446666666667,275.5,109.72840000000001C277.9166666666667,109.70233333333334,280.3333333333333,109.67626666666666,282.75,109.6502C285.1666666666667,109.62413333333333,287.5833333333333,109.59806666666667,290,109.572C292.4166666666667,109.54593333333334,294.8333333333333,109.51986666666666,297.25,109.4938C299.6666666666667,109.46773333333333,302.0833333333333,109.44166666666668,304.5,109.41560000000001C306.9166666666667,109.38953333333335,309.3333333333333,109.36346666666667,311.75,109.3374C314.1666666666667,109.31133333333334,316.5833333333333,109.28526666666667,319,109.2592C321.4166666666667,109.23313333333334,323.8333333333333,109.20706666666666,326.25,109.181C328.6666666666667,109.15493333333333,331.0833333333333,109.12886666666667,333.5,109.1028C335.9166666666667,109.07673333333334,338.3333333333333,109.05066666666666,340.75,109.02459999999999C343.1666666666667,108.99853333333333,345.5833333333333,108.97246666666666,348,108.9464C350.4166666666667,108.92033333333333,352.8333333333333,108.89426666666667,355.25,108.8682C357.6666666666667,108.84213333333334,360.0833333333333,108.84213333333334,362.5,108.78999999999999C364.9166666666667,108.73786666666665,367.3333333333333,108.38928888888888,369.75,108.18893333333334C372.1666666666667,107.98857777777779,374.5833333333333,107.78822222222223,377,107.58786666666667C379.4166666666667,107.38751111111111,381.8333333333333,107.18715555555556,384.25,106.9868C386.6666666666667,106.78644444444444,389.0833333333333,106.5860888888889,391.5,106.38573333333333C393.9166666666667,106.18537777777777,396.33333333333337,105.98502222222223,398.75000000000006,105.78466666666667C401.16666666666674,105.5843111111111,403.58333333333337,105.38395555555556,406.00000000000006,105.1836C408.4166666666667,104.98324444444444,410.8333333333333,104.78288888888888,413.24999999999994,104.58253333333333C415.66666666666663,104.38217777777777,418.08333333333326,104.18182222222224,420.49999999999994,103.98146666666668C422.91666666666663,103.78111111111112,425.3333333333333,103.58075555555556,427.75,103.3804C430.1666666666667,103.18004444444443,432.5833333333333,102.97968888888889,435,102.77933333333334C437.4166666666667,102.5789777777778,439.8333333333333,102.37862222222223,442.25,102.17826666666667C444.6666666666667,101.97791111111111,447.0833333333333,101.77755555555555,449.5,101.57719999999999C451.9166666666667,101.37684444444443,454.3333333333333,101.17648888888888,456.75,100.97613333333334C459.1666666666667,100.77577777777779,461.5833333333333,100.57542222222223,464,100.37506666666667C466.4166666666667,100.17471111111111,468.8333333333333,99.97435555555555,471.25,99.77399999999999C473.6666666666667,99.57364444444443,476.0833333333333,99.37328888888888,478.5,99.17293333333333C480.9166666666667,98.97257777777777,483.33333333333337,98.77222222222223,485.75000000000006,98.57186666666666C488.16666666666674,98.3715111111111,490.58333333333337,98.17115555555556,493.00000000000006,97.9708C495.4166666666667,97.77044444444444,497.8333333333333,97.57008888888888,500.24999999999994,97.36973333333333C502.66666666666663,97.16937777777777,505.08333333333326,96.96902222222224,507.49999999999994,96.76866666666668C509.91666666666663,96.56831111111111,512.3333333333333,96.36795555555555,514.75,96.1676C517.1666666666666,95.96724444444443,519.5833333333334,95.76688888888889,522,95.56653333333334C524.4166666666666,95.36617777777779,526.8333333333334,95.16582222222223,529.25,94.96546666666667C531.6666666666666,94.76511111111111,534.0833333333334,94.56475555555555,536.5,94.36439999999999C538.9166666666666,94.16404444444443,541.3333333333334,93.96368888888888,543.75,93.76333333333334C546.1666666666666,93.56297777777779,548.5833333333334,93.36262222222223,551,93.16226666666667C553.4166666666666,92.9619111111111,555.8333333333334,92.76155555555556,558.25,92.5612C560.6666666666666,92.36084444444444,563.0833333333334,92.16048888888889,565.5,91.96013333333333C567.9166666666666,91.75977777777777,570.3333333333334,91.55942222222222,572.75,91.35906666666666C575.1666666666666,91.1587111111111,577.5833333333334,90.95835555555556,580,90.758C582.4166666666666,90.55764444444443,584.8333333333334,90.35728888888887,587.25,90.15693333333333C589.6666666666666,89.95657777777778,592.0833333333334,89.75622222222223,594.5,89.55586666666667C596.9166666666666,89.35551111111111,599.3333333333334,89.15515555555555,601.75,88.95479999999999C604.1666666666666,88.75444444444443,606.5833333333334,88.55408888888887,609,88.35373333333332C611.4166666666666,88.15337777777778,613.8333333333334,87.95302222222222,616.25,87.75266666666667C618.6666666666666,87.55231111111112,621.0833333333334,87.35195555555556,623.5,87.1516C625.9166666666666,86.95124444444444,628.3333333333334,86.7508888888889,630.75,86.55053333333333C633.1666666666666,86.35017777777777,635.5833333333334,86.14982222222223,638,85.94946666666667C640.4166666666666,85.7491111111111,642.8333333333334,85.54875555555556,645.25,85.3484C647.6666666666666,85.14804444444444,650.0833333333334,84.94768888888888,652.5,84.74733333333333C654.9166666666666,84.54697777777778,657.3333333333334,84.34662222222222,659.75,84.14626666666668C662.1666666666666,83.94591111111113,664.5833333333334,83.74555555555557,667,83.54520000000001C669.4166666666666,83.34484444444445,671.8333333333334,83.14448888888889,674.25,82.94413333333333C676.6666666666666,82.74377777777777,679.0833333333334,82.54342222222222,681.5,82.34306666666667C683.9166666666666,82.14271111111113,686.3333333333334,81.94235555555557,688.75,81.742C691.1666666666666,81.54164444444444,693.5833333333334,81.3412888888889,696,81.14093333333334C698.4166666666666,80.94057777777778,700.8333333333334,80.74022222222223,703.25,80.53986666666667C705.6666666666666,80.33951111111111,708.0833333333334,80.13915555555556,710.5,79.9388C712.9166666666666,79.73844444444444,715.3333333333334,79.53808888888886,717.75,79.33773333333332C720.1666666666666,79.13737777777777,722.5833333333334,78.93702222222223,725,78.73666666666668C727.4166666666666,78.53631111111113,729.8333333333334,78.33595555555557,732.25,78.13560000000001C734.6666666666666,77.93524444444445,737.0833333333334,77.73488888888889,739.5,77.53453333333333C741.9166666666666,77.33417777777777,744.3333333333334,77.13382222222221,746.75,76.93346666666666C749.1666666666666,76.73311111111111,751.5833333333334,76.53275555555557,754,76.3324C756.4166666666666,76.13204444444445,758.8333333333334,75.93168888888889,761.25,75.73133333333332C763.6666666666666,75.53097777777776,766.0833333333334,75.33062222222222,768.5,75.13026666666667C770.9166666666666,74.92991111111112,773.3333333333334,74.72955555555556,775.75,74.5292C778.1666666666666,74.32884444444444,780.5833333333334,74.12848888888888,783,73.92813333333332C785.4166666666667,73.72777777777776,787.8333333333334,73.52742222222223,790.2500000000001,73.32706666666667C792.6666666666667,73.12671111111112,795.0833333333335,72.92635555555556,797.5000000000001,72.726C799.9166666666667,72.52564444444444,802.3333333333335,72.32528888888889,804.7500000000001,72.12493333333333C807.1666666666667,71.92457777777777,809.5833333333335,71.72422222222222,812.0000000000001,71.52386666666666C814.4166666666667,71.32351111111112,816.8333333333333,71.12315555555554,819.2499999999999,70.9228C821.6666666666665,70.72244444444443,824.0833333333333,70.52208888888887,826.4999999999999,70.32173333333333C828.9166666666665,70.12137777777778,831.3333333333333,69.92102222222222,833.7499999999999,69.72066666666667C836.1666666666665,69.52031111111113,838.5833333333333,69.31995555555557,840.9999999999999,69.1196C843.4166666666666,68.91924444444444,845.8333333333333,68.71888888888888,848.25,68.51853333333332C850.6666666666666,68.31817777777776,853.0833333333334,68.1178222222222,855.5,67.91746666666666C857.9166666666666,67.71711111111111,860.3333333333334,67.51675555555555,862.75,67.3164C865.1666666666666,67.11604444444446,867.5833333333334,66.9156888888889,870,66.71533333333333C872.4166666666666,66.51497777777777,874.8333333333334,66.31462222222223,877.25,66.11426666666667C879.6666666666666,65.9139111111111,882.0833333333334,65.71355555555556,884.5,65.5132C886.9166666666666,65.31284444444444,889.3333333333334,65.11248888888889,891.75,64.91213333333333C894.1666666666666,64.71177777777777,896.5833333333334,64.51142222222221,899,64.31106666666666C901.4166666666666,64.11071111111112,903.8333333333334,63.91035555555556,906.25,63.71000000000001C908.6666666666666,63.509644444444454,911.0833333333334,63.30928888888889,913.5,63.10893333333333C915.9166666666666,62.90857777777778,918.3333333333334,62.70822222222222,920.75,62.507866666666665C923.1666666666666,62.30751111111111,925.5833333333334,62.10715555555557,928,61.90680000000002C930.4166666666666,61.706444444444465,932.8333333333334,61.50608888888889,935.25,61.30573333333333C937.6666666666666,61.10537777777777,940.0833333333334,60.90502222222222,942.5,60.70466666666667C944.9166666666666,60.504311111111114,947.3333333333334,60.303955555555554,949.75,60.1036C952.1666666666666,59.90324444444445,954.5833333333334,59.70288888888888,957,59.502533333333325C959.4166666666666,59.30217777777777,961.8333333333334,59.101822222222225,964.25,58.90146666666667C966.6666666666667,58.70111111111112,969.0833333333334,58.50075555555557,971.5000000000001,58.30040000000001C973.9166666666667,58.10004444444446,976.3333333333335,57.89968888888889,978.7500000000001,57.699333333333335C981.1666666666667,57.49897777777778,983.5833333333335,57.29862222222223,986.0000000000001,57.098266666666674C988.4166666666667,56.89791111111112,990.8333333333335,56.69755555555555,993.2500000000001,56.49719999999999C995.6666666666667,56.29684444444444,998.0833333333333,56.0964888888889,1000.4999999999999,55.896133333333346C1002.9166666666665,55.695777777777785,1005.3333333333333,55.49542222222222,1007.7499999999999,55.29506666666666C1010.1666666666665,55.09471111111111,1012.5833333333333,54.894355555555556,1014.9999999999999,54.694C1017.4166666666665,54.49364444444445,1019.8333333333333,54.29328888888888,1022.2499999999999,54.09293333333333C1024.6666666666665,53.89257777777777,1027.0833333333333,53.69222222222221,1029.5,53.49186666666666C1031.9166666666667,53.291511111111106,1034.3333333333333,53.09115555555555,1036.75,52.8908C1039.1666666666667,52.690444444444445,1041.5833333333333,52.49008888888889,1044,52.28973333333334C1046.4166666666667,52.089377777777784,1048.8333333333333,51.88902222222221,1051.25,51.688666666666656C1053.6666666666667,51.4883111111111,1056.0833333333333,51.28795555555555,1058.5,51.087599999999995C1060.9166666666667,50.88724444444444,1063.3333333333333,50.68688888888889,1065.75,50.486533333333334C1068.1666666666667,50.28617777777778,1070.5833333333333,50.08582222222222,1073,49.885466666666666C1075.4166666666667,49.68511111111111,1077.8333333333333,49.484755555555545,1080.25,49.28439999999999C1082.6666666666667,49.08404444444444,1085.0833333333333,48.88368888888889,1087.5,48.68333333333334C1089.9166666666667,48.48297777777778,1092.3333333333333,48.2826222222222,1094.75,48.08226666666665C1097.1666666666667,47.881911111111094,1099.5833333333333,47.681555555555555,1102,47.4812C1104.4166666666667,47.28084444444445,1106.8333333333333,47.08048888888889,1109.25,46.88013333333333C1111.6666666666667,46.67977777777778,1114.0833333333333,46.47942222222221,1116.5,46.27906666666666C1118.9166666666667,46.078711111111105,1121.3333333333333,45.87835555555555,1123.75,45.678C1126.1666666666667,45.477644444444444,1128.5833333333333,45.2772888888889,1131,45.07693333333334C1133.4166666666667,44.87657777777779,1135.8333333333333,44.67622222222223,1138.25,44.47586666666667C1140.6666666666667,44.27551111111111,1143.0833333333333,44.07515555555555,1145.5,43.87479999999999C1147.9166666666667,43.67444444444444,1150.3333333333333,43.47408888888889,1152.75,43.27373333333334C1155.1666666666667,43.073377777777786,1157.5833333333333,42.87302222222222,1160,42.672666666666665C1162.4166666666667,42.47231111111111,1164.8333333333333,42.27195555555556,1167.25,42.071600000000004C1169.6666666666667,41.87124444444445,1172.0833333333333,41.67088888888889,1174.5,41.470533333333336C1176.9166666666667,41.27017777777778,1179.3333333333333,41.069822222222214,1181.75,40.86946666666666C1184.1666666666667,40.66911111111111,1186.5833333333333,40.468755555555546,1189,40.26839999999999C1191.4166666666667,40.06804444444444,1193.8333333333333,39.8676888888889,1196.25,39.667333333333346C1198.6666666666667,39.46697777777779,1201.0833333333333,39.26662222222221,1203.5,39.06626666666666C1205.9166666666667,38.8659111111111,1208.3333333333333,38.66555555555556,1210.75,38.4652C1213.1666666666667,38.26484444444445,1215.5833333333333,38.06448888888888,1218,37.86413333333333C1220.4166666666667,37.663777777777774,1222.8333333333333,37.46342222222222,1225.25,37.26306666666667C1227.6666666666667,37.06271111111111,1230.0833333333333,36.86235555555555,1232.5,36.662C1234.9166666666667,36.461644444444445,1237.3333333333333,36.26128888888889,1239.75,36.06093333333334C1242.1666666666667,35.860577777777785,1244.5833333333333,35.66022222222221,1247,35.459866666666656C1249.4166666666667,35.2595111111111,1251.8333333333333,35.05915555555556,1254.25,34.85880000000001C1256.6666666666667,34.658444444444456,1259.0833333333333,34.458088888888895,1261.5,34.257733333333334C1263.9166666666667,34.05737777777777,1266.3333333333333,33.85702222222221,1268.75,33.65666666666666C1271.1666666666667,33.456311111111106,1273.5833333333333,33.255955555555545,1276,33.05559999999999C1278.4166666666667,32.85524444444444,1280.8333333333333,32.654888888888884,1283.25,32.45453333333333C1285.6666666666667,32.25417777777778,1288.0833333333333,32.05382222222223,1290.5,31.853466666666673C1292.9166666666667,31.65311111111112,1295.3333333333333,31.452755555555555,1297.75,31.2524C1300.1666666666667,31.052044444444448,1302.5833333333333,30.851688888888898,1305,30.65133333333334C1307.4166666666667,30.450977777777783,1309.8333333333333,30.25062222222221,1312.25,30.050266666666655C1314.6666666666667,29.8499111111111,1317.0833333333333,29.649555555555562,1319.5,29.44920000000001C1321.9166666666667,29.248844444444455,1324.3333333333333,29.048488888888894,1326.75,28.848133333333337C1329.1666666666667,28.64777777777778,1331.5833333333333,28.447422222222222,1334,28.247066666666665C1336.4166666666667,28.046711111111108,1338.8333333333333,27.846355555555547,1341.25,27.645999999999994C1343.6666666666667,27.44564444444444,1346.0833333333333,27.2452888888889,1348.5,27.044933333333347C1350.9166666666667,26.844577777777793,1353.3333333333333,26.64422222222222,1355.75,26.44386666666666C1358.1666666666667,26.243511111111104,1360.5833333333333,26.043155555555558,1363,25.842800000000004C1365.4166666666667,25.64244444444445,1367.8333333333333,25.44208888888889,1370.25,25.241733333333332C1372.6666666666667,25.041377777777775,1375.0833333333333,24.841022222222215,1377.5,24.64066666666666C1379.9166666666667,24.440311111111107,1382.3333333333333,24.239955555555554,1384.75,24.0396C1387.1666666666667,23.839244444444446,1389.5833333333333,23.6388888888889,1392,23.438533333333343C1394.4166666666667,23.238177777777786,1396.8333333333333,23.037822222222214,1399.25,22.837466666666657C1401.6666666666667,22.6371111111111,1404.0833333333333,22.436755555555546,1406.5,22.236399999999996C1408.9166666666667,22.036044444444446,1411.3333333333333,21.835688888888903,1413.75,21.63533333333335C1416.1666666666667,21.434977777777796,1418.5833333333333,21.234622222222225,1421,21.034266666666667C1423.4166666666667,20.83391111111111,1425.8333333333333,20.63355555555555,1428.25,20.433199999999996C1430.6666666666667,20.232844444444442,1433.0833333333333,20.03248888888889,1435.5,19.832133333333335C1437.9166666666667,19.63177777777778,1440.3333333333333,19.43142222222222,1442.75,19.231066666666663C1445.1666666666667,19.030711111111106,1447.5833333333333,18.83035555555555,1450,18.629999999999992" fill="transparent" stroke-linecap="round" stroke="#E7C6DF" stroke-width="2"></path><g class="visx-group visx-axis visx-axis-bottom" transform="translate(0, 115)"><g class="visx-group visx-axis-tick" transform="translate(0, 0)"><line class="visx-line" x1="0" y1="0" x2="0" y2="8" fill="transparent" shape-rendering="crispEdges" stroke="#000" stroke-width="0" stroke-linecap="square"></line><svg x="0" y="0" font-size="10" style="overflow:visible"><text transform="" x="0" y="18" fill="#000" font-size="10" text-anchor="middle"><tspan x="0" dy="0em">0%</tspan></text></svg></g><g class="visx-group visx-axis-tick" transform="translate(0, 0)"><line class="visx-line" x1="362.5" y1="0" x2="362.5" y2="8" fill="transparent" shape-rendering="crispEdges" stroke="#000" stroke-width="0" stroke-linecap="square"></line><svg x="0" y="0" font-size="10" style="overflow:visible"><text transform="" x="362.5" y="18" fill="#000" font-size="10" text-anchor="middle"><tspan x="362.5" dy="0em">25%</tspan></text></svg></g><g class="visx-group visx-axis-tick" transform="translate(0, 0)"><line class="visx-line" x1="725" y1="0" x2="725" y2="8" fill="transparent" shape-rendering="crispEdges" stroke="#000" stroke-width="0" stroke-linecap="square"></line><svg x="0" y="0" font-size="10" style="overflow:visible"><text transform="" x="725" y="18" fill="#000" font-size="10" text-anchor="middle"><tspan x="725" dy="0em">50%</tspan></text></svg></g><g class="visx-group visx-axis-tick" transform="translate(0, 0)"><line class="visx-line" x1="1087.5" y1="0" x2="1087.5" y2="8" fill="transparent" shape-rendering="crispEdges" stroke="#000" stroke-width="0" stroke-linecap="square"></line><svg x="0" y="0" font-size="10" style="overflow:visible"><text transform="" x="1087.5" y="18" fill="#000" font-size="10" text-anchor="middle"><tspan x="1087.5" dy="0em">75%</tspan></text></svg></g><g class="visx-group visx-axis-tick" transform="translate(0, 0)"><line class="visx-line" x1="1450" y1="0" x2="1450" y2="8" fill="transparent" shape-rendering="crispEdges" stroke="#000" stroke-width="0" stroke-linecap="square"></line><svg x="0" y="0" font-size="10" style="overflow:visible"><text transform="" x="1450" y="18" fill="#000" font-size="10" text-anchor="middle"><tspan x="1450" dy="0em">100%</tspan></text></svg></g><line class="visx-line visx-axis-line" x1="0.5" y1="0" x2="1450.5" y2="0" fill="transparent" shape-rendering="crispEdges" stroke="#222" stroke-width="0"></line></g><g class="visx-group visx-axis visx-axis-left" transform="translate(0, 0)"><g class="visx-group visx-axis-tick" transform="translate(0, 0)"><line class="visx-line" x1="0" y1="115" x2="-8" y2="115" fill="transparent" shape-rendering="crispEdges" stroke="#222" stroke-width="0" stroke-linecap="square"></line><svg x="-30" y="0" font-size="8" style="overflow:visible"><text transform="" x="-8" y="115" fill="#000" font-size="8" text-anchor="start"><tspan x="-8" dy="0em">0%</tspan></text></svg></g><g class="visx-group visx-axis-tick" transform="translate(0, 0)"><line class="visx-line" x1="0" y1="69" x2="-8" y2="69" fill="transparent" shape-rendering="crispEdges" stroke="#222" stroke-width="0" stroke-linecap="square"></line><svg x="-30" y="0" font-size="8" style="overflow:visible"><text transform="" x="-8" y="69" fill="#000" font-size="8" text-anchor="start"><tspan x="-8" dy="0em">200%</tspan></text></svg></g><g class="visx-group visx-axis-tick" transform="translate(0, 0)"><line class="visx-line" x1="0" y1="22.999999999999996" x2="-8" y2="22.999999999999996" fill="transparent" shape-rendering="crispEdges" stroke="#222" stroke-width="0" stroke-linecap="square"></line><svg x="-30" y="0" font-size="8" style="overflow:visible"><text transform="" x="-8" y="22.999999999999996" fill="#000" font-size="8" text-anchor="start"><tspan x="-8" dy="0em">400%</tspan></text></svg></g><line class="visx-line visx-axis-line" x1="0" y1="115.5" x2="0" y2="0.5" fill="transparent" shape-rendering="crispEdges" stroke="#222" stroke-width="0"></line></g><rect class="visx-bar" width="1450" height="115" fill="transparent"></rect><line class="visx-line" x1="362.5" y1="28" x2="362.5" y2="115" fill="transparent" shape-rendering="crispEdges" stroke="#0062D2" stroke-width="1" pointer-events="none" stroke-dasharray="5,2"></line><svg x="0" y="0" font-size="10px" style="overflow:visible"><text transform="" x="362.5" y="20" font-size="10px" fill="#fff" stroke="#fff" stroke-width="0.8em" text-anchor="middle"><tspan x="362.5" dy="0.355em">Optimal 25%</tspan></text></svg><svg x="0" y="0" font-size="10px" style="overflow:visible"><text transform="" x="362.5" y="20" font-size="10px" fill="#62677B" text-anchor="middle"><tspan x="362.5" dy="0.355em">Optimal 25%</tspan></text></svg></g></svg>