<?xml version="1.0"?><svg xmlns="http://www.w3.org/2000/svg" xmlns:xlink= "http://www.w3.org/1999/xlink" style="background: white;" width="1500" height="185"> <g style="color: black; font-size: 13px; font-family: sans-serif; transform: translate(18px, 25px);"><g><circle r="3" cx="-6" cy="-5" style="fill: #B6509E" /><text>Borrow APR, variable</text></g><g style="transform: translateX(150px);"><circle r="3" cx="-6" cy="-5" style="fill: rgb(231, 198, 223)" /><text>Borrow APR, stable</text></g><g style="transform: translateX(290px);"><circle r="3" cx="-6" cy="-5" style="fill: rgb(0, 98, 210)" /><text>Utilization Rate</text></g></g><g class="visx-group" transform="translate(40, 50)"><g class="visx-group visx-rows" transform="translate(0, 0)"><line class="visx-line" x1="0" y1="115" x2="1450" y2="115" fill="transparent" shape-rendering="crispEdges" stroke="#000" stroke-width="1" stroke-dasharray="3,3" pointer-events="none"></line><line class="visx-line" x1="0" y1="86.25" x2="1450" y2="86.25" fill="transparent" shape-rendering="crispEdges" stroke="#000" stroke-width="1" stroke-dasharray="3,3" pointer-events="none"></line><line class="visx-line" x1="0" y1="57.5" x2="1450" y2="57.5" fill="transparent" shape-rendering="crispEdges" stroke="#000" stroke-width="1" stroke-dasharray="3,3" pointer-events="none"></line><line class="visx-line" x1="0" y1="28.75" x2="1450" y2="28.75" fill="transparent" shape-rendering="crispEdges" stroke="#000" stroke-width="1" stroke-dasharray="3,3" pointer-events="none"></line><line class="visx-line" x1="0" y1="0" x2="1450" y2="0" fill="transparent" shape-rendering="crispEdges" stroke="#000" stroke-width="1" stroke-dasharray="3,3" pointer-events="none"></line></g><path class="visx-linepath" d="M0,114.99999999997345C2.4166666666666665,114.99557692306144,4.833333333333334,114.99115384614943,7.25,114.98673076923077C9.666666666666666,114.98230769231212,12.083333333333334,114.97788461538461,14.5,114.97346153846154C16.916666666666668,114.96903846153846,19.333333333333332,114.96461538461539,21.75,114.96019230769231C24.166666666666668,114.95576923076923,26.583333333333332,114.95134615384615,29,114.94692307692307C31.416666666666668,114.9425,33.833333333333336,114.93807692307692,36.25,114.93365384615385C38.666666666666664,114.92923076923077,41.083333333333336,114.9248076923077,43.5,114.92038461538462C45.91666666666667,114.91596153846154,48.333333333333336,114.91153846153846,50.75000000000001,114.90711538461538C53.16666666666667,114.9026923076923,55.583333333333336,114.89826923076923,58,114.89384615384616C60.416666666666664,114.88942307692308,62.833333333333336,114.88499999999999,65.25,114.88057692307692C67.66666666666667,114.87615384615384,70.08333333333333,114.87173076923077,72.5,114.86730769230769C74.91666666666667,114.86288461538462,77.33333333333333,114.85846153846153,79.75,114.85403846153845C82.16666666666667,114.84961538461538,84.58333333333333,114.8451923076923,87,114.84076923076923C89.41666666666667,114.83634615384615,91.83333333333333,114.83192307692308,94.25,114.8275C96.66666666666667,114.82307692307693,99.08333333333334,114.81865384615385,101.50000000000001,114.81423076923078C103.91666666666667,114.8098076923077,106.33333333333334,114.80538461538461,108.75,114.80096153846154C111.16666666666667,114.79653846153846,113.58333333333333,114.79211538461539,116,114.78769230769231C118.41666666666667,114.78326923076924,120.83333333333334,114.77884615384615,123.25000000000001,114.77442307692307C125.66666666666667,114.77,128.08333333333334,114.76557692307692,130.5,114.76115384615385C132.91666666666666,114.75673076923077,135.33333333333334,114.75230769230768,137.75,114.7478846153846C140.16666666666666,114.74346153846153,142.58333333333334,114.73903846153846,145,114.73461538461538C147.41666666666666,114.7301923076923,149.83333333333334,114.72576923076922,152.25,114.72134615384614C154.66666666666666,114.71692307692307,157.08333333333334,114.7125,159.5,114.70807692307693C161.91666666666666,114.70365384615386,164.33333333333334,114.69923076923077,166.75,114.69480769230769C169.16666666666666,114.69038461538462,171.58333333333334,114.68596153846154,174,114.68153846153847C176.41666666666666,114.67711538461539,178.83333333333334,114.6726923076923,181.25,114.66826923076923C183.66666666666666,114.66384615384615,186.08333333333334,114.65942307692308,188.5,114.655C190.91666666666666,114.65057692307693,193.33333333333334,114.64615384615384,195.75,114.64173076923076C198.16666666666669,114.63730769230769,200.58333333333334,114.63288461538461,203.00000000000003,114.62846153846154C205.41666666666669,114.62403846153846,207.83333333333331,114.61961538461537,210.24999999999997,114.6151923076923C212.66666666666666,114.61076923076922,215.08333333333331,114.60634615384615,217.5,114.60192307692307C219.91666666666666,114.5975,222.33333333333334,114.59307692307692,224.75,114.58865384615385C227.16666666666666,114.58423076923077,229.58333333333334,114.5798076923077,232,114.57538461538462C234.41666666666666,114.57096153846155,236.83333333333334,114.56653846153846,239.25,114.56211538461538C241.66666666666669,114.5576923076923,244.08333333333334,114.55326923076923,246.50000000000003,114.54884615384616C248.91666666666669,114.54442307692308,251.33333333333331,114.53999999999999,253.74999999999997,114.53557692307692C256.16666666666663,114.53115384615384,258.5833333333333,114.52673076923077,261,114.52230769230769C263.4166666666667,114.51788461538462,265.8333333333333,114.51346153846153,268.25,114.50903846153845C270.6666666666667,114.50461538461538,273.0833333333333,114.5001923076923,275.5,114.49576923076923C277.9166666666667,114.49134615384615,280.3333333333333,114.48692307692308,282.75,114.4825C285.1666666666667,114.47807692307693,287.5833333333333,114.47365384615385,290,114.46923076923078C292.4166666666667,114.4648076923077,294.8333333333333,114.46038461538461,297.25,114.45596153846154C299.6666666666667,114.45153846153846,302.0833333333333,114.44711538461539,304.5,114.44269230769231C306.9166666666667,114.43826923076924,309.3333333333333,114.43384615384615,311.75,114.42942307692307C314.1666666666667,114.425,316.5833333333333,114.42057692307692,319,114.41615384615385C321.4166666666667,114.41173076923077,323.8333333333333,114.40730769230768,326.25,114.40288461538461C328.6666666666667,114.39846153846153,331.0833333333333,114.39403846153846,333.5,114.38961538461538C335.9166666666667,114.38519230769231,338.3333333333333,114.38076923076922,340.75,114.37634615384614C343.1666666666667,114.37192307692307,345.5833333333333,114.3675,348,114.36307692307693C350.4166666666667,114.35865384615386,352.8333333333333,114.35423076923077,355.25,114.34980769230769C357.6666666666667,114.34538461538462,360.0833333333333,114.34096153846154,362.5,114.33653846153847C364.9166666666667,114.33211538461539,367.3333333333333,114.3276923076923,369.75,114.32326923076923C372.1666666666667,114.31884615384615,374.5833333333333,114.31442307692308,377,114.31C379.4166666666667,114.30557692307693,381.8333333333333,114.30115384615384,384.25,114.29673076923076C386.6666666666667,114.29230769230769,389.0833333333333,114.28788461538461,391.5,114.28346153846154C393.9166666666667,114.27903846153846,396.33333333333337,114.27461538461537,398.75000000000006,114.2701923076923C401.16666666666674,114.26576923076922,403.58333333333337,114.26134615384616,406.00000000000006,114.25692307692309C408.4166666666667,114.25250000000001,410.8333333333333,114.24807692307692,413.24999999999994,114.24365384615385C415.66666666666663,114.23923076923077,418.08333333333326,114.2348076923077,420.49999999999994,114.23038461538462C422.91666666666663,114.22596153846155,425.3333333333333,114.22153846153846,427.75,114.21711538461538C430.1666666666667,114.21269230769231,432.5833333333333,114.20826923076923,435,114.20384615384616C437.4166666666667,114.19942307692308,439.8333333333333,114.195,442.25,114.19057692307692C444.6666666666667,114.18615384615384,447.0833333333333,114.18173076923077,449.5,114.17730769230769C451.9166666666667,114.17288461538462,454.3333333333333,114.16846153846153,456.75,114.16403846153845C459.1666666666667,114.15961538461538,461.5833333333333,114.1551923076923,464,114.15076923076923C466.4166666666667,114.14634615384615,468.8333333333333,114.14192307692308,471.25,114.1375C473.6666666666667,114.13307692307693,476.0833333333333,114.12865384615385,478.5,114.12423076923078C480.9166666666667,114.1198076923077,483.33333333333337,114.11538461538461,485.75000000000006,114.11096153846154C488.16666666666674,114.10653846153846,490.58333333333337,114.10211538461539,493.00000000000006,114.09769230769231C495.4166666666667,114.09326923076924,497.8333333333333,114.08884615384615,500.24999999999994,114.08442307692307C502.66666666666663,114.08,505.08333333333326,114.07557692307692,507.49999999999994,114.07115384615385C509.91666666666663,114.06673076923077,512.3333333333333,114.06230769230768,514.75,114.05788461538461C517.1666666666666,114.05346153846153,519.5833333333334,114.04903846153846,522,114.04461538461538C524.4166666666666,114.04019230769231,526.8333333333334,114.03576923076922,529.25,114.03134615384614C531.6666666666666,114.02692307692307,534.0833333333334,114.02250000000001,536.5,114.01807692307693C538.9166666666666,114.01365384615386,541.3333333333334,114.00923076923077,543.75,114.0048076923077C546.1666666666666,114.00038461538462,548.5833333333334,113.99596153846154,551,113.99153846153847C553.4166666666666,113.9871153846154,555.8333333333334,113.9826923076923,558.25,113.97826923076923C560.6666666666666,113.97384615384615,563.0833333333334,113.96942307692308,565.5,113.965C567.9166666666666,113.96057692307693,570.3333333333334,113.95615384615384,572.75,113.95173076923076C575.1666666666666,113.94730769230769,577.5833333333334,113.94288461538461,580,113.93846153846154C582.4166666666666,113.93403846153846,584.8333333333334,113.92961538461537,587.25,113.9251923076923C589.6666666666666,113.92076923076922,592.0833333333334,113.91634615384616,594.5,113.91192307692309C596.9166666666666,113.90750000000001,599.3333333333334,113.90307692307692,601.75,113.89865384615385C604.1666666666666,113.89423076923077,606.5833333333334,113.8898076923077,609,113.88538461538462C611.4166666666666,113.88096153846155,613.8333333333334,113.87653846153846,616.25,113.87211538461538C618.6666666666666,113.86769230769231,621.0833333333334,113.86326923076923,623.5,113.85884615384616C625.9166666666666,113.85442307692308,628.3333333333334,113.85,630.75,113.84557692307692C633.1666666666666,113.84115384615384,635.5833333333334,113.83673076923077,638,113.8323076923077C640.4166666666666,113.82788461538462,642.8333333333334,113.82346153846153,645.25,113.81903846153845C647.6666666666666,113.81461538461538,650.0833333333334,113.8101923076923,652.5,113.80576923076923C654.9166666666666,113.80134615384615,657.3333333333334,113.79692307692308,659.75,113.7925C662.1666666666666,113.78807692307693,664.5833333333334,113.78365384615385,667,113.77923076923078C669.4166666666666,113.7748076923077,671.8333333333334,113.77038461538461,674.25,113.76596153846154C676.6666666666666,113.76153846153846,679.0833333333334,113.75711538461539,681.5,113.75269230769231C683.9166666666666,113.74826923076924,686.3333333333334,113.74384615384615,688.75,113.73942307692307C691.1666666666666,113.735,693.5833333333334,113.73057692307692,696,113.72615384615385C698.4166666666666,113.72173076923077,700.8333333333334,113.71730769230768,703.25,113.71288461538461C705.6666666666666,113.70846153846153,708.0833333333334,113.70403846153846,710.5,113.69961538461538C712.9166666666666,113.69519230769231,715.3333333333334,113.69076923076923,717.75,113.68634615384616C720.1666666666666,113.68192307692308,722.5833333333334,113.67750000000001,725,113.67307692307693C727.4166666666666,113.66865384615386,729.8333333333334,113.66423076923077,732.25,113.6598076923077C734.6666666666666,113.65538461538462,737.0833333333334,113.65096153846154,739.5,113.64653846153847C741.9166666666666,113.6421153846154,744.3333333333334,113.6376923076923,746.75,113.63326923076923C749.1666666666666,113.62884615384615,751.5833333333334,113.62442307692308,754,113.62C756.4166666666666,113.61557692307693,758.8333333333334,113.61115384615384,761.25,113.60673076923077C763.6666666666666,113.60230769230769,766.0833333333334,113.59788461538461,768.5,113.59346153846154C770.9166666666666,113.58903846153846,773.3333333333334,113.58461538461538,775.75,113.5801923076923C778.1666666666666,113.57576923076923,780.5833333333334,113.57134615384616,783,113.56692307692309C785.4166666666667,113.56250000000001,787.8333333333334,113.55807692307692,790.2500000000001,113.55365384615385C792.6666666666667,113.54923076923077,795.0833333333335,113.5448076923077,797.5000000000001,113.54038461538462C799.9166666666667,113.53596153846155,802.3333333333335,113.53153846153846,804.7500000000001,113.52711538461539C807.1666666666667,113.52269230769231,809.5833333333335,113.51826923076923,812.0000000000001,113.51384615384616C814.4166666666667,113.50942307692308,816.8333333333333,113.505,819.2499999999999,113.50057692307692C821.6666666666665,113.49615384615385,824.0833333333333,113.49173076923077,826.4999999999999,113.4873076923077C828.9166666666665,113.48288461538462,831.3333333333333,113.47846153846153,833.7499999999999,113.47403846153846C836.1666666666665,113.46961538461538,838.5833333333333,113.4651923076923,840.9999999999999,113.46076923076923C843.4166666666666,113.45634615384616,845.8333333333333,113.45192307692308,848.25,113.4475C850.6666666666666,113.44307692307693,853.0833333333334,113.43865384615384,855.5,113.43423076923077C857.9166666666666,113.42980769230769,860.3333333333334,113.42538461538462,862.75,113.42096153846154C865.1666666666666,113.41653846153847,867.5833333333334,113.41211538461539,870,113.40769230769232C872.4166666666666,113.40326923076924,874.8333333333334,113.39884615384615,877.25,113.39442307692308C879.6666666666666,113.39,882.0833333333334,113.38557692307693,884.5,113.38115384615385C886.9166666666666,113.37673076923078,889.3333333333334,113.37230769230769,891.75,113.36788461538461C894.1666666666666,113.36346153846154,896.5833333333334,113.35903846153846,899,113.35461538461539C901.4166666666666,113.35019230769231,903.8333333333334,113.34576923076924,906.25,113.34134615384616C908.6666666666666,113.33692307692309,911.0833333333334,113.3325,913.5,113.32807692307692C915.9166666666666,113.32365384615385,918.3333333333334,113.31923076923077,920.75,113.3148076923077C923.1666666666666,113.31038461538462,925.5833333333334,113.30596153846153,928,113.30153846153846C930.4166666666666,113.29711538461538,932.8333333333334,113.2926923076923,935.25,113.28826923076923C937.6666666666666,113.28384615384616,940.0833333333334,113.28384615384616,942.5,113.27499999999999C944.9166666666666,113.26615384615383,947.3333333333334,112.45357142857142,949.75,112.04285714285714C952.1666666666666,111.63214285714287,954.5833333333334,111.22142857142858,957,110.81071428571428C959.4166666666666,110.39999999999999,961.8333333333334,109.9892857142857,964.25,109.57857142857142C966.6666666666667,109.16785714285713,969.0833333333334,108.75714285714287,971.5000000000001,108.34642857142858C973.9166666666667,107.9357142857143,976.3333333333335,107.525,978.7500000000001,107.11428571428571C981.1666666666667,106.70357142857142,983.5833333333335,106.29285714285713,986.0000000000001,105.88214285714285C988.4166666666667,105.47142857142858,990.8333333333335,105.0607142857143,993.2500000000001,104.65C995.6666666666667,104.23928571428573,998.0833333333333,103.82857142857142,1000.4999999999999,103.41785714285714C1002.9166666666665,103.00714285714285,1005.3333333333333,102.59642857142856,1007.7499999999999,102.18571428571428C1010.1666666666665,101.775,1012.5833333333333,101.36428571428573,1014.9999999999999,100.95357142857144C1017.4166666666665,100.54285714285714,1019.8333333333333,100.13214285714284,1022.2499999999999,99.72142857142856C1024.6666666666665,99.31071428571427,1027.0833333333333,98.9,1029.5,98.48928571428571C1031.9166666666667,98.07857142857144,1034.3333333333333,97.66785714285716,1036.75,97.25714285714287C1039.1666666666667,96.84642857142858,1041.5833333333333,96.43571428571428,1044,96.02499999999999C1046.4166666666667,95.6142857142857,1048.8333333333333,95.20357142857142,1051.25,94.79285714285714C1053.6666666666667,94.38214285714287,1056.0833333333333,93.97142857142858,1058.5,93.56071428571428C1060.9166666666667,93.14999999999999,1063.3333333333333,92.7392857142857,1065.75,92.32857142857142C1068.1666666666667,91.91785714285714,1070.5833333333333,91.50714285714287,1073,91.09642857142858C1075.4166666666667,90.68571428571428,1077.8333333333333,90.27499999999999,1080.25,89.8642857142857C1082.6666666666667,89.45357142857141,1085.0833333333333,89.04285714285713,1087.5,88.63214285714285C1089.9166666666667,88.22142857142858,1092.3333333333333,87.81071428571428,1094.75,87.4C1097.1666666666667,86.98928571428573,1099.5833333333333,86.57857142857144,1102,86.16785714285714C1104.4166666666667,85.75714285714285,1106.8333333333333,85.34642857142856,1109.25,84.93571428571428C1111.6666666666667,84.525,1114.0833333333333,84.11428571428573,1116.5,83.70357142857144C1118.9166666666667,83.29285714285714,1121.3333333333333,82.88214285714285,1123.75,82.47142857142856C1126.1666666666667,82.06071428571427,1128.5833333333333,81.64999999999999,1131,81.23928571428571C1133.4166666666667,80.82857142857144,1135.8333333333333,80.41785714285713,1138.25,80.00714285714285C1140.6666666666667,79.59642857142858,1143.0833333333333,79.1857142857143,1145.5,78.775C1147.9166666666667,78.36428571428571,1150.3333333333333,77.95357142857142,1152.75,77.54285714285713C1155.1666666666667,77.13214285714284,1157.5833333333333,76.72142857142856,1160,76.31071428571428C1162.4166666666667,75.9,1164.8333333333333,75.4892857142857,1167.25,75.07857142857142C1169.6666666666667,74.66785714285714,1172.0833333333333,74.25714285714285,1174.5,73.84642857142858C1176.9166666666667,73.4357142857143,1179.3333333333333,73.02499999999999,1181.75,72.61428571428571C1184.1666666666667,72.20357142857144,1186.5833333333333,71.79285714285716,1189,71.38214285714287C1191.4166666666667,70.97142857142858,1193.8333333333333,70.56071428571428,1196.25,70.14999999999999C1198.6666666666667,69.7392857142857,1201.0833333333333,69.32857142857142,1203.5,68.91785714285714C1205.9166666666667,68.50714285714287,1208.3333333333333,68.09642857142859,1210.75,67.6857142857143C1213.1666666666667,67.275,1215.5833333333333,66.86428571428571,1218,66.45357142857142C1220.4166666666667,66.04285714285713,1222.8333333333333,65.63214285714284,1225.25,65.22142857142856C1227.6666666666667,64.81071428571428,1230.0833333333333,64.4,1232.5,63.98928571428572C1234.9166666666667,63.578571428571436,1237.3333333333333,63.167857142857144,1239.75,62.75714285714286C1242.1666666666667,62.346428571428575,1244.5833333333333,61.935714285714276,1247,61.52499999999999C1249.4166666666667,61.11428571428571,1251.8333333333333,60.70357142857142,1254.25,60.29285714285714C1256.6666666666667,59.88214285714285,1259.0833333333333,59.47142857142857,1261.5,59.06071428571428C1263.9166666666667,58.65,1266.3333333333333,58.239285714285714,1268.75,57.82857142857143C1271.1666666666667,57.417857142857144,1273.5833333333333,57.00714285714285,1276,56.59642857142857C1278.4166666666667,56.18571428571428,1280.8333333333333,55.775,1283.25,55.364285714285714C1285.6666666666667,54.95357142857143,1288.0833333333333,54.542857142857144,1290.5,54.13214285714286C1292.9166666666667,53.721428571428575,1295.3333333333333,53.31071428571428,1297.75,52.9C1300.1666666666667,52.489285714285714,1302.5833333333333,52.07857142857143,1305,51.667857142857144C1307.4166666666667,51.25714285714286,1309.8333333333333,50.846428571428575,1312.25,50.43571428571429C1314.6666666666667,50.025000000000006,1317.0833333333333,49.61428571428571,1319.5,49.20357142857142C1321.9166666666667,48.79285714285714,1324.3333333333333,48.38214285714286,1326.75,47.971428571428575C1329.1666666666667,47.56071428571429,1331.5833333333333,47.150000000000006,1334,46.73928571428572C1336.4166666666667,46.328571428571436,1338.8333333333333,45.91785714285714,1341.25,45.50714285714285C1343.6666666666667,45.09642857142857,1346.0833333333333,44.68571428571428,1348.5,44.275C1350.9166666666667,43.864285714285714,1353.3333333333333,43.453571428571436,1355.75,43.04285714285715C1358.1666666666667,42.63214285714287,1360.5833333333333,42.22142857142857,1363,41.81071428571428C1365.4166666666667,41.4,1367.8333333333333,40.989285714285714,1370.25,40.57857142857143C1372.6666666666667,40.167857142857144,1375.0833333333333,39.75714285714286,1377.5,39.346428571428575C1379.9166666666667,38.93571428571429,1382.3333333333333,38.525,1384.75,38.114285714285714C1387.1666666666667,37.70357142857143,1389.5833333333333,37.292857142857144,1392,36.88214285714286C1394.4166666666667,36.471428571428575,1396.8333333333333,36.06071428571429,1399.25,35.650000000000006C1401.6666666666667,35.23928571428572,1404.0833333333333,34.82857142857142,1406.5,34.41785714285714C1408.9166666666667,34.00714285714285,1411.3333333333333,33.596428571428575,1413.75,33.18571428571429C1416.1666666666667,32.775000000000006,1418.5833333333333,32.36428571428571,1421,31.953571428571422C1423.4166666666667,31.542857142857134,1425.8333333333333,31.132142857142853,1428.25,30.721428571428568C1430.6666666666667,30.310714285714283,1433.0833333333333,29.899999999999988,1435.5,29.489285714285703C1437.9166666666667,29.07857142857142,1440.3333333333333,28.667857142857137,1442.75,28.257142857142853C1445.1666666666667,27.846428571428568,1447.5833333333333,27.435714285714283,1450,27.025" fill="transparent" stroke-linecap="round" stroke="#B6509E" stroke-width="2"></path><path class="visx-linepath" d="M0,112.12499999995578C2.4166666666666665,112.1176282051024,4.833333333333334,112.11025641024904,7.25,112.10288461538461C9.666666666666666,112.09551282052018,12.083333333333334,112.08814102564102,14.5,112.08076923076923C16.916666666666668,112.07339743589745,19.333333333333332,112.06602564102565,21.75,112.05865384615385C24.166666666666668,112.05128205128204,26.583333333333332,112.04391025641024,29,112.03653846153846C31.416666666666668,112.02916666666667,33.833333333333336,112.02179487179487,36.25,112.01442307692308C38.666666666666664,112.0070512820513,41.083333333333336,111.99967948717948,43.5,111.99230769230769C45.91666666666667,111.98493589743589,48.333333333333336,111.97756410256412,50.75000000000001,111.97019230769232C53.16666666666667,111.96282051282053,55.583333333333336,111.95544871794873,58,111.94807692307693C60.416666666666664,111.94070512820512,62.833333333333336,111.93333333333334,65.25,111.92596153846154C67.66666666666667,111.91858974358973,70.08333333333333,111.91121794871793,72.5,111.90384615384615C74.91666666666667,111.89647435897436,77.33333333333333,111.88910256410256,79.75,111.88173076923077C82.16666666666667,111.87435897435898,84.58333333333333,111.86698717948718,87,111.8596153846154C89.41666666666667,111.85224358974361,91.83333333333333,111.8448717948718,94.25,111.8375C96.66666666666667,111.8301282051282,99.08333333333334,111.82275641025642,101.50000000000001,111.81538461538462C103.91666666666667,111.80801282051281,106.33333333333334,111.80064102564103,108.75,111.79326923076923C111.16666666666667,111.78589743589743,113.58333333333333,111.77852564102562,116,111.77115384615384C118.41666666666667,111.76378205128204,120.83333333333334,111.75641025641025,123.25000000000001,111.74903846153846C125.66666666666667,111.74166666666667,128.08333333333334,111.73429487179487,130.5,111.72692307692309C132.91666666666666,111.71955128205128,135.33333333333334,111.7121794871795,137.75,111.7048076923077C140.16666666666666,111.6974358974359,142.58333333333334,111.69006410256411,145,111.6826923076923C147.41666666666666,111.6753205128205,149.83333333333334,111.66794871794872,152.25,111.66057692307692C154.66666666666666,111.65320512820512,157.08333333333334,111.64583333333331,159.5,111.63846153846153C161.91666666666666,111.63108974358974,164.33333333333334,111.62371794871794,166.75,111.61634615384615C169.16666666666666,111.60897435897436,171.58333333333334,111.60160256410256,174,111.59423076923078C176.41666666666666,111.58685897435899,178.83333333333334,111.57948717948719,181.25,111.57211538461539C183.66666666666666,111.56474358974359,186.08333333333334,111.5573717948718,188.5,111.55C190.91666666666666,111.5426282051282,193.33333333333334,111.5352564102564,195.75,111.52788461538461C198.16666666666669,111.5205128205128,200.58333333333334,111.51314102564103,203.00000000000003,111.50576923076923C205.41666666666669,111.49839743589745,207.83333333333331,111.49102564102563,210.24999999999997,111.48365384615384C212.66666666666666,111.47628205128204,215.08333333333331,111.46891025641027,217.5,111.46153846153847C219.91666666666666,111.45416666666668,222.33333333333334,111.44679487179488,224.75,111.43942307692308C227.16666666666666,111.43205128205128,229.58333333333334,111.42467948717947,232,111.41730769230769C234.41666666666666,111.4099358974359,236.83333333333334,111.4025641025641,239.25,111.39519230769231C241.66666666666669,111.38782051282051,244.08333333333334,111.38044871794872,246.50000000000003,111.37307692307692C248.91666666666669,111.36570512820512,251.33333333333331,111.35833333333332,253.74999999999997,111.35096153846153C256.16666666666663,111.34358974358973,258.5833333333333,111.33621794871796,261,111.32884615384616C263.4166666666667,111.32147435897437,265.8333333333333,111.31410256410255,268.25,111.30673076923077C270.6666666666667,111.29935897435898,273.0833333333333,111.29198717948718,275.5,111.28461538461539C277.9166666666667,111.2772435897436,280.3333333333333,111.2698717948718,282.75,111.2625C285.1666666666667,111.2551282051282,287.5833333333333,111.24775641025641,290,111.24038461538461C292.4166666666667,111.23301282051281,294.8333333333333,111.22564102564101,297.25,111.21826923076922C299.6666666666667,111.21089743589744,302.0833333333333,111.20352564102564,304.5,111.19615384615385C306.9166666666667,111.18878205128206,309.3333333333333,111.18141025641026,311.75,111.17403846153847C314.1666666666667,111.16666666666669,316.5833333333333,111.15929487179488,319,111.15192307692308C321.4166666666667,111.14455128205128,323.8333333333333,111.1371794871795,326.25,111.1298076923077C328.6666666666667,111.12243589743589,331.0833333333333,111.1150641025641,333.5,111.1076923076923C335.9166666666667,111.1003205128205,338.3333333333333,111.0929487179487,340.75,111.08557692307691C343.1666666666667,111.07820512820513,345.5833333333333,111.07083333333333,348,111.06346153846154C350.4166666666667,111.05608974358975,352.8333333333333,111.04871794871795,355.25,111.04134615384616C357.6666666666667,111.03397435897438,360.0833333333333,111.02660256410257,362.5,111.01923076923077C364.9166666666667,111.01185897435897,367.3333333333333,111.00448717948719,369.75,110.99711538461538C372.1666666666667,110.98974358974358,374.5833333333333,110.9823717948718,377,110.975C379.4166666666667,110.9676282051282,381.8333333333333,110.96025641025639,384.25,110.9528846153846C386.6666666666667,110.94551282051282,389.0833333333333,110.93814102564102,391.5,110.93076923076923C393.9166666666667,110.92339743589744,396.33333333333337,110.91602564102566,398.75000000000006,110.90865384615385C401.16666666666674,110.90128205128207,403.58333333333337,110.89391025641027,406.00000000000006,110.88653846153846C408.4166666666667,110.87916666666666,410.8333333333333,110.87179487179488,413.24999999999994,110.86442307692307C415.66666666666663,110.85705128205127,418.08333333333326,110.84967948717947,420.49999999999994,110.84230769230768C422.91666666666663,110.83493589743588,425.3333333333333,110.82756410256411,427.75,110.82019230769231C430.1666666666667,110.81282051282052,432.5833333333333,110.8054487179487,435,110.79807692307692C437.4166666666667,110.79070512820513,439.8333333333333,110.78333333333333,442.25,110.77596153846154C444.6666666666667,110.76858974358976,447.0833333333333,110.76121794871796,449.5,110.75384615384615C451.9166666666667,110.74647435897435,454.3333333333333,110.73910256410255,456.75,110.73173076923077C459.1666666666667,110.72435897435898,461.5833333333333,110.71698717948718,464,110.70961538461539C466.4166666666667,110.7022435897436,468.8333333333333,110.6948717948718,471.25,110.6875C473.6666666666667,110.6801282051282,476.0833333333333,110.6727564102564,478.5,110.66538461538461C480.9166666666667,110.65801282051281,483.33333333333337,110.65064102564104,485.75000000000006,110.64326923076923C488.16666666666674,110.63589743589745,490.58333333333337,110.62852564102565,493.00000000000006,110.62115384615385C495.4166666666667,110.61378205128206,497.8333333333333,110.60641025641026,500.24999999999994,110.59903846153847C502.66666666666663,110.59166666666667,505.08333333333326,110.58429487179488,507.49999999999994,110.57692307692308C509.91666666666663,110.56955128205128,512.3333333333333,110.56217948717949,514.75,110.55480769230769C517.1666666666666,110.54743589743589,519.5833333333334,110.54006410256409,522,110.5326923076923C524.4166666666666,110.52532051282051,526.8333333333334,110.51794871794871,529.25,110.51057692307693C531.6666666666666,110.50320512820514,534.0833333333334,110.49583333333334,536.5,110.48846153846155C538.9166666666666,110.48108974358976,541.3333333333334,110.47371794871796,543.75,110.46634615384616C546.1666666666666,110.45897435897436,548.5833333333334,110.45160256410257,551,110.44423076923077C553.4166666666666,110.43685897435897,555.8333333333334,110.42948717948718,558.25,110.42211538461538C560.6666666666666,110.41474358974358,563.0833333333334,110.40737179487178,565.5,110.39999999999999C567.9166666666666,110.3926282051282,570.3333333333334,110.3852564102564,572.75,110.37788461538462C575.1666666666666,110.37051282051283,577.5833333333334,110.36314102564103,580,110.35576923076924C582.4166666666666,110.34839743589745,584.8333333333334,110.34102564102565,587.25,110.33365384615385C589.6666666666666,110.32628205128205,592.0833333333334,110.31891025641026,594.5,110.31153846153846C596.9166666666666,110.30416666666666,599.3333333333334,110.29679487179486,601.75,110.28942307692307C604.1666666666666,110.28205128205128,606.5833333333334,110.27467948717948,609,110.2673076923077C611.4166666666666,110.25993589743591,613.8333333333334,110.2525641025641,616.25,110.2451923076923C618.6666666666666,110.23782051282052,621.0833333333334,110.23044871794872,623.5,110.22307692307693C625.9166666666666,110.21570512820514,628.3333333333334,110.20833333333334,630.75,110.20096153846154C633.1666666666666,110.19358974358974,635.5833333333334,110.18621794871795,638,110.17884615384615C640.4166666666666,110.17147435897435,642.8333333333334,110.16410256410255,645.25,110.15673076923076C647.6666666666666,110.14935897435898,650.0833333333334,110.14198717948717,652.5,110.13461538461539C654.9166666666666,110.1272435897436,657.3333333333334,110.11987179487178,659.75,110.1125C662.1666666666666,110.10512820512821,664.5833333333334,110.09775641025641,667,110.09038461538462C669.4166666666666,110.08301282051283,671.8333333333334,110.07564102564103,674.25,110.06826923076923C676.6666666666666,110.06089743589743,679.0833333333334,110.05352564102563,681.5,110.04615384615384C683.9166666666666,110.03878205128206,686.3333333333334,110.03141025641025,688.75,110.02403846153847C691.1666666666666,110.01666666666668,693.5833333333334,110.00929487179488,696,110.00192307692308C698.4166666666666,109.99455128205128,700.8333333333334,109.98717948717949,703.25,109.97980769230769C705.6666666666666,109.97243589743589,708.0833333333334,109.96506410256409,710.5,109.9576923076923C712.9166666666666,109.95032051282051,715.3333333333334,109.94294871794871,717.75,109.93557692307692C720.1666666666666,109.92820512820514,722.5833333333334,109.92083333333333,725,109.91346153846155C727.4166666666666,109.90608974358976,729.8333333333334,109.89871794871796,732.25,109.89134615384616C734.6666666666666,109.88397435897436,737.0833333333334,109.87660256410257,739.5,109.86923076923077C741.9166666666666,109.86185897435897,744.3333333333334,109.85448717948718,746.75,109.84711538461538C749.1666666666666,109.83974358974358,751.5833333333334,109.83237179487178,754,109.82499999999999C756.4166666666666,109.8176282051282,758.8333333333334,109.81025641025641,761.25,109.80288461538463C763.6666666666666,109.79551282051284,766.0833333333334,109.78814102564104,768.5,109.78076923076924C770.9166666666666,109.77339743589744,773.3333333333334,109.76602564102565,775.75,109.75865384615385C778.1666666666666,109.75128205128205,780.5833333333334,109.74391025641026,783,109.73653846153846C785.4166666666667,109.72916666666666,787.8333333333334,109.72179487179487,790.2500000000001,109.71442307692307C792.6666666666667,109.70705128205127,795.0833333333335,109.69967948717947,797.5000000000001,109.69230769230768C799.9166666666667,109.68493589743589,802.3333333333335,109.6775641025641,804.7500000000001,109.67019230769232C807.1666666666667,109.66282051282053,809.5833333333335,109.65544871794873,812.0000000000001,109.64807692307693C814.4166666666667,109.64070512820513,816.8333333333333,109.63333333333334,819.2499999999999,109.62596153846154C821.6666666666665,109.61858974358974,824.0833333333333,109.61121794871795,826.4999999999999,109.60384615384615C828.9166666666665,109.59647435897435,831.3333333333333,109.58910256410255,833.7499999999999,109.58173076923076C836.1666666666665,109.57435897435897,838.5833333333333,109.56698717948717,840.9999999999999,109.55961538461538C843.4166666666666,109.5522435897436,845.8333333333333,109.54487179487181,848.25,109.53750000000001C850.6666666666666,109.53012820512822,853.0833333333334,109.52275641025642,855.5,109.51538461538462C857.9166666666666,109.50801282051282,860.3333333333334,109.50064102564103,862.75,109.49326923076923C865.1666666666666,109.48589743589743,867.5833333333334,109.47852564102563,870,109.47115384615384C872.4166666666666,109.46378205128205,874.8333333333334,109.45641025641025,877.25,109.44903846153846C879.6666666666666,109.44166666666668,882.0833333333334,109.43429487179488,884.5,109.42692307692307C886.9166666666666,109.41955128205127,889.3333333333334,109.41217948717947,891.75,109.40480769230768C894.1666666666666,109.3974358974359,896.5833333333334,109.3900641025641,899,109.38269230769231C901.4166666666666,109.37532051282052,903.8333333333334,109.3679487179487,906.25,109.36057692307692C908.6666666666666,109.35320512820513,911.0833333333334,109.34583333333333,913.5,109.33846153846154C915.9166666666666,109.33108974358976,918.3333333333334,109.32371794871796,920.75,109.31634615384615C923.1666666666666,109.30897435897435,925.5833333333334,109.30160256410257,928,109.29423076923077C930.4166666666666,109.28685897435896,932.8333333333334,109.27948717948716,935.25,109.27211538461538C937.6666666666666,109.26474358974359,940.0833333333334,109.26474358974359,942.5,109.25C944.9166666666666,109.23525641025641,947.3333333333334,108.42857142857142,949.75,108.01785714285714C952.1666666666666,107.60714285714286,954.5833333333334,107.19642857142857,957,106.78571428571429C959.4166666666666,106.37500000000001,961.8333333333334,105.96428571428571,964.25,105.55357142857143C966.6666666666667,105.14285714285714,969.0833333333334,104.73214285714286,971.5000000000001,104.32142857142857C973.9166666666667,103.91071428571429,976.3333333333335,103.50000000000001,978.7500000000001,103.08928571428572C981.1666666666667,102.67857142857143,983.5833333333335,102.26785714285714,986.0000000000001,101.85714285714285C988.4166666666667,101.44642857142856,990.8333333333335,101.03571428571429,993.2500000000001,100.625C995.6666666666667,100.21428571428572,998.0833333333333,99.80357142857143,1000.4999999999999,99.39285714285715C1002.9166666666665,98.98214285714286,1005.3333333333333,98.57142857142857,1007.7499999999999,98.16071428571428C1010.1666666666665,97.74999999999999,1012.5833333333333,97.33928571428571,1014.9999999999999,96.92857142857143C1017.4166666666665,96.51785714285715,1019.8333333333333,96.10714285714285,1022.2499999999999,95.69642857142857C1024.6666666666665,95.28571428571428,1027.0833333333333,94.875,1029.5,94.46428571428571C1031.9166666666667,94.05357142857143,1034.3333333333333,93.64285714285714,1036.75,93.23214285714286C1039.1666666666667,92.82142857142858,1041.5833333333333,92.41071428571429,1044,92C1046.4166666666667,91.58928571428571,1048.8333333333333,91.17857142857142,1051.25,90.76785714285714C1053.6666666666667,90.35714285714286,1056.0833333333333,89.94642857142858,1058.5,89.53571428571429C1060.9166666666667,89.125,1063.3333333333333,88.71428571428571,1065.75,88.30357142857142C1068.1666666666667,87.89285714285712,1070.5833333333333,87.48214285714285,1073,87.07142857142857C1075.4166666666667,86.66071428571429,1077.8333333333333,86.25,1080.25,85.83928571428572C1082.6666666666667,85.42857142857144,1085.0833333333333,85.01785714285715,1087.5,84.60714285714286C1089.9166666666667,84.19642857142857,1092.3333333333333,83.78571428571429,1094.75,83.375C1097.1666666666667,82.96428571428571,1099.5833333333333,82.55357142857143,1102,82.14285714285714C1104.4166666666667,81.73214285714285,1106.8333333333333,81.32142857142856,1109.25,80.91071428571428C1111.6666666666667,80.5,1114.0833333333333,80.08928571428571,1116.5,79.67857142857143C1118.9166666666667,79.26785714285715,1121.3333333333333,78.85714285714285,1123.75,78.44642857142857C1126.1666666666667,78.03571428571429,1128.5833333333333,77.625,1131,77.21428571428572C1133.4166666666667,76.80357142857144,1135.8333333333333,76.39285714285715,1138.25,75.98214285714286C1140.6666666666667,75.57142857142857,1143.0833333333333,75.16071428571429,1145.5,74.75C1147.9166666666667,74.33928571428571,1150.3333333333333,73.92857142857143,1152.75,73.51785714285714C1155.1666666666667,73.10714285714285,1157.5833333333333,72.69642857142856,1160,72.28571428571428C1162.4166666666667,71.875,1164.8333333333333,71.46428571428571,1167.25,71.05357142857143C1169.6666666666667,70.64285714285715,1172.0833333333333,70.23214285714288,1174.5,69.82142857142858C1176.9166666666667,69.41071428571429,1179.3333333333333,68.99999999999999,1181.75,68.5892857142857C1184.1666666666667,68.1785714285714,1186.5833333333333,67.76785714285712,1189,67.35714285714285C1191.4166666666667,66.94642857142857,1193.8333333333333,66.53571428571428,1196.25,66.125C1198.6666666666667,65.71428571428572,1201.0833333333333,65.30357142857142,1203.5,64.89285714285714C1205.9166666666667,64.48214285714286,1208.3333333333333,64.07142857142857,1210.75,63.66071428571429C1213.1666666666667,63.25000000000001,1215.5833333333333,62.83928571428572,1218,62.42857142857144C1220.4166666666667,62.01785714285715,1222.8333333333333,61.607142857142854,1225.25,61.19642857142857C1227.6666666666667,60.785714285714285,1230.0833333333333,60.37499999999999,1232.5,59.96428571428571C1234.9166666666667,59.55357142857142,1237.3333333333333,59.14285714285715,1239.75,58.73214285714287C1242.1666666666667,58.321428571428584,1244.5833333333333,57.910714285714285,1247,57.5C1249.4166666666667,57.089285714285715,1251.8333333333333,56.67857142857143,1254.25,56.267857142857146C1256.6666666666667,55.85714285714286,1259.0833333333333,55.44642857142857,1261.5,55.035714285714285C1263.9166666666667,54.625,1266.3333333333333,54.214285714285715,1268.75,53.80357142857143C1271.1666666666667,53.392857142857146,1273.5833333333333,52.98214285714286,1276,52.57142857142858C1278.4166666666667,52.16071428571429,1280.8333333333333,51.74999999999999,1283.25,51.33928571428571C1285.6666666666667,50.92857142857142,1288.0833333333333,50.517857142857146,1290.5,50.10714285714286C1292.9166666666667,49.69642857142858,1295.3333333333333,49.28571428571429,1297.75,48.87500000000001C1300.1666666666667,48.46428571428572,1302.5833333333333,48.05357142857142,1305,47.64285714285714C1307.4166666666667,47.232142857142854,1309.8333333333333,46.82142857142857,1312.25,46.410714285714285C1314.6666666666667,46,1317.0833333333333,45.589285714285715,1319.5,45.17857142857143C1321.9166666666667,44.767857142857146,1324.3333333333333,44.357142857142854,1326.75,43.94642857142857C1329.1666666666667,43.535714285714285,1331.5833333333333,43.125,1334,42.714285714285715C1336.4166666666667,42.30357142857143,1338.8333333333333,41.892857142857146,1341.25,41.48214285714286C1343.6666666666667,41.07142857142858,1346.0833333333333,40.660714285714285,1348.5,40.25C1350.9166666666667,39.839285714285715,1353.3333333333333,39.42857142857143,1355.75,39.017857142857146C1358.1666666666667,38.60714285714286,1360.5833333333333,38.19642857142858,1363,37.78571428571429C1365.4166666666667,37.37500000000001,1367.8333333333333,36.9642857142857,1370.25,36.553571428571416C1372.6666666666667,36.14285714285713,1375.0833333333333,35.73214285714287,1377.5,35.321428571428584C1379.9166666666667,34.9107142857143,1382.3333333333333,34.49999999999999,1384.75,34.08928571428571C1387.1666666666667,33.67857142857142,1389.5833333333333,33.26785714285714,1392,32.857142857142854C1394.4166666666667,32.44642857142857,1396.8333333333333,32.03571428571429,1399.25,31.625000000000004C1401.6666666666667,31.214285714285715,1404.0833333333333,30.80357142857141,1406.5,30.392857142857125C1408.9166666666667,29.98214285714284,1411.3333333333333,29.571428571428566,1413.75,29.160714285714285C1416.1666666666667,28.750000000000004,1418.5833333333333,28.339285714285715,1421,27.92857142857143C1423.4166666666667,27.517857142857146,1425.8333333333333,27.107142857142854,1428.25,26.696428571428566C1430.6666666666667,26.285714285714278,1433.0833333333333,25.874999999999996,1435.5,25.46428571428571C1437.9166666666667,25.053571428571427,1440.3333333333333,24.642857142857146,1442.75,24.23214285714286C1445.1666666666667,23.821428571428577,1447.5833333333333,23.410714285714285,1450,22.999999999999996" fill="transparent" stroke-linecap="round" stroke="#E7C6DF" stroke-width="2"></path><g class="visx-group visx-axis visx-axis-bottom" transform="translate(0, 115)"><g class="visx-group visx-axis-tick" transform="translate(0, 0)"><line class="visx-line" x1="0" y1="0" x2="0" y2="8" fill="transparent" shape-rendering="crispEdges" stroke="#000" stroke-width="0" stroke-linecap="square"></line><svg x="0" y="0" font-size="10" style="overflow:visible"><text transform="" x="0" y="18" fill="#000" font-size="10" text-anchor="middle"><tspan x="0" dy="0em">0%</tspan></text></svg></g><g class="visx-group visx-axis-tick" transform="translate(0, 0)"><line class="visx-line" x1="362.5" y1="0" x2="362.5" y2="8" fill="transparent" shape-rendering="crispEdges" stroke="#000" stroke-width="0" stroke-linecap="square"></line><svg x="0" y="0" font-size="10" style="overflow:visible"><text transform="" x="362.5" y="18" fill="#000" font-size="10" text-anchor="middle"><tspan x="362.5" dy="0em">25%</tspan></text></svg></g><g class="visx-group visx-axis-tick" transform="translate(0, 0)"><line class="visx-line" x1="725" y1="0" x2="725" y2="8" fill="transparent" shape-rendering="crispEdges" stroke="#000" stroke-width="0" stroke-linecap="square"></line><svg x="0" y="0" font-size="10" style="overflow:visible"><text transform="" x="725" y="18" fill="#000" font-size="10" text-anchor="middle"><tspan x="725" dy="0em">50%</tspan></text></svg></g><g class="visx-group visx-axis-tick" transform="translate(0, 0)"><line class="visx-line" x1="1087.5" y1="0" x2="1087.5" y2="8" fill="transparent" shape-rendering="crispEdges" stroke="#000" stroke-width="0" stroke-linecap="square"></line><svg x="0" y="0" font-size="10" style="overflow:visible"><text transform="" x="1087.5" y="18" fill="#000" font-size="10" text-anchor="middle"><tspan x="1087.5" dy="0em">75%</tspan></text></svg></g><g class="visx-group visx-axis-tick" transform="translate(0, 0)"><line class="visx-line" x1="1450" y1="0" x2="1450" y2="8" fill="transparent" shape-rendering="crispEdges" stroke="#000" stroke-width="0" stroke-linecap="square"></line><svg x="0" y="0" font-size="10" style="overflow:visible"><text transform="" x="1450" y="18" fill="#000" font-size="10" text-anchor="middle"><tspan x="1450" dy="0em">100%</tspan></text></svg></g><line class="visx-line visx-axis-line" x1="0.5" y1="0" x2="1450.5" y2="0" fill="transparent" shape-rendering="crispEdges" stroke="#222" stroke-width="0"></line></g><g class="visx-group visx-axis visx-axis-left" transform="translate(0, 0)"><g class="visx-group visx-axis-tick" transform="translate(0, 0)"><line class="visx-line" x1="0" y1="115" x2="-8" y2="115" fill="transparent" shape-rendering="crispEdges" stroke="#222" stroke-width="0" stroke-linecap="square"></line><svg x="-30" y="0" font-size="8" style="overflow:visible"><text transform="" x="-8" y="115" fill="#000" font-size="8" text-anchor="start"><tspan x="-8" dy="0em">0%</tspan></text></svg></g><g class="visx-group visx-axis-tick" transform="translate(0, 0)"><line class="visx-line" x1="0" y1="57.5" x2="-8" y2="57.5" fill="transparent" shape-rendering="crispEdges" stroke="#222" stroke-width="0" stroke-linecap="square"></line><svg x="-30" y="0" font-size="8" style="overflow:visible"><text transform="" x="-8" y="57.5" fill="#000" font-size="8" text-anchor="start"><tspan x="-8" dy="0em">200%</tspan></text></svg></g><g class="visx-group visx-axis-tick" transform="translate(0, 0)"><line class="visx-line" x1="0" y1="0" x2="-8" y2="0" fill="transparent" shape-rendering="crispEdges" stroke="#222" stroke-width="0" stroke-linecap="square"></line><svg x="-30" y="0" font-size="8" style="overflow:visible"><text transform="" x="-8" y="0" fill="#000" font-size="8" text-anchor="start"><tspan x="-8" dy="0em">400%</tspan></text></svg></g><line class="visx-line visx-axis-line" x1="0" y1="115.5" x2="0" y2="0.5" fill="transparent" shape-rendering="crispEdges" stroke="#222" stroke-width="0"></line></g><rect class="visx-bar" width="1450" height="115" fill="transparent"></rect><line class="visx-line" x1="942.5" y1="28" x2="942.5" y2="115" fill="transparent" shape-rendering="crispEdges" stroke="#0062D2" stroke-width="1" pointer-events="none" stroke-dasharray="5,2"></line><svg x="0" y="0" font-size="10px" style="overflow:visible"><text transform="" x="942.5" y="20" font-size="10px" fill="#fff" stroke="#fff" stroke-width="0.8em" text-anchor="middle"><tspan x="942.5" dy="0.355em">Optimal 65%</tspan></text></svg><svg x="0" y="0" font-size="10px" style="overflow:visible"><text transform="" x="942.5" y="20" font-size="10px" fill="#62677B" text-anchor="middle"><tspan x="942.5" dy="0.355em">Optimal 65%</tspan></text></svg></g></svg>