<?xml version="1.0"?><svg xmlns="http://www.w3.org/2000/svg" xmlns:xlink= "http://www.w3.org/1999/xlink" style="background: white;" width="1500" height="185"> <g style="color: black; font-size: 13px; font-family: sans-serif; transform: translate(18px, 25px);"><g><circle r="3" cx="-6" cy="-5" style="fill: #B6509E" /><text>Borrow APR, variable</text></g><g style="transform: translateX(150px);"><circle r="3" cx="-6" cy="-5" style="fill: rgb(231, 198, 223)" /><text>Borrow APR, stable</text></g><g style="transform: translateX(290px);"><circle r="3" cx="-6" cy="-5" style="fill: rgb(0, 98, 210)" /><text>Utilization Rate</text></g></g><g class="visx-group" transform="translate(40, 50)"><g class="visx-group visx-rows" transform="translate(0, 0)"><line class="visx-line" x1="0" y1="115" x2="1450" y2="115" fill="transparent" shape-rendering="crispEdges" stroke="#000" stroke-width="1" stroke-dasharray="3,3" pointer-events="none"></line><line class="visx-line" x1="0" y1="79.61538461538461" x2="1450" y2="79.61538461538461" fill="transparent" shape-rendering="crispEdges" stroke="#000" stroke-width="1" stroke-dasharray="3,3" pointer-events="none"></line><line class="visx-line" x1="0" y1="44.230769230769226" x2="1450" y2="44.230769230769226" fill="transparent" shape-rendering="crispEdges" stroke="#000" stroke-width="1" stroke-dasharray="3,3" pointer-events="none"></line><line class="visx-line" x1="0" y1="8.84615384615384" x2="1450" y2="8.84615384615384" fill="transparent" shape-rendering="crispEdges" stroke="#000" stroke-width="1" stroke-dasharray="3,3" pointer-events="none"></line></g><path class="visx-linepath" d="M0,114.99999999997978C2.4166666666666665,114.99663003661824,4.833333333333334,114.9932600732567,7.25,114.98989010989011C9.666666666666666,114.98652014652352,12.083333333333334,114.98315018315019,14.5,114.97978021978022C16.916666666666668,114.97641025641026,19.333333333333332,114.9730402930403,21.75,114.96967032967034C24.166666666666668,114.96630036630037,26.583333333333332,114.9629304029304,29,114.95956043956043C31.416666666666668,114.95619047619047,33.833333333333336,114.95282051282052,36.25,114.94945054945056C38.666666666666664,114.9460805860806,41.083333333333336,114.94271062271062,43.5,114.93934065934066C45.91666666666667,114.9359706959707,48.333333333333336,114.93260073260073,50.75000000000001,114.92923076923077C53.16666666666667,114.92586080586081,55.583333333333336,114.92249084249084,58,114.91912087912088C60.416666666666664,114.91575091575092,62.833333333333336,114.91238095238096,65.25,114.909010989011C67.66666666666667,114.90564102564103,70.08333333333333,114.90227106227105,72.5,114.89890109890109C74.91666666666667,114.89553113553113,77.33333333333333,114.89216117216118,79.75,114.88879120879122C82.16666666666667,114.88542124542126,84.58333333333333,114.88205128205128,87,114.87868131868132C89.41666666666667,114.87531135531135,91.83333333333333,114.87194139194139,94.25,114.86857142857143C96.66666666666667,114.86520146520147,99.08333333333334,114.8618315018315,101.50000000000001,114.85846153846154C103.91666666666667,114.85509157509158,106.33333333333334,114.85172161172162,108.75,114.84835164835165C111.16666666666667,114.84498168498169,113.58333333333333,114.84161172161171,116,114.83824175824175C118.41666666666667,114.83487179487179,120.83333333333334,114.83150183150184,123.25000000000001,114.82813186813188C125.66666666666667,114.82476190476191,128.08333333333334,114.82139194139194,130.5,114.81802197802197C132.91666666666666,114.81465201465201,135.33333333333334,114.81128205128205,137.75,114.80791208791209C140.16666666666666,114.80454212454212,142.58333333333334,114.80117216117216,145,114.7978021978022C147.41666666666666,114.79443223443224,149.83333333333334,114.79106227106227,152.25,114.78769230769231C154.66666666666666,114.78432234432235,157.08333333333334,114.78095238095237,159.5,114.77758241758241C161.91666666666666,114.77421245421245,164.33333333333334,114.7708424908425,166.75,114.76747252747253C169.16666666666666,114.76410256410257,171.58333333333334,114.7607326007326,174,114.75736263736263C176.41666666666666,114.75399267399267,178.83333333333334,114.75062271062271,181.25,114.74725274725274C183.66666666666666,114.74388278388278,186.08333333333334,114.74051282051282,188.5,114.73714285714286C190.91666666666666,114.7337728937729,193.33333333333334,114.73040293040293,195.75,114.72703296703297C198.16666666666669,114.723663003663,200.58333333333334,114.72029304029303,203.00000000000003,114.71692307692307C205.41666666666669,114.7135531135531,207.83333333333331,114.71018315018316,210.24999999999997,114.70681318681319C212.66666666666666,114.70344322344323,215.08333333333331,114.70007326007327,217.5,114.6967032967033C219.91666666666666,114.69333333333334,222.33333333333334,114.68996336996337,224.75,114.6865934065934C227.16666666666666,114.68322344322344,229.58333333333334,114.67985347985349,232,114.67648351648353C234.41666666666666,114.67311355311357,236.83333333333334,114.66974358974359,239.25,114.66637362637363C241.66666666666669,114.66300366300366,244.08333333333334,114.6596336996337,246.50000000000003,114.65626373626374C248.91666666666669,114.65289377289378,251.33333333333331,114.64952380952381,253.74999999999997,114.64615384615385C256.16666666666663,114.64278388278389,258.5833333333333,114.63941391941393,261,114.63604395604396C263.4166666666667,114.632673992674,265.8333333333333,114.62930402930402,268.25,114.62593406593406C270.6666666666667,114.6225641025641,273.0833333333333,114.61919413919415,275.5,114.61582417582419C277.9166666666667,114.61245421245422,280.3333333333333,114.60908424908425,282.75,114.60571428571428C285.1666666666667,114.60234432234432,287.5833333333333,114.59897435897436,290,114.5956043956044C292.4166666666667,114.59223443223443,294.8333333333333,114.58886446886447,297.25,114.58549450549451C299.6666666666667,114.58212454212455,302.0833333333333,114.57875457875458,304.5,114.57538461538462C306.9166666666667,114.57201465201466,309.3333333333333,114.56864468864468,311.75,114.56527472527472C314.1666666666667,114.56190476190476,316.5833333333333,114.55853479853481,319,114.55516483516485C321.4166666666667,114.55179487179488,323.8333333333333,114.5484249084249,326.25,114.54505494505494C328.6666666666667,114.54168498168498,331.0833333333333,114.53831501831502,333.5,114.53494505494506C335.9166666666667,114.53157509157509,338.3333333333333,114.52820512820513,340.75,114.52483516483517C343.1666666666667,114.5214652014652,345.5833333333333,114.51809523809524,348,114.51472527472528C350.4166666666667,114.51135531135532,352.8333333333333,114.50798534798534,355.25,114.50461538461538C357.6666666666667,114.50124542124541,360.0833333333333,114.49787545787545,362.5,114.49450549450549C364.9166666666667,114.49113553113553,367.3333333333333,114.48776556776556,369.75,114.4843956043956C372.1666666666667,114.48102564102564,374.5833333333333,114.47765567765568,377,114.47428571428571C379.4166666666667,114.47091575091575,381.8333333333333,114.46754578754579,384.25,114.46417582417583C386.6666666666667,114.46080586080586,389.0833333333333,114.4574358974359,391.5,114.45406593406594C393.9166666666667,114.45069597069597,396.33333333333337,114.447326007326,398.75000000000006,114.44395604395604C401.16666666666674,114.44058608058607,403.58333333333337,114.43721611721611,406.00000000000006,114.43384615384615C408.4166666666667,114.43047619047618,410.8333333333333,114.42710622710622,413.24999999999994,114.42373626373626C415.66666666666663,114.4203663003663,418.08333333333326,114.41699633699633,420.49999999999994,114.41362637362637C422.91666666666663,114.41025641025641,425.3333333333333,114.40688644688645,427.75,114.40351648351648C430.1666666666667,114.40014652014652,432.5833333333333,114.39677655677656,435,114.3934065934066C437.4166666666667,114.39003663003663,439.8333333333333,114.38666666666667,442.25,114.38329670329671C444.6666666666667,114.37992673992674,447.0833333333333,114.37655677655677,449.5,114.3731868131868C451.9166666666667,114.36981684981684,454.3333333333333,114.3664468864469,456.75,114.36307692307693C459.1666666666667,114.35970695970697,461.5833333333333,114.35633699633699,464,114.35296703296703C466.4166666666667,114.34959706959707,468.8333333333333,114.3462271062271,471.25,114.34285714285714C473.6666666666667,114.33948717948718,476.0833333333333,114.33611721611722,478.5,114.33274725274725C480.9166666666667,114.32937728937729,483.33333333333337,114.32600732600733,485.75000000000006,114.32263736263737C488.16666666666674,114.3192673992674,490.58333333333337,114.31589743589743,493.00000000000006,114.31252747252746C495.4166666666667,114.3091575091575,497.8333333333333,114.30578754578755,500.24999999999994,114.30241758241759C502.66666666666663,114.29904761904763,505.08333333333326,114.29904761904763,507.49999999999994,114.29230769230769C509.91666666666663,114.28556776556775,512.3333333333333,113.79420118343195,514.75,113.54514792899408C517.1666666666666,113.29609467455622,519.5833333333334,113.04704142011835,522,112.79798816568048C524.4166666666666,112.54893491124261,526.8333333333334,112.29988165680473,529.25,112.05082840236686C531.6666666666666,111.80177514792899,534.0833333333334,111.55272189349112,536.5,111.30366863905326C538.9166666666666,111.05461538461539,541.3333333333334,110.80556213017752,543.75,110.55650887573965C546.1666666666666,110.30745562130178,548.5833333333334,110.0584023668639,551,109.80934911242603C553.4166666666666,109.56029585798817,555.8333333333334,109.3112426035503,558.25,109.06218934911243C560.6666666666666,108.81313609467456,563.0833333333334,108.5640828402367,565.5,108.31502958579883C567.9166666666666,108.06597633136096,570.3333333333334,107.81692307692308,572.75,107.5678698224852C575.1666666666666,107.31881656804734,577.5833333333334,107.06976331360946,580,106.82071005917159C582.4166666666666,106.57165680473372,584.8333333333334,106.32260355029585,587.25,106.07355029585798C589.6666666666666,105.82449704142012,592.0833333333334,105.57544378698225,594.5,105.32639053254438C596.9166666666666,105.07733727810651,599.3333333333334,104.82828402366863,601.75,104.57923076923076C604.1666666666666,104.3301775147929,606.5833333333334,104.08112426035503,609,103.83207100591716C611.4166666666666,103.58301775147929,613.8333333333334,103.33396449704142,616.25,103.08491124260355C618.6666666666666,102.83585798816569,621.0833333333334,102.5868047337278,623.5,102.33775147928993C625.9166666666666,102.08869822485207,628.3333333333334,101.8396449704142,630.75,101.59059171597633C633.1666666666666,101.34153846153846,635.5833333333334,101.0924852071006,638,100.84343195266273C640.4166666666666,100.59437869822486,642.8333333333334,100.34532544378699,645.25,100.09627218934912C647.6666666666666,99.84721893491125,650.0833333333334,99.59816568047337,652.5,99.3491124260355C654.9166666666666,99.10005917159764,657.3333333333334,98.85100591715977,659.75,98.6019526627219C662.1666666666666,98.35289940828403,664.5833333333334,98.10384615384616,667,97.8547928994083C669.4166666666666,97.60573964497043,671.8333333333334,97.35668639053254,674.25,97.10763313609468C676.6666666666666,96.85857988165681,679.0833333333334,96.60952662721893,681.5,96.36047337278106C683.9166666666666,96.11142011834319,686.3333333333334,95.86236686390532,688.75,95.61331360946745C691.1666666666666,95.36426035502959,693.5833333333334,95.11520710059172,696,94.86615384615385C698.4166666666666,94.61710059171598,700.8333333333334,94.3680473372781,703.25,94.11899408284023C705.6666666666666,93.86994082840236,708.0833333333334,93.6208875739645,710.5,93.37183431952663C712.9166666666666,93.12278106508876,715.3333333333334,92.87372781065088,717.75,92.62467455621301C720.1666666666666,92.37562130177514,722.5833333333334,92.12656804733729,725,91.87751479289942C727.4166666666666,91.62846153846155,729.8333333333334,91.37940828402367,732.25,91.1303550295858C734.6666666666666,90.88130177514793,737.0833333333334,90.63224852071006,739.5,90.3831952662722C741.9166666666666,90.13414201183433,744.3333333333334,89.88508875739646,746.75,89.63603550295859C749.1666666666666,89.38698224852072,751.5833333333334,89.13792899408284,754,88.88887573964497C756.4166666666666,88.6398224852071,758.8333333333334,88.39076923076922,761.25,88.14171597633135C763.6666666666666,87.89266272189349,766.0833333333334,87.64360946745562,768.5,87.39455621301775C770.9166666666666,87.14550295857988,773.3333333333334,86.896449704142,775.75,86.64739644970413C778.1666666666666,86.39834319526626,780.5833333333334,86.1492899408284,783,85.90023668639053C785.4166666666667,85.65118343195266,787.8333333333334,85.40213017751479,790.2500000000001,85.15307692307692C792.6666666666667,84.90402366863906,795.0833333333335,84.65497041420117,797.5000000000001,84.4059171597633C799.9166666666667,84.15686390532544,802.3333333333335,83.90781065088757,804.7500000000001,83.6587573964497C807.1666666666667,83.40970414201183,809.5833333333335,83.16065088757396,812.0000000000001,82.9115976331361C814.4166666666667,82.66254437869823,816.8333333333333,82.41349112426035,819.2499999999999,82.16443786982248C821.6666666666665,81.91538461538461,824.0833333333333,81.66633136094676,826.4999999999999,81.41727810650889C828.9166666666665,81.16822485207102,831.3333333333333,80.91917159763314,833.7499999999999,80.67011834319527C836.1666666666665,80.4210650887574,838.5833333333333,80.17201183431952,840.9999999999999,79.92295857988165C843.4166666666666,79.67390532544378,845.8333333333333,79.42485207100593,848.25,79.17579881656806C850.6666666666666,78.9267455621302,853.0833333333334,78.67769230769231,855.5,78.42863905325444C857.9166666666666,78.17958579881657,860.3333333333334,77.93053254437869,862.75,77.68147928994082C865.1666666666666,77.43242603550296,867.5833333333334,77.18337278106509,870,76.93431952662722C872.4166666666666,76.68526627218935,874.8333333333334,76.43621301775147,877.25,76.1871597633136C879.6666666666666,75.93810650887573,882.0833333333334,75.68905325443785,884.5,75.43999999999998C886.9166666666666,75.19094674556212,889.3333333333334,74.94189349112426,891.75,74.6928402366864C894.1666666666666,74.44378698224853,896.5833333333334,74.19473372781064,899,73.94568047337278C901.4166666666666,73.6966272189349,903.8333333333334,73.44757396449704,906.25,73.19852071005917C908.6666666666666,72.9494674556213,911.0833333333334,72.70041420118343,913.5,72.45136094674557C915.9166666666666,72.2023076923077,918.3333333333334,71.95325443786982,920.75,71.70420118343195C923.1666666666666,71.45514792899408,925.5833333333334,71.20609467455621,928,70.95704142011834C930.4166666666666,70.70798816568048,932.8333333333334,70.45893491124261,935.25,70.20988165680474C937.6666666666666,69.96082840236687,940.0833333333334,69.71177514792899,942.5,69.46272189349112C944.9166666666666,69.21366863905325,947.3333333333334,68.9646153846154,949.75,68.71556213017753C952.1666666666666,68.46650887573966,954.5833333333334,68.21745562130178,957,67.96840236686391C959.4166666666666,67.71934911242604,961.8333333333334,67.47029585798816,964.25,67.2212426035503C966.6666666666667,66.97218934911243,969.0833333333334,66.72313609467456,971.5000000000001,66.47408284023669C973.9166666666667,66.22502958579882,976.3333333333335,65.97597633136094,978.7500000000001,65.72692307692307C981.1666666666667,65.4778698224852,983.5833333333335,65.22881656804732,986.0000000000001,64.97976331360945C988.4166666666667,64.73071005917159,990.8333333333335,64.48165680473373,993.2500000000001,64.23260355029586C995.6666666666667,63.983550295858,998.0833333333333,63.73449704142012,1000.4999999999999,63.48544378698225C1002.9166666666665,63.23639053254438,1005.3333333333333,62.98733727810651,1007.7499999999999,62.73828402366864C1010.1666666666665,62.48923076923077,1012.5833333333333,62.24017751479289,1014.9999999999999,61.99112426035502C1017.4166666666665,61.742071005917154,1019.8333333333333,61.493017751479286,1022.2499999999999,61.24396449704142C1024.6666666666665,60.99491124260354,1027.0833333333333,60.74585798816567,1029.5,60.4968047337278C1031.9166666666667,60.24775147928993,1034.3333333333333,59.99869822485208,1036.75,59.74964497041421C1039.1666666666667,59.50059171597634,1041.5833333333333,59.25153846153846,1044,59.00248520710059C1046.4166666666667,58.75343195266272,1048.8333333333333,58.504378698224855,1051.25,58.25532544378699C1053.6666666666667,58.00627218934912,1056.0833333333333,57.75721893491124,1058.5,57.508165680473375C1060.9166666666667,57.25911242603551,1063.3333333333333,57.01005917159764,1065.75,56.76100591715977C1068.1666666666667,56.5119526627219,1070.5833333333333,56.26289940828403,1073,56.01384615384615C1075.4166666666667,55.76479289940828,1077.8333333333333,55.5157396449704,1080.25,55.266686390532534C1082.6666666666667,55.017633136094666,1085.0833333333333,54.7685798816568,1087.5,54.51952662721893C1089.9166666666667,54.27047337278106,1092.3333333333333,54.0214201183432,1094.75,53.77236686390533C1097.1666666666667,53.523313609467465,1099.5833333333333,53.27426035502959,1102,53.025207100591714C1104.4166666666667,52.77615384615384,1106.8333333333333,52.527100591715964,1109.25,52.278047337278096C1111.6666666666667,52.02899408284023,1114.0833333333333,51.77994082840236,1116.5,51.53088757396449C1118.9166666666667,51.281834319526624,1121.3333333333333,51.032781065088756,1123.75,50.78372781065089C1126.1666666666667,50.53467455621302,1128.5833333333333,50.28562130177514,1131,50.03656804733727C1133.4166666666667,49.7875147928994,1135.8333333333333,49.53846153846153,1138.25,49.289408284023665C1140.6666666666667,49.0403550295858,1143.0833333333333,48.79130177514793,1145.5,48.54224852071006C1147.9166666666667,48.29319526627219,1150.3333333333333,48.04414201183432,1152.75,47.79508875739645C1155.1666666666667,47.54603550295858,1157.5833333333333,47.2969822485207,1160,47.04792899408283C1162.4166666666667,46.79887573964496,1164.8333333333333,46.549822485207095,1167.25,46.30076923076923C1169.6666666666667,46.05171597633136,1172.0833333333333,45.80266272189349,1174.5,45.55360946745562C1176.9166666666667,45.304556213017754,1179.3333333333333,45.055502958579886,1181.75,44.80644970414202C1184.1666666666667,44.55739644970415,1186.5833333333333,44.308343195266275,1189,44.0592899408284C1191.4166666666667,43.810236686390525,1193.8333333333333,43.56118343195265,1196.25,43.31213017751478C1198.6666666666667,43.06307692307691,1201.0833333333333,42.81402366863905,1203.5,42.564970414201184C1205.9166666666667,42.315917159763316,1208.3333333333333,42.066863905325434,1210.75,41.817810650887566C1213.1666666666667,41.5687573964497,1215.5833333333333,41.31970414201183,1218,41.07065088757396C1220.4166666666667,40.82159763313609,1222.8333333333333,40.572544378698225,1225.25,40.32349112426036C1227.6666666666667,40.07443786982249,1230.0833333333333,39.82538461538461,1232.5,39.57633136094674C1234.9166666666667,39.32727810650887,1237.3333333333333,39.07822485207102,1239.75,38.82917159763315C1242.1666666666667,38.58011834319528,1244.5833333333333,38.3310650887574,1247,38.08201183431953C1249.4166666666667,37.83295857988166,1251.8333333333333,37.58390532544379,1254.25,37.33485207100592C1256.6666666666667,37.08579881656805,1259.0833333333333,36.83674556213017,1261.5,36.5876923076923C1263.9166666666667,36.33863905325443,1266.3333333333333,36.089585798816564,1268.75,35.840532544378696C1271.1666666666667,35.59147928994083,1273.5833333333333,35.34242603550296,1276,35.09337278106509C1278.4166666666667,34.844319526627224,1280.8333333333333,34.59526627218934,1283.25,34.346213017751474C1285.6666666666667,34.097159763313606,1288.0833333333333,33.84810650887575,1290.5,33.599053254437884C1292.9166666666667,33.350000000000016,1295.3333333333333,33.10094674556214,1297.75,32.851893491124265C1300.1666666666667,32.60284023668639,1302.5833333333333,32.35378698224852,1305,32.10473372781065C1307.4166666666667,31.855680473372775,1309.8333333333333,31.606627218934893,1312.25,31.357573964497025C1314.6666666666667,31.108520710059157,1317.0833333333333,30.859467455621296,1319.5,30.61041420118343C1321.9166666666667,30.361360946745567,1324.3333333333333,30.11230769230771,1326.75,29.86325443786984C1329.1666666666667,29.614201183431973,1331.5833333333333,29.365147928994094,1334,29.116094674556223C1336.4166666666667,28.86704142011835,1338.8333333333333,28.617988165680476,1341.25,28.368934911242604C1343.6666666666667,28.119881656804733,1346.0833333333333,27.870828402366854,1348.5,27.621775147928986C1350.9166666666667,27.372721893491118,1353.3333333333333,27.12366863905326,1355.75,26.874615384615392C1358.1666666666667,26.625562130177524,1360.5833333333333,26.376508875739646,1363,26.127455621301774C1365.4166666666667,25.878402366863902,1367.8333333333333,25.629349112426034,1370.25,25.380295857988166C1372.6666666666667,25.131242603550298,1375.0833333333333,24.882189349112434,1377.5,24.633136094674562C1379.9166666666667,24.38408284023669,1382.3333333333333,24.13502958579881,1384.75,23.885976331360943C1387.1666666666667,23.636923076923075,1389.5833333333333,23.387869822485218,1392,23.13881656804735C1394.4166666666667,22.889763313609482,1396.8333333333333,22.640710059171603,1399.25,22.39165680473373C1401.6666666666667,22.14260355029586,1404.0833333333333,21.893550295857985,1406.5,21.644497041420113C1408.9166666666667,21.39544378698224,1411.3333333333333,21.146390532544366,1413.75,20.897337278106495C1416.1666666666667,20.648284023668623,1418.5833333333333,20.399230769230755,1421,20.15017751479289C1423.4166666666667,19.901124260355026,1425.8333333333333,19.652071005917165,1428.25,19.403017751479297C1430.6666666666667,19.15396449704143,1433.0833333333333,18.904911242603546,1435.5,18.65585798816568C1437.9166666666667,18.40680473372781,1440.3333333333333,18.157751479289953,1442.75,17.908698224852085C1445.1666666666667,17.659644970414217,1447.5833333333333,17.41059171597634,1450,17.161538461538466" fill="transparent" stroke-linecap="round" stroke="#B6509E" stroke-width="2"></path><path class="visx-linepath" d="M0,113.23076923071868C2.4166666666666665,113.22234432231483,4.833333333333334,113.21391941391099,7.25,113.2054945054945C9.666666666666666,113.19706959707801,12.083333333333334,113.18864468864467,14.5,113.18021978021977C16.916666666666668,113.17179487179487,19.333333333333332,113.16336996336997,21.75,113.15494505494506C24.166666666666668,113.14652014652015,26.583333333333332,113.13809523809525,29,113.12967032967033C31.416666666666668,113.12124542124542,33.833333333333336,113.1128205128205,36.25,113.10439560439559C38.666666666666664,113.09597069597068,41.083333333333336,113.08754578754578,43.5,113.07912087912088C45.91666666666667,113.07069597069597,48.333333333333336,113.06227106227107,50.75000000000001,113.05384615384615C53.16666666666667,113.04542124542124,55.583333333333336,113.03699633699632,58,113.02857142857142C60.416666666666664,113.02014652014651,62.833333333333336,113.01172161172163,65.25,113.00329670329671C67.66666666666667,112.9948717948718,70.08333333333333,112.98644688644688,72.5,112.97802197802197C74.91666666666667,112.96959706959706,77.33333333333333,112.96117216117216,79.75,112.95274725274724C82.16666666666667,112.94432234432233,84.58333333333333,112.93589743589743,87,112.92747252747253C89.41666666666667,112.91904761904763,91.83333333333333,112.91062271062272,94.25,112.9021978021978C96.66666666666667,112.89377289377289,99.08333333333334,112.88534798534799,101.50000000000001,112.87692307692308C103.91666666666667,112.86849816849816,106.33333333333334,112.86007326007326,108.75,112.85164835164835C111.16666666666667,112.84322344322344,113.58333333333333,112.83479853479854,116,112.82637362637362C118.41666666666667,112.81794871794871,120.83333333333334,112.80952380952381,123.25000000000001,112.8010989010989C125.66666666666667,112.792673992674,128.08333333333334,112.78424908424908,130.5,112.77582417582418C132.91666666666666,112.76739926739927,135.33333333333334,112.75897435897437,137.75,112.75054945054946C140.16666666666666,112.74212454212454,142.58333333333334,112.73369963369963,145,112.72527472527472C147.41666666666666,112.7168498168498,149.83333333333334,112.70842490842492,152.25,112.7C154.66666666666666,112.69157509157509,157.08333333333334,112.68315018315019,159.5,112.67472527472528C161.91666666666666,112.66630036630036,164.33333333333334,112.65787545787546,166.75,112.64945054945055C169.16666666666666,112.64102564102564,171.58333333333334,112.63260073260075,174,112.62417582417584C176.41666666666666,112.61575091575092,178.83333333333334,112.60732600732601,181.25,112.5989010989011C183.66666666666666,112.59047619047618,186.08333333333334,112.58205128205128,188.5,112.57362637362637C190.91666666666666,112.56520146520145,193.33333333333334,112.55677655677655,195.75,112.54835164835166C198.16666666666669,112.53992673992674,200.58333333333334,112.53150183150184,203.00000000000003,112.52307692307693C205.41666666666669,112.51465201465201,207.83333333333331,112.5062271062271,210.24999999999997,112.49780219780219C212.66666666666666,112.48937728937727,215.08333333333331,112.48095238095239,217.5,112.47252747252747C219.91666666666666,112.46410256410257,222.33333333333334,112.45567765567766,224.75,112.44725274725275C227.16666666666666,112.43882783882783,229.58333333333334,112.43040293040292,232,112.42197802197802C234.41666666666666,112.41355311355312,236.83333333333334,112.40512820512822,239.25,112.39670329670331C241.66666666666669,112.3882783882784,244.08333333333334,112.37985347985348,246.50000000000003,112.37142857142857C248.91666666666669,112.36300366300365,251.33333333333331,112.35457875457874,253.74999999999997,112.34615384615384C256.16666666666663,112.33772893772893,258.5833333333333,112.32930402930404,261,112.32087912087913C263.4166666666667,112.31245421245423,265.8333333333333,112.30402930402931,268.25,112.2956043956044C270.6666666666667,112.28717948717949,273.0833333333333,112.27875457875459,275.5,112.27032967032967C277.9166666666667,112.26190476190476,280.3333333333333,112.25347985347986,282.75,112.24505494505495C285.1666666666667,112.23663003663003,287.5833333333333,112.22820512820513,290,112.21978021978022C292.4166666666667,112.2113553113553,294.8333333333333,112.2029304029304,297.25,112.19450549450549C299.6666666666667,112.18608058608058,302.0833333333333,112.17765567765568,304.5,112.16923076923077C306.9166666666667,112.16080586080585,309.3333333333333,112.15238095238097,311.75,112.14395604395605C314.1666666666667,112.13553113553114,316.5833333333333,112.12710622710622,319,112.11868131868131C321.4166666666667,112.1102564102564,323.8333333333333,112.1018315018315,326.25,112.09340659340658C328.6666666666667,112.08498168498167,331.0833333333333,112.07655677655677,333.5,112.06813186813187C335.9166666666667,112.05970695970697,338.3333333333333,112.05128205128206,340.75,112.04285714285714C343.1666666666667,112.03443223443223,345.5833333333333,112.02600732600733,348,112.01758241758242C350.4166666666667,112.0091575091575,352.8333333333333,112.0007326007326,355.25,111.99230769230769C357.6666666666667,111.98388278388278,360.0833333333333,111.97545787545788,362.5,111.96703296703296C364.9166666666667,111.95860805860805,367.3333333333333,111.95018315018314,369.75,111.94175824175824C372.1666666666667,111.93333333333334,374.5833333333333,111.92490842490844,377,111.91648351648352C379.4166666666667,111.90805860805861,381.8333333333333,111.89963369963371,384.25,111.8912087912088C386.6666666666667,111.88278388278388,389.0833333333333,111.87435897435897,391.5,111.86593406593406C393.9166666666667,111.85750915750914,396.33333333333337,111.84908424908426,398.75000000000006,111.84065934065934C401.16666666666674,111.83223443223444,403.58333333333337,111.82380952380953,406.00000000000006,111.81538461538462C408.4166666666667,111.8069597069597,410.8333333333333,111.79853479853479,413.24999999999994,111.79010989010989C415.66666666666663,111.78168498168498,418.08333333333326,111.77326007326009,420.49999999999994,111.76483516483518C422.91666666666663,111.75641025641026,425.3333333333333,111.74798534798535,427.75,111.73956043956044C430.1666666666667,111.73113553113552,432.5833333333333,111.72271062271062,435,111.71428571428571C437.4166666666667,111.7058608058608,439.8333333333333,111.6974358974359,442.25,111.689010989011C444.6666666666667,111.6805860805861,447.0833333333333,111.67216117216118,449.5,111.66373626373627C451.9166666666667,111.65531135531135,454.3333333333333,111.64688644688644,456.75,111.63846153846153C459.1666666666667,111.63003663003661,461.5833333333333,111.62161172161171,464,111.61318681318681C466.4166666666667,111.60476190476192,468.8333333333333,111.596336996337,471.25,111.58791208791209C473.6666666666667,111.57948717948717,476.0833333333333,111.57106227106226,478.5,111.56263736263736C480.9166666666667,111.55421245421245,483.33333333333337,111.54578754578756,485.75000000000006,111.53736263736265C488.16666666666674,111.52893772893773,490.58333333333337,111.52051282051282,493.00000000000006,111.5120879120879C495.4166666666667,111.503663003663,497.8333333333333,111.49523809523808,500.24999999999994,111.48681318681318C502.66666666666663,111.47838827838827,505.08333333333326,111.47838827838828,507.49999999999994,111.46153846153847C509.91666666666663,111.44468864468865,512.3333333333333,110.96343195266273,514.75,110.71437869822486C517.1666666666666,110.465325443787,519.5833333333334,110.21627218934911,522,109.96721893491124C524.4166666666666,109.71816568047338,526.8333333333334,109.4691124260355,529.25,109.22005917159763C531.6666666666666,108.97100591715976,534.0833333333334,108.72195266272189,536.5,108.47289940828402C538.9166666666666,108.22384615384615,541.3333333333334,107.97479289940827,543.75,107.7257396449704C546.1666666666666,107.47668639053254,548.5833333333334,107.22763313609467,551,106.9785798816568C553.4166666666666,106.72952662721893,555.8333333333334,106.48047337278106,558.25,106.2314201183432C560.6666666666666,105.98236686390533,563.0833333333334,105.73331360946746,565.5,105.48426035502959C567.9166666666666,105.23520710059172,570.3333333333334,104.98615384615384,572.75,104.73710059171597C575.1666666666666,104.4880473372781,577.5833333333334,104.23899408284024,580,103.98994082840237C582.4166666666666,103.7408875739645,584.8333333333334,103.49183431952663,587.25,103.24278106508876C589.6666666666666,102.9937278106509,592.0833333333334,102.74467455621301,594.5,102.49562130177515C596.9166666666666,102.24656804733728,599.3333333333334,101.99751479289941,601.75,101.74846153846154C604.1666666666666,101.49940828402367,606.5833333333334,101.2503550295858,609,101.00130177514794C611.4166666666666,100.75224852071007,613.8333333333334,100.50319526627219,616.25,100.25414201183432C618.6666666666666,100.00508875739645,621.0833333333334,99.75603550295857,623.5,99.5069822485207C625.9166666666666,99.25792899408283,628.3333333333334,99.00887573964496,630.75,98.7598224852071C633.1666666666666,98.51076923076923,635.5833333333334,98.26171597633136,638,98.01266272189349C640.4166666666666,97.76360946745562,642.8333333333334,97.51455621301774,645.25,97.26550295857987C647.6666666666666,97.016449704142,650.0833333333334,96.76739644970414,652.5,96.51834319526627C654.9166666666666,96.2692899408284,657.3333333333334,96.02023668639053,659.75,95.77118343195266C662.1666666666666,95.5221301775148,664.5833333333334,95.27307692307691,667,95.02402366863905C669.4166666666666,94.77497041420118,671.8333333333334,94.52591715976331,674.25,94.27686390532544C676.6666666666666,94.02781065088757,679.0833333333334,93.7787573964497,681.5,93.52970414201184C683.9166666666666,93.28065088757397,686.3333333333334,93.03159763313609,688.75,92.78254437869822C691.1666666666666,92.53349112426035,693.5833333333334,92.28443786982248,696,92.03538461538461C698.4166666666666,91.78633136094675,700.8333333333334,91.53727810650888,703.25,91.28822485207101C705.6666666666666,91.03917159763314,708.0833333333334,90.79011834319527,710.5,90.5410650887574C712.9166666666666,90.29201183431954,715.3333333333334,90.04295857988166,717.75,89.79390532544379C720.1666666666666,89.54485207100592,722.5833333333334,89.29579881656804,725,89.04674556213017C727.4166666666666,88.7976923076923,729.8333333333334,88.54863905325443,732.25,88.29958579881657C734.6666666666666,88.0505325443787,737.0833333333334,87.80147928994083,739.5,87.55242603550296C741.9166666666666,87.3033727810651,744.3333333333334,87.05431952662721,746.75,86.80526627218934C749.1666666666666,86.55621301775147,751.5833333333334,86.30715976331359,754,86.05810650887572C756.4166666666666,85.80905325443786,758.8333333333334,85.56,761.25,85.31094674556213C763.6666666666666,85.06189349112427,766.0833333333334,84.81284023668638,768.5,84.56378698224852C770.9166666666666,84.31473372781065,773.3333333333334,84.06568047337278,775.75,83.81662721893491C778.1666666666666,83.56757396449704,780.5833333333334,83.31852071005918,783,83.06946745562131C785.4166666666667,82.82041420118344,787.8333333333334,82.57136094674556,790.2500000000001,82.32230769230769C792.6666666666667,82.07325443786982,795.0833333333335,81.82420118343195,797.5000000000001,81.57514792899408C799.9166666666667,81.32609467455622,802.3333333333335,81.07704142011835,804.7500000000001,80.82798816568048C807.1666666666667,80.57893491124261,809.5833333333335,80.32988165680473,812.0000000000001,80.08082840236686C814.4166666666667,79.831775147929,816.8333333333333,79.58272189349113,819.2499999999999,79.33366863905326C821.6666666666665,79.08461538461539,824.0833333333333,78.83556213017751,826.4999999999999,78.58650887573964C828.9166666666665,78.33745562130177,831.3333333333333,78.0884023668639,833.7499999999999,77.83934911242604C836.1666666666665,77.59029585798817,838.5833333333333,77.3412426035503,840.9999999999999,77.09218934911243C843.4166666666666,76.84313609467456,845.8333333333333,76.59408284023668,848.25,76.34502958579881C850.6666666666666,76.09597633136094,853.0833333333334,75.84692307692306,855.5,75.5978698224852C857.9166666666666,75.34881656804733,860.3333333333334,75.09976331360947,862.75,74.8507100591716C865.1666666666666,74.60165680473374,867.5833333333334,74.35260355029585,870,74.10355029585799C872.4166666666666,73.85449704142012,874.8333333333334,73.60544378698225,877.25,73.35639053254438C879.6666666666666,73.10733727810651,882.0833333333334,72.85828402366865,884.5,72.60923076923078C886.9166666666666,72.36017751479291,889.3333333333334,72.11112426035503,891.75,71.86207100591716C894.1666666666666,71.61301775147929,896.5833333333334,71.36396449704142,899,71.11491124260355C901.4166666666666,70.86585798816569,903.8333333333334,70.61680473372782,906.25,70.36775147928995C908.6666666666666,70.11869822485208,911.0833333333334,69.8696449704142,913.5,69.62059171597633C915.9166666666666,69.37153846153846,918.3333333333334,69.1224852071006,920.75,68.87343195266273C923.1666666666666,68.62437869822486,925.5833333333334,68.37532544378698,928,68.12627218934911C930.4166666666666,67.87721893491124,932.8333333333334,67.62816568047337,935.25,67.3791124260355C937.6666666666666,67.13005917159764,940.0833333333334,66.88100591715977,942.5,66.6319526627219C944.9166666666666,66.38289940828403,947.3333333333334,66.13384615384615,949.75,65.88479289940828C952.1666666666666,65.63573964497041,954.5833333333334,65.38668639053253,957,65.13763313609466C959.4166666666666,64.8885798816568,961.8333333333334,64.63952662721893,964.25,64.39047337278106C966.6666666666667,64.14142011834319,969.0833333333334,63.89236686390533,971.5000000000001,63.643313609467455C973.9166666666667,63.39426035502959,976.3333333333335,63.145207100591705,978.7500000000001,62.89615384615384C981.1666666666667,62.64710059171597,983.5833333333335,62.398047337278115,986.0000000000001,62.14899408284025C988.4166666666667,61.89994082840238,990.8333333333335,61.6508875739645,993.2500000000001,61.40183431952663C995.6666666666667,61.15278106508876,998.0833333333333,60.903727810650885,1000.4999999999999,60.65467455621302C1002.9166666666665,60.40562130177514,1005.3333333333333,60.15656804733727,1007.7499999999999,59.9075147928994C1010.1666666666665,59.65846153846153,1012.5833333333333,59.40940828402366,1014.9999999999999,59.160355029585794C1017.4166666666665,58.911301775147926,1019.8333333333333,58.662248520710044,1022.2499999999999,58.413195266272176C1024.6666666666665,58.16414201183431,1027.0833333333333,57.915088757396454,1029.5,57.666035502958586C1031.9166666666667,57.41698224852072,1034.3333333333333,57.167928994082835,1036.75,56.91887573964497C1039.1666666666667,56.6698224852071,1041.5833333333333,56.42076923076923,1044,56.17171597633136C1046.4166666666667,55.922662721893495,1048.8333333333333,55.67360946745562,1051.25,55.42455621301775C1053.6666666666667,55.175502958579884,1056.0833333333333,54.926449704142016,1058.5,54.67739644970415C1060.9166666666667,54.42834319526628,1063.3333333333333,54.179289940828404,1065.75,53.93023668639053C1068.1666666666667,53.681183431952654,1070.5833333333333,53.43213017751478,1073,53.18307692307691C1075.4166666666667,52.93402366863904,1077.8333333333333,52.68497041420119,1080.25,52.43591715976332C1082.6666666666667,52.18686390532545,1085.0833333333333,51.937810650887585,1087.5,51.68875739644972C1089.9166666666667,51.43970414201185,1092.3333333333333,51.190650887573966,1094.75,50.9415976331361C1097.1666666666667,50.69254437869823,1099.5833333333333,50.443491124260355,1102,50.19443786982249C1104.4166666666667,49.94538461538462,1106.8333333333333,49.696331360946736,1109.25,49.44727810650887C1111.6666666666667,49.198224852071,1114.0833333333333,48.94917159763313,1116.5,48.700118343195264C1118.9166666666667,48.451065088757396,1121.3333333333333,48.202011834319514,1123.75,47.952958579881646C1126.1666666666667,47.70390532544378,1128.5833333333333,47.454852071005924,1131,47.205798816568056C1133.4166666666667,46.95674556213019,1135.8333333333333,46.707692307692305,1138.25,46.45863905325444C1140.6666666666667,46.20958579881657,1143.0833333333333,45.9605325443787,1145.5,45.71147928994083C1147.9166666666667,45.462426035502965,1150.3333333333333,45.21337278106508,1152.75,44.964319526627214C1155.1666666666667,44.715266272189346,1157.5833333333333,44.466213017751485,1160,44.21715976331362C1162.4166666666667,43.96810650887575,1164.8333333333333,43.71905325443787,1167.25,43.47C1169.6666666666667,43.22094674556213,1172.0833333333333,42.97189349112426,1174.5,42.722840236686395C1176.9166666666667,42.47378698224853,1179.3333333333333,42.224733727810644,1181.75,41.975680473372776C1184.1666666666667,41.72662721893491,1186.5833333333333,41.47757396449704,1189,41.22852071005917C1191.4166666666667,40.979467455621304,1193.8333333333333,40.73041420118342,1196.25,40.48136094674555C1198.6666666666667,40.232307692307685,1201.0833333333333,39.983254437869824,1203.5,39.734201183431956C1205.9166666666667,39.48514792899409,1208.3333333333333,39.23609467455622,1210.75,38.98704142011835C1213.1666666666667,38.737988165680484,1215.5833333333333,38.4889349112426,1218,38.239881656804734C1220.4166666666667,37.990828402366866,1222.8333333333333,37.741775147929,1225.25,37.49272189349113C1227.6666666666667,37.24366863905326,1230.0833333333333,36.99461538461538,1232.5,36.74556213017751C1234.9166666666667,36.49650887573964,1237.3333333333333,36.247455621301775,1239.75,35.99840236686391C1242.1666666666667,35.74934911242604,1244.5833333333333,35.50029585798816,1247,35.25124260355029C1249.4166666666667,35.00218934911242,1251.8333333333333,34.75313609467455,1254.25,34.504082840236684C1256.6666666666667,34.255029585798816,1259.0833333333333,34.00597633136094,1261.5,33.75692307692307C1263.9166666666667,33.507869822485205,1266.3333333333333,33.25881656804732,1268.75,33.009763313609454C1271.1666666666667,32.760710059171586,1273.5833333333333,32.51165680473373,1276,32.262603550295864C1278.4166666666667,32.013550295857996,1280.8333333333333,31.764497041420118,1283.25,31.515443786982246C1285.6666666666667,31.266390532544374,1288.0833333333333,31.017337278106513,1290.5,30.76828402366864C1292.9166666666667,30.51923076923077,1295.3333333333333,30.270177514792895,1297.75,30.021124260355023C1300.1666666666667,29.77207100591715,1302.5833333333333,29.523017751479284,1305,29.273964497041415C1307.4166666666667,29.024911242603547,1309.8333333333333,28.77585798816569,1312.25,28.526804733727822C1314.6666666666667,28.277751479289954,1317.0833333333333,28.028698224852075,1319.5,27.779644970414203C1321.9166666666667,27.530591715976332,1324.3333333333333,27.28153846153847,1326.75,27.0324852071006C1329.1666666666667,26.783431952662728,1331.5833333333333,26.534378698224852,1334,26.28532544378698C1336.4166666666667,26.03627218934911,1338.8333333333333,25.787218934911248,1341.25,25.538165680473377C1343.6666666666667,25.289112426035505,1346.0833333333333,25.04005917159763,1348.5,24.791005917159758C1350.9166666666667,24.541952662721886,1353.3333333333333,24.29289940828402,1355.75,24.04384615384615C1358.1666666666667,23.794792899408282,1360.5833333333333,23.545739644970425,1363,23.296686390532557C1365.4166666666667,23.04763313609469,1367.8333333333333,22.79857988165681,1370.25,22.54952662721894C1372.6666666666667,22.300473372781067,1375.0833333333333,22.051420118343206,1377.5,21.802366863905334C1379.9166666666667,21.553313609467462,1382.3333333333333,21.304260355029584,1384.75,21.055207100591716C1387.1666666666667,20.806153846153848,1389.5833333333333,20.55710059171599,1392,20.308047337278122C1394.4166666666667,20.058994082840254,1396.8333333333333,19.809940828402375,1399.25,19.560887573964504C1401.6666666666667,19.311834319526632,1404.0833333333333,19.062781065088757,1406.5,18.813727810650885C1408.9166666666667,18.564674556213014,1411.3333333333333,18.315621301775153,1413.75,18.06656804733728C1416.1666666666667,17.81751479289941,1418.5833333333333,17.56846153846153,1421,17.319408284023663C1423.4166666666667,17.070355029585794,1425.8333333333333,16.821301775147937,1428.25,16.57224852071007C1430.6666666666667,16.3231952662722,1433.0833333333333,16.074142011834322,1435.5,15.82508875739645C1437.9166666666667,15.576035502958579,1440.3333333333333,15.326982248520714,1442.75,15.077928994082844C1445.1666666666667,14.828875739644975,1447.5833333333333,14.5798224852071,1450,14.330769230769226" fill="transparent" stroke-linecap="round" stroke="#E7C6DF" stroke-width="2"></path><g class="visx-group visx-axis visx-axis-bottom" transform="translate(0, 115)"><g class="visx-group visx-axis-tick" transform="translate(0, 0)"><line class="visx-line" x1="0" y1="0" x2="0" y2="8" fill="transparent" shape-rendering="crispEdges" stroke="#000" stroke-width="0" stroke-linecap="square"></line><svg x="0" y="0" font-size="10" style="overflow:visible"><text transform="" x="0" y="18" fill="#000" font-size="10" text-anchor="middle"><tspan x="0" dy="0em">0%</tspan></text></svg></g><g class="visx-group visx-axis-tick" transform="translate(0, 0)"><line class="visx-line" x1="362.5" y1="0" x2="362.5" y2="8" fill="transparent" shape-rendering="crispEdges" stroke="#000" stroke-width="0" stroke-linecap="square"></line><svg x="0" y="0" font-size="10" style="overflow:visible"><text transform="" x="362.5" y="18" fill="#000" font-size="10" text-anchor="middle"><tspan x="362.5" dy="0em">25%</tspan></text></svg></g><g class="visx-group visx-axis-tick" transform="translate(0, 0)"><line class="visx-line" x1="725" y1="0" x2="725" y2="8" fill="transparent" shape-rendering="crispEdges" stroke="#000" stroke-width="0" stroke-linecap="square"></line><svg x="0" y="0" font-size="10" style="overflow:visible"><text transform="" x="725" y="18" fill="#000" font-size="10" text-anchor="middle"><tspan x="725" dy="0em">50%</tspan></text></svg></g><g class="visx-group visx-axis-tick" transform="translate(0, 0)"><line class="visx-line" x1="1087.5" y1="0" x2="1087.5" y2="8" fill="transparent" shape-rendering="crispEdges" stroke="#000" stroke-width="0" stroke-linecap="square"></line><svg x="0" y="0" font-size="10" style="overflow:visible"><text transform="" x="1087.5" y="18" fill="#000" font-size="10" text-anchor="middle"><tspan x="1087.5" dy="0em">75%</tspan></text></svg></g><g class="visx-group visx-axis-tick" transform="translate(0, 0)"><line class="visx-line" x1="1450" y1="0" x2="1450" y2="8" fill="transparent" shape-rendering="crispEdges" stroke="#000" stroke-width="0" stroke-linecap="square"></line><svg x="0" y="0" font-size="10" style="overflow:visible"><text transform="" x="1450" y="18" fill="#000" font-size="10" text-anchor="middle"><tspan x="1450" dy="0em">100%</tspan></text></svg></g><line class="visx-line visx-axis-line" x1="0.5" y1="0" x2="1450.5" y2="0" fill="transparent" shape-rendering="crispEdges" stroke="#222" stroke-width="0"></line></g><g class="visx-group visx-axis visx-axis-left" transform="translate(0, 0)"><g class="visx-group visx-axis-tick" transform="translate(0, 0)"><line class="visx-line" x1="0" y1="115" x2="-8" y2="115" fill="transparent" shape-rendering="crispEdges" stroke="#222" stroke-width="0" stroke-linecap="square"></line><svg x="-30" y="0" font-size="8" style="overflow:visible"><text transform="" x="-8" y="115" fill="#000" font-size="8" text-anchor="start"><tspan x="-8" dy="0em">0%</tspan></text></svg></g><g class="visx-group visx-axis-tick" transform="translate(0, 0)"><line class="visx-line" x1="0" y1="26.538461538461533" x2="-8" y2="26.538461538461533" fill="transparent" shape-rendering="crispEdges" stroke="#222" stroke-width="0" stroke-linecap="square"></line><svg x="-30" y="0" font-size="8" style="overflow:visible"><text transform="" x="-8" y="26.538461538461533" fill="#000" font-size="8" text-anchor="start"><tspan x="-8" dy="0em">500%</tspan></text></svg></g><line class="visx-line visx-axis-line" x1="0" y1="115.5" x2="0" y2="0.5" fill="transparent" shape-rendering="crispEdges" stroke="#222" stroke-width="0"></line></g><rect class="visx-bar" width="1450" height="115" fill="transparent"></rect><line class="visx-line" x1="507.49999999999994" y1="28" x2="507.49999999999994" y2="115" fill="transparent" shape-rendering="crispEdges" stroke="#0062D2" stroke-width="1" pointer-events="none" stroke-dasharray="5,2"></line><svg x="0" y="0" font-size="10px" style="overflow:visible"><text transform="" x="507.49999999999994" y="20" font-size="10px" fill="#fff" stroke="#fff" stroke-width="0.8em" text-anchor="middle"><tspan x="507.49999999999994" dy="0.355em">Optimal 35%</tspan></text></svg><svg x="0" y="0" font-size="10px" style="overflow:visible"><text transform="" x="507.49999999999994" y="20" font-size="10px" fill="#62677B" text-anchor="middle"><tspan x="507.49999999999994" dy="0.355em">Optimal 35%</tspan></text></svg></g></svg>