<?xml version="1.0"?><svg xmlns="http://www.w3.org/2000/svg" xmlns:xlink= "http://www.w3.org/1999/xlink" style="background: white;" width="1500" height="185"> <g style="color: black; font-size: 13px; font-family: sans-serif; transform: translate(18px, 25px);"><g><circle r="3" cx="-6" cy="-5" style="fill: #B6509E" /><text>Borrow APR, variable</text></g><g style="transform: translateX(150px);"><circle r="3" cx="-6" cy="-5" style="fill: rgb(231, 198, 223)" /><text>Borrow APR, stable</text></g><g style="transform: translateX(290px);"><circle r="3" cx="-6" cy="-5" style="fill: rgb(0, 98, 210)" /><text>Utilization Rate</text></g></g><g class="visx-group" transform="translate(40, 50)"><g class="visx-group visx-rows" transform="translate(0, 0)"><line class="visx-line" x1="0" y1="115" x2="1450" y2="115" fill="transparent" shape-rendering="crispEdges" stroke="#000" stroke-width="1" stroke-dasharray="3,3" pointer-events="none"></line><line class="visx-line" x1="0" y1="82.14285714285714" x2="1450" y2="82.14285714285714" fill="transparent" shape-rendering="crispEdges" stroke="#000" stroke-width="1" stroke-dasharray="3,3" pointer-events="none"></line><line class="visx-line" x1="0" y1="49.28571428571429" x2="1450" y2="49.28571428571429" fill="transparent" shape-rendering="crispEdges" stroke="#000" stroke-width="1" stroke-dasharray="3,3" pointer-events="none"></line><line class="visx-line" x1="0" y1="16.428571428571434" x2="1450" y2="16.428571428571434" fill="transparent" shape-rendering="crispEdges" stroke="#000" stroke-width="1" stroke-dasharray="3,3" pointer-events="none"></line></g><path class="visx-linepath" d="M0,114.99999999997078C2.4166666666666665,114.99513227511524,4.833333333333334,114.99026455025968,7.25,114.98539682539683C9.666666666666666,114.98052910053399,12.083333333333334,114.97566137566137,14.5,114.97079365079365C16.916666666666668,114.96592592592593,19.333333333333332,114.9610582010582,21.75,114.95619047619047C24.166666666666668,114.95132275132275,26.583333333333332,114.94645502645503,29,114.9415873015873C31.416666666666668,114.93671957671958,33.833333333333336,114.93185185185185,36.25,114.92698412698412C38.666666666666664,114.9221164021164,41.083333333333336,114.91724867724868,43.5,114.91238095238096C45.91666666666667,114.90751322751323,48.333333333333336,114.9026455026455,50.75000000000001,114.89777777777778C53.16666666666667,114.89291005291005,55.583333333333336,114.88804232804232,58,114.8831746031746C60.416666666666664,114.87830687830687,62.833333333333336,114.87343915343915,65.25,114.86857142857143C67.66666666666667,114.8637037037037,70.08333333333333,114.85883597883597,72.5,114.85396825396825C74.91666666666667,114.84910052910053,77.33333333333333,114.8442328042328,79.75,114.83936507936508C82.16666666666667,114.83449735449736,84.58333333333333,114.82962962962964,87,114.82476190476191C89.41666666666667,114.81989417989419,91.83333333333333,114.81502645502646,94.25,114.81015873015873C96.66666666666667,114.80529100529101,99.08333333333334,114.80042328042327,101.50000000000001,114.79555555555555C103.91666666666667,114.79068783068783,106.33333333333334,114.78582010582011,108.75,114.78095238095239C111.16666666666667,114.77608465608466,113.58333333333333,114.77121693121693,116,114.7663492063492C118.41666666666667,114.76148148148148,120.83333333333334,114.75661375661376,123.25000000000001,114.75174603174604C125.66666666666667,114.74687830687832,128.08333333333334,114.74201058201058,130.5,114.73714285714286C132.91666666666666,114.73227513227513,135.33333333333334,114.7274074074074,137.75,114.72253968253968C140.16666666666666,114.71767195767195,142.58333333333334,114.71280423280423,145,114.70793650793651C147.41666666666666,114.70306878306879,149.83333333333334,114.69820105820105,152.25,114.69333333333333C154.66666666666666,114.6884656084656,157.08333333333334,114.68359788359788,159.5,114.67873015873016C161.91666666666666,114.67386243386244,164.33333333333334,114.66899470899472,166.75,114.664126984127C169.16666666666666,114.65925925925927,171.58333333333334,114.65439153439152,174,114.6495238095238C176.41666666666666,114.64465608465608,178.83333333333334,114.63978835978835,181.25,114.63492063492063C183.66666666666666,114.63005291005291,186.08333333333334,114.62518518518519,188.5,114.62031746031747C190.91666666666666,114.61544973544974,193.33333333333334,114.61058201058201,195.75,114.60571428571428C198.16666666666669,114.60084656084656,200.58333333333334,114.59597883597884,203.00000000000003,114.59111111111112C205.41666666666669,114.5862433862434,207.83333333333331,114.58137566137566,210.24999999999997,114.57650793650794C212.66666666666666,114.57164021164022,215.08333333333331,114.56677248677248,217.5,114.56190476190476C219.91666666666666,114.55703703703703,222.33333333333334,114.55216931216931,224.75,114.54730158730159C227.16666666666666,114.54243386243387,229.58333333333334,114.53756613756613,232,114.53269841269841C234.41666666666666,114.52783068783069,236.83333333333334,114.52296296296296,239.25,114.51809523809524C241.66666666666669,114.51322751322752,244.08333333333334,114.5083597883598,246.50000000000003,114.50349206349208C248.91666666666669,114.49862433862435,251.33333333333331,114.4937566137566,253.74999999999997,114.48888888888888C256.16666666666663,114.48402116402116,258.5833333333333,114.47915343915344,261,114.47428571428571C263.4166666666667,114.46941798941799,265.8333333333333,114.46455026455027,268.25,114.45968253968255C270.6666666666667,114.45481481481482,273.0833333333333,114.44994708994709,275.5,114.44507936507937C277.9166666666667,114.44021164021164,280.3333333333333,114.43534391534392,282.75,114.4304761904762C285.1666666666667,114.42560846560848,287.5833333333333,114.42074074074073,290,114.415873015873C292.4166666666667,114.41100529100528,294.8333333333333,114.40613756613756,297.25,114.40126984126984C299.6666666666667,114.39640211640211,302.0833333333333,114.39153439153439,304.5,114.38666666666667C306.9166666666667,114.38179894179895,309.3333333333333,114.37693121693121,311.75,114.37206349206349C314.1666666666667,114.36719576719577,316.5833333333333,114.36232804232804,319,114.35746031746032C321.4166666666667,114.3525925925926,323.8333333333333,114.34772486772486,326.25,114.34285714285714C328.6666666666667,114.33798941798942,331.0833333333333,114.33312169312168,333.5,114.32825396825396C335.9166666666667,114.32338624338624,338.3333333333333,114.31851851851852,340.75,114.3136507936508C343.1666666666667,114.30878306878307,345.5833333333333,114.30391534391535,348,114.29904761904763C350.4166666666667,114.2941798941799,352.8333333333333,114.28931216931217,355.25,114.28444444444445C357.6666666666667,114.27957671957672,360.0833333333333,114.27470899470899,362.5,114.26984126984127C364.9166666666667,114.26497354497354,367.3333333333333,114.2601058201058,369.75,114.25523809523808C372.1666666666667,114.25037037037036,374.5833333333333,114.24550264550264,377,114.24063492063492C379.4166666666667,114.2357671957672,381.8333333333333,114.23089947089947,384.25,114.22603174603175C386.6666666666667,114.22116402116403,389.0833333333333,114.21629629629629,391.5,114.21142857142857C393.9166666666667,114.20656084656085,396.33333333333337,114.20169312169313,398.75000000000006,114.1968253968254C401.16666666666674,114.19195767195768,403.58333333333337,114.18708994708994,406.00000000000006,114.18222222222222C408.4166666666667,114.1773544973545,410.8333333333333,114.17248677248676,413.24999999999994,114.16761904761904C415.66666666666663,114.16275132275132,418.08333333333326,114.1578835978836,420.49999999999994,114.15301587301587C422.91666666666663,114.14814814814815,425.3333333333333,114.14328042328043,427.75,114.13841269841271C430.1666666666667,114.13354497354499,432.5833333333333,114.12867724867725,435,114.12380952380953C437.4166666666667,114.1189417989418,439.8333333333333,114.11407407407407,442.25,114.10920634920635C444.6666666666667,114.10433862433862,447.0833333333333,114.09947089947089,449.5,114.09460317460317C451.9166666666667,114.08973544973544,454.3333333333333,114.08486772486772,456.75,114.08C459.1666666666667,114.07513227513228,461.5833333333333,114.07026455026455,464,114.06539682539683C466.4166666666667,114.06052910052911,468.8333333333333,114.05566137566137,471.25,114.05079365079365C473.6666666666667,114.04592592592593,476.0833333333333,114.04105820105819,478.5,114.03619047619047C480.9166666666667,114.03132275132275,483.33333333333337,114.02645502645503,485.75000000000006,114.0215873015873C488.16666666666674,114.01671957671958,490.58333333333337,114.01185185185184,493.00000000000006,114.00698412698412C495.4166666666667,114.0021164021164,497.8333333333333,113.99724867724868,500.24999999999994,113.99238095238096C502.66666666666663,113.98751322751323,505.08333333333326,113.98264550264551,507.49999999999994,113.97777777777779C509.91666666666663,113.97291005291007,512.3333333333333,113.96804232804233,514.75,113.96317460317461C517.1666666666666,113.95830687830689,519.5833333333334,113.95343915343915,522,113.94857142857143C524.4166666666666,113.9437037037037,526.8333333333334,113.93883597883597,529.25,113.93396825396825C531.6666666666666,113.92910052910052,534.0833333333334,113.9242328042328,536.5,113.91936507936508C538.9166666666666,113.91449735449736,541.3333333333334,113.90962962962963,543.75,113.90476190476191C546.1666666666666,113.89989417989419,548.5833333333334,113.89502645502645,551,113.89015873015873C553.4166666666666,113.88529100529101,555.8333333333334,113.88042328042327,558.25,113.87555555555555C560.6666666666666,113.87068783068783,563.0833333333334,113.8658201058201,565.5,113.86095238095238C567.9166666666666,113.85608465608466,570.3333333333334,113.85121693121692,572.75,113.8463492063492C575.1666666666666,113.84148148148148,577.5833333333334,113.83661375661376,580,113.83174603174604C582.4166666666666,113.82687830687831,584.8333333333334,113.82201058201059,587.25,113.81714285714287C589.6666666666666,113.81227513227515,592.0833333333334,113.8074074074074,594.5,113.80253968253967C596.9166666666666,113.79767195767195,599.3333333333334,113.79280423280423,601.75,113.78793650793651C604.1666666666666,113.78306878306879,606.5833333333334,113.77820105820105,609,113.77333333333333C611.4166666666666,113.7684656084656,613.8333333333334,113.76359788359788,616.25,113.75873015873016C618.6666666666666,113.75386243386244,621.0833333333334,113.74899470899472,623.5,113.74412698412699C625.9166666666666,113.73925925925927,628.3333333333334,113.73439153439153,630.75,113.72952380952381C633.1666666666666,113.72465608465609,635.5833333333334,113.71978835978835,638,113.71492063492063C640.4166666666666,113.71005291005291,642.8333333333334,113.70518518518519,645.25,113.70031746031746C647.6666666666666,113.69544973544974,650.0833333333334,113.69544973544974,652.5,113.68571428571428C654.9166666666666,113.67597883597882,657.3333333333334,113.08831168831169,659.75,112.78961038961039C662.1666666666666,112.49090909090908,664.5833333333334,112.1922077922078,667,111.8935064935065C669.4166666666666,111.59480519480519,671.8333333333334,111.2961038961039,674.25,110.9974025974026C676.6666666666666,110.6987012987013,679.0833333333334,110.4,681.5,110.1012987012987C683.9166666666666,109.8025974025974,686.3333333333334,109.50389610389611,688.75,109.20519480519481C691.1666666666666,108.9064935064935,693.5833333333334,108.6077922077922,696,108.3090909090909C698.4166666666666,108.0103896103896,700.8333333333334,107.71168831168829,703.25,107.412987012987C705.6666666666666,107.11428571428571,708.0833333333334,106.81558441558442,710.5,106.51688311688312C712.9166666666666,106.21818181818182,715.3333333333334,105.91948051948052,717.75,105.62077922077921C720.1666666666666,105.32207792207791,722.5833333333334,105.02337662337663,725,104.72467532467533C727.4166666666666,104.42597402597403,729.8333333333334,104.12727272727273,732.25,103.82857142857142C734.6666666666666,103.52987012987012,737.0833333333334,103.23116883116883,739.5,102.93246753246754C741.9166666666666,102.63376623376625,744.3333333333334,102.33506493506495,746.75,102.03636363636365C749.1666666666666,101.73766233766234,751.5833333333334,101.43896103896105,754,101.14025974025975C756.4166666666666,100.84155844155845,758.8333333333334,100.54285714285716,761.25,100.24415584415586C763.6666666666666,99.94545454545455,766.0833333333334,99.64675324675325,768.5,99.34805194805195C770.9166666666666,99.04935064935064,773.3333333333334,98.75064935064935,775.75,98.45194805194805C778.1666666666666,98.15324675324675,780.5833333333334,97.85454545454544,783,97.55584415584416C785.4166666666667,97.25714285714285,787.8333333333334,96.95844155844156,790.2500000000001,96.65974025974026C792.6666666666667,96.36103896103896,795.0833333333335,96.06233766233767,797.5000000000001,95.76363636363637C799.9166666666667,95.46493506493506,802.3333333333335,95.16623376623377,804.7500000000001,94.86753246753247C807.1666666666667,94.56883116883117,809.5833333333335,94.27012987012988,812.0000000000001,93.97142857142858C814.4166666666667,93.67272727272729,816.8333333333333,93.37402597402597,819.2499999999999,93.07532467532468C821.6666666666665,92.77662337662338,824.0833333333333,92.47792207792209,826.4999999999999,92.17922077922078C828.9166666666665,91.88051948051948,831.3333333333333,91.58181818181819,833.7499999999999,91.28311688311689C836.1666666666665,90.98441558441559,838.5833333333333,90.68571428571428,840.9999999999999,90.387012987013C843.4166666666666,90.08831168831169,845.8333333333333,89.7896103896104,848.25,89.4909090909091C850.6666666666666,89.1922077922078,853.0833333333334,88.8935064935065,855.5,88.59480519480519C857.9166666666666,88.29610389610389,860.3333333333334,87.9974025974026,862.75,87.6987012987013C865.1666666666666,87.39999999999999,867.5833333333334,87.1012987012987,870,86.8025974025974C872.4166666666666,86.5038961038961,874.8333333333334,86.20519480519481,877.25,85.9064935064935C879.6666666666666,85.6077922077922,882.0833333333334,85.30909090909091,884.5,85.01038961038961C886.9166666666666,84.7116883116883,889.3333333333334,84.41298701298702,891.75,84.11428571428571C894.1666666666666,83.81558441558441,896.5833333333334,83.51688311688312,899,83.21818181818182C901.4166666666666,82.91948051948052,903.8333333333334,82.62077922077923,906.25,82.32207792207792C908.6666666666666,82.02337662337662,911.0833333333334,81.72467532467533,913.5,81.42597402597403C915.9166666666666,81.12727272727273,918.3333333333334,80.82857142857144,920.75,80.52987012987013C923.1666666666666,80.23116883116883,925.5833333333334,79.93246753246754,928,79.63376623376624C930.4166666666666,79.33506493506493,932.8333333333334,79.03636363636365,935.25,78.73766233766234C937.6666666666666,78.43896103896104,940.0833333333334,78.14025974025974,942.5,77.84155844155843C944.9166666666666,77.54285714285713,947.3333333333334,77.24415584415586,949.75,76.94545454545455C952.1666666666666,76.64675324675325,954.5833333333334,76.34805194805195,957,76.04935064935064C959.4166666666666,75.75064935064934,961.8333333333334,75.45194805194805,964.25,75.15324675324676C966.6666666666667,74.85454545454546,969.0833333333334,74.55584415584416,971.5000000000001,74.25714285714285C973.9166666666667,73.95844155844155,976.3333333333335,73.65974025974026,978.7500000000001,73.36103896103896C981.1666666666667,73.06233766233765,983.5833333333335,72.76363636363637,986.0000000000001,72.46493506493506C988.4166666666667,72.16623376623376,990.8333333333335,71.86753246753247,993.2500000000001,71.56883116883117C995.6666666666667,71.27012987012988,998.0833333333333,70.97142857142856,1000.4999999999999,70.67272727272727C1002.9166666666665,70.37402597402597,1005.3333333333333,70.07532467532468,1007.7499999999999,69.77662337662338C1010.1666666666665,69.47792207792207,1012.5833333333333,69.17922077922078,1014.9999999999999,68.88051948051948C1017.4166666666665,68.58181818181818,1019.8333333333333,68.28311688311689,1022.2499999999999,67.98441558441559C1024.6666666666665,67.68571428571428,1027.0833333333333,67.38701298701298,1029.5,67.08831168831168C1031.9166666666667,66.78961038961037,1034.3333333333333,66.4909090909091,1036.75,66.1922077922078C1039.1666666666667,65.8935064935065,1041.5833333333333,65.59480519480519,1044,65.29610389610389C1046.4166666666667,64.99740259740258,1048.8333333333333,64.69870129870131,1051.25,64.4C1053.6666666666667,64.1012987012987,1056.0833333333333,63.80259740259739,1058.5,63.503896103896096C1060.9166666666667,63.2051948051948,1063.3333333333333,62.90649350649351,1065.75,62.607792207792215C1068.1666666666667,62.30909090909092,1070.5833333333333,62.0103896103896,1073,61.711688311688306C1075.4166666666667,61.41298701298701,1077.8333333333333,61.114285714285714,1080.25,60.81558441558442C1082.6666666666667,60.51688311688312,1085.0833333333333,60.21818181818182,1087.5,59.91948051948052C1089.9166666666667,59.62077922077923,1092.3333333333333,59.32207792207793,1094.75,59.02337662337663C1097.1666666666667,58.724675324675324,1099.5833333333333,58.42597402597402,1102,58.12727272727272C1104.4166666666667,57.828571428571415,1106.8333333333333,57.52987012987012,1109.25,57.23116883116882C1111.6666666666667,56.93246753246753,1114.0833333333333,56.63376623376624,1116.5,56.33506493506494C1118.9166666666667,56.036363636363646,1121.3333333333333,55.737662337662336,1123.75,55.43896103896104C1126.1666666666667,55.140259740259744,1128.5833333333333,54.84155844155844,1131,54.542857142857144C1133.4166666666667,54.24415584415585,1135.8333333333333,53.945454545454545,1138.25,53.64675324675325C1140.6666666666667,53.34805194805195,1143.0833333333333,53.04935064935065,1145.5,52.750649350649354C1147.9166666666667,52.45194805194806,1150.3333333333333,52.153246753246755,1152.75,51.85454545454546C1155.1666666666667,51.55584415584416,1157.5833333333333,51.25714285714285,1160,50.95844155844156C1162.4166666666667,50.65974025974026,1164.8333333333333,50.36103896103896,1167.25,50.06233766233766C1169.6666666666667,49.763636363636365,1172.0833333333333,49.46493506493506,1174.5,49.166233766233766C1176.9166666666667,48.86753246753247,1179.3333333333333,48.56883116883118,1181.75,48.270129870129885C1184.1666666666667,47.97142857142859,1186.5833333333333,47.67272727272728,1189,47.374025974025976C1191.4166666666667,47.07532467532467,1193.8333333333333,46.77662337662338,1196.25,46.47792207792208C1198.6666666666667,46.179220779220785,1201.0833333333333,45.880519480519474,1203.5,45.58181818181818C1205.9166666666667,45.28311688311688,1208.3333333333333,44.98441558441558,1210.75,44.68571428571428C1213.1666666666667,44.38701298701299,1215.5833333333333,44.088311688311684,1218,43.78961038961039C1220.4166666666667,43.49090909090909,1222.8333333333333,43.19220779220779,1225.25,42.89350649350649C1227.6666666666667,42.5948051948052,1230.0833333333333,42.29610389610391,1232.5,41.99740259740261C1234.9166666666667,41.698701298701316,1237.3333333333333,41.400000000000006,1239.75,41.1012987012987C1242.1666666666667,40.8025974025974,1244.5833333333333,40.503896103896096,1247,40.2051948051948C1249.4166666666667,39.906493506493504,1251.8333333333333,39.6077922077922,1254.25,39.309090909090905C1256.6666666666667,39.01038961038961,1259.0833333333333,38.711688311688306,1261.5,38.41298701298701C1263.9166666666667,38.114285714285714,1266.3333333333333,37.81558441558441,1268.75,37.516883116883115C1271.1666666666667,37.21818181818182,1273.5833333333333,36.91948051948053,1276,36.620779220779234C1278.4166666666667,36.32207792207794,1280.8333333333333,36.023376623376635,1283.25,35.72467532467533C1285.6666666666667,35.42597402597403,1288.0833333333333,35.12727272727272,1290.5,34.82857142857142C1292.9166666666667,34.529870129870126,1295.3333333333333,34.23116883116884,1297.75,33.93246753246754C1300.1666666666667,33.633766233766245,1302.5833333333333,33.335064935064935,1305,33.03636363636363C1307.4166666666667,32.73766233766233,1309.8333333333333,32.43896103896103,1312.25,32.14025974025974C1314.6666666666667,31.841558441558437,1317.0833333333333,31.542857142857134,1319.5,31.244155844155838C1321.9166666666667,30.94545454545454,1324.3333333333333,30.646753246753256,1326.75,30.348051948051957C1329.1666666666667,30.049350649350657,1331.5833333333333,29.750649350649347,1334,29.451948051948047C1336.4166666666667,29.153246753246748,1338.8333333333333,28.85454545454546,1341.25,28.555844155844163C1343.6666666666667,28.257142857142867,1346.0833333333333,27.958441558441567,1348.5,27.659740259740268C1350.9166666666667,27.361038961038968,1353.3333333333333,27.062337662337658,1355.75,26.76363636363636C1358.1666666666667,26.46493506493506,1360.5833333333333,26.166233766233756,1363,25.86753246753246C1365.4166666666667,25.568831168831164,1367.8333333333333,25.27012987012987,1370.25,24.97142857142858C1372.6666666666667,24.672727272727286,1375.0833333333333,24.374025974025994,1377.5,24.075324675324694C1379.9166666666667,23.776623376623395,1382.3333333333333,23.477922077922088,1384.75,23.179220779220785C1387.1666666666667,22.88051948051948,1389.5833333333333,22.581818181818175,1392,22.283116883116875C1394.4166666666667,21.984415584415576,1396.8333333333333,21.685714285714276,1399.25,21.38701298701298C1401.6666666666667,21.088311688311684,1404.0833333333333,20.789610389610395,1406.5,20.490909090909096C1408.9166666666667,20.192207792207796,1411.3333333333333,19.893506493506486,1413.75,19.594805194805186C1416.1666666666667,19.296103896103887,1418.5833333333333,18.997402597402587,1421,18.69870129870129C1423.4166666666667,18.399999999999995,1425.8333333333333,18.101298701298706,1428.25,17.802597402597407C1430.6666666666667,17.503896103896107,1433.0833333333333,17.205194805194797,1435.5,16.906493506493497C1437.9166666666667,16.607792207792198,1440.3333333333333,16.30909090909091,1442.75,16.010389610389613C1445.1666666666667,15.711688311688317,1447.5833333333333,15.412987012987017,1450,15.114285714285717" fill="transparent" stroke-linecap="round" stroke="#B6509E" stroke-width="2"></path><path class="visx-linepath" d="M0,113.35714285711364C2.4166666666666665,113.35227513225809,4.833333333333334,113.34740740740253,7.25,113.34253968253968C9.666666666666666,113.33767195767683,12.083333333333334,113.33280423280424,14.5,113.32793650793651C16.916666666666668,113.32306878306879,19.333333333333332,113.31820105820105,21.75,113.31333333333333C24.166666666666668,113.30846560846561,26.583333333333332,113.30359788359787,29,113.29873015873015C31.416666666666668,113.29386243386243,33.833333333333336,113.28899470899471,36.25,113.28412698412698C38.666666666666664,113.27925925925926,41.083333333333336,113.27439153439153,43.5,113.2695238095238C45.91666666666667,113.26465608465608,48.333333333333336,113.25978835978836,50.75000000000001,113.25492063492064C53.16666666666667,113.25005291005291,55.583333333333336,113.24518518518519,58,113.24031746031747C60.416666666666664,113.23544973544975,62.833333333333336,113.230582010582,65.25,113.22571428571428C67.66666666666667,113.22084656084655,70.08333333333333,113.21597883597883,72.5,113.21111111111111C74.91666666666667,113.20624338624339,77.33333333333333,113.20137566137566,79.75,113.19650793650794C82.16666666666667,113.19164021164022,84.58333333333333,113.18677248677248,87,113.18190476190476C89.41666666666667,113.17703703703704,91.83333333333333,113.17216931216932,94.25,113.1673015873016C96.66666666666667,113.16243386243387,99.08333333333334,113.15756613756614,101.50000000000001,113.15269841269841C103.91666666666667,113.14783068783069,106.33333333333334,113.14296296296295,108.75,113.13809523809523C111.16666666666667,113.13322751322751,113.58333333333333,113.12835978835979,116,113.12349206349207C118.41666666666667,113.11862433862434,120.83333333333334,113.1137566137566,123.25000000000001,113.10888888888888C125.66666666666667,113.10402116402116,128.08333333333334,113.09915343915344,130.5,113.09428571428572C132.91666666666666,113.089417989418,135.33333333333334,113.08455026455027,137.75,113.07968253968255C140.16666666666666,113.07481481481483,142.58333333333334,113.06994708994708,145,113.06507936507936C147.41666666666666,113.06021164021163,149.83333333333334,113.05534391534391,152.25,113.05047619047619C154.66666666666666,113.04560846560847,157.08333333333334,113.04074074074074,159.5,113.03587301587302C161.91666666666666,113.0310052910053,164.33333333333334,113.02613756613756,166.75,113.02126984126984C169.16666666666666,113.01640211640212,171.58333333333334,113.0115343915344,174,113.00666666666667C176.41666666666666,113.00179894179895,178.83333333333334,112.9969312169312,181.25,112.99206349206348C183.66666666666666,112.98719576719576,186.08333333333334,112.98232804232804,188.5,112.97746031746031C190.91666666666666,112.97259259259259,193.33333333333334,112.96772486772487,195.75,112.96285714285715C198.16666666666669,112.95798941798942,200.58333333333334,112.95312169312169,203.00000000000003,112.94825396825397C205.41666666666669,112.94338624338624,207.83333333333331,112.93851851851852,210.24999999999997,112.9336507936508C212.66666666666666,112.92878306878308,215.08333333333331,112.92391534391534,217.5,112.91904761904762C219.91666666666666,112.9141798941799,222.33333333333334,112.90931216931216,224.75,112.90444444444444C227.16666666666666,112.89957671957671,229.58333333333334,112.89470899470899,232,112.88984126984127C234.41666666666666,112.88497354497355,236.83333333333334,112.88010582010583,239.25,112.8752380952381C241.66666666666669,112.87037037037038,244.08333333333334,112.86550264550264,246.50000000000003,112.86063492063492C248.91666666666669,112.8557671957672,251.33333333333331,112.85089947089948,253.74999999999997,112.84603174603176C256.16666666666663,112.84116402116403,258.5833333333333,112.83629629629628,261,112.83142857142856C263.4166666666667,112.82656084656084,265.8333333333333,112.82169312169312,268.25,112.8168253968254C270.6666666666667,112.81195767195767,273.0833333333333,112.80708994708995,275.5,112.80222222222223C277.9166666666667,112.7973544973545,280.3333333333333,112.79248677248677,282.75,112.78761904761905C285.1666666666667,112.78275132275132,287.5833333333333,112.7778835978836,290,112.77301587301588C292.4166666666667,112.76814814814816,294.8333333333333,112.76328042328042,297.25,112.7584126984127C299.6666666666667,112.75354497354498,302.0833333333333,112.74867724867724,304.5,112.74380952380952C306.9166666666667,112.7389417989418,309.3333333333333,112.73407407407407,311.75,112.72920634920635C314.1666666666667,112.72433862433863,316.5833333333333,112.7194708994709,319,112.71460317460318C321.4166666666667,112.70973544973546,323.8333333333333,112.70486772486773,326.25,112.7C328.6666666666667,112.69513227513228,331.0833333333333,112.69026455026454,333.5,112.68539682539682C335.9166666666667,112.6805291005291,338.3333333333333,112.67566137566136,340.75,112.67079365079364C343.1666666666667,112.66592592592592,345.5833333333333,112.6610582010582,348,112.65619047619047C350.4166666666667,112.65132275132275,352.8333333333333,112.64645502645503,355.25,112.64158730158731C357.6666666666667,112.63671957671959,360.0833333333333,112.63185185185185,362.5,112.62698412698413C364.9166666666667,112.6221164021164,367.3333333333333,112.61724867724868,369.75,112.61238095238096C372.1666666666667,112.60751322751324,374.5833333333333,112.6026455026455,377,112.59777777777778C379.4166666666667,112.59291005291006,381.8333333333333,112.58804232804232,384.25,112.5831746031746C386.6666666666667,112.57830687830688,389.0833333333333,112.57343915343915,391.5,112.56857142857143C393.9166666666667,112.56370370370371,396.33333333333337,112.55883597883599,398.75000000000006,112.55396825396826C401.16666666666674,112.54910052910054,403.58333333333337,112.5442328042328,406.00000000000006,112.53936507936508C408.4166666666667,112.53449735449736,410.8333333333333,112.52962962962962,413.24999999999994,112.5247619047619C415.66666666666663,112.51989417989418,418.08333333333326,112.51502645502644,420.49999999999994,112.51015873015872C422.91666666666663,112.505291005291,425.3333333333333,112.50042328042328,427.75,112.49555555555555C430.1666666666667,112.49068783068783,432.5833333333333,112.48582010582011,435,112.48095238095239C437.4166666666667,112.47608465608467,439.8333333333333,112.47121693121693,442.25,112.46634920634921C444.6666666666667,112.46148148148148,447.0833333333333,112.45661375661375,449.5,112.45174603174603C451.9166666666667,112.4468783068783,454.3333333333333,112.44201058201058,456.75,112.43714285714286C459.1666666666667,112.43227513227514,461.5833333333333,112.4274074074074,464,112.42253968253968C466.4166666666667,112.41767195767196,468.8333333333333,112.41280423280423,471.25,112.40793650793651C473.6666666666667,112.40306878306879,476.0833333333333,112.39820105820107,478.5,112.39333333333335C480.9166666666667,112.38846560846562,483.33333333333337,112.38359788359787,485.75000000000006,112.37873015873015C488.16666666666674,112.37386243386243,490.58333333333337,112.3689947089947,493.00000000000006,112.36412698412698C495.4166666666667,112.35925925925926,497.8333333333333,112.35439153439152,500.24999999999994,112.3495238095238C502.66666666666663,112.34465608465608,505.08333333333326,112.33978835978836,507.49999999999994,112.33492063492064C509.91666666666663,112.33005291005291,512.3333333333333,112.32518518518519,514.75,112.32031746031747C517.1666666666666,112.31544973544975,519.5833333333334,112.31058201058201,522,112.30571428571429C524.4166666666666,112.30084656084657,526.8333333333334,112.29597883597883,529.25,112.2911111111111C531.6666666666666,112.28624338624338,534.0833333333334,112.28137566137566,536.5,112.27650793650794C538.9166666666666,112.27164021164022,541.3333333333334,112.26677248677248,543.75,112.26190476190476C546.1666666666666,112.25703703703704,548.5833333333334,112.25216931216931,551,112.24730158730159C553.4166666666666,112.24243386243387,555.8333333333334,112.23756613756613,558.25,112.23269841269841C560.6666666666666,112.22783068783069,563.0833333333334,112.22296296296295,565.5,112.21809523809523C567.9166666666666,112.21322751322751,570.3333333333334,112.20835978835979,572.75,112.20349206349206C575.1666666666666,112.19862433862434,577.5833333333334,112.1937566137566,580,112.18888888888888C582.4166666666666,112.18402116402116,584.8333333333334,112.17915343915344,587.25,112.17428571428572C589.6666666666666,112.169417989418,592.0833333333334,112.16455026455027,594.5,112.15968253968255C596.9166666666666,112.15481481481483,599.3333333333334,112.14994708994708,601.75,112.14507936507935C604.1666666666666,112.14021164021163,606.5833333333334,112.13534391534391,609,112.13047619047619C611.4166666666666,112.12560846560847,613.8333333333334,112.12074074074074,616.25,112.11587301587302C618.6666666666666,112.1110052910053,621.0833333333334,112.10613756613756,623.5,112.10126984126984C625.9166666666666,112.09640211640212,628.3333333333334,112.0915343915344,630.75,112.08666666666667C633.1666666666666,112.08179894179895,635.5833333333334,112.07693121693121,638,112.07206349206349C640.4166666666666,112.06719576719577,642.8333333333334,112.06232804232803,645.25,112.05746031746031C647.6666666666666,112.05259259259259,650.0833333333334,112.05259259259259,652.5,112.04285714285714C654.9166666666666,112.0331216931217,657.3333333333334,111.89350649350651,659.75,111.81883116883118C662.1666666666666,111.74415584415586,664.5833333333334,111.66948051948052,667,111.59480519480519C669.4166666666666,111.52012987012986,671.8333333333334,111.44545454545455,674.25,111.37077922077923C676.6666666666666,111.2961038961039,679.0833333333334,111.22142857142858,681.5,111.14675324675325C683.9166666666666,111.07207792207792,686.3333333333334,110.9974025974026,688.75,110.92272727272727C691.1666666666666,110.84805194805195,693.5833333333334,110.77337662337662,696,110.6987012987013C698.4166666666666,110.62402597402597,700.8333333333334,110.54935064935064,703.25,110.47467532467532C705.6666666666666,110.39999999999999,708.0833333333334,110.32532467532468,710.5,110.25064935064935C712.9166666666666,110.17597402597403,715.3333333333334,110.1012987012987,717.75,110.02662337662338C720.1666666666666,109.95194805194805,722.5833333333334,109.87727272727273,725,109.8025974025974C727.4166666666666,109.72792207792207,729.8333333333334,109.65324675324675,732.25,109.57857142857142C734.6666666666666,109.5038961038961,737.0833333333334,109.42922077922078,739.5,109.35454545454546C741.9166666666666,109.27987012987013,744.3333333333334,109.20519480519481,746.75,109.13051948051948C749.1666666666666,109.05584415584416,751.5833333333334,108.98116883116883,754,108.9064935064935C756.4166666666666,108.83181818181818,758.8333333333334,108.75714285714285,761.25,108.68246753246753C763.6666666666666,108.6077922077922,766.0833333333334,108.53311688311689,768.5,108.45844155844156C770.9166666666666,108.38376623376624,773.3333333333334,108.30909090909091,775.75,108.23441558441559C778.1666666666666,108.15974025974026,780.5833333333334,108.08506493506493,783,108.01038961038961C785.4166666666667,107.93571428571428,787.8333333333334,107.86103896103896,790.2500000000001,107.78636363636363C792.6666666666667,107.7116883116883,795.0833333333335,107.637012987013,797.5000000000001,107.56233766233767C799.9166666666667,107.48766233766234,802.3333333333335,107.41298701298702,804.7500000000001,107.33831168831169C807.1666666666667,107.26363636363637,809.5833333333335,107.18896103896104,812.0000000000001,107.11428571428571C814.4166666666667,107.03961038961039,816.8333333333333,106.96493506493506,819.2499999999999,106.89025974025974C821.6666666666665,106.81558441558441,824.0833333333333,106.7409090909091,826.4999999999999,106.66623376623377C828.9166666666665,106.59155844155845,831.3333333333333,106.51688311688312,833.7499999999999,106.4422077922078C836.1666666666665,106.36753246753247,838.5833333333333,106.29285714285714,840.9999999999999,106.21818181818182C843.4166666666666,106.1435064935065,845.8333333333333,106.06883116883117,848.25,105.99415584415584C850.6666666666666,105.91948051948052,853.0833333333334,105.84480519480519,855.5,105.77012987012986C857.9166666666666,105.69545454545454,860.3333333333334,105.62077922077923,862.75,105.5461038961039C865.1666666666666,105.47142857142858,867.5833333333334,105.39675324675324,870,105.32207792207791C872.4166666666666,105.24740259740258,874.8333333333334,105.17272727272727,877.25,105.09805194805195C879.6666666666666,105.02337662337662,882.0833333333334,104.9487012987013,884.5,104.87402597402597C886.9166666666666,104.79935064935064,889.3333333333334,104.72467532467533,891.75,104.65C894.1666666666666,104.57532467532468,896.5833333333334,104.50064935064934,899,104.42597402597401C901.4166666666666,104.35129870129869,903.8333333333334,104.27662337662338,906.25,104.20194805194805C908.6666666666666,104.12727272727273,911.0833333333334,104.0525974025974,913.5,103.97792207792207C915.9166666666666,103.90324675324675,918.3333333333334,103.82857142857144,920.75,103.75389610389611C923.1666666666666,103.67922077922078,925.5833333333334,103.60454545454544,928,103.52987012987012C930.4166666666666,103.4551948051948,932.8333333333334,103.38051948051948,935.25,103.30584415584416C937.6666666666666,103.23116883116883,940.0833333333334,103.1564935064935,942.5,103.08181818181818C944.9166666666666,103.00714285714285,947.3333333333334,102.93246753246754,949.75,102.85779220779222C952.1666666666666,102.78311688311689,954.5833333333334,102.70844155844156,957,102.63376623376624C959.4166666666666,102.55909090909091,961.8333333333334,102.48441558441559,964.25,102.40974025974026C966.6666666666667,102.33506493506493,969.0833333333334,102.26038961038961,971.5000000000001,102.18571428571428C973.9166666666667,102.11103896103896,976.3333333333335,102.03636363636365,978.7500000000001,101.96168831168832C981.1666666666667,101.887012987013,983.5833333333335,101.81233766233767,986.0000000000001,101.73766233766234C988.4166666666667,101.66298701298702,990.8333333333335,101.58831168831169,993.2500000000001,101.51363636363637C995.6666666666667,101.43896103896104,998.0833333333333,101.36428571428571,1000.4999999999999,101.28961038961039C1002.9166666666665,101.21493506493506,1005.3333333333333,101.14025974025975,1007.7499999999999,101.06558441558442C1010.1666666666665,100.9909090909091,1012.5833333333333,100.91623376623376,1014.9999999999999,100.84155844155843C1017.4166666666665,100.76688311688311,1019.8333333333333,100.6922077922078,1022.2499999999999,100.61753246753247C1024.6666666666665,100.54285714285714,1027.0833333333333,100.46818181818182,1029.5,100.3935064935065C1031.9166666666667,100.31883116883117,1034.3333333333333,100.24415584415584,1036.75,100.16948051948052C1039.1666666666667,100.09480519480519,1041.5833333333333,100.02012987012988,1044,99.94545454545455C1046.4166666666667,99.87077922077923,1048.8333333333333,99.79610389610389,1051.25,99.72142857142856C1053.6666666666667,99.64675324675324,1056.0833333333333,99.57207792207792,1058.5,99.4974025974026C1060.9166666666667,99.42272727272727,1063.3333333333333,99.34805194805195,1065.75,99.27337662337662C1068.1666666666667,99.1987012987013,1070.5833333333333,99.12402597402597,1073,99.04935064935064C1075.4166666666667,98.97467532467532,1077.8333333333333,98.89999999999999,1080.25,98.82532467532467C1082.6666666666667,98.75064935064934,1085.0833333333333,98.67597402597403,1087.5,98.6012987012987C1089.9166666666667,98.52662337662338,1092.3333333333333,98.45194805194805,1094.75,98.37727272727273C1097.1666666666667,98.3025974025974,1099.5833333333333,98.22792207792209,1102,98.15324675324676C1104.4166666666667,98.07857142857144,1106.8333333333333,98.00389610389611,1109.25,97.92922077922078C1111.6666666666667,97.85454545454546,1114.0833333333333,97.77987012987013,1116.5,97.70519480519481C1118.9166666666667,97.63051948051948,1121.3333333333333,97.55584415584416,1123.75,97.48116883116883C1126.1666666666667,97.4064935064935,1128.5833333333333,97.33181818181819,1131,97.25714285714287C1133.4166666666667,97.18246753246754,1135.8333333333333,97.1077922077922,1138.25,97.03311688311688C1140.6666666666667,96.95844155844155,1143.0833333333333,96.88376623376624,1145.5,96.80909090909091C1147.9166666666667,96.73441558441559,1150.3333333333333,96.65974025974026,1152.75,96.58506493506493C1155.1666666666667,96.51038961038961,1157.5833333333333,96.4357142857143,1160,96.36103896103897C1162.4166666666667,96.28636363636365,1164.8333333333333,96.21168831168832,1167.25,96.137012987013C1169.6666666666667,96.06233766233767,1172.0833333333333,95.98766233766234,1174.5,95.91298701298702C1176.9166666666667,95.83831168831169,1179.3333333333333,95.76363636363637,1181.75,95.68896103896104C1184.1666666666667,95.61428571428571,1186.5833333333333,95.53961038961039,1189,95.46493506493506C1191.4166666666667,95.39025974025974,1193.8333333333333,95.31558441558441,1196.25,95.24090909090908C1198.6666666666667,95.16623376623376,1201.0833333333333,95.09155844155843,1203.5,95.01688311688311C1205.9166666666667,94.94220779220778,1208.3333333333333,94.86753246753247,1210.75,94.79285714285714C1213.1666666666667,94.71818181818182,1215.5833333333333,94.6435064935065,1218,94.56883116883117C1220.4166666666667,94.49415584415584,1222.8333333333333,94.41948051948053,1225.25,94.3448051948052C1227.6666666666667,94.27012987012988,1230.0833333333333,94.19545454545454,1232.5,94.12077922077921C1234.9166666666667,94.04610389610389,1237.3333333333333,93.97142857142858,1239.75,93.89675324675325C1242.1666666666667,93.82207792207792,1244.5833333333333,93.7474025974026,1247,93.67272727272727C1249.4166666666667,93.59805194805195,1251.8333333333333,93.52337662337662,1254.25,93.4487012987013C1256.6666666666667,93.37402597402597,1259.0833333333333,93.29935064935064,1261.5,93.22467532467532C1263.9166666666667,93.14999999999999,1266.3333333333333,93.07532467532468,1268.75,93.00064935064935C1271.1666666666667,92.92597402597403,1273.5833333333333,92.8512987012987,1276,92.77662337662338C1278.4166666666667,92.70194805194805,1280.8333333333333,92.62727272727273,1283.25,92.5525974025974C1285.6666666666667,92.47792207792207,1288.0833333333333,92.40324675324675,1290.5,92.32857142857142C1292.9166666666667,92.2538961038961,1295.3333333333333,92.17922077922078,1297.75,92.10454545454546C1300.1666666666667,92.02987012987013,1302.5833333333333,91.95519480519481,1305,91.88051948051948C1307.4166666666667,91.80584415584416,1309.8333333333333,91.73116883116883,1312.25,91.6564935064935C1314.6666666666667,91.58181818181818,1317.0833333333333,91.50714285714285,1319.5,91.43246753246753C1321.9166666666667,91.3577922077922,1324.3333333333333,91.28311688311689,1326.75,91.20844155844156C1329.1666666666667,91.13376623376624,1331.5833333333333,91.05909090909091,1334,90.98441558441559C1336.4166666666667,90.90974025974026,1338.8333333333333,90.83506493506493,1341.25,90.76038961038961C1343.6666666666667,90.68571428571428,1346.0833333333333,90.61103896103896,1348.5,90.53636363636363C1350.9166666666667,90.4616883116883,1353.3333333333333,90.38701298701298,1355.75,90.31233766233765C1358.1666666666667,90.23766233766233,1360.5833333333333,90.16298701298702,1363,90.08831168831169C1365.4166666666667,90.01363636363637,1367.8333333333333,89.93896103896103,1370.25,89.8642857142857C1372.6666666666667,89.78961038961037,1375.0833333333333,89.71493506493506,1377.5,89.64025974025974C1379.9166666666667,89.56558441558441,1382.3333333333333,89.49090909090908,1384.75,89.41623376623376C1387.1666666666667,89.34155844155843,1389.5833333333333,89.26688311688312,1392,89.1922077922078C1394.4166666666667,89.11753246753247,1396.8333333333333,89.04285714285714,1399.25,88.96818181818182C1401.6666666666667,88.8935064935065,1404.0833333333333,88.81883116883118,1406.5,88.74415584415586C1408.9166666666667,88.66948051948053,1411.3333333333333,88.59480519480519,1413.75,88.52012987012986C1416.1666666666667,88.44545454545454,1418.5833333333333,88.37077922077923,1421,88.2961038961039C1423.4166666666667,88.22142857142858,1425.8333333333333,88.14675324675325,1428.25,88.07207792207792C1430.6666666666667,87.9974025974026,1433.0833333333333,87.92272727272727,1435.5,87.84805194805195C1437.9166666666667,87.77337662337662,1440.3333333333333,87.6987012987013,1442.75,87.62402597402597C1445.1666666666667,87.54935064935064,1447.5833333333333,87.47467532467533,1450,87.4" fill="transparent" stroke-linecap="round" stroke="#E7C6DF" stroke-width="2"></path><g class="visx-group visx-axis visx-axis-bottom" transform="translate(0, 115)"><g class="visx-group visx-axis-tick" transform="translate(0, 0)"><line class="visx-line" x1="0" y1="0" x2="0" y2="8" fill="transparent" shape-rendering="crispEdges" stroke="#000" stroke-width="0" stroke-linecap="square"></line><svg x="0" y="0" font-size="10" style="overflow:visible"><text transform="" x="0" y="18" fill="#000" font-size="10" text-anchor="middle"><tspan x="0" dy="0em">0%</tspan></text></svg></g><g class="visx-group visx-axis-tick" transform="translate(0, 0)"><line class="visx-line" x1="362.5" y1="0" x2="362.5" y2="8" fill="transparent" shape-rendering="crispEdges" stroke="#000" stroke-width="0" stroke-linecap="square"></line><svg x="0" y="0" font-size="10" style="overflow:visible"><text transform="" x="362.5" y="18" fill="#000" font-size="10" text-anchor="middle"><tspan x="362.5" dy="0em">25%</tspan></text></svg></g><g class="visx-group visx-axis-tick" transform="translate(0, 0)"><line class="visx-line" x1="725" y1="0" x2="725" y2="8" fill="transparent" shape-rendering="crispEdges" stroke="#000" stroke-width="0" stroke-linecap="square"></line><svg x="0" y="0" font-size="10" style="overflow:visible"><text transform="" x="725" y="18" fill="#000" font-size="10" text-anchor="middle"><tspan x="725" dy="0em">50%</tspan></text></svg></g><g class="visx-group visx-axis-tick" transform="translate(0, 0)"><line class="visx-line" x1="1087.5" y1="0" x2="1087.5" y2="8" fill="transparent" shape-rendering="crispEdges" stroke="#000" stroke-width="0" stroke-linecap="square"></line><svg x="0" y="0" font-size="10" style="overflow:visible"><text transform="" x="1087.5" y="18" fill="#000" font-size="10" text-anchor="middle"><tspan x="1087.5" dy="0em">75%</tspan></text></svg></g><g class="visx-group visx-axis-tick" transform="translate(0, 0)"><line class="visx-line" x1="1450" y1="0" x2="1450" y2="8" fill="transparent" shape-rendering="crispEdges" stroke="#000" stroke-width="0" stroke-linecap="square"></line><svg x="0" y="0" font-size="10" style="overflow:visible"><text transform="" x="1450" y="18" fill="#000" font-size="10" text-anchor="middle"><tspan x="1450" dy="0em">100%</tspan></text></svg></g><line class="visx-line visx-axis-line" x1="0.5" y1="0" x2="1450.5" y2="0" fill="transparent" shape-rendering="crispEdges" stroke="#222" stroke-width="0"></line></g><g class="visx-group visx-axis visx-axis-left" transform="translate(0, 0)"><g class="visx-group visx-axis-tick" transform="translate(0, 0)"><line class="visx-line" x1="0" y1="115" x2="-8" y2="115" fill="transparent" shape-rendering="crispEdges" stroke="#222" stroke-width="0" stroke-linecap="square"></line><svg x="-30" y="0" font-size="8" style="overflow:visible"><text transform="" x="-8" y="115" fill="#000" font-size="8" text-anchor="start"><tspan x="-8" dy="0em">0%</tspan></text></svg></g><g class="visx-group visx-axis-tick" transform="translate(0, 0)"><line class="visx-line" x1="0" y1="49.28571428571429" x2="-8" y2="49.28571428571429" fill="transparent" shape-rendering="crispEdges" stroke="#222" stroke-width="0" stroke-linecap="square"></line><svg x="-30" y="0" font-size="8" style="overflow:visible"><text transform="" x="-8" y="49.28571428571429" fill="#000" font-size="8" text-anchor="start"><tspan x="-8" dy="0em">200%</tspan></text></svg></g><line class="visx-line visx-axis-line" x1="0" y1="115.5" x2="0" y2="0.5" fill="transparent" shape-rendering="crispEdges" stroke="#222" stroke-width="0"></line></g><rect class="visx-bar" width="1450" height="115" fill="transparent"></rect><line class="visx-line" x1="652.5" y1="28" x2="652.5" y2="115" fill="transparent" shape-rendering="crispEdges" stroke="#0062D2" stroke-width="1" pointer-events="none" stroke-dasharray="5,2"></line><svg x="0" y="0" font-size="10px" style="overflow:visible"><text transform="" x="652.5" y="20" font-size="10px" fill="#fff" stroke="#fff" stroke-width="0.8em" text-anchor="middle"><tspan x="652.5" dy="0.355em">Optimal 45%</tspan></text></svg><svg x="0" y="0" font-size="10px" style="overflow:visible"><text transform="" x="652.5" y="20" font-size="10px" fill="#62677B" text-anchor="middle"><tspan x="652.5" dy="0.355em">Optimal 45%</tspan></text></svg></g></svg>