<?xml version="1.0"?><svg xmlns="http://www.w3.org/2000/svg" xmlns:xlink= "http://www.w3.org/1999/xlink" style="background: white;" width="1500" height="185"> <g style="color: black; font-size: 13px; font-family: sans-serif; transform: translate(18px, 25px);"><g><circle r="3" cx="-6" cy="-5" style="fill: #B6509E" /><text>Borrow APR, variable</text></g><g style="transform: translateX(150px);"><circle r="3" cx="-6" cy="-5" style="fill: rgb(231, 198, 223)" /><text>Borrow APR, stable</text></g><g style="transform: translateX(290px);"><circle r="3" cx="-6" cy="-5" style="fill: rgb(0, 98, 210)" /><text>Utilization Rate</text></g></g><g class="visx-group" transform="translate(40, 50)"><g class="visx-group visx-rows" transform="translate(0, 0)"><line class="visx-line" x1="0" y1="115" x2="1450" y2="115" fill="transparent" shape-rendering="crispEdges" stroke="#000" stroke-width="1" stroke-dasharray="3,3" pointer-events="none"></line><line class="visx-line" x1="0" y1="67.08333333333333" x2="1450" y2="67.08333333333333" fill="transparent" shape-rendering="crispEdges" stroke="#000" stroke-width="1" stroke-dasharray="3,3" pointer-events="none"></line><line class="visx-line" x1="0" y1="19.16666666666666" x2="1450" y2="19.16666666666666" fill="transparent" shape-rendering="crispEdges" stroke="#000" stroke-width="1" stroke-dasharray="3,3" pointer-events="none"></line></g><path class="visx-linepath" d="M0,113.56249999983228C2.4166666666666665,113.53454861101328,4.833333333333334,113.50659722219427,7.25,113.47864583333333C9.666666666666666,113.45069444447239,12.083333333333334,113.42274305555556,14.5,113.39479166666668C16.916666666666668,113.3668402777778,19.333333333333332,113.3388888888889,21.75,113.31093750000001C24.166666666666668,113.28298611111111,26.583333333333332,113.25503472222223,29,113.22708333333334C31.416666666666668,113.19913194444445,33.833333333333336,113.17118055555557,36.25,113.14322916666667C38.666666666666664,113.11527777777778,41.083333333333336,113.0873263888889,43.5,113.059375C45.91666666666667,113.03142361111111,48.333333333333336,113.00347222222223,50.75000000000001,112.97552083333333C53.16666666666667,112.94756944444444,55.583333333333336,112.91961805555556,58,112.89166666666667C60.416666666666664,112.86371527777777,62.833333333333336,112.83576388888889,65.25,112.8078125C67.66666666666667,112.7798611111111,70.08333333333333,112.75190972222221,72.5,112.72395833333333C74.91666666666667,112.69600694444445,77.33333333333333,112.66805555555555,79.75,112.64010416666667C82.16666666666667,112.6121527777778,84.58333333333333,112.5842013888889,87,112.55625C89.41666666666667,112.52829861111111,91.83333333333333,112.50034722222223,94.25,112.47239583333334C96.66666666666667,112.44444444444444,99.08333333333334,112.41649305555556,101.50000000000001,112.38854166666667C103.91666666666667,112.36059027777777,106.33333333333334,112.3326388888889,108.75,112.3046875C111.16666666666667,112.2767361111111,113.58333333333333,112.24878472222223,116,112.22083333333333C118.41666666666667,112.19288194444444,120.83333333333334,112.16493055555556,123.25000000000001,112.13697916666666C125.66666666666667,112.10902777777777,128.08333333333334,112.08107638888889,130.5,112.053125C132.91666666666666,112.0251736111111,135.33333333333334,111.9972222222222,137.75,111.96927083333333C140.16666666666666,111.94131944444445,142.58333333333334,111.91336805555555,145,111.88541666666667C147.41666666666666,111.85746527777779,149.83333333333334,111.8295138888889,152.25,111.8015625C154.66666666666666,111.77361111111111,157.08333333333334,111.74565972222223,159.5,111.71770833333333C161.91666666666666,111.68975694444444,164.33333333333334,111.66180555555556,166.75,111.63385416666667C169.16666666666666,111.60590277777777,171.58333333333334,111.57795138888889,174,111.55C176.41666666666666,111.5220486111111,178.83333333333334,111.49409722222222,181.25,111.46614583333333C183.66666666666666,111.43819444444443,186.08333333333334,111.41024305555555,188.5,111.38229166666666C190.91666666666666,111.35434027777777,193.33333333333334,111.32638888888889,195.75,111.29843749999999C198.16666666666669,111.2704861111111,200.58333333333334,111.24253472222222,203.00000000000003,111.21458333333332C205.41666666666669,111.18663194444444,207.83333333333331,111.15868055555555,210.24999999999997,111.13072916666667C212.66666666666666,111.10277777777777,215.08333333333331,111.0748263888889,217.5,111.046875C219.91666666666666,111.0189236111111,222.33333333333334,110.99097222222223,224.75,110.96302083333333C227.16666666666666,110.93506944444444,229.58333333333334,110.90711805555554,232,110.87916666666666C234.41666666666666,110.85121527777778,236.83333333333334,110.82326388888889,239.25,110.79531250000001C241.66666666666669,110.76736111111111,244.08333333333334,110.73940972222223,246.50000000000003,110.71145833333334C248.91666666666669,110.68350694444445,251.33333333333331,110.65555555555557,253.74999999999997,110.62760416666667C256.16666666666663,110.59965277777778,258.5833333333333,110.5717013888889,261,110.54375C263.4166666666667,110.51579861111111,265.8333333333333,110.48784722222223,268.25,110.45989583333333C270.6666666666667,110.43194444444444,273.0833333333333,110.40399305555555,275.5,110.37604166666667C277.9166666666667,110.34809027777779,280.3333333333333,110.32013888888889,282.75,110.29218750000001C285.1666666666667,110.26423611111113,287.5833333333333,110.26423611111112,290,110.20833333333334C292.4166666666667,110.15243055555557,294.8333333333333,109.80902777777779,297.25,109.609375C299.6666666666667,109.40972222222221,302.0833333333333,109.21006944444443,304.5,109.01041666666666C306.9166666666667,108.81076388888889,309.3333333333333,108.61111111111111,311.75,108.41145833333334C314.1666666666667,108.21180555555557,316.5833333333333,108.01215277777779,319,107.8125C321.4166666666667,107.61284722222221,323.8333333333333,107.41319444444443,326.25,107.21354166666666C328.6666666666667,107.01388888888889,331.0833333333333,106.81423611111111,333.5,106.61458333333334C335.9166666666667,106.41493055555557,338.3333333333333,106.21527777777779,340.75,106.015625C343.1666666666667,105.81597222222221,345.5833333333333,105.61631944444443,348,105.41666666666666C350.4166666666667,105.21701388888889,352.8333333333333,105.01736111111111,355.25,104.81770833333334C357.6666666666667,104.61805555555557,360.0833333333333,104.41840277777779,362.5,104.21875C364.9166666666667,104.01909722222221,367.3333333333333,103.81944444444443,369.75,103.61979166666666C372.1666666666667,103.42013888888889,374.5833333333333,103.22048611111111,377,103.02083333333334C379.4166666666667,102.82118055555557,381.8333333333333,102.62152777777779,384.25,102.421875C386.6666666666667,102.22222222222221,389.0833333333333,102.02256944444443,391.5,101.82291666666666C393.9166666666667,101.62326388888889,396.33333333333337,101.42361111111111,398.75000000000006,101.22395833333334C401.16666666666674,101.02430555555557,403.58333333333337,100.82465277777779,406.00000000000006,100.625C408.4166666666667,100.42534722222221,410.8333333333333,100.22569444444443,413.24999999999994,100.02604166666666C415.66666666666663,99.82638888888889,418.08333333333326,99.62673611111111,420.49999999999994,99.42708333333334C422.91666666666663,99.22743055555557,425.3333333333333,99.02777777777779,427.75,98.828125C430.1666666666667,98.62847222222221,432.5833333333333,98.42881944444443,435,98.22916666666666C437.4166666666667,98.02951388888889,439.8333333333333,97.82986111111111,442.25,97.63020833333334C444.6666666666667,97.43055555555557,447.0833333333333,97.23090277777779,449.5,97.03125C451.9166666666667,96.83159722222221,454.3333333333333,96.63194444444443,456.75,96.43229166666666C459.1666666666667,96.23263888888889,461.5833333333333,96.03298611111111,464,95.83333333333334C466.4166666666667,95.63368055555557,468.8333333333333,95.43402777777779,471.25,95.234375C473.6666666666667,95.03472222222221,476.0833333333333,94.83506944444443,478.5,94.63541666666666C480.9166666666667,94.43576388888889,483.33333333333337,94.23611111111111,485.75000000000006,94.03645833333334C488.16666666666674,93.83680555555557,490.58333333333337,93.63715277777779,493.00000000000006,93.4375C495.4166666666667,93.23784722222221,497.8333333333333,93.03819444444443,500.24999999999994,92.83854166666666C502.66666666666663,92.63888888888889,505.08333333333326,92.43923611111111,507.49999999999994,92.23958333333334C509.91666666666663,92.03993055555557,512.3333333333333,91.84027777777779,514.75,91.640625C517.1666666666666,91.44097222222221,519.5833333333334,91.24131944444443,522,91.04166666666666C524.4166666666666,90.84201388888889,526.8333333333334,90.64236111111111,529.25,90.44270833333334C531.6666666666666,90.24305555555557,534.0833333333334,90.04340277777779,536.5,89.84375C538.9166666666666,89.64409722222221,541.3333333333334,89.44444444444443,543.75,89.24479166666666C546.1666666666666,89.04513888888889,548.5833333333334,88.8454861111111,551,88.64583333333333C553.4166666666666,88.44618055555556,555.8333333333334,88.24652777777777,558.25,88.046875C560.6666666666666,87.84722222222223,563.0833333333334,87.64756944444444,565.5,87.44791666666667C567.9166666666666,87.2482638888889,570.3333333333334,87.04861111111111,572.75,86.84895833333334C575.1666666666666,86.64930555555557,577.5833333333334,86.44965277777779,580,86.25C582.4166666666666,86.05034722222221,584.8333333333334,85.85069444444443,587.25,85.65104166666666C589.6666666666666,85.45138888888889,592.0833333333334,85.2517361111111,594.5,85.05208333333333C596.9166666666666,84.85243055555556,599.3333333333334,84.65277777777777,601.75,84.453125C604.1666666666666,84.25347222222223,606.5833333333334,84.05381944444444,609,83.85416666666667C611.4166666666666,83.6545138888889,613.8333333333334,83.4548611111111,616.25,83.25520833333333C618.6666666666666,83.05555555555556,621.0833333333334,82.85590277777777,623.5,82.65625C625.9166666666666,82.45659722222223,628.3333333333334,82.25694444444444,630.75,82.05729166666667C633.1666666666666,81.8576388888889,635.5833333333334,81.6579861111111,638,81.45833333333333C640.4166666666666,81.25868055555556,642.8333333333334,81.05902777777777,645.25,80.859375C647.6666666666666,80.65972222222223,650.0833333333334,80.46006944444444,652.5,80.26041666666667C654.9166666666666,80.0607638888889,657.3333333333334,79.8611111111111,659.75,79.66145833333333C662.1666666666666,79.46180555555556,664.5833333333334,79.26215277777777,667,79.0625C669.4166666666666,78.86284722222223,671.8333333333334,78.66319444444444,674.25,78.46354166666667C676.6666666666666,78.2638888888889,679.0833333333334,78.0642361111111,681.5,77.86458333333333C683.9166666666666,77.66493055555556,686.3333333333334,77.46527777777777,688.75,77.265625C691.1666666666666,77.06597222222223,693.5833333333334,76.86631944444444,696,76.66666666666667C698.4166666666666,76.4670138888889,700.8333333333334,76.2673611111111,703.25,76.06770833333333C705.6666666666666,75.86805555555556,708.0833333333334,75.66840277777777,710.5,75.46875C712.9166666666666,75.26909722222223,715.3333333333334,75.06944444444444,717.75,74.86979166666667C720.1666666666666,74.6701388888889,722.5833333333334,74.4704861111111,725,74.27083333333333C727.4166666666666,74.07118055555556,729.8333333333334,73.87152777777777,732.25,73.671875C734.6666666666666,73.47222222222223,737.0833333333334,73.27256944444444,739.5,73.07291666666667C741.9166666666666,72.8732638888889,744.3333333333334,72.6736111111111,746.75,72.47395833333333C749.1666666666666,72.27430555555556,751.5833333333334,72.07465277777777,754,71.875C756.4166666666666,71.67534722222223,758.8333333333334,71.47569444444444,761.25,71.27604166666667C763.6666666666666,71.0763888888889,766.0833333333334,70.8767361111111,768.5,70.67708333333333C770.9166666666666,70.47743055555556,773.3333333333334,70.27777777777777,775.75,70.078125C778.1666666666666,69.87847222222223,780.5833333333334,69.67881944444444,783,69.47916666666667C785.4166666666667,69.27951388888889,787.8333333333334,69.07986111111111,790.2500000000001,68.88020833333333C792.6666666666667,68.68055555555556,795.0833333333335,68.48090277777777,797.5000000000001,68.28125C799.9166666666667,68.08159722222223,802.3333333333335,67.88194444444444,804.7500000000001,67.68229166666667C807.1666666666667,67.4826388888889,809.5833333333335,67.28298611111111,812.0000000000001,67.08333333333333C814.4166666666667,66.88368055555556,816.8333333333333,66.68402777777777,819.2499999999999,66.484375C821.6666666666665,66.28472222222221,824.0833333333333,66.08506944444444,826.4999999999999,65.88541666666667C828.9166666666665,65.6857638888889,831.3333333333333,65.4861111111111,833.7499999999999,65.28645833333333C836.1666666666665,65.08680555555556,838.5833333333333,64.88715277777777,840.9999999999999,64.6875C843.4166666666666,64.48784722222223,845.8333333333333,64.28819444444446,848.25,64.08854166666667C850.6666666666666,63.88888888888889,853.0833333333334,63.6892361111111,855.5,63.48958333333332C857.9166666666666,63.28993055555554,860.3333333333334,63.09027777777778,862.75,62.890625C865.1666666666666,62.69097222222222,867.5833333333334,62.49131944444444,870,62.291666666666664C872.4166666666666,62.092013888888886,874.8333333333334,61.8923611111111,877.25,61.69270833333332C879.6666666666666,61.49305555555554,882.0833333333334,61.29340277777777,884.5,61.09375C886.9166666666666,60.89409722222223,889.3333333333334,60.69444444444446,891.75,60.49479166666668C894.1666666666666,60.2951388888889,896.5833333333334,60.095486111111114,899,59.895833333333336C901.4166666666666,59.69618055555556,903.8333333333334,59.49652777777778,906.25,59.296875C908.6666666666666,59.09722222222222,911.0833333333334,58.89756944444446,913.5,58.69791666666668C915.9166666666666,58.4982638888889,918.3333333333334,58.2986111111111,920.75,58.09895833333332C923.1666666666666,57.89930555555554,925.5833333333334,57.69965277777777,928,57.5C930.4166666666666,57.30034722222223,932.8333333333334,57.10069444444446,935.25,56.90104166666668C937.6666666666666,56.7013888888889,940.0833333333334,56.5017361111111,942.5,56.30208333333332C944.9166666666666,56.10243055555554,947.3333333333334,55.90277777777778,949.75,55.703125C952.1666666666666,55.50347222222222,954.5833333333334,55.30381944444444,957,55.104166666666664C959.4166666666666,54.904513888888886,961.8333333333334,54.70486111111111,964.25,54.505208333333336C966.6666666666667,54.30555555555556,969.0833333333334,54.10590277777779,971.5000000000001,53.906250000000014C973.9166666666667,53.706597222222236,976.3333333333335,53.50694444444444,978.7500000000001,53.307291666666664C981.1666666666667,53.107638888888886,983.5833333333335,52.907986111111114,986.0000000000001,52.708333333333336C988.4166666666667,52.50868055555556,990.8333333333335,52.30902777777778,993.2500000000001,52.109375C995.6666666666667,51.90972222222222,998.0833333333333,51.710069444444436,1000.4999999999999,51.510416666666664C1002.9166666666665,51.310763888888886,1005.3333333333333,51.111111111111114,1007.7499999999999,50.911458333333336C1010.1666666666665,50.71180555555556,1012.5833333333333,50.51215277777778,1014.9999999999999,50.3125C1017.4166666666665,50.11284722222222,1019.8333333333333,49.91319444444444,1022.2499999999999,49.713541666666664C1024.6666666666665,49.513888888888886,1027.0833333333333,49.314236111111114,1029.5,49.114583333333336C1031.9166666666667,48.91493055555556,1034.3333333333333,48.71527777777778,1036.75,48.515625C1039.1666666666667,48.31597222222222,1041.5833333333333,48.11631944444444,1044,47.916666666666664C1046.4166666666667,47.717013888888886,1048.8333333333333,47.517361111111114,1051.25,47.317708333333336C1053.6666666666667,47.11805555555556,1056.0833333333333,46.91840277777778,1058.5,46.71875C1060.9166666666667,46.51909722222222,1063.3333333333333,46.31944444444444,1065.75,46.119791666666664C1068.1666666666667,45.920138888888886,1070.5833333333333,45.720486111111114,1073,45.520833333333336C1075.4166666666667,45.32118055555556,1077.8333333333333,45.12152777777778,1080.25,44.921875C1082.6666666666667,44.72222222222222,1085.0833333333333,44.52256944444444,1087.5,44.322916666666664C1089.9166666666667,44.123263888888886,1092.3333333333333,43.923611111111114,1094.75,43.723958333333336C1097.1666666666667,43.52430555555556,1099.5833333333333,43.32465277777778,1102,43.125C1104.4166666666667,42.92534722222222,1106.8333333333333,42.72569444444444,1109.25,42.526041666666664C1111.6666666666667,42.326388888888886,1114.0833333333333,42.126736111111114,1116.5,41.927083333333336C1118.9166666666667,41.72743055555556,1121.3333333333333,41.52777777777778,1123.75,41.328125C1126.1666666666667,41.12847222222222,1128.5833333333333,40.92881944444444,1131,40.729166666666664C1133.4166666666667,40.529513888888886,1135.8333333333333,40.329861111111114,1138.25,40.130208333333336C1140.6666666666667,39.93055555555556,1143.0833333333333,39.73090277777778,1145.5,39.53125C1147.9166666666667,39.33159722222222,1150.3333333333333,39.13194444444444,1152.75,38.932291666666664C1155.1666666666667,38.732638888888886,1157.5833333333333,38.532986111111114,1160,38.333333333333336C1162.4166666666667,38.13368055555556,1164.8333333333333,37.93402777777778,1167.25,37.734375C1169.6666666666667,37.53472222222222,1172.0833333333333,37.33506944444444,1174.5,37.135416666666664C1176.9166666666667,36.935763888888886,1179.3333333333333,36.736111111111114,1181.75,36.536458333333336C1184.1666666666667,36.33680555555556,1186.5833333333333,36.13715277777778,1189,35.9375C1191.4166666666667,35.73784722222222,1193.8333333333333,35.53819444444444,1196.25,35.338541666666664C1198.6666666666667,35.138888888888886,1201.0833333333333,34.939236111111114,1203.5,34.739583333333336C1205.9166666666667,34.53993055555556,1208.3333333333333,34.34027777777778,1210.75,34.140625C1213.1666666666667,33.94097222222222,1215.5833333333333,33.74131944444444,1218,33.541666666666664C1220.4166666666667,33.342013888888886,1222.8333333333333,33.142361111111114,1225.25,32.942708333333336C1227.6666666666667,32.74305555555556,1230.0833333333333,32.54340277777778,1232.5,32.34375C1234.9166666666667,32.14409722222222,1237.3333333333333,31.944444444444436,1239.75,31.74479166666666C1242.1666666666667,31.545138888888886,1244.5833333333333,31.345486111111114,1247,31.14583333333334C1249.4166666666667,30.946180555555564,1251.8333333333333,30.74652777777778,1254.25,30.546875C1256.6666666666667,30.34722222222222,1259.0833333333333,30.147569444444436,1261.5,29.94791666666666C1263.9166666666667,29.748263888888886,1266.3333333333333,29.548611111111114,1268.75,29.34895833333334C1271.1666666666667,29.149305555555564,1273.5833333333333,28.94965277777778,1276,28.75C1278.4166666666667,28.55034722222222,1280.8333333333333,28.350694444444436,1283.25,28.15104166666666C1285.6666666666667,27.951388888888886,1288.0833333333333,27.751736111111114,1290.5,27.55208333333334C1292.9166666666667,27.352430555555564,1295.3333333333333,27.15277777777778,1297.75,26.953125C1300.1666666666667,26.75347222222222,1302.5833333333333,26.553819444444436,1305,26.35416666666666C1307.4166666666667,26.154513888888886,1309.8333333333333,25.954861111111114,1312.25,25.75520833333334C1314.6666666666667,25.555555555555564,1317.0833333333333,25.35590277777778,1319.5,25.15625C1321.9166666666667,24.95659722222222,1324.3333333333333,24.756944444444436,1326.75,24.55729166666666C1329.1666666666667,24.357638888888886,1331.5833333333333,24.157986111111114,1334,23.95833333333334C1336.4166666666667,23.758680555555564,1338.8333333333333,23.55902777777778,1341.25,23.359375C1343.6666666666667,23.15972222222222,1346.0833333333333,22.960069444444436,1348.5,22.76041666666666C1350.9166666666667,22.560763888888886,1353.3333333333333,22.361111111111114,1355.75,22.16145833333334C1358.1666666666667,21.961805555555564,1360.5833333333333,21.76215277777778,1363,21.5625C1365.4166666666667,21.36284722222222,1367.8333333333333,21.163194444444436,1370.25,20.96354166666666C1372.6666666666667,20.763888888888886,1375.0833333333333,20.564236111111114,1377.5,20.36458333333334C1379.9166666666667,20.164930555555564,1382.3333333333333,19.96527777777778,1384.75,19.765625C1387.1666666666667,19.56597222222222,1389.5833333333333,19.36631944444444,1392,19.16666666666666C1394.4166666666667,18.967013888888882,1396.8333333333333,18.7673611111111,1399.25,18.567708333333325C1401.6666666666667,18.36805555555555,1404.0833333333333,18.16840277777778,1406.5,17.96875C1408.9166666666667,17.76909722222222,1411.3333333333333,17.569444444444436,1413.75,17.36979166666666C1416.1666666666667,17.170138888888886,1418.5833333333333,16.970486111111125,1421,16.77083333333335C1423.4166666666667,16.571180555555575,1425.8333333333333,16.371527777777782,1428.25,16.171875C1430.6666666666667,15.972222222222216,1433.0833333333333,15.772569444444427,1435.5,15.57291666666665C1437.9166666666667,15.373263888888873,1440.3333333333333,15.173611111111112,1442.75,14.973958333333337C1445.1666666666667,14.774305555555562,1447.5833333333333,14.57465277777778,1450,14.375" fill="transparent" stroke-linecap="round" stroke="#B6509E" stroke-width="2"></path><path class="visx-linepath" d="M0,110.20833333316563C2.4166666666666665,110.18038194434662,4.833333333333334,110.15243055552762,7.25,110.12447916666667C9.666666666666666,110.09652777780573,12.083333333333334,110.0685763888889,14.5,110.040625C16.916666666666668,110.01267361111111,19.333333333333332,109.98472222222223,21.75,109.95677083333334C24.166666666666668,109.92881944444444,26.583333333333332,109.90086805555556,29,109.87291666666667C31.416666666666668,109.84496527777777,33.833333333333336,109.8170138888889,36.25,109.7890625C38.666666666666664,109.7611111111111,41.083333333333336,109.73315972222223,43.5,109.70520833333333C45.91666666666667,109.67725694444444,48.333333333333336,109.64930555555556,50.75000000000001,109.62135416666666C53.16666666666667,109.59340277777778,55.583333333333336,109.56545138888889,58,109.53750000000001C60.416666666666664,109.50954861111111,62.833333333333336,109.48159722222223,65.25,109.45364583333334C67.66666666666667,109.42569444444445,70.08333333333333,109.39774305555557,72.5,109.36979166666667C74.91666666666667,109.34184027777778,77.33333333333333,109.3138888888889,79.75,109.2859375C82.16666666666667,109.25798611111111,84.58333333333333,109.23003472222223,87,109.20208333333333C89.41666666666667,109.17413194444444,91.83333333333333,109.14618055555556,94.25,109.11822916666667C96.66666666666667,109.09027777777777,99.08333333333334,109.06232638888889,101.50000000000001,109.034375C103.91666666666667,109.0064236111111,106.33333333333334,108.97847222222222,108.75,108.95052083333333C111.16666666666667,108.92256944444443,113.58333333333333,108.89461805555555,116,108.86666666666666C118.41666666666667,108.83871527777777,120.83333333333334,108.81076388888889,123.25000000000001,108.78281249999999C125.66666666666667,108.75486111111111,128.08333333333334,108.72690972222222,130.5,108.69895833333334C132.91666666666666,108.67100694444444,135.33333333333334,108.64305555555556,137.75,108.61510416666667C140.16666666666666,108.58715277777777,142.58333333333334,108.5592013888889,145,108.53125C147.41666666666666,108.5032986111111,149.83333333333334,108.47534722222223,152.25,108.44739583333333C154.66666666666666,108.41944444444444,157.08333333333334,108.39149305555556,159.5,108.36354166666666C161.91666666666666,108.33559027777777,164.33333333333334,108.30763888888889,166.75,108.2796875C169.16666666666666,108.2517361111111,171.58333333333334,108.22378472222222,174,108.19583333333333C176.41666666666666,108.16788194444443,178.83333333333334,108.13993055555555,181.25,108.11197916666666C183.66666666666666,108.08402777777776,186.08333333333334,108.05607638888887,188.5,108.02812499999999C190.91666666666666,108.00017361111111,193.33333333333334,107.97222222222221,195.75,107.94427083333333C198.16666666666669,107.91631944444444,200.58333333333334,107.88836805555556,203.00000000000003,107.86041666666667C205.41666666666669,107.83246527777779,207.83333333333331,107.80451388888889,210.24999999999997,107.77656250000001C212.66666666666666,107.74861111111112,215.08333333333331,107.72065972222224,217.5,107.69270833333334C219.91666666666666,107.66475694444445,222.33333333333334,107.63680555555557,224.75,107.60885416666667C227.16666666666666,107.58090277777778,229.58333333333334,107.5529513888889,232,107.525C234.41666666666666,107.49704861111111,236.83333333333334,107.46909722222223,239.25,107.44114583333334C241.66666666666669,107.41319444444444,244.08333333333334,107.38524305555556,246.50000000000003,107.35729166666667C248.91666666666669,107.32934027777777,251.33333333333331,107.3013888888889,253.74999999999997,107.2734375C256.16666666666663,107.2454861111111,258.5833333333333,107.21753472222223,261,107.18958333333333C263.4166666666667,107.16163194444445,265.8333333333333,107.13368055555556,268.25,107.10572916666668C270.6666666666667,107.0777777777778,273.0833333333333,107.0498263888889,275.5,107.02187500000001C277.9166666666667,106.99392361111111,280.3333333333333,106.96597222222223,282.75,106.93802083333334C285.1666666666667,106.91006944444445,287.5833333333333,106.91006944444445,290,106.85416666666667C292.4166666666667,106.7982638888889,294.8333333333333,106.4548611111111,297.25,106.25520833333333C299.6666666666667,106.05555555555556,302.0833333333333,105.85590277777777,304.5,105.65625C306.9166666666667,105.45659722222223,309.3333333333333,105.25694444444444,311.75,105.05729166666667C314.1666666666667,104.8576388888889,316.5833333333333,104.6579861111111,319,104.45833333333333C321.4166666666667,104.25868055555556,323.8333333333333,104.05902777777777,326.25,103.859375C328.6666666666667,103.65972222222223,331.0833333333333,103.46006944444444,333.5,103.26041666666667C335.9166666666667,103.0607638888889,338.3333333333333,102.8611111111111,340.75,102.66145833333333C343.1666666666667,102.46180555555556,345.5833333333333,102.26215277777777,348,102.0625C350.4166666666667,101.86284722222223,352.8333333333333,101.66319444444444,355.25,101.46354166666667C357.6666666666667,101.2638888888889,360.0833333333333,101.0642361111111,362.5,100.86458333333333C364.9166666666667,100.66493055555556,367.3333333333333,100.46527777777777,369.75,100.265625C372.1666666666667,100.06597222222223,374.5833333333333,99.86631944444444,377,99.66666666666667C379.4166666666667,99.4670138888889,381.8333333333333,99.2673611111111,384.25,99.06770833333333C386.6666666666667,98.86805555555556,389.0833333333333,98.66840277777777,391.5,98.46875C393.9166666666667,98.26909722222223,396.33333333333337,98.06944444444446,398.75000000000006,97.86979166666667C401.16666666666674,97.6701388888889,403.58333333333337,97.47048611111111,406.00000000000006,97.27083333333333C408.4166666666667,97.07118055555556,410.8333333333333,96.87152777777777,413.24999999999994,96.671875C415.66666666666663,96.47222222222223,418.08333333333326,96.27256944444444,420.49999999999994,96.07291666666667C422.91666666666663,95.87326388888889,425.3333333333333,95.67361111111111,427.75,95.47395833333333C430.1666666666667,95.27430555555556,432.5833333333333,95.07465277777777,435,94.875C437.4166666666667,94.67534722222223,439.8333333333333,94.47569444444444,442.25,94.27604166666667C444.6666666666667,94.0763888888889,447.0833333333333,93.8767361111111,449.5,93.67708333333333C451.9166666666667,93.47743055555556,454.3333333333333,93.27777777777777,456.75,93.078125C459.1666666666667,92.87847222222223,461.5833333333333,92.67881944444444,464,92.47916666666667C466.4166666666667,92.2795138888889,468.8333333333333,92.0798611111111,471.25,91.88020833333333C473.6666666666667,91.68055555555556,476.0833333333333,91.48090277777777,478.5,91.28125C480.9166666666667,91.08159722222223,483.33333333333337,90.88194444444446,485.75000000000006,90.68229166666667C488.16666666666674,90.4826388888889,490.58333333333337,90.28298611111111,493.00000000000006,90.08333333333333C495.4166666666667,89.88368055555556,497.8333333333333,89.68402777777777,500.24999999999994,89.484375C502.66666666666663,89.28472222222223,505.08333333333326,89.08506944444444,507.49999999999994,88.88541666666667C509.91666666666663,88.68576388888889,512.3333333333333,88.4861111111111,514.75,88.28645833333333C517.1666666666666,88.08680555555556,519.5833333333334,87.88715277777779,522,87.68750000000001C524.4166666666666,87.48784722222224,526.8333333333334,87.28819444444446,529.25,87.08854166666667C531.6666666666666,86.88888888888889,534.0833333333334,86.6892361111111,536.5,86.48958333333333C538.9166666666666,86.28993055555556,541.3333333333334,86.09027777777777,543.75,85.890625C546.1666666666666,85.69097222222223,548.5833333333334,85.49131944444444,551,85.29166666666667C553.4166666666666,85.0920138888889,555.8333333333334,84.89236111111111,558.25,84.69270833333334C560.6666666666666,84.49305555555557,563.0833333333334,84.29340277777777,565.5,84.09375C567.9166666666666,83.89409722222223,570.3333333333334,83.69444444444444,572.75,83.49479166666667C575.1666666666666,83.2951388888889,577.5833333333334,83.0954861111111,580,82.89583333333333C582.4166666666666,82.69618055555556,584.8333333333334,82.49652777777777,587.25,82.296875C589.6666666666666,82.09722222222223,592.0833333333334,81.89756944444444,594.5,81.69791666666667C596.9166666666666,81.4982638888889,599.3333333333334,81.2986111111111,601.75,81.09895833333333C604.1666666666666,80.89930555555556,606.5833333333334,80.69965277777777,609,80.5C611.4166666666666,80.30034722222223,613.8333333333334,80.10069444444444,616.25,79.90104166666667C618.6666666666666,79.7013888888889,621.0833333333334,79.5017361111111,623.5,79.30208333333333C625.9166666666666,79.10243055555556,628.3333333333334,78.90277777777777,630.75,78.703125C633.1666666666666,78.50347222222223,635.5833333333334,78.30381944444444,638,78.10416666666667C640.4166666666666,77.9045138888889,642.8333333333334,77.7048611111111,645.25,77.50520833333333C647.6666666666666,77.30555555555556,650.0833333333334,77.10590277777777,652.5,76.90625C654.9166666666666,76.70659722222223,657.3333333333334,76.50694444444444,659.75,76.30729166666667C662.1666666666666,76.1076388888889,664.5833333333334,75.9079861111111,667,75.70833333333333C669.4166666666666,75.50868055555556,671.8333333333334,75.30902777777777,674.25,75.109375C676.6666666666666,74.90972222222223,679.0833333333334,74.71006944444444,681.5,74.51041666666667C683.9166666666666,74.3107638888889,686.3333333333334,74.1111111111111,688.75,73.91145833333333C691.1666666666666,73.71180555555556,693.5833333333334,73.51215277777777,696,73.3125C698.4166666666666,73.11284722222223,700.8333333333334,72.91319444444444,703.25,72.71354166666667C705.6666666666666,72.5138888888889,708.0833333333334,72.3142361111111,710.5,72.11458333333333C712.9166666666666,71.91493055555556,715.3333333333334,71.71527777777777,717.75,71.515625C720.1666666666666,71.31597222222223,722.5833333333334,71.11631944444444,725,70.91666666666667C727.4166666666666,70.7170138888889,729.8333333333334,70.5173611111111,732.25,70.31770833333333C734.6666666666666,70.11805555555556,737.0833333333334,69.91840277777777,739.5,69.71875C741.9166666666666,69.51909722222223,744.3333333333334,69.31944444444444,746.75,69.11979166666667C749.1666666666666,68.9201388888889,751.5833333333334,68.7204861111111,754,68.52083333333333C756.4166666666666,68.32118055555556,758.8333333333334,68.12152777777777,761.25,67.921875C763.6666666666666,67.72222222222223,766.0833333333334,67.52256944444444,768.5,67.32291666666667C770.9166666666666,67.1232638888889,773.3333333333334,66.9236111111111,775.75,66.72395833333333C778.1666666666666,66.52430555555556,780.5833333333334,66.32465277777777,783,66.125C785.4166666666667,65.92534722222223,787.8333333333334,65.72569444444446,790.2500000000001,65.52604166666667C792.6666666666667,65.3263888888889,795.0833333333335,65.1267361111111,797.5000000000001,64.92708333333333C799.9166666666667,64.72743055555556,802.3333333333335,64.52777777777777,804.7500000000001,64.328125C807.1666666666667,64.12847222222223,809.5833333333335,63.92881944444445,812.0000000000001,63.72916666666667C814.4166666666667,63.5295138888889,816.8333333333333,63.329861111111114,819.2499999999999,63.130208333333336C821.6666666666665,62.93055555555555,824.0833333333333,62.73090277777777,826.4999999999999,62.53124999999999C828.9166666666665,62.331597222222214,831.3333333333333,62.13194444444445,833.7499999999999,61.93229166666667C836.1666666666665,61.73263888888889,838.5833333333333,61.5329861111111,840.9999999999999,61.33333333333332C843.4166666666666,61.13368055555554,845.8333333333333,60.93402777777777,848.25,60.73437499999999C850.6666666666666,60.53472222222222,853.0833333333334,60.33506944444445,855.5,60.13541666666667C857.9166666666666,59.93576388888889,860.3333333333334,59.736111111111114,862.75,59.536458333333336C865.1666666666666,59.33680555555556,867.5833333333334,59.13715277777777,870,58.93749999999999C872.4166666666666,58.737847222222214,874.8333333333334,58.538194444444436,877.25,58.33854166666666C879.6666666666666,58.13888888888888,882.0833333333334,57.939236111111114,884.5,57.739583333333336C886.9166666666666,57.53993055555556,889.3333333333334,57.34027777777777,891.75,57.14062499999999C894.1666666666666,56.940972222222214,896.5833333333334,56.74131944444445,899,56.54166666666667C901.4166666666666,56.34201388888889,903.8333333333334,56.142361111111114,906.25,55.942708333333336C908.6666666666666,55.74305555555556,911.0833333333334,55.54340277777777,913.5,55.34374999999999C915.9166666666666,55.144097222222214,918.3333333333334,54.94444444444445,920.75,54.74479166666667C923.1666666666666,54.54513888888889,925.5833333333334,54.345486111111114,928,54.145833333333336C930.4166666666666,53.94618055555556,932.8333333333334,53.74652777777777,935.25,53.54687499999999C937.6666666666666,53.347222222222214,940.0833333333334,53.14756944444445,942.5,52.94791666666667C944.9166666666666,52.74826388888889,947.3333333333334,52.548611111111114,949.75,52.348958333333336C952.1666666666666,52.14930555555556,954.5833333333334,51.94965277777777,957,51.74999999999999C959.4166666666666,51.550347222222214,961.8333333333334,51.35069444444444,964.25,51.15104166666667C966.6666666666667,50.95138888888889,969.0833333333334,50.751736111111114,971.5000000000001,50.552083333333336C973.9166666666667,50.35243055555556,976.3333333333335,50.15277777777777,978.7500000000001,49.95312499999999C981.1666666666667,49.753472222222214,983.5833333333335,49.55381944444445,986.0000000000001,49.35416666666667C988.4166666666667,49.15451388888889,990.8333333333335,48.95486111111112,993.2500000000001,48.755208333333336C995.6666666666667,48.55555555555556,998.0833333333333,48.355902777777764,1000.4999999999999,48.15624999999999C1002.9166666666665,47.956597222222214,1005.3333333333333,47.75694444444445,1007.7499999999999,47.55729166666667C1010.1666666666665,47.35763888888889,1012.5833333333333,47.157986111111114,1014.9999999999999,46.958333333333336C1017.4166666666665,46.75868055555556,1019.8333333333333,46.55902777777777,1022.2499999999999,46.35937499999999C1024.6666666666665,46.159722222222214,1027.0833333333333,45.96006944444445,1029.5,45.76041666666667C1031.9166666666667,45.5607638888889,1034.3333333333333,45.361111111111114,1036.75,45.161458333333336C1039.1666666666667,44.96180555555556,1041.5833333333333,44.76215277777777,1044,44.56249999999999C1046.4166666666667,44.362847222222214,1048.8333333333333,44.16319444444445,1051.25,43.96354166666667C1053.6666666666667,43.76388888888889,1056.0833333333333,43.564236111111114,1058.5,43.364583333333336C1060.9166666666667,43.16493055555556,1063.3333333333333,42.96527777777777,1065.75,42.76562499999999C1068.1666666666667,42.565972222222214,1070.5833333333333,42.36631944444445,1073,42.16666666666667C1075.4166666666667,41.96701388888889,1077.8333333333333,41.767361111111114,1080.25,41.567708333333336C1082.6666666666667,41.36805555555556,1085.0833333333333,41.16840277777777,1087.5,40.96874999999999C1089.9166666666667,40.769097222222214,1092.3333333333333,40.56944444444445,1094.75,40.36979166666667C1097.1666666666667,40.17013888888889,1099.5833333333333,39.970486111111114,1102,39.770833333333336C1104.4166666666667,39.57118055555556,1106.8333333333333,39.37152777777777,1109.25,39.17187499999999C1111.6666666666667,38.972222222222214,1114.0833333333333,38.77256944444445,1116.5,38.57291666666667C1118.9166666666667,38.37326388888889,1121.3333333333333,38.173611111111114,1123.75,37.973958333333336C1126.1666666666667,37.77430555555556,1128.5833333333333,37.57465277777777,1131,37.37499999999999C1133.4166666666667,37.175347222222214,1135.8333333333333,36.97569444444445,1138.25,36.77604166666667C1140.6666666666667,36.57638888888889,1143.0833333333333,36.376736111111114,1145.5,36.177083333333336C1147.9166666666667,35.97743055555556,1150.3333333333333,35.77777777777777,1152.75,35.57812499999999C1155.1666666666667,35.378472222222214,1157.5833333333333,35.17881944444445,1160,34.97916666666667C1162.4166666666667,34.77951388888889,1164.8333333333333,34.579861111111114,1167.25,34.380208333333336C1169.6666666666667,34.18055555555556,1172.0833333333333,33.98090277777777,1174.5,33.78124999999999C1176.9166666666667,33.581597222222214,1179.3333333333333,33.38194444444445,1181.75,33.18229166666667C1184.1666666666667,32.98263888888889,1186.5833333333333,32.782986111111114,1189,32.583333333333336C1191.4166666666667,32.38368055555556,1193.8333333333333,32.18402777777777,1196.25,31.984374999999996C1198.6666666666667,31.784722222222218,1201.0833333333333,31.58506944444445,1203.5,31.38541666666667C1205.9166666666667,31.185763888888893,1208.3333333333333,30.98611111111111,1210.75,30.786458333333332C1213.1666666666667,30.586805555555554,1215.5833333333333,30.38715277777777,1218,30.187499999999996C1220.4166666666667,29.98784722222222,1222.8333333333333,29.78819444444445,1225.25,29.58854166666667C1227.6666666666667,29.388888888888893,1230.0833333333333,29.18923611111111,1232.5,28.989583333333332C1234.9166666666667,28.789930555555554,1237.3333333333333,28.59027777777777,1239.75,28.390624999999996C1242.1666666666667,28.19097222222222,1244.5833333333333,27.99131944444445,1247,27.79166666666667C1249.4166666666667,27.592013888888893,1251.8333333333333,27.39236111111111,1254.25,27.192708333333332C1256.6666666666667,26.993055555555554,1259.0833333333333,26.79340277777777,1261.5,26.593749999999996C1263.9166666666667,26.39409722222222,1266.3333333333333,26.19444444444445,1268.75,25.99479166666667C1271.1666666666667,25.795138888888893,1273.5833333333333,25.59548611111111,1276,25.395833333333332C1278.4166666666667,25.196180555555554,1280.8333333333333,24.99652777777777,1283.25,24.796874999999996C1285.6666666666667,24.59722222222222,1288.0833333333333,24.39756944444445,1290.5,24.19791666666667C1292.9166666666667,23.998263888888893,1295.3333333333333,23.79861111111111,1297.75,23.598958333333332C1300.1666666666667,23.399305555555554,1302.5833333333333,23.19965277777777,1305,22.999999999999996C1307.4166666666667,22.80034722222222,1309.8333333333333,22.60069444444445,1312.25,22.40104166666667C1314.6666666666667,22.201388888888893,1317.0833333333333,22.00173611111111,1319.5,21.802083333333332C1321.9166666666667,21.602430555555554,1324.3333333333333,21.40277777777777,1326.75,21.203124999999996C1329.1666666666667,21.00347222222222,1331.5833333333333,20.80381944444445,1334,20.60416666666667C1336.4166666666667,20.404513888888893,1338.8333333333333,20.20486111111111,1341.25,20.005208333333332C1343.6666666666667,19.805555555555554,1346.0833333333333,19.60590277777777,1348.5,19.406249999999996C1350.9166666666667,19.20659722222222,1353.3333333333333,19.00694444444446,1355.75,18.807291666666682C1358.1666666666667,18.607638888888903,1360.5833333333333,18.407986111111114,1363,18.208333333333332C1365.4166666666667,18.00868055555555,1367.8333333333333,17.809027777777757,1370.25,17.609374999999982C1372.6666666666667,17.409722222222207,1375.0833333333333,17.210069444444446,1377.5,17.01041666666667C1379.9166666666667,16.810763888888896,1382.3333333333333,16.61111111111111,1384.75,16.411458333333332C1387.1666666666667,16.211805555555554,1389.5833333333333,16.012152777777786,1392,15.812500000000007C1394.4166666666667,15.61284722222223,1396.8333333333333,15.41319444444445,1399.25,15.21354166666667C1401.6666666666667,15.01388888888889,1404.0833333333333,14.814236111111098,1406.5,14.61458333333332C1408.9166666666667,14.414930555555541,1411.3333333333333,14.21527777777777,1413.75,14.015624999999995C1416.1666666666667,13.81597222222222,1418.5833333333333,13.616319444444445,1421,13.41666666666667C1423.4166666666667,13.217013888888895,1425.8333333333333,13.017361111111123,1428.25,12.817708333333345C1430.6666666666667,12.618055555555566,1433.0833333333333,12.418402777777775,1435.5,12.218749999999995C1437.9166666666667,12.019097222222214,1440.3333333333333,11.819444444444434,1442.75,11.619791666666657C1445.1666666666667,11.42013888888888,1447.5833333333333,11.220486111111105,1450,11.020833333333332" fill="transparent" stroke-linecap="round" stroke="#E7C6DF" stroke-width="2"></path><g class="visx-group visx-axis visx-axis-bottom" transform="translate(0, 115)"><g class="visx-group visx-axis-tick" transform="translate(0, 0)"><line class="visx-line" x1="0" y1="0" x2="0" y2="8" fill="transparent" shape-rendering="crispEdges" stroke="#000" stroke-width="0" stroke-linecap="square"></line><svg x="0" y="0" font-size="10" style="overflow:visible"><text transform="" x="0" y="18" fill="#000" font-size="10" text-anchor="middle"><tspan x="0" dy="0em">0%</tspan></text></svg></g><g class="visx-group visx-axis-tick" transform="translate(0, 0)"><line class="visx-line" x1="362.5" y1="0" x2="362.5" y2="8" fill="transparent" shape-rendering="crispEdges" stroke="#000" stroke-width="0" stroke-linecap="square"></line><svg x="0" y="0" font-size="10" style="overflow:visible"><text transform="" x="362.5" y="18" fill="#000" font-size="10" text-anchor="middle"><tspan x="362.5" dy="0em">25%</tspan></text></svg></g><g class="visx-group visx-axis-tick" transform="translate(0, 0)"><line class="visx-line" x1="725" y1="0" x2="725" y2="8" fill="transparent" shape-rendering="crispEdges" stroke="#000" stroke-width="0" stroke-linecap="square"></line><svg x="0" y="0" font-size="10" style="overflow:visible"><text transform="" x="725" y="18" fill="#000" font-size="10" text-anchor="middle"><tspan x="725" dy="0em">50%</tspan></text></svg></g><g class="visx-group visx-axis-tick" transform="translate(0, 0)"><line class="visx-line" x1="1087.5" y1="0" x2="1087.5" y2="8" fill="transparent" shape-rendering="crispEdges" stroke="#000" stroke-width="0" stroke-linecap="square"></line><svg x="0" y="0" font-size="10" style="overflow:visible"><text transform="" x="1087.5" y="18" fill="#000" font-size="10" text-anchor="middle"><tspan x="1087.5" dy="0em">75%</tspan></text></svg></g><g class="visx-group visx-axis-tick" transform="translate(0, 0)"><line class="visx-line" x1="1450" y1="0" x2="1450" y2="8" fill="transparent" shape-rendering="crispEdges" stroke="#000" stroke-width="0" stroke-linecap="square"></line><svg x="0" y="0" font-size="10" style="overflow:visible"><text transform="" x="1450" y="18" fill="#000" font-size="10" text-anchor="middle"><tspan x="1450" dy="0em">100%</tspan></text></svg></g><line class="visx-line visx-axis-line" x1="0.5" y1="0" x2="1450.5" y2="0" fill="transparent" shape-rendering="crispEdges" stroke="#222" stroke-width="0"></line></g><g class="visx-group visx-axis visx-axis-left" transform="translate(0, 0)"><g class="visx-group visx-axis-tick" transform="translate(0, 0)"><line class="visx-line" x1="0" y1="115" x2="-8" y2="115" fill="transparent" shape-rendering="crispEdges" stroke="#222" stroke-width="0" stroke-linecap="square"></line><svg x="-30" y="0" font-size="8" style="overflow:visible"><text transform="" x="-8" y="115" fill="#000" font-size="8" text-anchor="start"><tspan x="-8" dy="0em">0%</tspan></text></svg></g><g class="visx-group visx-axis-tick" transform="translate(0, 0)"><line class="visx-line" x1="0" y1="67.08333333333333" x2="-8" y2="67.08333333333333" fill="transparent" shape-rendering="crispEdges" stroke="#222" stroke-width="0" stroke-linecap="square"></line><svg x="-30" y="0" font-size="8" style="overflow:visible"><text transform="" x="-8" y="67.08333333333333" fill="#000" font-size="8" text-anchor="start"><tspan x="-8" dy="0em">100%</tspan></text></svg></g><g class="visx-group visx-axis-tick" transform="translate(0, 0)"><line class="visx-line" x1="0" y1="19.16666666666666" x2="-8" y2="19.16666666666666" fill="transparent" shape-rendering="crispEdges" stroke="#222" stroke-width="0" stroke-linecap="square"></line><svg x="-30" y="0" font-size="8" style="overflow:visible"><text transform="" x="-8" y="19.16666666666666" fill="#000" font-size="8" text-anchor="start"><tspan x="-8" dy="0em">200%</tspan></text></svg></g><line class="visx-line visx-axis-line" x1="0" y1="115.5" x2="0" y2="0.5" fill="transparent" shape-rendering="crispEdges" stroke="#222" stroke-width="0"></line></g><rect class="visx-bar" width="1450" height="115" fill="transparent"></rect><line class="visx-line" x1="290" y1="28" x2="290" y2="115" fill="transparent" shape-rendering="crispEdges" stroke="#0062D2" stroke-width="1" pointer-events="none" stroke-dasharray="5,2"></line><svg x="0" y="0" font-size="10px" style="overflow:visible"><text transform="" x="290" y="20" font-size="10px" fill="#fff" stroke="#fff" stroke-width="0.8em" text-anchor="middle"><tspan x="290" dy="0.355em">Optimal 20%</tspan></text></svg><svg x="0" y="0" font-size="10px" style="overflow:visible"><text transform="" x="290" y="20" font-size="10px" fill="#62677B" text-anchor="middle"><tspan x="290" dy="0.355em">Optimal 20%</tspan></text></svg></g></svg>