<?xml version="1.0"?><svg xmlns="http://www.w3.org/2000/svg" xmlns:xlink= "http://www.w3.org/1999/xlink" style="background: white;" width="1500" height="185"> <g style="color: black; font-size: 13px; font-family: sans-serif; transform: translate(18px, 25px);"><g><circle r="3" cx="-6" cy="-5" style="fill: #B6509E" /><text>Borrow APR, variable</text></g><g style="transform: translateX(150px);"><circle r="3" cx="-6" cy="-5" style="fill: rgb(231, 198, 223)" /><text>Borrow APR, stable</text></g><g style="transform: translateX(290px);"><circle r="3" cx="-6" cy="-5" style="fill: rgb(0, 98, 210)" /><text>Utilization Rate</text></g></g><g class="visx-group" transform="translate(40, 50)"><g class="visx-group visx-rows" transform="translate(0, 0)"><line class="visx-line" x1="0" y1="115" x2="1450" y2="115" fill="transparent" shape-rendering="crispEdges" stroke="#000" stroke-width="1" stroke-dasharray="3,3" pointer-events="none"></line><line class="visx-line" x1="0" y1="69" x2="1450" y2="69" fill="transparent" shape-rendering="crispEdges" stroke="#000" stroke-width="1" stroke-dasharray="3,3" pointer-events="none"></line><line class="visx-line" x1="0" y1="22.999999999999996" x2="1450" y2="22.999999999999996" fill="transparent" shape-rendering="crispEdges" stroke="#000" stroke-width="1" stroke-dasharray="3,3" pointer-events="none"></line></g><path class="visx-linepath" d="M0,114.99999999993C2.4166666666666665,114.9883333332925,4.833333333333334,114.976666666655,7.25,114.965C9.666666666666666,114.953333333345,12.083333333333334,114.94166666666666,14.5,114.92999999999999C16.916666666666668,114.91833333333332,19.333333333333332,114.90666666666668,21.75,114.89500000000001C24.166666666666668,114.88333333333334,26.583333333333332,114.87166666666667,29,114.86C31.416666666666668,114.84833333333333,33.833333333333336,114.83666666666667,36.25,114.825C38.666666666666664,114.81333333333333,41.083333333333336,114.80166666666666,43.5,114.78999999999999C45.91666666666667,114.77833333333332,48.333333333333336,114.76666666666668,50.75000000000001,114.75500000000001C53.16666666666667,114.74333333333334,55.583333333333336,114.73166666666667,58,114.72C60.416666666666664,114.70833333333333,62.833333333333336,114.69666666666667,65.25,114.685C67.66666666666667,114.67333333333333,70.08333333333333,114.66166666666666,72.5,114.64999999999999C74.91666666666667,114.63833333333332,77.33333333333333,114.62666666666668,79.75,114.61500000000001C82.16666666666667,114.60333333333334,84.58333333333333,114.59166666666667,87,114.58C89.41666666666667,114.56833333333333,91.83333333333333,114.55666666666667,94.25,114.545C96.66666666666667,114.53333333333333,99.08333333333334,114.52166666666666,101.50000000000001,114.50999999999999C103.91666666666667,114.49833333333332,106.33333333333334,114.48666666666668,108.75,114.47500000000001C111.16666666666667,114.46333333333334,113.58333333333333,114.45166666666667,116,114.44C118.41666666666667,114.42833333333333,120.83333333333334,114.41666666666667,123.25000000000001,114.405C125.66666666666667,114.39333333333333,128.08333333333334,114.38166666666666,130.5,114.36999999999999C132.91666666666666,114.35833333333332,135.33333333333334,114.34666666666666,137.75,114.335C140.16666666666666,114.32333333333332,142.58333333333334,114.31166666666667,145,114.3C147.41666666666666,114.28833333333333,149.83333333333334,114.27666666666667,152.25,114.265C154.66666666666666,114.25333333333333,157.08333333333334,114.24166666666667,159.5,114.23C161.91666666666666,114.21833333333333,164.33333333333334,114.20666666666666,166.75,114.195C169.16666666666666,114.18333333333332,171.58333333333334,114.17166666666668,174,114.16000000000001C176.41666666666666,114.14833333333334,178.83333333333334,114.13666666666667,181.25,114.125C183.66666666666666,114.11333333333333,186.08333333333334,114.10166666666667,188.5,114.09C190.91666666666666,114.07833333333333,193.33333333333334,114.06666666666666,195.75,114.05499999999999C198.16666666666669,114.04333333333332,200.58333333333334,114.03166666666668,203.00000000000003,114.02000000000001C205.41666666666669,114.00833333333334,207.83333333333331,113.99666666666667,210.24999999999997,113.985C212.66666666666666,113.97333333333333,215.08333333333331,113.96166666666667,217.5,113.95C219.91666666666666,113.93833333333333,222.33333333333334,113.92666666666666,224.75,113.91499999999999C227.16666666666666,113.90333333333332,229.58333333333334,113.89166666666668,232,113.88000000000001C234.41666666666666,113.86833333333334,236.83333333333334,113.85666666666667,239.25,113.845C241.66666666666669,113.83333333333333,244.08333333333334,113.82166666666667,246.50000000000003,113.81C248.91666666666669,113.79833333333333,251.33333333333331,113.78666666666666,253.74999999999997,113.77499999999999C256.16666666666663,113.76333333333332,258.5833333333333,113.75166666666667,261,113.74C263.4166666666667,113.72833333333332,265.8333333333333,113.71666666666667,268.25,113.705C270.6666666666667,113.69333333333333,273.0833333333333,113.68166666666667,275.5,113.67C277.9166666666667,113.65833333333333,280.3333333333333,113.64666666666666,282.75,113.63499999999999C285.1666666666667,113.62333333333332,287.5833333333333,113.61166666666666,290,113.6C292.4166666666667,113.58833333333332,294.8333333333333,113.57666666666667,297.25,113.565C299.6666666666667,113.55333333333333,302.0833333333333,113.54166666666667,304.5,113.53C306.9166666666667,113.51833333333333,309.3333333333333,113.50666666666667,311.75,113.495C314.1666666666667,113.48333333333333,316.5833333333333,113.47166666666666,319,113.46C321.4166666666667,113.44833333333332,323.8333333333333,113.43666666666668,326.25,113.42500000000001C328.6666666666667,113.41333333333334,331.0833333333333,113.41333333333334,333.5,113.39C335.9166666666667,113.36666666666666,338.3333333333333,112.97878787878788,340.75,112.77318181818183C343.1666666666667,112.56757575757577,345.5833333333333,112.3619696969697,348,112.15636363636364C350.4166666666667,111.95075757575758,352.8333333333333,111.74515151515152,355.25,111.53954545454546C357.6666666666667,111.3339393939394,360.0833333333333,111.12833333333333,362.5,110.92272727272727C364.9166666666667,110.71712121212121,367.3333333333333,110.51151515151514,369.75,110.30590909090908C372.1666666666667,110.10030303030302,374.5833333333333,109.89469696969697,377,109.68909090909091C379.4166666666667,109.48348484848485,381.8333333333333,109.27787878787878,384.25,109.07227272727272C386.6666666666667,108.86666666666666,389.0833333333333,108.6610606060606,391.5,108.45545454545454C393.9166666666667,108.24984848484848,396.33333333333337,108.04424242424243,398.75000000000006,107.83863636363637C401.16666666666674,107.63303030303031,403.58333333333337,107.42742424242424,406.00000000000006,107.22181818181818C408.4166666666667,107.01621212121212,410.8333333333333,106.81060606060606,413.24999999999994,106.605C415.66666666666663,106.39939393939395,418.08333333333326,106.19378787878787,420.49999999999994,105.98818181818181C422.91666666666663,105.78257575757576,425.3333333333333,105.57696969696968,427.75,105.37136363636363C430.1666666666667,105.16575757575757,432.5833333333333,104.96015151515151,435,104.75454545454545C437.4166666666667,104.54893939393939,439.8333333333333,104.34333333333333,442.25,104.13772727272728C444.6666666666667,103.93212121212122,447.0833333333333,103.72651515151514,449.5,103.52090909090909C451.9166666666667,103.31530303030303,454.3333333333333,103.10969696969697,456.75,102.90409090909091C459.1666666666667,102.69848484848485,461.5833333333333,102.4928787878788,464,102.28727272727274C466.4166666666667,102.08166666666668,468.8333333333333,101.87606060606059,471.25,101.67045454545453C473.6666666666667,101.46484848484847,476.0833333333333,101.25924242424242,478.5,101.05363636363636C480.9166666666667,100.8480303030303,483.33333333333337,100.64242424242424,485.75000000000006,100.43681818181818C488.16666666666674,100.23121212121212,490.58333333333337,100.02560606060605,493.00000000000006,99.82C495.4166666666667,99.61439393939393,497.8333333333333,99.40878787878788,500.24999999999994,99.20318181818182C502.66666666666663,98.99757575757576,505.08333333333326,98.7919696969697,507.49999999999994,98.58636363636364C509.91666666666663,98.38075757575758,512.3333333333333,98.17515151515151,514.75,97.96954545454545C517.1666666666666,97.7639393939394,519.5833333333334,97.55833333333334,522,97.35272727272728C524.4166666666666,97.14712121212122,526.8333333333334,96.94151515151516,529.25,96.7359090909091C531.6666666666666,96.53030303030305,534.0833333333334,96.32469696969696,536.5,96.1190909090909C538.9166666666666,95.91348484848484,541.3333333333334,95.70787878787878,543.75,95.50227272727273C546.1666666666666,95.29666666666667,548.5833333333334,95.09106060606061,551,94.88545454545455C553.4166666666666,94.67984848484849,555.8333333333334,94.47424242424242,558.25,94.26863636363636C560.6666666666666,94.0630303030303,563.0833333333334,93.85742424242424,565.5,93.65181818181819C567.9166666666666,93.44621212121213,570.3333333333334,93.24060606060605,572.75,93.035C575.1666666666666,92.82939393939394,577.5833333333334,92.62378787878787,580,92.41818181818181C582.4166666666666,92.21257575757575,584.8333333333334,92.00696969696969,587.25,91.80136363636363C589.6666666666666,91.59575757575757,592.0833333333334,91.39015151515152,594.5,91.18454545454546C596.9166666666666,90.9789393939394,599.3333333333334,90.77333333333333,601.75,90.56772727272727C604.1666666666666,90.36212121212121,606.5833333333334,90.15651515151515,609,89.9509090909091C611.4166666666666,89.74530303030303,613.8333333333334,89.53969696969698,616.25,89.33409090909092C618.6666666666666,89.12848484848486,621.0833333333334,88.92287878787877,623.5,88.71727272727271C625.9166666666666,88.51166666666666,628.3333333333334,88.30606060606061,630.75,88.10045454545455C633.1666666666666,87.8948484848485,635.5833333333334,87.68924242424242,638,87.48363636363636C640.4166666666666,87.2780303030303,642.8333333333334,87.07242424242423,645.25,86.86681818181818C647.6666666666666,86.66121212121212,650.0833333333334,86.45560606060606,652.5,86.25C654.9166666666666,86.04439393939394,657.3333333333334,85.83878787878788,659.75,85.63318181818182C662.1666666666666,85.42757575757577,664.5833333333334,85.2219696969697,667,85.01636363636364C669.4166666666666,84.81075757575758,671.8333333333334,84.6051515151515,674.25,84.39954545454545C676.6666666666666,84.19393939393939,679.0833333333334,83.98833333333334,681.5,83.78272727272729C683.9166666666666,83.57712121212123,686.3333333333334,83.37151515151514,688.75,83.16590909090908C691.1666666666666,82.96030303030302,693.5833333333334,82.75469696969697,696,82.5490909090909C698.4166666666666,82.34348484848485,700.8333333333334,82.13787878787879,703.25,81.93227272727273C705.6666666666666,81.72666666666667,708.0833333333334,81.52106060606059,710.5,81.31545454545453C712.9166666666666,81.10984848484847,715.3333333333334,80.90424242424243,717.75,80.69863636363637C720.1666666666666,80.49303030303031,722.5833333333334,80.28742424242424,725,80.08181818181818C727.4166666666666,79.87621212121212,729.8333333333334,79.67060606060606,732.25,79.465C734.6666666666666,79.25939393939395,737.0833333333334,79.05378787878787,739.5,78.84818181818181C741.9166666666666,78.64257575757576,744.3333333333334,78.4369696969697,746.75,78.23136363636364C749.1666666666666,78.02575757575758,751.5833333333334,77.82015151515151,754,77.61454545454545C756.4166666666666,77.40893939393939,758.8333333333334,77.20333333333332,761.25,76.99772727272726C763.6666666666666,76.7921212121212,766.0833333333334,76.58651515151516,768.5,76.3809090909091C770.9166666666666,76.17530303030304,773.3333333333334,75.96969696969695,775.75,75.7640909090909C778.1666666666666,75.55848484848484,780.5833333333334,75.3528787878788,783,75.14727272727274C785.4166666666667,74.94166666666668,787.8333333333334,74.7360606060606,790.2500000000001,74.53045454545455C792.6666666666667,74.32484848484849,795.0833333333335,74.11924242424243,797.5000000000001,73.91363636363637C799.9166666666667,73.70803030303031,802.3333333333335,73.50242424242424,804.7500000000001,73.29681818181818C807.1666666666667,73.09121212121212,809.5833333333335,72.88560606060607,812.0000000000001,72.68C814.4166666666667,72.47439393939395,816.8333333333333,72.26878787878788,819.2499999999999,72.06318181818182C821.6666666666665,71.85757575757576,824.0833333333333,71.6519696969697,826.4999999999999,71.44636363636364C828.9166666666665,71.24075757575758,831.3333333333333,71.03515151515153,833.7499999999999,70.82954545454547C836.1666666666665,70.62393939393941,838.5833333333333,70.41833333333332,840.9999999999999,70.21272727272726C843.4166666666666,70.0071212121212,845.8333333333333,69.80151515151516,848.25,69.5959090909091C850.6666666666666,69.39030303030304,853.0833333333334,69.18469696969697,855.5,68.97909090909091C857.9166666666666,68.77348484848486,860.3333333333334,68.56787878787878,862.75,68.36227272727272C865.1666666666666,68.15666666666667,867.5833333333334,67.95106060606061,870,67.74545454545455C872.4166666666666,67.53984848484849,874.8333333333334,67.33424242424242,877.25,67.12863636363636C879.6666666666666,66.9230303030303,882.0833333333334,66.71742424242423,884.5,66.51181818181817C886.9166666666666,66.30621212121211,889.3333333333334,66.10060606060607,891.75,65.89500000000001C894.1666666666666,65.68939393939395,896.5833333333334,65.48378787878788,899,65.27818181818182C901.4166666666666,65.07257575757576,903.8333333333334,64.86696969696969,906.25,64.66136363636363C908.6666666666666,64.45575757575757,911.0833333333334,64.25015151515152,913.5,64.04454545454546C915.9166666666666,63.8389393939394,918.3333333333334,63.63333333333333,920.75,63.427727272727275C923.1666666666666,63.222121212121216,925.5833333333334,63.01651515151515,928,62.81090909090909C930.4166666666666,62.605303030303034,932.8333333333334,62.399696969696976,935.25,62.19409090909092C937.6666666666666,61.98848484848486,940.0833333333334,61.782878787878786,942.5,61.57727272727272C944.9166666666666,61.371666666666655,947.3333333333334,61.1660606060606,949.75,60.96045454545454C952.1666666666666,60.75484848484848,954.5833333333334,60.54924242424242,957,60.343636363636364C959.4166666666666,60.138030303030305,961.8333333333334,59.932424242424226,964.25,59.72681818181817C966.6666666666667,59.5212121212121,969.0833333333334,59.31560606060606,971.5000000000001,59.11C973.9166666666667,58.90439393939394,976.3333333333335,58.69878787878787,978.7500000000001,58.49318181818181C981.1666666666667,58.28757575757575,983.5833333333335,58.0819696969697,986.0000000000001,57.87636363636364C988.4166666666667,57.670757575757584,990.8333333333335,57.465151515151526,993.2500000000001,57.25954545454546C995.6666666666667,57.0539393939394,998.0833333333333,56.84833333333333,1000.4999999999999,56.64272727272727C1002.9166666666665,56.437121212121205,1005.3333333333333,56.23151515151516,1007.7499999999999,56.0259090909091C1010.1666666666665,55.820303030303045,1012.5833333333333,55.61469696969698,1014.9999999999999,55.40909090909092C1017.4166666666665,55.20348484848486,1019.8333333333333,54.99787878787879,1022.2499999999999,54.79227272727273C1024.6666666666665,54.586666666666666,1027.0833333333333,54.381060606060615,1029.5,54.17545454545455C1031.9166666666667,53.96984848484849,1034.3333333333333,53.764242424242425,1036.75,53.55863636363637C1039.1666666666667,53.35303030303031,1041.5833333333333,53.14742424242424,1044,52.941818181818185C1046.4166666666667,52.73621212121213,1048.8333333333333,52.530606060606054,1051.25,52.324999999999996C1053.6666666666667,52.11939393939394,1056.0833333333333,51.91378787878787,1058.5,51.708181818181814C1060.9166666666667,51.502575757575755,1063.3333333333333,51.2969696969697,1065.75,51.09136363636364C1068.1666666666667,50.88575757575758,1070.5833333333333,50.680151515151515,1073,50.474545454545456C1075.4166666666667,50.2689393939394,1077.8333333333333,50.06333333333333,1080.25,49.857727272727274C1082.6666666666667,49.652121212121216,1085.0833333333333,49.44651515151515,1087.5,49.24090909090909C1089.9166666666667,49.035303030303034,1092.3333333333333,48.829696969696975,1094.75,48.62409090909092C1097.1666666666667,48.41848484848486,1099.5833333333333,48.21287878787879,1102,48.007272727272735C1104.4166666666667,47.80166666666668,1106.8333333333333,47.59606060606061,1109.25,47.39045454545455C1111.6666666666667,47.184848484848494,1114.0833333333333,46.97924242424242,1116.5,46.77363636363636C1118.9166666666667,46.568030303030305,1121.3333333333333,46.36242424242424,1123.75,46.15681818181818C1126.1666666666667,45.95121212121212,1128.5833333333333,45.74560606060606,1131,45.54C1133.4166666666667,45.33439393939394,1135.8333333333333,45.12878787878788,1138.25,44.923181818181824C1140.6666666666667,44.717575757575766,1143.0833333333333,44.511969696969686,1145.5,44.30636363636363C1147.9166666666667,44.10075757575757,1150.3333333333333,43.89515151515151,1152.75,43.68954545454545C1155.1666666666667,43.483939393939394,1157.5833333333333,43.27833333333333,1160,43.07272727272727C1162.4166666666667,42.86712121212121,1164.8333333333333,42.66151515151515,1167.25,42.45590909090909C1169.6666666666667,42.25030303030303,1172.0833333333333,42.04469696969696,1174.5,41.8390909090909C1176.9166666666667,41.63348484848484,1179.3333333333333,41.42787878787879,1181.75,41.22227272727273C1184.1666666666667,41.01666666666667,1186.5833333333333,40.81106060606061,1189,40.60545454545455C1191.4166666666667,40.39984848484849,1193.8333333333333,40.194242424242425,1196.25,39.98863636363637C1198.6666666666667,39.78303030303031,1201.0833333333333,39.57742424242425,1203.5,39.37181818181819C1205.9166666666667,39.16621212121213,1208.3333333333333,38.96060606060606,1210.75,38.754999999999995C1213.1666666666667,38.54939393939393,1215.5833333333333,38.34378787878787,1218,38.13818181818181C1220.4166666666667,37.932575757575755,1222.8333333333333,37.7269696969697,1225.25,37.52136363636364C1227.6666666666667,37.31575757575758,1230.0833333333333,37.11015151515152,1232.5,36.904545454545456C1234.9166666666667,36.69893939393939,1237.3333333333333,36.49333333333332,1239.75,36.28772727272726C1242.1666666666667,36.0821212121212,1244.5833333333333,35.87651515151514,1247,35.670909090909085C1249.4166666666667,35.465303030303026,1251.8333333333333,35.25969696969696,1254.25,35.0540909090909C1256.6666666666667,34.848484848484844,1259.0833333333333,34.64287878787878,1261.5,34.43727272727272C1263.9166666666667,34.23166666666666,1266.3333333333333,34.02606060606059,1268.75,33.82045454545453C1271.1666666666667,33.61484848484847,1273.5833333333333,33.40924242424242,1276,33.20363636363636C1278.4166666666667,32.998030303030305,1280.8333333333333,32.79242424242424,1283.25,32.58681818181818C1285.6666666666667,32.38121212121212,1288.0833333333333,32.175606060606064,1290.5,31.970000000000002C1292.9166666666667,31.764393939393944,1295.3333333333333,31.558787878787886,1297.75,31.353181818181824C1300.1666666666667,31.147575757575762,1302.5833333333333,30.941969696969693,1305,30.73636363636363C1307.4166666666667,30.53075757575757,1309.8333333333333,30.325151515151507,1312.25,30.11954545454545C1314.6666666666667,29.91393939393939,1317.0833333333333,29.70833333333333,1319.5,29.50272727272727C1321.9166666666667,29.297121212121212,1324.3333333333333,29.09151515151515,1326.75,28.885909090909088C1329.1666666666667,28.680303030303026,1331.5833333333333,28.47469696969696,1334,28.2690909090909C1336.4166666666667,28.063484848484837,1338.8333333333333,27.857878787878775,1341.25,27.652272727272717C1343.6666666666667,27.44666666666666,1346.0833333333333,27.241060606060596,1348.5,27.035454545454538C1350.9166666666667,26.82984848484848,1353.3333333333333,26.62424242424243,1355.75,26.41863636363637C1358.1666666666667,26.213030303030312,1360.5833333333333,26.00742424242424,1363,25.801818181818177C1365.4166666666667,25.596212121212115,1367.8333333333333,25.390606060606054,1370.25,25.184999999999995C1372.6666666666667,24.979393939393937,1375.0833333333333,24.773787878787875,1377.5,24.568181818181817C1379.9166666666667,24.362575757575758,1382.3333333333333,24.156969696969696,1384.75,23.951363636363638C1387.1666666666667,23.74575757575758,1389.5833333333333,23.540151515151518,1392,23.334545454545456C1394.4166666666667,23.128939393939394,1396.8333333333333,22.92333333333332,1399.25,22.717727272727263C1401.6666666666667,22.512121212121205,1404.0833333333333,22.306515151515153,1406.5,22.100909090909095C1408.9166666666667,21.895303030303037,1411.3333333333333,21.689696969696975,1413.75,21.484090909090916C1416.1666666666667,21.278484848484858,1418.5833333333333,21.0728787878788,1421,20.867272727272738C1423.4166666666667,20.661666666666676,1425.8333333333333,20.456060606060607,1428.25,20.250454545454545C1430.6666666666667,20.044848484848483,1433.0833333333333,19.83924242424242,1435.5,19.633636363636363C1437.9166666666667,19.428030303030305,1440.3333333333333,19.222424242424243,1442.75,19.016818181818184C1445.1666666666667,18.811212121212126,1447.5833333333333,18.605606060606064,1450,18.400000000000002" fill="transparent" stroke-linecap="round" stroke="#B6509E" stroke-width="2"></path><path class="visx-linepath" d="M0,112.6999999999C2.4166666666666665,112.683333333275,4.833333333333334,112.66666666664999,7.25,112.64999999999999C9.666666666666666,112.63333333335,12.083333333333334,112.61666666666666,14.5,112.6C16.916666666666668,112.58333333333333,19.333333333333332,112.56666666666666,21.75,112.55C24.166666666666668,112.53333333333333,26.583333333333332,112.51666666666667,29,112.5C31.416666666666668,112.48333333333333,33.833333333333336,112.46666666666667,36.25,112.45C38.666666666666664,112.43333333333334,41.083333333333336,112.41666666666666,43.5,112.39999999999999C45.91666666666667,112.38333333333333,48.333333333333336,112.36666666666666,50.75000000000001,112.35C53.16666666666667,112.33333333333333,55.583333333333336,112.31666666666668,58,112.30000000000001C60.416666666666664,112.28333333333335,62.833333333333336,112.26666666666667,65.25,112.25C67.66666666666667,112.23333333333333,70.08333333333333,112.21666666666667,72.5,112.2C74.91666666666667,112.18333333333334,77.33333333333333,112.16666666666667,79.75,112.15C82.16666666666667,112.13333333333334,84.58333333333333,112.11666666666666,87,112.1C89.41666666666667,112.08333333333333,91.83333333333333,112.06666666666666,94.25,112.05C96.66666666666667,112.03333333333333,99.08333333333334,112.01666666666667,101.50000000000001,112C103.91666666666667,111.98333333333333,106.33333333333334,111.96666666666667,108.75,111.95C111.16666666666667,111.93333333333334,113.58333333333333,111.91666666666667,116,111.9C118.41666666666667,111.88333333333334,120.83333333333334,111.86666666666666,123.25000000000001,111.85C125.66666666666667,111.83333333333333,128.08333333333334,111.81666666666666,130.5,111.8C132.91666666666666,111.78333333333333,135.33333333333334,111.76666666666667,137.75,111.75C140.16666666666666,111.73333333333333,142.58333333333334,111.71666666666667,145,111.7C147.41666666666666,111.68333333333334,149.83333333333334,111.66666666666667,152.25,111.65C154.66666666666666,111.63333333333334,157.08333333333334,111.61666666666666,159.5,111.6C161.91666666666666,111.58333333333333,164.33333333333334,111.56666666666666,166.75,111.55C169.16666666666666,111.53333333333333,171.58333333333334,111.51666666666667,174,111.5C176.41666666666666,111.48333333333333,178.83333333333334,111.46666666666667,181.25,111.45C183.66666666666666,111.43333333333334,186.08333333333334,111.41666666666667,188.5,111.4C190.91666666666666,111.38333333333334,193.33333333333334,111.36666666666666,195.75,111.35C198.16666666666669,111.33333333333333,200.58333333333334,111.31666666666666,203.00000000000003,111.3C205.41666666666669,111.28333333333333,207.83333333333331,111.26666666666667,210.24999999999997,111.25C212.66666666666666,111.23333333333333,215.08333333333331,111.21666666666667,217.5,111.2C219.91666666666666,111.18333333333334,222.33333333333334,111.16666666666667,224.75,111.15C227.16666666666666,111.13333333333334,229.58333333333334,111.11666666666667,232,111.10000000000001C234.41666666666666,111.08333333333334,236.83333333333334,111.06666666666666,239.25,111.05C241.66666666666669,111.03333333333333,244.08333333333334,111.01666666666667,246.50000000000003,111C248.91666666666669,110.98333333333333,251.33333333333331,110.96666666666665,253.74999999999997,110.94999999999999C256.16666666666663,110.93333333333332,258.5833333333333,110.91666666666667,261,110.9C263.4166666666667,110.88333333333334,265.8333333333333,110.86666666666667,268.25,110.85000000000001C270.6666666666667,110.83333333333334,273.0833333333333,110.81666666666666,275.5,110.8C277.9166666666667,110.78333333333333,280.3333333333333,110.76666666666667,282.75,110.75C285.1666666666667,110.73333333333333,287.5833333333333,110.71666666666667,290,110.7C292.4166666666667,110.68333333333334,294.8333333333333,110.66666666666667,297.25,110.65C299.6666666666667,110.63333333333334,302.0833333333333,110.61666666666667,304.5,110.60000000000001C306.9166666666667,110.58333333333334,309.3333333333333,110.56666666666666,311.75,110.55C314.1666666666667,110.53333333333333,316.5833333333333,110.51666666666667,319,110.5C321.4166666666667,110.48333333333333,323.8333333333333,110.46666666666667,326.25,110.45C328.6666666666667,110.43333333333334,331.0833333333333,110.43333333333334,333.5,110.39999999999999C335.9166666666667,110.36666666666665,338.3333333333333,109.98878787878787,340.75,109.78318181818182C343.1666666666667,109.57757575757576,345.5833333333333,109.3719696969697,348,109.16636363636364C350.4166666666667,108.96075757575758,352.8333333333333,108.75515151515151,355.25,108.54954545454545C357.6666666666667,108.3439393939394,360.0833333333333,108.13833333333334,362.5,107.93272727272728C364.9166666666667,107.72712121212122,367.3333333333333,107.52151515151515,369.75,107.31590909090909C372.1666666666667,107.11030303030303,374.5833333333333,106.90469696969697,377,106.69909090909091C379.4166666666667,106.49348484848485,381.8333333333333,106.28787878787878,384.25,106.08227272727272C386.6666666666667,105.87666666666667,389.0833333333333,105.6710606060606,391.5,105.46545454545455C393.9166666666667,105.25984848484849,396.33333333333337,105.05424242424242,398.75000000000006,104.84863636363636C401.16666666666674,104.6430303030303,403.58333333333337,104.43742424242424,406.00000000000006,104.23181818181818C408.4166666666667,104.02621212121213,410.8333333333333,103.82060606060607,413.24999999999994,103.61500000000001C415.66666666666663,103.40939393939395,418.08333333333326,103.20378787878786,420.49999999999994,102.9981818181818C422.91666666666663,102.79257575757575,425.3333333333333,102.5869696969697,427.75,102.38136363636364C430.1666666666667,102.17575757575759,432.5833333333333,101.97015151515151,435,101.76454545454546C437.4166666666667,101.5589393939394,439.8333333333333,101.35333333333332,442.25,101.14772727272727C444.6666666666667,100.94212121212121,447.0833333333333,100.73651515151515,449.5,100.53090909090909C451.9166666666667,100.32530303030303,454.3333333333333,100.11969696969697,456.75,99.91409090909092C459.1666666666667,99.70848484848486,461.5833333333333,99.50287878787879,464,99.29727272727273C466.4166666666667,99.09166666666667,468.8333333333333,98.88606060606061,471.25,98.68045454545455C473.6666666666667,98.4748484848485,476.0833333333333,98.26924242424242,478.5,98.06363636363636C480.9166666666667,97.8580303030303,483.33333333333337,97.65242424242423,485.75000000000006,97.44681818181817C488.16666666666674,97.24121212121211,490.58333333333337,97.03560606060606,493.00000000000006,96.83C495.4166666666667,96.62439393939394,497.8333333333333,96.41878787878788,500.24999999999994,96.21318181818182C502.66666666666663,96.00757575757576,505.08333333333326,95.80196969696969,507.49999999999994,95.59636363636363C509.91666666666663,95.39075757575758,512.3333333333333,95.18515151515152,514.75,94.97954545454546C517.1666666666666,94.7739393939394,519.5833333333334,94.56833333333333,522,94.36272727272727C524.4166666666666,94.15712121212121,526.8333333333334,93.95151515151515,529.25,93.7459090909091C531.6666666666666,93.54030303030304,534.0833333333334,93.33469696969696,536.5,93.1290909090909C538.9166666666666,92.92348484848485,541.3333333333334,92.71787878787879,543.75,92.51227272727273C546.1666666666666,92.30666666666667,548.5833333333334,92.1010606060606,551,91.89545454545454C553.4166666666666,91.68984848484848,555.8333333333334,91.48424242424242,558.25,91.27863636363637C560.6666666666666,91.07303030303031,563.0833333333334,90.86742424242424,565.5,90.66181818181818C567.9166666666666,90.45621212121212,570.3333333333334,90.25060606060606,572.75,90.045C575.1666666666666,89.83939393939394,577.5833333333334,89.63378787878789,580,89.42818181818183C582.4166666666666,89.22257575757577,584.8333333333334,89.0169696969697,587.25,88.81136363636364C589.6666666666666,88.60575757575758,592.0833333333334,88.4001515151515,594.5,88.19454545454545C596.9166666666666,87.98893939393939,599.3333333333334,87.78333333333333,601.75,87.57772727272727C604.1666666666666,87.37212121212121,606.5833333333334,87.16651515151514,609,86.96090909090908C611.4166666666666,86.75530303030303,613.8333333333334,86.54969696969697,616.25,86.34409090909091C618.6666666666666,86.13848484848485,621.0833333333334,85.93287878787879,623.5,85.72727272727273C625.9166666666666,85.52166666666668,628.3333333333334,85.3160606060606,630.75,85.11045454545454C633.1666666666666,84.90484848484849,635.5833333333334,84.69924242424241,638,84.49363636363636C640.4166666666666,84.2880303030303,642.8333333333334,84.08242424242425,645.25,83.8768181818182C647.6666666666666,83.67121212121214,650.0833333333334,83.46560606060605,652.5,83.25999999999999C654.9166666666666,83.05439393939393,657.3333333333334,82.84878787878787,659.75,82.64318181818182C662.1666666666666,82.43757575757576,664.5833333333334,82.2319696969697,667,82.02636363636364C669.4166666666666,81.82075757575758,671.8333333333334,81.61515151515151,674.25,81.40954545454545C676.6666666666666,81.2039393939394,679.0833333333334,80.99833333333333,681.5,80.79272727272728C683.9166666666666,80.58712121212122,686.3333333333334,80.38151515151515,688.75,80.17590909090909C691.1666666666666,79.97030303030303,693.5833333333334,79.76469696969697,696,79.55909090909091C698.4166666666666,79.35348484848485,700.8333333333334,79.14787878787878,703.25,78.94227272727272C705.6666666666666,78.73666666666666,708.0833333333334,78.53106060606062,710.5,78.32545454545456C712.9166666666666,78.1198484848485,715.3333333333334,77.91424242424242,717.75,77.70863636363636C720.1666666666666,77.5030303030303,722.5833333333334,77.29742424242424,725,77.09181818181818C727.4166666666666,76.88621212121213,729.8333333333334,76.68060606060607,732.25,76.47500000000001C734.6666666666666,76.26939393939395,737.0833333333334,76.06378787878786,739.5,75.8581818181818C741.9166666666666,75.65257575757575,744.3333333333334,75.4469696969697,746.75,75.24136363636364C749.1666666666666,75.03575757575759,751.5833333333334,74.83015151515151,754,74.62454545454545C756.4166666666666,74.4189393939394,758.8333333333334,74.21333333333334,761.25,74.00772727272728C763.6666666666666,73.80212121212122,766.0833333333334,73.59651515151515,768.5,73.39090909090909C770.9166666666666,73.18530303030303,773.3333333333334,72.97969696969697,775.75,72.77409090909092C778.1666666666666,72.56848484848486,780.5833333333334,72.36287878787878,783,72.15727272727273C785.4166666666667,71.95166666666667,787.8333333333334,71.7460606060606,790.2500000000001,71.54045454545454C792.6666666666667,71.33484848484848,795.0833333333335,71.12924242424243,797.5000000000001,70.92363636363638C799.9166666666667,70.71803030303032,802.3333333333335,70.51242424242423,804.7500000000001,70.30681818181817C807.1666666666667,70.10121212121211,809.5833333333335,69.89560606060606,812.0000000000001,69.69C814.4166666666667,69.48439393939394,816.8333333333333,69.27878787878788,819.2499999999999,69.07318181818182C821.6666666666665,68.86757575757576,824.0833333333333,68.66196969696969,826.4999999999999,68.45636363636363C828.9166666666665,68.25075757575758,831.3333333333333,68.04515151515152,833.7499999999999,67.83954545454546C836.1666666666665,67.6339393939394,838.5833333333333,67.42833333333333,840.9999999999999,67.22272727272727C843.4166666666666,67.01712121212121,845.8333333333333,66.81151515151515,848.25,66.6059090909091C850.6666666666666,66.40030303030304,853.0833333333334,66.19469696969696,855.5,65.9890909090909C857.9166666666666,65.78348484848485,860.3333333333334,65.57787878787879,862.75,65.37227272727273C865.1666666666666,65.16666666666667,867.5833333333334,64.9610606060606,870,64.75545454545454C872.4166666666666,64.54984848484848,874.8333333333334,64.34424242424241,877.25,64.13863636363635C879.6666666666666,63.93303030303029,882.0833333333334,63.72742424242424,884.5,63.52181818181818C886.9166666666666,63.316212121212125,889.3333333333334,63.11060606060605,891.75,62.904999999999994C894.1666666666666,62.699393939393936,896.5833333333334,62.493787878787884,899,62.288181818181826C901.4166666666666,62.08257575757577,903.8333333333334,61.87696969696969,906.25,61.67136363636363C908.6666666666666,61.46575757575757,911.0833333333334,61.26015151515152,913.5,61.05454545454546C915.9166666666666,60.8489393939394,918.3333333333334,60.64333333333333,920.75,60.43772727272727C923.1666666666666,60.232121212121214,925.5833333333334,60.02651515151515,928,59.82090909090909C930.4166666666666,59.61530303030303,932.8333333333334,59.40969696969697,935.25,59.20409090909091C937.6666666666666,58.99848484848485,940.0833333333334,58.79287878787879,942.5,58.58727272727273C944.9166666666666,58.381666666666675,947.3333333333334,58.17606060606061,949.75,57.97045454545455C952.1666666666666,57.76484848484849,954.5833333333334,57.55924242424243,957,57.35363636363637C959.4166666666666,57.14803030303031,961.8333333333334,56.94242424242424,964.25,56.73681818181818C966.6666666666667,56.531212121212114,969.0833333333334,56.32560606060606,971.5000000000001,56.12C973.9166666666667,55.91439393939394,976.3333333333335,55.708787878787874,978.7500000000001,55.503181818181815C981.1666666666667,55.29757575757576,983.5833333333335,55.0919696969697,986.0000000000001,54.88636363636364C988.4166666666667,54.68075757575758,990.8333333333335,54.47515151515151,993.2500000000001,54.269545454545444C995.6666666666667,54.063939393939386,998.0833333333333,53.85833333333332,1000.4999999999999,53.65272727272727C1002.9166666666665,53.44712121212121,1005.3333333333333,53.24151515151516,1007.7499999999999,53.0359090909091C1010.1666666666665,52.83030303030304,1012.5833333333333,52.624696969696984,1014.9999999999999,52.41909090909092C1017.4166666666665,52.21348484848485,1019.8333333333333,52.00787878787878,1022.2499999999999,51.80227272727272C1024.6666666666665,51.59666666666666,1027.0833333333333,51.391060606060606,1029.5,51.18545454545455C1031.9166666666667,50.97984848484849,1034.3333333333333,50.77424242424242,1036.75,50.568636363636365C1039.1666666666667,50.36303030303031,1041.5833333333333,50.15742424242424,1044,49.95181818181818C1046.4166666666667,49.746212121212125,1048.8333333333333,49.540606060606066,1051.25,49.33500000000001C1053.6666666666667,49.12939393939395,1056.0833333333333,48.92378787878788,1058.5,48.71818181818181C1060.9166666666667,48.512575757575746,1063.3333333333333,48.30696969696969,1065.75,48.10136363636363C1068.1666666666667,47.89575757575757,1070.5833333333333,47.69015151515151,1073,47.484545454545454C1075.4166666666667,47.278939393939396,1077.8333333333333,47.07333333333333,1080.25,46.86772727272727C1082.6666666666667,46.662121212121214,1085.0833333333333,46.45651515151514,1087.5,46.25090909090908C1089.9166666666667,46.045303030303025,1092.3333333333333,45.83969696969696,1094.75,45.6340909090909C1097.1666666666667,45.42848484848484,1099.5833333333333,45.22287878787878,1102,45.01727272727272C1104.4166666666667,44.81166666666666,1106.8333333333333,44.60606060606061,1109.25,44.40045454545455C1111.6666666666667,44.19484848484849,1114.0833333333333,43.989242424242434,1116.5,43.783636363636376C1118.9166666666667,43.57803030303032,1121.3333333333333,43.372424242424245,1123.75,43.16681818181818C1126.1666666666667,42.961212121212114,1128.5833333333333,42.755606060606056,1131,42.55C1133.4166666666667,42.34439393939394,1135.8333333333333,42.13878787878788,1138.25,41.93318181818182C1140.6666666666667,41.727575757575764,1143.0833333333333,41.521969696969705,1145.5,41.31636363636364C1147.9166666666667,41.110757575757575,1150.3333333333333,40.9051515151515,1152.75,40.699545454545444C1155.1666666666667,40.493939393939385,1157.5833333333333,40.28833333333333,1160,40.08272727272727C1162.4166666666667,39.87712121212121,1164.8333333333333,39.671515151515145,1167.25,39.465909090909086C1169.6666666666667,39.26030303030303,1172.0833333333333,39.05469696969696,1174.5,38.849090909090904C1176.9166666666667,38.643484848484846,1179.3333333333333,38.43787878787877,1181.75,38.232272727272715C1184.1666666666667,38.02666666666666,1186.5833333333333,37.82106060606059,1189,37.61545454545453C1191.4166666666667,37.409848484848474,1193.8333333333333,37.20424242424241,1196.25,36.99863636363635C1198.6666666666667,36.79303030303029,1201.0833333333333,36.58742424242425,1203.5,36.38181818181819C1205.9166666666667,36.17621212121213,1208.3333333333333,35.97060606060607,1210.75,35.76500000000001C1213.1666666666667,35.55939393939394,1215.5833333333333,35.35378787878787,1218,35.14818181818181C1220.4166666666667,34.94257575757575,1222.8333333333333,34.736969696969695,1225.25,34.531363636363636C1227.6666666666667,34.32575757575758,1230.0833333333333,34.12015151515151,1232.5,33.914545454545454C1234.9166666666667,33.708939393939396,1237.3333333333333,33.50333333333333,1239.75,33.29772727272727C1242.1666666666667,33.092121212121214,1244.5833333333333,32.88651515151514,1247,32.68090909090908C1249.4166666666667,32.475303030303024,1251.8333333333333,32.26969696969696,1254.25,32.0640909090909C1256.6666666666667,31.858484848484842,1259.0833333333333,31.65287878787879,1261.5,31.447272727272733C1263.9166666666667,31.241666666666674,1266.3333333333333,31.036060606060616,1268.75,30.830454545454554C1271.1666666666667,30.624848484848492,1273.5833333333333,30.419242424242423,1276,30.21363636363636C1278.4166666666667,30.0080303030303,1280.8333333333333,29.802424242424237,1283.25,29.59681818181818C1285.6666666666667,29.39121212121212,1288.0833333333333,29.18560606060606,1290.5,28.98C1292.9166666666667,28.774393939393942,1295.3333333333333,28.56878787878788,1297.75,28.363181818181822C1300.1666666666667,28.157575757575763,1302.5833333333333,27.951969696969698,1305,27.74636363636364C1307.4166666666667,27.54075757575758,1309.8333333333333,27.33515151515152,1312.25,27.12954545454546C1314.6666666666667,26.923939393939403,1317.0833333333333,26.718333333333337,1319.5,26.51272727272728C1321.9166666666667,26.30712121212122,1324.3333333333333,26.10151515151516,1326.75,25.8959090909091C1329.1666666666667,25.690303030303042,1331.5833333333333,25.48469696969698,1334,25.279090909090918C1336.4166666666667,25.073484848484856,1338.8333333333333,24.86787878787879,1341.25,24.66227272727273C1343.6666666666667,24.456666666666667,1346.0833333333333,24.251060606060605,1348.5,24.045454545454547C1350.9166666666667,23.83984848484849,1353.3333333333333,23.634242424242426,1355.75,23.428636363636368C1358.1666666666667,23.22303030303031,1360.5833333333333,23.017424242424262,1363,22.8118181818182C1365.4166666666667,22.60621212121214,1367.8333333333333,22.400606060606055,1370.25,22.194999999999993C1372.6666666666667,21.98939393939393,1375.0833333333333,21.783787878787884,1377.5,21.578181818181825C1379.9166666666667,21.372575757575767,1382.3333333333333,21.16696969696969,1384.75,20.961363636363632C1387.1666666666667,20.755757575757574,1389.5833333333333,20.550151515151526,1392,20.344545454545468C1394.4166666666667,20.13893939393941,1396.8333333333333,19.933333333333337,1399.25,19.727727272727275C1401.6666666666667,19.522121212121213,1404.0833333333333,19.316515151515155,1406.5,19.110909090909093C1408.9166666666667,18.90530303030303,1411.3333333333333,18.69969696969696,1413.75,18.4940909090909C1416.1666666666667,18.288484848484842,1418.5833333333333,18.08287878787879,1421,17.877272727272732C1423.4166666666667,17.671666666666674,1425.8333333333333,17.4660606060606,1428.25,17.26045454545454C1430.6666666666667,17.054848484848478,1433.0833333333333,16.84924242424242,1435.5,16.64363636363636C1437.9166666666667,16.438030303030303,1440.3333333333333,16.23242424242425,1442.75,16.026818181818193C1445.1666666666667,15.821212121212133,1447.5833333333333,15.615606060606066,1450,15.41" fill="transparent" stroke-linecap="round" stroke="#E7C6DF" stroke-width="2"></path><g class="visx-group visx-axis visx-axis-bottom" transform="translate(0, 115)"><g class="visx-group visx-axis-tick" transform="translate(0, 0)"><line class="visx-line" x1="0" y1="0" x2="0" y2="8" fill="transparent" shape-rendering="crispEdges" stroke="#000" stroke-width="0" stroke-linecap="square"></line><svg x="0" y="0" font-size="10" style="overflow:visible"><text transform="" x="0" y="18" fill="#000" font-size="10" text-anchor="middle"><tspan x="0" dy="0em">0%</tspan></text></svg></g><g class="visx-group visx-axis-tick" transform="translate(0, 0)"><line class="visx-line" x1="362.5" y1="0" x2="362.5" y2="8" fill="transparent" shape-rendering="crispEdges" stroke="#000" stroke-width="0" stroke-linecap="square"></line><svg x="0" y="0" font-size="10" style="overflow:visible"><text transform="" x="362.5" y="18" fill="#000" font-size="10" text-anchor="middle"><tspan x="362.5" dy="0em">25%</tspan></text></svg></g><g class="visx-group visx-axis-tick" transform="translate(0, 0)"><line class="visx-line" x1="725" y1="0" x2="725" y2="8" fill="transparent" shape-rendering="crispEdges" stroke="#000" stroke-width="0" stroke-linecap="square"></line><svg x="0" y="0" font-size="10" style="overflow:visible"><text transform="" x="725" y="18" fill="#000" font-size="10" text-anchor="middle"><tspan x="725" dy="0em">50%</tspan></text></svg></g><g class="visx-group visx-axis-tick" transform="translate(0, 0)"><line class="visx-line" x1="1087.5" y1="0" x2="1087.5" y2="8" fill="transparent" shape-rendering="crispEdges" stroke="#000" stroke-width="0" stroke-linecap="square"></line><svg x="0" y="0" font-size="10" style="overflow:visible"><text transform="" x="1087.5" y="18" fill="#000" font-size="10" text-anchor="middle"><tspan x="1087.5" dy="0em">75%</tspan></text></svg></g><g class="visx-group visx-axis-tick" transform="translate(0, 0)"><line class="visx-line" x1="1450" y1="0" x2="1450" y2="8" fill="transparent" shape-rendering="crispEdges" stroke="#000" stroke-width="0" stroke-linecap="square"></line><svg x="0" y="0" font-size="10" style="overflow:visible"><text transform="" x="1450" y="18" fill="#000" font-size="10" text-anchor="middle"><tspan x="1450" dy="0em">100%</tspan></text></svg></g><line class="visx-line visx-axis-line" x1="0.5" y1="0" x2="1450.5" y2="0" fill="transparent" shape-rendering="crispEdges" stroke="#222" stroke-width="0"></line></g><g class="visx-group visx-axis visx-axis-left" transform="translate(0, 0)"><g class="visx-group visx-axis-tick" transform="translate(0, 0)"><line class="visx-line" x1="0" y1="115" x2="-8" y2="115" fill="transparent" shape-rendering="crispEdges" stroke="#222" stroke-width="0" stroke-linecap="square"></line><svg x="-30" y="0" font-size="8" style="overflow:visible"><text transform="" x="-8" y="115" fill="#000" font-size="8" text-anchor="start"><tspan x="-8" dy="0em">0%</tspan></text></svg></g><g class="visx-group visx-axis-tick" transform="translate(0, 0)"><line class="visx-line" x1="0" y1="69" x2="-8" y2="69" fill="transparent" shape-rendering="crispEdges" stroke="#222" stroke-width="0" stroke-linecap="square"></line><svg x="-30" y="0" font-size="8" style="overflow:visible"><text transform="" x="-8" y="69" fill="#000" font-size="8" text-anchor="start"><tspan x="-8" dy="0em">200%</tspan></text></svg></g><g class="visx-group visx-axis-tick" transform="translate(0, 0)"><line class="visx-line" x1="0" y1="22.999999999999996" x2="-8" y2="22.999999999999996" fill="transparent" shape-rendering="crispEdges" stroke="#222" stroke-width="0" stroke-linecap="square"></line><svg x="-30" y="0" font-size="8" style="overflow:visible"><text transform="" x="-8" y="22.999999999999996" fill="#000" font-size="8" text-anchor="start"><tspan x="-8" dy="0em">400%</tspan></text></svg></g><line class="visx-line visx-axis-line" x1="0" y1="115.5" x2="0" y2="0.5" fill="transparent" shape-rendering="crispEdges" stroke="#222" stroke-width="0"></line></g><rect class="visx-bar" width="1450" height="115" fill="transparent"></rect><line class="visx-line" x1="333.5" y1="28" x2="333.5" y2="115" fill="transparent" shape-rendering="crispEdges" stroke="#0062D2" stroke-width="1" pointer-events="none" stroke-dasharray="5,2"></line><svg x="0" y="0" font-size="10px" style="overflow:visible"><text transform="" x="333.5" y="20" font-size="10px" fill="#fff" stroke="#fff" stroke-width="0.8em" text-anchor="middle"><tspan x="333.5" dy="0.355em">Optimal 23%</tspan></text></svg><svg x="0" y="0" font-size="10px" style="overflow:visible"><text transform="" x="333.5" y="20" font-size="10px" fill="#62677B" text-anchor="middle"><tspan x="333.5" dy="0.355em">Optimal 23%</tspan></text></svg></g></svg>