<?xml version="1.0"?><svg xmlns="http://www.w3.org/2000/svg" xmlns:xlink= "http://www.w3.org/1999/xlink" style="background: white;" width="1500" height="185"> <g style="color: black; font-size: 13px; font-family: sans-serif; transform: translate(18px, 25px);"><g><circle r="3" cx="-6" cy="-5" style="fill: #B6509E" /><text>Borrow APR, variable</text></g><g style="transform: translateX(150px);"><circle r="3" cx="-6" cy="-5" style="fill: rgb(231, 198, 223)" /><text>Borrow APR, stable</text></g><g style="transform: translateX(290px);"><circle r="3" cx="-6" cy="-5" style="fill: rgb(0, 98, 210)" /><text>Utilization Rate</text></g></g><g class="visx-group" transform="translate(40, 50)"><g class="visx-group visx-rows" transform="translate(0, 0)"><line class="visx-line" x1="0" y1="115" x2="1450" y2="115" fill="transparent" shape-rendering="crispEdges" stroke="#000" stroke-width="1" stroke-dasharray="3,3" pointer-events="none"></line><line class="visx-line" x1="0" y1="69" x2="1450" y2="69" fill="transparent" shape-rendering="crispEdges" stroke="#000" stroke-width="1" stroke-dasharray="3,3" pointer-events="none"></line><line class="visx-line" x1="0" y1="22.999999999999996" x2="1450" y2="22.999999999999996" fill="transparent" shape-rendering="crispEdges" stroke="#000" stroke-width="1" stroke-dasharray="3,3" pointer-events="none"></line></g><path class="visx-linepath" d="M0,114.9999999999356C2.4166666666666665,114.9892666666291,4.833333333333334,114.97853333332262,7.25,114.96780000000001C9.666666666666666,114.9570666666774,12.083333333333334,114.94633333333333,14.5,114.9356C16.916666666666668,114.92486666666666,19.333333333333332,114.91413333333334,21.75,114.9034C24.166666666666668,114.89266666666667,26.583333333333332,114.88193333333334,29,114.8712C31.416666666666668,114.86046666666667,33.833333333333336,114.84973333333333,36.25,114.839C38.666666666666664,114.82826666666666,41.083333333333336,114.81753333333333,43.5,114.8068C45.91666666666667,114.79606666666666,48.333333333333336,114.78533333333334,50.75000000000001,114.7746C53.16666666666667,114.76386666666667,55.583333333333336,114.75313333333334,58,114.7424C60.416666666666664,114.73166666666667,62.833333333333336,114.72093333333333,65.25,114.7102C67.66666666666667,114.69946666666667,70.08333333333333,114.68873333333333,72.5,114.678C74.91666666666667,114.66726666666666,77.33333333333333,114.65653333333334,79.75,114.64580000000001C82.16666666666667,114.63506666666667,84.58333333333333,114.62433333333333,87,114.61359999999999C89.41666666666667,114.60286666666666,91.83333333333333,114.59213333333334,94.25,114.5814C96.66666666666667,114.57066666666667,99.08333333333334,114.55993333333333,101.50000000000001,114.5492C103.91666666666667,114.53846666666666,106.33333333333334,114.52773333333333,108.75,114.517C111.16666666666667,114.50626666666666,113.58333333333333,114.49553333333333,116,114.48479999999999C118.41666666666667,114.47406666666666,120.83333333333334,114.46333333333334,123.25000000000001,114.4526C125.66666666666667,114.44186666666667,128.08333333333334,114.43113333333334,130.5,114.4204C132.91666666666666,114.40966666666667,135.33333333333334,114.39893333333333,137.75,114.3882C140.16666666666666,114.37746666666666,142.58333333333334,114.36673333333333,145,114.356C147.41666666666666,114.34526666666666,149.83333333333334,114.33453333333334,152.25,114.3238C154.66666666666666,114.31306666666667,157.08333333333334,114.30233333333332,159.5,114.29159999999999C161.91666666666666,114.28086666666665,164.33333333333334,114.27013333333333,166.75,114.2594C169.16666666666666,114.24866666666667,171.58333333333334,114.23793333333334,174,114.22720000000001C176.41666666666666,114.21646666666668,178.83333333333334,114.20573333333333,181.25,114.195C183.66666666666666,114.18426666666666,186.08333333333334,114.17353333333334,188.5,114.1628C190.91666666666666,114.15206666666667,193.33333333333334,114.14133333333334,195.75,114.1306C198.16666666666669,114.11986666666667,200.58333333333334,114.10913333333333,203.00000000000003,114.0984C205.41666666666669,114.08766666666666,207.83333333333331,114.07693333333333,210.24999999999997,114.0662C212.66666666666666,114.05546666666666,215.08333333333331,114.04473333333334,217.5,114.034C219.91666666666666,114.02326666666667,222.33333333333334,114.01253333333334,224.75,114.0018C227.16666666666666,113.99106666666667,229.58333333333334,113.98033333333333,232,113.9696C234.41666666666666,113.95886666666667,236.83333333333334,113.94813333333333,239.25,113.9374C241.66666666666669,113.92666666666666,244.08333333333334,113.91593333333334,246.50000000000003,113.90520000000001C248.91666666666669,113.89446666666667,251.33333333333331,113.88373333333332,253.74999999999997,113.87299999999999C256.16666666666663,113.86226666666666,258.5833333333333,113.85153333333334,261,113.8408C263.4166666666667,113.83006666666667,265.8333333333333,113.81933333333333,268.25,113.8086C270.6666666666667,113.79786666666666,273.0833333333333,113.78713333333333,275.5,113.7764C277.9166666666667,113.76566666666666,280.3333333333333,113.75493333333333,282.75,113.74419999999999C285.1666666666667,113.73346666666666,287.5833333333333,113.72273333333334,290,113.712C292.4166666666667,113.70126666666667,294.8333333333333,113.69053333333333,297.25,113.6798C299.6666666666667,113.66906666666667,302.0833333333333,113.65833333333333,304.5,113.6476C306.9166666666667,113.63686666666666,309.3333333333333,113.62613333333333,311.75,113.6154C314.1666666666667,113.60466666666666,316.5833333333333,113.59393333333334,319,113.5832C321.4166666666667,113.57246666666667,323.8333333333333,113.56173333333334,326.25,113.551C328.6666666666667,113.54026666666667,331.0833333333333,113.52953333333333,333.5,113.5188C335.9166666666667,113.50806666666666,338.3333333333333,113.49733333333334,340.75,113.48660000000001C343.1666666666667,113.47586666666668,345.5833333333333,113.46513333333333,348,113.45439999999999C350.4166666666667,113.44366666666666,352.8333333333333,113.43293333333334,355.25,113.4222C357.6666666666667,113.41146666666667,360.0833333333333,113.41146666666667,362.5,113.39C364.9166666666667,113.36853333333333,367.3333333333333,112.97906666666667,369.75,112.7736C372.1666666666667,112.56813333333334,374.5833333333333,112.36266666666667,377,112.1572C379.4166666666667,111.95173333333334,381.8333333333333,111.74626666666667,384.25,111.5408C386.6666666666667,111.33533333333334,389.0833333333333,111.12986666666666,391.5,110.92439999999999C393.9166666666667,110.71893333333333,396.33333333333337,110.51346666666667,398.75000000000006,110.308C401.16666666666674,110.10253333333334,403.58333333333337,109.89706666666667,406.00000000000006,109.69160000000001C408.4166666666667,109.48613333333334,410.8333333333333,109.28066666666666,413.24999999999994,109.0752C415.66666666666663,108.86973333333333,418.08333333333326,108.66426666666666,420.49999999999994,108.4588C422.91666666666663,108.25333333333333,425.3333333333333,108.04786666666666,427.75,107.8424C430.1666666666667,107.63693333333333,432.5833333333333,107.43146666666667,435,107.226C437.4166666666667,107.02053333333333,439.8333333333333,106.81506666666667,442.25,106.6096C444.6666666666667,106.40413333333333,447.0833333333333,106.19866666666667,449.5,105.9932C451.9166666666667,105.78773333333334,454.3333333333333,105.58226666666667,456.75,105.3768C459.1666666666667,105.17133333333334,461.5833333333333,104.96586666666667,464,104.7604C466.4166666666667,104.55493333333334,468.8333333333333,104.34946666666666,471.25,104.14399999999999C473.6666666666667,103.93853333333333,476.0833333333333,103.73306666666667,478.5,103.5276C480.9166666666667,103.32213333333334,483.33333333333337,103.11666666666667,485.75000000000006,102.91120000000001C488.16666666666674,102.70573333333334,490.58333333333337,102.50026666666666,493.00000000000006,102.2948C495.4166666666667,102.08933333333333,497.8333333333333,101.88386666666668,500.24999999999994,101.67840000000001C502.66666666666663,101.47293333333334,505.08333333333326,101.26746666666666,507.49999999999994,101.062C509.91666666666663,100.85653333333333,512.3333333333333,100.65106666666667,514.75,100.4456C517.1666666666666,100.24013333333333,519.5833333333334,100.03466666666667,522,99.8292C524.4166666666666,99.62373333333333,526.8333333333334,99.41826666666665,529.25,99.21279999999999C531.6666666666666,99.00733333333332,534.0833333333334,98.80186666666667,536.5,98.5964C538.9166666666666,98.39093333333334,541.3333333333334,98.18546666666667,543.75,97.98C546.1666666666666,97.77453333333334,548.5833333333334,97.56906666666666,551,97.36359999999999C553.4166666666666,97.15813333333332,555.8333333333334,96.95266666666667,558.25,96.7472C560.6666666666666,96.54173333333334,563.0833333333334,96.33626666666666,565.5,96.1308C567.9166666666666,95.92533333333333,570.3333333333334,95.71986666666666,572.75,95.5144C575.1666666666666,95.30893333333333,577.5833333333334,95.10346666666666,580,94.898C582.4166666666666,94.69253333333333,584.8333333333334,94.48706666666666,587.25,94.2816C589.6666666666666,94.07613333333333,592.0833333333334,93.87066666666666,594.5,93.6652C596.9166666666666,93.45973333333333,599.3333333333334,93.25426666666667,601.75,93.0488C604.1666666666666,92.84333333333333,606.5833333333334,92.63786666666667,609,92.4324C611.4166666666666,92.22693333333333,613.8333333333334,92.02146666666667,616.25,91.816C618.6666666666666,91.61053333333334,621.0833333333334,91.40506666666666,623.5,91.19959999999999C625.9166666666666,90.99413333333332,628.3333333333334,90.78866666666666,630.75,90.58319999999999C633.1666666666666,90.37773333333332,635.5833333333334,90.17226666666667,638,89.9668C640.4166666666666,89.76133333333334,642.8333333333334,89.55586666666666,645.25,89.3504C647.6666666666666,89.14493333333333,650.0833333333334,88.93946666666668,652.5,88.73400000000001C654.9166666666666,88.52853333333334,657.3333333333334,88.32306666666668,659.75,88.11760000000001C662.1666666666666,87.91213333333334,664.5833333333334,87.70666666666666,667,87.5012C669.4166666666666,87.29573333333333,671.8333333333334,87.09026666666666,674.25,86.8848C676.6666666666666,86.67933333333333,679.0833333333334,86.47386666666667,681.5,86.2684C683.9166666666666,86.06293333333333,686.3333333333334,85.85746666666665,688.75,85.65199999999999C691.1666666666666,85.44653333333332,693.5833333333334,85.24106666666667,696,85.0356C698.4166666666666,84.83013333333334,700.8333333333334,84.62466666666667,703.25,84.4192C705.6666666666666,84.21373333333334,708.0833333333334,84.00826666666667,710.5,83.8028C712.9166666666666,83.59733333333334,715.3333333333334,83.39186666666667,717.75,83.1864C720.1666666666666,82.98093333333334,722.5833333333334,82.77546666666666,725,82.57C727.4166666666666,82.36453333333333,729.8333333333334,82.15906666666666,732.25,81.9536C734.6666666666666,81.74813333333333,737.0833333333334,81.54266666666666,739.5,81.3372C741.9166666666666,81.13173333333333,744.3333333333334,80.92626666666666,746.75,80.7208C749.1666666666666,80.51533333333333,751.5833333333334,80.30986666666668,754,80.10440000000001C756.4166666666666,79.89893333333335,758.8333333333334,79.69346666666667,761.25,79.488C763.6666666666666,79.28253333333333,766.0833333333334,79.07706666666667,768.5,78.8716C770.9166666666666,78.66613333333333,773.3333333333334,78.46066666666667,775.75,78.2552C778.1666666666666,78.04973333333334,780.5833333333334,77.84426666666666,783,77.63879999999999C785.4166666666667,77.43333333333332,787.8333333333334,77.22786666666666,790.2500000000001,77.02239999999999C792.6666666666667,76.81693333333332,795.0833333333335,76.61146666666667,797.5000000000001,76.406C799.9166666666667,76.20053333333334,802.3333333333335,75.99506666666666,804.7500000000001,75.7896C807.1666666666667,75.58413333333333,809.5833333333335,75.37866666666667,812.0000000000001,75.17320000000001C814.4166666666667,74.96773333333334,816.8333333333333,74.76226666666666,819.2499999999999,74.5568C821.6666666666665,74.35133333333333,824.0833333333333,74.14586666666666,826.4999999999999,73.9404C828.9166666666665,73.73493333333333,831.3333333333333,73.52946666666666,833.7499999999999,73.324C836.1666666666665,73.11853333333333,838.5833333333333,72.91306666666667,840.9999999999999,72.7076C843.4166666666666,72.50213333333333,845.8333333333333,72.29666666666667,848.25,72.0912C850.6666666666666,71.88573333333333,853.0833333333334,71.68026666666667,855.5,71.4748C857.9166666666666,71.26933333333334,860.3333333333334,71.06386666666667,862.75,70.8584C865.1666666666666,70.65293333333334,867.5833333333334,70.44746666666667,870,70.242C872.4166666666666,70.03653333333334,874.8333333333334,69.83106666666666,877.25,69.62559999999999C879.6666666666666,69.42013333333333,882.0833333333334,69.21466666666666,884.5,69.00919999999999C886.9166666666666,68.80373333333333,889.3333333333334,68.59826666666666,891.75,68.3928C894.1666666666666,68.18733333333333,896.5833333333334,67.98186666666666,899,67.7764C901.4166666666666,67.57093333333333,903.8333333333334,67.36546666666668,906.25,67.16000000000001C908.6666666666666,66.95453333333334,911.0833333333334,66.74906666666666,913.5,66.5436C915.9166666666666,66.33813333333333,918.3333333333334,66.13266666666667,920.75,65.9272C923.1666666666666,65.72173333333333,925.5833333333334,65.51626666666667,928,65.3108C930.4166666666666,65.10533333333333,932.8333333333334,64.89986666666667,935.25,64.6944C937.6666666666666,64.48893333333334,940.0833333333334,64.28346666666665,942.5,64.07799999999999C944.9166666666666,63.87253333333332,947.3333333333334,63.66706666666666,949.75,63.4616C952.1666666666666,63.25613333333333,954.5833333333334,63.05066666666667,957,62.845200000000006C959.4166666666666,62.63973333333334,961.8333333333334,62.43426666666667,964.25,62.22880000000001C966.6666666666667,62.02333333333334,969.0833333333334,61.817866666666674,971.5000000000001,61.6124C973.9166666666667,61.406933333333335,976.3333333333335,61.20146666666666,978.7500000000001,60.995999999999995C981.1666666666667,60.79053333333333,983.5833333333335,60.58506666666666,986.0000000000001,60.379599999999996C988.4166666666667,60.17413333333333,990.8333333333335,59.96866666666666,993.2500000000001,59.76319999999999C995.6666666666667,59.55773333333333,998.0833333333333,59.35226666666668,1000.4999999999999,59.14680000000001C1002.9166666666665,58.94133333333335,1005.3333333333333,58.73586666666666,1007.7499999999999,58.53039999999999C1010.1666666666665,58.32493333333333,1012.5833333333333,58.119466666666675,1014.9999999999999,57.91400000000001C1017.4166666666665,57.70853333333334,1019.8333333333333,57.50306666666667,1022.2499999999999,57.2976C1024.6666666666665,57.09213333333333,1027.0833333333333,56.88666666666666,1029.5,56.6812C1031.9166666666667,56.47573333333333,1034.3333333333333,56.27026666666667,1036.75,56.064800000000005C1039.1666666666667,55.85933333333334,1041.5833333333333,55.65386666666666,1044,55.44839999999999C1046.4166666666667,55.242933333333326,1048.8333333333333,55.03746666666667,1051.25,54.832C1053.6666666666667,54.626533333333334,1056.0833333333333,54.421066666666675,1058.5,54.21560000000001C1060.9166666666667,54.01013333333334,1063.3333333333333,53.80466666666667,1065.75,53.5992C1068.1666666666667,53.39373333333334,1070.5833333333333,53.18826666666667,1073,52.982800000000005C1075.4166666666667,52.77733333333334,1077.8333333333333,52.571866666666665,1080.25,52.3664C1082.6666666666667,52.16093333333333,1085.0833333333333,51.95546666666666,1087.5,51.74999999999999C1089.9166666666667,51.54453333333333,1092.3333333333333,51.33906666666667,1094.75,51.1336C1097.1666666666667,50.928133333333335,1099.5833333333333,50.72266666666667,1102,50.5172C1104.4166666666667,50.311733333333336,1106.8333333333333,50.10626666666666,1109.25,49.9008C1111.6666666666667,49.69533333333333,1114.0833333333333,49.48986666666666,1116.5,49.28439999999999C1118.9166666666667,49.078933333333325,1121.3333333333333,48.873466666666666,1123.75,48.668C1126.1666666666667,48.46253333333333,1128.5833333333333,48.25706666666667,1131,48.0516C1133.4166666666667,47.846133333333334,1135.8333333333333,47.64066666666666,1138.25,47.435199999999995C1140.6666666666667,47.22973333333333,1143.0833333333333,47.02426666666667,1145.5,46.8188C1147.9166666666667,46.61333333333334,1150.3333333333333,46.40786666666666,1152.75,46.2024C1155.1666666666667,45.99693333333333,1157.5833333333333,45.79146666666668,1160,45.58600000000001C1162.4166666666667,45.38053333333335,1164.8333333333333,45.175066666666666,1167.25,44.96959999999999C1169.6666666666667,44.76413333333332,1172.0833333333333,44.55866666666665,1174.5,44.35319999999999C1176.9166666666667,44.14773333333332,1179.3333333333333,43.94226666666667,1181.75,43.73680000000001C1184.1666666666667,43.53133333333335,1186.5833333333333,43.32586666666668,1189,43.12040000000001C1191.4166666666667,42.914933333333344,1193.8333333333333,42.70946666666667,1196.25,42.504000000000005C1198.6666666666667,42.29853333333334,1201.0833333333333,42.093066666666665,1203.5,41.8876C1205.9166666666667,41.68213333333333,1208.3333333333333,41.47666666666667,1210.75,41.2712C1213.1666666666667,41.065733333333334,1215.5833333333333,40.86026666666666,1218,40.654799999999994C1220.4166666666667,40.44933333333333,1222.8333333333333,40.24386666666668,1225.25,40.03840000000002C1227.6666666666667,39.83293333333335,1230.0833333333333,39.62746666666666,1232.5,39.422C1234.9166666666667,39.21653333333333,1237.3333333333333,39.011066666666665,1239.75,38.8056C1242.1666666666667,38.60013333333333,1244.5833333333333,38.39466666666667,1247,38.18920000000001C1249.4166666666667,37.98373333333334,1251.8333333333333,37.77826666666667,1254.25,37.5728C1256.6666666666667,37.367333333333335,1259.0833333333333,37.161866666666654,1261.5,36.95639999999999C1263.9166666666667,36.75093333333332,1266.3333333333333,36.54546666666666,1268.75,36.339999999999996C1271.1666666666667,36.13453333333333,1273.5833333333333,35.92906666666667,1276,35.723600000000005C1278.4166666666667,35.51813333333334,1280.8333333333333,35.31266666666668,1283.25,35.10720000000001C1285.6666666666667,34.90173333333335,1288.0833333333333,34.69626666666666,1290.5,34.49079999999999C1292.9166666666667,34.28533333333333,1295.3333333333333,34.07986666666666,1297.75,33.874399999999994C1300.1666666666667,33.66893333333333,1302.5833333333333,33.46346666666667,1305,33.258C1307.4166666666667,33.052533333333336,1309.8333333333333,32.84706666666666,1312.25,32.6416C1314.6666666666667,32.43613333333333,1317.0833333333333,32.23066666666667,1319.5,32.025200000000005C1321.9166666666667,31.81973333333334,1324.3333333333333,31.61426666666667,1326.75,31.408800000000003C1329.1666666666667,31.203333333333337,1331.5833333333333,30.997866666666667,1334,30.7924C1336.4166666666667,30.586933333333334,1338.8333333333333,30.38146666666666,1341.25,30.175999999999995C1343.6666666666667,29.97053333333333,1346.0833333333333,29.765066666666673,1348.5,29.559600000000007C1350.9166666666667,29.35413333333334,1353.3333333333333,29.148666666666657,1355.75,28.94319999999999C1358.1666666666667,28.737733333333324,1360.5833333333333,28.53226666666666,1363,28.3268C1365.4166666666667,28.121333333333336,1367.8333333333333,27.915866666666673,1370.25,27.710400000000007C1372.6666666666667,27.50493333333334,1375.0833333333333,27.29946666666667,1377.5,27.094000000000005C1379.9166666666667,26.88853333333334,1382.3333333333333,26.683066666666665,1384.75,26.4776C1387.1666666666667,26.272133333333333,1389.5833333333333,26.066666666666663,1392,25.861199999999997C1394.4166666666667,25.65573333333333,1396.8333333333333,25.450266666666657,1399.25,25.244799999999994C1401.6666666666667,25.03933333333333,1404.0833333333333,24.83386666666668,1406.5,24.628400000000013C1408.9166666666667,24.422933333333347,1411.3333333333333,24.217466666666667,1413.75,24.011999999999997C1416.1666666666667,23.806533333333327,1418.5833333333333,23.60106666666666,1421,23.395599999999995C1423.4166666666667,23.19013333333333,1425.8333333333333,22.98466666666667,1428.25,22.779200000000003C1430.6666666666667,22.573733333333337,1433.0833333333333,22.368266666666653,1435.5,22.162799999999987C1437.9166666666667,21.95733333333332,1440.3333333333333,21.75186666666666,1442.75,21.5464C1445.1666666666667,21.340933333333336,1447.5833333333333,21.13546666666667,1450,20.930000000000007" fill="transparent" stroke-linecap="round" stroke="#B6509E" stroke-width="2"></path><path class="visx-linepath" d="M0,112.699999999908C2.4166666666666665,112.684666666613,4.833333333333334,112.669333333318,7.25,112.654C9.666666666666666,112.638666666682,12.083333333333334,112.62333333333332,14.5,112.60799999999999C16.916666666666668,112.59266666666666,19.333333333333332,112.57733333333333,21.75,112.562C24.166666666666668,112.54666666666667,26.583333333333332,112.53133333333334,29,112.516C31.416666666666668,112.50066666666667,33.833333333333336,112.48533333333333,36.25,112.47C38.666666666666664,112.45466666666667,41.083333333333336,112.43933333333334,43.5,112.424C45.91666666666667,112.40866666666668,48.333333333333336,112.39333333333333,50.75000000000001,112.378C53.16666666666667,112.36266666666667,55.583333333333336,112.34733333333332,58,112.332C60.416666666666664,112.31666666666666,62.833333333333336,112.30133333333333,65.25,112.286C67.66666666666667,112.27066666666667,70.08333333333333,112.25533333333333,72.5,112.24C74.91666666666667,112.22466666666666,77.33333333333333,112.20933333333333,79.75,112.194C82.16666666666667,112.17866666666667,84.58333333333333,112.16333333333333,87,112.148C89.41666666666667,112.13266666666667,91.83333333333333,112.11733333333333,94.25,112.102C96.66666666666667,112.08666666666667,99.08333333333334,112.07133333333334,101.50000000000001,112.05600000000001C103.91666666666667,112.04066666666668,106.33333333333334,112.02533333333332,108.75,112.00999999999999C111.16666666666667,111.99466666666666,113.58333333333333,111.97933333333333,116,111.964C118.41666666666667,111.94866666666667,120.83333333333334,111.93333333333332,123.25000000000001,111.91799999999999C125.66666666666667,111.90266666666666,128.08333333333334,111.88733333333333,130.5,111.872C132.91666666666666,111.85666666666667,135.33333333333334,111.84133333333334,137.75,111.82600000000001C140.16666666666666,111.81066666666668,142.58333333333334,111.79533333333333,145,111.78C147.41666666666666,111.76466666666667,149.83333333333334,111.74933333333334,152.25,111.73400000000001C154.66666666666666,111.71866666666668,157.08333333333334,111.70333333333332,159.5,111.68799999999999C161.91666666666666,111.67266666666666,164.33333333333334,111.65733333333333,166.75,111.642C169.16666666666666,111.62666666666667,171.58333333333334,111.61133333333333,174,111.596C176.41666666666666,111.58066666666667,178.83333333333334,111.56533333333333,181.25,111.55C183.66666666666666,111.53466666666667,186.08333333333334,111.51933333333334,188.5,111.504C190.91666666666666,111.48866666666667,193.33333333333334,111.47333333333333,195.75,111.458C198.16666666666669,111.44266666666667,200.58333333333334,111.42733333333334,203.00000000000003,111.412C205.41666666666669,111.39666666666668,207.83333333333331,111.38133333333333,210.24999999999997,111.366C212.66666666666666,111.35066666666667,215.08333333333331,111.33533333333332,217.5,111.32C219.91666666666666,111.30466666666666,222.33333333333334,111.28933333333333,224.75,111.274C227.16666666666666,111.25866666666667,229.58333333333334,111.24333333333333,232,111.228C234.41666666666666,111.21266666666666,236.83333333333334,111.19733333333333,239.25,111.182C241.66666666666669,111.16666666666667,244.08333333333334,111.15133333333334,246.50000000000003,111.13600000000001C248.91666666666669,111.12066666666668,251.33333333333331,111.10533333333333,253.74999999999997,111.09C256.16666666666663,111.07466666666667,258.5833333333333,111.05933333333333,261,111.044C263.4166666666667,111.02866666666667,265.8333333333333,111.01333333333334,268.25,110.998C270.6666666666667,110.98266666666667,273.0833333333333,110.96733333333333,275.5,110.952C277.9166666666667,110.93666666666667,280.3333333333333,110.92133333333334,282.75,110.906C285.1666666666667,110.89066666666668,287.5833333333333,110.87533333333333,290,110.86C292.4166666666667,110.84466666666667,294.8333333333333,110.82933333333334,297.25,110.81400000000001C299.6666666666667,110.79866666666668,302.0833333333333,110.78333333333333,304.5,110.768C306.9166666666667,110.75266666666667,309.3333333333333,110.73733333333332,311.75,110.722C314.1666666666667,110.70666666666666,316.5833333333333,110.69133333333333,319,110.676C321.4166666666667,110.66066666666667,323.8333333333333,110.64533333333333,326.25,110.63C328.6666666666667,110.61466666666666,331.0833333333333,110.59933333333333,333.5,110.584C335.9166666666667,110.56866666666667,338.3333333333333,110.55333333333334,340.75,110.53800000000001C343.1666666666667,110.52266666666668,345.5833333333333,110.50733333333334,348,110.492C350.4166666666667,110.47666666666667,352.8333333333333,110.46133333333333,355.25,110.446C357.6666666666667,110.43066666666667,360.0833333333333,110.43066666666667,362.5,110.39999999999999C364.9166666666667,110.36933333333332,367.3333333333333,109.98906666666667,369.75,109.7836C372.1666666666667,109.57813333333334,374.5833333333333,109.37266666666667,377,109.16720000000001C379.4166666666667,108.96173333333334,381.8333333333333,108.75626666666666,384.25,108.5508C386.6666666666667,108.34533333333333,389.0833333333333,108.13986666666668,391.5,107.93440000000001C393.9166666666667,107.72893333333334,396.33333333333337,107.52346666666666,398.75000000000006,107.318C401.16666666666674,107.11253333333333,403.58333333333337,106.90706666666667,406.00000000000006,106.7016C408.4166666666667,106.49613333333333,410.8333333333333,106.29066666666667,413.24999999999994,106.0852C415.66666666666663,105.87973333333333,418.08333333333326,105.67426666666667,420.49999999999994,105.4688C422.91666666666663,105.26333333333334,425.3333333333333,105.05786666666667,427.75,104.8524C430.1666666666667,104.64693333333334,432.5833333333333,104.44146666666667,435,104.236C437.4166666666667,104.03053333333334,439.8333333333333,103.82506666666666,442.25,103.61959999999999C444.6666666666667,103.41413333333333,447.0833333333333,103.20866666666667,449.5,103.0032C451.9166666666667,102.79773333333334,454.3333333333333,102.59226666666666,456.75,102.3868C459.1666666666667,102.18133333333333,461.5833333333333,101.97586666666666,464,101.7704C466.4166666666667,101.56493333333333,468.8333333333333,101.35946666666668,471.25,101.15400000000001C473.6666666666667,100.94853333333334,476.0833333333333,100.74306666666666,478.5,100.5376C480.9166666666667,100.33213333333333,483.33333333333337,100.12666666666667,485.75000000000006,99.9212C488.16666666666674,99.71573333333333,490.58333333333337,99.51026666666668,493.00000000000006,99.30480000000001C495.4166666666667,99.09933333333335,497.8333333333333,98.89386666666667,500.24999999999994,98.6884C502.66666666666663,98.48293333333334,505.08333333333326,98.27746666666667,507.49999999999994,98.072C509.91666666666663,97.86653333333334,512.3333333333333,97.66106666666666,514.75,97.45559999999999C517.1666666666666,97.25013333333332,519.5833333333334,97.04466666666667,522,96.8392C524.4166666666666,96.63373333333334,526.8333333333334,96.42826666666667,529.25,96.2228C531.6666666666666,96.01733333333334,534.0833333333334,95.81186666666666,536.5,95.6064C538.9166666666666,95.40093333333333,541.3333333333334,95.19546666666668,543.75,94.99000000000001C546.1666666666666,94.78453333333334,548.5833333333334,94.57906666666668,551,94.37360000000001C553.4166666666666,94.16813333333334,555.8333333333334,93.96266666666666,558.25,93.7572C560.6666666666666,93.55173333333333,563.0833333333334,93.34626666666666,565.5,93.1408C567.9166666666666,92.93533333333333,570.3333333333334,92.72986666666667,572.75,92.5244C575.1666666666666,92.31893333333333,577.5833333333334,92.11346666666667,580,91.908C582.4166666666666,91.70253333333334,584.8333333333334,91.49706666666667,587.25,91.2916C589.6666666666666,91.08613333333334,592.0833333333334,90.88066666666666,594.5,90.67519999999999C596.9166666666666,90.46973333333332,599.3333333333334,90.26426666666667,601.75,90.0588C604.1666666666666,89.85333333333334,606.5833333333334,89.64786666666667,609,89.4424C611.4166666666666,89.23693333333334,613.8333333333334,89.03146666666666,616.25,88.826C618.6666666666666,88.62053333333333,621.0833333333334,88.41506666666666,623.5,88.2096C625.9166666666666,88.00413333333333,628.3333333333334,87.79866666666666,630.75,87.5932C633.1666666666666,87.38773333333333,635.5833333333334,87.18226666666666,638,86.9768C640.4166666666666,86.77133333333333,642.8333333333334,86.56586666666666,645.25,86.3604C647.6666666666666,86.15493333333333,650.0833333333334,85.94946666666667,652.5,85.744C654.9166666666666,85.53853333333333,657.3333333333334,85.33306666666667,659.75,85.1276C662.1666666666666,84.92213333333333,664.5833333333334,84.71666666666667,667,84.5112C669.4166666666666,84.30573333333334,671.8333333333334,84.10026666666666,674.25,83.89479999999999C676.6666666666666,83.68933333333332,679.0833333333334,83.48386666666667,681.5,83.2784C683.9166666666666,83.07293333333334,686.3333333333334,82.86746666666667,688.75,82.662C691.1666666666666,82.45653333333334,693.5833333333334,82.25106666666667,696,82.04560000000001C698.4166666666666,81.84013333333334,700.8333333333334,81.63466666666667,703.25,81.42920000000001C705.6666666666666,81.22373333333334,708.0833333333334,81.01826666666666,710.5,80.8128C712.9166666666666,80.60733333333333,715.3333333333334,80.40186666666666,717.75,80.1964C720.1666666666666,79.99093333333333,722.5833333333334,79.78546666666666,725,79.58C727.4166666666666,79.37453333333333,729.8333333333334,79.16906666666665,732.25,78.96359999999999C734.6666666666666,78.75813333333332,737.0833333333334,78.55266666666668,739.5,78.34720000000002C741.9166666666666,78.14173333333335,744.3333333333334,77.93626666666667,746.75,77.7308C749.1666666666666,77.52533333333334,751.5833333333334,77.31986666666667,754,77.1144C756.4166666666666,76.90893333333334,758.8333333333334,76.70346666666667,761.25,76.498C763.6666666666666,76.29253333333334,766.0833333333334,76.08706666666666,768.5,75.88159999999999C770.9166666666666,75.67613333333333,773.3333333333334,75.47066666666666,775.75,75.2652C778.1666666666666,75.05973333333333,780.5833333333334,74.85426666666667,783,74.64880000000001C785.4166666666667,74.44333333333334,787.8333333333334,74.23786666666668,790.2500000000001,74.03240000000001C792.6666666666667,73.82693333333334,795.0833333333335,73.62146666666666,797.5000000000001,73.416C799.9166666666667,73.21053333333333,802.3333333333335,73.00506666666668,804.7500000000001,72.79960000000001C807.1666666666667,72.59413333333335,809.5833333333335,72.38866666666667,812.0000000000001,72.1832C814.4166666666667,71.97773333333333,816.8333333333333,71.77226666666667,819.2499999999999,71.5668C821.6666666666665,71.36133333333333,824.0833333333333,71.15586666666665,826.4999999999999,70.95039999999999C828.9166666666665,70.74493333333332,831.3333333333333,70.53946666666667,833.7499999999999,70.334C836.1666666666665,70.12853333333334,838.5833333333333,69.92306666666666,840.9999999999999,69.71759999999999C843.4166666666666,69.51213333333332,845.8333333333333,69.30666666666666,848.25,69.10119999999999C850.6666666666666,68.89573333333333,853.0833333333334,68.69026666666667,855.5,68.4848C857.9166666666666,68.27933333333334,860.3333333333334,68.07386666666667,862.75,67.86840000000001C865.1666666666666,67.66293333333334,867.5833333333334,67.45746666666666,870,67.252C872.4166666666666,67.04653333333333,874.8333333333334,66.84106666666668,877.25,66.63560000000001C879.6666666666666,66.43013333333334,882.0833333333334,66.22466666666666,884.5,66.0192C886.9166666666666,65.81373333333333,889.3333333333334,65.60826666666665,891.75,65.40279999999998C894.1666666666666,65.19733333333332,896.5833333333334,64.99186666666668,899,64.78640000000001C901.4166666666666,64.58093333333335,903.8333333333334,64.37546666666667,906.25,64.17C908.6666666666666,63.964533333333335,911.0833333333334,63.75906666666667,913.5,63.5536C915.9166666666666,63.34813333333334,918.3333333333334,63.14266666666666,920.75,62.9372C923.1666666666666,62.73173333333333,925.5833333333334,62.526266666666665,928,62.3208C930.4166666666666,62.11533333333333,932.8333333333334,61.90986666666666,935.25,61.70439999999999C937.6666666666666,61.498933333333326,940.0833333333334,61.29346666666668,942.5,61.088000000000015C944.9166666666666,60.88253333333335,947.3333333333334,60.67706666666666,949.75,60.471599999999995C952.1666666666666,60.26613333333333,954.5833333333334,60.06066666666666,957,59.855199999999996C959.4166666666666,59.64973333333333,961.8333333333334,59.44426666666667,964.25,59.238800000000005C966.6666666666667,59.03333333333334,969.0833333333334,58.82786666666667,971.5000000000001,58.6224C973.9166666666667,58.41693333333333,976.3333333333335,58.21146666666666,978.7500000000001,58.00599999999999C981.1666666666667,57.80053333333333,983.5833333333335,57.59506666666667,986.0000000000001,57.3896C988.4166666666667,57.184133333333335,990.8333333333335,56.97866666666667,993.2500000000001,56.7732C995.6666666666667,56.567733333333344,998.0833333333333,56.36226666666668,1000.4999999999999,56.15680000000001C1002.9166666666665,55.951333333333345,1005.3333333333333,55.74586666666667,1007.7499999999999,55.540400000000005C1010.1666666666665,55.33493333333334,1012.5833333333333,55.129466666666666,1014.9999999999999,54.924C1017.4166666666665,54.71853333333333,1019.8333333333333,54.51306666666667,1022.2499999999999,54.3076C1024.6666666666665,54.102133333333335,1027.0833333333333,53.89666666666667,1029.5,53.691199999999995C1031.9166666666667,53.48573333333333,1034.3333333333333,53.280266666666655,1036.75,53.07479999999999C1039.1666666666667,52.86933333333332,1041.5833333333333,52.66386666666668,1044,52.45840000000001C1046.4166666666667,52.252933333333345,1048.8333333333333,52.047466666666665,1051.25,51.842C1053.6666666666667,51.63653333333333,1056.0833333333333,51.43106666666666,1058.5,51.22559999999999C1060.9166666666667,51.02013333333333,1063.3333333333333,50.81466666666667,1065.75,50.6092C1068.1666666666667,50.403733333333335,1070.5833333333333,50.19826666666667,1073,49.9928C1075.4166666666667,49.787333333333336,1077.8333333333333,49.58186666666666,1080.25,49.3764C1082.6666666666667,49.17093333333333,1085.0833333333333,48.96546666666667,1087.5,48.760000000000005C1089.9166666666667,48.55453333333334,1092.3333333333333,48.349066666666666,1094.75,48.1436C1097.1666666666667,47.93813333333333,1099.5833333333333,47.73266666666667,1102,47.5272C1104.4166666666667,47.321733333333334,1106.8333333333333,47.116266666666675,1109.25,46.91080000000001C1111.6666666666667,46.70533333333334,1114.0833333333333,46.499866666666655,1116.5,46.29439999999999C1118.9166666666667,46.08893333333332,1121.3333333333333,45.88346666666666,1123.75,45.678C1126.1666666666667,45.47253333333333,1128.5833333333333,45.26706666666667,1131,45.061600000000006C1133.4166666666667,44.85613333333334,1135.8333333333333,44.65066666666667,1138.25,44.44520000000001C1140.6666666666667,44.23973333333334,1143.0833333333333,44.03426666666667,1145.5,43.8288C1147.9166666666667,43.623333333333335,1150.3333333333333,43.41786666666666,1152.75,43.212399999999995C1155.1666666666667,43.00693333333333,1157.5833333333333,42.80146666666666,1160,42.596C1162.4166666666667,42.39053333333333,1164.8333333333333,42.18506666666667,1167.25,41.979600000000005C1169.6666666666667,41.77413333333334,1172.0833333333333,41.568666666666665,1174.5,41.3632C1176.9166666666667,41.15773333333333,1179.3333333333333,40.95226666666666,1181.75,40.74679999999999C1184.1666666666667,40.54133333333333,1186.5833333333333,40.335866666666675,1189,40.13040000000001C1191.4166666666667,39.92493333333334,1193.8333333333333,39.71946666666667,1196.25,39.514C1198.6666666666667,39.30853333333334,1201.0833333333333,39.10306666666666,1203.5,38.8976C1205.9166666666667,38.69213333333333,1208.3333333333333,38.48666666666666,1210.75,38.28119999999999C1213.1666666666667,38.075733333333325,1215.5833333333333,37.87026666666667,1218,37.66480000000001C1220.4166666666667,37.45933333333334,1222.8333333333333,37.25386666666667,1225.25,37.0484C1227.6666666666667,36.842933333333335,1230.0833333333333,36.637466666666676,1232.5,36.43200000000001C1234.9166666666667,36.22653333333334,1237.3333333333333,36.02106666666666,1239.75,35.815599999999996C1242.1666666666667,35.61013333333333,1244.5833333333333,35.40466666666667,1247,35.199200000000005C1249.4166666666667,34.99373333333334,1251.8333333333333,34.788266666666665,1254.25,34.5828C1256.6666666666667,34.37733333333333,1259.0833333333333,34.17186666666667,1261.5,33.96640000000001C1263.9166666666667,33.76093333333334,1266.3333333333333,33.55546666666667,1268.75,33.35C1271.1666666666667,33.144533333333335,1273.5833333333333,32.93906666666667,1276,32.7336C1278.4166666666667,32.52813333333334,1280.8333333333333,32.32266666666666,1283.25,32.1172C1285.6666666666667,31.91173333333333,1288.0833333333333,31.70626666666667,1290.5,31.500800000000005C1292.9166666666667,31.29533333333334,1295.3333333333333,31.08986666666666,1297.75,30.88439999999999C1300.1666666666667,30.67893333333332,1302.5833333333333,30.47346666666665,1305,30.267999999999986C1307.4166666666667,30.062533333333324,1309.8333333333333,29.85706666666667,1312.25,29.65160000000001C1314.6666666666667,29.446133333333346,1317.0833333333333,29.24066666666667,1319.5,29.035200000000003C1321.9166666666667,28.829733333333337,1324.3333333333333,28.624266666666667,1326.75,28.4188C1329.1666666666667,28.213333333333335,1331.5833333333333,28.007866666666665,1334,27.8024C1336.4166666666667,27.596933333333332,1338.8333333333333,27.39146666666666,1341.25,27.185999999999993C1343.6666666666667,26.980533333333327,1346.0833333333333,26.775066666666653,1348.5,26.56959999999999C1350.9166666666667,26.364133333333328,1353.3333333333333,26.15866666666668,1355.75,25.953200000000013C1358.1666666666667,25.747733333333347,1360.5833333333333,25.542266666666663,1363,25.336799999999997C1365.4166666666667,25.13133333333333,1367.8333333333333,24.92586666666667,1370.25,24.720400000000005C1372.6666666666667,24.51493333333334,1375.0833333333333,24.309466666666665,1377.5,24.104C1379.9166666666667,23.898533333333333,1382.3333333333333,23.693066666666663,1384.75,23.487599999999997C1387.1666666666667,23.28213333333333,1389.5833333333333,23.07666666666666,1392,22.871199999999995C1394.4166666666667,22.66573333333333,1396.8333333333333,22.460266666666666,1399.25,22.254800000000003C1401.6666666666667,22.04933333333334,1404.0833333333333,21.843866666666678,1406.5,21.63840000000001C1408.9166666666667,21.432933333333345,1411.3333333333333,21.22746666666666,1413.75,21.021999999999995C1416.1666666666667,20.81653333333333,1418.5833333333333,20.61106666666667,1421,20.405600000000003C1423.4166666666667,20.200133333333337,1425.8333333333333,19.99466666666667,1428.25,19.7892C1430.6666666666667,19.58373333333333,1433.0833333333333,19.37826666666665,1435.5,19.172799999999985C1437.9166666666667,18.96733333333332,1440.3333333333333,18.76186666666667,1442.75,18.556400000000007C1445.1666666666667,18.350933333333344,1447.5833333333333,18.145466666666675,1450,17.940000000000005" fill="transparent" stroke-linecap="round" stroke="#E7C6DF" stroke-width="2"></path><g class="visx-group visx-axis visx-axis-bottom" transform="translate(0, 115)"><g class="visx-group visx-axis-tick" transform="translate(0, 0)"><line class="visx-line" x1="0" y1="0" x2="0" y2="8" fill="transparent" shape-rendering="crispEdges" stroke="#000" stroke-width="0" stroke-linecap="square"></line><svg x="0" y="0" font-size="10" style="overflow:visible"><text transform="" x="0" y="18" fill="#000" font-size="10" text-anchor="middle"><tspan x="0" dy="0em">0%</tspan></text></svg></g><g class="visx-group visx-axis-tick" transform="translate(0, 0)"><line class="visx-line" x1="362.5" y1="0" x2="362.5" y2="8" fill="transparent" shape-rendering="crispEdges" stroke="#000" stroke-width="0" stroke-linecap="square"></line><svg x="0" y="0" font-size="10" style="overflow:visible"><text transform="" x="362.5" y="18" fill="#000" font-size="10" text-anchor="middle"><tspan x="362.5" dy="0em">25%</tspan></text></svg></g><g class="visx-group visx-axis-tick" transform="translate(0, 0)"><line class="visx-line" x1="725" y1="0" x2="725" y2="8" fill="transparent" shape-rendering="crispEdges" stroke="#000" stroke-width="0" stroke-linecap="square"></line><svg x="0" y="0" font-size="10" style="overflow:visible"><text transform="" x="725" y="18" fill="#000" font-size="10" text-anchor="middle"><tspan x="725" dy="0em">50%</tspan></text></svg></g><g class="visx-group visx-axis-tick" transform="translate(0, 0)"><line class="visx-line" x1="1087.5" y1="0" x2="1087.5" y2="8" fill="transparent" shape-rendering="crispEdges" stroke="#000" stroke-width="0" stroke-linecap="square"></line><svg x="0" y="0" font-size="10" style="overflow:visible"><text transform="" x="1087.5" y="18" fill="#000" font-size="10" text-anchor="middle"><tspan x="1087.5" dy="0em">75%</tspan></text></svg></g><g class="visx-group visx-axis-tick" transform="translate(0, 0)"><line class="visx-line" x1="1450" y1="0" x2="1450" y2="8" fill="transparent" shape-rendering="crispEdges" stroke="#000" stroke-width="0" stroke-linecap="square"></line><svg x="0" y="0" font-size="10" style="overflow:visible"><text transform="" x="1450" y="18" fill="#000" font-size="10" text-anchor="middle"><tspan x="1450" dy="0em">100%</tspan></text></svg></g><line class="visx-line visx-axis-line" x1="0.5" y1="0" x2="1450.5" y2="0" fill="transparent" shape-rendering="crispEdges" stroke="#222" stroke-width="0"></line></g><g class="visx-group visx-axis visx-axis-left" transform="translate(0, 0)"><g class="visx-group visx-axis-tick" transform="translate(0, 0)"><line class="visx-line" x1="0" y1="115" x2="-8" y2="115" fill="transparent" shape-rendering="crispEdges" stroke="#222" stroke-width="0" stroke-linecap="square"></line><svg x="-30" y="0" font-size="8" style="overflow:visible"><text transform="" x="-8" y="115" fill="#000" font-size="8" text-anchor="start"><tspan x="-8" dy="0em">0%</tspan></text></svg></g><g class="visx-group visx-axis-tick" transform="translate(0, 0)"><line class="visx-line" x1="0" y1="69" x2="-8" y2="69" fill="transparent" shape-rendering="crispEdges" stroke="#222" stroke-width="0" stroke-linecap="square"></line><svg x="-30" y="0" font-size="8" style="overflow:visible"><text transform="" x="-8" y="69" fill="#000" font-size="8" text-anchor="start"><tspan x="-8" dy="0em">200%</tspan></text></svg></g><g class="visx-group visx-axis-tick" transform="translate(0, 0)"><line class="visx-line" x1="0" y1="22.999999999999996" x2="-8" y2="22.999999999999996" fill="transparent" shape-rendering="crispEdges" stroke="#222" stroke-width="0" stroke-linecap="square"></line><svg x="-30" y="0" font-size="8" style="overflow:visible"><text transform="" x="-8" y="22.999999999999996" fill="#000" font-size="8" text-anchor="start"><tspan x="-8" dy="0em">400%</tspan></text></svg></g><line class="visx-line visx-axis-line" x1="0" y1="115.5" x2="0" y2="0.5" fill="transparent" shape-rendering="crispEdges" stroke="#222" stroke-width="0"></line></g><rect class="visx-bar" width="1450" height="115" fill="transparent"></rect><line class="visx-line" x1="362.5" y1="28" x2="362.5" y2="115" fill="transparent" shape-rendering="crispEdges" stroke="#0062D2" stroke-width="1" pointer-events="none" stroke-dasharray="5,2"></line><svg x="0" y="0" font-size="10px" style="overflow:visible"><text transform="" x="362.5" y="20" font-size="10px" fill="#fff" stroke="#fff" stroke-width="0.8em" text-anchor="middle"><tspan x="362.5" dy="0.355em">Optimal 25%</tspan></text></svg><svg x="0" y="0" font-size="10px" style="overflow:visible"><text transform="" x="362.5" y="20" font-size="10px" fill="#62677B" text-anchor="middle"><tspan x="362.5" dy="0.355em">Optimal 25%</tspan></text></svg></g></svg>