<?xml version="1.0"?><svg xmlns="http://www.w3.org/2000/svg" xmlns:xlink= "http://www.w3.org/1999/xlink" style="background: white;" width="1500" height="185"> <g style="color: black; font-size: 13px; font-family: sans-serif; transform: translate(18px, 25px);"><g><circle r="3" cx="-6" cy="-5" style="fill: #B6509E" /><text>Borrow APR, variable</text></g><g style="transform: translateX(150px);"><circle r="3" cx="-6" cy="-5" style="fill: rgb(231, 198, 223)" /><text>Borrow APR, stable</text></g><g style="transform: translateX(290px);"><circle r="3" cx="-6" cy="-5" style="fill: rgb(0, 98, 210)" /><text>Utilization Rate</text></g></g><g class="visx-group" transform="translate(40, 50)"><g class="visx-group visx-rows" transform="translate(0, 0)"><line class="visx-line" x1="0" y1="115" x2="1450" y2="115" fill="transparent" shape-rendering="crispEdges" stroke="#000" stroke-width="1" stroke-dasharray="3,3" pointer-events="none"></line><line class="visx-line" x1="0" y1="86.25" x2="1450" y2="86.25" fill="transparent" shape-rendering="crispEdges" stroke="#000" stroke-width="1" stroke-dasharray="3,3" pointer-events="none"></line><line class="visx-line" x1="0" y1="57.5" x2="1450" y2="57.5" fill="transparent" shape-rendering="crispEdges" stroke="#000" stroke-width="1" stroke-dasharray="3,3" pointer-events="none"></line><line class="visx-line" x1="0" y1="28.75" x2="1450" y2="28.75" fill="transparent" shape-rendering="crispEdges" stroke="#000" stroke-width="1" stroke-dasharray="3,3" pointer-events="none"></line><line class="visx-line" x1="0" y1="0" x2="1450" y2="0" fill="transparent" shape-rendering="crispEdges" stroke="#000" stroke-width="1" stroke-dasharray="3,3" pointer-events="none"></line></g><path class="visx-linepath" d="M0,14.374999999999988C2.4166666666666665,64.68749999999997,4.833333333333334,114.99999999999997,7.25,114.99999999999997C9.666666666666666,114.99999999999997,12.083333333333334,114.99999999999997,14.5,114.99999999999997C16.916666666666668,114.99999999999997,19.333333333333332,114.99999999999997,21.75,114.99999999999997C24.166666666666668,114.99999999999997,26.583333333333332,114.99999999999997,29,114.99999999999997C31.416666666666668,114.99999999999997,33.833333333333336,114.99999999999997,36.25,114.99999999999997C38.666666666666664,114.99999999999997,41.083333333333336,114.99999999999997,43.5,114.99999999999997C45.91666666666667,114.99999999999997,48.333333333333336,114.99999999999997,50.75000000000001,114.99999999999997C53.16666666666667,114.99999999999997,55.583333333333336,114.99999999999997,58,114.99999999999997C60.416666666666664,114.99999999999997,62.833333333333336,114.99999999999997,65.25,114.99999999999997C67.66666666666667,114.99999999999997,70.08333333333333,114.99999999999997,72.5,114.99999999999997C74.91666666666667,114.99999999999997,77.33333333333333,114.99999999999997,79.75,114.99999999999997C82.16666666666667,114.99999999999997,84.58333333333333,114.99999999999997,87,114.99999999999997C89.41666666666667,114.99999999999997,91.83333333333333,114.99999999999997,94.25,114.99999999999997C96.66666666666667,114.99999999999997,99.08333333333334,114.99999999999997,101.50000000000001,114.99999999999997C103.91666666666667,114.99999999999997,106.33333333333334,114.99999999999997,108.75,114.99999999999997C111.16666666666667,114.99999999999997,113.58333333333333,114.99999999999997,116,114.99999999999997C118.41666666666667,114.99999999999997,120.83333333333334,114.99999999999997,123.25000000000001,114.99999999999997C125.66666666666667,114.99999999999997,128.08333333333334,114.99999999999997,130.5,114.99999999999997C132.91666666666666,114.99999999999997,135.33333333333334,114.99999999999997,137.75,114.99999999999997C140.16666666666666,114.99999999999997,142.58333333333334,114.99999999999997,145,114.99999999999997C147.41666666666666,114.99999999999997,149.83333333333334,114.99999999999997,152.25,114.99999999999997C154.66666666666666,114.99999999999997,157.08333333333334,114.99999999999997,159.5,114.99999999999997C161.91666666666666,114.99999999999997,164.33333333333334,114.99999999999997,166.75,114.99999999999997C169.16666666666666,114.99999999999997,171.58333333333334,114.99999999999997,174,114.99999999999997C176.41666666666666,114.99999999999997,178.83333333333334,114.99999999999997,181.25,114.99999999999997C183.66666666666666,114.99999999999997,186.08333333333334,114.99999999999997,188.5,114.99999999999997C190.91666666666666,114.99999999999997,193.33333333333334,114.99999999999997,195.75,114.99999999999997C198.16666666666669,114.99999999999997,200.58333333333334,114.99999999999997,203.00000000000003,114.99999999999997C205.41666666666669,114.99999999999997,207.83333333333331,114.99999999999997,210.24999999999997,114.99999999999997C212.66666666666666,114.99999999999997,215.08333333333331,114.99999999999997,217.5,114.99999999999997C219.91666666666666,114.99999999999997,222.33333333333334,114.99999999999997,224.75,114.99999999999997C227.16666666666666,114.99999999999997,229.58333333333334,114.99999999999997,232,114.99999999999997C234.41666666666666,114.99999999999997,236.83333333333334,114.99999999999997,239.25,114.99999999999997C241.66666666666669,114.99999999999997,244.08333333333334,114.99999999999997,246.50000000000003,114.99999999999997C248.91666666666669,114.99999999999997,251.33333333333331,114.99999999999996,253.74999999999997,114.99999999999996C256.16666666666663,114.99999999999996,258.5833333333333,114.99999999999996,261,114.99999999999996C263.4166666666667,114.99999999999996,265.8333333333333,114.99999999999996,268.25,114.99999999999996C270.6666666666667,114.99999999999996,273.0833333333333,114.99999999999996,275.5,114.99999999999996C277.9166666666667,114.99999999999996,280.3333333333333,114.99999999999996,282.75,114.99999999999996C285.1666666666667,114.99999999999996,287.5833333333333,114.99999999999996,290,114.99999999999996C292.4166666666667,114.99999999999996,294.8333333333333,114.99999999999996,297.25,114.99999999999996C299.6666666666667,114.99999999999996,302.0833333333333,114.99999999999996,304.5,114.99999999999996C306.9166666666667,114.99999999999996,309.3333333333333,114.99999999999996,311.75,114.99999999999996C314.1666666666667,114.99999999999996,316.5833333333333,114.99999999999996,319,114.99999999999996C321.4166666666667,114.99999999999996,323.8333333333333,114.99999999999996,326.25,114.99999999999996C328.6666666666667,114.99999999999996,331.0833333333333,114.99999999999996,333.5,114.99999999999996C335.9166666666667,114.99999999999996,338.3333333333333,114.99999999999996,340.75,114.99999999999996C343.1666666666667,114.99999999999996,345.5833333333333,114.99999999999996,348,114.99999999999996C350.4166666666667,114.99999999999996,352.8333333333333,114.99999999999996,355.25,114.99999999999996C357.6666666666667,114.99999999999996,360.0833333333333,114.99999999999996,362.5,114.99999999999996C364.9166666666667,114.99999999999996,367.3333333333333,114.99999999999996,369.75,114.99999999999996C372.1666666666667,114.99999999999996,374.5833333333333,114.99999999999996,377,114.99999999999996C379.4166666666667,114.99999999999996,381.8333333333333,114.99999999999996,384.25,114.99999999999996C386.6666666666667,114.99999999999996,389.0833333333333,114.99999999999996,391.5,114.99999999999996C393.9166666666667,114.99999999999996,396.33333333333337,114.99999999999996,398.75000000000006,114.99999999999996C401.16666666666674,114.99999999999996,403.58333333333337,114.99999999999996,406.00000000000006,114.99999999999996C408.4166666666667,114.99999999999996,410.8333333333333,114.99999999999996,413.24999999999994,114.99999999999996C415.66666666666663,114.99999999999996,418.08333333333326,114.99999999999996,420.49999999999994,114.99999999999996C422.91666666666663,114.99999999999996,425.3333333333333,114.99999999999996,427.75,114.99999999999996C430.1666666666667,114.99999999999996,432.5833333333333,114.99999999999996,435,114.99999999999996C437.4166666666667,114.99999999999996,439.8333333333333,114.99999999999996,442.25,114.99999999999996C444.6666666666667,114.99999999999996,447.0833333333333,114.99999999999996,449.5,114.99999999999996C451.9166666666667,114.99999999999996,454.3333333333333,114.99999999999996,456.75,114.99999999999996C459.1666666666667,114.99999999999996,461.5833333333333,114.99999999999996,464,114.99999999999996C466.4166666666667,114.99999999999996,468.8333333333333,114.99999999999996,471.25,114.99999999999996C473.6666666666667,114.99999999999996,476.0833333333333,114.99999999999996,478.5,114.99999999999996C480.9166666666667,114.99999999999996,483.33333333333337,114.99999999999996,485.75000000000006,114.99999999999996C488.16666666666674,114.99999999999996,490.58333333333337,114.99999999999996,493.00000000000006,114.99999999999996C495.4166666666667,114.99999999999996,497.8333333333333,114.99999999999996,500.24999999999994,114.99999999999996C502.66666666666663,114.99999999999996,505.08333333333326,114.99999999999996,507.49999999999994,114.99999999999996C509.91666666666663,114.99999999999996,512.3333333333333,114.99999999999996,514.75,114.99999999999996C517.1666666666666,114.99999999999996,519.5833333333334,114.99999999999996,522,114.99999999999996C524.4166666666666,114.99999999999996,526.8333333333334,114.99999999999996,529.25,114.99999999999996C531.6666666666666,114.99999999999996,534.0833333333334,114.99999999999996,536.5,114.99999999999996C538.9166666666666,114.99999999999996,541.3333333333334,114.99999999999996,543.75,114.99999999999996C546.1666666666666,114.99999999999996,548.5833333333334,114.99999999999996,551,114.99999999999996C553.4166666666666,114.99999999999996,555.8333333333334,114.99999999999996,558.25,114.99999999999996C560.6666666666666,114.99999999999996,563.0833333333334,114.99999999999996,565.5,114.99999999999996C567.9166666666666,114.99999999999996,570.3333333333334,114.99999999999996,572.75,114.99999999999996C575.1666666666666,114.99999999999996,577.5833333333334,114.99999999999996,580,114.99999999999996C582.4166666666666,114.99999999999996,584.8333333333334,114.99999999999996,587.25,114.99999999999996C589.6666666666666,114.99999999999996,592.0833333333334,114.99999999999996,594.5,114.99999999999996C596.9166666666666,114.99999999999996,599.3333333333334,114.99999999999996,601.75,114.99999999999996C604.1666666666666,114.99999999999996,606.5833333333334,114.99999999999996,609,114.99999999999996C611.4166666666666,114.99999999999996,613.8333333333334,114.99999999999996,616.25,114.99999999999996C618.6666666666666,114.99999999999996,621.0833333333334,114.99999999999996,623.5,114.99999999999996C625.9166666666666,114.99999999999996,628.3333333333334,114.99999999999996,630.75,114.99999999999996C633.1666666666666,114.99999999999996,635.5833333333334,114.99999999999996,638,114.99999999999996C640.4166666666666,114.99999999999996,642.8333333333334,114.99999999999996,645.25,114.99999999999996C647.6666666666666,114.99999999999996,650.0833333333334,114.99999999999996,652.5,114.99999999999996C654.9166666666666,114.99999999999996,657.3333333333334,114.99999999999996,659.75,114.99999999999996C662.1666666666666,114.99999999999996,664.5833333333334,114.99999999999996,667,114.99999999999996C669.4166666666666,114.99999999999996,671.8333333333334,114.99999999999996,674.25,114.99999999999996C676.6666666666666,114.99999999999996,679.0833333333334,114.99999999999994,681.5,114.99999999999994C683.9166666666666,114.99999999999994,686.3333333333334,114.99999999999994,688.75,114.99999999999994C691.1666666666666,114.99999999999994,693.5833333333334,114.99999999999994,696,114.99999999999994C698.4166666666666,114.99999999999994,700.8333333333334,114.99999999999994,703.25,114.99999999999994C705.6666666666666,114.99999999999994,708.0833333333334,114.99999999999994,710.5,114.99999999999994C712.9166666666666,114.99999999999994,715.3333333333334,114.99999999999994,717.75,114.99999999999994C720.1666666666666,114.99999999999994,722.5833333333334,114.99999999999994,725,114.99999999999994C727.4166666666666,114.99999999999994,729.8333333333334,114.99999999999994,732.25,114.99999999999994C734.6666666666666,114.99999999999994,737.0833333333334,114.99999999999994,739.5,114.99999999999994C741.9166666666666,114.99999999999994,744.3333333333334,114.99999999999994,746.75,114.99999999999994C749.1666666666666,114.99999999999994,751.5833333333334,114.99999999999994,754,114.99999999999994C756.4166666666666,114.99999999999994,758.8333333333334,114.99999999999994,761.25,114.99999999999994C763.6666666666666,114.99999999999994,766.0833333333334,114.99999999999994,768.5,114.99999999999994C770.9166666666666,114.99999999999994,773.3333333333334,114.99999999999994,775.75,114.99999999999994C778.1666666666666,114.99999999999994,780.5833333333334,114.99999999999994,783,114.99999999999994C785.4166666666667,114.99999999999994,787.8333333333334,114.99999999999994,790.2500000000001,114.99999999999994C792.6666666666667,114.99999999999994,795.0833333333335,114.99999999999994,797.5000000000001,114.99999999999994C799.9166666666667,114.99999999999994,802.3333333333335,114.99999999999994,804.7500000000001,114.99999999999994C807.1666666666667,114.99999999999994,809.5833333333335,114.99999999999994,812.0000000000001,114.99999999999994C814.4166666666667,114.99999999999994,816.8333333333333,114.99999999999994,819.2499999999999,114.99999999999994C821.6666666666665,114.99999999999994,824.0833333333333,114.99999999999994,826.4999999999999,114.99999999999994C828.9166666666665,114.99999999999994,831.3333333333333,114.99999999999994,833.7499999999999,114.99999999999994C836.1666666666665,114.99999999999994,838.5833333333333,114.99999999999994,840.9999999999999,114.99999999999994C843.4166666666666,114.99999999999994,845.8333333333333,114.99999999999994,848.25,114.99999999999994C850.6666666666666,114.99999999999994,853.0833333333334,114.99999999999994,855.5,114.99999999999994C857.9166666666666,114.99999999999994,860.3333333333334,114.99999999999994,862.75,114.99999999999994C865.1666666666666,114.99999999999994,867.5833333333334,114.99999999999994,870,114.99999999999994C872.4166666666666,114.99999999999994,874.8333333333334,114.99999999999994,877.25,114.99999999999994C879.6666666666666,114.99999999999994,882.0833333333334,114.99999999999994,884.5,114.99999999999994C886.9166666666666,114.99999999999994,889.3333333333334,114.99999999999994,891.75,114.99999999999994C894.1666666666666,114.99999999999994,896.5833333333334,114.99999999999994,899,114.99999999999994C901.4166666666666,114.99999999999994,903.8333333333334,114.99999999999994,906.25,114.99999999999994C908.6666666666666,114.99999999999994,911.0833333333334,114.99999999999994,913.5,114.99999999999994C915.9166666666666,114.99999999999994,918.3333333333334,114.99999999999994,920.75,114.99999999999994C923.1666666666666,114.99999999999994,925.5833333333334,114.99999999999994,928,114.99999999999994C930.4166666666666,114.99999999999994,932.8333333333334,114.99999999999994,935.25,114.99999999999994C937.6666666666666,114.99999999999994,940.0833333333334,114.99999999999994,942.5,114.99999999999994C944.9166666666666,114.99999999999994,947.3333333333334,114.99999999999994,949.75,114.99999999999994C952.1666666666666,114.99999999999994,954.5833333333334,114.99999999999994,957,114.99999999999994C959.4166666666666,114.99999999999994,961.8333333333334,114.99999999999994,964.25,114.99999999999994C966.6666666666667,114.99999999999994,969.0833333333334,114.99999999999994,971.5000000000001,114.99999999999994C973.9166666666667,114.99999999999994,976.3333333333335,114.99999999999994,978.7500000000001,114.99999999999994C981.1666666666667,114.99999999999994,983.5833333333335,114.99999999999994,986.0000000000001,114.99999999999994C988.4166666666667,114.99999999999994,990.8333333333335,114.99999999999994,993.2500000000001,114.99999999999994C995.6666666666667,114.99999999999994,998.0833333333333,114.99999999999994,1000.4999999999999,114.99999999999994C1002.9166666666665,114.99999999999994,1005.3333333333333,114.99999999999994,1007.7499999999999,114.99999999999994C1010.1666666666665,114.99999999999994,1012.5833333333333,114.99999999999994,1014.9999999999999,114.99999999999994C1017.4166666666665,114.99999999999994,1019.8333333333333,114.99999999999994,1022.2499999999999,114.99999999999994C1024.6666666666665,114.99999999999994,1027.0833333333333,114.99999999999994,1029.5,114.99999999999994C1031.9166666666667,114.99999999999994,1034.3333333333333,114.99999999999994,1036.75,114.99999999999994C1039.1666666666667,114.99999999999994,1041.5833333333333,114.99999999999994,1044,114.99999999999994C1046.4166666666667,114.99999999999994,1048.8333333333333,114.99999999999994,1051.25,114.99999999999994C1053.6666666666667,114.99999999999994,1056.0833333333333,114.99999999999994,1058.5,114.99999999999994C1060.9166666666667,114.99999999999994,1063.3333333333333,114.99999999999994,1065.75,114.99999999999994C1068.1666666666667,114.99999999999994,1070.5833333333333,114.99999999999994,1073,114.99999999999994C1075.4166666666667,114.99999999999994,1077.8333333333333,114.99999999999994,1080.25,114.99999999999994C1082.6666666666667,114.99999999999994,1085.0833333333333,114.99999999999994,1087.5,114.99999999999994C1089.9166666666667,114.99999999999994,1092.3333333333333,114.99999999999994,1094.75,114.99999999999994C1097.1666666666667,114.99999999999994,1099.5833333333333,114.99999999999994,1102,114.99999999999994C1104.4166666666667,114.99999999999994,1106.8333333333333,114.99999999999994,1109.25,114.99999999999994C1111.6666666666667,114.99999999999994,1114.0833333333333,114.99999999999994,1116.5,114.99999999999994C1118.9166666666667,114.99999999999994,1121.3333333333333,114.99999999999994,1123.75,114.99999999999994C1126.1666666666667,114.99999999999994,1128.5833333333333,114.99999999999994,1131,114.99999999999994C1133.4166666666667,114.99999999999994,1135.8333333333333,114.99999999999994,1138.25,114.99999999999994C1140.6666666666667,114.99999999999994,1143.0833333333333,114.99999999999994,1145.5,114.99999999999994C1147.9166666666667,114.99999999999994,1150.3333333333333,114.99999999999994,1152.75,114.99999999999994C1155.1666666666667,114.99999999999994,1157.5833333333333,114.99999999999994,1160,114.99999999999994C1162.4166666666667,114.99999999999994,1164.8333333333333,114.99999999999994,1167.25,114.99999999999994C1169.6666666666667,114.99999999999994,1172.0833333333333,114.99999999999994,1174.5,114.99999999999994C1176.9166666666667,114.99999999999994,1179.3333333333333,114.99999999999994,1181.75,114.99999999999994C1184.1666666666667,114.99999999999994,1186.5833333333333,114.99999999999994,1189,114.99999999999994C1191.4166666666667,114.99999999999994,1193.8333333333333,114.99999999999994,1196.25,114.99999999999994C1198.6666666666667,114.99999999999994,1201.0833333333333,114.99999999999994,1203.5,114.99999999999994C1205.9166666666667,114.99999999999994,1208.3333333333333,114.99999999999994,1210.75,114.99999999999994C1213.1666666666667,114.99999999999994,1215.5833333333333,114.99999999999994,1218,114.99999999999994C1220.4166666666667,114.99999999999994,1222.8333333333333,114.99999999999994,1225.25,114.99999999999994C1227.6666666666667,114.99999999999994,1230.0833333333333,114.99999999999994,1232.5,114.99999999999994C1234.9166666666667,114.99999999999994,1237.3333333333333,114.99999999999994,1239.75,114.99999999999994C1242.1666666666667,114.99999999999994,1244.5833333333333,114.99999999999994,1247,114.99999999999994C1249.4166666666667,114.99999999999994,1251.8333333333333,114.99999999999994,1254.25,114.99999999999994C1256.6666666666667,114.99999999999994,1259.0833333333333,114.99999999999994,1261.5,114.99999999999994C1263.9166666666667,114.99999999999994,1266.3333333333333,114.99999999999994,1268.75,114.99999999999994C1271.1666666666667,114.99999999999994,1273.5833333333333,114.99999999999994,1276,114.99999999999994C1278.4166666666667,114.99999999999994,1280.8333333333333,114.99999999999994,1283.25,114.99999999999994C1285.6666666666667,114.99999999999994,1288.0833333333333,114.99999999999994,1290.5,114.99999999999994C1292.9166666666667,114.99999999999994,1295.3333333333333,114.99999999999994,1297.75,114.99999999999994C1300.1666666666667,114.99999999999994,1302.5833333333333,114.99999999999994,1305,114.99999999999994C1307.4166666666667,114.99999999999994,1309.8333333333333,114.99999999999994,1312.25,114.99999999999994C1314.6666666666667,114.99999999999994,1317.0833333333333,114.99999999999994,1319.5,114.99999999999994C1321.9166666666667,114.99999999999994,1324.3333333333333,114.99999999999994,1326.75,114.99999999999994C1329.1666666666667,114.99999999999994,1331.5833333333333,114.99999999999994,1334,114.99999999999994C1336.4166666666667,114.99999999999994,1338.8333333333333,114.99999999999994,1341.25,114.99999999999994C1343.6666666666667,114.99999999999994,1346.0833333333333,114.99999999999994,1348.5,114.99999999999994C1350.9166666666667,114.99999999999994,1353.3333333333333,114.99999999999994,1355.75,114.99999999999994C1358.1666666666667,114.99999999999994,1360.5833333333333,114.99999999999994,1363,114.99999999999994C1365.4166666666667,114.99999999999994,1367.8333333333333,114.99999999999994,1370.25,114.99999999999994C1372.6666666666667,114.99999999999994,1375.0833333333333,114.99999999999994,1377.5,114.99999999999994C1379.9166666666667,114.99999999999994,1382.3333333333333,114.99999999999994,1384.75,114.99999999999994C1387.1666666666667,114.99999999999994,1389.5833333333333,114.99999999999994,1392,114.99999999999994C1394.4166666666667,114.99999999999994,1396.8333333333333,114.99999999999994,1399.25,114.99999999999994C1401.6666666666667,114.99999999999994,1404.0833333333333,114.99999999999994,1406.5,114.99999999999994C1408.9166666666667,114.99999999999994,1411.3333333333333,114.99999999999994,1413.75,114.99999999999994C1416.1666666666667,114.99999999999994,1418.5833333333333,114.99999999999994,1421,114.99999999999994C1423.4166666666667,114.99999999999994,1425.8333333333333,114.99999999999994,1428.25,114.99999999999994C1430.6666666666667,114.99999999999994,1433.0833333333333,114.99999999999994,1435.5,114.99999999999994C1437.9166666666667,114.99999999999994,1440.3333333333333,114.99999999999994,1442.75,114.99999999999994C1445.1666666666667,114.99999999999994,1447.5833333333333,114.99999999999994,1450,114.99999999999994" fill="transparent" stroke-linecap="round" stroke="#B6509E" stroke-width="2"></path><path class="visx-linepath" d="M0,14.375C2.4166666666666665,64.68749999999999,4.833333333333334,114.99999999999999,7.25,114.99999999999999C9.666666666666666,114.99999999999999,12.083333333333334,114.99999999999999,14.5,114.99999999999999C16.916666666666668,114.99999999999999,19.333333333333332,114.99999999999999,21.75,114.99999999999999C24.166666666666668,114.99999999999999,26.583333333333332,114.99999999999999,29,114.99999999999999C31.416666666666668,114.99999999999999,33.833333333333336,114.99999999999999,36.25,114.99999999999999C38.666666666666664,114.99999999999999,41.083333333333336,114.99999999999999,43.5,114.99999999999999C45.91666666666667,114.99999999999999,48.333333333333336,114.99999999999999,50.75000000000001,114.99999999999999C53.16666666666667,114.99999999999999,55.583333333333336,114.99999999999999,58,114.99999999999999C60.416666666666664,114.99999999999999,62.833333333333336,114.99999999999999,65.25,114.99999999999999C67.66666666666667,114.99999999999999,70.08333333333333,114.99999999999999,72.5,114.99999999999999C74.91666666666667,114.99999999999999,77.33333333333333,114.99999999999999,79.75,114.99999999999999C82.16666666666667,114.99999999999999,84.58333333333333,114.99999999999999,87,114.99999999999999C89.41666666666667,114.99999999999999,91.83333333333333,114.99999999999999,94.25,114.99999999999999C96.66666666666667,114.99999999999999,99.08333333333334,114.99999999999999,101.50000000000001,114.99999999999999C103.91666666666667,114.99999999999999,106.33333333333334,114.99999999999999,108.75,114.99999999999999C111.16666666666667,114.99999999999999,113.58333333333333,114.99999999999999,116,114.99999999999999C118.41666666666667,114.99999999999999,120.83333333333334,114.99999999999999,123.25000000000001,114.99999999999999C125.66666666666667,114.99999999999999,128.08333333333334,114.99999999999999,130.5,114.99999999999999C132.91666666666666,114.99999999999999,135.33333333333334,114.99999999999999,137.75,114.99999999999999C140.16666666666666,114.99999999999999,142.58333333333334,114.99999999999999,145,114.99999999999999C147.41666666666666,114.99999999999999,149.83333333333334,114.99999999999999,152.25,114.99999999999999C154.66666666666666,114.99999999999999,157.08333333333334,114.99999999999999,159.5,114.99999999999999C161.91666666666666,114.99999999999999,164.33333333333334,114.99999999999999,166.75,114.99999999999999C169.16666666666666,114.99999999999999,171.58333333333334,114.99999999999999,174,114.99999999999999C176.41666666666666,114.99999999999999,178.83333333333334,114.99999999999999,181.25,114.99999999999999C183.66666666666666,114.99999999999999,186.08333333333334,114.99999999999999,188.5,114.99999999999999C190.91666666666666,114.99999999999999,193.33333333333334,114.99999999999999,195.75,114.99999999999999C198.16666666666669,114.99999999999999,200.58333333333334,114.99999999999999,203.00000000000003,114.99999999999999C205.41666666666669,114.99999999999999,207.83333333333331,114.99999999999999,210.24999999999997,114.99999999999999C212.66666666666666,114.99999999999999,215.08333333333331,114.99999999999999,217.5,114.99999999999999C219.91666666666666,114.99999999999999,222.33333333333334,114.99999999999999,224.75,114.99999999999999C227.16666666666666,114.99999999999999,229.58333333333334,114.99999999999999,232,114.99999999999999C234.41666666666666,114.99999999999999,236.83333333333334,114.99999999999999,239.25,114.99999999999999C241.66666666666669,114.99999999999999,244.08333333333334,114.99999999999999,246.50000000000003,114.99999999999999C248.91666666666669,114.99999999999999,251.33333333333331,114.99999999999999,253.74999999999997,114.99999999999999C256.16666666666663,114.99999999999999,258.5833333333333,114.99999999999997,261,114.99999999999997C263.4166666666667,114.99999999999997,265.8333333333333,114.99999999999997,268.25,114.99999999999997C270.6666666666667,114.99999999999997,273.0833333333333,114.99999999999997,275.5,114.99999999999997C277.9166666666667,114.99999999999997,280.3333333333333,114.99999999999997,282.75,114.99999999999997C285.1666666666667,114.99999999999997,287.5833333333333,114.99999999999997,290,114.99999999999997C292.4166666666667,114.99999999999997,294.8333333333333,114.99999999999997,297.25,114.99999999999997C299.6666666666667,114.99999999999997,302.0833333333333,114.99999999999997,304.5,114.99999999999997C306.9166666666667,114.99999999999997,309.3333333333333,114.99999999999997,311.75,114.99999999999997C314.1666666666667,114.99999999999997,316.5833333333333,114.99999999999997,319,114.99999999999997C321.4166666666667,114.99999999999997,323.8333333333333,114.99999999999997,326.25,114.99999999999997C328.6666666666667,114.99999999999997,331.0833333333333,114.99999999999997,333.5,114.99999999999997C335.9166666666667,114.99999999999997,338.3333333333333,114.99999999999997,340.75,114.99999999999997C343.1666666666667,114.99999999999997,345.5833333333333,114.99999999999997,348,114.99999999999997C350.4166666666667,114.99999999999997,352.8333333333333,114.99999999999997,355.25,114.99999999999997C357.6666666666667,114.99999999999997,360.0833333333333,114.99999999999997,362.5,114.99999999999997C364.9166666666667,114.99999999999997,367.3333333333333,114.99999999999997,369.75,114.99999999999997C372.1666666666667,114.99999999999997,374.5833333333333,114.99999999999997,377,114.99999999999997C379.4166666666667,114.99999999999997,381.8333333333333,114.99999999999997,384.25,114.99999999999997C386.6666666666667,114.99999999999997,389.0833333333333,114.99999999999997,391.5,114.99999999999997C393.9166666666667,114.99999999999997,396.33333333333337,114.99999999999997,398.75000000000006,114.99999999999997C401.16666666666674,114.99999999999997,403.58333333333337,114.99999999999997,406.00000000000006,114.99999999999997C408.4166666666667,114.99999999999997,410.8333333333333,114.99999999999997,413.24999999999994,114.99999999999997C415.66666666666663,114.99999999999997,418.08333333333326,114.99999999999997,420.49999999999994,114.99999999999997C422.91666666666663,114.99999999999997,425.3333333333333,114.99999999999997,427.75,114.99999999999997C430.1666666666667,114.99999999999997,432.5833333333333,114.99999999999997,435,114.99999999999997C437.4166666666667,114.99999999999997,439.8333333333333,114.99999999999997,442.25,114.99999999999997C444.6666666666667,114.99999999999997,447.0833333333333,114.99999999999997,449.5,114.99999999999997C451.9166666666667,114.99999999999997,454.3333333333333,114.99999999999997,456.75,114.99999999999997C459.1666666666667,114.99999999999997,461.5833333333333,114.99999999999997,464,114.99999999999997C466.4166666666667,114.99999999999997,468.8333333333333,114.99999999999997,471.25,114.99999999999997C473.6666666666667,114.99999999999997,476.0833333333333,114.99999999999997,478.5,114.99999999999997C480.9166666666667,114.99999999999997,483.33333333333337,114.99999999999997,485.75000000000006,114.99999999999997C488.16666666666674,114.99999999999997,490.58333333333337,114.99999999999997,493.00000000000006,114.99999999999997C495.4166666666667,114.99999999999997,497.8333333333333,114.99999999999997,500.24999999999994,114.99999999999997C502.66666666666663,114.99999999999997,505.08333333333326,114.99999999999997,507.49999999999994,114.99999999999997C509.91666666666663,114.99999999999997,512.3333333333333,114.99999999999997,514.75,114.99999999999997C517.1666666666666,114.99999999999997,519.5833333333334,114.99999999999997,522,114.99999999999997C524.4166666666666,114.99999999999997,526.8333333333334,114.99999999999997,529.25,114.99999999999997C531.6666666666666,114.99999999999997,534.0833333333334,114.99999999999997,536.5,114.99999999999997C538.9166666666666,114.99999999999997,541.3333333333334,114.99999999999997,543.75,114.99999999999997C546.1666666666666,114.99999999999997,548.5833333333334,114.99999999999997,551,114.99999999999997C553.4166666666666,114.99999999999997,555.8333333333334,114.99999999999997,558.25,114.99999999999997C560.6666666666666,114.99999999999997,563.0833333333334,114.99999999999997,565.5,114.99999999999997C567.9166666666666,114.99999999999997,570.3333333333334,114.99999999999997,572.75,114.99999999999997C575.1666666666666,114.99999999999997,577.5833333333334,114.99999999999997,580,114.99999999999997C582.4166666666666,114.99999999999997,584.8333333333334,114.99999999999997,587.25,114.99999999999997C589.6666666666666,114.99999999999997,592.0833333333334,114.99999999999997,594.5,114.99999999999997C596.9166666666666,114.99999999999997,599.3333333333334,114.99999999999997,601.75,114.99999999999997C604.1666666666666,114.99999999999997,606.5833333333334,114.99999999999997,609,114.99999999999997C611.4166666666666,114.99999999999997,613.8333333333334,114.99999999999997,616.25,114.99999999999997C618.6666666666666,114.99999999999997,621.0833333333334,114.99999999999997,623.5,114.99999999999997C625.9166666666666,114.99999999999997,628.3333333333334,114.99999999999997,630.75,114.99999999999997C633.1666666666666,114.99999999999997,635.5833333333334,114.99999999999997,638,114.99999999999997C640.4166666666666,114.99999999999997,642.8333333333334,114.99999999999997,645.25,114.99999999999997C647.6666666666666,114.99999999999997,650.0833333333334,114.99999999999997,652.5,114.99999999999997C654.9166666666666,114.99999999999997,657.3333333333334,114.99999999999997,659.75,114.99999999999997C662.1666666666666,114.99999999999997,664.5833333333334,114.99999999999997,667,114.99999999999997C669.4166666666666,114.99999999999997,671.8333333333334,114.99999999999997,674.25,114.99999999999997C676.6666666666666,114.99999999999997,679.0833333333334,114.99999999999997,681.5,114.99999999999997C683.9166666666666,114.99999999999997,686.3333333333334,114.99999999999996,688.75,114.99999999999996C691.1666666666666,114.99999999999996,693.5833333333334,114.99999999999996,696,114.99999999999996C698.4166666666666,114.99999999999996,700.8333333333334,114.99999999999996,703.25,114.99999999999996C705.6666666666666,114.99999999999996,708.0833333333334,114.99999999999996,710.5,114.99999999999996C712.9166666666666,114.99999999999996,715.3333333333334,114.99999999999996,717.75,114.99999999999996C720.1666666666666,114.99999999999996,722.5833333333334,114.99999999999996,725,114.99999999999996C727.4166666666666,114.99999999999996,729.8333333333334,114.99999999999996,732.25,114.99999999999996C734.6666666666666,114.99999999999996,737.0833333333334,114.99999999999996,739.5,114.99999999999996C741.9166666666666,114.99999999999996,744.3333333333334,114.99999999999996,746.75,114.99999999999996C749.1666666666666,114.99999999999996,751.5833333333334,114.99999999999996,754,114.99999999999996C756.4166666666666,114.99999999999996,758.8333333333334,114.99999999999996,761.25,114.99999999999996C763.6666666666666,114.99999999999996,766.0833333333334,114.99999999999996,768.5,114.99999999999996C770.9166666666666,114.99999999999996,773.3333333333334,114.99999999999996,775.75,114.99999999999996C778.1666666666666,114.99999999999996,780.5833333333334,114.99999999999996,783,114.99999999999996C785.4166666666667,114.99999999999996,787.8333333333334,114.99999999999996,790.2500000000001,114.99999999999996C792.6666666666667,114.99999999999996,795.0833333333335,114.99999999999996,797.5000000000001,114.99999999999996C799.9166666666667,114.99999999999996,802.3333333333335,114.99999999999996,804.7500000000001,114.99999999999996C807.1666666666667,114.99999999999996,809.5833333333335,114.99999999999996,812.0000000000001,114.99999999999996C814.4166666666667,114.99999999999996,816.8333333333333,114.99999999999996,819.2499999999999,114.99999999999996C821.6666666666665,114.99999999999996,824.0833333333333,114.99999999999996,826.4999999999999,114.99999999999996C828.9166666666665,114.99999999999996,831.3333333333333,114.99999999999996,833.7499999999999,114.99999999999996C836.1666666666665,114.99999999999996,838.5833333333333,114.99999999999996,840.9999999999999,114.99999999999996C843.4166666666666,114.99999999999996,845.8333333333333,114.99999999999996,848.25,114.99999999999996C850.6666666666666,114.99999999999996,853.0833333333334,114.99999999999996,855.5,114.99999999999996C857.9166666666666,114.99999999999996,860.3333333333334,114.99999999999996,862.75,114.99999999999996C865.1666666666666,114.99999999999996,867.5833333333334,114.99999999999996,870,114.99999999999996C872.4166666666666,114.99999999999996,874.8333333333334,114.99999999999996,877.25,114.99999999999996C879.6666666666666,114.99999999999996,882.0833333333334,114.99999999999996,884.5,114.99999999999996C886.9166666666666,114.99999999999996,889.3333333333334,114.99999999999996,891.75,114.99999999999996C894.1666666666666,114.99999999999996,896.5833333333334,114.99999999999996,899,114.99999999999996C901.4166666666666,114.99999999999996,903.8333333333334,114.99999999999996,906.25,114.99999999999996C908.6666666666666,114.99999999999996,911.0833333333334,114.99999999999996,913.5,114.99999999999996C915.9166666666666,114.99999999999996,918.3333333333334,114.99999999999996,920.75,114.99999999999996C923.1666666666666,114.99999999999996,925.5833333333334,114.99999999999996,928,114.99999999999996C930.4166666666666,114.99999999999996,932.8333333333334,114.99999999999996,935.25,114.99999999999996C937.6666666666666,114.99999999999996,940.0833333333334,114.99999999999996,942.5,114.99999999999996C944.9166666666666,114.99999999999996,947.3333333333334,114.99999999999996,949.75,114.99999999999996C952.1666666666666,114.99999999999996,954.5833333333334,114.99999999999996,957,114.99999999999996C959.4166666666666,114.99999999999996,961.8333333333334,114.99999999999996,964.25,114.99999999999996C966.6666666666667,114.99999999999996,969.0833333333334,114.99999999999996,971.5000000000001,114.99999999999996C973.9166666666667,114.99999999999996,976.3333333333335,114.99999999999996,978.7500000000001,114.99999999999996C981.1666666666667,114.99999999999996,983.5833333333335,114.99999999999996,986.0000000000001,114.99999999999996C988.4166666666667,114.99999999999996,990.8333333333335,114.99999999999996,993.2500000000001,114.99999999999996C995.6666666666667,114.99999999999996,998.0833333333333,114.99999999999996,1000.4999999999999,114.99999999999996C1002.9166666666665,114.99999999999996,1005.3333333333333,114.99999999999996,1007.7499999999999,114.99999999999996C1010.1666666666665,114.99999999999996,1012.5833333333333,114.99999999999996,1014.9999999999999,114.99999999999996C1017.4166666666665,114.99999999999996,1019.8333333333333,114.99999999999996,1022.2499999999999,114.99999999999996C1024.6666666666665,114.99999999999996,1027.0833333333333,114.99999999999996,1029.5,114.99999999999996C1031.9166666666667,114.99999999999996,1034.3333333333333,114.99999999999996,1036.75,114.99999999999996C1039.1666666666667,114.99999999999996,1041.5833333333333,114.99999999999996,1044,114.99999999999996C1046.4166666666667,114.99999999999996,1048.8333333333333,114.99999999999996,1051.25,114.99999999999996C1053.6666666666667,114.99999999999996,1056.0833333333333,114.99999999999996,1058.5,114.99999999999996C1060.9166666666667,114.99999999999996,1063.3333333333333,114.99999999999996,1065.75,114.99999999999996C1068.1666666666667,114.99999999999996,1070.5833333333333,114.99999999999996,1073,114.99999999999996C1075.4166666666667,114.99999999999996,1077.8333333333333,114.99999999999996,1080.25,114.99999999999996C1082.6666666666667,114.99999999999996,1085.0833333333333,114.99999999999996,1087.5,114.99999999999996C1089.9166666666667,114.99999999999996,1092.3333333333333,114.99999999999996,1094.75,114.99999999999996C1097.1666666666667,114.99999999999996,1099.5833333333333,114.99999999999996,1102,114.99999999999996C1104.4166666666667,114.99999999999996,1106.8333333333333,114.99999999999996,1109.25,114.99999999999996C1111.6666666666667,114.99999999999996,1114.0833333333333,114.99999999999994,1116.5,114.99999999999994C1118.9166666666667,114.99999999999994,1121.3333333333333,114.99999999999994,1123.75,114.99999999999994C1126.1666666666667,114.99999999999994,1128.5833333333333,114.99999999999994,1131,114.99999999999994C1133.4166666666667,114.99999999999994,1135.8333333333333,114.99999999999994,1138.25,114.99999999999994C1140.6666666666667,114.99999999999994,1143.0833333333333,114.99999999999994,1145.5,114.99999999999994C1147.9166666666667,114.99999999999994,1150.3333333333333,114.99999999999994,1152.75,114.99999999999994C1155.1666666666667,114.99999999999994,1157.5833333333333,114.99999999999994,1160,114.99999999999994C1162.4166666666667,114.99999999999994,1164.8333333333333,114.99999999999994,1167.25,114.99999999999994C1169.6666666666667,114.99999999999994,1172.0833333333333,114.99999999999994,1174.5,114.99999999999994C1176.9166666666667,114.99999999999994,1179.3333333333333,114.99999999999994,1181.75,114.99999999999994C1184.1666666666667,114.99999999999994,1186.5833333333333,114.99999999999994,1189,114.99999999999994C1191.4166666666667,114.99999999999994,1193.8333333333333,114.99999999999994,1196.25,114.99999999999994C1198.6666666666667,114.99999999999994,1201.0833333333333,114.99999999999994,1203.5,114.99999999999994C1205.9166666666667,114.99999999999994,1208.3333333333333,114.99999999999994,1210.75,114.99999999999994C1213.1666666666667,114.99999999999994,1215.5833333333333,114.99999999999994,1218,114.99999999999994C1220.4166666666667,114.99999999999994,1222.8333333333333,114.99999999999994,1225.25,114.99999999999994C1227.6666666666667,114.99999999999994,1230.0833333333333,114.99999999999994,1232.5,114.99999999999994C1234.9166666666667,114.99999999999994,1237.3333333333333,114.99999999999994,1239.75,114.99999999999994C1242.1666666666667,114.99999999999994,1244.5833333333333,114.99999999999994,1247,114.99999999999994C1249.4166666666667,114.99999999999994,1251.8333333333333,114.99999999999994,1254.25,114.99999999999994C1256.6666666666667,114.99999999999994,1259.0833333333333,114.99999999999994,1261.5,114.99999999999994C1263.9166666666667,114.99999999999994,1266.3333333333333,114.99999999999994,1268.75,114.99999999999994C1271.1666666666667,114.99999999999994,1273.5833333333333,114.99999999999994,1276,114.99999999999994C1278.4166666666667,114.99999999999994,1280.8333333333333,114.99999999999994,1283.25,114.99999999999994C1285.6666666666667,114.99999999999994,1288.0833333333333,114.99999999999994,1290.5,114.99999999999994C1292.9166666666667,114.99999999999994,1295.3333333333333,114.99999999999994,1297.75,114.99999999999994C1300.1666666666667,114.99999999999994,1302.5833333333333,114.99999999999994,1305,114.99999999999994C1307.4166666666667,114.99999999999994,1309.8333333333333,114.99999999999994,1312.25,114.99999999999994C1314.6666666666667,114.99999999999994,1317.0833333333333,114.99999999999994,1319.5,114.99999999999994C1321.9166666666667,114.99999999999994,1324.3333333333333,114.99999999999994,1326.75,114.99999999999994C1329.1666666666667,114.99999999999994,1331.5833333333333,114.99999999999994,1334,114.99999999999994C1336.4166666666667,114.99999999999994,1338.8333333333333,114.99999999999994,1341.25,114.99999999999994C1343.6666666666667,114.99999999999994,1346.0833333333333,114.99999999999994,1348.5,114.99999999999994C1350.9166666666667,114.99999999999994,1353.3333333333333,114.99999999999994,1355.75,114.99999999999994C1358.1666666666667,114.99999999999994,1360.5833333333333,114.99999999999994,1363,114.99999999999994C1365.4166666666667,114.99999999999994,1367.8333333333333,114.99999999999994,1370.25,114.99999999999994C1372.6666666666667,114.99999999999994,1375.0833333333333,114.99999999999994,1377.5,114.99999999999994C1379.9166666666667,114.99999999999994,1382.3333333333333,114.99999999999994,1384.75,114.99999999999994C1387.1666666666667,114.99999999999994,1389.5833333333333,114.99999999999994,1392,114.99999999999994C1394.4166666666667,114.99999999999994,1396.8333333333333,114.99999999999994,1399.25,114.99999999999994C1401.6666666666667,114.99999999999994,1404.0833333333333,114.99999999999994,1406.5,114.99999999999994C1408.9166666666667,114.99999999999994,1411.3333333333333,114.99999999999994,1413.75,114.99999999999994C1416.1666666666667,114.99999999999994,1418.5833333333333,114.99999999999994,1421,114.99999999999994C1423.4166666666667,114.99999999999994,1425.8333333333333,114.99999999999994,1428.25,114.99999999999994C1430.6666666666667,114.99999999999994,1433.0833333333333,114.99999999999994,1435.5,114.99999999999994C1437.9166666666667,114.99999999999994,1440.3333333333333,114.99999999999994,1442.75,114.99999999999994C1445.1666666666667,114.99999999999994,1447.5833333333333,114.99999999999994,1450,114.99999999999994" fill="transparent" stroke-linecap="round" stroke="#E7C6DF" stroke-width="2"></path><g class="visx-group visx-axis visx-axis-bottom" transform="translate(0, 115)"><g class="visx-group visx-axis-tick" transform="translate(0, 0)"><line class="visx-line" x1="0" y1="0" x2="0" y2="8" fill="transparent" shape-rendering="crispEdges" stroke="#000" stroke-width="0" stroke-linecap="square"></line><svg x="0" y="0" font-size="10" style="overflow:visible"><text transform="" x="0" y="18" fill="#000" font-size="10" text-anchor="middle"><tspan x="0" dy="0em">0%</tspan></text></svg></g><g class="visx-group visx-axis-tick" transform="translate(0, 0)"><line class="visx-line" x1="362.5" y1="0" x2="362.5" y2="8" fill="transparent" shape-rendering="crispEdges" stroke="#000" stroke-width="0" stroke-linecap="square"></line><svg x="0" y="0" font-size="10" style="overflow:visible"><text transform="" x="362.5" y="18" fill="#000" font-size="10" text-anchor="middle"><tspan x="362.5" dy="0em">25%</tspan></text></svg></g><g class="visx-group visx-axis-tick" transform="translate(0, 0)"><line class="visx-line" x1="725" y1="0" x2="725" y2="8" fill="transparent" shape-rendering="crispEdges" stroke="#000" stroke-width="0" stroke-linecap="square"></line><svg x="0" y="0" font-size="10" style="overflow:visible"><text transform="" x="725" y="18" fill="#000" font-size="10" text-anchor="middle"><tspan x="725" dy="0em">50%</tspan></text></svg></g><g class="visx-group visx-axis-tick" transform="translate(0, 0)"><line class="visx-line" x1="1087.5" y1="0" x2="1087.5" y2="8" fill="transparent" shape-rendering="crispEdges" stroke="#000" stroke-width="0" stroke-linecap="square"></line><svg x="0" y="0" font-size="10" style="overflow:visible"><text transform="" x="1087.5" y="18" fill="#000" font-size="10" text-anchor="middle"><tspan x="1087.5" dy="0em">75%</tspan></text></svg></g><g class="visx-group visx-axis-tick" transform="translate(0, 0)"><line class="visx-line" x1="1450" y1="0" x2="1450" y2="8" fill="transparent" shape-rendering="crispEdges" stroke="#000" stroke-width="0" stroke-linecap="square"></line><svg x="0" y="0" font-size="10" style="overflow:visible"><text transform="" x="1450" y="18" fill="#000" font-size="10" text-anchor="middle"><tspan x="1450" dy="0em">100%</tspan></text></svg></g><line class="visx-line visx-axis-line" x1="0.5" y1="0" x2="1450.5" y2="0" fill="transparent" shape-rendering="crispEdges" stroke="#222" stroke-width="0"></line></g><g class="visx-group visx-axis visx-axis-left" transform="translate(0, 0)"><g class="visx-group visx-axis-tick" transform="translate(0, 0)"><line class="visx-line" x1="0" y1="115" x2="-8" y2="115" fill="transparent" shape-rendering="crispEdges" stroke="#222" stroke-width="0" stroke-linecap="square"></line><svg x="-30" y="0" font-size="8" style="overflow:visible"><text transform="" x="-8" y="115" fill="#000" font-size="8" text-anchor="start"><tspan x="-8" dy="0em">0%</tspan></text></svg></g><g class="visx-group visx-axis-tick" transform="translate(0, 0)"><line class="visx-line" x1="0" y1="43.125" x2="-8" y2="43.125" fill="transparent" shape-rendering="crispEdges" stroke="#222" stroke-width="0" stroke-linecap="square"></line><svg x="-30" y="0" font-size="8" style="overflow:visible"><text transform="" x="-8" y="43.125" fill="#000" font-size="8" text-anchor="start"><tspan x="-8" dy="0em">500000000000000000%</tspan></text></svg></g><line class="visx-line visx-axis-line" x1="0" y1="115.5" x2="0" y2="0.5" fill="transparent" shape-rendering="crispEdges" stroke="#222" stroke-width="0"></line></g><rect class="visx-bar" width="1450" height="115" fill="transparent"></rect><line class="visx-line" x1="1.4500000000000001e-24" y1="28" x2="1.4500000000000001e-24" y2="115" fill="transparent" shape-rendering="crispEdges" stroke="#0062D2" stroke-width="1" pointer-events="none" stroke-dasharray="5,2"></line><svg x="0" y="0" font-size="10px" style="overflow:visible"><text transform="" x="1.4500000000000001e-24" y="20" font-size="10px" fill="#fff" stroke="#fff" stroke-width="0.8em" text-anchor="middle"><tspan x="1.4500000000000001e-24" dy="0.355em">Optimal 1e-25%</tspan></text></svg><svg x="0" y="0" font-size="10px" style="overflow:visible"><text transform="" x="1.4500000000000001e-24" y="20" font-size="10px" fill="#62677B" text-anchor="middle"><tspan x="1.4500000000000001e-24" dy="0.355em">Optimal 1e-25%</tspan></text></svg></g></svg>