<?xml version="1.0"?><svg xmlns="http://www.w3.org/2000/svg" xmlns:xlink= "http://www.w3.org/1999/xlink" style="background: white;" width="1500" height="185"> <g style="color: black; font-size: 13px; font-family: sans-serif; transform: translate(18px, 25px);"><g><circle r="3" cx="-6" cy="-5" style="fill: #B6509E" /><text>Borrow APR, variable</text></g><g style="transform: translateX(150px);"><circle r="3" cx="-6" cy="-5" style="fill: rgb(231, 198, 223)" /><text>Borrow APR, stable</text></g><g style="transform: translateX(290px);"><circle r="3" cx="-6" cy="-5" style="fill: rgb(0, 98, 210)" /><text>Utilization Rate</text></g></g><g class="visx-group" transform="translate(40, 50)"><g class="visx-group visx-rows" transform="translate(0, 0)"><line class="visx-line" x1="0" y1="115" x2="1450" y2="115" fill="transparent" shape-rendering="crispEdges" stroke="#000" stroke-width="1" stroke-dasharray="3,3" pointer-events="none"></line><line class="visx-line" x1="0" y1="82.14285714285714" x2="1450" y2="82.14285714285714" fill="transparent" shape-rendering="crispEdges" stroke="#000" stroke-width="1" stroke-dasharray="3,3" pointer-events="none"></line><line class="visx-line" x1="0" y1="49.28571428571429" x2="1450" y2="49.28571428571429" fill="transparent" shape-rendering="crispEdges" stroke="#000" stroke-width="1" stroke-dasharray="3,3" pointer-events="none"></line><line class="visx-line" x1="0" y1="16.428571428571434" x2="1450" y2="16.428571428571434" fill="transparent" shape-rendering="crispEdges" stroke="#000" stroke-width="1" stroke-dasharray="3,3" pointer-events="none"></line></g><path class="visx-linepath" d="M0,114.9999999999489C2.4166666666666665,114.99148148145167,4.833333333333334,114.98296296295445,7.25,114.97444444444444C9.666666666666666,114.96592592593444,12.083333333333334,114.9574074074074,14.5,114.94888888888889C16.916666666666668,114.94037037037037,19.333333333333332,114.93185185185185,21.75,114.92333333333333C24.166666666666668,114.91481481481482,26.583333333333332,114.90629629629629,29,114.89777777777778C31.416666666666668,114.88925925925926,33.833333333333336,114.88074074074075,36.25,114.87222222222223C38.666666666666664,114.86370370370372,41.083333333333336,114.85518518518518,43.5,114.84666666666666C45.91666666666667,114.83814814814814,48.333333333333336,114.82962962962962,50.75000000000001,114.82111111111111C53.16666666666667,114.8125925925926,55.583333333333336,114.80407407407407,58,114.79555555555555C60.416666666666664,114.78703703703704,62.833333333333336,114.77851851851851,65.25,114.77C67.66666666666667,114.76148148148148,70.08333333333333,114.75296296296295,72.5,114.74444444444444C74.91666666666667,114.73592592592593,77.33333333333333,114.7274074074074,79.75,114.71888888888888C82.16666666666667,114.71037037037037,84.58333333333333,114.70185185185184,87,114.69333333333333C89.41666666666667,114.68481481481481,91.83333333333333,114.67629629629629,94.25,114.66777777777777C96.66666666666667,114.65925925925926,99.08333333333334,114.65074074074074,101.50000000000001,114.64222222222223C103.91666666666667,114.63370370370372,106.33333333333334,114.62518518518519,108.75,114.61666666666667C111.16666666666667,114.60814814814816,113.58333333333333,114.59962962962963,116,114.59111111111112C118.41666666666667,114.5825925925926,120.83333333333334,114.57407407407408,123.25000000000001,114.56555555555556C125.66666666666667,114.55703703703705,128.08333333333334,114.54851851851852,130.5,114.54C132.91666666666666,114.53148148148148,135.33333333333334,114.52296296296296,137.75,114.51444444444444C140.16666666666666,114.50592592592591,142.58333333333334,114.4974074074074,145,114.48888888888888C147.41666666666666,114.48037037037037,149.83333333333334,114.47185185185184,152.25,114.46333333333332C154.66666666666666,114.45481481481481,157.08333333333334,114.44629629629628,159.5,114.43777777777777C161.91666666666666,114.42925925925925,164.33333333333334,114.42074074074074,166.75,114.41222222222223C169.16666666666666,114.40370370370371,171.58333333333334,114.39518518518518,174,114.38666666666667C176.41666666666666,114.37814814814816,178.83333333333334,114.36962962962963,181.25,114.36111111111111C183.66666666666666,114.3525925925926,186.08333333333334,114.34407407407407,188.5,114.33555555555556C190.91666666666666,114.32703703703704,193.33333333333334,114.31851851851852,195.75,114.31C198.16666666666669,114.30148148148149,200.58333333333334,114.29296296296296,203.00000000000003,114.28444444444445C205.41666666666669,114.27592592592593,207.83333333333331,114.2674074074074,210.24999999999997,114.25888888888889C212.66666666666666,114.25037037037038,215.08333333333331,114.24185185185185,217.5,114.23333333333333C219.91666666666666,114.22481481481482,222.33333333333334,114.21629629629629,224.75,114.20777777777778C227.16666666666666,114.19925925925926,229.58333333333334,114.19074074074074,232,114.18222222222222C234.41666666666666,114.17370370370371,236.83333333333334,114.16518518518518,239.25,114.15666666666667C241.66666666666669,114.14814814814815,244.08333333333334,114.13962962962962,246.50000000000003,114.13111111111111C248.91666666666669,114.1225925925926,251.33333333333331,114.11407407407407,253.74999999999997,114.10555555555555C256.16666666666663,114.09703703703704,258.5833333333333,114.08851851851851,261,114.08C263.4166666666667,114.07148148148148,265.8333333333333,114.06296296296296,268.25,114.05444444444444C270.6666666666667,114.04592592592593,273.0833333333333,114.0374074074074,275.5,114.02888888888889C277.9166666666667,114.02037037037037,280.3333333333333,114.01185185185184,282.75,114.00333333333333C285.1666666666667,113.99481481481482,287.5833333333333,113.9862962962963,290,113.97777777777779C292.4166666666667,113.96925925925927,294.8333333333333,113.96074074074075,297.25,113.95222222222223C299.6666666666667,113.94370370370372,302.0833333333333,113.93518518518519,304.5,113.92666666666668C306.9166666666667,113.91814814814816,309.3333333333333,113.90962962962962,311.75,113.9011111111111C314.1666666666667,113.89259259259259,316.5833333333333,113.88407407407406,319,113.87555555555555C321.4166666666667,113.86703703703704,323.8333333333333,113.85851851851851,326.25,113.85C328.6666666666667,113.84148148148148,331.0833333333333,113.83296296296295,333.5,113.82444444444444C335.9166666666667,113.81592592592592,338.3333333333333,113.8074074074074,340.75,113.79888888888888C343.1666666666667,113.79037037037037,345.5833333333333,113.78185185185184,348,113.77333333333333C350.4166666666667,113.76481481481481,352.8333333333333,113.7562962962963,355.25,113.74777777777778C357.6666666666667,113.73925925925927,360.0833333333333,113.73074074074074,362.5,113.72222222222223C364.9166666666667,113.71370370370371,367.3333333333333,113.70518518518519,369.75,113.69666666666667C372.1666666666667,113.68814814814816,374.5833333333333,113.67962962962963,377,113.67111111111112C379.4166666666667,113.6625925925926,381.8333333333333,113.65407407407407,384.25,113.64555555555556C386.6666666666667,113.63703703703705,389.0833333333333,113.62851851851852,391.5,113.62C393.9166666666667,113.61148148148149,396.33333333333337,113.60296296296298,398.75000000000006,113.59444444444445C401.16666666666674,113.58592592592593,403.58333333333337,113.5774074074074,406.00000000000006,113.56888888888888C408.4166666666667,113.56037037037036,410.8333333333333,113.55185185185184,413.24999999999994,113.54333333333332C415.66666666666663,113.53481481481481,418.08333333333326,113.5262962962963,420.49999999999994,113.51777777777778C422.91666666666663,113.50925925925927,425.3333333333333,113.50074074074074,427.75,113.49222222222222C430.1666666666667,113.48370370370371,432.5833333333333,113.47518518518518,435,113.46666666666667C437.4166666666667,113.45814814814815,439.8333333333333,113.44962962962963,442.25,113.44111111111111C444.6666666666667,113.4325925925926,447.0833333333333,113.42407407407407,449.5,113.41555555555556C451.9166666666667,113.40703703703704,454.3333333333333,113.39851851851851,456.75,113.39C459.1666666666667,113.38148148148149,461.5833333333333,113.37296296296296,464,113.36444444444444C466.4166666666667,113.35592592592593,468.8333333333333,113.3474074074074,471.25,113.33888888888889C473.6666666666667,113.33037037037037,476.0833333333333,113.32185185185185,478.5,113.31333333333333C480.9166666666667,113.30481481481482,483.33333333333337,113.29629629629629,485.75000000000006,113.28777777777778C488.16666666666674,113.27925925925926,490.58333333333337,113.27074074074073,493.00000000000006,113.26222222222222C495.4166666666667,113.2537037037037,497.8333333333333,113.24518518518518,500.24999999999994,113.23666666666666C502.66666666666663,113.22814814814815,505.08333333333326,113.21962962962962,507.49999999999994,113.21111111111111C509.91666666666663,113.2025925925926,512.3333333333333,113.19407407407407,514.75,113.18555555555555C517.1666666666666,113.17703703703704,519.5833333333334,113.16851851851851,522,113.16C524.4166666666666,113.15148148148148,526.8333333333334,113.14296296296295,529.25,113.13444444444444C531.6666666666666,113.12592592592593,534.0833333333334,113.1174074074074,536.5,113.10888888888888C538.9166666666666,113.10037037037037,541.3333333333334,113.09185185185184,543.75,113.08333333333333C546.1666666666666,113.07481481481481,548.5833333333334,113.0662962962963,551,113.05777777777779C553.4166666666666,113.04925925925927,555.8333333333334,113.04074074074074,558.25,113.03222222222223C560.6666666666666,113.02370370370372,563.0833333333334,113.01518518518519,565.5,113.00666666666667C567.9166666666666,112.99814814814816,570.3333333333334,112.98962962962963,572.75,112.98111111111112C575.1666666666666,112.9725925925926,577.5833333333334,112.96407407407406,580,112.95555555555555C582.4166666666666,112.94703703703703,584.8333333333334,112.9385185185185,587.25,112.92999999999999C589.6666666666666,112.92148148148148,592.0833333333334,112.91296296296295,594.5,112.90444444444444C596.9166666666666,112.89592592592592,599.3333333333334,112.8874074074074,601.75,112.87888888888888C604.1666666666666,112.87037037037037,606.5833333333334,112.86185185185185,609,112.85333333333334C611.4166666666666,112.84481481481482,613.8333333333334,112.8362962962963,616.25,112.82777777777778C618.6666666666666,112.81925925925927,621.0833333333334,112.81074074074074,623.5,112.80222222222223C625.9166666666666,112.79370370370371,628.3333333333334,112.78518518518518,630.75,112.77666666666667C633.1666666666666,112.76814814814816,635.5833333333334,112.75962962962963,638,112.75111111111111C640.4166666666666,112.7425925925926,642.8333333333334,112.73407407407407,645.25,112.72555555555556C647.6666666666666,112.71703703703704,650.0833333333334,112.71703703703704,652.5,112.7C654.9166666666666,112.68296296296296,657.3333333333334,112.10259740259741,659.75,111.80389610389611C662.1666666666666,111.5051948051948,664.5833333333334,111.2064935064935,667,110.9077922077922C669.4166666666666,110.6090909090909,671.8333333333334,110.3103896103896,674.25,110.0116883116883C676.6666666666666,109.712987012987,679.0833333333334,109.41428571428571,681.5,109.11558441558441C683.9166666666666,108.8168831168831,686.3333333333334,108.51818181818182,688.75,108.21948051948051C691.1666666666666,107.92077922077921,693.5833333333334,107.62207792207792,696,107.32337662337662C698.4166666666666,107.02467532467531,700.8333333333334,106.72597402597403,703.25,106.42727272727272C705.6666666666666,106.12857142857142,708.0833333333334,105.82987012987013,710.5,105.53116883116883C712.9166666666666,105.23246753246752,715.3333333333334,104.93376623376624,717.75,104.63506493506493C720.1666666666666,104.33636363636363,722.5833333333334,104.03766233766234,725,103.73896103896104C727.4166666666666,103.44025974025973,729.8333333333334,103.14155844155844,732.25,102.84285714285714C734.6666666666666,102.54415584415584,737.0833333333334,102.24545454545455,739.5,101.94675324675325C741.9166666666666,101.64805194805194,744.3333333333334,101.34935064935065,746.75,101.05064935064935C749.1666666666666,100.75194805194805,751.5833333333334,100.45324675324675,754,100.15454545454544C756.4166666666666,99.85584415584414,758.8333333333334,99.55714285714286,761.25,99.25844155844156C763.6666666666666,98.95974025974026,766.0833333333334,98.66103896103895,768.5,98.36233766233765C770.9166666666666,98.06363636363635,773.3333333333334,97.76493506493507,775.75,97.46623376623377C778.1666666666666,97.16753246753247,780.5833333333334,96.86883116883115,783,96.57012987012986C785.4166666666667,96.27142857142856,787.8333333333334,95.97272727272728,790.2500000000001,95.67402597402598C792.6666666666667,95.37532467532469,795.0833333333335,95.07662337662337,797.5000000000001,94.77792207792207C799.9166666666667,94.47922077922077,802.3333333333335,94.18051948051948,804.7500000000001,93.88181818181819C807.1666666666667,93.5831168831169,809.5833333333335,93.2844155844156,812.0000000000001,92.9857142857143C814.4166666666667,92.687012987013,816.8333333333333,92.3883116883117,819.2499999999999,92.0896103896104C821.6666666666665,91.7909090909091,824.0833333333333,91.4922077922078,826.4999999999999,91.19350649350649C828.9166666666665,90.89480519480519,831.3333333333333,90.5961038961039,833.7499999999999,90.2974025974026C836.1666666666665,89.99870129870129,838.5833333333333,89.69999999999999,840.9999999999999,89.4012987012987C843.4166666666666,89.1025974025974,845.8333333333333,88.80389610389611,848.25,88.5051948051948C850.6666666666666,88.2064935064935,853.0833333333334,87.90779220779221,855.5,87.60909090909091C857.9166666666666,87.3103896103896,860.3333333333334,87.01168831168832,862.75,86.71298701298701C865.1666666666666,86.41428571428571,867.5833333333334,86.11558441558442,870,85.81688311688312C872.4166666666666,85.51818181818182,874.8333333333334,85.21948051948053,877.25,84.92077922077922C879.6666666666666,84.62207792207792,882.0833333333334,84.32337662337662,884.5,84.02467532467531C886.9166666666666,83.72597402597401,889.3333333333334,83.42727272727272,891.75,83.12857142857143C894.1666666666666,82.82987012987014,896.5833333333334,82.53116883116884,899,82.23246753246754C901.4166666666666,81.93376623376624,903.8333333333334,81.63506493506495,906.25,81.33636363636364C908.6666666666666,81.03766233766234,911.0833333333334,80.73896103896104,913.5,80.44025974025973C915.9166666666666,80.14155844155843,918.3333333333334,79.84285714285714,920.75,79.54415584415584C923.1666666666666,79.24545454545454,925.5833333333334,78.94675324675325,928,78.64805194805194C930.4166666666666,78.34935064935064,932.8333333333334,78.05064935064935,935.25,77.75194805194805C937.6666666666666,77.45324675324675,940.0833333333334,77.15454545454546,942.5,76.85584415584415C944.9166666666666,76.55714285714285,947.3333333333334,76.25844155844156,949.75,75.95974025974026C952.1666666666666,75.66103896103895,954.5833333333334,75.36233766233765,957,75.06363636363635C959.4166666666666,74.76493506493505,961.8333333333334,74.46623376623376,964.25,74.16753246753247C966.6666666666667,73.86883116883116,969.0833333333334,73.57012987012988,971.5000000000001,73.27142857142857C973.9166666666667,72.97272727272727,976.3333333333335,72.67402597402598,978.7500000000001,72.37532467532468C981.1666666666667,72.07662337662337,983.5833333333335,71.77792207792209,986.0000000000001,71.47922077922078C988.4166666666667,71.18051948051948,990.8333333333335,70.88181818181819,993.2500000000001,70.58311688311689C995.6666666666667,70.2844155844156,998.0833333333333,69.9857142857143,1000.4999999999999,69.68701298701299C1002.9166666666665,69.38831168831169,1005.3333333333333,69.08961038961039,1007.7499999999999,68.79090909090908C1010.1666666666665,68.49220779220778,1012.5833333333333,68.19350649350649,1014.9999999999999,67.89480519480519C1017.4166666666665,67.59610389610388,1019.8333333333333,67.29740259740258,1022.2499999999999,66.99870129870129C1024.6666666666665,66.69999999999999,1027.0833333333333,66.40129870129871,1029.5,66.10259740259741C1031.9166666666667,65.80389610389611,1034.3333333333333,65.5051948051948,1036.75,65.2064935064935C1039.1666666666667,64.9077922077922,1041.5833333333333,64.60909090909091,1044,64.3103896103896C1046.4166666666667,64.0116883116883,1048.8333333333333,63.71298701298701,1051.25,63.41428571428571C1053.6666666666667,63.115584415584415,1056.0833333333333,62.81688311688312,1058.5,62.51818181818182C1060.9166666666667,62.21948051948053,1063.3333333333333,61.920779220779224,1065.75,61.62207792207793C1068.1666666666667,61.32337662337663,1070.5833333333333,61.024675324675336,1073,60.72597402597403C1075.4166666666667,60.42727272727273,1077.8333333333333,60.12857142857142,1080.25,59.82987012987012C1082.6666666666667,59.53116883116883,1085.0833333333333,59.23246753246754,1087.5,58.93376623376624C1089.9166666666667,58.635064935064946,1092.3333333333333,58.33636363636363,1094.75,58.03766233766233C1097.1666666666667,57.73896103896104,1099.5833333333333,57.44025974025974,1102,57.141558441558445C1104.4166666666667,56.84285714285715,1106.8333333333333,56.544155844155846,1109.25,56.24545454545455C1111.6666666666667,55.946753246753254,1114.0833333333333,55.64805194805196,1116.5,55.349350649350654C1118.9166666666667,55.05064935064935,1121.3333333333333,54.75194805194804,1123.75,54.453246753246745C1126.1666666666667,54.15454545454545,1128.5833333333333,53.85584415584416,1131,53.557142857142864C1133.4166666666667,53.25844155844157,1135.8333333333333,52.959740259740265,1138.25,52.66103896103896C1140.6666666666667,52.36233766233766,1143.0833333333333,52.06363636363635,1145.5,51.76493506493505C1147.9166666666667,51.466233766233756,1150.3333333333333,51.16753246753247,1152.75,50.86883116883117C1155.1666666666667,50.570129870129875,1157.5833333333333,50.27142857142857,1160,49.972727272727276C1162.4166666666667,49.67402597402598,1164.8333333333333,49.37532467532468,1167.25,49.07662337662338C1169.6666666666667,48.777922077922085,1172.0833333333333,48.47922077922078,1174.5,48.180519480519486C1176.9166666666667,47.88181818181819,1179.3333333333333,47.58311688311689,1181.75,47.284415584415584C1184.1666666666667,46.98571428571428,1186.5833333333333,46.68701298701297,1189,46.388311688311674C1191.4166666666667,46.08961038961038,1193.8333333333333,45.79090909090909,1196.25,45.49220779220779C1198.6666666666667,45.1935064935065,1201.0833333333333,44.894805194805194,1203.5,44.5961038961039C1205.9166666666667,44.2974025974026,1208.3333333333333,43.9987012987013,1210.75,43.7C1213.1666666666667,43.40129870129871,1215.5833333333333,43.102597402597404,1218,42.80389610389611C1220.4166666666667,42.50519480519481,1222.8333333333333,42.2064935064935,1225.25,41.907792207792205C1227.6666666666667,41.60909090909091,1230.0833333333333,41.31038961038961,1232.5,41.01168831168831C1234.9166666666667,40.71298701298701,1237.3333333333333,40.4142857142857,1239.75,40.1155844155844C1242.1666666666667,39.816883116883105,1244.5833333333333,39.518181818181816,1247,39.21948051948052C1249.4166666666667,38.920779220779224,1251.8333333333333,38.62207792207793,1254.25,38.32337662337663C1256.6666666666667,38.024675324675336,1259.0833333333333,37.725974025974025,1261.5,37.42727272727272C1263.9166666666667,37.12857142857142,1266.3333333333333,36.82987012987012,1268.75,36.53116883116883C1271.1666666666667,36.23246753246753,1273.5833333333333,35.93376623376623,1276,35.63506493506493C1278.4166666666667,35.336363636363636,1280.8333333333333,35.03766233766234,1283.25,34.73896103896104C1285.6666666666667,34.440259740259734,1288.0833333333333,34.14155844155842,1290.5,33.84285714285713C1292.9166666666667,33.54415584415583,1295.3333333333333,33.24545454545454,1297.75,32.94675324675325C1300.1666666666667,32.64805194805195,1302.5833333333333,32.349350649350654,1305,32.05064935064936C1307.4166666666667,31.75194805194806,1309.8333333333333,31.453246753246752,1312.25,31.154545454545453C1314.6666666666667,30.855844155844153,1317.0833333333333,30.55714285714285,1319.5,30.258441558441554C1321.9166666666667,29.959740259740258,1324.3333333333333,29.66103896103897,1326.75,29.36233766233767C1329.1666666666667,29.06363636363637,1331.5833333333333,28.764935064935063,1334,28.466233766233763C1336.4166666666667,28.167532467532464,1338.8333333333333,27.86883116883116,1341.25,27.570129870129865C1343.6666666666667,27.27142857142857,1346.0833333333333,26.97272727272728,1348.5,26.67402597402598C1350.9166666666667,26.37532467532468,1353.3333333333333,26.07662337662337,1355.75,25.77792207792207C1358.1666666666667,25.47922077922077,1360.5833333333333,25.18051948051949,1363,24.88181818181819C1365.4166666666667,24.58311688311689,1367.8333333333333,24.28441558441558,1370.25,23.98571428571428C1372.6666666666667,23.68701298701298,1375.0833333333333,23.38831168831168,1377.5,23.08961038961038C1379.9166666666667,22.790909090909082,1382.3333333333333,22.492207792207775,1384.75,22.193506493506476C1387.1666666666667,21.894805194805176,1389.5833333333333,21.596103896103887,1392,21.29740259740259C1394.4166666666667,20.998701298701295,1396.8333333333333,20.700000000000003,1399.25,20.401298701298707C1401.6666666666667,20.10259740259741,1404.0833333333333,19.80389610389611,1406.5,19.50519480519481C1408.9166666666667,19.206493506493512,1411.3333333333333,18.907792207792202,1413.75,18.609090909090902C1416.1666666666667,18.310389610389603,1418.5833333333333,18.0116883116883,1421,17.712987012987004C1423.4166666666667,17.414285714285707,1425.8333333333333,17.115584415584422,1428.25,16.816883116883123C1430.6666666666667,16.518181818181823,1433.0833333333333,16.219480519480513,1435.5,15.920779220779211C1437.9166666666667,15.62207792207791,1440.3333333333333,15.323376623376612,1442.75,15.024675324675316C1445.1666666666667,14.72597402597402,1447.5833333333333,14.427272727272726,1450,14.128571428571432" fill="transparent" stroke-linecap="round" stroke="#B6509E" stroke-width="2"></path><path class="visx-linepath" d="M0,111.7142857142346C2.4166666666666665,111.70576719573738,4.833333333333334,111.69724867724015,7.25,111.68873015873015C9.666666666666666,111.68021164022015,12.083333333333334,111.67169312169311,14.5,111.6631746031746C16.916666666666668,111.65465608465608,19.333333333333332,111.64613756613755,21.75,111.63761904761904C24.166666666666668,111.62910052910053,26.583333333333332,111.62058201058201,29,111.6120634920635C31.416666666666668,111.60354497354498,33.833333333333336,111.59502645502646,36.25,111.58650793650794C38.666666666666664,111.57798941798943,41.083333333333336,111.5694708994709,43.5,111.56095238095239C45.91666666666667,111.55243386243387,48.333333333333336,111.54391534391534,50.75000000000001,111.53539682539683C53.16666666666667,111.52687830687832,55.583333333333336,111.51835978835979,58,111.50984126984127C60.416666666666664,111.50132275132276,62.833333333333336,111.49280423280423,65.25,111.48428571428572C67.66666666666667,111.4757671957672,70.08333333333333,111.46724867724868,72.5,111.45873015873016C74.91666666666667,111.45021164021165,77.33333333333333,111.4416931216931,79.75,111.43317460317459C82.16666666666667,111.42465608465608,84.58333333333333,111.41613756613755,87,111.40761904761904C89.41666666666667,111.39910052910052,91.83333333333333,111.39058201058201,94.25,111.3820634920635C96.66666666666667,111.37354497354498,99.08333333333334,111.36502645502645,101.50000000000001,111.35650793650794C103.91666666666667,111.34798941798942,106.33333333333334,111.3394708994709,108.75,111.33095238095238C111.16666666666667,111.32243386243387,113.58333333333333,111.31391534391534,116,111.30539682539683C118.41666666666667,111.29687830687831,120.83333333333334,111.28835978835978,123.25000000000001,111.27984126984127C125.66666666666667,111.27132275132276,128.08333333333334,111.26280423280423,130.5,111.25428571428571C132.91666666666666,111.2457671957672,135.33333333333334,111.23724867724867,137.75,111.22873015873016C140.16666666666666,111.22021164021164,142.58333333333334,111.21169312169312,145,111.2031746031746C147.41666666666666,111.19465608465609,149.83333333333334,111.18613756613756,152.25,111.17761904761905C154.66666666666666,111.16910052910053,157.08333333333334,111.160582010582,159.5,111.15206349206349C161.91666666666666,111.14354497354498,164.33333333333334,111.13502645502645,166.75,111.12650793650793C169.16666666666666,111.11798941798942,171.58333333333334,111.10947089947089,174,111.10095238095238C176.41666666666666,111.09243386243386,178.83333333333334,111.08391534391534,181.25,111.07539682539682C183.66666666666666,111.06687830687831,186.08333333333334,111.05835978835978,188.5,111.04984126984127C190.91666666666666,111.04132275132275,193.33333333333334,111.03280423280422,195.75,111.02428571428571C198.16666666666669,111.0157671957672,200.58333333333334,111.00724867724867,203.00000000000003,110.99873015873015C205.41666666666669,110.99021164021164,207.83333333333331,110.98169312169311,210.24999999999997,110.9731746031746C212.66666666666666,110.96465608465608,215.08333333333331,110.95613756613756,217.5,110.94761904761904C219.91666666666666,110.93910052910053,222.33333333333334,110.93058201058201,224.75,110.9220634920635C227.16666666666666,110.91354497354499,229.58333333333334,110.90502645502646,232,110.89650793650794C234.41666666666666,110.88798941798943,236.83333333333334,110.8794708994709,239.25,110.87095238095239C241.66666666666669,110.86243386243387,244.08333333333334,110.85391534391536,246.50000000000003,110.84539682539683C248.91666666666669,110.83687830687832,251.33333333333331,110.82835978835978,253.74999999999997,110.81984126984126C256.16666666666663,110.81132275132273,258.5833333333333,110.80280423280422,261,110.7942857142857C263.4166666666667,110.78576719576719,265.8333333333333,110.77724867724866,268.25,110.76873015873015C270.6666666666667,110.76021164021164,273.0833333333333,110.75169312169311,275.5,110.7431746031746C277.9166666666667,110.73465608465608,280.3333333333333,110.72613756613755,282.75,110.71761904761904C285.1666666666667,110.70910052910052,287.5833333333333,110.70058201058201,290,110.6920634920635C292.4166666666667,110.68354497354498,294.8333333333333,110.67502645502645,297.25,110.66650793650794C299.6666666666667,110.65798941798943,302.0833333333333,110.6494708994709,304.5,110.64095238095238C306.9166666666667,110.63243386243387,309.3333333333333,110.62391534391534,311.75,110.61539682539683C314.1666666666667,110.60687830687831,316.5833333333333,110.59835978835979,319,110.58984126984127C321.4166666666667,110.58132275132276,323.8333333333333,110.57280423280423,326.25,110.56428571428572C328.6666666666667,110.5557671957672,331.0833333333333,110.54724867724867,333.5,110.53873015873016C335.9166666666667,110.53021164021165,338.3333333333333,110.52169312169312,340.75,110.5131746031746C343.1666666666667,110.50465608465609,345.5833333333333,110.49613756613755,348,110.48761904761903C350.4166666666667,110.47910052910052,352.8333333333333,110.470582010582,355.25,110.46206349206349C357.6666666666667,110.45354497354498,360.0833333333333,110.44502645502645,362.5,110.43650793650794C364.9166666666667,110.42798941798942,367.3333333333333,110.4194708994709,369.75,110.41095238095238C372.1666666666667,110.40243386243387,374.5833333333333,110.39391534391534,377,110.38539682539682C379.4166666666667,110.37687830687831,381.8333333333333,110.36835978835978,384.25,110.35984126984127C386.6666666666667,110.35132275132275,389.0833333333333,110.34280423280423,391.5,110.33428571428571C393.9166666666667,110.3257671957672,396.33333333333337,110.31724867724867,398.75000000000006,110.30873015873016C401.16666666666674,110.30021164021164,403.58333333333337,110.29169312169311,406.00000000000006,110.2831746031746C408.4166666666667,110.27465608465609,410.8333333333333,110.26613756613756,413.24999999999994,110.25761904761904C415.66666666666663,110.24910052910053,418.08333333333326,110.24058201058202,420.49999999999994,110.2320634920635C422.91666666666663,110.22354497354499,425.3333333333333,110.21502645502646,427.75,110.20650793650793C430.1666666666667,110.19798941798942,432.5833333333333,110.18947089947089,435,110.18095238095238C437.4166666666667,110.17243386243386,439.8333333333333,110.16391534391533,442.25,110.15539682539682C444.6666666666667,110.1468783068783,447.0833333333333,110.13835978835978,449.5,110.12984126984126C451.9166666666667,110.12132275132275,454.3333333333333,110.11280423280422,456.75,110.10428571428571C459.1666666666667,110.0957671957672,461.5833333333333,110.08724867724867,464,110.07873015873015C466.4166666666667,110.07021164021164,468.8333333333333,110.06169312169311,471.25,110.0531746031746C473.6666666666667,110.04465608465608,476.0833333333333,110.03613756613757,478.5,110.02761904761905C480.9166666666667,110.01910052910054,483.33333333333337,110.01058201058201,485.75000000000006,110.0020634920635C488.16666666666674,109.99354497354499,490.58333333333337,109.98502645502646,493.00000000000006,109.97650793650794C495.4166666666667,109.96798941798943,497.8333333333333,109.9594708994709,500.24999999999994,109.95095238095239C502.66666666666663,109.94243386243387,505.08333333333326,109.93391534391534,507.49999999999994,109.92539682539683C509.91666666666663,109.91687830687832,512.3333333333333,109.9083597883598,514.75,109.89984126984127C517.1666666666666,109.89132275132276,519.5833333333334,109.88280423280423,522,109.8742857142857C524.4166666666666,109.86576719576718,526.8333333333334,109.85724867724866,529.25,109.84873015873015C531.6666666666666,109.84021164021163,534.0833333333334,109.8316931216931,536.5,109.82317460317459C538.9166666666666,109.81465608465608,541.3333333333334,109.80613756613756,543.75,109.79761904761905C546.1666666666666,109.78910052910054,548.5833333333334,109.78058201058201,551,109.7720634920635C553.4166666666666,109.76354497354498,555.8333333333334,109.75502645502645,558.25,109.74650793650794C560.6666666666666,109.73798941798943,563.0833333333334,109.7294708994709,565.5,109.72095238095238C567.9166666666666,109.71243386243387,570.3333333333334,109.70391534391534,572.75,109.69539682539683C575.1666666666666,109.68687830687831,577.5833333333334,109.67835978835978,580,109.66984126984127C582.4166666666666,109.66132275132276,584.8333333333334,109.65280423280423,587.25,109.64428571428572C589.6666666666666,109.6357671957672,592.0833333333334,109.62724867724867,594.5,109.61873015873016C596.9166666666666,109.61021164021165,599.3333333333334,109.60169312169312,601.75,109.5931746031746C604.1666666666666,109.58465608465609,606.5833333333334,109.57613756613756,609,109.56761904761905C611.4166666666666,109.55910052910053,613.8333333333334,109.550582010582,616.25,109.54206349206349C618.6666666666666,109.53354497354498,621.0833333333334,109.52502645502645,623.5,109.51650793650794C625.9166666666666,109.50798941798942,628.3333333333334,109.4994708994709,630.75,109.49095238095238C633.1666666666666,109.48243386243387,635.5833333333334,109.47391534391534,638,109.46539682539682C640.4166666666666,109.45687830687831,642.8333333333334,109.44835978835978,645.25,109.43984126984127C647.6666666666666,109.43132275132275,650.0833333333334,109.43132275132275,652.5,109.41428571428571C654.9166666666666,109.39724867724867,657.3333333333334,108.81688311688312,659.75,108.51818181818182C662.1666666666666,108.21948051948051,664.5833333333334,107.92077922077922,667,107.62207792207792C669.4166666666666,107.32337662337662,671.8333333333334,107.02467532467533,674.25,106.72597402597403C676.6666666666666,106.42727272727272,679.0833333333334,106.12857142857143,681.5,105.82987012987013C683.9166666666666,105.53116883116883,686.3333333333334,105.23246753246754,688.75,104.93376623376624C691.1666666666666,104.63506493506493,693.5833333333334,104.33636363636364,696,104.03766233766234C698.4166666666666,103.73896103896104,700.8333333333334,103.44025974025973,703.25,103.14155844155843C705.6666666666666,102.84285714285713,708.0833333333334,102.54415584415584,710.5,102.24545454545454C712.9166666666666,101.94675324675323,715.3333333333334,101.64805194805193,717.75,101.34935064935064C720.1666666666666,101.05064935064935,722.5833333333334,100.75194805194806,725,100.45324675324676C727.4166666666666,100.15454545454546,729.8333333333334,99.85584415584415,732.25,99.55714285714285C734.6666666666666,99.25844155844155,737.0833333333334,98.95974025974027,739.5,98.66103896103897C741.9166666666666,98.36233766233767,744.3333333333334,98.06363636363636,746.75,97.76493506493506C749.1666666666666,97.46623376623376,751.5833333333334,97.16753246753247,754,96.86883116883118C756.4166666666666,96.57012987012989,758.8333333333334,96.27142857142859,761.25,95.97272727272728C763.6666666666666,95.67402597402598,766.0833333333334,95.37532467532469,768.5,95.07662337662339C770.9166666666666,94.77792207792209,773.3333333333334,94.47922077922078,775.75,94.18051948051948C778.1666666666666,93.88181818181818,780.5833333333334,93.58311688311689,783,93.28441558441558C785.4166666666667,92.98571428571428,787.8333333333334,92.68701298701298,790.2500000000001,92.38831168831167C792.6666666666667,92.08961038961039,795.0833333333335,91.79090909090908,797.5000000000001,91.4922077922078C799.9166666666667,91.1935064935065,802.3333333333335,90.8948051948052,804.7500000000001,90.5961038961039C807.1666666666667,90.2974025974026,809.5833333333335,89.9987012987013,812.0000000000001,89.7C814.4166666666667,89.40129870129871,816.8333333333333,89.1025974025974,819.2499999999999,88.80389610389611C821.6666666666665,88.5051948051948,824.0833333333333,88.20649350649352,826.4999999999999,87.90779220779221C828.9166666666665,87.60909090909091,831.3333333333333,87.31038961038962,833.7499999999999,87.01168831168832C836.1666666666665,86.71298701298701,838.5833333333333,86.41428571428571,840.9999999999999,86.11558441558442C843.4166666666666,85.81688311688312,845.8333333333333,85.51818181818183,848.25,85.21948051948053C850.6666666666666,84.92077922077922,853.0833333333334,84.62207792207792,855.5,84.32337662337662C857.9166666666666,84.02467532467531,860.3333333333334,83.72597402597403,862.75,83.42727272727272C865.1666666666666,83.12857142857142,867.5833333333334,82.82987012987012,870,82.53116883116883C872.4166666666666,82.23246753246754,874.8333333333334,81.93376623376625,877.25,81.63506493506495C879.6666666666666,81.33636363636364,882.0833333333334,81.03766233766234,884.5,80.73896103896104C886.9166666666666,80.44025974025973,889.3333333333334,80.14155844155844,891.75,79.84285714285714C894.1666666666666,79.54415584415584,896.5833333333334,79.24545454545455,899,78.94675324675325C901.4166666666666,78.64805194805194,903.8333333333334,78.34935064935065,906.25,78.05064935064935C908.6666666666666,77.75194805194805,911.0833333333334,77.45324675324676,913.5,77.15454545454546C915.9166666666666,76.85584415584415,918.3333333333334,76.55714285714286,920.75,76.25844155844156C923.1666666666666,75.95974025974026,925.5833333333334,75.66103896103897,928,75.36233766233767C930.4166666666666,75.06363636363636,932.8333333333334,74.76493506493507,935.25,74.46623376623377C937.6666666666666,74.16753246753247,940.0833333333334,73.86883116883116,942.5,73.57012987012986C944.9166666666666,73.27142857142856,947.3333333333334,72.97272727272728,949.75,72.67402597402598C952.1666666666666,72.37532467532468,954.5833333333334,72.07662337662337,957,71.77792207792207C959.4166666666666,71.47922077922077,961.8333333333334,71.18051948051948,964.25,70.88181818181818C966.6666666666667,70.58311688311687,969.0833333333334,70.28441558441558,971.5000000000001,69.98571428571428C973.9166666666667,69.68701298701299,976.3333333333335,69.3883116883117,978.7500000000001,69.0896103896104C981.1666666666667,68.7909090909091,983.5833333333335,68.4922077922078,986.0000000000001,68.19350649350649C988.4166666666667,67.89480519480519,990.8333333333335,67.5961038961039,993.2500000000001,67.2974025974026C995.6666666666667,66.9987012987013,998.0833333333333,66.69999999999999,1000.4999999999999,66.4012987012987C1002.9166666666665,66.1025974025974,1005.3333333333333,65.80389610389612,1007.7499999999999,65.50519480519482C1010.1666666666665,65.20649350649352,1012.5833333333333,64.90779220779221,1014.9999999999999,64.60909090909091C1017.4166666666665,64.3103896103896,1019.8333333333333,64.01168831168832,1022.2499999999999,63.71298701298702C1024.6666666666665,63.41428571428572,1027.0833333333333,63.115584415584415,1029.5,62.81688311688311C1031.9166666666667,62.518181818181816,1034.3333333333333,62.21948051948051,1036.75,61.92077922077922C1039.1666666666667,61.62207792207792,1041.5833333333333,61.32337662337662,1044,61.02467532467532C1046.4166666666667,60.725974025974025,1048.8333333333333,60.42727272727273,1051.25,60.12857142857143C1053.6666666666667,59.82987012987014,1056.0833333333333,59.53116883116884,1058.5,59.23246753246754C1060.9166666666667,58.933766233766235,1063.3333333333333,58.635064935064925,1065.75,58.33636363636363C1068.1666666666667,58.03766233766233,1070.5833333333333,57.738961038961044,1073,57.44025974025975C1075.4166666666667,57.14155844155845,1077.8333333333333,56.84285714285714,1080.25,56.544155844155846C1082.6666666666667,56.24545454545455,1085.0833333333333,55.946753246753254,1087.5,55.64805194805195C1089.9166666666667,55.34935064935065,1092.3333333333333,55.05064935064934,1094.75,54.75194805194804C1097.1666666666667,54.453246753246745,1099.5833333333333,54.154545454545456,1102,53.85584415584416C1104.4166666666667,53.557142857142864,1106.8333333333333,53.25844155844157,1109.25,52.959740259740265C1111.6666666666667,52.66103896103896,1114.0833333333333,52.36233766233765,1116.5,52.063636363636355C1118.9166666666667,51.76493506493506,1121.3333333333333,51.46623376623376,1123.75,51.16753246753247C1126.1666666666667,50.86883116883117,1128.5833333333333,50.57012987012987,1131,50.27142857142857C1133.4166666666667,49.972727272727276,1135.8333333333333,49.67402597402597,1138.25,49.37532467532468C1140.6666666666667,49.07662337662338,1143.0833333333333,48.77792207792208,1145.5,48.47922077922078C1147.9166666666667,48.180519480519486,1150.3333333333333,47.88181818181818,1152.75,47.58311688311689C1155.1666666666667,47.28441558441559,1157.5833333333333,46.985714285714295,1160,46.68701298701299C1162.4166666666667,46.38831168831169,1164.8333333333333,46.08961038961038,1167.25,45.79090909090908C1169.6666666666667,45.492207792207786,1172.0833333333333,45.19350649350649,1174.5,44.894805194805194C1176.9166666666667,44.5961038961039,1179.3333333333333,44.29740259740258,1181.75,43.998701298701285C1184.1666666666667,43.69999999999999,1186.5833333333333,43.4012987012987,1189,43.102597402597404C1191.4166666666667,42.80389610389611,1193.8333333333333,42.505194805194805,1196.25,42.20649350649351C1198.6666666666667,41.90779220779221,1201.0833333333333,41.60909090909091,1203.5,41.31038961038961C1205.9166666666667,41.01168831168832,1208.3333333333333,40.71298701298701,1210.75,40.41428571428571C1213.1666666666667,40.115584415584415,1215.5833333333333,39.81688311688311,1218,39.518181818181816C1220.4166666666667,39.21948051948052,1222.8333333333333,38.920779220779224,1225.25,38.62207792207792C1227.6666666666667,38.32337662337662,1230.0833333333333,38.02467532467531,1232.5,37.72597402597401C1234.9166666666667,37.427272727272715,1237.3333333333333,37.12857142857143,1239.75,36.82987012987014C1242.1666666666667,36.53116883116884,1244.5833333333333,36.23246753246754,1247,35.933766233766235C1249.4166666666667,35.63506493506493,1251.8333333333333,35.33636363636363,1254.25,35.03766233766233C1256.6666666666667,34.73896103896104,1259.0833333333333,34.440259740259734,1261.5,34.14155844155844C1263.9166666666667,33.84285714285714,1266.3333333333333,33.54415584415584,1268.75,33.24545454545454C1271.1666666666667,32.94675324675325,1273.5833333333333,32.64805194805195,1276,32.34935064935065C1278.4166666666667,32.050649350649344,1280.8333333333333,31.751948051948037,1283.25,31.453246753246738C1285.6666666666667,31.15454545454544,1288.0833333333333,30.85584415584415,1290.5,30.557142857142853C1292.9166666666667,30.258441558441557,1295.3333333333333,29.959740259740265,1297.75,29.66103896103897C1300.1666666666667,29.362337662337673,1302.5833333333333,29.063636363636373,1305,28.764935064935074C1307.4166666666667,28.466233766233774,1309.8333333333333,28.167532467532464,1312.25,27.868831168831164C1314.6666666666667,27.570129870129865,1317.0833333333333,27.271428571428565,1319.5,26.97272727272727C1321.9166666666667,26.674025974025973,1324.3333333333333,26.37532467532468,1326.75,26.076623376623385C1329.1666666666667,25.77792207792209,1331.5833333333333,25.4792207792208,1334,25.1805194805195C1336.4166666666667,24.8818181818182,1338.8333333333333,24.58311688311689,1341.25,24.28441558441559C1343.6666666666667,23.98571428571429,1346.0833333333333,23.687012987012995,1348.5,23.388311688311695C1350.9166666666667,23.089610389610396,1353.3333333333333,22.790909090909086,1355.75,22.492207792207786C1358.1666666666667,22.193506493506487,1360.5833333333333,21.894805194805198,1363,21.5961038961039C1365.4166666666667,21.297402597402606,1367.8333333333333,20.998701298701306,1370.25,20.700000000000006C1372.6666666666667,20.401298701298707,1375.0833333333333,20.102597402597397,1377.5,19.803896103896097C1379.9166666666667,19.505194805194797,1382.3333333333333,19.206493506493512,1384.75,18.907792207792212C1387.1666666666667,18.609090909090913,1389.5833333333333,18.310389610389603,1392,18.011688311688303C1394.4166666666667,17.712987012987004,1396.8333333333333,17.414285714285715,1399.25,17.11558441558442C1401.6666666666667,16.816883116883123,1404.0833333333333,16.518181818181823,1406.5,16.219480519480523C1408.9166666666667,15.920779220779222,1411.3333333333333,15.622077922077915,1413.75,15.323376623376614C1416.1666666666667,15.024675324675313,1418.5833333333333,14.725974025974015,1421,14.427272727272719C1423.4166666666667,14.128571428571423,1425.8333333333333,13.829870129870129,1428.25,13.531168831168834C1430.6666666666667,13.23246753246754,1433.0833333333333,12.93376623376625,1435.5,12.635064935064952C1437.9166666666667,12.336363636363654,1440.3333333333333,12.037662337662344,1442.75,11.738961038961042C1445.1666666666667,11.44025974025974,1447.5833333333333,11.141558441558443,1450,10.842857142857145" fill="transparent" stroke-linecap="round" stroke="#E7C6DF" stroke-width="2"></path><g class="visx-group visx-axis visx-axis-bottom" transform="translate(0, 115)"><g class="visx-group visx-axis-tick" transform="translate(0, 0)"><line class="visx-line" x1="0" y1="0" x2="0" y2="8" fill="transparent" shape-rendering="crispEdges" stroke="#000" stroke-width="0" stroke-linecap="square"></line><svg x="0" y="0" font-size="10" style="overflow:visible"><text transform="" x="0" y="18" fill="#000" font-size="10" text-anchor="middle"><tspan x="0" dy="0em">0%</tspan></text></svg></g><g class="visx-group visx-axis-tick" transform="translate(0, 0)"><line class="visx-line" x1="362.5" y1="0" x2="362.5" y2="8" fill="transparent" shape-rendering="crispEdges" stroke="#000" stroke-width="0" stroke-linecap="square"></line><svg x="0" y="0" font-size="10" style="overflow:visible"><text transform="" x="362.5" y="18" fill="#000" font-size="10" text-anchor="middle"><tspan x="362.5" dy="0em">25%</tspan></text></svg></g><g class="visx-group visx-axis-tick" transform="translate(0, 0)"><line class="visx-line" x1="725" y1="0" x2="725" y2="8" fill="transparent" shape-rendering="crispEdges" stroke="#000" stroke-width="0" stroke-linecap="square"></line><svg x="0" y="0" font-size="10" style="overflow:visible"><text transform="" x="725" y="18" fill="#000" font-size="10" text-anchor="middle"><tspan x="725" dy="0em">50%</tspan></text></svg></g><g class="visx-group visx-axis-tick" transform="translate(0, 0)"><line class="visx-line" x1="1087.5" y1="0" x2="1087.5" y2="8" fill="transparent" shape-rendering="crispEdges" stroke="#000" stroke-width="0" stroke-linecap="square"></line><svg x="0" y="0" font-size="10" style="overflow:visible"><text transform="" x="1087.5" y="18" fill="#000" font-size="10" text-anchor="middle"><tspan x="1087.5" dy="0em">75%</tspan></text></svg></g><g class="visx-group visx-axis-tick" transform="translate(0, 0)"><line class="visx-line" x1="1450" y1="0" x2="1450" y2="8" fill="transparent" shape-rendering="crispEdges" stroke="#000" stroke-width="0" stroke-linecap="square"></line><svg x="0" y="0" font-size="10" style="overflow:visible"><text transform="" x="1450" y="18" fill="#000" font-size="10" text-anchor="middle"><tspan x="1450" dy="0em">100%</tspan></text></svg></g><line class="visx-line visx-axis-line" x1="0.5" y1="0" x2="1450.5" y2="0" fill="transparent" shape-rendering="crispEdges" stroke="#222" stroke-width="0"></line></g><g class="visx-group visx-axis visx-axis-left" transform="translate(0, 0)"><g class="visx-group visx-axis-tick" transform="translate(0, 0)"><line class="visx-line" x1="0" y1="115" x2="-8" y2="115" fill="transparent" shape-rendering="crispEdges" stroke="#222" stroke-width="0" stroke-linecap="square"></line><svg x="-30" y="0" font-size="8" style="overflow:visible"><text transform="" x="-8" y="115" fill="#000" font-size="8" text-anchor="start"><tspan x="-8" dy="0em">0%</tspan></text></svg></g><g class="visx-group visx-axis-tick" transform="translate(0, 0)"><line class="visx-line" x1="0" y1="49.28571428571429" x2="-8" y2="49.28571428571429" fill="transparent" shape-rendering="crispEdges" stroke="#222" stroke-width="0" stroke-linecap="square"></line><svg x="-30" y="0" font-size="8" style="overflow:visible"><text transform="" x="-8" y="49.28571428571429" fill="#000" font-size="8" text-anchor="start"><tspan x="-8" dy="0em">200%</tspan></text></svg></g><line class="visx-line visx-axis-line" x1="0" y1="115.5" x2="0" y2="0.5" fill="transparent" shape-rendering="crispEdges" stroke="#222" stroke-width="0"></line></g><rect class="visx-bar" width="1450" height="115" fill="transparent"></rect><line class="visx-line" x1="652.5" y1="28" x2="652.5" y2="115" fill="transparent" shape-rendering="crispEdges" stroke="#0062D2" stroke-width="1" pointer-events="none" stroke-dasharray="5,2"></line><svg x="0" y="0" font-size="10px" style="overflow:visible"><text transform="" x="652.5" y="20" font-size="10px" fill="#fff" stroke="#fff" stroke-width="0.8em" text-anchor="middle"><tspan x="652.5" dy="0.355em">Optimal 45%</tspan></text></svg><svg x="0" y="0" font-size="10px" style="overflow:visible"><text transform="" x="652.5" y="20" font-size="10px" fill="#62677B" text-anchor="middle"><tspan x="652.5" dy="0.355em">Optimal 45%</tspan></text></svg></g></svg>